<svg id="_01-pancake" data-name="01-pancake" xmlns="http://www.w3.org/2000/svg" viewBox="0 0 64 64"><path d="M9.275,44.6l-.55-1.923q.974-.279,2.044-.533l.461,1.946Q10.208,44.331,9.275,44.6Z"/><path d="M32,58C16.487,58,0,54.846,0,49c0-2.211,2.244-4.12,6.668-5.675l.664,1.887C3.993,46.385,2,47.8,2,49c0,2.923,11.413,7,30,7s30-4.077,30-7c0-1.2-1.991-2.614-5.326-3.786l.663-1.887C61.758,44.881,64,46.79,64,49,64,54.846,47.513,58,32,58Z"/><path d="M32,64C18.092,64,8.605,60.982,8.028,56.442L6.293,54.707A1,1,0,0,1,6,54V53H8v.586l1.707,1.707A1,1,0,0,1,10,56c0,2.886,8.411,6,22,6s22-3.114,22-6a1,1,0,0,1,.293-.707L56,53.586V53h2v1a1,1,0,0,1-.293.707l-1.735,1.735C55.4,60.982,45.908,64,32,64Z"/><path d="M28.961,25.942C18.182,25.525,12,22.994,12,19V15h2v4c0,2.608,6.043,4.595,15.038,4.944Z"/><path d="M43.193,25.065,42.807,23.1C47.378,22.2,50,20.708,50,19V15h2v4C52,20.977,50.472,23.633,43.193,25.065Z"/><path d="M22.991,20C18.614,19.962,12,19.905,12,15c0-1.237.616-3.022,3.55-4.5l.9,1.787C15.332,12.85,14,13.777,14,15c0,2.13,2.441,2.943,9.009,3Z"/><path d="M44.06,19.991l-.119-2C49.266,17.678,50,16.368,50,15a2.254,2.254,0,0,0-.726-1.562l1.45-1.377A4.2,4.2,0,0,1,52,15C52,19.519,46.436,19.85,44.06,19.991Z"/><path d="M32,36c-4.692,0-20-.505-20-7V25h2v4c0,2.944,7.4,5,18,5s18-2.056,18-5V25h2v4C52,35.495,36.692,36,32,36Z"/><path d="M23.681,30.081c-4.889,0-8.666-.307-10.5-2.113A4,4,0,0,1,12,25c0-1.028.432-2.529,2.487-3.843l1.077,1.686A2.742,2.742,0,0,0,14,25a2.024,2.024,0,0,0,.586,1.543c1.688,1.664,6.864,1.587,12.862,1.5C28.906,28.022,30.431,28,32,28v2c-1.559,0-3.073.022-4.523.043C26.152,30.062,24.883,30.081,23.681,30.081Z"/><path d="M43.036,30.04l-.073-2C48.8,27.831,50,26.673,50,25c0-.768-.526-1.494-1.565-2.158l1.077-1.685C51.568,22.471,52,23.972,52,25,52,29.716,45.945,29.935,43.036,30.04Z"/><path d="M32,46c-4.692,0-20-.505-20-7V35h2v4c0,2.944,7.4,5,18,5a60.905,60.905,0,0,0,9.834-.72l.332,1.973A62.935,62.935,0,0,1,32,46Z"/><path d="M44.224,44.846,43.776,42.9C47.731,41.987,50,40.567,50,39V35h2v4C52,40.851,50.651,43.368,44.224,44.846Z"/><path d="M23.657,40.082c-5.3,0-8.723-.367-10.492-2.132A4.006,4.006,0,0,1,12,35c0-1.028.432-2.529,2.487-3.843l1.077,1.686A2.742,2.742,0,0,0,14,35a2.024,2.024,0,0,0,.577,1.534c1.452,1.448,5.631,1.561,9.42,1.547l.006,2Z"/><rect x="25.999" y="38.05" width="2.001" height="2" transform="translate(-0.494 0.346) rotate(-0.727)"/><path d="M40.32,40.081c-1.2,0-2.472-.019-3.8-.038-2.074-.03-4.342-.056-6.513-.032l-.021-2c2.19-.022,4.474,0,6.563.032,6,.089,11.174.165,12.862-1.5A2.024,2.024,0,0,0,50,35c0-.768-.526-1.494-1.565-2.158l1.077-1.685C51.568,32.471,52,33.972,52,35a4,4,0,0,1-1.182,2.968C48.985,39.774,45.208,40.081,40.32,40.081Z"/><path d="M32,56a52.906,52.906,0,0,1-13.261-1.413l.522-1.93A50.981,50.981,0,0,0,32,54a60.905,60.905,0,0,0,9.834-.72l.332,1.973A62.935,62.935,0,0,1,32,56Z"/><path d="M40.331,50.081c-1.21,0-2.484-.019-3.808-.038-2.9-.043-6.148-.043-9.046,0-6.71.1-12.011.176-14.295-2.075A4,4,0,0,1,12,45c0-1.028.432-2.529,2.487-3.843l1.077,1.686A2.742,2.742,0,0,0,14,45a2.024,2.024,0,0,0,.586,1.543c1.688,1.664,6.864,1.587,12.862,1.5,2.917-.042,6.186-.042,9.1,0,4.675.069,8.715.127,11.16-.607l.576,1.915A29.832,29.832,0,0,1,40.331,50.081Z"/><path d="M49.88,44.367a3.458,3.458,0,0,0-1.444-1.525l1.078-1.684a5.371,5.371,0,0,1,2.229,2.479Z"/><path d="M20,17a5,5,0,1,1,5-5A5.006,5.006,0,0,1,20,17Zm0-8a3,3,0,1,0,3,3A3,3,0,0,0,20,9Z"/><path d="M24,13V11a3.005,3.005,0,0,0,2.25-1.016l1.5,1.323A5,5,0,0,1,24,13Z"/><path d="M29,8H27a3,3,0,0,0-6,0H19A5,5,0,0,1,29,8Z"/><path d="M52,53a5,5,0,1,1,5-5A5.006,5.006,0,0,1,52,53Zm0-8a3,3,0,1,0,3,3A3,3,0,0,0,52,45Z"/><path d="M42.249,57.306a5,5,0,1,1,8.082-.806l-1.732-1a3,3,0,1,0-4.85.484Z"/><path d="M18.307,56.75l-1.323-1.5A3,3,0,1,0,12.4,54.5l-1.732,1a5,5,0,1,1,7.637,1.248Z"/><path d="M10,55a5,5,0,1,1,4.842-6.252l-1.937.5a3,3,0,1,0-2.154,3.657l.5,1.938A5.059,5.059,0,0,1,10,55Z"/><path d="M41.744,13.841a5,5,0,1,1,6.1-6.1l-1.937.5A3,3,0,1,0,42.245,11.9Z"/><path d="M46,17a5,5,0,1,1,5-5A5.006,5.006,0,0,1,46,17Zm0-8a3,3,0,1,0,3,3A3,3,0,0,0,46,9Z"/><path d="M43,6a1,1,0,0,1-1-1,4.821,4.821,0,0,1,5-5,1,1,0,0,1,1,1A4.821,4.821,0,0,1,43,6Zm2.783-3.807a2.559,2.559,0,0,0-1.566,1.614A2.559,2.559,0,0,0,45.783,2.193Z"/><path d="M43,6a4.821,4.821,0,0,1-5-5,1,1,0,0,1,1-1,4.821,4.821,0,0,1,5,5A1,1,0,0,1,43,6ZM40.216,2.193a2.558,2.558,0,0,0,1.567,1.614A2.556,2.556,0,0,0,40.216,2.193Z"/><path d="M19,9a4.821,4.821,0,0,1-5-5,1,1,0,0,1,1-1,4.821,4.821,0,0,1,5,5A1,1,0,0,1,19,9ZM16.216,5.193a2.558,2.558,0,0,0,1.567,1.614A2.556,2.556,0,0,0,16.216,5.193Z"/><path d="M36,10H27a1,1,0,0,1-.6-1.8l4-3A1,1,0,0,1,31,5h8a1,1,0,0,1,.707,1.707l-3,3A1,1,0,0,1,36,10ZM30,8h5.586l1-1H31.333Z"/><path d="M36,15H27a1,1,0,0,1-1-1V9h2v4h7V9h2v5A1,1,0,0,1,36,15Z"/><path d="M36.707,14.707l-1.414-1.414L38,10.586V6h2v5a1,1,0,0,1-.293.707Z"/><path d="M38,31a4.007,4.007,0,0,1-3.92-3.2A3,3,0,0,1,30,25V20H27.5a4.5,4.5,0,0,1-.641-8.954l.283,1.979A2.5,2.5,0,0,0,27.5,18H31a1,1,0,0,1,1,1v6a1,1,0,0,0,2,0,1,1,0,0,1,2,0v2a2,2,0,0,0,4,0V17.944a1,1,0,0,1,.285-.7A2.5,2.5,0,0,0,38.5,13H38V11h.5A4.5,4.5,0,0,1,42,18.324V27A4,4,0,0,1,38,31Z"/><rect x="45" y="9.382" width="2" height="2.236" transform="translate(16.037 46.948) rotate(-63.435)"/><rect x="45" y="51.382" width="2" height="2.236" transform="translate(-21.529 70.165) rotate(-63.435)"/><rect x="17.882" y="9.5" width="2.236" height="2" transform="translate(-2.69 9.606) rotate(-26.565)"/><rect x="8.882" y="47.5" width="2.236" height="2" transform="translate(-20.634 9.592) rotate(-26.565)"/><rect x="51" y="46" width="2" height="2"/><rect x="14" y="51" width="2" height="2"/></svg>