<svg xmlns="http://www.w3.org/2000/svg" viewBox="0 0 64 64"><g id="_02-cookie" data-name="02-cookie"><path d="M40,47a4,4,0,1,1,4-4A4,4,0,0,1,40,47Zm0-6a2,2,0,1,0,2,2A2,2,0,0,0,40,41Z"/><path d="M53,52a4,4,0,1,1,4-4A4,4,0,0,1,53,52Zm0-6a2,2,0,1,0,2,2A2,2,0,0,0,53,46Z"/><path d="M54,38a4,4,0,1,1,4-4A4,4,0,0,1,54,38Zm0-6a2,2,0,1,0,2,2A2,2,0,0,0,54,32Z"/><path d="M38,35a4,4,0,1,1,4-4A4,4,0,0,1,38,35Zm0-6a2,2,0,1,0,2,2A2,2,0,0,0,38,29Z"/><path d="M30,53a4,4,0,1,1,4-4A4,4,0,0,1,30,53Zm0-6a2,2,0,1,0,2,2A2,2,0,0,0,30,47Z"/><path d="M9.577,38.61A20.974,20.974,0,0,1,2.731,10.654l1.738.992A18.97,18.97,0,0,0,10.663,36.93Z"/><path d="M41.885,23.21l-1.99-.2A19.915,19.915,0,0,0,40,21c0-.194,0-.387-.012-.577l-.378.087a10.453,10.453,0,0,1-4.847.323,8.262,8.262,0,0,1-4-2.5,8.613,8.613,0,0,1-1.843-2.614,11.163,11.163,0,0,1-.67-2.8,9.862,9.862,0,0,0-.514-2.268,9.625,9.625,0,0,0-1.869-2.575l-.313-.349a4.48,4.48,0,0,1-1.039-1.653,3.437,3.437,0,0,1,.009-1.836,3.761,3.761,0,0,1,1.023-1.669A18.983,18.983,0,0,0,8.2,6.96L6.856,5.48a20.892,20.892,0,0,1,21.19-4.242,1,1,0,0,1,.177,1.8c-1.356.81-1.689,1.419-1.767,1.71a1.469,1.469,0,0,0-.026.75,2.825,2.825,0,0,0,.615.9l.308.342a11.269,11.269,0,0,1,2.231,3.151,11.433,11.433,0,0,1,.643,2.738,9.5,9.5,0,0,0,.533,2.314,6.717,6.717,0,0,0,1.438,2,6.368,6.368,0,0,0,3.02,1.942,8.708,8.708,0,0,0,3.944-.325c.512-.118,1.033-.237,1.569-.335a1,1,0,0,1,1.176.9c.046.547.093,1.2.093,1.874A22.123,22.123,0,0,1,41.885,23.21Z"/><path d="M19.951,41.975A20.768,20.768,0,0,1,15.6,41.3l.518-1.932a18.781,18.781,0,0,0,3.93.613Z"/><path d="M6,27a4,4,0,1,1,4-4A4,4,0,0,1,6,27Zm0-6a2,2,0,1,0,2,2A2,2,0,0,0,6,21Z"/><path d="M16,31a4,4,0,1,1,4-4A4,4,0,0,1,16,31Zm0-6a2,2,0,1,0,2,2A2,2,0,0,0,16,25Z"/><path d="M23,22a4,4,0,1,1,4-4A4,4,0,0,1,23,22Zm0-6a2,2,0,1,0,2,2A2,2,0,0,0,23,16Z"/><path d="M19,11a4,4,0,1,1,4-4A4,4,0,0,1,19,11Zm0-6a2,2,0,1,0,2,2A2,2,0,0,0,19,5Z"/><path d="M5.511,12.994a3.6,3.6,0,0,1-1.686-.407,3.377,3.377,0,0,1-1.7-2.145,4.161,4.161,0,0,1,.563-3.276A4.328,4.328,0,0,1,8.175,5.413a3.377,3.377,0,0,1,1.7,2.145,4.161,4.161,0,0,1-.563,3.276A4.593,4.593,0,0,1,5.511,12.994ZM6.475,7a2.594,2.594,0,0,0-2.1,1.234,2.169,2.169,0,0,0-.321,1.692,1.386,1.386,0,0,0,.7.892A2.338,2.338,0,0,0,7.621,9.766a2.169,2.169,0,0,0,.321-1.692,1.386,1.386,0,0,0-.7-.892A1.637,1.637,0,0,0,6.475,7Z"/><path d="M53.511,61.994a3.6,3.6,0,0,1-1.686-.407,3.377,3.377,0,0,1-1.7-2.145,4.161,4.161,0,0,1,.563-3.276,4.328,4.328,0,0,1,5.486-1.753,3.377,3.377,0,0,1,1.7,2.145,4.161,4.161,0,0,1-.563,3.276A4.593,4.593,0,0,1,53.511,61.994ZM54.475,56a2.594,2.594,0,0,0-2.1,1.234,2.169,2.169,0,0,0-.321,1.692,1.386,1.386,0,0,0,.7.892,2.338,2.338,0,0,0,2.863-1.052,2.169,2.169,0,0,0,.321-1.692,1.386,1.386,0,0,0-.7-.892A1.637,1.637,0,0,0,54.475,56Z"/><path d="M13.472,43a4.338,4.338,0,0,1-2.306-.689,4.327,4.327,0,0,1-1.753-5.486,3.377,3.377,0,0,1,2.145-1.7,4.161,4.161,0,0,1,3.276.563,4.327,4.327,0,0,1,1.753,5.486,3.377,3.377,0,0,1-2.145,1.7A3.763,3.763,0,0,1,13.472,43Zm-.94-6a1.786,1.786,0,0,0-.458.058,1.386,1.386,0,0,0-.892.7,2.338,2.338,0,0,0,1.052,2.863,2.181,2.181,0,0,0,1.692.321,1.386,1.386,0,0,0,.892-.7,2.338,2.338,0,0,0-1.052-2.863A2.337,2.337,0,0,0,12.532,37Z"/><path d="M31.472,63a4.476,4.476,0,0,1-4.059-6.175,3.377,3.377,0,0,1,2.145-1.7,4.156,4.156,0,0,1,3.276.563,4.327,4.327,0,0,1,1.753,5.486,3.377,3.377,0,0,1-2.145,1.7A3.763,3.763,0,0,1,31.472,63Zm-.94-6a1.786,1.786,0,0,0-.458.058,1.386,1.386,0,0,0-.892.7,2.338,2.338,0,0,0,1.052,2.863,2.177,2.177,0,0,0,1.692.321,1.386,1.386,0,0,0,.892-.7A2.492,2.492,0,0,0,30.532,57Z"/><path d="M36.761,17a2.9,2.9,0,0,1-1.786-.791A4.273,4.273,0,0,1,33,13.143a1.588,1.588,0,0,1,.291-1.008,1.773,1.773,0,0,1,.644-.513c.257-.135.541-.317.834-.5a7.935,7.935,0,0,1,2.074-1.058c1.39-.376,2.162.973,2.53,1.622.058.1.113.2.167.287a2.678,2.678,0,0,1,.444,1.116,2.59,2.59,0,0,1-.371,1.55A6.521,6.521,0,0,1,38.3,16.317a2.41,2.41,0,0,1-1.148.644A1.871,1.871,0,0,1,36.761,17Zm-1.724-3.7a3.6,3.6,0,0,0,1.2,1.362c.341.278.476.332.528.339-.011,0,.045-.035.175-.155a4.545,4.545,0,0,0,.917-1.168A.882.882,0,0,0,38,13.325a1.693,1.693,0,0,0-.159-.3c-.067-.107-.135-.227-.206-.351a4.754,4.754,0,0,0-.406-.636,8.386,8.386,0,0,0-1.386.772C35.563,12.984,35.291,13.156,35.037,13.3Z"/><path d="M39.1,10a2.89,2.89,0,0,1-1.371-.42A2.789,2.789,0,0,1,36,7.413a2.214,2.214,0,0,1,1.17-1.935,2.492,2.492,0,0,1,2.7-.154A2.793,2.793,0,0,1,40.925,8.3,2.08,2.08,0,0,1,39.95,9.78,1.727,1.727,0,0,1,39.1,10ZM38.038,7.343a2.387,2.387,0,0,0,.659.49,2.328,2.328,0,0,0,.255.125c.006-.02.011-.043.017-.069a.936.936,0,0,0-.15-.861.58.58,0,0,0-.524.1h0A1.481,1.481,0,0,0,38.038,7.343Z"/><path d="M32.653,8a2.872,2.872,0,0,1-1.635-.5,4.143,4.143,0,0,1-1.243-1.441,5.572,5.572,0,0,1-.768-2.388,2.194,2.194,0,0,1,.3-1.372,2.1,2.1,0,0,1,.947-.751c1.8-.854,3.309-.72,4.485.4a3.784,3.784,0,0,1,.773,1.187,3.832,3.832,0,0,1,.484,1.9,2.972,2.972,0,0,1-.846,1.833A3.443,3.443,0,0,1,32.653,8ZM31,3.409c0,.032,0,.077,0,.138a3.593,3.593,0,0,0,.51,1.524,2.328,2.328,0,0,0,.633.782,1.251,1.251,0,0,0,1.54-.347,1.038,1.038,0,0,0,.313-.6,2.3,2.3,0,0,0-.3-.919,2.373,2.373,0,0,0-.344-.593c-.384-.365-.953-.657-2.256-.037l-.02.009Z"/><path d="M57.689,58.005l-1.4-1.43A18.845,18.845,0,0,0,62,43c0-.636-.032-1.276-.094-1.9l1.99-.2c.069.692.1,1.4.1,2.1A20.832,20.832,0,0,1,57.689,58.005Z"/><path d="M61.62,39.2a18.751,18.751,0,0,0-.489-1.9l1.908-.6a20.745,20.745,0,0,1,.541,2.1Z"/><path d="M27.87,57.554A20.869,20.869,0,0,1,22,43a22.123,22.123,0,0,1,.115-2.21A21.066,21.066,0,0,1,40.786,22.115C41.543,22.039,42.287,22,43,22A21,21,0,0,1,62.253,34.6l-1.833.8A19.006,19.006,0,0,0,43,24a19.915,19.915,0,0,0-2.009.105A19.053,19.053,0,0,0,24.1,40.994c-.069.684-.1,1.36-.1,2.006a18.881,18.881,0,0,0,5.31,13.166Z"/><path d="M43,64a20.684,20.684,0,0,1-9.767-2.416l.934-1.768a18.934,18.934,0,0,0,17.654,0,1,1,0,0,1,.469-.117l.005,1.009.464.874A20.88,20.88,0,0,1,43,64Z"/><rect x="37" y="51.586" width="2" height="2.828" transform="translate(-26.347 42.393) rotate(-45)"/><rect x="48.586" y="40" width="2.828" height="2" transform="translate(-14.347 47.364) rotate(-45)"/><rect x="27" y="38.586" width="2" height="2.828" transform="translate(-20.083 31.515) rotate(-45)"/><rect x="31.586" y="37" width="2.828" height="2" transform="translate(-17.205 34.464) rotate(-45)"/><rect x="42.586" y="57" width="2.828" height="2" transform="translate(-28.125 48.101) rotate(-45)"/><rect x="44" y="31.586" width="2" height="2.828" transform="translate(-10.154 41.485) rotate(-45)"/><rect x="44.882" y="26.5" width="2.236" height="2" transform="translate(-7.442 23.475) rotate(-26.565)"/><rect x="57.5" y="39.882" width="2" height="2.236" transform="translate(-12.16 30.49) rotate(-26.565)"/><rect x="43.882" y="49.5" width="2.236" height="2" transform="translate(-17.834 25.456) rotate(-26.565)"/><rect x="13" y="16.586" width="2" height="2.828" transform="translate(-8.627 15.172) rotate(-45)"/><rect x="22.5" y="23.882" width="2" height="2.236" transform="translate(-8.699 13.149) rotate(-26.565)"/><rect x="18.586" y="33" width="2.828" height="2" transform="translate(-18.184 24.101) rotate(-45)"/><rect x="8" y="29.382" width="2" height="2.236" transform="translate(-22.305 24.91) rotate(-63.435)"/><rect x="5.5" y="14.882" width="2" height="2.236" transform="translate(-6.469 4.596) rotate(-26.565)"/><rect x="28.382" y="21" width="2.236" height="2" transform="translate(-3.37 38.547) rotate(-63.435)"/><rect x="12.5" y="8.882" width="2" height="2.236" transform="translate(-3.047 7.093) rotate(-26.565)"/></g></svg>