<svg xmlns="http://www.w3.org/2000/svg" viewBox="0 0 64 64"><g id="_03-blueberry_cheesecake" data-name="03-blueberry cheesecake"><path d="M32,46a8.028,8.028,0,0,1-6.858-3.887A7.9,7.9,0,0,1,24,38a8.01,8.01,0,0,1,4.748-7.306l.8,1.831A6.008,6.008,0,0,0,26,38a6,6,0,0,0,12,0,6,6,0,0,0-3.552-5.475l.8-1.831A8,8,0,0,1,32,46Z"/><path d="M32,34c-2.243,0-4-1.318-4-3s1.757-3,4-3,4,1.318,4,3S34.243,34,32,34Zm0-4c-1.221,0-2,.592-2,1s.779,1,2,1,2-.592,2-1S33.221,30,32,30Z"/><path d="M38.858,34.914l-1.716-1.028a7.988,7.988,0,0,1,3.606-3.192l.8,1.831A5.978,5.978,0,0,0,38.858,34.914Z"/><path d="M44,46a8.028,8.028,0,0,1-6.858-3.887l1.716-1.026a6,6,0,0,0,10.987-1.74A5.742,5.742,0,0,0,50,38a5.957,5.957,0,0,0-3.16-5.277,3.142,3.142,0,0,0-.393-.2l.806-1.83a5,5,0,0,1,.571.287A7.932,7.932,0,0,1,52,38a7.72,7.72,0,0,1-.208,1.8A7.949,7.949,0,0,1,44,46Z"/><path d="M44,34c-2.243,0-4-1.318-4-3s1.757-3,4-3,4,1.318,4,3S46.243,34,44,34Zm0-4c-1.221,0-2,.592-2,1s.779,1,2,1,2-.592,2-1S45.221,30,44,30Z"/><path d="M48.28,32.07,46.32,31.7a1.548,1.548,0,0,1,.084-.325,7.077,7.077,0,0,1,6.1-4.823l.15,1.994a5.055,5.055,0,0,0-4.342,3.425l-.981-.22Z"/><path d="M53,41a6.812,6.812,0,0,1-2.413-.444c-.032-.013-.063-.026-.093-.041a.735.735,0,0,1-.12-.051l.894-1.789a.4.4,0,0,1,.054.02,4.77,4.77,0,0,0,3.708-.151,5.1,5.1,0,0,0,2.657-2.983,5.359,5.359,0,0,0-1.223-5.574l1.414-1.414a7.365,7.365,0,0,1,1.7,7.654,7.081,7.081,0,0,1-3.7,4.129A6.773,6.773,0,0,1,53,41Z"/><path d="M55.694,30.814a4.485,4.485,0,0,1-1.578-.3c-1.867-.7-2.929-2.4-2.418-3.852A2.392,2.392,0,0,1,52.974,25.3,3.944,3.944,0,0,1,56,25.3c1.867.7,2.929,2.4,2.418,3.852a2.386,2.386,0,0,1-1.277,1.362A3.412,3.412,0,0,1,55.694,30.814ZM54.423,27a1.454,1.454,0,0,0-.6.115.435.435,0,0,0-.235.212c-.105.3.334.978,1.237,1.319a1.988,1.988,0,0,0,1.471.054.434.434,0,0,0,.234-.212h0c.105-.3-.335-.977-1.237-1.318A2.464,2.464,0,0,0,54.423,27Z"/><path d="M15.7,31.979a5.084,5.084,0,0,0-4.355-3.432l.15-1.994a7.051,7.051,0,0,1,6.078,4.756,1.89,1.89,0,0,1,.107.392Z"/><path d="M10.983,41a6.723,6.723,0,0,1-2.858-.64,7.082,7.082,0,0,1-3.7-4.137,7.359,7.359,0,0,1,1.7-7.646l1.414,1.414a5.355,5.355,0,0,0-1.225,5.567,5.105,5.105,0,0,0,2.659,2.99,4.774,4.774,0,0,0,3.722.146l.074-.03.86,1.8-.153.066A7,7,0,0,1,10.983,41Z"/><path d="M8.306,30.814a3.412,3.412,0,0,1-1.444-.3,2.386,2.386,0,0,1-1.277-1.362h0C5.074,27.694,6.136,26,8,25.3a3.944,3.944,0,0,1,3.023,0A2.392,2.392,0,0,1,12.3,26.664c.511,1.455-.551,3.148-2.418,3.852A4.485,4.485,0,0,1,8.306,30.814ZM9.577,27a2.464,2.464,0,0,0-.868.168c-.9.341-1.342,1.019-1.237,1.318h0a.434.434,0,0,0,.234.212,1.988,1.988,0,0,0,1.471-.054c.9-.341,1.342-1.019,1.237-1.318a.434.434,0,0,0-.235-.213A1.455,1.455,0,0,0,9.577,27Z"/><path d="M20,46a7.953,7.953,0,0,1-7.795-6.208A7.718,7.718,0,0,1,12,38a7.955,7.955,0,0,1,4.22-7.043,4.7,4.7,0,0,1,.527-.262l.806,1.83a2.831,2.831,0,0,0-.349.173A5.981,5.981,0,0,0,14,38a5.74,5.74,0,0,0,.152,1.336,6,6,0,0,0,10.99,1.751l1.716,1.026A8.028,8.028,0,0,1,20,46Z"/><path d="M25.142,34.914a5.978,5.978,0,0,0-2.694-2.389l.8-1.831a7.988,7.988,0,0,1,3.606,3.192Z"/><path d="M20,34c-2.243,0-4-1.318-4-3s1.757-3,4-3,4,1.318,4,3S22.243,34,20,34Zm0-4c-1.221,0-2,.592-2,1s.779,1,2,1,2-.592,2-1S21.221,30,20,30Z"/><path d="M33,24a6,6,0,1,1,6-6A6.006,6.006,0,0,1,33,24Zm0-10a4,4,0,1,0,4,4A4,4,0,0,0,33,14Z"/><path d="M33.98,16.2,32.02,15.8c.047-.237,1.2-5.8,4.98-5.8v2C35.23,12,34.2,15.108,33.98,16.2Z"/><path d="M22.934,32.416A8.69,8.69,0,0,0,19.85,28.26,11.22,11.22,0,0,1,16,19.71V16h2v3.71a9.219,9.219,0,0,0,3.151,7.031c2.108,1.8,3.365,3.567,3.736,5.243Z"/><path d="M37.48,33.01l-1.88-.68A6.853,6.853,0,0,0,36,30a4.418,4.418,0,0,0-1.712-3.52A12.827,12.827,0,0,0,29.044,24.2l-.06-.011c-.359-.075-.729-.141-1.126-.2a10.351,10.351,0,0,1-3.283-1.02,10.651,10.651,0,0,1-5.33-7.268c-.005-.021-.009-.043-.012-.064l-.021-.094c-2.09,1.215-6.271,4.184-7.066,8.844A8.317,8.317,0,0,0,12,26a6.9,6.9,0,0,0,.147,1.439.934.934,0,0,1,.023.211l-1.024.005-.954.2A8.881,8.881,0,0,1,10,26a10.345,10.345,0,0,1,.178-1.97c1.242-7.286,9.088-10.8,9.421-10.946A1,1,0,0,1,21,14c0,.046,0,.088,0,.129a9.339,9.339,0,0,0,.192,1.116c.006.022.01.044.014.066a8.663,8.663,0,0,0,4.277,5.878,8.346,8.346,0,0,0,2.654.821c.426.061.822.131,1.207.211l.057.01A14.8,14.8,0,0,1,35.51,24.9,6.4,6.4,0,0,1,38,30,8.829,8.829,0,0,1,37.48,33.01Z"/><path d="M52.671,29.124l-1.782-.908a9.92,9.92,0,0,0,1.045-3.237c0-.021,0-.041.006-.06A6.527,6.527,0,0,0,52,24a9.853,9.853,0,0,0-2.761-6.14.945.945,0,0,1-.073-.094c-.249-.284-.494-.542-.723-.772a5.54,5.54,0,0,1-1.254,2.227A6.23,6.23,0,0,1,42.44,21a9.127,9.127,0,0,0-7.565,4.484l-1.751-.966C33.248,24.293,36.23,19,42.44,19a4.343,4.343,0,0,0,3.28-1.137,4.207,4.207,0,0,0,1-2.807,1,1,0,0,1,1.6-.851,17.923,17.923,0,0,1,2.42,2.33,1,1,0,0,1,.069.089A11.712,11.712,0,0,1,54,24a8.472,8.472,0,0,1-.074,1.159l0,.032A11.9,11.9,0,0,1,52.671,29.124Z"/><path d="M40.282,30.913a4.969,4.969,0,0,1-.253-4.9A4.3,4.3,0,0,1,44,24c4.54,0,4.954-5.691,4.991-6.832L49,16.994,51,17s0,.1-.013.271C50.859,21.277,48.95,26,44,26a2.347,2.347,0,0,0-2.231,1A3.04,3.04,0,0,0,42,29.887a1,1,0,0,1,.141.513l-1.009.005Z"/><path d="M48.245,28.6l-.49-1.939A11,11,0,0,0,52.181,24.4a.909.909,0,0,1,.123-.117l.766.779h.86a1.027,1.027,0,0,1-.227.643l0,0-.027.023a.9.9,0,0,1-.074.077A12.834,12.834,0,0,1,48.245,28.6Z"/><path d="M28.38,30.182a4.316,4.316,0,0,0-1.087-2.475,13.548,13.548,0,0,1-3.224-5.349l1.881-.67L25,22l.947-.32c.006.017.038.105.043.122a11.592,11.592,0,0,0,2.717,4.491A6.274,6.274,0,0,1,30.36,29.9a.969.969,0,0,1,.01.142l-1.035.005Z"/><path d="M14.544,28.469a12.859,12.859,0,0,1-4.187-3.652,3.031,3.031,0,0,1-.206-.289l1.693-1.065c.01.016.043.064.1.139a11.02,11.02,0,0,0,3.505,3.084Z"/><path d="M27.178,12.224c-.588-2.57.225-6.569,3.366-9.709A7.978,7.978,0,0,1,36.712.01,7.006,7.006,0,0,1,41.2,1.8c1.723,1.723,2.539,6.093-.412,9.817l-1.568-1.242c2.275-2.87,1.589-6.138.566-7.161a5.116,5.116,0,0,0-3.171-1.211,6.052,6.052,0,0,0-4.653,1.922c-2.586,2.586-3.28,5.882-2.831,7.848Z"/><rect x="26.764" y="7.196" width="16.079" height="2" transform="translate(4.398 27.011) rotate(-45)"/><path d="M26.825,21a8.784,8.784,0,0,1-5.945-2.617,5.774,5.774,0,0,1-.508-8.013,5.773,5.773,0,0,1,8.013.508,9.083,9.083,0,0,1,2.295,3.836l-1.918.566a7.067,7.067,0,0,0-1.791-2.988,3.813,3.813,0,0,0-5.185-.508,3.813,3.813,0,0,0,.508,5.185,6.163,6.163,0,0,0,5.445,1.919l.522,1.93A5.493,5.493,0,0,1,26.825,21Z"/><rect x="23.541" y="9.645" width="2" height="9.791" transform="translate(-3.094 21.612) rotate(-45)"/><path d="M40.159,21.017a4.25,4.25,0,0,1-3.067-1.109l1.414-1.414c.92.918,4,.679,6.2-1.523a3.813,3.813,0,0,0,.508-5.185,3.814,3.814,0,0,0-5.185.508,7.061,7.061,0,0,0-1.791,2.988l-1.918-.565a9.088,9.088,0,0,1,2.3-3.838,5.775,5.775,0,0,1,8.013-.507,5.774,5.774,0,0,1-.508,8.013A8.8,8.8,0,0,1,40.159,21.017Z"/><rect x="36.36" y="14.04" width="11.202" height="2" transform="translate(1.655 34.076) rotate(-45)"/><path d="M32,64C19.937,64,7.121,61.222,7,56.073L5.069,41.588A2.446,2.446,0,0,1,5,41a3.7,3.7,0,0,1,1.406-2.742l1.342,1.484A1.838,1.838,0,0,0,7,41a1.028,1.028,0,0,0,.034.226L8.991,55.868A.976.976,0,0,1,9,56c0,2.505,8.75,6,23,6s23-3.495,23-6a.976.976,0,0,1,.009-.132l1.939-14.545A1.722,1.722,0,0,0,57,41h2a2.968,2.968,0,0,1-.087.686L57,56.073C56.88,61.223,44.063,64,32,64Z"/><path d="M32,49C18.583,49,5,46.252,5,41a3.7,3.7,0,0,1,1.406-2.742l1.342,1.484A1.838,1.838,0,0,0,7,41c0,2.505,9.511,6,25,6a74.148,74.148,0,0,0,17.75-1.917l.5,1.937A76.223,76.223,0,0,1,32,49Z"/><path d="M52.308,46.424l-.616-1.9C55.605,43.255,57,41.872,57,41a1.777,1.777,0,0,0-.687-1.2l1.37-1.457A3.65,3.65,0,0,1,59,41C59,43.162,56.749,44.987,52.308,46.424Z"/><polygon points="56.63 43.82 56.63 43.81 58.63 43.81 56.63 43.82"/><polygon points="5.37 43.82 5.37 43.81 7.37 43.81 5.37 43.82"/><path d="M12.722,50.738c-3.259-.941-5.514-2.083-6.7-3.4L7.5,46c.91,1,2.961,2,5.776,2.817Z"/><path d="M16.813,51.7q-1.062-.2-2.043-.431l.454-1.948c.628.146,1.284.285,1.964.414Z"/><path d="M32,53a87.271,87.271,0,0,1-13.153-.948l.307-1.977A85.182,85.182,0,0,0,32,51c13.111,0,22.249-2.516,24.5-5l.751.661.707.707-.01.01C54.917,50.726,44.477,53,32,53Z"/><rect x="50" y="53" width="2" height="2"/><rect x="42.382" y="55" width="2.236" height="2" transform="translate(-26.042 69.864) rotate(-63.435)"/><rect x="11" y="53" width="2" height="2"/><rect x="15.5" y="54.882" width="2" height="2.236" transform="translate(-23.302 13.291) rotate(-26.565)"/><rect x="33.382" y="55" width="2.236" height="2" transform="translate(-31.017 61.814) rotate(-63.435)"/><rect x="21.5" y="54.882" width="2" height="2.236" transform="translate(-22.669 15.974) rotate(-26.565)"/><rect x="47.5" y="54.882" width="2" height="2.236" transform="translate(-19.924 27.602) rotate(-26.565)"/></g></svg>