<svg xmlns="http://www.w3.org/2000/svg" viewBox="0 0 64 64"><g id="_04-cupcake" data-name="04-cupcake"><path d="M23,11a4.821,4.821,0,0,1-5-5,1,1,0,0,1,1-1,4.821,4.821,0,0,1,5,5A1,1,0,0,1,23,11ZM20.193,7.217a2.557,2.557,0,0,0,1.614,1.566A2.557,2.557,0,0,0,20.193,7.217Z"/><path d="M19,15a1,1,0,0,1-1-1,4.821,4.821,0,0,1,5-5,1,1,0,0,1,1,1A4.821,4.821,0,0,1,19,15Zm2.807-3.783a2.556,2.556,0,0,0-1.614,1.567A2.558,2.558,0,0,0,21.807,11.217Z"/><path d="M22,19a1,1,0,0,1-.544-.161,7.683,7.683,0,0,1-1.14-.908,3.651,3.651,0,0,1-1-4.273c.061-.132.116-.243.17-.353l1.791.89c-.045.09-.089.18-.133.278-.19.43-.341,1.122.572,2.027.085.082.17.159.257.233a4.1,4.1,0,0,0,.709-.862A1.907,1.907,0,0,0,23,14.962,1,1,0,0,1,24,14h.52v1.02l.479.018a3.806,3.806,0,0,1-.605,1.863,6.6,6.6,0,0,1-1.839,1.931A1,1,0,0,1,22,19Z"/><path d="M19.373,6.654C18.163,4.211,20.2,2,21.446,1.167a1,1,0,0,1,1.109,0C24.239,2.292,25.062,3.6,25,5.043l-.479-.021V6H24a1,1,0,0,1-1-1.043,2.2,2.2,0,0,0-.974-1.691c-.574.54-1.351,1.512-.861,2.5Z"/><path d="M24,64c-4.946,0-9.3-1.429-11.1-3.64A3.73,3.73,0,0,0,10,59C3.092,59,0,55.735,0,52.5c0-2.7,2.812-5.073,7.164-6.037a1.043,1.043,0,0,1,.216-.023l0,1.022.211.955C4.3,49.146,2,50.825,2,52.5,2,55.191,5.215,57,10,57a5.724,5.724,0,0,1,4.454,2.1C15.843,60.807,19.767,62,24,62c5.724,0,10-2.112,10-4l2-.07V58C36,61.42,30.841,64,24,64Z"/><path d="M32,32C17.178,32,6,27.7,6,22c0-2.693,2.418-5.088,6.991-6.928l.746,1.856C10.091,18.394,8,20.243,8,22c0,3.784,9.856,8,24,8s24-4.216,24-8c0-2.3-3.55-4.69-9.264-6.232l.522-1.931C54.085,15.679,58,18.654,58,22,58,27.7,46.822,32,32,32Z"/><path d="M15.316,16.35l-.632-1.9q.981-.327,2.055-.618l.522,1.931Q16.246,16.04,15.316,16.35Z"/><polygon points="36.38 14.14 36.37 14.14 36.37 12.14 36.38 14.14"/><path d="M7.39,48.44l0-1-.9-.418a6.969,6.969,0,0,1,1.826-2.278l1.3,1.516A5,5,0,0,0,8.3,47.86,1,1,0,0,1,7.39,48.44Z"/><path d="M47.26,50.159l-.52-1.931a20.221,20.221,0,0,0,7.651-3.489A3.8,3.8,0,0,0,56,42V39a.992.992,0,0,0-.748-.961l.5-1.938A2.991,2.991,0,0,1,58,39v3a5.661,5.661,0,0,1-2.309,4.259A22.118,22.118,0,0,1,47.26,50.159Z"/><path d="M32,52a64.032,64.032,0,0,1-10.86-.885l.339-1.97A62.144,62.144,0,0,0,32,50c1.328,0,2.653-.039,3.94-.116l.12,2C34.733,51.959,33.367,52,32,52Z"/><path d="M14.683,49.548a22.347,22.347,0,0,1-5.237-2.435l1.108-1.666a20.4,20.4,0,0,0,4.763,2.2Z"/><rect x="6" y="34" width="2" height="2"/><path d="M8.309,46.259A5.661,5.661,0,0,1,6,42V38H8v4a3.8,3.8,0,0,0,1.611,2.741Z"/><path d="M34.028,43.971l-.056-2q1-.029,1.969-.085l.116,2Q35.057,43.943,34.028,43.971Z"/><path d="M32,44a66.462,66.462,0,0,1-8.1-.478l.247-1.985A64.393,64.393,0,0,0,32,42Z"/><path d="M47.261,42.161l-.522-1.931A22.079,22.079,0,0,0,53.8,37.192a8.451,8.451,0,0,0,.993-.829A3.387,3.387,0,0,0,56,34V22h2V34a5.342,5.342,0,0,1-1.8,3.784,10.2,10.2,0,0,1-1.22,1.023A23.686,23.686,0,0,1,47.261,42.161Z"/><rect x="6" y="22" width="2" height="10"/><path d="M57,58c-2.741,0-5.164-1.083-6.323-2.826l1.666-1.108C53.111,55.223,54.983,56,57,56c2.71,0,5-1.374,5-3s-2.29-3-5-3V48c3.925,0,7,2.2,7,5S60.925,58,57,58Z"/><path d="M32,59a64.019,64.019,0,0,1-11.175-.936A1,1,0,0,1,20,57.08V54a24.825,24.825,0,0,1,.323-4.033,23.178,23.178,0,0,1,2.832-7.94,24.046,24.046,0,0,1,5.54-6.57A6.362,6.362,0,0,1,32.72,34,6.258,6.258,0,0,1,39,40.28V49.5a2.529,2.529,0,0,0,.158.865A2.5,2.5,0,0,0,41.5,52a2.508,2.508,0,0,0,2.491-2.365A1.121,1.121,0,0,1,44,49.52L44,33.5A2.5,2.5,0,0,1,46.5,31h2A2.5,2.5,0,0,1,51,33.5a2.447,2.447,0,0,0,.731,1.757,2.529,2.529,0,0,0,3.526.012A2.457,2.457,0,0,0,56,33.5V28h2v5.5a4.5,4.5,0,0,1-9,0,.5.5,0,0,0-.5-.5h-2a.5.5,0,0,0-.5.5v16a2.458,2.458,0,0,1-.013.271A4.508,4.508,0,0,1,41.5,54,4.51,4.51,0,0,1,37,49.5V40.28A4.259,4.259,0,0,0,32.72,36a4.352,4.352,0,0,0-2.754,1,22,22,0,0,0-5.079,6.025,21.207,21.207,0,0,0-2.59,7.265A22.856,22.856,0,0,0,22,54v2.235A62.918,62.918,0,0,0,32,57c1.067,0,2.032-.022,2.95-.068,6.406-.27,12.139-1.414,16.149-3.224C54.215,52.318,56,50.6,56,49a3.8,3.8,0,0,0-1.611-2.741l1.3-1.518A5.661,5.661,0,0,1,58,49c0,2.5-2.1,4.758-6.083,6.533-4.233,1.91-10.228,3.116-16.875,3.4C34.1,58.977,33.1,59,32,59Z"/><path d="M15,56.59a1.019,1.019,0,0,1-.313-.05,21.8,21.8,0,0,1-5.244-2.429A1,1,0,0,1,9,53.28V45.5a3.477,3.477,0,0,1,1.023-2.477A3.5,3.5,0,0,1,16,45.5V55.59a1,1,0,0,1-1,1Zm-4-3.858a18.728,18.728,0,0,0,3,1.44V45.5a1.5,1.5,0,1,0-3,0Z"/><path d="M29,26c-6.841,0-12-2.416-12-5.62,0-1.6,1.28-3.052,3.6-4.084l.811,1.828C19.9,18.8,19,19.639,19,20.38,19,21.892,22.805,24,29,24c5.232,0,8.963-1.553,9.816-3.014a4.537,4.537,0,0,1,2.064-1.923A3.064,3.064,0,0,0,43,16.69a1.951,1.951,0,0,0-.836-1.43,1,1,0,0,1-.06-1.508,4.786,4.786,0,0,0,.4-.421A5.068,5.068,0,0,0,44,10c0-4.261-7.479-8-12-8a7.879,7.879,0,0,0-2.072.272l.789,1.312A8.955,8.955,0,0,1,32,8.22V18.94a1.026,1.026,0,0,1-1,1.03,1.044,1.044,0,0,1-.374-.068,9.934,9.934,0,0,1-6.037-3.191,11.408,11.408,0,0,1-.9-1.151A9.991,9.991,0,0,1,28.05.82,9.741,9.741,0,0,1,32,0c5.528,0,14,4.48,14,10a6.942,6.942,0,0,1-1.823,4.452A3.522,3.522,0,0,1,45,16.69c0,1.713-1.273,3.326-3.324,4.208A2.54,2.54,0,0,0,40.54,22C39.144,24.39,34.505,26,29,26ZM28.057,3.042a7.992,7.992,0,0,0-2.707,11.4,9.495,9.495,0,0,0,.731.937A7.945,7.945,0,0,0,30,17.746V8.22a6.955,6.955,0,0,0-1-3.6Z"/><polygon points="36.38 14.14 36.37 14.14 36.37 12.14 36.38 14.14"/><path d="M23.778,17.351,23.3,15.409c.589-.144,1.206-.262,1.886-.359l.284,1.98C24.855,17.118,24.3,17.223,23.778,17.351Z"/><path d="M35,19.6a1,1,0,0,1-1-1V12a3,3,0,0,1,3-3,3.015,3.015,0,0,1,3,3v5.12a1,1,0,0,1-.545.89,19.3,19.3,0,0,1-4.221,1.562A.985.985,0,0,1,35,19.6ZM37,11a1,1,0,0,0-1,1v5.28a17.612,17.612,0,0,0,2-.784V12a.965.965,0,0,0-.287-.694A.978.978,0,0,0,37,11Z"/></g></svg>