<svg xmlns="http://www.w3.org/2000/svg" viewBox="0 0 64 64"><g id="_05-strawberry_cupcake" data-name="05-strawberry cupcake"><path d="M32,64c-9.259,0-13.869-1.444-14.948-4.684l-6.02-23.064,1.936-.5,6,23C19.683,60.884,24.073,62,32,62s12.317-1.116,13.052-3.316l5.98-22.936,1.936.5-6,23C45.869,62.556,41.259,64,32,64Z"/><path d="M36,42a1,1,0,0,1-.242-.03L32,41.031l-3.758.939a1,1,0,0,1-.8-.138l-2.655-1.77L20.2,40.98a.994.994,0,0,1-.9-.273L17.586,39H14a1,1,0,0,1-.707-.293l-2-2A1,1,0,0,1,11,36V34h2v1.586L14.414,37H18a1,1,0,0,1,.707.293l1.622,1.622L24.8,38.02a.994.994,0,0,1,.751.148l2.632,1.754,3.571-.892a.991.991,0,0,1,.484,0l3.571.892,2.632-1.754a.994.994,0,0,1,.751-.148l4.475.895,1.622-1.622A1,1,0,0,1,46,37h3.586L51,35.586V34h2v2a1,1,0,0,1-.293.707l-2,2A1,1,0,0,1,50,39H46.414l-1.707,1.707a1,1,0,0,1-.9.273l-4.594-.918-2.655,1.77A1.007,1.007,0,0,1,36,42Z"/><rect x="27" y="60" width="2" height="3"/><rect x="27" y="56" width="2" height="2"/><rect x="27" y="41" width="2" height="13"/><rect x="35" y="47" width="2" height="16"/><rect x="35" y="41" width="2" height="4"/><rect x="31.398" y="50" width="22.204" height="2.001" transform="translate(-13.778 86.215) rotate(-82.23)"/><rect x="20.5" y="39.898" width="2.001" height="22.204" transform="translate(-6.694 3.373) rotate(-7.765)"/><path d="M29,22a8.9,8.9,0,0,1-9-9c0-4.7,7.13-13,9-13s9,8.3,9,13A8.9,8.9,0,0,1,29,22ZM29,2.094C27.4,3.183,22,9.374,22,13a7,7,0,0,0,14,0C36,9.374,30.6,3.183,29,2.094Zm.226-.131-.452,0Z"/><path d="M30,21.072l-.934-13h-.138l-.934,13L26,20.928l.934-13a2.068,2.068,0,0,1,4.127.006l.933,13Z"/><path d="M38.632,20a8.51,8.51,0,0,1-3.933-.964l.922-1.774a6.564,6.564,0,0,0,7.691-1.22c2.393-2.393,2.941-10.108,2.619-11.972-1.762-.3-8.885.131-11.667,2.351L33.016,4.858c3.4-2.714,13.043-3.614,14.4-2.281,1.034,1.05.411,6.113.337,6.687-.288,2.219-1.064,6.236-3.021,8.193A8.614,8.614,0,0,1,38.632,20ZM46.2,4.137Z"/><path d="M37.206,16.615l-.766-.645-.724-.689.01-.01,6.238-7.206L37.365,12l-1.31-1.512,4.57-3.96a2.051,2.051,0,0,1,2.752.1,2.009,2.009,0,0,1,.1,2.747Z"/><path d="M33,39H28a16.861,16.861,0,0,1-11.479-4.311A10,10,0,0,1,13,27V25c0-4.215,3.3-12,8-12v2c-3.035,0-6,6.327-6,10v2a8.073,8.073,0,0,0,2.856,6.2A14.727,14.727,0,0,0,28,37h5Z"/><path d="M47,36a1,1,0,0,1-1-1.029C45.984,34.254,45.124,33,42,33V31c2.247,0,3.916.544,4.959,1.618a3.753,3.753,0,0,1,.645.889l1.45-.822L48.237,31.6a16.562,16.562,0,0,0-6.8-5.748L30.585,20.91l.83-1.82,10.849,4.947a18.557,18.557,0,0,1,7.629,6.443l.763,1.126a1.991,1.991,0,0,1-.561,2.786l-2.6,1.478A.993.993,0,0,1,47,36Z"/><path d="M39.761,32.691a37.748,37.748,0,0,1-8.686-3.971C27.565,26.7,26,24.318,26,21h2c0,2.552,1.218,4.343,4.073,5.987a36.137,36.137,0,0,0,8.172,3.764Z"/><path d="M42.921,37c-3.025,0-13.359-3.591-18.99-8.306A8.523,8.523,0,0,1,21.514,25.5a4.64,4.64,0,0,1-.072-3.621,5.359,5.359,0,0,1,3.193-2.809l.73,1.862a3.466,3.466,0,0,0-2.08,1.725,2.715,2.715,0,0,0,.072,2.069,6.536,6.536,0,0,0,1.857,2.436C30.624,31.69,40.433,35,42.921,35c2.508,0,3.4-.73,3.4-.738L47.7,35.714C47.481,35.929,46.222,37,42.921,37Z"/><path d="M17.132,24.126A16.878,16.878,0,0,1,17,22c0-2.075,1.045-6,5-6v2c-2.966,0-3,3.837-3,4a14.971,14.971,0,0,0,.116,1.875Z"/><path d="M41,39H33a.925.925,0,0,1-.2-.02c-.508-.1-12.467-2.6-15.246-12.715l1.927-.531C21.825,34.244,32.04,36.76,33.106,37H41a1,1,0,0,0,1-1h2A3,3,0,0,1,41,39Z"/><path d="M49,30H47V27.736a5.011,5.011,0,0,0-4.07-4.909A8.943,8.943,0,0,1,37.2,19.6l1.6-1.2a7.029,7.029,0,0,0,4.505,2.463A7.014,7.014,0,0,1,49,27.736Z"/><path d="M48,24H46v-.958a6.633,6.633,0,0,0-2.668-5.3l1.336-1.488A8.655,8.655,0,0,1,48,23.042Z"/></g></svg>