<svg xmlns="http://www.w3.org/2000/svg" viewBox="0 0 64 64"><g id="_06-lemon_cupcake" data-name="06-lemon cupcake"><path d="M32,64c-9.259,0-13.869-1.444-14.948-4.684l-6.02-23.064,1.936-.5,6,23C19.683,60.884,24.073,62,32,62s12.317-1.116,13.052-3.316l5.98-22.936,1.936.5-6,23C45.869,62.556,41.259,64,32,64Z"/><path d="M36,42a1,1,0,0,1-.242-.03L32,41.031l-3.758.939a1,1,0,0,1-.8-.138l-2.655-1.77L20.2,40.98a.994.994,0,0,1-.9-.273L17.586,39H14a1,1,0,0,1-.707-.293l-2-2A1,1,0,0,1,11,36V34h2v1.586L14.414,37H18a1,1,0,0,1,.707.293l1.622,1.622L24.8,38.02a.994.994,0,0,1,.751.148l2.632,1.754,3.571-.892a.991.991,0,0,1,.484,0l3.571.892,2.632-1.754a.994.994,0,0,1,.751-.148l4.475.895,1.622-1.622A1,1,0,0,1,46,37h3.586L51,35.586V34h2v2a1,1,0,0,1-.293.707l-2,2A1,1,0,0,1,50,39H46.414l-1.707,1.707a1,1,0,0,1-.9.273l-4.594-.918-2.655,1.77A1.007,1.007,0,0,1,36,42Z"/><rect x="27" y="60" width="2" height="3"/><rect x="27" y="56" width="2" height="2"/><rect x="27" y="41" width="2" height="13"/><rect x="35" y="47" width="2" height="16"/><rect x="35" y="41" width="2" height="4"/><rect x="31.398" y="50" width="22.204" height="2.001" transform="translate(-13.778 86.215) rotate(-82.23)"/><rect x="20.5" y="39.898" width="2.001" height="22.204" transform="translate(-6.694 3.373) rotate(-7.765)"/><path d="M33,39H28a16.861,16.861,0,0,1-11.479-4.311A10,10,0,0,1,13,27V25c0-4.215,3.3-12,8-12v2c-3.035,0-6,6.327-6,10v2a8.073,8.073,0,0,0,2.856,6.2A14.727,14.727,0,0,0,28,37h5Z"/><polygon points="32.41 21.64 31.699 21.353 32.391 20.629 32.41 19.64 32.41 20.609 33.081 19.907 32.41 20.611 32.41 21.64"/><path d="M39.76,32.691a37.959,37.959,0,0,1-8.689-3.974c-2.842-1.64-4.4-3.529-4.89-5.946l1.959-.4c.377,1.841,1.589,3.264,3.93,4.615a36.31,36.31,0,0,0,8.174,3.767Z"/><path d="M47,36a1,1,0,0,1-1-1.03c-.015-.717-.874-1.97-4-1.97V31c2.25,0,3.919.544,4.962,1.619a3.806,3.806,0,0,1,.643.886l1.451-.824-.821-1.064c-.019-.03-.038-.059-.054-.09a14.534,14.534,0,0,0-.938-1.224,16.519,16.519,0,0,0-5.809-4.444l-1.773-.814a1.026,1.026,0,0,1-.378-.238l.7-.7L39,24.1a1,1,0,0,1,1.418-.909l1.85.851a18.508,18.508,0,0,1,6.5,4.97,16.571,16.571,0,0,1,1.113,1.46c.02.03.039.061.056.092l.715,1.039a1.989,1.989,0,0,1-.558,2.785l-2.6,1.481A.988.988,0,0,1,47,36ZM39.994,24.1l.7-.7Z"/><path d="M43.007,37c-3.111,0-13.446-3.589-19.078-8.3a8.391,8.391,0,0,1-2.411-3.2,4.575,4.575,0,0,1,2.549-6.177l.866,1.8c-2.236,1.074-1.945,2.716-1.572,3.6a6.429,6.429,0,0,0,1.851,2.443C30.622,31.691,40.432,35,42.92,35c2.527-.017,3.4-.731,3.405-.738L47.7,35.714C47.484,35.925,46.247,36.979,43.007,37Z"/><path d="M41,39H33a.925.925,0,0,1-.2-.02A25.559,25.559,0,0,1,25.593,36.1c-4.907-2.893-7.833-7.035-8.461-11.978l1.984-.252C20.388,33.885,31.968,36.743,33.107,37H41a1,1,0,0,0,1-1h2A3,3,0,0,1,41,39Z"/><path d="M19,22H17c0-2.075,1.045-6,5-6h.38v2H22C19.034,18,19,21.837,19,22Z"/><path d="M49,30H47V27.74a4.975,4.975,0,0,0-3.56-4.783l.581-1.914A6.961,6.961,0,0,1,49,27.74Z"/><path d="M35.059,25.993a15.012,15.012,0,0,1-10.648-4.4h0a15.057,15.057,0,0,1,0-21.3,1,1,0,0,1,1.414,0L45.707,20.175a1,1,0,0,1,0,1.414A15.012,15.012,0,0,1,35.059,25.993ZM25.145,2.44a13.06,13.06,0,0,0,.68,17.735h0a13.061,13.061,0,0,0,17.735.681Z"/><path d="M35,21.983a1,1,0,0,1-1-1V10.941h2v8.988a8.976,8.976,0,0,0,5.394-2.594l1.414,1.414A10.972,10.972,0,0,1,35,21.983Z"/><path d="M35,21.983a10.972,10.972,0,0,1-7.808-3.234,1,1,0,0,1,0-1.414l7.1-7.1,1.414,1.414L29.352,18A8.973,8.973,0,0,0,35,19.983Z"/><path d="M35.059,12H25.017a1,1,0,0,1-1-1,10.966,10.966,0,0,1,3.234-7.808l1.414,1.414A8.976,8.976,0,0,0,26.071,10h8.988Z"/><path d="M27.251,18.808A10.966,10.966,0,0,1,24.017,11h2a8.981,8.981,0,0,0,2.648,6.394Z"/><path d="M49.886,31.648l-1.772-.928A7.919,7.919,0,0,0,49,27V25c0-3.444-4.782-10-8-10H38V13h3c4.7,0,10,7.828,10,12v2A9.9,9.9,0,0,1,49.886,31.648Z"/><rect x="21" y="13" width="0.34" height="2"/></g></svg>