<svg xmlns="http://www.w3.org/2000/svg" viewBox="0 0 64 64"><g id="_08-Praline_choua" data-name="08-Praline choua"><rect x="11" y="57" width="2" height="2"/><rect x="15" y="57" width="38" height="2"/><path d="M57,59H55V57h2a4,4,0,0,0,0-8H7a4,4,0,0,0,0,8H9v2H7A6,6,0,0,1,7,47H57a6,6,0,0,1,0,12Z"/><path d="M40.455,9.347c-2.141-.184-4.463-.3-6.9-.337l.017-2c2.5.041,4.869.157,7.055.344Z"/><path d="M58,25H6a5.675,5.675,0,0,1-1.215-.124A5.993,5.993,0,0,1,0,19a5.973,5.973,0,0,1,2.587-4.927C4.8,10.584,12.635,8.845,17.171,8.113l.318,1.974C9.054,11.449,5.1,13.654,4.205,15.264a1.006,1.006,0,0,1-.338.36,4,4,0,0,0-.874,6.017A4.039,4.039,0,0,0,5.2,22.919,3.681,3.681,0,0,0,6,23H58a3.995,3.995,0,0,0,2.133-7.376,1,1,0,0,1-.338-.36,5.709,5.709,0,0,0-2.4-2l.95-1.76a8.1,8.1,0,0,1,3.068,2.573A5.995,5.995,0,0,1,58,25Z"/><path d="M53.6,11.7a52.016,52.016,0,0,0-7.768-1.724L46.131,8A53.919,53.919,0,0,1,54.2,9.8Z"/><path d="M21.981,9.495l-.2-1.99c2.12-.215,4.229-.358,6.269-.424l.064,2C26.119,9.145,24.056,9.284,21.981,9.495Z"/><rect x="35.688" y="42.5" width="1.978" height="2" transform="translate(-16.956 24.502) rotate(-30.359)"/><path d="M39.741,42.863l-1.012-1.726L53.54,32.455A7.024,7.024,0,0,0,57,26.417V25H55.65c-.838,1.572-2.845,3.483-6.1,5.813l-1.165-1.626c4.377-3.135,5.427-4.793,5.663-5.5A1,1,0,0,1,55,23h3a1,1,0,0,1,1,1v2.417a9.036,9.036,0,0,1-4.448,7.764Z"/><path d="M29,49H25a1,1,0,0,1-.707-.293,3.832,3.832,0,0,1,0-5.414l.633-.633a3.8,3.8,0,0,1,1.124-.779A181.947,181.947,0,0,0,46.974,30.173L48.1,31.827A184.585,184.585,0,0,1,26.875,43.7a1.8,1.8,0,0,0-.535.371l-.633.633A1.832,1.832,0,0,0,25.469,47h3.26l4.883-2.863,1.012,1.726-5.118,3A1,1,0,0,1,29,49Z"/><path d="M42.124,48.992l-.248-1.984c4.546-.569,10.193-4.238,14.131-7.216a9.62,9.62,0,0,0,1.47-1.37A9.965,9.965,0,0,0,60,31.79V31a2,2,0,0,0-2-2h-.16V27H58a4,4,0,0,1,4,4v.79a11.959,11.959,0,0,1-3.023,7.955,11.527,11.527,0,0,1-1.768,1.645C53.081,44.513,47.109,48.369,42.124,48.992Z"/><path d="M32,49V47c5,0,15.483-5.3,20.8-9.1A7.687,7.687,0,0,0,56,31.65V30.29h2v1.36a9.691,9.691,0,0,1-4.039,7.873C49.486,42.725,38.081,49,32,49Z"/><path d="M34,39a1,1,0,0,1-.707-.292C33.236,38.65,27.491,33,21,33H11a6.006,6.006,0,0,1-6-6V24H7v3a4,4,0,0,0,4,4H21c4.877,0,9.219,2.672,11.654,4.537-1.7-6.119-9.085-10.629-9.169-10.68l1.03-1.714C24.943,23.4,35,29.531,35,38a1,1,0,0,1-.617.923A.989.989,0,0,1,34,39Z"/><path d="M26.928,34.277c-.018-.018-.053-.06-.07-.079C25.552,32.662,18.745,25,13,25V23c6.458,0,13.406,7.579,15.382,9.9a1.507,1.507,0,0,1,.15.181Z"/><path d="M35.491,34.565l-.982-1.742c7.21-4.068,12.338-7.378,14.83-9.573l1.322,1.5C48.029,27.069,42.925,30.371,35.491,34.565Z"/><path d="M18.6,49a5.365,5.365,0,0,1-3.225-1.083l-.16-.116a3,3,0,0,1,.481-5.112c2.75-1.325,7.564-3.75,12.83-6.583l.948,1.761c-5.3,2.849-10.141,5.29-12.91,6.624a1,1,0,0,0-.164,1.7l.165.119a3.409,3.409,0,0,0,4.127-.048l4.655-4.018,1.306,1.514-4.68,4.04A5.372,5.372,0,0,1,18.6,49Z"/><path d="M14.93,38H10.05a5.037,5.037,0,0,1-4.514-7.3L6.1,29.556l1.792.888-.57,1.15A3.034,3.034,0,0,0,10.05,36h4.88Z"/><path d="M13,49H10a4.967,4.967,0,0,1-1.1-.124c-.025,0-.049-.009-.073-.015a5.127,5.127,0,0,1-2.36-1.317A5.016,5.016,0,0,1,5,44a6.361,6.361,0,0,1,.847-3.165,4.663,4.663,0,0,1,2.736-2.249,31.627,31.627,0,0,0,5.884-2.472,76.309,76.309,0,0,0,7.779-4.793l1.148,1.638a78.457,78.457,0,0,1-8,4.926,33.446,33.446,0,0,1-6.278,2.628,2.7,2.7,0,0,0-1.541,1.325A4.4,4.4,0,0,0,7,44a3.018,3.018,0,0,0,.882,2.128,3.119,3.119,0,0,0,1.379.779l.053.011A2.964,2.964,0,0,0,10,47h3Z"/><rect x="28.046" y="24.8" width="6.498" height="2" transform="translate(-9.053 21.665) rotate(-33.651)"/><path d="M9.259,48.872,8.88,46.908A16.805,16.805,0,0,0,14.4,44.2l1.2,1.6A18.679,18.679,0,0,1,9.259,48.872Z"/><path d="M10,44.056a4.988,4.988,0,0,1-5-5v-.82a4.024,4.024,0,0,1,1.173-2.827l.12-.12A1,1,0,0,1,7,35h.38v1.38l.327.327-.12.12A2.013,2.013,0,0,0,7,38.24v.82a3,3,0,0,0,3.992,2.832,55.1,55.1,0,0,0,13.435-7.275l1.146,1.64a57.093,57.093,0,0,1-13.946,7.532A5.131,5.131,0,0,1,10,44.056Z"/><path d="M34.012,29.766l-1.287-1.531c3.351-2.817,5.56-4.935,5.582-4.956l1.386,1.442C39.671,24.742,37.418,26.9,34.012,29.766Z"/><path d="M57.6,48.8l-1.2-1.6,2.36-1.77A3.109,3.109,0,0,0,60,42.95a3.035,3.035,0,0,0-.239-1.2,3.1,3.1,0,0,0-1.85-1.725l.638-1.9a5.1,5.1,0,0,1,3.05,2.834A5.007,5.007,0,0,1,62,42.95a5.115,5.115,0,0,1-2.042,4.081Z"/><path d="M48,49V47c5.55,0,10.552-4.842,11.953-6.327l1.454,1.373C59.868,43.678,54.35,49,48,49Z"/><path d="M46.706,16.991a3.586,3.586,0,0,1-2.528-1.169,3.317,3.317,0,0,1,0-5.056c1.512-1.511,5.074-2.41,6.27-1.214s.3,4.759-1.214,6.27A3.586,3.586,0,0,1,46.706,16.991Zm2.05-6a5.229,5.229,0,0,0-3.164,1.187,1.343,1.343,0,0,0,0,2.228,1.343,1.343,0,0,0,2.228,0,5.132,5.132,0,0,0,1.173-3.4A1.832,1.832,0,0,0,48.756,10.993Zm.383.051Zm-.183-.183Z"/><path d="M26,18c-2.369,0-6-2.146-6-4s3.631-4,6-4a3.675,3.675,0,0,1,4,4A3.675,3.675,0,0,1,26,18Zm-3.968-4A6,6,0,0,0,26,16c1.383,0,2-.617,2-2s-.617-2-2-2A6,6,0,0,0,22.032,14Z"/><path d="M41.3,13a2.446,2.446,0,0,1-1.746-.553c-1.2-1.2-.3-4.759,1.214-6.27a3.317,3.317,0,0,1,5.056,0,3.317,3.317,0,0,1,0,5.056A7.117,7.117,0,0,1,41.3,13Zm-.254-1.862Zm-.037-.146a5.132,5.132,0,0,0,3.4-1.173,1.343,1.343,0,0,0,0-2.228,1.343,1.343,0,0,0-2.228,0A5.132,5.132,0,0,0,41.007,10.993Zm-.146-.037"/><path d="M54.706,16.991a3.586,3.586,0,0,1-2.528-1.169,3.317,3.317,0,0,1,0-5.056c1.512-1.511,5.075-2.41,6.27-1.214s.3,4.759-1.214,6.27A3.586,3.586,0,0,1,54.706,16.991Zm2.05-6a5.229,5.229,0,0,0-3.164,1.187,1.343,1.343,0,0,0,0,2.228,1.343,1.343,0,0,0,2.228,0,5.132,5.132,0,0,0,1.173-3.4A1.832,1.832,0,0,0,56.756,10.993Zm.383.051Zm-.183-.183Z"/><path d="M31.294,12.991a3.586,3.586,0,0,1-2.528-1.169c-1.512-1.511-2.41-5.073-1.214-6.27s4.758-.3,6.27,1.214a3.317,3.317,0,0,1,0,5.056A3.586,3.586,0,0,1,31.294,12.991ZM29.007,7.007a5.132,5.132,0,0,0,1.173,3.4,1.343,1.343,0,0,0,2.228,0,1.343,1.343,0,0,0,0-2.228A5.123,5.123,0,0,0,29.007,7.007Zm-.146.037Zm.183-.183"/><path d="M38.7,20a7.117,7.117,0,0,1-4.524-1.767,3.317,3.317,0,0,1,0-5.056,3.317,3.317,0,0,1,5.056,0c1.512,1.511,2.41,5.073,1.214,6.27A2.448,2.448,0,0,1,38.7,20Zm.254-1.862ZM36.706,14a1.64,1.64,0,0,0-1.114.593,1.343,1.343,0,0,0,0,2.228,5.124,5.124,0,0,0,3.4,1.173,5.132,5.132,0,0,0-1.173-3.4A1.64,1.64,0,0,0,36.706,14Zm2.433,3.957Z"/><path d="M18.706,14.991a3.586,3.586,0,0,1-2.528-1.169,3.317,3.317,0,0,1,0-5.056c1.512-1.511,5.075-2.411,6.27-1.214s.3,4.759-1.214,6.27A3.586,3.586,0,0,1,18.706,14.991Zm2.05-6a5.229,5.229,0,0,0-3.164,1.187,1.343,1.343,0,0,0,0,2.228,1.343,1.343,0,0,0,2.228,0,5.132,5.132,0,0,0,1.173-3.4A1.832,1.832,0,0,0,20.756,8.993Zm.383.051Zm-.183-.183Z"/><path d="M12.294,18.991a3.586,3.586,0,0,1-2.528-1.169c-1.512-1.511-2.41-5.073-1.214-6.27s4.758-.3,6.27,1.214a3.317,3.317,0,0,1,0,5.056A3.586,3.586,0,0,1,12.294,18.991Zm-2.287-5.984a5.132,5.132,0,0,0,1.173,3.4,1.343,1.343,0,0,0,2.228,0,1.343,1.343,0,0,0,0-2.228A5.117,5.117,0,0,0,10.007,13.007Zm-.146.037Zm.183-.183"/><path d="M48,25V23c9.172,0,11.968-6.136,12.083-6.4l1.836.791C61.786,17.7,58.538,25,48,25Z"/><path d="M39,25V23c9.172,0,11.968-6.136,12.083-6.4l1.836.791C52.786,17.7,49.538,25,39,25Z"/><path d="M30,25V23c9.172,0,11.968-6.136,12.083-6.4l1.836.791C43.786,17.7,40.538,25,30,25Z"/><path d="M21,25V23c9.172,0,11.968-6.136,12.083-6.4l1.836.791C34.786,17.7,31.538,25,21,25Z"/><path d="M12,25V23c9.172,0,11.968-6.136,12.083-6.4l1.836.791C25.786,17.7,22.538,25,12,25Z"/><path d="M5.1,24.9l-.2-1.99c7.729-.781,10.157-6.246,10.181-6.3l1.838.788C16.8,17.663,13.991,24,5.1,24.9Z"/><path d="M2.488,23.317l-.976-1.746A10.872,10.872,0,0,0,6.067,16.64l1.867.717A12.7,12.7,0,0,1,2.488,23.317Z"/><path d="M16.221,32.626A14.041,14.041,0,0,0,6,28V26a15.813,15.813,0,0,1,11.781,5.375Z"/><path d="M25.555,52.9c-.146-.072-.742-.243-1.136-.357a8.836,8.836,0,0,1-1.953-.693l1.059-1.7a13.35,13.35,0,0,0,1.449.468,10.473,10.473,0,0,1,1.471.487Z"/><path d="M34.813,52.583l-1.626-1.166a9.125,9.125,0,0,1,1.137-1.154,10.259,10.259,0,0,0,.863-.846l1.626,1.166a9.125,9.125,0,0,1-1.137,1.154A10.259,10.259,0,0,0,34.813,52.583Z"/><path d="M28.446,55.9l-.892-1.79a14.041,14.041,0,0,1,3.276-1.09l.34,1.97A12.134,12.134,0,0,0,28.446,55.9Z"/><path d="M40.273,53.687l-.18-.192a20.509,20.509,0,0,0-1.666-1.676l1.146-1.638a18.117,18.117,0,0,1,1.98,1.946l.174.186Z"/><path d="M44.853,56.522l-1.706-1.044a8.913,8.913,0,0,1,2.273-2.292l1.16,1.628A7.047,7.047,0,0,0,44.853,56.522Z"/><path d="M49.768,52.973C48.651,52.706,47,51.577,47,50h2c0,.347.734.909,1.232,1.027Z"/><path d="M10,55H8a5,5,0,0,0-.707-.793A3.341,3.341,0,0,1,6,52H8a.19.19,0,0,0,0-.042,3.853,3.853,0,0,0,.711.835A3.341,3.341,0,0,1,10,55Z"/><path d="M15.715,52.958a4.5,4.5,0,0,1-1.9-1.646,6.155,6.155,0,0,0-.5-.582l1.368-1.46a7.96,7.96,0,0,1,.689.788,5.211,5.211,0,0,0,.931.99Z"/><path d="M55.568,55.823l-1.136-1.646A4.155,4.155,0,0,0,56,52h2C58,53.515,56.416,55.237,55.568,55.823Z"/><path d="M19.708,55.957a4.4,4.4,0,0,1-2.966-2.631l1.89-.652a2.489,2.489,0,0,0,1.66,1.369Z"/></g></svg>