<svg xmlns="http://www.w3.org/2000/svg" viewBox="0 0 64 64"><g id="_09-Durum_Sourdough" data-name="09-Durum Sourdough"><path d="M6.347,29.379l-1.834-.8a29.363,29.363,0,0,1,4.152-6.822l1.55,1.262A27.357,27.357,0,0,0,6.347,29.379Z"/><path d="M14.693,18.63l-1.226-1.58a28.473,28.473,0,0,1,8.343-4.507l.64,1.9A26.461,26.461,0,0,0,14.693,18.63Z"/><path d="M32,55c-1.091,0-2.08-.023-3.021-.071l.1-2c.907.046,1.862.068,2.919.068.716,0,1.431-.009,2.127-.039.746-.021,1.446-.06,2.136-.1l.114,2c-.71.041-1.429.081-2.159.1S32.744,55,32,55Z"/><path d="M35.891,13.164A27.091,27.091,0,0,0,32.94,13H31.06a27.091,27.091,0,0,0-2.951.164l-.218-1.988A29.067,29.067,0,0,1,31.06,11h1.88a29.067,29.067,0,0,1,3.169.176Z"/><path d="M57.653,29.379a27.357,27.357,0,0,0-3.868-6.358l1.55-1.262a29.363,29.363,0,0,1,4.152,6.822Z"/><path d="M49.307,18.63a26.461,26.461,0,0,0-7.757-4.192l.64-1.9a28.473,28.473,0,0,1,8.343,4.507Z"/><path d="M13.705,52.448q-1.061-.328-2.053-.7l.691-1.877q.945.348,1.954.662Z"/><path d="M32,55c-1.091,0-2.08-.023-3.021-.071a62.359,62.359,0,0,1-13.236-1.9l.508-1.935A60.316,60.316,0,0,0,29.07,52.931c.918.047,1.873.069,2.93.069.716,0,1.431-.009,2.127-.039.746-.021,1.446-.06,2.136-.1,8.056-.487,15.43-2.4,20.227-5.241l1.02,1.721c-5.136,3.044-12.64,5-21.13,5.517-.713.041-1.432.081-2.162.1S32.744,55,32,55Z"/><path d="M9.594,50.927C3.407,48.214,0,44.512,0,40.5c0-.113.006-.223.015-.333A.918.918,0,0,1,0,40,30.67,30.67,0,0,1,2.216,28.5a1.96,1.96,0,0,1,1.276-1.155,1.986,1.986,0,0,1,1.722.288q.349.247.748.5a54.448,54.448,0,0,0,8.03,3.859l-6.2-10.423a1.993,1.993,0,0,1,.227-2.359,30.058,30.058,0,0,1,3.552-3.365,2.008,2.008,0,0,1,3.158.891c.087.245.179.486.277.727A16.532,16.532,0,0,0,18.913,23.2l6.021,5.79-.966-7.941A16.232,16.232,0,0,0,21.3,14.054a14.6,14.6,0,0,0-1.033-1.395l-.207-.246a1,1,0,0,1,.426-1.583A31.12,31.12,0,0,1,27.9,9.005a1.01,1.01,0,0,1,.773.252A1,1,0,0,1,29,10v2.9l2.7,13.48a.769.769,0,0,0,1.517-.049L35,12.934V10a1,1,0,0,1,.331-.743,1.019,1.019,0,0,1,.773-.252A31.12,31.12,0,0,1,43.51,10.83a1,1,0,0,1,.426,1.583l-.21.25a14.362,14.362,0,0,0-1.016,1.37,16.274,16.274,0,0,0-2.679,7.017L39,29.019l6.085-5.82a16.51,16.51,0,0,0,3.907-5.735c.1-.242.191-.483.278-.727a2.008,2.008,0,0,1,3.158-.892,30.071,30.071,0,0,1,3.553,3.366,1.994,1.994,0,0,1,.226,2.359l-6.238,10.5a62.318,62.318,0,0,0,8.065-3.936q.4-.252.752-.5a1.985,1.985,0,0,1,1.721-.287A1.96,1.96,0,0,1,61.784,28.5,30.67,30.67,0,0,1,64,40v1a1.008,1.008,0,0,1-.059.34c-.282,2.347-1.774,4.619-4.331,6.587l-1.22-1.585c2.192-1.687,3.431-3.563,3.584-5.424A.965.965,0,0,1,62,40.757V40a28.684,28.684,0,0,0-2.071-10.751,8.082,8.082,0,0,1-.827.578,56.285,56.285,0,0,1-8.35,4.021,1.994,1.994,0,0,1-2.537-2.735l6.271-10.562a27.133,27.133,0,0,0-3.31-3.147c-.118.275-.221.545-.33.813a18.53,18.53,0,0,1-4.373,6.424l-6.02,5.79a2.045,2.045,0,0,1-2.361.34,1.955,1.955,0,0,1-1.074-2.008l1.03-7.971a18.26,18.26,0,0,1,3-7.865q.213-.328.463-.672A28.724,28.724,0,0,0,37,11.139V13a.976.976,0,0,1-.009.132L35.2,26.6a2.77,2.77,0,0,1-5.461.177L27.02,13.2A.925.925,0,0,1,27,13V11.139a28.724,28.724,0,0,0-4.507,1.116c.17.233.328.462.477.692a18.227,18.227,0,0,1,2.981,7.843l1.031,7.972a1.956,1.956,0,0,1-1.074,2.009,2.042,2.042,0,0,1-2.354-.333l-6.027-5.8a18.535,18.535,0,0,1-4.374-6.426c-.108-.266-.211-.536-.308-.807a26.4,26.4,0,0,0-3.338,3.138l6.243,10.5a1.993,1.993,0,0,1-2.511,2.8,56.293,56.293,0,0,1-8.344-4.02c-.294-.185-.576-.372-.838-.558A28.768,28.768,0,0,0,2,39.778a.907.907,0,0,1,.027.28l-.014.2c-.007.081-.014.162-.014.246,0,3.123,3.061,6.256,8.4,8.595Z"/><path d="M19.555,32.9c-.146-.072-.742-.243-1.136-.357a8.836,8.836,0,0,1-1.953-.693l1.059-1.7a13.35,13.35,0,0,0,1.449.468,10.473,10.473,0,0,1,1.471.487Z"/><path d="M15.445,27.9l-.89-1.792a10.473,10.473,0,0,1,1.471-.487,13.35,13.35,0,0,0,1.449-.468l1.059,1.7a8.836,8.836,0,0,1-1.953.693C16.187,27.653,15.591,27.824,15.445,27.9Z"/><path d="M28.813,32.583l-1.626-1.166a9.125,9.125,0,0,1,1.137-1.154,10.259,10.259,0,0,0,.863-.846l1.626,1.166a9.125,9.125,0,0,1-1.137,1.154A10.259,10.259,0,0,0,28.813,32.583Z"/><path d="M34.813,32.583l-1.626-1.166a9.125,9.125,0,0,1,1.137-1.154,10.259,10.259,0,0,0,.863-.846l1.626,1.166a9.125,9.125,0,0,1-1.137,1.154A10.259,10.259,0,0,0,34.813,32.583Z"/><path d="M22.446,35.9l-.892-1.79a14.041,14.041,0,0,1,3.276-1.09l.34,1.97A12.134,12.134,0,0,0,22.446,35.9Z"/><path d="M47.273,36.687l-.18-.192a20.509,20.509,0,0,0-1.666-1.676l1.146-1.638a18.117,18.117,0,0,1,1.98,1.946l.174.186Z"/><path d="M53.853,36.522l-1.706-1.044a8.913,8.913,0,0,1,2.273-2.292l1.16,1.628A7.047,7.047,0,0,0,53.853,36.522Z"/><path d="M46.768,31.973C45.651,31.706,44,30.577,44,29h2c0,.347.734.909,1.232,1.027Z"/><path d="M7,40H5a5,5,0,0,0-.707-.793A3.341,3.341,0,0,1,3,37H5a.19.19,0,0,0,0-.042,3.853,3.853,0,0,0,.711.835A3.341,3.341,0,0,1,7,40Z"/><path d="M9.715,36.958a4.5,4.5,0,0,1-1.9-1.646,6.155,6.155,0,0,0-.5-.582l1.368-1.46a7.96,7.96,0,0,1,.689.788,5.211,5.211,0,0,0,.931.99Z"/><path d="M58.568,37.823l-1.136-1.646A4.155,4.155,0,0,0,59,34h2C61,35.515,59.416,37.237,58.568,37.823Z"/><path d="M38.708,37.957a4.4,4.4,0,0,1-2.966-2.631l1.89-.652a2.489,2.489,0,0,0,1.66,1.369Z"/></g></svg>