<svg xmlns="http://www.w3.org/2000/svg" viewBox="0 0 64 64"><g id="_10-Croissant" data-name="10-Croissant"><path d="M45.124,37.828l-.25-1.984,5.2-.656a1,1,0,0,0,.926-1V29.81a1,1,0,0,0-.9-.995L28.875,26.137l.25-1.984,21.2,2.675A2.984,2.984,0,0,1,53,29.81v4.38a2.991,2.991,0,0,1-2.7,2.985Z"/><rect x="25" y="23.758" width="2" height="2.017" transform="translate(-1.826 47.462) rotate(-82.81)"/><path d="M18,41.2a7,7,0,0,1-7-7v-4.39a7,7,0,0,1,7.876-6.945l4.248.536-.25,1.984-4.248-.536A5,5,0,0,0,13,29.805V34.2a5,5,0,0,0,5.626,4.961L42.875,36.1l.25,1.985L18.876,41.14A6.961,6.961,0,0,1,18,41.2Z"/><path d="M51,27.79H49V26.78a1.006,1.006,0,0,0-.888-1l-.242-.032L20.354,22.523A2.992,2.992,0,0,0,17.2,24.417L15.336,23.7a4.991,4.991,0,0,1,5.25-3.166L48.36,23.8A3,3,0,0,1,51,26.78Z"/><path d="M20,43.5a4.982,4.982,0,0,1-4.659-3.2l1.867-.714a2.985,2.985,0,0,0,3.151,1.894L48.1,38.218a1.008,1.008,0,0,0,.9-1V36.21h2v1.01A3.007,3.007,0,0,1,48.349,40.2l-.219.029L20.586,43.463A4.917,4.917,0,0,1,20,43.5Z"/><path d="M49,24.76H47v-2.4a2.871,2.871,0,0,0-2.288-2.734l-.026-.006-.046-.011-4.841-.99.4-1.959,4.841.99.048.011.059.013h0A4.823,4.823,0,0,1,49,22.36Z"/><path d="M20.874,22.145l-1.34-2.55A4.683,4.683,0,0,1,19,17.42V15.91a2.868,2.868,0,0,1,1.062-2.223,3.053,3.053,0,0,1,2.554-.627L38.2,16.25l-.4,1.959L22.22,15.02a1.07,1.07,0,0,0-.891.214A.87.87,0,0,0,21,15.91v1.51a2.659,2.659,0,0,0,.3,1.242l1.342,2.553Z"/><path d="M44.02,19.2,43.4,16.109a2.98,2.98,0,0,0-1.594-2.092L27.189,6.669a.993.993,0,0,0-1.264.4l-1.5,2.5A2.992,2.992,0,0,0,24,11.108V14H22V11.108a5,5,0,0,1,.713-2.573l1.5-2.495a2.988,2.988,0,0,1,3.856-1.168l14.64,7.358a4.965,4.965,0,0,1,2.657,3.487L45.98,18.8Z"/><path d="M42,14a35.092,35.092,0,0,0-.834-7.641l-.446-2.01A2.983,2.983,0,0,0,37.791,2H36.069l-3.956.549A3.473,3.473,0,0,0,29,6H27A5.464,5.464,0,0,1,31.865.564l4-.555A1.066,1.066,0,0,1,36,0h1.791a4.973,4.973,0,0,1,4.882,3.915l.446,2.01A37.088,37.088,0,0,1,44,13.952Z"/><path d="M41,12H39V11c0-1.631-.5-5-2-5a12.411,12.411,0,0,0-2.452.244A1.963,1.963,0,0,0,33,8.063l-2-.126a3.966,3.966,0,0,1,3.144-3.654A14.433,14.433,0,0,1,37,4c3.888,0,4,6.284,4,7Z"/><path d="M28.2,49.8l-.4-1.959,16.836-3.447.053-.012.023,0A2.871,2.871,0,0,0,47,41.64v-2.4h2v2.4a4.823,4.823,0,0,1-3.853,4.686h0l-.064.014-.043.01Z"/><path d="M22,51a3.034,3.034,0,0,1-1.935-.688A2.868,2.868,0,0,1,19,48.09V46.58a4.681,4.681,0,0,1,.536-2.178l1.338-2.547,1.772.93-1.34,2.55A2.657,2.657,0,0,0,21,46.58v1.51a.87.87,0,0,0,.329.676,1.072,1.072,0,0,0,.895.213l3.576-.731.4,1.959-3.58.732A3.141,3.141,0,0,1,22,51Z"/><path d="M26.774,59.416A2.981,2.981,0,0,1,24.21,57.96l-1.5-2.495A5,5,0,0,1,22,52.892V50h2v2.892a2.992,2.992,0,0,0,.428,1.544l1.5,2.495a1,1,0,0,0,1.286.389l14.6-7.337A2.98,2.98,0,0,0,43.4,47.891L44.02,44.8l1.96.392-.617,3.087a4.965,4.965,0,0,1-2.657,3.487L28.088,59.118A3.079,3.079,0,0,1,26.774,59.416Z"/><path d="M37.791,64H36a1.066,1.066,0,0,1-.138-.009l-4.024-.558A5.458,5.458,0,0,1,27,58h2a3.466,3.466,0,0,0,3.086,3.448L36.069,62h1.722a2.983,2.983,0,0,0,2.929-2.35l.446-2.009A34.981,34.981,0,0,0,42,50.048L44,50a37.2,37.2,0,0,1-.881,8.075l-.446,2.009A4.973,4.973,0,0,1,37.791,64Z"/><path d="M37,60a14.45,14.45,0,0,1-2.849-.283,3.967,3.967,0,0,1-3.143-3.654l2-.126a1.963,1.963,0,0,0,1.543,1.819A12.428,12.428,0,0,0,37,58c1.5,0,2-3.369,2-5V52h2v1C41,53.716,40.888,60,37,60Z"/></g></svg>