<svg xmlns="http://www.w3.org/2000/svg" viewBox="0 0 64 64"><g id="_12-Brioche" data-name="12-Brioche"><path d="M31.685,35a5.153,5.153,0,0,1-5-3.747,4.761,4.761,0,0,1,1.3-4.691l2.4-2.293a10.845,10.845,0,0,1,5.358-2.78l15.34-3.105c3.21-.65,5.751-3.093,6.973-6.7a1,1,0,0,1,1.638-.4,16.245,16.245,0,0,1,3.815,5.1h0A6.528,6.528,0,0,1,64,18.962V22a7.3,7.3,0,0,1-2.008,5.09c-.335.334-.682.657-1.017.968-.2.184-.394.364-.577.539l-3.912,3.74A8.033,8.033,0,0,1,51.016,35H31.685ZM59.36,13.794a11.132,11.132,0,0,1-7.883,6.55l-15.34,3.105a8.848,8.848,0,0,0-4.372,2.265l-2.4,2.294a2.763,2.763,0,0,0-.756,2.72A3.192,3.192,0,0,0,31.751,33H51a6.163,6.163,0,0,0,4.1-2.108l3.912-3.74c.19-.182.392-.369.6-.561.318-.294.648-.6.965-.917A5.331,5.331,0,0,0,62,22V18.962a4.525,4.525,0,0,0-.331-1.8h0A12.408,12.408,0,0,0,59.36,13.794Z"/><path d="M44.691,43.813l-1.382-1.445,3.83-3.662a6.04,6.04,0,0,0,2.229-3.662l.236-1.09,1.956.424-.237,1.09a7.977,7.977,0,0,1-2.8,4.683Z"/><path d="M32.076,50.327c-.266,0-.538,0-.814-.015a32,32,0,0,1-11.18-2.43,6.259,6.259,0,0,1-1.938-10.4,6.874,6.874,0,0,1,3.3-1.767l10.306-2.686.5,1.936L21.909,37.662a4.88,4.88,0,0,0-2.345,1.231,4.263,4.263,0,0,0,1.293,7.146,29.994,29.994,0,0,0,10.477,2.274c3.814.131,6.587-.8,8.925-3.03l1.052-1.006,1.382,1.446-1.051,1.006A12.9,12.9,0,0,1,32.076,50.327Z"/><path d="M28.017,27.181,26.078,16.633A12.011,12.011,0,0,1,29.622,5.461a13.062,13.062,0,0,1,6.124-3.273L44.119.182a6.656,6.656,0,0,1,6.238,1.762l.35.348A1,1,0,0,1,51,3V4a1,1,0,0,1-.309.723c-3.449,3.3-5.234,6.2-5.97,9.722l-.463,1.8-1.938-.5.453-1.759C43.565,10.2,45.438,7.054,49,3.576V3.415l-.057-.057a4.652,4.652,0,0,0-4.359-1.231L36.2,4.136a11.046,11.046,0,0,0-5.2,2.771,10.031,10.031,0,0,0-2.965,9.341l1.943,10.571Z"/><rect x="40.837" y="18.499" width="3.099" height="2.001" transform="translate(12.931 55.683) rotate(-75.557)"/><path d="M18.309,38.723C13.93,34.536,11.93,30.406,12.2,26.1a10.889,10.889,0,0,1,3.382-7.208l.111-.107A11.534,11.534,0,0,1,27.152,16H28v2H27a1.01,1.01,0,0,1-.3-.047,9.559,9.559,0,0,0-9.623,2.273l-.111.107a8.9,8.9,0,0,0-2.771,5.887c-.23,3.737,1.518,7.25,5.5,11.057Z"/><path d="M15.226,59.42q-.372,0-.747-.031l-2.236-.184a13.474,13.474,0,0,1-8.184-3.672A13.249,13.249,0,0,1,.14,48.9,7.682,7.682,0,0,1,0,47.3V44A16.084,16.084,0,0,1,5.3,32.659a7.459,7.459,0,0,1,3.9-1.946l4.651-.7.3,1.978-4.628.7A5.444,5.444,0,0,0,6.684,34.1,14.087,14.087,0,0,0,2,44v3.3a5.786,5.786,0,0,0,.1,1.178,11.234,11.234,0,0,0,3.344,5.607,11.47,11.47,0,0,0,6.966,3.125l2.236.184a6.651,6.651,0,0,0,5.154-1.76c.13-.123.251-.25.367-.382a5.841,5.841,0,0,0,.591-6.593l-.637-1.189,1.764-.944.637,1.189a7.851,7.851,0,0,1-.854,8.859q-.231.262-.486.507A8.6,8.6,0,0,1,15.226,59.42Z"/><path d="M29.691,58.153l-1.382-1.445L33.233,52a2.673,2.673,0,0,0,.778-1.384l.457-2.183,1.957.409-.457,2.184a4.667,4.667,0,0,1-1.352,2.419Z"/><path d="M19.058,64a14.378,14.378,0,0,1-6.532-1.5,21.628,21.628,0,0,1-5.062-3.715L4.481,55.938l1.383-1.446,2.983,2.851a19.65,19.65,0,0,0,4.59,3.381A12.382,12.382,0,0,0,19.058,62H21c1.733-.127,2.624-.813,4.227-2.345l1.44-1.378,1.383,1.446L26.609,61.1C24.9,62.732,23.6,63.815,21.072,64Z"/><path d="M10,57.583c-1.921,0-3.972-.278-6.686-2.858l1.376-1.45a6.993,6.993,0,0,0,6.057,2.3l.106,0a5.762,5.762,0,0,0,3.86-1.595,5.1,5.1,0,0,0,.772-6.65,25.279,25.279,0,0,1-2.951-6l1.895-.644a23.124,23.124,0,0,0,2.715,5.526,7.161,7.161,0,0,1-1.054,9.219,7.758,7.758,0,0,1-5.2,2.145l-.106,0C10.524,57.578,10.262,57.583,10,57.583Z"/><path d="M11.915,39.249c-.175-.681-.327-1.378-.453-2.07l1.967-.358c.118.645.26,1.3.424,1.931Z"/><path d="M11.156,35.112A24.586,24.586,0,0,1,11,30.925L13,31.074a23.048,23.048,0,0,0,.148,3.814Z"/><path d="M29.638,54.891a16.472,16.472,0,0,1-7.732-2.011l.934-1.769c5.664,2.99,9.988,1.336,10.169,1.264l.75,1.854A11.679,11.679,0,0,1,29.638,54.891Z"/><path d="M60,12H58c0-4.383-2.99-7-8-7V3C56.075,3,60,6.533,60,12Z"/></g></svg>