<svg xmlns="http://www.w3.org/2000/svg" viewBox="0 0 64 64"><g id="_14-Croissant_pie" data-name="14-Croissant pie"><path d="M12.959,25a3.426,3.426,0,0,1-2.417-.989L8,21.492a3.381,3.381,0,0,1,0-4.809l2.415-2.393,1.409,1.42L9.412,18.1a1.38,1.38,0,0,0,0,1.967l2.538,2.514a1.431,1.431,0,0,0,1.994.017c2.895-2.818,10.332-9.5,16.862-10.693a10.521,10.521,0,0,1,9.26,2.961l2.045,1.875a3.745,3.745,0,0,0,.449-4.162c-.114-.211-.212-.4-.3-.582a7.479,7.479,0,0,0-1.767-2.367A15.717,15.717,0,0,0,23.577,6.147a20.256,20.256,0,0,0-6.472,4.334l-3.4,3.371L12.3,12.431,15.7,9.06A22.281,22.281,0,0,1,22.805,4.3,17.513,17.513,0,0,1,41.9,8.213a9.365,9.365,0,0,1,2.138,2.874c.087.167.178.346.284.542a5.765,5.765,0,0,1-1.042,6.8,1,1,0,0,1-.263.187l-.573.281a1,1,0,0,1-1.116-.161l-2.638-2.42a8.542,8.542,0,0,0-7.521-2.441C25.008,15,17.5,21.936,15.34,24.035A3.4,3.4,0,0,1,12.959,25Z"/><path d="M37.829,53.463,21.218,50.57A9.451,9.451,0,0,1,14,42.047l1-20.1,2,.1-1,20A7.439,7.439,0,0,0,21.574,48.6l16.6,2.889Z"/><path d="M7,18.954a12.614,12.614,0,0,0-.8-4.372L4.351,13.007a1,1,0,0,1,.1-1.6L14.989,4.472A9.292,9.292,0,0,1,21.023,3l6.97-.046.014,2L20.982,5c-.051,0-.075,0-.111,0a7.3,7.3,0,0,0-4.782,1.147L6.661,12.35l.988.843a.992.992,0,0,1,.236.295A13.981,13.981,0,0,1,9,18.954Z"/><path d="M6,13H4A4,4,0,0,1,0,9V7.544A4.009,4.009,0,0,1,1.675,4.289L5.854,1.3A6.961,6.961,0,0,1,9.923,0h3.415a7,7,0,0,1,3.6,1l3.575,2.145-1.03,1.714L15.911,2.712A5.014,5.014,0,0,0,13.338,2H9.923a4.974,4.974,0,0,0-2.906.931L2.837,5.917A2,2,0,0,0,2,7.544V9a2,2,0,0,0,2,2H6Z"/><path d="M52,60a1,1,0,0,1-.832-.445L49.31,56.767c-.656-.343-1.057-.545-1.3-.663a5,5,0,0,1-6.653-1.053l-1.141-1.426A1,1,0,0,1,40.4,52.2l3.9-2.928c11.1-13.595,3.6-23.952-3.01-30.565l1.414-1.414c11.252,11.252,12.255,22.158,3.065,33.342a1,1,0,0,1-.172.165l-3.175,2.381.5.62a3,3,0,0,0,4.514.2l6.473-6.787c2.112-2.112,4.242-6.4,5.171-8.6A1,1,0,0,1,61,39v3.474a9.325,9.325,0,0,1-1.471,6.038L52.855,59.519a1,1,0,0,1-.834.481Zm-2.424-5.35c.248.128.541.282.889.465a1,1,0,0,1,.367.33l1.128,1.693,5.878-9.695a7.335,7.335,0,0,0,1.207-4.17,24.414,24.414,0,0,1-3.707,5.334Z"/><path d="M56.456,64H55a4,4,0,0,1-4-4V59h2v1a2,2,0,0,0,2,2h1.456a2,2,0,0,0,1.628-.838l2.984-4.179A4.965,4.965,0,0,0,62,54.077V50.662a5.007,5.007,0,0,0-.712-2.572l-2.145-3.575,1.714-1.03L63,47.061a7,7,0,0,1,1,3.6v3.415a6.961,6.961,0,0,1-1.3,4.069l-2.985,4.179A4.009,4.009,0,0,1,56.456,64Z"/><rect x="20" y="22" width="2" height="2"/><path d="M44.682,50.948,24.158,44.061A5.977,5.977,0,0,1,20,38.351V26h2V38.351a3.988,3.988,0,0,0,2.781,3.809l20.537,6.892Z"/><path d="M58.87,30.065c-.086-1.327-.217-2.662-.387-3.969a16.363,16.363,0,0,0-2.115-6.329,20.125,20.125,0,0,0-14.486-9.631L40.859,9.99l.282-1.98,1.024.146A22.115,22.115,0,0,1,58.084,18.741a18.32,18.32,0,0,1,2.382,7.1c.176,1.35.311,2.728.4,4.1Z"/><path d="M59,34q0-.984-.034-1.968l2-.066Q61,32.983,61,34Z"/><rect x="59" y="36" width="2" height="3"/><path d="M49.937,44.352l-1.874-.7c2.969-7.916,3.889-18.576,2.008-23.276-1.831-4.579-7.462-7.45-7.519-7.478l.9-1.789c.259.13,6.365,3.231,8.482,8.523C54,24.807,53.106,35.9,49.937,44.352Z"/><path d="M41.728,38.773c-3.968,0-8.189-1.15-10.592-5.269-7.327-12.562,2.1-21.166,2.2-21.252l1.33,1.5L34,13l.666.746c-.341.306-8.289,7.63-1.8,18.75,4.479,7.679,17.638,2.625,17.771,2.573l.73,1.862A29.419,29.419,0,0,1,41.728,38.773Z"/><path d="M30.98,29.2,29.02,28.8C29.421,26.8,31.605,23,37,23a10.622,10.622,0,0,1,7,2.316V21h2v7a1,1,0,0,1-1.9.447C44.036,28.312,42.259,25,37,25,31.879,25,31.015,29.025,30.98,29.2Z"/><path d="M42.6,38.8l-1.2-1.6c3.486-2.614,2.619-8.994,2.61-9.058l1.98-.284C46.034,28.168,47.023,35.482,42.6,38.8Z"/></g></svg>