<svg xmlns="http://www.w3.org/2000/svg" viewBox="0 0 64 64"><g id="_16-Baguette" data-name="16-Baguette"><path d="M32,57c-2.869,0-5.588-.1-8.082-.308l.164-1.994c2.439.2,5.1.3,7.918.3,14.4,0,24.046-2.678,27.158-7.539a.957.957,0,0,1,.122-.155C60.1,46.458,62,43.173,62,31s-1.9-15.458-2.72-16.306a.974.974,0,0,1-.123-.155C57.6,12.1,54.427,10.21,49.733,8.917l.532-1.928C55.4,8.4,58.941,10.554,60.79,13.38,62.92,15.691,64,21.617,64,31s-1.08,15.309-3.21,17.619C57.2,54.1,47.251,57,32,57Z"/><path d="M21.891,56.5C12.222,55.442,5.937,52.792,3.21,48.619,1.08,46.309,0,40.382,0,31S1.08,15.691,3.21,13.38C6.8,7.9,16.749,5,32,5A76.625,76.625,0,0,1,48.217,6.482l-.432,1.953A74.647,74.647,0,0,0,32,7C17.6,7,7.954,9.677,4.842,14.539a.915.915,0,0,1-.122.155C3.9,15.542,2,18.827,2,31S3.9,46.458,4.72,47.306a1.022,1.022,0,0,1,.123.155c2.324,3.632,8.294,6.069,17.264,7.049Z"/><path d="M48.119,48.021c-7.744,0-17.774-2.547-23.384-5.828a36.951,36.951,0,0,1-5.877-4.451L20.2,36.26a34.977,34.977,0,0,0,5.545,4.207c9.415,5.506,27.807,7.462,30.75,3.273a4.825,4.825,0,0,0,.3-3.6c-1.38-6.329-9.333-16.2-16.364-20.311-7.515-4.4-26.893-8.767-30.75-3.273-1.957,2.785.369,8.594,6.069,15.158l-1.51,1.311c-3.087-3.554-9.87-12.387-6.2-17.619,5.042-7.177,26.181-1.523,33.4,2.7C49,22.523,57.251,32.824,58.754,39.717a6.41,6.41,0,0,1-.622,5.172C56.575,47.106,52.757,48.021,48.119,48.021Z"/><path d="M17.3,36.269q-.784-.768-1.552-1.582L17.2,33.315c.491.523.992,1.032,1.495,1.526Z"/><path d="M56,46H54c0-6.679-8.359-18.371-16.564-23.168C30.376,18.7,14.58,14.85,8.444,17.9L7.556,16.1c7.373-3.662,24.431,1.224,30.889,5C47.305,26.285,56,38.616,56,46Z"/><path d="M16.555,27.9c-.146-.072-.742-.243-1.135-.357a8.789,8.789,0,0,1-1.954-.693l1.058-1.7a13.454,13.454,0,0,0,1.45.468,10.473,10.473,0,0,1,1.471.487Z"/><path d="M13.445,20.9l-.89-1.792a10.473,10.473,0,0,1,1.471-.487,13.454,13.454,0,0,0,1.45-.468l1.058,1.7a8.789,8.789,0,0,1-1.954.693C14.187,20.653,13.591,20.824,13.445,20.9Z"/><path d="M25.813,32.582l-1.626-1.164a9.056,9.056,0,0,1,1.137-1.155,10.434,10.434,0,0,0,.863-.845l1.626,1.164a9.056,9.056,0,0,1-1.137,1.155A10.434,10.434,0,0,0,25.813,32.582Z"/><path d="M30.813,27.582l-1.626-1.164a9.056,9.056,0,0,1,1.137-1.155,10.434,10.434,0,0,0,.863-.845l1.626,1.164a9.056,9.056,0,0,1-1.137,1.155A10.434,10.434,0,0,0,30.813,27.582Z"/><path d="M27.446,37.9,26.554,36.1a14.093,14.093,0,0,1,3.275-1.089l.342,1.97A12.062,12.062,0,0,0,27.446,37.9Z"/><path d="M35.273,33.687l-.182-.194a20.006,20.006,0,0,0-1.664-1.673l1.146-1.64a18.166,18.166,0,0,1,1.978,1.946l.176.187Z"/><path d="M42.853,42.522l-1.706-1.044a8.9,8.9,0,0,1,2.273-2.292l1.16,1.628A7.029,7.029,0,0,0,42.853,42.522Z"/><path d="M43.768,31.973C42.651,31.706,41,30.577,41,29h2c0,.347.734.909,1.232,1.027Z"/><path d="M24,26H22a5.1,5.1,0,0,0-.707-.793A3.341,3.341,0,0,1,20,23h2a.19.19,0,0,0,0-.042,3.911,3.911,0,0,0,.711.835A3.341,3.341,0,0,1,24,26Z"/><path d="M26.715,22.958a4.505,4.505,0,0,1-1.9-1.646,6.285,6.285,0,0,0-.5-.582l1.368-1.46a8.093,8.093,0,0,1,.689.788,5.18,5.18,0,0,0,.932.99Z"/><path d="M47.568,41.823l-1.136-1.646A4.161,4.161,0,0,0,48,38h2C50,39.515,48.416,41.237,47.568,41.823Z"/><path d="M36.708,41.956a4.407,4.407,0,0,1-2.967-2.63l1.891-.652a2.493,2.493,0,0,0,1.66,1.37Z"/><path d="M60,36a8.479,8.479,0,0,1-6.832-3.445l1.661-1.114A6.456,6.456,0,0,0,60,34c1.5,0,2-3.369,2-5h2C64,29.716,63.888,36,60,36Z"/><path d="M18.13,55.911A7.971,7.971,0,0,1,16.4,54.6,8.09,8.09,0,0,1,14,48.81a8.184,8.184,0,0,1,8.863-8.156l3.571.3-.084,2-3.654-.3A6.181,6.181,0,0,0,17.814,53.18a6.036,6.036,0,0,0,1.3.989Z"/></g></svg>