<svg xmlns="http://www.w3.org/2000/svg" viewBox="0 0 64 64"><g id="_21-Baguette" data-name="21-Baguette"><path d="M21,64H15A10.011,10.011,0,0,1,5,54V52H7v2a8.009,8.009,0,0,0,8,8h6a8.009,8.009,0,0,0,8-8V48.631a10.964,10.964,0,0,0-1.845-6.1L25.6,40.19l-5.27,1.758C15.193,43.876,14.157,49.107,14,52.054L14.015,55l-2,.01-.015-3c.186-3.492,1.425-9.6,7.657-11.942l6.03-2.011a1,1,0,0,1,1.149.393l1.984,2.979A12.958,12.958,0,0,1,31,48.631V54A10.011,10.011,0,0,1,21,64Z"/><path d="M6,50.03A.99.99,0,0,1,5.755,50H5V48H7v2H6.245A.99.99,0,0,1,6,50.03Z"/><path d="M13.7,55.357a5.193,5.193,0,0,1-2.657-.686A4.156,4.156,0,0,1,9,51.013V49.065c0-7.033,10.156-9.407,15.037-10.547l.868-.206a3.5,3.5,0,0,0,2.025-1.3l.511-.7A2.826,2.826,0,0,0,28,34.633V33.514a.942.942,0,0,0-.375-.73,1.339,1.339,0,0,0-1.121-.238C22.146,33.561,7.892,37.382,7,44.063V46H5V44a.982.982,0,0,1,.007-.121c.914-7.507,13.577-11.543,21.044-13.28a3.338,3.338,0,0,1,2.817.619A2.929,2.929,0,0,1,30,33.514v1.119a4.818,4.818,0,0,1-.943,2.854l-.512.7a5.509,5.509,0,0,1-3.172,2.07l-.881.207C20.113,41.488,11,43.618,11,49v1.992a2.189,2.189,0,0,0,1.065,1.96,3.953,3.953,0,0,0,3.743-.126,43.062,43.062,0,0,0,6.575-4.13l1.234,1.575A45.055,45.055,0,0,1,16.738,54.6,6.583,6.583,0,0,1,13.7,55.357Z"/><path d="M25.414,48.724l-1.381-1.448C26,45.4,27,43.623,27,42h2C29,44.191,27.793,46.453,25.414,48.724Z"/><path d="M12,38H10c0-10.653,11.769-15.366,15.376-16.557A2,2,0,0,1,28,23.344v2.778a11,11,0,0,1-1.682,5.847l-.353.562-1.694-1.062.353-.563A9,9,0,0,0,26,26.122V23.344C22.718,24.427,12,28.688,12,38Z"/><path d="M24.707,23.707l-1.414-1.414.441-.441a4.321,4.321,0,0,0,1.077-4.32L24.3,16.047a15.039,15.039,0,0,0-6.076,2.779L17.1,17.174C20.226,15.038,22.811,14,25,14a1,1,0,0,1,.946.676l.767,2.239a6.317,6.317,0,0,1-1.565,6.351Z"/><path d="M9,40H7V33.089a16.366,16.366,0,0,1,5.573-12.373c1.075-.936,2.116-1.781,3.095-2.516l1.2,1.6c-.94.7-1.943,1.521-2.982,2.426A14.362,14.362,0,0,0,9,33.089Z"/><path d="M13.336,21.876l-.383-.211A3.881,3.881,0,0,1,11,18.235a4,4,0,0,1,1.143-2.821c.223-.222.468-.476.732-.75C14.772,12.7,17.371,10,20.182,10,22.262,10,23,12.693,23,15v1H21V15c0-1.545-.464-3-.818-3-1.961,0-4.312,2.438-5.868,4.053-.274.284-.529.549-.76.779a1.98,1.98,0,0,0-.554,1.4,1.91,1.91,0,0,0,.917,1.678l.383.211Z"/><path d="M18.617,33.531l-1.233-1.574c3.739-2.931,4.548-4.057,4.721-4.4.669-1.337.188-3.512-.054-4.237l1.9-.632c.046.138,1.117,3.42-.054,5.763C23.7,28.833,23.115,30.007,18.617,33.531Z"/><path d="M9.01,26.14l-.2-1.395a17.522,17.522,0,0,1-.274-9.6l2.4-9.47A7.412,7.412,0,0,1,18.065,0a7.442,7.442,0,0,1,7.056,5.427l.373,1.288-1.921.556L23.2,5.982a5.306,5.306,0,0,0-10.321.185l-2.4,9.47a15.518,15.518,0,0,0,.267,8.579,1.025,1.025,0,0,1,.038.166l.208,1.478Z"/><path d="M24.665,15.434l-1.8-.868.218-.453A9.312,9.312,0,0,0,23.95,9.1L25.939,8.9a11.306,11.306,0,0,1-1.056,6.085Z"/><path d="M16.813,31.582l-1.626-1.164a8.994,8.994,0,0,1,1.137-1.154,10.58,10.58,0,0,0,.863-.846l1.626,1.164a8.994,8.994,0,0,1-1.137,1.154A10.58,10.58,0,0,0,16.813,31.582Z"/><path d="M17.273,51.687l-.18-.192a20.509,20.509,0,0,0-1.666-1.676l1.146-1.638a18.061,18.061,0,0,1,1.98,1.947l.174.185Z"/><path d="M17.853,47.522l-1.706-1.044a8.9,8.9,0,0,1,2.273-2.292l1.16,1.628A7.029,7.029,0,0,0,17.853,47.522Z"/><path d="M20.715,29.959a4.509,4.509,0,0,1-1.9-1.647,6.155,6.155,0,0,0-.5-.582l1.368-1.46a7.96,7.96,0,0,1,.689.788,5.211,5.211,0,0,0,.931.99Z"/><path d="M22.568,46.823l-1.136-1.646A4.151,4.151,0,0,0,23,43h2C25,44.515,23.416,46.237,22.568,46.823Z"/><path d="M49,64H43A10.011,10.011,0,0,1,33,54V52h2v2a8.009,8.009,0,0,0,8,8h6a8.009,8.009,0,0,0,8-8V48.631a10.964,10.964,0,0,0-1.845-6.1L53.6,40.19l-5.27,1.758C43.193,43.876,42.157,49.107,42,52.054L42.015,55l-2,.01-.015-3c.186-3.492,1.425-9.6,7.657-11.942l6.03-2.011a1,1,0,0,1,1.149.393l1.984,2.979A12.958,12.958,0,0,1,59,48.631V54A10.011,10.011,0,0,1,49,64Z"/><path d="M34,50.03a.99.99,0,0,1-.245-.03H33V48h2v2h-.755A.99.99,0,0,1,34,50.03Z"/><path d="M41.7,55.357a5.193,5.193,0,0,1-2.657-.686A4.156,4.156,0,0,1,37,51.013V49.065c0-7.033,10.156-9.407,15.037-10.547l.868-.206a3.5,3.5,0,0,0,2.025-1.3l.511-.7A2.826,2.826,0,0,0,56,34.633V33.514a.942.942,0,0,0-.375-.73,1.338,1.338,0,0,0-1.121-.238C50.146,33.561,35.892,37.382,35,44.063V46H33V44a.982.982,0,0,1,.007-.121c.914-7.507,13.577-11.543,21.044-13.28a3.338,3.338,0,0,1,2.817.619A2.929,2.929,0,0,1,58,33.514v1.119a4.818,4.818,0,0,1-.943,2.854l-.512.7a5.509,5.509,0,0,1-3.172,2.07l-.881.207C48.113,41.488,39,43.618,39,49v1.992a2.189,2.189,0,0,0,1.065,1.96,3.953,3.953,0,0,0,3.743-.126,43.062,43.062,0,0,0,6.575-4.13l1.234,1.575A45.055,45.055,0,0,1,44.738,54.6,6.583,6.583,0,0,1,41.7,55.357Z"/><path d="M53.414,48.724l-1.381-1.448C54,45.4,55,43.623,55,42h2C57,44.191,55.793,46.453,53.414,48.724Z"/><path d="M40,38H38c0-10.653,11.769-15.366,15.376-16.557A2,2,0,0,1,56,23.344v2.778a11,11,0,0,1-1.682,5.847l-.353.562-1.694-1.062.353-.563A9,9,0,0,0,54,26.122V23.344C50.718,24.427,40,28.688,40,38Z"/><path d="M52.707,23.707l-1.414-1.414.441-.441a4.321,4.321,0,0,0,1.077-4.32L52.3,16.047a15.039,15.039,0,0,0-6.076,2.779L45.1,17.174C48.226,15.038,50.811,14,53,14a1,1,0,0,1,.946.676l.767,2.239a6.317,6.317,0,0,1-1.565,6.351Z"/><path d="M37,40H35V33.089a16.366,16.366,0,0,1,5.573-12.373c1.075-.936,2.116-1.781,3.095-2.516l1.2,1.6c-.94.7-1.943,1.521-2.982,2.426A14.362,14.362,0,0,0,37,33.089Z"/><path d="M41.336,21.876l-.383-.211A3.881,3.881,0,0,1,39,18.235a4,4,0,0,1,1.143-2.821c.223-.222.468-.476.732-.75C42.772,12.7,45.371,10,48.182,10,50.262,10,51,12.693,51,15v1H49V15c0-1.545-.464-3-.818-3-1.961,0-4.312,2.438-5.868,4.053-.274.284-.529.549-.76.779a1.98,1.98,0,0,0-.554,1.4,1.91,1.91,0,0,0,.917,1.678l.383.211Z"/><path d="M46.617,33.531l-1.233-1.574c3.739-2.931,4.548-4.057,4.721-4.4.669-1.337.188-3.512-.054-4.237l1.9-.632c.046.138,1.117,3.42-.054,5.763C51.7,28.833,51.115,30.007,46.617,33.531Z"/><path d="M37.01,26.14l-.2-1.395a17.522,17.522,0,0,1-.274-9.6l2.4-9.47a7.3,7.3,0,0,1,14.18-.248l.373,1.288-1.921.556L51.2,5.982a5.306,5.306,0,0,0-10.321.185l-2.4,9.47a15.518,15.518,0,0,0,.267,8.579,1.025,1.025,0,0,1,.038.166l.208,1.478Z"/><path d="M52.665,15.434l-1.8-.868.218-.453A9.312,9.312,0,0,0,51.95,9.1L53.939,8.9a11.306,11.306,0,0,1-1.056,6.085Z"/><path d="M44.813,31.582l-1.626-1.164a8.994,8.994,0,0,1,1.137-1.154,10.58,10.58,0,0,0,.863-.846l1.626,1.164a8.994,8.994,0,0,1-1.137,1.154A10.58,10.58,0,0,0,44.813,31.582Z"/><path d="M45.273,51.687l-.18-.192a20.509,20.509,0,0,0-1.666-1.676l1.146-1.638a18.061,18.061,0,0,1,1.98,1.947l.174.185Z"/><path d="M45.853,47.522l-1.706-1.044a8.9,8.9,0,0,1,2.273-2.292l1.16,1.628A7.029,7.029,0,0,0,45.853,47.522Z"/><path d="M48.715,29.959a4.509,4.509,0,0,1-1.9-1.647,6.155,6.155,0,0,0-.5-.582l1.368-1.46a7.96,7.96,0,0,1,.689.788,5.211,5.211,0,0,0,.931.99Z"/><path d="M50.568,46.823l-1.136-1.646A4.151,4.151,0,0,0,51,43h2C53,44.515,51.416,46.237,50.568,46.823Z"/></g></svg>