<svg xmlns="http://www.w3.org/2000/svg" viewBox="0 0 64 64"><g id="_23-pecan_pie" data-name="23-pecan pie"><path d="M31.635,24.82,30.9,22.959l10.95-4.294a5.732,5.732,0,0,0,1.089-.487A6,6,0,0,0,46,12.95v-.86a4.014,4.014,0,0,0-2.2-3.574l-1.8-.9V10c0,2.291-2.278,4.446-6.964,6.589a55.51,55.51,0,0,1-5.215,2.028c-2.553.844-4.5,1.333-4.579,1.353A.984.984,0,0,1,25,20h-.73V18h.6c.455-.117,2.187-.577,4.313-1.279,1.957-.665,3.6-1.3,5.018-1.951C37.888,13.086,40,11.348,40,10V6a1,1,0,0,1,1.447-.895l3.24,1.621A6.029,6.029,0,0,1,48,12.09v.86a7.99,7.99,0,0,1-4.06,6.962,7.584,7.584,0,0,1-1.409.635l-.175.067Z"/><path d="M33.408,31.869l-10.95-3.22A9,9,0,0,1,16,20.01V17a1,1,0,0,1,.02-.2c.046-.237,1.2-5.8,4.98-5.8v2c-1.722,0-2.742,2.942-3,4.1V20.01a7,7,0,0,0,2.583,5.435,6.912,6.912,0,0,0,2.443,1.287l10.947,3.219Z"/><path d="M38.719,27.96a51.875,51.875,0,0,1-7.9-3.178,25.308,25.308,0,0,1-7.285-5.105A8.372,8.372,0,0,1,21,14V12.67h2V14a6.455,6.455,0,0,0,2,4.32A23.359,23.359,0,0,0,31.718,23a50.929,50.929,0,0,0,7.563,3.044Z"/><path d="M32.078,45.479l-9.62-2.83a8.249,8.249,0,0,1-.8-.277A9.036,9.036,0,0,1,16,34.01V31a1,1,0,0,1,.02-.2c.087-.441.935-4.339,3.522-5.5l.816,1.826C19,27.74,18.218,30.121,18,31.1V34.01a7.038,7.038,0,0,0,4.395,6.5c.189.073.4.152.616.214l9.632,2.833Z"/><path d="M38.32,41.834a53.481,53.481,0,0,1-7.76-3.175.958.958,0,0,1-.092-.042,27.585,27.585,0,0,1-5.912-3.938,10.948,10.948,0,0,1-3.142-4.345L23.3,29.66A9.028,9.028,0,0,0,25.9,33.2,25.5,25.5,0,0,0,31.315,36.8a.68.68,0,0,1,.082.037,51.261,51.261,0,0,0,7.523,3.085Z"/><path d="M24.718,57.959C21.072,56.888,16,51.17,16,47.01V44a1,1,0,0,1,.02-.2c.028-.139.705-3.417,2.659-4.966L19.921,40.4A7.462,7.462,0,0,0,18,44.105V47.01c0,2.962,4.151,8.11,7.282,9.031Z"/><path d="M36,54h-.02a1.055,1.055,0,0,1-.167-.014,20.564,20.564,0,0,1-6.072-2.163c-3.679-1.957-6.553-4.647-7.887-7.381l1.8-.877c1.136,2.329,3.764,4.755,7.029,6.493a18.836,18.836,0,0,0,5.467,1.956l-.158.931Z"/><path d="M30.94,38.73l-.005-1.018-.277-.941,10.32-3.04a5.6,5.6,0,0,0,.636-.224,6.736,6.736,0,0,0,2.37-1.585A6.953,6.953,0,0,0,46,27.01V24.105c-.237-1.07-1.166-3.81-2.721-4.08l.342-1.97c3.232.561,4.254,5.219,4.359,5.749A1,1,0,0,1,48,24v3.01a8.935,8.935,0,0,1-2.588,6.312,8.681,8.681,0,0,1-3.045,2.038,7.219,7.219,0,0,1-.837.293L31.223,38.689A.969.969,0,0,1,30.94,38.73Z"/><path d="M25.237,34.972l-.474-1.944.211-.054a47.938,47.938,0,0,0,8.286-2.966c3.178-1.518,7.09-4,7.666-7.186l1.969.356c-.584,3.229-3.537,6.134-8.774,8.634a50.044,50.044,0,0,1-8.645,3.1Z"/><path d="M30.492,51.9l-.564-1.918,11.05-3.25c.065-.019.128-.041.2-.069a1.346,1.346,0,0,1,.136-.044,6.648,6.648,0,0,0,2.173-1.233A6.963,6.963,0,0,0,46,40.01V37.1a7.462,7.462,0,0,0-1.921-3.7l1.242-1.566c1.954,1.549,2.631,4.827,2.659,4.966A1,1,0,0,1,48,37v3.01a8.959,8.959,0,0,1-3.23,6.909,8.646,8.646,0,0,1-2.9,1.623l-.023.007c-.1.037-.193.068-.3.1Z"/><path d="M25.229,47.974l-.458-1.948a49.4,49.4,0,0,0,7.2-2.425,25.491,25.491,0,0,0,6.016-3.492A8.457,8.457,0,0,0,40.7,36.652l1.875.7a10.4,10.4,0,0,1-3.319,4.305,27.493,27.493,0,0,1-6.494,3.784A50.844,50.844,0,0,1,25.229,47.974Z"/><path d="M34.2,64a10.957,10.957,0,0,1-6.39-2.046.952.952,0,0,1-.194-.181l-3.389-4.139A1,1,0,0,1,25,56a17.429,17.429,0,0,0,10.375-3.8,1.06,1.06,0,0,1,.093-.061,28.1,28.1,0,0,0,2.833-2.43l1.4,1.43A29.989,29.989,0,0,1,36.575,53.8a.99.99,0,0,1-.1.063,20.244,20.244,0,0,1-9.469,4.009L29.076,60.4A8.968,8.968,0,0,0,34.2,62,10.813,10.813,0,0,0,45,51.2v-.37a5.759,5.759,0,0,0-1.594-3.99l1.448-1.379A7.748,7.748,0,0,1,47,50.83v.37A12.814,12.814,0,0,1,34.2,64Z"/><path d="M34,64H26.778a4.65,4.65,0,0,1-1.9-.4l-3.719-1.654A8.7,8.7,0,0,1,16,54a1,1,0,0,1,.052-.316l1-3,1.9.632L18,54.157a6.7,6.7,0,0,0,3.974,5.959l3.718,1.654a2.648,2.648,0,0,0,1.084.23H34Z"/><path d="M29.449,18.835,18.8,11.732A4.031,4.031,0,0,1,17,8.37a4.089,4.089,0,0,1,.847-2.479A4.035,4.035,0,0,1,20.058,4.45l.226-.049a3.956,3.956,0,0,1,1.977.023,4.117,4.117,0,0,1,1.58.826l1.8,1.528L24.354,8.306l-1.81-1.533a2.1,2.1,0,0,0-.814-.42,2,2,0,0,0-.993,0l-.231.049a2.03,2.03,0,0,0-1.081.722A2.066,2.066,0,0,0,19,8.37a2.035,2.035,0,0,0,.9,1.7l10.647,7.1Z"/><rect x="29.863" y="7.083" width="2" height="10.836" transform="translate(1.387 27.992) rotate(-49.773)"/><path d="M40,13H38c0-2.355-1.648-5.92-4.523-9.778A3.028,3.028,0,0,0,31.061,2H26a3,3,0,0,0-3,3V6H21V5a5.006,5.006,0,0,1,5-5h5.061A5.036,5.036,0,0,1,35.08,2.027C36.918,4.493,40,9.2,40,13Z"/><path d="M40.029,6.24l-.24-.969A3,3,0,0,0,36.88,3H36a.994.994,0,0,0-.79.4l-1.6-1.2A3,3,0,0,1,36,1h.88a5,5,0,0,1,4.849,3.785l.242.975Z"/><path d="M42.555,16.9c-.146-.072-.743-.244-1.137-.358a8.8,8.8,0,0,1-1.951-.692l1.057-1.7a13.169,13.169,0,0,0,1.449.469,10.365,10.365,0,0,1,1.472.487Z"/><path d="M25.445,26.9l-.89-1.792a10.365,10.365,0,0,1,1.472-.487,13.169,13.169,0,0,0,1.449-.469l1.057,1.7a8.8,8.8,0,0,1-1.951.692C26.187,26.652,25.591,26.824,25.445,26.9Z"/><path d="M26.445,4.9,25.555,3.1a10.365,10.365,0,0,1,1.472-.487,13.169,13.169,0,0,0,1.449-.469l1.057,1.7a8.8,8.8,0,0,1-1.951.692C27.187,4.652,26.591,4.824,26.445,4.9Z"/><path d="M19.813,49.582l-1.626-1.164a9.056,9.056,0,0,1,1.137-1.155,10.434,10.434,0,0,0,.863-.845l1.626,1.164a9.056,9.056,0,0,1-1.137,1.155A10.434,10.434,0,0,0,19.813,49.582Z"/><path d="M24.813,40.582l-1.626-1.164a9.056,9.056,0,0,1,1.137-1.155,10.434,10.434,0,0,0,.863-.845l1.626,1.164a9.056,9.056,0,0,1-1.137,1.155A10.434,10.434,0,0,0,24.813,40.582Z"/><path d="M24.446,53.9,23.554,52.1a14.093,14.093,0,0,1,3.275-1.089l.342,1.97A12.062,12.062,0,0,0,24.446,53.9Z"/><path d="M39.273,46.687l-.182-.194a20.283,20.283,0,0,0-1.664-1.674l1.146-1.638a17.928,17.928,0,0,1,1.978,1.945l.176.187Z"/><path d="M35.853,59.522l-1.706-1.044a8.9,8.9,0,0,1,2.273-2.292l1.16,1.628A7.029,7.029,0,0,0,35.853,59.522Z"/><path d="M22.767,35.973C21.651,35.705,20,34.575,20,33h2c0,.347.735.908,1.233,1.027Z"/><path d="M24,24H22a5.055,5.055,0,0,0-.707-.793A3.339,3.339,0,0,1,20,21h2a.2.2,0,0,0,0-.042,3.887,3.887,0,0,0,.711.835A3.339,3.339,0,0,1,24,24Z"/><path d="M42.715,31.959a4.522,4.522,0,0,1-1.9-1.647,6.155,6.155,0,0,0-.5-.582l1.368-1.46a8.093,8.093,0,0,1,.689.788,5.18,5.18,0,0,0,.932.99Z"/><path d="M32.715,7.959a4.522,4.522,0,0,1-1.9-1.647,6.155,6.155,0,0,0-.5-.582l1.368-1.46a8.093,8.093,0,0,1,.689.788,5.18,5.18,0,0,0,.932.99Z"/><path d="M40.568,58.823l-1.136-1.646A4.161,4.161,0,0,0,41,55h2C43,56.515,41.416,58.237,40.568,58.823Z"/><path d="M43.708,42.956a4.407,4.407,0,0,1-2.967-2.63l1.891-.652a2.493,2.493,0,0,0,1.66,1.37Z"/></g></svg>