<svg xmlns="http://www.w3.org/2000/svg" viewBox="0 0 64 64"><g id="_29-bread_basket" data-name="29-bread basket"><path d="M21.181,28.945l-.362-1.966c1.634-.3,3.345-.536,5.088-.7l.186,1.992C24.409,28.43,22.756,28.656,21.181,28.945Z"/><path d="M32,52.01c-1.526,0-3.033-.051-4.479-.152a58.094,58.094,0,0,1-7.9-1.058l-.837-.185A42.065,42.065,0,0,1,14.688,49.5c-.738-.243-1.5-.52-2.251-.821a22.182,22.182,0,0,1-6.084-3.5A9.279,9.279,0,0,1,3.3,40.905,6.111,6.111,0,0,1,3,39.01c0-2.658,1.7-5.2,4.925-7.352l1.111,1.664C7.194,34.551,5,36.536,5,39.01a4.15,4.15,0,0,0,.2,1.29,7.376,7.376,0,0,0,2.444,3.355,20.186,20.186,0,0,0,5.54,3.167c.714.286,1.431.548,2.128.778a40.332,40.332,0,0,0,3.9,1.063l.824.182a56.2,56.2,0,0,0,7.616,1.017,62.385,62.385,0,0,0,7.466.069,56.018,56.018,0,0,0,9.657-1.267c.825-.177,1.659-.39,2.491-.634.486-.138.965-.285,1.426-.432a30.848,30.848,0,0,0,3.749-1.5c.03-.014.06-.027.09-.038a17.557,17.557,0,0,0,3.816-2.4,7.694,7.694,0,0,0,2.326-3.015A4.326,4.326,0,0,0,59,39.01a4.544,4.544,0,0,0-.074-.822c-.392-2.011-2.312-4.047-5.4-5.718l.952-1.76c3.678,1.99,5.9,4.448,6.416,7.108A6.573,6.573,0,0,1,61,39.01a6.34,6.34,0,0,1-.461,2.361,9.627,9.627,0,0,1-2.893,3.812,19.6,19.6,0,0,1-4.328,2.72c-.025.013-.052.024-.079.035A32.846,32.846,0,0,1,49.312,49.5c-.486.155-.987.308-1.487.451-.873.256-1.754.481-2.614.666a58.088,58.088,0,0,1-9.993,1.312C34.114,51.982,33.031,52.01,32,52.01Z"/><path d="M38.057,64H25.943A19.228,19.228,0,0,1,7.2,49.616L6.056,46.328A.992.992,0,0,1,6,46V44H8v1.831l1.115,3.211A17.262,17.262,0,0,0,25.943,62H38.057a17.23,17.23,0,0,0,16.8-12.876L56,45.832V44h2v2a.992.992,0,0,1-.056.328L56.773,49.7A19.2,19.2,0,0,1,38.057,64Z"/><rect x="59" y="30" width="2" height="9"/><path d="M5,39H3V29c0-.948.049-1.926.145-2.907a28.794,28.794,0,0,1,2.03-8.123,28.388,28.388,0,0,1,3.089-5.618A28.929,28.929,0,0,1,27.621.331a29.324,29.324,0,0,1,8.844.011A29.018,29.018,0,0,1,52.292,8.286l-1.4,1.428a27.4,27.4,0,0,0-2.133-1.881,26.989,26.989,0,0,0-12.6-5.515,27.312,27.312,0,0,0-8.234-.009A26.972,26.972,0,0,0,9.9,13.5,26.528,26.528,0,0,0,7.024,18.73a26.825,26.825,0,0,0-1.889,7.558C5.045,27.2,5,28.117,5,29Z"/><path d="M53.465,12.626c-.384-.5-.792-1-1.215-1.48l1.5-1.323c.453.516.892,1.05,1.3,1.59Z"/><polygon points="50.943 17.757 51.64 17.061 50.911 16.397 51.641 17.06 52.357 16.343 52.391 17.743 51.65 17.07 50.943 17.757"/><path d="M10.621,24.233l-1.945-.466q.13-.54.283-1.073a24.468,24.468,0,0,1,2.3-5.5,24.866,24.866,0,0,1,2.99-4.178,23.645,23.645,0,0,1,6.242-5.04,22.613,22.613,0,0,1,6.3-2.4,22.209,22.209,0,0,1,3.014-.479,23.189,23.189,0,0,1,4.345.01,23.424,23.424,0,0,1,6.351,1.452,24,24,0,0,1,9.486,6.574c.267.3.53.612.786.932l-1.562,1.249c-.233-.291-.473-.577-.722-.855a21.978,21.978,0,0,0-8.7-6.031A21.513,21.513,0,0,0,33.975,7.1a21.2,21.2,0,0,0-3.983-.01,20.387,20.387,0,0,0-2.755.437,20.68,20.68,0,0,0-5.765,2.2,21.664,21.664,0,0,0-5.722,4.62A22.846,22.846,0,0,0,13,18.186a22.442,22.442,0,0,0-2.116,5.053C10.787,23.572,10.7,23.9,10.621,24.233Z"/><path d="M10.055,28.06l-2-.12c.041-.7.114-1.4.215-2.086l1.979.293C10.159,26.778,10.093,27.421,10.055,28.06Z"/><path d="M52.433,20.637l.727-.667Zm1.727-.667H53.1l.747-.747Z"/><path d="M55.98,28.09h-2c0-.1-.007-.2-.015-.293l1.992-.182C55.971,27.79,55.98,27.935,55.98,28.09Z"/><path d="M42,51c-3.309,0-6-3.141-6-7h2c0,2.757,1.794,5,4,5Z"/><path d="M47.476,49.978a7.023,7.023,0,0,1-6.455-6.5l2-.135a5.009,5.009,0,0,0,4.606,4.64Z"/><path d="M53,48a1.634,1.634,0,0,1-.209-.011c-3.432-.078-6.323-2.327-6.741-5.258l1.98-.283c.283,1.987,2.374,3.509,4.864,3.542a.988.988,0,0,1,.223.029l-.128.523Z"/><path d="M57,45c-3.444,0-6.2-1.267-6.854-3.152l1.888-.657C52.337,42.062,54.321,43,57,43Z"/><path d="M59.581,41.99c-1.854-.054-4.181-.548-5.146-1.77l1.57-1.241c.282.359,1.518.95,3.635,1.011Z"/><path d="M32,45c-11.452,0-21.374-2.134-24.689-5.311l1.382-1.443C11.616,41.045,21.2,43,32,43c13.17,0,22.77-2.832,24.109-5.455A1,1,0,0,1,57,37h3v2H57.55C54.619,42.942,42.721,45,32,45Z"/><path d="M35.015,51.908C31.586,51.369,29,47.97,29,44h2c0,2.995,1.859,5.545,4.325,5.932Z"/><path d="M27.732,51.964c-2.712-.755-4.308-4.2-3.732-8.04V43h2v1a.912.912,0,0,1-.013.156c-.444,2.819.558,5.4,2.281,5.88Z"/><path d="M19.084,50.486c-3.171-3.447-1.069-7.753-.978-7.934l1.788.9c-.063.129-1.564,3.264.663,5.685Z"/><path d="M11.812,47.8a9.185,9.185,0,0,1,2.362-6.375l1.472,1.353a7.1,7.1,0,0,0-1.838,4.907Z"/><path d="M9,45H7c0-3.224,3.375-4.538,4.409-4.864l.6,1.908C11.508,42.2,9,43.09,9,45Z"/><path d="M5.058,41.19,3.442,40.009C4.9,38.022,7.874,38,8,38v2A4.1,4.1,0,0,0,5.058,41.19Z"/><rect x="29" y="51" width="2" height="12"/><rect x="33" y="51" width="2" height="12"/><rect x="44" y="49" width="2" height="13"/><rect x="48" y="48" width="2" height="12"/><rect x="14" y="48" width="2" height="12"/><rect x="18" y="49" width="2" height="13"/><path d="M32,56.03c-.68,0-1.359-.01-2.029-.03a74.1,74.1,0,0,1-11.145-1.035l-.364-.06c-1.426-.262-2.643-.538-3.732-.843-.151-.037-.329-.082-.507-.137-3.076-.874-5.293-1.945-6.568-3.175l1.389-1.439c.712.687,2.287,1.713,5.749,2.7.165.051.308.086.449.122,1.058.295,2.217.557,3.57.807l.356.058A72.006,72.006,0,0,0,29.963,54c1.433.039,2.707.039,4.008,0a72.071,72.071,0,0,0,10.855-1l.376-.061c1.339-.248,2.5-.51,3.528-.8.169-.043.312-.078.454-.122,3.485-.991,5.06-2.017,5.772-2.7l1.389,1.439c-1.275,1.23-3.492,2.3-6.591,3.182-.155.048-.333.093-.512.137-1.061.3-2.278.574-3.69.834l-.384.063A74.007,74.007,0,0,1,34.082,56C33.359,56.02,32.68,56.03,32,56.03Z"/><path d="M32,60.33c-.681,0-1.36-.01-2.031-.03a70.783,70.783,0,0,1-11.153-1.1,40.237,40.237,0,0,1-4.1-.975A25.077,25.077,0,0,1,11.34,57H11V55h.56a.987.987,0,0,1,.424.095,22.855,22.855,0,0,0,3.294,1.215,38.243,38.243,0,0,0,3.9.926A68.517,68.517,0,0,0,30.022,58.3c1.317.041,2.648.041,3.947,0a68.5,68.5,0,0,0,10.847-1.064,38.153,38.153,0,0,0,3.9-.924,22.882,22.882,0,0,0,3.3-1.217A.987.987,0,0,1,52.44,55H53v2h-.34a25.021,25.021,0,0,1-3.382,1.229,39.876,39.876,0,0,1-4.095.974,70.768,70.768,0,0,1-11.161,1.1C33.36,60.32,32.681,60.33,32,60.33Z"/><path d="M9.693,23.952l-.105-.043,0,0c-2.791-.987-4.033-4-4.438-5.255l1.9-.615c.245.755,1.2,3.275,3.2,3.985a1.068,1.068,0,0,1,.13.057Z"/><path d="M11.709,18.6c-2.642-1.226-3.4-3.99-3.619-5.529l1.98-.279c.16,1.136.7,3.166,2.481,3.993Z"/><path d="M16,14H14v-.387A14.59,14.59,0,0,1,13.849,8.3a5.016,5.016,0,0,1,1.432-3l1.426,1.4-.012.012a3.014,3.014,0,0,0-.858,1.8,12.752,12.752,0,0,0,.119,4.655A1.007,1.007,0,0,1,16,13.47Z"/><path d="M20,9.033c-.118-.633-.657-3.913.364-6.3l1.838.787a10.355,10.355,0,0,0-.235,5.143Z"/><path d="M28.01,6.568l-2-.037c.022-1.245.153-4.291.873-5.673l1.773.924A15.117,15.117,0,0,0,28.01,6.568Z"/><path d="M35.054,6.206l-1.989-.213c.2-1.853.829-4.314,2.709-5.508l1.071,1.69C35.527,3.011,35.153,5.272,35.054,6.206Z"/><path d="M41.1,7.8l-1.9-.625A13.159,13.159,0,0,1,41.967,2.43l1.447,1.381A11.059,11.059,0,0,0,41.1,7.8Z"/><path d="M46.236,10.7,44.584,9.577a8.614,8.614,0,0,1,4.7-3.544L49.8,7.967A6.631,6.631,0,0,0,46.236,10.7Z"/><polygon points="54.437 23.932 53.963 21.988 54.304 21.916 54.757 23.863 54.437 23.932"/><path d="M27.092,44.116l-1.977-.294c.016-.087.031-.165.049-.235a12.683,12.683,0,0,1,3.4-6.382L48.2,17.563A12.6,12.6,0,0,1,50.78,15.6,11.246,11.246,0,0,1,56.24,14,6.606,6.606,0,0,1,63,20.76a11.655,11.655,0,0,1-2.285,6.521A12.013,12.013,0,0,1,59.438,28.8L44.327,43.907l-1.414-1.414,15.11-15.11a10.049,10.049,0,0,0,1.063-1.263A9.618,9.618,0,0,0,61,20.76,4.608,4.608,0,0,0,56.24,16a9.242,9.242,0,0,0-4.461,1.336,10.621,10.621,0,0,0-2.162,1.641l-19.64,19.64a10.744,10.744,0,0,0-2.853,5.367A1.155,1.155,0,0,1,27.092,44.116Z"/><path d="M54.523,33.707l-1.414-1.414c.7-.7.675-1.01-.34-3.65-.317-.824-.711-1.849-1.127-3.1a20.158,20.158,0,0,1-.851-9.512l1.961.391a18.492,18.492,0,0,0,.786,8.488c.4,1.206.787,2.208,1.1,3.013C55.617,30.479,56.211,32.021,54.523,33.707Z"/><path d="M55.12,30.584l-1.789-.895a8.967,8.967,0,0,0,.356-6.189,16.233,16.233,0,0,0-3.055-5.36l1.46-1.367a17.942,17.942,0,0,1,3.491,6.094A10.859,10.859,0,0,1,55.12,30.584Z"/><path d="M34.213,44.345c-.181-.491-.373-1.031-.569-1.62a20.165,20.165,0,0,1-.85-9.512l1.961.391a18.5,18.5,0,0,0,.785,8.488c.19.568.375,1.088.55,1.563Z"/><path d="M38.061,44.078l-1.995-.156a8.178,8.178,0,0,0-.377-3.243,16.246,16.246,0,0,0-3.054-5.361l1.46-1.366a17.961,17.961,0,0,1,3.491,6.094A10.17,10.17,0,0,1,38.061,44.078Z"/><path d="M48.8,39.434,47.383,38.02c.7-.7.675-1.011-.341-3.65-.316-.824-.711-1.849-1.127-3.1a23.708,23.708,0,0,1-.856-10.3l1.972.327a22.072,22.072,0,0,0,.781,9.338c.4,1.206.788,2.208,1.1,3.012C49.891,36.205,50.483,37.747,48.8,39.434Z"/><path d="M49.394,36.311l-1.79-.9a8.968,8.968,0,0,0,.356-6.189,16.2,16.2,0,0,0-3.055-5.361l1.46-1.367a17.922,17.922,0,0,1,3.491,6.1A10.864,10.864,0,0,1,49.394,36.311Z"/><path d="M43,44.32h-.05a1,1,0,0,1-.951-1V43a1,1,0,0,1,.956-1,1.017,1.017,0,0,1,1.04.911,2.658,2.658,0,0,1,0,.505A1,1,0,0,1,43,44.32Z"/><path d="M41.722,43.079a11.418,11.418,0,0,0-.816-2.577c-.317-.823-.711-1.848-1.127-3.1a23.716,23.716,0,0,1-.855-10.3l1.972.328a22.091,22.091,0,0,0,.78,9.336c.4,1.206.787,2.206,1.1,3.011a12.241,12.241,0,0,1,.944,3.137Z"/><path d="M43.259,42.446l-1.789-.894a8.986,8.986,0,0,0,.354-6.191A16.056,16.056,0,0,0,38.771,30l1.459-1.367a17.923,17.923,0,0,1,3.492,6.094A10.872,10.872,0,0,1,43.259,42.446Z"/><path d="M35.807,25.592l-1.614-1.184,3.7-5.05a3.725,3.725,0,0,0-.5-.892A3.626,3.626,0,0,0,34.416,17H34V15h.416a5.629,5.629,0,0,1,4.61,2.309,4.07,4.07,0,0,1,.924,2.3,1,1,0,0,1-.193.592Z"/><path d="M39.565,23.264l-.531-1.972A.992.992,0,0,1,39,21.037c-.007-.017-.1-.424-.35-.424v-2a2.421,2.421,0,0,1,2.34,2.218c0,.02,0,.038.007.057l.5,1.856Z"/><path d="M32.193,25.592,28.243,20.2a1,1,0,0,1-.193-.592,4.07,4.07,0,0,1,.923-2.3A5.631,5.631,0,0,1,33.584,15H34v2h-.416a3.628,3.628,0,0,0-2.98,1.467,3.727,3.727,0,0,0-.5.891l3.7,5.05Z"/><path d="M30.173,36.562l-4.189-6.174A5.612,5.612,0,0,1,25,26.747l0-.728a2.533,2.533,0,0,1,.9-2.264l.333-.4A1,1,0,0,1,27,23h1v2h-.533l-.11.131a.966.966,0,0,1-.21.188.544.544,0,0,0-.165.429.982.982,0,0,1,.018.188v.9a3.657,3.657,0,0,0,.645,2.433l4.182,6.166Z"/><path d="M31.546,30.657l-4.733-5.432a2.328,2.328,0,0,1-.421-2.067l.613-2.276c0-.02,0-.038.005-.051a2.421,2.421,0,0,1,2.34-2.218v2c-.236,0-.33.356-.355.47a1.269,1.269,0,0,1-.029.209l-.647,2.4a.3.3,0,0,0,.044.27l4.691,5.381Z"/><path d="M27.516,39.953a46.434,46.434,0,0,1-2.162-4.383c-.273-.611-.519-1.161-.74-1.606A5.443,5.443,0,0,1,24,31.81V30.45a.992.992,0,0,1,.021-.2,3.983,3.983,0,0,1,.817-1.71,1.022,1.022,0,0,1,.209-.2l.731-.511,1.143,1.641-.6.419a1.981,1.981,0,0,0-.321.673V31.81a3.8,3.8,0,0,0,.4,1.262c.233.468.49,1.042.776,1.682a44.985,44.985,0,0,0,2.064,4.193Z"/><path d="M26.718,44.336l-1.676-1.092A5.924,5.924,0,0,0,26,40a5.99,5.99,0,0,0-4.481-5.8A5.863,5.863,0,0,0,20,34a6.006,6.006,0,0,0-6,6,5.573,5.573,0,0,0,.16,1.366l-1.939.488A7.481,7.481,0,0,1,12,40a8.009,8.009,0,0,1,8-8,7.811,7.811,0,0,1,2.029.265,7.989,7.989,0,0,1,4.689,12.071Z"/><path d="M11.086,41.981l-.114-.068c-.109-.063-.217-.128-.326-.2A7.914,7.914,0,0,1,7,35.044a7.734,7.734,0,0,1,.542-2.917,6.762,6.762,0,0,1,.607-1.252A8.02,8.02,0,0,1,15,27a7.79,7.79,0,0,1,3.322.724,7.9,7.9,0,0,1,3.048,2.445,7.734,7.734,0,0,1,1.368,2.814l-1.937.5a5.764,5.764,0,0,0-1.021-2.1,5.914,5.914,0,0,0-2.293-1.842A5.835,5.835,0,0,0,15,29a5.941,5.941,0,0,0-5.142,2.913,5.035,5.035,0,0,0-.448.927A5.733,5.733,0,0,0,9,35a5.959,5.959,0,0,0,2.757,5.046c.1.068.164.105.227.142l.151.09Z"/></g></svg>