<svg xmlns="http://www.w3.org/2000/svg" viewBox="0 0 64 64"><g id="_30-White_Bread" data-name="30-White Bread"><path d="M45,41H41V39h3.045l.826-18.146a1,1,0,0,1,.78-.929A2.984,2.984,0,0,0,48,17a3.543,3.543,0,0,0-1.711-3.085C45.111,13.23,40.677,11,33,11s-12.111,2.23-13.287,2.914a3.428,3.428,0,0,0-1.593,2.15,1.326,1.326,0,0,0-.062.32,2.811,2.811,0,0,0-.038.326,1.031,1.031,0,0,1-.011.148A1.507,1.507,0,0,0,18,17.1a3.022,3.022,0,0,0,.674,1.8,3.068,3.068,0,0,0,1.676,1.026,1,1,0,0,1,.779.929l.233,5.1-2,.092-.2-4.4a5.1,5.1,0,0,1-2.045-1.49A5.024,5.024,0,0,1,16,17.121a4.2,4.2,0,0,1,.021-.486,3.925,3.925,0,0,1,.051-.475,2.8,2.8,0,0,1,.12-.626,5.375,5.375,0,0,1,2.515-3.348C22.14,10.19,27.482,9,33,9s10.86,1.19,14.293,3.186A5.546,5.546,0,0,1,50,17a4.964,4.964,0,0,1-3.163,4.647L46,40.046A1,1,0,0,1,45,41Z"/><rect x="58.788" y="18" width="2.003" height="2.001" transform="translate(37.722 77.726) rotate(-87.034)"/><path d="M45.394,40.919l-.788-1.838,13.428-5.755.6-11.379,2,.106-.632,12a1,1,0,0,1-.605.866Z"/><path d="M46.394,21.919l-.788-1.838,14-6a1.021,1.021,0,0,1,.175-.057A2.99,2.99,0,0,0,62,11a3.543,3.543,0,0,0-1.711-3.085C59.129,7.24,54.76,5.037,47.165,5c-.589,0-1.183.01-1.786.039-.269.009-.513.018-.758.045-.616.042-1.189.1-1.752.169a8.3,8.3,0,0,0-.83.1,27.8,27.8,0,0,0-3.014.557.981.981,0,0,1-.235.028.779.779,0,0,0,.339-.072l-.877-1.8a1.29,1.29,0,0,1,.363-.117,29.081,29.081,0,0,1,3.129-.576,9.173,9.173,0,0,1,.938-.116c.547-.067,1.153-.128,1.76-.17.252-.03.547-.04.853-.051C45.918,3.01,46.543,3,47.17,3c5.465.027,10.742,1.218,14.123,3.186A5.546,5.546,0,0,1,64,11a4.982,4.982,0,0,1-3.687,4.953Z"/><path d="M18,17.1H16a6.96,6.96,0,0,1,4.449-6.519l12.51-4.9A38.838,38.838,0,0,1,47.17,3H49V5H47.17A36.832,36.832,0,0,0,33.687,7.544l-12.509,4.9A4.97,4.97,0,0,0,18,17.1Z"/><path d="M37.408,40.807,22.673,30H12V28H23a1,1,0,0,1,.592.193l15,11Z"/><path d="M4,34H2a6.006,6.006,0,0,1,6-6h2v2H8A4,4,0,0,0,4,34Z"/><path d="M37.529,46.318,36.691,44.5,37,44.36v-2.8l-3.662,1.686L32.5,41.432l5.08-2.34A1,1,0,0,1,39,40v5a1,1,0,0,1-.581.908Z"/><path d="M6.519,41.166C3.562,38.994,2,36.516,2,34H4c0,2.342,2.014,4.313,3.7,5.555Z"/><path d="M4.377,45.772C1.514,43.491,0,40.8,0,38V36.1a7.006,7.006,0,0,1,1.529-4.366l.891-1.11A6.971,6.971,0,0,1,7.88,28H9v2H7.88a4.98,4.98,0,0,0-3.9,1.876l-.89,1.11A4.99,4.99,0,0,0,2,36.1V38c0,2.745,1.971,4.892,3.623,6.208Z"/><path d="M41.408,49.806,26.673,39H24V37h3a1,1,0,0,1,.591.193l15,11Z"/><path d="M8,43H6a5.987,5.987,0,0,1,6-6H22v2H12a3.985,3.985,0,0,0-4,4Z"/><path d="M29,61a1,1,0,0,1-1-1V55a1,1,0,0,1,.581-.908l13-6A1,1,0,0,1,43,49v5a1,1,0,0,1-.581.908l-13,6A.993.993,0,0,1,29,61Zm1-5.36v2.8L41,53.36v-2.8Z"/><path d="M29,56c-6.6,0-16.427-3.018-20.785-7.894A7.638,7.638,0,0,1,6,43H8a5.729,5.729,0,0,0,1.7,3.772C13.268,50.759,21.923,54,29,54Z"/><path d="M29,61C17.176,61,4,55.25,4,47V44.99a7.047,7.047,0,0,1,1.531-4.257l.894-1.115A6.966,6.966,0,0,1,11.88,37H13v2H11.88a4.98,4.98,0,0,0-3.9,1.876l-.89,1.109A5.025,5.025,0,0,0,6,45.013V47c0,6.868,12.143,12,23,12Z"/></g></svg>