<svg xmlns="http://www.w3.org/2000/svg" viewBox="0 0 64 64"><g id="_02-cookie" data-name="02-cookie"><path d="M39.34,6.18a1.812,1.812,0,0,1,.61,1.92,1.187,1.187,0,0,1-.49.81,1.364,1.364,0,0,1-1.25-.2c-1.13-.63-1.81-1.5-.48-2.41A1.521,1.521,0,0,1,39.34,6.18Z" style="fill:#975024"/><path d="M34.61,3.57A3.007,3.007,0,0,1,35,4.97a2,2,0,0,1-.58,1.22,2.237,2.237,0,0,1-2.84.49,3.393,3.393,0,0,1-.94-1.11,4.619,4.619,0,0,1-.63-1.96,1.227,1.227,0,0,1,.14-.76,1.108,1.108,0,0,1,.52-.39,2.826,2.826,0,0,1,3.38.21A3.043,3.043,0,0,1,34.61,3.57Z" style="fill:#975024"/><path d="M38.69,12.5a1.716,1.716,0,0,1,.3.71,1.637,1.637,0,0,1-.25.95,5.663,5.663,0,0,1-1.12,1.42,1.4,1.4,0,0,1-.67.4,1.716,1.716,0,0,1-1.34-.54c-.76-.63-1.59-1.37-1.61-2.32a.589.589,0,0,1,.1-.39.835.835,0,0,1,.3-.22,16.2,16.2,0,0,1,2.7-1.48C37.87,10.82,38.31,11.88,38.69,12.5Z" style="fill:#975024"/><circle cx="19" cy="7" r="3" style="fill:#5f2f00"/><circle cx="23" cy="18" r="3" style="fill:#5f2f00"/><path d="M7.71,6.3a2.744,2.744,0,0,1,.76,4,3.321,3.321,0,0,1-4.18,1.4,2.329,2.329,0,0,1-.69-.55A2.91,2.91,0,0,1,3.53,7.7a3.356,3.356,0,0,1,4-1.48A1.417,1.417,0,0,1,7.71,6.3Z" style="fill:#5f2f00"/><circle cx="6" cy="23" r="3" style="fill:#5f2f00"/><circle cx="16" cy="27" r="3" style="fill:#5f2f00"/><path d="M14.3,36.53a3.416,3.416,0,0,1,1.56,3.8,2.544,2.544,0,0,1-.16.38,2.744,2.744,0,0,1-4,.76,3.407,3.407,0,0,1-1.58-3.7,1.637,1.637,0,0,1,.18-.48A2.744,2.744,0,0,1,14.3,36.53Z" style="fill:#5f2f00"/><circle cx="30" cy="49" r="3" style="fill:#5f2f00"/><path d="M32.3,56.53a3.309,3.309,0,0,1,1.4,4.17v.01a2.744,2.744,0,0,1-4,.76,3.321,3.321,0,0,1-1.4-4.18,2.161,2.161,0,0,1,.29-.43A2.833,2.833,0,0,1,32.3,56.53Z" style="fill:#5f2f00"/><path d="M56.99,57.29a3.238,3.238,0,0,1-.52,2.01,3.309,3.309,0,0,1-4.17,1.4h-.01a2.744,2.744,0,0,1-.76-4,3.321,3.321,0,0,1,4.18-1.4A2.412,2.412,0,0,1,56.99,57.29Z" style="fill:#5f2f00"/><circle cx="53" cy="48" r="3" style="fill:#5f2f00"/><circle cx="40" cy="43" r="3" style="fill:#5f2f00"/><circle cx="38" cy="31" r="3" style="fill:#5f2f00"/><circle cx="54" cy="34" r="3" style="fill:#5f2f00"/><path d="M23,21a3,3,0,1,0-3-3A3,3,0,0,0,23,21ZM19,4a3,3,0,1,0,3,3A3,3,0,0,0,19,4ZM10.12,37.77A19.972,19.972,0,0,1,3.6,11.15a2.329,2.329,0,0,0,.69.55,3.321,3.321,0,0,0,4.18-1.4,2.744,2.744,0,0,0-.76-4,1.417,1.417,0,0,0-.18-.08A19.889,19.889,0,0,1,27.71,2.18a4.6,4.6,0,0,0-2.22,2.31,2.457,2.457,0,0,0-.02,1.29,3.579,3.579,0,0,0,.83,1.28,12.043,12.043,0,0,1,2.36,3.21c.66,1.61.5,3.46,1.18,5.06a7.787,7.787,0,0,0,1.64,2.31,7.411,7.411,0,0,0,3.51,2.22c1.97.46,3.83-.27,5.92-.65.05.59.09,1.19.09,1.79a20.987,20.987,0,0,1-.11,2.11A19.987,19.987,0,0,0,23.11,40.89,20.987,20.987,0,0,1,21,41a19.792,19.792,0,0,1-5.14-.67,3.416,3.416,0,0,0-1.56-3.8,2.744,2.744,0,0,0-4,.76A1.637,1.637,0,0,0,10.12,37.77ZM3,23a3,3,0,1,0,3-3A3,3,0,0,0,3,23Zm16,4a3,3,0,1,0-3,3A3,3,0,0,0,19,27Z" style="fill:#d89044"/><path d="M28.59,56.86A19.917,19.917,0,0,1,23,43a20.987,20.987,0,0,1,.11-2.11A19.987,19.987,0,0,1,40.89,23.11,20.987,20.987,0,0,1,43,23,20,20,0,0,1,56.99,57.29a2.412,2.412,0,0,0-1.28-1.99,3.321,3.321,0,0,0-4.18,1.4,2.744,2.744,0,0,0,.76,4,19.932,19.932,0,0,1-18.59,0,3.309,3.309,0,0,0-1.4-4.17A2.833,2.833,0,0,0,28.59,56.86ZM27,49a3,3,0,1,0,3-3A3,3,0,0,0,27,49ZM57,34a3,3,0,1,0-3,3A3,3,0,0,0,57,34ZM56,48a3,3,0,1,0-3,3A3,3,0,0,0,56,48ZM43,43a3,3,0,1,0-3,3A3,3,0,0,0,43,43ZM41,31a3,3,0,1,0-3,3A3,3,0,0,0,41,31Z" style="fill:#e2a555"/><path d="M63,43A19.994,19.994,0,0,0,43,23a20.987,20.987,0,0,0-2.11.11A19.987,19.987,0,0,0,23.11,40.89,20.987,20.987,0,0,0,23,43a19.917,19.917,0,0,0,5.59,13.86,2.833,2.833,0,0,1,3.71-.33,3.309,3.309,0,0,1,1.4,4.17,19.932,19.932,0,0,0,18.59,0,2.635,2.635,0,0,1-1.064-3.4c-.668.047-1.337.091-2,.2-1.563.27-3.031.93-4.57,1.319a8.226,8.226,0,0,1-4.953-.1,35.089,35.089,0,0,1-3.947-2.386c-1.929-1.056-4.172-1.354-6.238-2.109a4.282,4.282,0,0,1-1.779-1.062,5.012,5.012,0,0,1-.952-2.554L25.869,45.3c-.349-2.013-.687-4.147.058-6.049a13.694,13.694,0,0,1,1.8-2.882c1.042-1.451,1.965-2.992,3.119-4.356a9.4,9.4,0,0,1,4.3-3.081,7.592,7.592,0,0,1,.928-.211,2.974,2.974,0,0,1,3.626-.2c3.074-.04,6.22.072,8.938,1.459a23.758,23.758,0,0,1,3.111,2.059A2.979,2.979,0,0,1,56.88,34.8a3.69,3.69,0,0,1,.321.2,5.27,5.27,0,0,1,1.57,2.471,13.907,13.907,0,0,1,.822,3.1,7.99,7.99,0,0,1-.57,2.682,26.79,26.79,0,0,0-.8,6.557,10.156,10.156,0,0,1-.434,4.067,4.693,4.693,0,0,1-1.5,1.87,2.477,2.477,0,0,1,.7,1.544A19.927,19.927,0,0,0,63,43Z" style="fill:#ca7937"/><path d="M57.794,53.876a10.156,10.156,0,0,0,.434-4.067,26.79,26.79,0,0,1,.8-6.557,7.99,7.99,0,0,0,.57-2.682,13.907,13.907,0,0,0-.822-3.1A5.27,5.27,0,0,0,57.2,35a3.69,3.69,0,0,0-.321-.2,2.987,2.987,0,0,1-1.626,1.923c1.178,1.021,1.477,2.741,1.819,4.211.5,2.159.66,4.5-.667,6.421a6.185,6.185,0,0,1-.42.508c0,.048.014.093.014.141a2.99,2.99,0,0,1-2.871,2.987c-.743,1.183-1.237,2.589-2.416,3.311a5.244,5.244,0,0,1-2.555.594,24.17,24.17,0,0,1-6.478-.613,15,15,0,0,1-6.272-2.905,16.83,16.83,0,0,1-2.434-2.631c.008.086.026.169.026.257a3.007,3.007,0,1,1-1.8-2.745,4.641,4.641,0,0,1-.349-.774,7.226,7.226,0,0,1-.274-2.021q-.078-2.307.03-4.614a9.329,9.329,0,0,1,.354-2.454A6.107,6.107,0,0,1,32.4,34.084a3.927,3.927,0,0,1,1.211-.906,3.752,3.752,0,0,1,2.181-.162,2.967,2.967,0,0,1,.277-4.295,7.592,7.592,0,0,0-.928.211,9.4,9.4,0,0,0-4.3,3.081c-1.154,1.364-2.077,2.905-3.119,4.356a13.694,13.694,0,0,0-1.8,2.882c-.745,1.9-.407,4.036-.058,6.049l.921,5.319a5.012,5.012,0,0,0,.952,2.554,4.282,4.282,0,0,0,1.779,1.062c2.066.755,4.309,1.053,6.238,2.109a35.089,35.089,0,0,0,3.947,2.386,8.226,8.226,0,0,0,4.953.1c1.539-.389,3.007-1.049,4.57-1.319.66-.113,1.329-.157,2-.2a3.645,3.645,0,0,1,.3-.6,3.321,3.321,0,0,1,4.18-1.4,2.278,2.278,0,0,1,.584.446A4.693,4.693,0,0,0,57.794,53.876Z" style="fill:#d48a43"/><path d="M16.824,4.089a9.408,9.408,0,0,1,6.29-1.345A8.939,8.939,0,0,1,24.29,3a6,6,0,0,1,1.5-1.248c.06-.036.124-.063.185-.1A19.639,19.639,0,0,0,21,1,19.959,19.959,0,0,0,7.53,6.22a1.417,1.417,0,0,1,.18.08A2.458,2.458,0,0,1,9,8.512c1.561-.85,3.409-1.387,4.931-2.335C14.938,5.548,15.817,4.724,16.824,4.089Z" style="fill:#854620"/><path d="M40.91,19.21c-2.09.38-3.95,1.11-5.92.65a5.408,5.408,0,0,1-1.191-.453,4.765,4.765,0,0,1-1.148,1.369,11.96,11.96,0,0,1-3.765,1.662,10.632,10.632,0,0,0-1.444.6,6.964,6.964,0,0,0-3.227,3.6c-.878,2.241-.562,4.868-1.718,6.979a1.7,1.7,0,0,1-.627.714,1.815,1.815,0,0,1-1.021.131c-1.551-.129-3.055-.629-4.607-.75-1.893-.148-3.9.255-5.633-.509A6.989,6.989,0,0,1,7.6,30.208a15.24,15.24,0,0,1-1.691-4.217,2.988,2.988,0,0,1-.3-5.951c.05-.687.1-1.375.1-2.063.013-2.007-.287-4.156.276-6.017A2.714,2.714,0,0,1,4.29,11.7a2.329,2.329,0,0,1-.69-.55,19.972,19.972,0,0,0,6.52,26.62,1.637,1.637,0,0,1,.18-.48,2.744,2.744,0,0,1,4-.76,3.416,3.416,0,0,1,1.56,3.8A19.792,19.792,0,0,0,21,41a20.987,20.987,0,0,0,2.11-.11A19.98,19.98,0,0,1,40.89,23.11,20.987,20.987,0,0,0,41,21C41,20.4,40.96,19.8,40.91,19.21Z" style="fill:#854620"/><path d="M31.48,17.64a7.787,7.787,0,0,1-1.64-2.31c-.68-1.6-.52-3.45-1.18-5.06A12.043,12.043,0,0,0,26.3,7.06a3.579,3.579,0,0,1-.83-1.28,2.416,2.416,0,0,1,.461-2.13A6.428,6.428,0,0,1,27.71,2.18c-.568-.2-1.148-.377-1.737-.531-.061.035-.125.062-.185.1A6,6,0,0,0,24.29,3a4.085,4.085,0,0,0-.349.475,5.032,5.032,0,0,0-.514,3.754,9.651,9.651,0,0,0,1.7,3.466,7.144,7.144,0,0,1,1.061,1.728,5.179,5.179,0,0,1,.221,1.758c-.01,1.865-.274,3.8.382,5.544a6.207,6.207,0,0,0,2.093,2.718,11.96,11.96,0,0,0,3.765-1.662A4.765,4.765,0,0,0,33.8,19.407,8.846,8.846,0,0,1,31.48,17.64Z" style="fill:#975024"/><path d="M5.708,17.977c0,.688-.053,1.376-.1,2.063A2.857,2.857,0,0,1,6,20a3,3,0,0,1,0,6c-.031,0-.061-.008-.092-.009A15.24,15.24,0,0,0,7.6,30.208a6.989,6.989,0,0,0,3.01,2.992c1.738.764,3.74.361,5.633.509,1.552.121,3.056.621,4.607.75a1.815,1.815,0,0,0,1.021-.131,1.7,1.7,0,0,0,.627-.714c1.156-2.111.84-4.738,1.718-6.979a6.964,6.964,0,0,1,3.227-3.6,10.632,10.632,0,0,1,1.444-.6,6.207,6.207,0,0,1-2.093-2.718c-.656-1.745-.392-3.679-.382-5.544a5.179,5.179,0,0,0-.221-1.758,7.144,7.144,0,0,0-1.061-1.728,9.651,9.651,0,0,1-1.7-3.466,5.032,5.032,0,0,1,.514-3.754A4.085,4.085,0,0,1,24.29,3a8.939,8.939,0,0,0-1.176-.251,9.408,9.408,0,0,0-6.29,1.345c-1.007.635-1.886,1.459-2.9,2.088C12.405,7.125,10.557,7.662,9,8.512A3.29,3.29,0,0,1,8.47,10.3a3.663,3.663,0,0,1-2.486,1.66C5.421,13.821,5.721,15.97,5.708,17.977ZM19,4a3,3,0,1,1-3,3A3,3,0,0,1,19,4ZM7.929,15.205a4.462,4.462,0,0,1,1.317-2.787,5.505,5.505,0,0,1,1.881-1.076,12.408,12.408,0,0,1,7.043-.324c1.8.417,4.362,1.21,5.718,2.54a2.076,2.076,0,0,1,.465,1.777,2.991,2.991,0,1,1-3.244,4.979,3.756,3.756,0,0,0-.735,1.273,5.8,5.8,0,0,0-.129,2.055q.088,1.578.179,3.156a3.49,3.49,0,0,1-.5,2.508,3.022,3.022,0,0,1-1.474.817,7.4,7.4,0,0,1-2.115.356,6.1,6.1,0,0,1-4.266-1.863A8.143,8.143,0,0,1,9.95,24.409c-.2-1.056-.227-2.145-.5-3.184-.266-1.008-.757-1.941-1.1-2.926A7.139,7.139,0,0,1,7.929,15.205Z" style="fill:#ca7937"/><path d="M9.992,17.951c.263.884.212,1.932.86,2.589a2.224,2.224,0,0,0,1.522.577,1.266,1.266,0,0,0,.987-.3,1.389,1.389,0,0,0,.273-.547,8.468,8.468,0,0,0,.374-2.245,2.626,2.626,0,0,0-.1-.943,4.132,4.132,0,0,0-3.468-2.226C8.7,15.03,9.7,16.956,9.992,17.951Z" style="fill:#efc078"/><path d="M48.218,36.5a1.1,1.1,0,0,0-.443.435.678.678,0,0,0-.024.606.95.95,0,0,0,.317.329,3.115,3.115,0,0,0,1.605.569.8.8,0,0,0,.555-.122,1.064,1.064,0,0,0-.078-1.579A1.66,1.66,0,0,0,48.218,36.5Z" style="fill:#efc078"/><path d="M39.808,50.416a1.213,1.213,0,0,0-.548.217.516.516,0,0,0-.192.527.782.782,0,0,0,.212.3,5.473,5.473,0,0,0,1.523,1.21,5.332,5.332,0,0,0,2.205.344,1.478,1.478,0,0,0,.756-.127.864.864,0,0,0,.31-1.087c-.27-.578-1.108-.746-1.648-.971A4.4,4.4,0,0,0,39.808,50.416Z" style="fill:#efc078"/><path d="M46.032,51.432a1.056,1.056,0,0,0-.7.3,3.126,3.126,0,0,0-.486.61c-.164.245-.33.569-.166.814a.636.636,0,0,0,.227.187,4.4,4.4,0,0,0,1.561.426,1.035,1.035,0,0,0,.59-.03.729.729,0,0,0,.242-.2C48.127,52.535,47.12,51.449,46.032,51.432Z" style="fill:#efc078"/><path d="M19.167,11.935a3.453,3.453,0,0,0-1.26-.208L17.3,11.7a2.675,2.675,0,0,0-1.1.11.914.914,0,0,0-.62.835.869.869,0,0,0,.364.617,1.97,1.97,0,0,0,.671.3,9.122,9.122,0,0,0,2.018.272,1.963,1.963,0,0,0,.961-.124C20.471,13.283,19.8,12.213,19.167,11.935Z" style="fill:#efc078"/><path d="M35.042,54.175c-1.126-.494-2.412-.477-3.58-.865a12.645,12.645,0,0,1-3.186-1.89.55.55,0,0,0-.247-.118.429.429,0,0,0-.392.265,1.243,1.243,0,0,0,.585,1.52,5.256,5.256,0,0,0,1.708.508,7.575,7.575,0,0,1,2.478,1.032c.967.625,4.011,4.072,5.334,3.377C39.135,57.274,35.671,54.451,35.042,54.175Z" style="fill:#9d5427"/><path d="M46.928,26.147a22.4,22.4,0,0,0-6.146.034c-.275.027-.618.113-.664.385-.052.309.329.5.636.558,1.476.3,3,.21,4.5.4a12.285,12.285,0,0,1,4.1,1.262c.534.274,1.885,1.256,2.521,1.019s-.116-1-.428-1.341A7.972,7.972,0,0,0,46.928,26.147Z" style="fill:#b6713a"/><path d="M59,47.339a1.639,1.639,0,0,0-.734.832,8.221,8.221,0,0,1-1.143,2.185c-.567.6-1.442.893-1.853,1.606a.5.5,0,0,0-.081.372.49.49,0,0,0,.208.249,1.587,1.587,0,0,0,1.739.021,3.03,3.03,0,0,0,.683-.7c.292-.378.58-.761.906-1.111.4-.433.865-.816,1.224-1.287a2.207,2.207,0,0,0,.515-1.65c-.046-.279-.2-.6-.511-.626A2.2,2.2,0,0,0,59,47.339Z" style="fill:#9d5427"/><path d="M33.891,36.189a11.3,11.3,0,0,0-.17,1.446,8.854,8.854,0,0,1-1.048,2.042.489.489,0,0,0-.065.367.5.5,0,0,0,.188.214,7.185,7.185,0,0,0,.874.568,1.537,1.537,0,0,0,.693.233,1.365,1.365,0,0,0,1.109-.775,11.975,11.975,0,0,1,.671-1.25,9.193,9.193,0,0,1,1.244-1.1,1.515,1.515,0,0,0,.58-1.464C37.516,35,34.445,34.585,33.891,36.189Z" style="fill:#efc078"/><path d="M59.116,38.283a1.291,1.291,0,0,0-.51-.551,1.35,1.35,0,0,0-.76-.036l-2.152.312a.475.475,0,0,0-.149.039c-.187.1-.158.378-.058.563.6,1.117,2.476,1.048,3,2.2.356.79-.112,1.815.368,2.537a1.141,1.141,0,0,0,1.032.5C62.168,43.641,59.677,39.221,59.116,38.283Z" style="fill:#9d5427"/><path d="M47.62,48.071a1.01,1.01,0,0,0-.388-.136,6.309,6.309,0,0,0-1.2-.11,1.738,1.738,0,0,0-.661.1.994.994,0,0,0-.59.736.934.934,0,0,0,.34.874,1.548,1.548,0,0,0,.536.237,6.239,6.239,0,0,0,1.68.234.705.705,0,0,0,.22-.024.767.767,0,0,0,.382-.4,1.4,1.4,0,0,0,.235-.645A1.746,1.746,0,0,0,47.62,48.071Z" style="fill:#efc078"/><path d="M53.879,39.177a2.484,2.484,0,0,0-1.357-.4,3.173,3.173,0,0,0-1.8.383,1.765,1.765,0,0,0-.892,1.533A2.411,2.411,0,0,0,50.7,42.22a7.58,7.58,0,0,0,2.082,1.411,1.927,1.927,0,0,0,1.832.09,1.473,1.473,0,0,0,.4-1.744c-.193-.488-.617-.936-.649-1.477S54.411,39.563,53.879,39.177Z" style="fill:#efc078"/><path d="M40,47a4,4,0,1,0-4-4A4,4,0,0,0,40,47Zm0-6a2,2,0,1,1-2,2A2,2,0,0,1,40,41Z"/><path d="M53,44a4,4,0,1,0,4,4A4,4,0,0,0,53,44Zm0,6a2,2,0,1,1,2-2A2,2,0,0,1,53,50Z"/><path d="M54,30a4,4,0,1,0,4,4A4,4,0,0,0,54,30Zm0,6a2,2,0,1,1,2-2A2,2,0,0,1,54,36Z"/><path d="M42,31a4,4,0,1,0-4,4A4,4,0,0,0,42,31Zm-6,0a2,2,0,1,1,2,2A2,2,0,0,1,36,31Z"/><path d="M26,49a4,4,0,1,0,4-4A4,4,0,0,0,26,49Zm6,0a2,2,0,1,1-2-2A2,2,0,0,1,32,49Z"/><path d="M12,27a4,4,0,1,0,4-4A4,4,0,0,0,12,27Zm4-2a2,2,0,1,1-2,2A2,2,0,0,1,16,25Z"/><path d="M23,22a4,4,0,1,0-4-4A4,4,0,0,0,23,22Zm0-6a2,2,0,1,1-2,2A2,2,0,0,1,23,16Z"/><path d="M19,11a4,4,0,1,0-4-4A4,4,0,0,0,19,11Zm0-6a2,2,0,1,1-2,2A2,2,0,0,1,19,5Z"/><path d="M39.374,11.683c-.368-.649-1.14-2-2.53-1.622a7.935,7.935,0,0,0-2.074,1.058c-.293.186-.577.368-.834.5a1.773,1.773,0,0,0-.644.513A1.588,1.588,0,0,0,33,13.143a4.273,4.273,0,0,0,1.974,3.067A2.9,2.9,0,0,0,36.761,17a1.871,1.871,0,0,0,.387-.04,2.41,2.41,0,0,0,1.148-.644,6.521,6.521,0,0,0,1.318-1.681,2.59,2.59,0,0,0,.371-1.55,2.678,2.678,0,0,0-.444-1.116C39.487,11.882,39.432,11.784,39.374,11.683Zm-1.515,1.994a4.545,4.545,0,0,1-.917,1.168c-.13.12-.186.151-.175.155-.052-.007-.187-.061-.528-.339a3.6,3.6,0,0,1-1.2-1.362c.254-.143.526-.315.806-.492a8.386,8.386,0,0,1,1.386-.772,4.754,4.754,0,0,1,.406.636c.071.124.139.244.206.351a1.693,1.693,0,0,1,.159.3A.882.882,0,0,1,37.859,13.677Z"/><path d="M37.724,9.58A2.89,2.89,0,0,0,39.1,10a1.727,1.727,0,0,0,.855-.22A2.08,2.08,0,0,0,40.925,8.3a2.793,2.793,0,0,0-1.059-2.98,2.492,2.492,0,0,0-2.695.154A2.214,2.214,0,0,0,36,7.413,2.789,2.789,0,0,0,37.724,9.58ZM38.3,7.132h0a.58.58,0,0,1,.524-.1.936.936,0,0,1,.15.861c-.006.026-.011.049-.017.069a2.328,2.328,0,0,1-.255-.125,2.387,2.387,0,0,1-.659-.49A1.481,1.481,0,0,1,38.3,7.132Z"/><path d="M31.018,7.5a2.872,2.872,0,0,0,1.635.5,3.443,3.443,0,0,0,2.5-1.133,2.972,2.972,0,0,0,.846-1.833,3.832,3.832,0,0,0-.484-1.9,3.784,3.784,0,0,0-.773-1.187C33.562.831,32.052.7,30.253,1.551a2.1,2.1,0,0,0-.947.751,2.194,2.194,0,0,0-.3,1.372,5.572,5.572,0,0,0,.768,2.388A4.143,4.143,0,0,0,31.018,7.5Zm.065-4.132.02-.009c1.3-.62,1.872-.328,2.256.037a2.373,2.373,0,0,1,.344.593,2.3,2.3,0,0,1,.3.919,1.038,1.038,0,0,1-.313.6,1.251,1.251,0,0,1-1.54.347,2.328,2.328,0,0,1-.633-.782A3.593,3.593,0,0,1,31,3.547c0-.061,0-.106,0-.138Z"/><path d="M64,43c0-.7-.035-1.408-.1-2.1l-1.99.2c.062.625.094,1.265.094,1.9a18.82,18.82,0,0,1-4.661,12.444,3.354,3.354,0,0,0-1.164-1.031,4.328,4.328,0,0,0-5.486,1.753,4.161,4.161,0,0,0-.563,3.276,3.442,3.442,0,0,0,.446.972A18.939,18.939,0,0,1,43,62a18.685,18.685,0,0,1-8.088-1.819,4.483,4.483,0,0,0-2.078-4.492,4.156,4.156,0,0,0-3.276-.563,3.486,3.486,0,0,0-.841.362A18.854,18.854,0,0,1,24,43c0-.646.035-1.322.1-2.006A19.053,19.053,0,0,1,40.991,24.105,19.915,19.915,0,0,1,43,24,19.006,19.006,0,0,1,60.42,35.4l1.833-.8A21,21,0,0,0,43,22c-.336,0-.68.01-1.027.027C41.99,21.68,42,21.336,42,21c0-.677-.047-1.327-.093-1.874a1,1,0,0,0-1.176-.9c-.536.1-1.057.217-1.569.335a8.708,8.708,0,0,1-3.944.325,6.368,6.368,0,0,1-3.02-1.942,6.717,6.717,0,0,1-1.438-2,9.5,9.5,0,0,1-.533-2.314,11.433,11.433,0,0,0-.643-2.738,11.269,11.269,0,0,0-2.231-3.151l-.308-.342a2.825,2.825,0,0,1-.615-.9,1.469,1.469,0,0,1,.026-.75c.078-.291.411-.9,1.767-1.71a1,1,0,0,0-.177-1.8A20.835,20.835,0,0,0,7.305,5.108,4.47,4.47,0,0,0,2.689,7.166a4.161,4.161,0,0,0-.563,3.276,3.5,3.5,0,0,0,.314.765A20.929,20.929,0,0,0,9.022,38.226a4.552,4.552,0,0,0,2.144,4.085A4.338,4.338,0,0,0,13.472,43a3.763,3.763,0,0,0,.97-.126,3.377,3.377,0,0,0,1.94-1.391,20.871,20.871,0,0,0,3.569.492l.1-2a18.852,18.852,0,0,1-3.069-.431,4.572,4.572,0,0,0-2.146-3.857,4.161,4.161,0,0,0-3.276-.563,3.39,3.39,0,0,0-1.8,1.179,18.867,18.867,0,0,1-7.418-11.7,4.017,4.017,0,1,0-.284-2.182C2.023,21.952,2,21.478,2,21a18.924,18.924,0,0,1,1.948-8.367,3.609,3.609,0,0,0,1.563.361,4.593,4.593,0,0,0,3.8-2.16,4.161,4.161,0,0,0,.563-3.276,3.413,3.413,0,0,0-.75-1.383A18.972,18.972,0,0,1,25.546,2.567a3.761,3.761,0,0,0-1.023,1.669,3.437,3.437,0,0,0-.009,1.836,4.48,4.48,0,0,0,1.039,1.653l.313.349a9.625,9.625,0,0,1,1.869,2.575,9.862,9.862,0,0,1,.514,2.268,11.163,11.163,0,0,0,.67,2.805,8.613,8.613,0,0,0,1.843,2.614,8.262,8.262,0,0,0,4,2.5,10.453,10.453,0,0,0,4.847-.323l.378-.087c.008.19.012.383.012.577,0,.4-.038.824-.065,1.242A21.059,21.059,0,0,0,22.115,40.79,22.123,22.123,0,0,0,22,43a20.847,20.847,0,0,0,5.357,13.968A4.476,4.476,0,0,0,31.472,63a3.763,3.763,0,0,0,.97-.126,3.4,3.4,0,0,0,1.553-.916A20.665,20.665,0,0,0,43,64a20.9,20.9,0,0,0,9.351-2.216,3.669,3.669,0,0,0,1.16.21,4.593,4.593,0,0,0,3.8-2.16,4.331,4.331,0,0,0,.664-2.138A20.813,20.813,0,0,0,64,43ZM11.182,37.758a1.386,1.386,0,0,1,.892-.7A1.786,1.786,0,0,1,12.532,37a2.337,2.337,0,0,1,1.234.379,2.338,2.338,0,0,1,1.052,2.863,1.386,1.386,0,0,1-.892.7,2.181,2.181,0,0,1-1.692-.321A2.338,2.338,0,0,1,11.182,37.758ZM6,21a2,2,0,1,1-2,2A2,2,0,0,1,6,21ZM7.621,9.766a2.338,2.338,0,0,1-2.863,1.052,1.386,1.386,0,0,1-.7-.892,2.169,2.169,0,0,1,.321-1.692A2.594,2.594,0,0,1,6.475,7a1.637,1.637,0,0,1,.767.182,1.386,1.386,0,0,1,.7.892A2.169,2.169,0,0,1,7.621,9.766Zm25.2,50.476a1.386,1.386,0,0,1-.892.7,2.177,2.177,0,0,1-1.692-.321,2.338,2.338,0,0,1-1.052-2.863,1.386,1.386,0,0,1,.892-.7A1.786,1.786,0,0,1,30.532,57a2.492,2.492,0,0,1,2.286,3.242Zm22.8-1.476a2.338,2.338,0,0,1-2.863,1.052,1.386,1.386,0,0,1-.7-.892,2.169,2.169,0,0,1,.321-1.692A2.594,2.594,0,0,1,54.475,56a1.637,1.637,0,0,1,.767.182,1.386,1.386,0,0,1,.7.892A2.169,2.169,0,0,1,55.621,58.766Z"/><path d="M61.62,39.2l1.96-.4a20.745,20.745,0,0,0-.541-2.1l-1.908.6A18.751,18.751,0,0,1,61.62,39.2Z"/></g></svg>