<svg xmlns="http://www.w3.org/2000/svg" viewBox="0 0 64 64"><g id="_04-cupcake" data-name="04-cupcake"><path d="M24.52,15a10.329,10.329,0,0,0,.81,1.04c-.63.09-1.22.2-1.79.34A2.87,2.87,0,0,0,24,15Z" style="fill:#d07232"/><path d="M57,49c3.31,0,6,1.79,6,4s-2.69,4-6,4c-2.45,0-4.56-.98-5.49-2.38C54.94,53.09,57,51.13,57,49Z" style="fill:#d07232"/><path d="M57,39v3a4.743,4.743,0,0,1-1.96,3.5c-2.05,1.75-5.59,3.21-10.05,4.18A1.087,1.087,0,0,0,45,49.5V41.68c.27-.06.54-.12.8-.18A24.728,24.728,0,0,0,54.39,38a9.564,9.564,0,0,0,1.11-.93A2,2,0,0,1,57,39Z" style="fill:#dba14f"/><path d="M57,33.5V34a4.347,4.347,0,0,1-1.5,3.07,9.564,9.564,0,0,1-1.11.93,24.728,24.728,0,0,1-8.59,3.5c-.26.06-.53.12-.8.18V33.5A1.5,1.5,0,0,1,46.5,32h2A1.5,1.5,0,0,1,50,33.5a3.5,3.5,0,0,0,7,0Z" style="fill:#f2ce92"/><path d="M57,28v5.5a3.5,3.5,0,0,1-7,0A1.5,1.5,0,0,0,48.5,32h-2A1.5,1.5,0,0,0,45,33.5v16a1.087,1.087,0,0,1-.01.18,3.424,3.424,0,0,1-1.02,2.29A3.46,3.46,0,0,1,41.5,53,3.514,3.514,0,0,1,38,49.5V40.28a5.282,5.282,0,0,0-8.67-4.05,23.146,23.146,0,0,0-5.31,6.3,22.172,22.172,0,0,0-2.71,7.6A23.706,23.706,0,0,0,21,54v3.08A63.525,63.525,0,0,0,32,58c1.01,0,2.01-.02,3-.07V58c0,2.76-4.92,5-11,5-4.74,0-8.77-1.36-10.32-3.27A4.758,4.758,0,0,0,10,58c-5.8,0-9-2.46-9-5.5,0-2.27,2.63-4.23,6.38-5.06h.01A5.97,5.97,0,0,1,8.96,45.5,4.743,4.743,0,0,1,7,42V22c0,4.97,11.19,9,25,9s25-4.03,25-9ZM15,55.59V45.5a2.5,2.5,0,1,0-5,0v7.78A20.859,20.859,0,0,0,15,55.59Z" style="fill:#d07232"/><path d="M57,49c0,2.13-2.06,4.09-5.49,5.62-3.99,1.8-9.85,3.03-16.51,3.31-.99.05-1.99.07-3,.07a63.525,63.525,0,0,1-11-.92V54a23.706,23.706,0,0,1,.31-3.87A63.3,63.3,0,0,0,32,51c2.15,0,4.23-.1,6.22-.29A3.5,3.5,0,0,0,41.5,53a3.46,3.46,0,0,0,2.47-1.03,3.424,3.424,0,0,0,1.02-2.29c4.46-.97,8-2.43,10.05-4.18A4.743,4.743,0,0,1,57,49Z" style="fill:#f2ce92"/><path d="M43.27,13.97C51.42,15.45,57,18.49,57,22c0,4.97-11.19,9-25,9S7,26.97,7,22c0-3.44,5.36-6.43,13.23-7.94a2.664,2.664,0,0,0,.78,3.15c-1.87.83-3.01,1.95-3.01,3.17C18,22.93,22.92,25,29,25c5.16,0,9.5-1.49,10.68-3.51a3.546,3.546,0,0,1,1.6-1.51c1.65-.71,2.72-1.99,2.72-3.29a2.863,2.863,0,0,0-1.21-2.21A5.789,5.789,0,0,0,43.27,13.97Z" style="fill:#f09954"/><path d="M31,18.94V8.22A7.967,7.967,0,0,0,29.86,4.1L28.44,1.74A8.827,8.827,0,0,1,32,1c4.97,0,13,4.03,13,9a6.041,6.041,0,0,1-1.73,3.97,5.789,5.789,0,0,1-.48.51A2.863,2.863,0,0,1,44,16.69c0,1.3-1.07,2.58-2.72,3.29a3.546,3.546,0,0,0-1.6,1.51C38.5,23.51,34.16,25,29,25c-6.08,0-11-2.07-11-4.62,0-1.22,1.14-2.34,3.01-3.17A6.586,6.586,0,0,0,22,18a5.692,5.692,0,0,0,1.54-1.62c.57-.14,1.16-.25,1.79-.34A8.925,8.925,0,0,0,31,18.94Zm8-1.82V12a2.015,2.015,0,0,0-2-2,2.006,2.006,0,0,0-2,2v6.6A18.281,18.281,0,0,0,39,17.12Z" style="fill:#56271d"/><path d="M39,12v5.12a18.281,18.281,0,0,1-4,1.48V12a2.006,2.006,0,0,1,2-2,2.015,2.015,0,0,1,2,2Z" style="fill:#bd111f"/><path d="M38,49.5a3.506,3.506,0,0,0,.22,1.21c-1.99.19-4.07.29-6.22.29a63.3,63.3,0,0,1-10.69-.87,22.172,22.172,0,0,1,2.71-7.6A65.375,65.375,0,0,0,32,43c2.07,0,4.08-.09,6-.26Z" style="fill:#dba14f"/><path d="M38,40.28v2.46c-1.92.17-3.93.26-6,.26a65.375,65.375,0,0,1-7.98-.47,23.146,23.146,0,0,1,5.31-6.3A5.274,5.274,0,0,1,38,40.28Z" style="fill:#f2ce92"/><path d="M31,15.85v3.09a8.925,8.925,0,0,1-5.67-2.9A10.329,10.329,0,0,1,24.52,15,8.992,8.992,0,0,1,28.44,1.74L29.86,4.1A7.967,7.967,0,0,1,31,8.22v7.63Z" style="fill:#de3c31"/><path d="M24,5h.52A8.94,8.94,0,0,0,23,10a3.636,3.636,0,0,0-2.73-3.79C19.13,3.91,22,2,22,2,23.56,3.04,24.04,4.08,24,5Z" style="fill:#6d8513"/><path d="M24.52,15H24a2.87,2.87,0,0,1-.46,1.38A5.692,5.692,0,0,1,22,18a6.586,6.586,0,0,1-.99-.79,2.664,2.664,0,0,1-.78-3.15c.05-.11.1-.21.15-.31A3.61,3.61,0,0,0,23,10,8.94,8.94,0,0,0,24.52,15Z" style="fill:#6d8513"/><path d="M20.27,6.21A3.636,3.636,0,0,1,23,10s-4,0-4-4A4.963,4.963,0,0,1,20.27,6.21Z" style="fill:#9eab3f"/><path d="M19,14c0-4,4-4,4-4a3.61,3.61,0,0,1-2.62,3.75A4.9,4.9,0,0,1,19,14Z" style="fill:#9eab3f"/><path d="M15,48.6v6.99a20.859,20.859,0,0,1-5-2.31v-7A21.437,21.437,0,0,0,15,48.6Z" style="fill:#f2ce92"/><path d="M15,45.5v3.1a21.437,21.437,0,0,1-5-2.32V45.5a2.5,2.5,0,0,1,5,0Z" style="fill:#dba14f"/><path d="M42,36V49a3.987,3.987,0,0,1-2.2,3.552,3.46,3.46,0,0,0,4.166-.582,3.424,3.424,0,0,0,1.02-2.29A1.087,1.087,0,0,0,45,49.5v-16A1.5,1.5,0,0,1,46.5,32H46A4,4,0,0,0,42,36Z" style="fill:#de7e3c"/><path d="M60,52a3.573,3.573,0,0,0-1.931-2.933A8.891,8.891,0,0,0,57,49c0,2.13-2.06,4.09-5.49,5.62a4.537,4.537,0,0,0,1.412,1.308A8.829,8.829,0,0,0,54,56C57.31,56,60,54.21,60,52Z" style="fill:#ad5f2a"/><path d="M21.39,19.293a8.82,8.82,0,0,0,4.364,2.469A8.694,8.694,0,0,0,30,22h.008a1.45,1.45,0,0,0,1.134-1.745A2.735,2.735,0,0,1,31,19v-.06a8.925,8.925,0,0,1-5.67-2.9c-.63.09-1.22.2-1.79.34A5.692,5.692,0,0,1,22,18a6.586,6.586,0,0,1-.99-.79,9.217,9.217,0,0,0-1.163.617,3.262,3.262,0,0,1,.285.167A10.588,10.588,0,0,1,21.39,19.293Z" style="fill:#3b1a13"/><path d="M39,12a2.015,2.015,0,0,0-2-2,2.006,2.006,0,0,0-2,2v.009a3.089,3.089,0,0,1,3,3.085v2.5q.507-.22,1-.472Z" style="fill:#8d0513"/><path d="M28.44,1.74a8.774,8.774,0,0,0-2.23,1.378L27.651,5.64A10.232,10.232,0,0,1,29,10.719v1.669a2,2,0,0,1-2.719,1.869,11.219,11.219,0,0,1-2.874-1.581A8.973,8.973,0,0,0,24.52,15a10.329,10.329,0,0,0,.81,1.04A8.925,8.925,0,0,0,31,18.94V8.22A7.967,7.967,0,0,0,29.86,4.1Z" style="fill:#bd111f"/><path d="M14.219,18.48a6.245,6.245,0,0,1-.309,1.752,5.428,5.428,0,0,0,2.5,5.226,13.789,13.789,0,0,0,5.888,2.008A45.662,45.662,0,0,0,36.7,27.389c1.8-.3,3.769-.824,4.753-2.309.438-.66.635-1.455,1.117-2.086,1.282-1.677,4.163-1.729,5.224-3.544a3.41,3.41,0,0,0-.364-3.571,6.694,6.694,0,0,0-1.176-1.268q-1.425-.357-2.985-.641a5.789,5.789,0,0,1-.48.51A2.863,2.863,0,0,1,44,16.69c0,1.3-1.07,2.58-2.72,3.29a3.546,3.546,0,0,0-1.6,1.51C38.5,23.51,34.16,25,29,25c-6.08,0-11-2.07-11-4.62,0-1.22,1.14-2.34,3.01-3.17a2.664,2.664,0,0,1-.78-3.15,34.94,34.94,0,0,0-7.982,2.429c.031.008.062.01.092.019A2.517,2.517,0,0,1,14.219,18.48Z" style="fill:#d07232"/><path d="M41.28,19.98a3.546,3.546,0,0,0-1.6,1.51C38.5,23.51,34.16,25,29,25c-5.257,0-9.64-1.549-10.732-3.616a2.125,2.125,0,0,0-.268,1C18,24.93,22.92,27,29,27c5.16,0,9.5-1.49,10.68-3.51a3.546,3.546,0,0,1,1.6-1.51c1.65-.71,2.72-1.99,2.72-3.29a2.373,2.373,0,0,0-.228-.968A4.632,4.632,0,0,1,41.28,19.98Z" style="fill:#b04600"/><path d="M49.138,28.549c.063.019.126.034.187.058a6.7,6.7,0,0,1,1.121.7,2.7,2.7,0,0,0,3.27.038c.244-.241.532-.585.848-.453.25.105.291.434.3.7l.033,2.125a6.152,6.152,0,0,1-.724,3.69,3.976,3.976,0,0,1-1.88,1.361A3.5,3.5,0,0,0,57,33.5V22C57,24.582,53.976,26.908,49.138,28.549Z" style="fill:#de7e3c"/><path d="M24.9,36.983a13.372,13.372,0,0,0-5.523,7.948c-.474,2-.475,4.087-.822,6.116a15.186,15.186,0,0,1-1,3.19c-.381.94-1.262,1.157-1.862,1.916a.472.472,0,0,0-.119.248.5.5,0,0,0,.062.244,2.763,2.763,0,0,0,1.7,1.346,3.8,3.8,0,0,0,3.013-.166,1.625,1.625,0,0,0,.675-.741l-.024,0V54a23.706,23.706,0,0,1,.31-3.87,22.172,22.172,0,0,1,2.71-7.6,23.146,23.146,0,0,1,5.31-6.3,5.392,5.392,0,0,1,2.189-1.073,12.85,12.85,0,0,0-3.928.5A10.653,10.653,0,0,0,24.9,36.983Z" style="fill:#de7e3c"/><path d="M51.491,41.716A42.159,42.159,0,0,0,55.6,40.107a8.725,8.725,0,0,0,1.4-.888V39a2,2,0,0,0-1.5-1.93,9.564,9.564,0,0,1-1.11.93,24.728,24.728,0,0,1-8.59,3.5c-.26.06-.53.12-.8.18V43.5a11.789,11.789,0,0,0,1.932-.162A25.935,25.935,0,0,0,51.491,41.716Z" style="fill:#b57629"/><path d="M48.841,46.781A21.5,21.5,0,0,1,45,47.562V49.5a1.087,1.087,0,0,1-.01.18c4.46-.97,8-2.43,10.05-4.18A4.743,4.743,0,0,0,57,42v-.327l-4.6,3.114A16.14,16.14,0,0,1,48.841,46.781Z" style="fill:#b57629"/><path d="M36.546,44.331c.487-.067.971-.154,1.454-.245V42.74c-1.92.17-3.93.26-6,.26a65.375,65.375,0,0,1-7.98-.47c-.273.469-.531.969-.78,1.484C27.64,43.963,32.157,44.934,36.546,44.331Z" style="fill:#b57629"/><path d="M30.992,49.252c-1.424.071-2.838.295-4.264.334a32.909,32.909,0,0,1-5.214-.413c-.067.32-.15.625-.2.957A63.3,63.3,0,0,0,32,51c2.15,0,4.23-.1,6.22-.29A3.506,3.506,0,0,1,38,49.5v-.361C35.681,49.427,33.327,49.135,30.992,49.252Z" style="fill:#b57629"/><path d="M51.03,35.97A3.46,3.46,0,0,1,50,33.5,1.5,1.5,0,0,0,48.5,32h-2A1.5,1.5,0,0,0,45,33.5V34h1.5A1.5,1.5,0,0,1,48,35.5a3.495,3.495,0,0,0,6.757,1.257,3.444,3.444,0,0,1-3.727-.787Z" style="fill:#b57629"/><path d="M38.22,50.71c-.724.069-1.473.113-2.22.157V51.5A3.514,3.514,0,0,0,39.5,55a3.46,3.46,0,0,0,2.47-1.03,3.416,3.416,0,0,0,.781-1.212A3.456,3.456,0,0,1,41.5,53,3.5,3.5,0,0,1,38.22,50.71Z" style="fill:#b57629"/><path d="M38,49.5V42.74c-.652.058-1.328.093-2,.132v7.995c.747-.044,1.5-.088,2.22-.157A3.506,3.506,0,0,1,38,49.5Z" style="fill:#9c5f16"/><path d="M30.72,37A5.258,5.258,0,0,1,36,42.28v.592c.672-.039,1.348-.074,2-.132V40.28a5.282,5.282,0,0,0-8.67-4.05,22.555,22.555,0,0,0-2.564,2.481c.2-.174.386-.335.564-.481A5.329,5.329,0,0,1,30.72,37Z" style="fill:#b57629"/><path d="M13,50.6v4.237c.631.263,1.289.518,2,.753V48.6c-.712-.239-1.37-.5-2-.761Z" style="fill:#b57629"/><path d="M12.5,43a2.479,2.479,0,0,0-2.454,2.046A2.478,2.478,0,0,1,13,47.5v.339c.63.265,1.288.522,2,.761V45.5A2.5,2.5,0,0,0,12.5,43Z" style="fill:#9c5f16"/><path d="M32.574,4.125a2.176,2.176,0,0,1,2,.938,22.778,22.778,0,0,0,1.381,1.863C37.1,8.07,38.887,8.215,40.51,8.25a1.605,1.605,0,0,1,.978.235,1.265,1.265,0,0,1,.344.488,16.717,16.717,0,0,1,.636,3.191,1.319,1.319,0,0,0,.413.783,1.247,1.247,0,0,0,.719.2c.108,0,.217-.009.326-.016A5.522,5.522,0,0,0,45,10c0-4.97-8.03-9-13-9a8.827,8.827,0,0,0-3.56.74L29.86,4.1a7.749,7.749,0,0,1,.451.879,3.325,3.325,0,0,0,1.175-.335A4.579,4.579,0,0,1,32.574,4.125Z" style="fill:#70382c"/><path d="M51.644,19.064a2.626,2.626,0,0,0-2.173.371,2.765,2.765,0,0,0-.58,1.21,6.378,6.378,0,0,1-1.465,2.418c-.936.974-2.192,1.692-2.935,2.8a.573.573,0,0,0-.135.436c.05.2.289.31.5.378a7.476,7.476,0,0,0,7.957-2.4,12.476,12.476,0,0,0,1.213-2.157C54.973,20.137,53.708,19.348,51.644,19.064Z" style="fill:#ffb478"/><path d="M41.74,26.974c-.532.109-1.019.377-1.54.531-.824.243-1.709.192-2.545.389a.6.6,0,0,0-.457.3c-.092.234.118.479.339.6a2.691,2.691,0,0,0,1.075.257,10.3,10.3,0,0,0,3.281-.278C43.425,28.383,43.548,26.6,41.74,26.974Z" style="fill:#ffb478"/><path d="M10.644,18.83a2.832,2.832,0,0,0-.834.611,3.7,3.7,0,0,0-1.045,1.525,2.226,2.226,0,0,0,2.03,2.861.451.451,0,0,0,.269-.05.459.459,0,0,0,.16-.338,4.165,4.165,0,0,1,.258-1.629c.466-.785,2.031-1.2,1.751-2.395C13.013,18.477,11.319,18.541,10.644,18.83Z" style="fill:#ffb478"/><path d="M62.053,51.616a1.867,1.867,0,0,0-.563-.6.533.533,0,0,0-.2-.042,1.454,1.454,0,0,0-.708.057c-.134.088-.173.344-.2.491a8.21,8.21,0,0,1-.4,2.014,2.423,2.423,0,0,1-.915,1.051c-.262.165-.556.279-.8.467a.408.408,0,0,0-.169.216.353.353,0,0,0,.153.339,1.308,1.308,0,0,0,1.036.136,5.222,5.222,0,0,0,1.81-.582,2.477,2.477,0,0,0,1.18-1.442,2.954,2.954,0,0,0,.072-.9A2.639,2.639,0,0,0,62.053,51.616Z" style="fill:#ffb478"/><path d="M9.836,49.664a1.512,1.512,0,0,0-.334-.972,1.109,1.109,0,0,0-.95-.236,6.816,6.816,0,0,0-.969.3c-1.116.355-2.372.246-3.406.794a3.685,3.685,0,0,0-1.648,1.995,2.208,2.208,0,0,0-.03,1.747,2.226,2.226,0,0,0,.937.867c1.511.842,2.878.537,4.443,0a6.113,6.113,0,0,0,1.042-.427A1.635,1.635,0,0,0,9.954,52.1C9.938,51.285,9.911,50.473,9.836,49.664Z" style="fill:#ad5f2a"/><path d="M8.292,39.125A2.843,2.843,0,0,0,10.444,40a1.633,1.633,0,0,0,1.068-.277c.289-.236.407-.6.677-.851.181-.168.407-.277.584-.453.505-.5.81-1.09,1.5-1.411a4.607,4.607,0,0,1,1.819-.208,13.4,13.4,0,0,0,3.268-.416,4.663,4.663,0,0,0,1.934-.889,1.8,1.8,0,0,0,.64-1.831,1.945,1.945,0,0,0-1-1.061,5.659,5.659,0,0,0-1.475-.451c-1.508-.3-3.042-.5-4.526-.9a5.073,5.073,0,0,1-3.077-1.931,2.933,2.933,0,0,0-1.8-1.307,1.855,1.855,0,0,0-1.433.461c-.774.687-.605,1.492-.605,2.389v3.128q0,2.155,0,4.309A1.322,1.322,0,0,0,8.292,39.125Z" style="fill:#de7e3c"/><path d="M25.8,32.805a3.2,3.2,0,0,0-1.548.77.641.641,0,0,0-.2.349.521.521,0,0,0,.273.481,1.489,1.489,0,0,0,.557.163,10.746,10.746,0,0,0,5-.134c1.54-.512.583-1.735-.554-1.995A8.413,8.413,0,0,0,25.8,32.805Z" style="fill:#de7e3c"/><path d="M17.218,55.444a1.368,1.368,0,0,0-.516,1.084,1.064,1.064,0,0,0,.541.745,2.74,2.74,0,0,0,.9.293,1.951,1.951,0,0,0,1.213-.05,1.662,1.662,0,0,0,.764-1.059,7.157,7.157,0,0,0,.245-1.676c.042-.717-.265-3.135-1.536-2.2-.48.354-.5.945-.612,1.47A2.735,2.735,0,0,1,17.218,55.444Z" style="fill:#ff9145"/><path d="M10.153,35.818c-.311-.311-.963-1.112-1.537-.708a.922.922,0,0,0-.284.381c-.335.715-.561,2.271.055,2.928a1.752,1.752,0,0,0,.9.424A6.323,6.323,0,0,0,11,38.994a1.256,1.256,0,0,0,.438-.081.949.949,0,0,0,.467-.647A1.368,1.368,0,0,0,11.9,37.24a2.624,2.624,0,0,0-.989-.815A4.568,4.568,0,0,1,10.153,35.818Z" style="fill:#ffb478"/><path d="M24.375,52.353a3.737,3.737,0,0,0-1.258.309.4.4,0,0,0-.239.239c-.054.238.268.367.51.392,2.093.215,4.2.278,6.3.341.39.011.894-.058.983-.438a.587.587,0,0,0-.323-.607,7.8,7.8,0,0,0-2.648-.3A18.119,18.119,0,0,0,24.375,52.353Z" style="fill:#e6ba71"/><path d="M22.77,55.581a1.471,1.471,0,0,0-.644.221.261.261,0,0,0-.123.172c-.027.17.137.262.262.28a31.7,31.7,0,0,0,3.226.245c.2.009.457-.041.5-.314a.479.479,0,0,0-.166-.436c-.322-.25-.99-.177-1.355-.215A6.609,6.609,0,0,0,22.77,55.581Z" style="fill:#e6ba71"/><path d="M34.611,55.134a5.814,5.814,0,0,0-2.879.47c-.14.067-.293.164-.314.318-.03.223.228.367.444.432a10.133,10.133,0,0,0,2.391.38,6.259,6.259,0,0,0,2.568-.039.62.62,0,0,0,.081-1.067C36.419,55.17,35.238,55.174,34.611,55.134Z" style="fill:#e6ba71"/><path d="M49.765,52.094c-.074.036-.158.082-.172.163-.027.162.214.207.375.179a10.819,10.819,0,0,0,5.6-2.414c.438-.41.32-.968-.317-1.063-.533-.08-1.092.439-1.489.72A27.66,27.66,0,0,1,49.765,52.094Z" style="fill:#e6ba71"/><path d="M48.545,52.986a.606.606,0,0,0-.377.161.427.427,0,0,0,.133.591,1.244,1.244,0,0,0,.653.164c.46.028,1.957.328,1.769-.5S49.059,52.9,48.545,52.986Z" style="fill:#e6ba71"/><path d="M49.545,48.986a.606.606,0,0,0-.377.161.427.427,0,0,0,.133.591,1.244,1.244,0,0,0,.653.164c.46.028,1.957.328,1.769-.5S50.059,48.9,49.545,48.986Z" style="fill:#e6ba71"/><path d="M31.029,53.919a.866.866,0,0,0-.659.187.229.229,0,0,0-.07.172c.011.1.108.161.2.2a3.057,3.057,0,0,0,1.358.188,1.048,1.048,0,0,0,.605-.155C33.353,53.829,31.228,53.918,31.029,53.919Z" style="fill:#e6ba71"/><path d="M35.709,52.518l-1.133-.077c-.18-.012-.4,0-.486.155a.324.324,0,0,0,.079.364.936.936,0,0,0,.344.194,2.006,2.006,0,0,0,.8.186.693.693,0,0,0,.645-.427.361.361,0,0,0-.034-.317.233.233,0,0,0-.29-.083" style="fill:#e6ba71"/><path d="M11.029,51.919a.866.866,0,0,0-.659.187.229.229,0,0,0-.07.172c.011.1.108.161.2.2a3.057,3.057,0,0,0,1.358.188,1.048,1.048,0,0,0,.605-.155C13.353,51.829,11.228,51.918,11.029,51.919Z" style="fill:#e6ba71"/><path d="M12.709,50.518l-1.133-.077c-.18-.012-.4,0-.486.155a.324.324,0,0,0,.079.364.936.936,0,0,0,.344.194,2.006,2.006,0,0,0,.8.186.693.693,0,0,0,.645-.427.361.361,0,0,0-.034-.317.233.233,0,0,0-.29-.083" style="fill:#e6ba71"/><path d="M53.709,47.518l-1.133-.077c-.18-.012-.4,0-.486.155a.324.324,0,0,0,.079.364.936.936,0,0,0,.344.194,2.006,2.006,0,0,0,.8.186.693.693,0,0,0,.645-.427.361.361,0,0,0-.034-.317.233.233,0,0,0-.29-.083" style="fill:#e6ba71"/><path d="M28.818,54.541a1.176,1.176,0,0,0-.478.086c-.043.019-.09.061-.071.1a.1.1,0,0,0,.049.042,2.659,2.659,0,0,0,1.156.288.3.3,0,0,0,.241-.075.222.222,0,0,0,.042-.13C29.77,54.458,29.086,54.536,28.818,54.541Z" style="fill:#e6ba71"/><path d="M10.818,47.541a1.176,1.176,0,0,0-.478.086c-.043.019-.09.061-.071.1a.1.1,0,0,0,.049.042,2.659,2.659,0,0,0,1.156.288.3.3,0,0,0,.241-.075.222.222,0,0,0,.042-.13C11.77,47.458,11.086,47.536,10.818,47.541Z" style="fill:#e6ba71"/><path d="M44.114,53.417a.954.954,0,0,0-.441.079.711.711,0,0,0-.317.643.521.521,0,0,0,.051.243.645.645,0,0,0,.562.242,7.709,7.709,0,0,0,2.152-.184.783.783,0,0,0,.492-.258C47.239,53.285,44.442,53.411,44.114,53.417Z" style="fill:#e6ba71"/><path d="M42.248,55c-.122.049-.262.185-.177.285a.2.2,0,0,0,.087.053c.36.139,1.879.539,1.827-.085C43.92,54.475,42.634,54.845,42.248,55Z" style="fill:#e6ba71"/><path d="M22.248,54c-.122.049-.262.185-.177.285a.2.2,0,0,0,.087.053c.36.139,1.879.539,1.827-.085C23.92,53.475,22.634,53.845,22.248,54Z" style="fill:#e6ba71"/><path d="M26.955,53.9a1.926,1.926,0,0,0-1.52.508c-.078.087-.144.222-.07.311a.27.27,0,0,0,.108.067,7.411,7.411,0,0,0,.737.261.5.5,0,0,0,.471-.027c.1-.09.116-.247.2-.353.177-.216.8-.089.85-.4C27.792,53.92,27.151,53.906,26.955,53.9Z" style="fill:#e6ba71"/><path d="M47.955,50.9a1.926,1.926,0,0,0-1.52.508c-.078.087-.144.222-.07.311a.27.27,0,0,0,.108.067,7.411,7.411,0,0,0,.737.261.5.5,0,0,0,.471-.027c.1-.09.116-.247.2-.353.177-.216.8-.089.85-.4C48.792,50.92,48.151,50.906,47.955,50.9Z" style="fill:#e6ba71"/><path d="M47.485,54.8c-.049.058-.092.15-.038.2a.156.156,0,0,0,.075.034,8.775,8.775,0,0,0,1,.2c.482.065,1.172-.193.63-.7A1.227,1.227,0,0,0,47.485,54.8Z" style="fill:#e6ba71"/><path d="M25.77,40.581a1.471,1.471,0,0,0-.644.221.261.261,0,0,0-.123.172c-.027.17.137.262.262.28a31.7,31.7,0,0,0,3.226.245c.2.009.457-.041.5-.314a.479.479,0,0,0-.166-.436c-.322-.25-.99-.177-1.355-.215A6.609,6.609,0,0,0,25.77,40.581Z" style="fill:#e6ba71"/><path d="M32.611,41.134a5.814,5.814,0,0,0-2.879.47c-.14.067-.293.164-.314.318-.03.223.228.367.444.432a10.133,10.133,0,0,0,2.391.38,6.259,6.259,0,0,0,2.568-.039.62.62,0,0,0,.081-1.067C34.419,41.17,33.238,41.174,32.611,41.134Z" style="fill:#e6ba71"/><path d="M31.029,38.919a.866.866,0,0,0-.659.187.229.229,0,0,0-.07.172c.011.1.108.161.2.2a3.057,3.057,0,0,0,1.358.188,1.048,1.048,0,0,0,.605-.155C33.353,38.829,31.228,38.918,31.029,38.919Z" style="fill:#e6ba71"/><path d="M28.818,39.541a1.176,1.176,0,0,0-.478.086c-.043.019-.09.061-.071.1a.1.1,0,0,0,.049.042,2.659,2.659,0,0,0,1.156.288.3.3,0,0,0,.241-.075.222.222,0,0,0,.042-.13C29.77,39.458,29.086,39.536,28.818,39.541Z" style="fill:#e6ba71"/><path d="M46.114,37.417a.954.954,0,0,0-.441.079.711.711,0,0,0-.317.643.521.521,0,0,0,.051.243.645.645,0,0,0,.562.242,7.709,7.709,0,0,0,2.152-.184.783.783,0,0,0,.492-.258C49.239,37.285,46.442,37.411,46.114,37.417Z" style="fill:#e6ba71"/><path d="M29.955,37.9a1.926,1.926,0,0,0-1.52.508c-.078.087-.144.222-.07.311a.27.27,0,0,0,.108.067,7.411,7.411,0,0,0,.737.261.5.5,0,0,0,.471-.027c.1-.09.116-.247.2-.353.177-.216.8-.089.85-.4C30.792,37.92,30.151,37.906,29.955,37.9Z" style="fill:#e6ba71"/><path d="M46.955,34.9a1.926,1.926,0,0,0-1.52.508c-.078.087-.144.222-.07.311a.27.27,0,0,0,.108.067,7.411,7.411,0,0,0,.737.261.5.5,0,0,0,.471-.027c.1-.09.116-.247.2-.353.177-.216.8-.089.85-.4C47.792,34.92,47.151,34.906,46.955,34.9Z" style="fill:#e6ba71"/><path d="M46.485,39.8c-.049.058-.092.15-.038.2a.156.156,0,0,0,.075.034,8.775,8.775,0,0,0,1,.2c.482.065,1.172-.193.63-.7A1.227,1.227,0,0,0,46.485,39.8Z" style="fill:#e6ba71"/><path d="M25.77,46.581a1.471,1.471,0,0,0-.644.221.261.261,0,0,0-.123.172c-.027.17.137.262.262.28a31.7,31.7,0,0,0,3.226.245c.2.009.457-.041.5-.314a.479.479,0,0,0-.166-.436c-.322-.25-.99-.177-1.355-.215A6.609,6.609,0,0,0,25.77,46.581Z" style="fill:#b57629"/><path d="M32.611,47.134a5.814,5.814,0,0,0-2.879.47c-.14.067-.293.164-.314.318-.03.223.228.367.444.432a10.133,10.133,0,0,0,2.391.38,6.259,6.259,0,0,0,2.568-.039.62.62,0,0,0,.081-1.067C34.419,47.17,33.238,47.174,32.611,47.134Z" style="fill:#b57629"/><path d="M33.029,45.919a.866.866,0,0,0-.659.187.229.229,0,0,0-.07.172c.011.1.108.161.2.2a3.057,3.057,0,0,0,1.358.188,1.048,1.048,0,0,0,.605-.155C35.353,45.829,33.228,45.918,33.029,45.919Z" style="fill:#b57629"/><path d="M27.029,47.919a.866.866,0,0,0-.659.187.229.229,0,0,0-.07.172c.011.1.108.161.2.2a3.057,3.057,0,0,0,1.358.188,1.048,1.048,0,0,0,.605-.155C29.353,47.829,27.228,47.918,27.029,47.919Z" style="fill:#b57629"/><path d="M28.818,45.541a1.176,1.176,0,0,0-.478.086c-.043.019-.09.061-.071.1a.1.1,0,0,0,.049.042,2.659,2.659,0,0,0,1.156.288.3.3,0,0,0,.241-.075.222.222,0,0,0,.042-.13C29.77,45.458,29.086,45.536,28.818,45.541Z" style="fill:#b57629"/><path d="M23.818,47.541a1.176,1.176,0,0,0-.478.086c-.043.019-.09.061-.071.1a.1.1,0,0,0,.049.042,2.659,2.659,0,0,0,1.156.288.3.3,0,0,0,.241-.075.222.222,0,0,0,.042-.13C24.77,47.458,24.086,47.536,23.818,47.541Z" style="fill:#b57629"/><path d="M25.955,44.9a1.926,1.926,0,0,0-1.52.508c-.078.087-.144.222-.07.311a.27.27,0,0,0,.108.067,7.411,7.411,0,0,0,.737.261.5.5,0,0,0,.471-.027c.1-.09.116-.247.2-.353.177-.216.8-.089.85-.4C26.792,44.92,26.151,44.906,25.955,44.9Z" style="fill:#b57629"/><path d="M50.955,42.9a1.926,1.926,0,0,0-1.52.508c-.078.087-.144.222-.07.311a.27.27,0,0,0,.108.067,7.411,7.411,0,0,0,.737.261.5.5,0,0,0,.471-.027c.1-.09.116-.247.2-.353.177-.216.8-.089.85-.4C51.792,42.92,51.151,42.906,50.955,42.9Z" style="fill:#b57629"/><path d="M46.485,45.8c-.049.058-.092.15-.038.2a.156.156,0,0,0,.075.034,8.775,8.775,0,0,0,1,.2c.482.065,1.172-.193.63-.7A1.227,1.227,0,0,0,46.485,45.8Z" style="fill:#b57629"/><path d="M52.485,41.8c-.049.058-.092.15-.038.2a.156.156,0,0,0,.075.034,8.775,8.775,0,0,0,1,.2c.482.065,1.172-.193.63-.7A1.227,1.227,0,0,0,52.485,41.8Z" style="fill:#b57629"/><path d="M36.92,3.314a1.471,1.471,0,0,0-.689.283.709.709,0,0,0-.265.665.961.961,0,0,0,.3.456c.595.592,3.947,2.242,4.22.714.116-.647-.736-1.333-1.222-1.641A3.326,3.326,0,0,0,36.92,3.314Z" style="fill:#fff"/><path d="M33.547,2.855a.485.485,0,0,0-.3.321.613.613,0,0,0,.194.516c.43.473,1.957.978,1.762-.128C35.078,2.874,34.155,2.613,33.547,2.855Z" style="fill:#fff"/><path d="M17.261,15.765l-.522-1.931q-1.074.291-2.055.618l.632,1.9Q16.246,16.04,17.261,15.765Z"/><rect x="6" y="34" width="2" height="2"/><path d="M33.972,41.972l.056,2q1.028-.029,2.029-.087l-.116-2Q34.97,41.944,33.972,41.972Z"/><path d="M57.886,48.042A5.594,5.594,0,0,0,56.47,45.5,5.152,5.152,0,0,0,58,42V39a2.99,2.99,0,0,0-.962-2.2A4.842,4.842,0,0,0,58,34V22c0-3.346-3.915-6.321-10.742-8.163l-.522,1.931C52.45,17.31,56,19.7,56,22c0,3.784-9.856,8-24,8S8,25.784,8,22c0-1.757,2.091-3.606,5.737-5.072l-.746-1.856C8.418,16.912,6,19.307,6,22V32H8V25.987C11.85,29.59,20.9,32,32,32s20.15-2.41,24-6.013V33.5a2.457,2.457,0,0,1-.743,1.769,2.529,2.529,0,0,1-3.526-.012A2.447,2.447,0,0,1,51,33.5,2.5,2.5,0,0,0,48.5,31h-2A2.5,2.5,0,0,0,44,33.5l0,16.02a1.121,1.121,0,0,0-.012.115A2.508,2.508,0,0,1,41.5,52a2.5,2.5,0,0,1-2.342-1.635A2.529,2.529,0,0,1,39,49.5V40.28A6.258,6.258,0,0,0,32.72,34,6.362,6.362,0,0,0,28.7,35.457a24.046,24.046,0,0,0-5.54,6.57,23.178,23.178,0,0,0-2.832,7.94A24.825,24.825,0,0,0,20,54v3.08a1,1,0,0,0,.825.984A64.019,64.019,0,0,0,32,59c.568,0,1.108-.007,1.627-.019C32.48,60.551,28.74,62,24,62c-4.233,0-8.157-1.193-9.546-2.9A5.724,5.724,0,0,0,10,57c-4.785,0-8-1.809-8-4.5,0-1.675,2.3-3.354,5.6-4.083l0-.007a.992.992,0,0,0,.7-.55,4.109,4.109,0,0,1,.7-1V53.28a1,1,0,0,0,.443.831,21.8,21.8,0,0,0,5.244,2.429,1.019,1.019,0,0,0,.313.05,1,1,0,0,0,1-1V45.5a3.5,3.5,0,0,0-5.977-2.477,3.465,3.465,0,0,0-.816,1.322A3.444,3.444,0,0,1,8,42V38H6v4a5.157,5.157,0,0,0,1.532,3.5,6.465,6.465,0,0,0-.8,1.068C2.627,47.593,0,49.889,0,52.5,0,55.735,3.092,59,10,59a3.73,3.73,0,0,1,2.9,1.36C14.7,62.571,19.054,64,24,64c6.239,0,11.065-2.148,11.869-5.121A48.149,48.149,0,0,0,51.2,55.826,8,8,0,0,0,57,58c3.925,0,7-2.2,7-5C64,50.412,61.377,48.345,57.886,48.042ZM11,45.5a1.5,1.5,0,0,1,3,0v1.67c-.553-.216-1.081-.438-1.563-.669l-.866,1.8c.734.351,1.56.68,2.429.994v4.873a18.728,18.728,0,0,1-3-1.44Zm-2,0v.047L8.96,45.5l.045-.053C9.005,45.465,9,45.482,9,45.5ZM7.385,47.463h0v-.025h0ZM22,56.235V54a23.136,23.136,0,0,1,.178-2.73A64.871,64.871,0,0,0,32,52c1.367,0,2.733-.041,4.06-.12l-.12-2C34.653,49.961,33.328,50,32,50a62.93,62.93,0,0,1-9.5-.7,21.141,21.141,0,0,1,2.085-5.7A66.971,66.971,0,0,0,32,44V42c-2.161,0-4.266-.1-6.284-.3a22.012,22.012,0,0,1,4.25-4.7,4.352,4.352,0,0,1,2.754-1A4.259,4.259,0,0,1,37,40.28V49.5A4.51,4.51,0,0,0,41.5,54a4.508,4.508,0,0,0,4.487-4.229A2.458,2.458,0,0,0,46,49.5v-16a.5.5,0,0,1,.5-.5h2a.5.5,0,0,1,.5.5,4.513,4.513,0,0,0,3.663,4.418,25.412,25.412,0,0,1-5.924,2.312l.522,1.931a23.686,23.686,0,0,0,7.718-3.354c.252-.183.478-.361.684-.534A.978.978,0,0,1,56,39v3a3.8,3.8,0,0,1-1.609,2.739,20.221,20.221,0,0,1-7.651,3.489l.52,1.931a24.164,24.164,0,0,0,7.707-3.334A3.275,3.275,0,0,1,56,49c0,1.6-1.785,3.318-4.9,4.708-4.01,1.81-9.743,2.954-16.149,3.224-.918.046-1.883.068-2.95.068A62.918,62.918,0,0,1,22,56.235ZM57,56a6.718,6.718,0,0,1-3.808-1.091c2.64-1.4,4.225-3.051,4.668-4.855C60.176,50.307,62,51.55,62,53,62,54.626,59.71,56,57,56Z"/><path d="M17,20.38c0,3.2,5.159,5.62,12,5.62,5.505,0,10.144-1.61,11.54-4a2.54,2.54,0,0,1,1.136-1.1C43.727,20.016,45,18.4,45,16.69a3.522,3.522,0,0,0-.823-2.238A6.942,6.942,0,0,0,46,10C46,4.48,37.528,0,32,0a9.741,9.741,0,0,0-3.95.82A9.829,9.829,0,0,0,24.6,3.286a5.891,5.891,0,0,0-2.04-2.118,1,1,0,0,0-1.109,0A5.332,5.332,0,0,0,19.01,5H19a1,1,0,0,0-1,1,4.641,4.641,0,0,0,1.877,4A4.641,4.641,0,0,0,18,14a1,1,0,0,0,1,1h.009a3.5,3.5,0,0,0,.5,1.872C17.887,17.838,17,19.055,17,20.38ZM32,2c4.521,0,12,3.739,12,8a5.068,5.068,0,0,1-1.5,3.331,4.786,4.786,0,0,1-.4.421,1,1,0,0,0,.06,1.508A1.951,1.951,0,0,1,43,16.69a3.064,3.064,0,0,1-2.12,2.373,4.537,4.537,0,0,0-2.064,1.923C37.963,22.447,34.232,24,29,24c-6.195,0-10-2.108-10-3.62,0-.643.682-1.363,1.85-1.981.2.157.4.3.606.44a1,1,0,0,0,1.1-.007,6.794,6.794,0,0,0,1.595-1.561c.266-.059.545-.112.833-.161A9.914,9.914,0,0,0,30.626,19.9,1.044,1.044,0,0,0,31,19.97a1.026,1.026,0,0,0,1-1.03V8.22a8.955,8.955,0,0,0-1.283-4.636l-.789-1.312A7.879,7.879,0,0,1,32,2ZM28.057,3.042l.948,1.576a6.955,6.955,0,0,1,1,3.6v9.526a7.945,7.945,0,0,1-3.919-2.366,9.495,9.495,0,0,1-.731-.937,8,8,0,0,1,2.707-11.4Zm-6.03.224A2.2,2.2,0,0,1,23,4.957a.988.988,0,0,0,.12.485,9.887,9.887,0,0,0-.451,1.03,4.853,4.853,0,0,0-1.626-1.059A2.512,2.512,0,0,1,22.027,3.266Zm-.22,5.517a2.557,2.557,0,0,1-1.614-1.566A2.557,2.557,0,0,1,21.807,8.783Zm-1.614,4a2.556,2.556,0,0,1,1.614-1.567A2.558,2.558,0,0,1,20.193,12.784Zm2.477.744a9.92,9.92,0,0,0,.446,1.021.98.98,0,0,0-.115.413,1.907,1.907,0,0,1-.321.909,4.1,4.1,0,0,1-.709.862c-.087-.074-.172-.151-.257-.233-.856-.849-.775-1.506-.606-1.94A4.836,4.836,0,0,0,22.67,13.528Z"/><path d="M35,19.6a.985.985,0,0,0,.234-.028,19.3,19.3,0,0,0,4.221-1.562A1,1,0,0,0,40,17.12V12a3.015,3.015,0,0,0-3-3,3,3,0,0,0-3,3v6.6a1,1,0,0,0,1,1ZM36,12a1,1,0,0,1,1-1,.978.978,0,0,1,.713.306A.965.965,0,0,1,38,12v4.5a17.612,17.612,0,0,1-2,.784Z"/></g></svg>