<svg xmlns="http://www.w3.org/2000/svg" viewBox="0 0 64 64"><g id="_06-lemon_cupcake" data-name="06-lemon cupcake"><path d="M28,41V62.89a29.576,29.576,0,0,1-5.05-.66L23,62,20,40l5-1Z" style="fill:#ffafa8"/><path d="M44,40,41,62l.05.23a29.576,29.576,0,0,1-5.05.66V41l3-2Z" style="fill:#ffafa8"/><path d="M20,40l3,22-.05.23C20.27,61.63,18.53,60.6,18,59L12,36l2,2h4Z" style="fill:#f8a348"/><path d="M36,41V62.89c-1.25.08-2.58.11-4,.11s-2.75-.03-4-.11V41l4-1Z" style="fill:#f8a348"/><path d="M52,36,46,59c-.53,1.6-2.27,2.63-4.95,3.23L41,62l3-22,2-2h4Z" style="fill:#f8a348"/><path d="M18,38H14l-2-2V34l2-2h1.49a10,10,0,0,0,1.7,1.95A15.819,15.819,0,0,0,28,38H41a2.006,2.006,0,0,0,2-2c3-.02,4-1,4-1l2.55-1.45a.988.988,0,0,0,.28-1.38L49.71,32H50l2,2v2l-2,2H46l-2,2-5-1-3,2-4-1-4,1-3-2-5,1Z" style="fill:#fddf9f"/><path d="M22,17c-4,0-4,5-4,5,0,13,15,16,15,16H28a15.819,15.819,0,0,1-10.81-4.05A10,10,0,0,1,15.49,32,8.74,8.74,0,0,1,14,27V25c0-3.87,3.13-11,7-11h.34a13.017,13.017,0,0,0,1.04,3Z" style="fill:#ffe86b"/><path d="M41,38H33S18,35,18,22c0,0,0-5,4-5h.38a13.692,13.692,0,0,0,2.12,3.22c-2.58,1.24-2.71,3.35-2.06,4.89a7.462,7.462,0,0,0,2.13,2.82C30.02,32.49,40.05,36,42.92,36H43A2.006,2.006,0,0,1,41,38Z" style="fill:#ffef96"/><path d="M25.12,20.88a14.075,14.075,0,0,0,2.04,1.69c.48,2.34,2.07,3.93,4.41,5.28C34.94,29.79,39.14,32,42,32c5.09,0,5,3,5,3s-1,.98-4,1h-.08c-2.87,0-12.9-3.51-18.35-8.07a7.462,7.462,0,0,1-2.13-2.82c-.65-1.54-.52-3.65,2.06-4.89C24.7,20.45,24.91,20.67,25.12,20.88Z" style="fill:#ffe86b"/><path d="M48,27.74v1.91a17.4,17.4,0,0,0-6.15-4.7L40,24.1A13.674,13.674,0,0,0,43.73,22,5.991,5.991,0,0,1,48,27.74Z" style="fill:#ffbd14"/><path d="M50,25v2a8.744,8.744,0,0,1-.94,4.04A15.924,15.924,0,0,0,48,29.65V27.74A5.991,5.991,0,0,0,43.73,22,13.224,13.224,0,0,0,45,20.88l-2.87-2.87L38.12,14H41C44.87,14,50,21.13,50,25Z" style="fill:#ffe86b"/><path d="M49.71,32l.12.17a.988.988,0,0,1-.28,1.38L47,35s.09-3-5-3c-2.86,0-7.06-2.21-10.43-4.15-2.34-1.35-3.93-2.94-4.41-5.28A14.047,14.047,0,0,0,39.99,24.1c.01.01.01,0,.01,0l1.85.85A17.4,17.4,0,0,1,48,29.65a15.924,15.924,0,0,1,1.06,1.39c.01.01,0,.01,0,.01Z" style="fill:#ffe86b"/><path d="M35,10.94l-.06.06H25.02a10.01,10.01,0,0,1,2.94-7.1l.03-.03,7.1,7.1-.03.03H35Z" style="fill:#ffe86b"/><path d="M34.94,11,27.9,18.04A10.013,10.013,0,0,1,25.02,11Z" style="fill:#ffe86b"/><path d="M35,11v9.98a9.9,9.9,0,0,1-2.59-.34c-.01,0-.01,0-.02-.01a9.919,9.919,0,0,1-4.43-2.53l-.06-.06L34.94,11Z" style="fill:#ffe86b"/><path d="M38.12,14l4.01,4.01-.03.03A10.01,10.01,0,0,1,35,20.98V11h.06l.03-.03Z" style="fill:#ffe86b"/><path d="M42.13,18.01,45,20.88A13.224,13.224,0,0,1,43.73,22,13.674,13.674,0,0,1,40,24.1s0,.01-.01,0a14.028,14.028,0,0,1-14.87-3.22c-.21-.21-.42-.43-.62-.66A13.692,13.692,0,0,1,22.38,17a13.017,13.017,0,0,1-1.04-3A14.03,14.03,0,0,1,25.12,1l2.87,2.87-.03.03a10.044,10.044,0,0,0-.06,14.14l.06.06a9.919,9.919,0,0,0,4.43,2.53c.01.01.01.01.02.01a9.9,9.9,0,0,0,2.59.34,10.01,10.01,0,0,0,7.1-2.94Z" style="fill:#ffffbf"/><path d="M25.039,39.026l.912,23.692c.654.07,1.33.131,2.049.172V41Z" style="fill:#f8a094"/><path d="M36,41V62.89c.719-.041,1.4-.1,2.049-.172l.912-23.692Z" style="fill:#f8a094"/><path d="M20,40l-2-2,3.829,23.931c.355.109.724.21,1.121.3L23,62Z" style="fill:#ed9430"/><path d="M28,41V62.89c1.25.08,2.58.11,4,.11V40Z" style="fill:#ed9430"/><path d="M44,40,41,62l.05.23c.4-.089.766-.19,1.121-.3L46,38Z" style="fill:#ed9430"/><path d="M50,34.5a4.453,4.453,0,0,0-.186-1.211.965.965,0,0,1-.264.261L47,35s-1,.98-4,1a2.006,2.006,0,0,1-2,2H28a15.819,15.819,0,0,1-10.81-4.05A10,10,0,0,1,15.49,32h-.73a4.465,4.465,0,0,0,.943,6H18l1,1H45l1-1h2.3A4.475,4.475,0,0,0,50,34.5Z" style="fill:#fda36f"/><path d="M18,22s0-5,4-5l.04-.02c.123.012.224.011.34.019a13.054,13.054,0,0,1-.744-1.938c-.116.023-.226.037-.347.066-1.24.35-3.81,1.695-5.289,6.873-1.648,5.769,0,9,6,13a28.223,28.223,0,0,0,5.7,2.985c.1,0,.194.015.3.015h5S18,35,18,22Z" style="fill:#ffbd14"/><path d="M42,32c-2.86,0-7.06-2.21-10.43-4.15-2.34-1.35-3.93-2.94-4.41-5.28a14.075,14.075,0,0,1-2.04-1.69c-.21-.21-.42-.43-.62-.66a4.055,4.055,0,0,0-2.16,2.115l1.667.417a2.008,2.008,0,0,1,1.34,1.123c1.073,2.352,4.921,8.662,15.478,9.1a1,1,0,0,1,.858,1.4,2.647,2.647,0,0,1-1.122,1.252h0c.112.027.213.047.32.071.174.04.345.078.506.109.106.021.206.039.306.056.158.028.307.051.448.07.076.01.154.021.225.029.2.021.393.036.554.036H43c3-.02,4-1,4-1S47.09,32,42,32Z" style="fill:#ffcc14"/><path d="M42.92,36c-2.87,0-12.9-3.51-18.35-8.07a7.462,7.462,0,0,1-2.13-2.82c-.65-1.54-.52-3.65,2.06-4.89A13.692,13.692,0,0,1,22.38,17H22a3.935,3.935,0,0,0-.849.093c-.038.008-.072.02-.109.029a3.472,3.472,0,0,0-.68.24h0l.719.719a1.02,1.02,0,0,1-.03,1.49c-.779.66-1.662,1.985-1.051,4.429.929,3.715,5.307,9.154,12.335,10.712a1,1,0,0,1,.157,1.911A6.963,6.963,0,0,1,30,37h-.237a23.175,23.175,0,0,0,3.165.985l.017,0L33,38h8a2.006,2.006,0,0,0,2-2Z" style="fill:#ffd645"/><path d="M49.83,32.17,49.71,32l-.65-.95s.01,0,0-.01A15.924,15.924,0,0,0,48,29.65a17.4,17.4,0,0,0-6.15-4.7L40,24.1s0,.01-.01,0a14.047,14.047,0,0,1-12.83-1.53A6.553,6.553,0,0,0,28.977,25.9c2.351.909,6.436,1.978,10.268.44a2.058,2.058,0,0,1,1.686.1,19.142,19.142,0,0,1,5.847,4.288,1.977,1.977,0,0,1-.345,2.8A2.476,2.476,0,0,1,47,35l2.55-1.45A.988.988,0,0,0,49.83,32.17Z" style="fill:#ffd645"/><polygon points="35 11 35 10.94 34.94 11 35 11" style="fill:#ffffbf"/><path d="M37.556,27.351a1.255,1.255,0,0,0-.757.259c-.968.784.076,1.355.711,1.745a15.311,15.311,0,0,0,2.6,1.276,8.463,8.463,0,0,0,4.824.58,1.4,1.4,0,0,0,.553-.2c.568-.411-.1-1.021-.535-1.2a14.574,14.574,0,0,0-2.556-.665,21.954,21.954,0,0,1-3.615-1.492,3.576,3.576,0,0,0-1-.291A1.717,1.717,0,0,0,37.556,27.351Z" style="fill:#fff"/><path d="M33.682,35.142c-.312.313-.151.862.139,1.2a3.584,3.584,0,0,0,2.227,1,11.46,11.46,0,0,0,2.9.066c.251-.026.542-.089.647-.319.629-1.31-3.226-1.656-3.786-1.758C35.216,35.215,34.206,34.614,33.682,35.142Z" style="fill:#ffef96"/><path d="M16.9,29.337a2.642,2.642,0,0,0,1.958,1.335.47.47,0,0,0,.387-.092.417.417,0,0,0,.1-.228c.109-.672-.435-1.248-.741-1.857-.263-.522-.614-3.479-1.707-2.676C15.968,26.5,16.432,28.527,16.9,29.337Z" style="fill:#ffcc14"/><path d="M20.158,31.031a1.22,1.22,0,0,0-.825-.091.612.612,0,0,0-.447.636.951.951,0,0,0,.386.52,5.915,5.915,0,0,0,2.014,1.255c.224.067.528.075.626-.138a.522.522,0,0,0-.106-.475A3.934,3.934,0,0,0,20.158,31.031Z" style="fill:#ffcc14"/><path d="M33.083,29.694l-.513.167-.268-.268a.176.176,0,0,0-.3.123l0,.423-.462.3a.18.18,0,0,0,.077.325l.535.082.081.534a.179.179,0,0,0,.325.077l.3-.462.423,0a.175.175,0,0,0,.123-.3l-.267-.267.166-.513A.182.182,0,0,0,33.083,29.694Z" style="fill:#ed8431"/><path d="M30.833,33.5l-.254.5h-.392a.183.183,0,0,0-.132.312l.313.307-.114.563a.185.185,0,0,0,.294.181L31,35.031l.452.332a.185.185,0,0,0,.294-.181l-.114-.563.313-.307A.183.183,0,0,0,31.813,34h-.392l-.254-.5A.188.188,0,0,0,30.833,33.5Z" style="fill:#ed8431"/><path d="M46.917,21.752,46.79,22h-.2a.091.091,0,0,0-.066.155l.156.153-.057.281a.093.093,0,0,0,.147.091L47,22.514l.225.166a.093.093,0,0,0,.147-.091l-.057-.281.156-.153A.091.091,0,0,0,47.405,22h-.2l-.127-.248A.093.093,0,0,0,46.917,21.752Z" style="fill:#ed8431"/><path d="M20.917,26.752,20.79,27h-.2a.091.091,0,0,0-.066.155l.156.153-.057.281a.093.093,0,0,0,.147.091L21,27.514l.225.166a.093.093,0,0,0,.147-.091l-.057-.281.156-.153A.091.091,0,0,0,21.405,27h-.2l-.127-.248A.093.093,0,0,0,20.917,26.752Z" style="fill:#ed8431"/><path d="M25.917,24.752,25.79,25h-.2a.091.091,0,0,0-.066.155l.156.153-.057.281a.093.093,0,0,0,.147.091L26,25.514l.225.166a.093.093,0,0,0,.147-.091l-.057-.281.156-.153A.091.091,0,0,0,26.405,25h-.2l-.127-.248A.093.093,0,0,0,25.917,24.752Z" style="fill:#ed8431"/><path d="M43.347,33.459l.083.256-.133.134a.088.088,0,0,0,.061.151l.212,0,.152.231a.09.09,0,0,0,.163-.039l.04-.267.268-.041a.09.09,0,0,0,.038-.162L44,33.567l0-.211a.088.088,0,0,0-.151-.061l-.134.133-.256-.083A.091.091,0,0,0,43.347,33.459Z" style="fill:#ed8431"/><path d="M47.347,29.459l.083.256-.133.134a.088.088,0,0,0,.061.151l.212,0,.152.231a.09.09,0,0,0,.163-.039l.04-.267.268-.041a.09.09,0,0,0,.038-.162L48,29.567l0-.211a.088.088,0,0,0-.151-.061l-.134.133-.256-.083A.091.091,0,0,0,47.347,29.459Z" style="fill:#ed8431"/><path d="M22.347,33.459l.083.256-.133.134a.088.088,0,0,0,.061.151l.212,0,.152.231a.09.09,0,0,0,.163-.039l.04-.267.268-.041a.09.09,0,0,0,.038-.162L23,33.567l0-.211a.088.088,0,0,0-.151-.061l-.134.133-.256-.083A.091.091,0,0,0,22.347,33.459Z" style="fill:#ed8431"/><path d="M18.347,22.459l.083.256-.133.134a.088.088,0,0,0,.061.151l.212,0,.152.231a.09.09,0,0,0,.163-.039l.04-.267.268-.041a.09.09,0,0,0,.038-.162L19,22.567l0-.211a.088.088,0,0,0-.151-.061l-.134.133-.256-.083A.091.091,0,0,0,18.347,22.459Z" style="fill:#ed8431"/><path d="M45.347,19.459l.083.256-.133.134a.088.088,0,0,0,.061.151l.212,0,.152.231a.09.09,0,0,0,.163-.039l.04-.267.268-.041a.09.09,0,0,0,.038-.162L46,19.567l0-.211a.088.088,0,0,0-.151-.061l-.134.133-.256-.083A.091.091,0,0,0,45.347,19.459Z" style="fill:#ed8431"/><path d="M53,34H51v1.586L49.586,37H46a1,1,0,0,0-.707.293l-1.622,1.622-1.3-.261a3,3,0,0,0,1.459-1.693,6.642,6.642,0,0,0,3.751-1.14L50.1,34.388a1.989,1.989,0,0,0,.558-2.785l-.453-.659A9.994,9.994,0,0,0,51,27V25c0-4.172-5.3-12-10-12H38.532L25.825.293a1,1,0,0,0-1.414,0,14.838,14.838,0,0,0-4.242,12.792C15.915,13.926,13,21.039,13,25v2a10,10,0,0,0,3.521,7.689,16.769,16.769,0,0,0,6.685,3.65l-2.877.576-1.622-1.622A1,1,0,0,0,18,37H14.414L13,35.586V34H11v2a1,1,0,0,0,.049.248l-.017,0,6.02,23.064C18.131,62.556,22.741,64,32,64s13.869-1.444,14.968-4.748l6-23-.017,0A1,1,0,0,0,53,36ZM35.813,39.922l-3.571-.892A.968.968,0,0,0,32,39h5.2Zm11.792-6.417a3.806,3.806,0,0,0-.643-.886C45.919,31.544,44.25,31,42,31v2c2.526,0,3.559.816,3.875,1.508A7.6,7.6,0,0,1,42.92,35c-2.488,0-12.3-3.309-17.708-7.836a6.429,6.429,0,0,1-1.851-2.443,2.474,2.474,0,0,1,.951-3.241c.035.036.064.074.1.109a14.919,14.919,0,0,0,1.873,1.569c.579,2.23,2.1,4.009,4.787,5.559a37.959,37.959,0,0,0,8.689,3.974l.484-1.94a36.31,36.31,0,0,1-8.174-3.767A10.225,10.225,0,0,1,29.4,24.9a15,15,0,0,0,10.53.273l1.5.689A16.519,16.519,0,0,1,47.243,30.3a14.534,14.534,0,0,1,.938,1.224c.016.031.035.06.054.09l.821,1.064ZM43.876,23.128a4.947,4.947,0,0,1,3.077,4.024,18.592,18.592,0,0,0-4.586-3.058A15.1,15.1,0,0,0,43.876,23.128ZM41,15c3.218,0,8,6.556,8,10v2c0,.148-.017.29-.024.436a6.921,6.921,0,0,0-3.428-5.7c.052-.05.108-.092.159-.144a1,1,0,0,0,0-1.414L40.532,15Zm-7,4.922A8.949,8.949,0,0,1,29.352,18L34,13.355Zm-6.05-3.344A8.946,8.946,0,0,1,26.075,12h6.452ZM26.071,10a8.953,8.953,0,0,1,1.956-4.677L32.7,10ZM36,13.3l4.677,4.677A8.953,8.953,0,0,1,36,19.929ZM25.145,2.44,26.607,3.9a11.022,11.022,0,0,0,.571,14.824c.006.006.008.015.014.022l.031.028c.01.01.018.021.028.031l0,0a11.026,11.026,0,0,0,14.843.589l1.463,1.462a12.987,12.987,0,0,1-3.85,2.29.971.971,0,0,0-.111.047A13.064,13.064,0,0,1,25.145,2.44ZM15,27V25c0-3.5,2.7-9.4,5.577-9.946.1.36.223.713.351,1.063C17.858,16.761,17,20.128,17,22h2c0-.158.04-3.772,2.76-3.98a15.008,15.008,0,0,0,1.25,1.928A4.478,4.478,0,0,0,21.518,25.5a8.391,8.391,0,0,0,2.411,3.2c4.925,4.122,13.446,7.384,17.588,8.138A.975.975,0,0,1,41,37H33.107c-1.139-.257-12.719-3.115-13.991-13.126l-1.984.252c.628,4.943,3.554,9.085,8.461,11.978.543.32,1.08.6,1.6.863A14.617,14.617,0,0,1,17.856,33.2,8.073,8.073,0,0,1,15,27ZM28,39h4a.968.968,0,0,0-.24.03l-3.571.892-1.487-.99C27.128,38.961,27.549,39,28,39ZM18.968,58.748,13.806,38.961A.927.927,0,0,0,14,39h3.586l1.468,1.468L21.84,60.9C20.236,60.369,19.27,59.651,18.968,58.748ZM29,61.938V60H27v1.814q-1.715-.142-3.07-.4L21.118,40.8l3.672-.734L27,41.535V54h2V41.781l3-.75,3,.75V45h2V41.535l2.21-1.473,3.672.734L40.07,61.414a30.59,30.59,0,0,1-3.07.4V47H35V61.938c-.938.04-1.934.062-3,.062S29.938,61.978,29,61.938Zm16.052-3.254c-.311.93-1.282,1.664-2.891,2.2l2.785-20.42L46.414,39H50a.927.927,0,0,0,.194-.039Z"/><rect x="27" y="56" width="2" height="2"/></g></svg>