<svg xmlns="http://www.w3.org/2000/svg" viewBox="0 0 64 64"><g id="_07-kouign-amann" data-name="07-kouign-amann"><path d="M36,37c-.34,0-.67.01-1,.02V37s-.07-.03-.2-.08C40.34,36.68,42,36,42,36s1-.2,1-2c0,1.8,1,2,1,2s1.66.68,7.2.92c-.13.05-.2.08-.2.08v.02c-.33-.01-.66-.02-1-.02Z" style="fill:#7f4136"/><path d="M13.08,9.09C11.82,9.04,10.35,9,8.64,9c1.59,0,2.97-.03,4.16-.08C18.34,8.68,20,8,20,8s1-.2,1-2c0,1.8,1,2,1,2s1.66.68,7.2.92c1.19.05,2.57.08,4.16.08-1.71,0-3.18.04-4.44.09-5.28.26-6.81.91-6.81.91S21,11,21,14c0-3-1.11-4-1.11-4S18.36,9.35,13.08,9.09Z" style="fill:#9e510a"/><path d="M53,34c5.01,0-.64,2.44-1.8,2.92C45.66,36.68,44,36,44,36,45.11,33.6,53,34,53,34Z" style="fill:#df862a"/><path d="M33,34s7.89-.4,9,2c0,0-1.66.68-7.2.92C33.64,36.44,27.99,34,33,34Z" style="fill:#df862a"/><path d="M28.92,9.09C29.95,9.77,36.11,14,31,14c0,0-7.78,0-8.89-4C22.11,10,23.64,9.35,28.92,9.09Z" style="fill:#df862a"/><path d="M19.89,10C18.78,14,11,14,11,14c-5.11,0,1.05-4.23,2.08-4.91C18.36,9.35,19.89,10,19.89,10Z" style="fill:#df862a"/><path d="M11,6s7.89-.4,9,2c0,0-1.66.68-7.2.92C11.64,8.44,5.99,6,11,6Z" style="fill:#df862a"/><path d="M31,6c5.01,0-.64,2.44-1.8,2.92C23.66,8.68,22,8,22,8,23.11,5.6,31,6,31,6Z" style="fill:#df862a"/><path d="M44,36s-1-.2-1-2,2.29-3,9.81-3C59.82,31,63,32.5,63,34l-.04.28c-.36,1.4-3.42,2.72-7.6,2.72-1.59,0-2.97-.03-4.16-.08C52.36,36.44,58.01,34,53,34,53,34,45.11,33.6,44,36Z" style="fill:#d76711"/><path d="M33.19,31a40.49,40.49,0,0,1,5.21.28c3.43.45,4.6,1.43,4.6,2.72,0,1.8-1,2-1,2-1.11-2.4-9-2-9-2-5.01,0,.64,2.44,1.8,2.92-1.19.05-2.57.08-4.16.08-3.5,0-6.21-.92-7.21-2.05a1.549,1.549,0,0,1-.39-.67L23,34C23,32.5,26.18,31,33.19,31Z" style="fill:#d76711"/><path d="M31,6s-7.89-.4-9,2c0,0-1-.2-1-2s2.29-3,9.81-3C37.82,3,41,4.5,41,6l-.05.31C40.55,7.7,37.51,9,33.36,9c-1.59,0-2.97-.03-4.16-.08C30.36,8.44,36.01,6,31,6Z" style="fill:#d76711"/><path d="M20,8c-1.11-2.4-9-2-9-2-5.01,0,.64,2.44,1.8,2.92-1.19.05-2.57.08-4.16.08C4.49,9,1.45,7.7,1.05,6.31L1,6C1,4.5,4.18,3,11.19,3,18.71,3,21,4.2,21,6S20,8,20,8Z" style="fill:#d76711"/><path d="M1.94,11.66A8.71,8.71,0,0,1,8.64,9c1.71,0,3.18.04,4.44.09C12.05,9.77,5.89,14,11,14c0,0,7.78,0,8.89-4,0,0,1.11,1,1.11,4s-2.29,5-9.81,5c-6.31,0-9.52-2.03-10.1-4.26a.06.06,0,0,0-.01-.04L1,14A3.642,3.642,0,0,1,1.94,11.66Z" style="fill:#d76711"/><path d="M21,14c0-3,1.11-4,1.11-4C23.22,14,31,14,31,14c5.11,0-1.05-4.23-2.08-4.91C30.18,9.04,31.65,9,33.36,9a8.71,8.71,0,0,1,6.7,2.66A3.642,3.642,0,0,1,41,14l-.08.7a.06.06,0,0,0-.01.04C40.33,16.97,37.12,19,30.81,19,23.29,19,21,17,21,14Z" style="fill:#d76711"/><path d="M59,46.53a4.457,4.457,0,0,1-.05.63l-.43,2.55L58,49.62a8.5,8.5,0,0,1-2.91-1.16A7.275,7.275,0,0,0,52,48a2.006,2.006,0,0,0-2,2v2a3,3,0,0,1-6,0V49a2.015,2.015,0,0,0-2-2c-2,0-3,3-5,3-1.47,0-2-2-4-2-1.75,0-1.98,1.82-5.47,1.99l-.48-2.83a4.457,4.457,0,0,1-.05-.63,3.981,3.981,0,0,1,1.96-3.4A16.215,16.215,0,0,1,37.4,41H48.6a16.215,16.215,0,0,1,8.44,2.13A3.981,3.981,0,0,1,59,46.53Z" style="fill:#fffbf4"/><path d="M58.52,49.71,57.4,56.35C57.4,58.36,50.95,60,43,60s-14.4-1.64-14.4-3.65l-1.07-6.36C31.02,49.82,31.25,48,33,48c2,0,2.53,2,4,2,2,0,3-3,5-3a2.015,2.015,0,0,1,2,2v3a3,3,0,0,0,6,0V50a2.006,2.006,0,0,1,2-2,7.275,7.275,0,0,1,3.09.46A8.5,8.5,0,0,0,58,49.62Z" style="fill:#ffcd8e"/><path d="M27.53,49.99l1.07,6.36C28.6,58.36,35.05,60,43,60s14.4-1.64,14.4-3.65l1.12-6.64.43-2.55a4.457,4.457,0,0,0,.05-.63,3.981,3.981,0,0,0-1.96-3.4A16.215,16.215,0,0,0,48.6,41H37.4a16.215,16.215,0,0,0-8.44,2.13A3.981,3.981,0,0,0,27,46.53a4.457,4.457,0,0,0,.05.63ZM63,44.57a4.989,4.989,0,0,1-.07.86L61,58c0,2.76-8.06,5-18,5s-18-2.24-18-5L23.07,45.43a4.989,4.989,0,0,1-.07-.86,5.687,5.687,0,0,1,.64-2.64,4.622,4.622,0,0,1,.53-.8,4.814,4.814,0,0,1,1.29-1.21A18.422,18.422,0,0,1,35,37.02c.33-.01.66-.02,1-.02H50c.34,0,.67.01,1,.02a18.422,18.422,0,0,1,9.54,2.9,4.814,4.814,0,0,1,1.29,1.21A5.566,5.566,0,0,1,63,44.57Z" style="fill:#f4b75c"/><path d="M62.96,34.28,62,41l-.17.13a4.814,4.814,0,0,0-1.29-1.21A18.422,18.422,0,0,0,51,37.02V37s.07-.03.2-.08c1.19.05,2.57.08,4.16.08C59.54,37,62.6,35.68,62.96,34.28Z" style="fill:#d07232"/><path d="M24,41l-.86-6.04a2.715,2.715,0,0,0,.29-.01c1,1.13,3.71,2.05,7.21,2.05,1.59,0,2.97-.03,4.16-.08.13.05.2.08.2.08v.02a18.422,18.422,0,0,0-9.54,2.9,4.814,4.814,0,0,0-1.29,1.21Z" style="fill:#d07232"/><path d="M1.05,6.31C1.45,7.7,4.49,9,8.64,9a8.71,8.71,0,0,0-6.7,2.66Z" style="fill:#d97925"/><path d="M40.95,6.31l-.89,5.35A8.71,8.71,0,0,0,33.36,9C37.51,9,40.55,7.7,40.95,6.31Z" style="fill:#d97925"/><path d="M1.09,14.74C1.67,16.97,4.88,19,11.19,19,18.71,19,21,17,21,14c0,3,2.29,5,9.81,5,6.31,0,9.52-2.03,10.1-4.26L39,30a1.88,1.88,0,0,1-.6,1.28A40.49,40.49,0,0,0,33.19,31C26.18,31,23,32.5,23,34l.04.28.1.68c-.7.03-1.42.04-2.14.04-9.94,0-18-2.24-18-5Z" style="fill:#df862a"/><path d="M51.2,36.92c-.13.05-.2.08-.2.08v.02c-.33-.01-.66-.02-1-.02H36c-.34,0-.67.01-1,.02V37s-.07-.03-.2-.08C40.34,36.68,42,36,42,36s1-.2,1-2c0,1.8,1,2,1,2S45.66,36.68,51.2,36.92Z" style="fill:#9e510a"/><path d="M35,37v.02a18.422,18.422,0,0,0-9.54,2.9A5.484,5.484,0,0,0,24,41.34V41l-.96-6.72c.36,1.4,3.42,2.72,7.6,2.72,1.59,0,2.97-.03,4.16-.08C34.93,36.97,35,37,35,37Z" style="fill:#d97925"/><path d="M62.96,34.28,62,41v.34a5.484,5.484,0,0,0-1.46-1.42A18.422,18.422,0,0,0,51,37.02V37s.07-.03.2-.08c1.19.05,2.57.08,4.16.08C59.54,37,62.6,35.68,62.96,34.28Z" style="fill:#d97925"/><path d="M21,7c0,1.8,1,2,1,2a11.749,11.749,0,0,0,2.363.505c1.048-.157,2.522-.315,4.557-.415C30.18,9.04,31.65,9,33.36,9c-1.59,0-2.97-.03-4.16-.08C23.66,8.68,22,8,22,8s-1-.2-1-2c0,1.8-1,2-1,2s-1.66.68-7.2.92c-1.19.05-2.57.08-4.16.08,1.71,0,3.18.04,4.44.09,2.035.1,3.509.258,4.557.415A11.749,11.749,0,0,0,20,9S21,8.8,21,7Z" style="fill:#824308"/><path d="M52.81,31C45.29,31,43,32.2,43,34a3.915,3.915,0,0,0,.029.412C44.537,33.515,47,33,50.81,33c5.309,0,8.416,1.439,9.616,3.223,1.4-.5,2.317-1.2,2.524-1.913L63,34C63,32.5,59.82,31,52.81,31Z" style="fill:#b66420"/><path d="M35.19,33c3.81,0,6.273.515,7.781,1.412A3.915,3.915,0,0,0,43,34c0-1.8-2.29-3-9.81-3C26.18,31,23,32.5,23,34l.05.31c.207.718,1.121,1.41,2.524,1.913C26.774,34.439,29.881,33,35.19,33Z" style="fill:#b66420"/><path d="M10.1,25.544a13.685,13.685,0,0,0,3.644-.869c1.531-.6,2.955-1.468,4.532-1.927,5.237-1.523,11.108,1.736,16.2-.222a25.084,25.084,0,0,0,3.255-1.733,25.064,25.064,0,0,1,2.579-1.257l.6-4.8C40.33,16.97,37.12,19,30.81,19a30.069,30.069,0,0,1-3.537-.188,3.575,3.575,0,0,1-.357.482c-1.2,1.336-3.169,1.638-4.964,1.618-1.705-.018-3.4-.251-5.108-.206-2.625.069-5.185.794-7.791,1.114a11.484,11.484,0,0,1-7.211-1.069l.616,4.919c.442-.06.887-.1,1.327-.12C5.89,25.466,8.005,25.748,10.1,25.544Z" style="fill:#d57828"/><path d="M9.053,21.82c2.606-.32,5.166-1.045,7.791-1.114,1.7-.045,3.4.188,5.108.206,1.795.02,3.764-.282,4.964-1.618a3.575,3.575,0,0,0,.357-.482C22.552,18.252,21,16.465,21,14c0,3-2.29,5-9.81,5-6.31,0-9.52-2.03-10.1-4.26l.752,6.011A11.484,11.484,0,0,0,9.053,21.82Z" style="fill:#e38931"/><path d="M9.02,30.006a.9.9,0,0,0-.292-.323c-1.119-.833-2.68-.562-4.04-.253-.569.129-1.142.272-1.7.438L3,30c0,1.4,2.088,2.669,5.441,3.577.12-1.036.626-2.089.644-3.156A.956.956,0,0,0,9.02,30.006Z" style="fill:#d57828"/><path d="M32.354,29.136A5.078,5.078,0,0,0,29.7,30.1a3.147,3.147,0,0,0-.892,1.138A36.672,36.672,0,0,1,33.19,31a40.49,40.49,0,0,1,5.21.28A1.88,1.88,0,0,0,39,30l.206-1.642a10.7,10.7,0,0,1-3.994.721C34.259,29.092,33.3,29.035,32.354,29.136Z" style="fill:#d57828"/><path d="M37.316,26.8c-2.382.427-4.911.1-7.169.975-.59.228-1.151.534-1.757.715a10.021,10.021,0,0,1-3.8.079c-1.922-.181-3.986-.211-5.631.8a.934.934,0,0,0-.384.368.946.946,0,0,0-.027.563,9.085,9.085,0,0,0,3.026,4.686c.527,0,1.057-.007,1.57-.029l-.1-.68L23,34c0-1.141,1.846-2.28,5.81-2.761A3.147,3.147,0,0,1,29.7,30.1a5.078,5.078,0,0,1,2.652-.965c.948-.1,1.905-.044,2.858-.057a10.7,10.7,0,0,0,3.994-.721l.266-2.133A14.9,14.9,0,0,1,37.316,26.8Z" style="fill:#e38931"/><path d="M18.544,30.3a.946.946,0,0,1,.027-.563.934.934,0,0,1,.384-.368c1.645-1.012,3.709-.982,5.631-.8a10.021,10.021,0,0,0,3.8-.079c.606-.181,1.167-.487,1.757-.715,2.258-.871,4.787-.548,7.169-.975a14.9,14.9,0,0,0,2.156-.577l.548-4.374-.138.088a13.192,13.192,0,0,1-5.013,1.853,40.318,40.318,0,0,1-6.494.085,12.947,12.947,0,0,0-6.324,1.181,16.437,16.437,0,0,1-2.79,1.512c-1.076.332-2.244.2-3.342.442a4.917,4.917,0,0,0-2.86,1.872,2.306,2.306,0,0,0-.525,1.409,2.694,2.694,0,0,0,.861,1.629,12.576,12.576,0,0,0,4.247,2.988c1.089.057,2.209.09,3.358.09.192,0,.379-.009.57-.011A9.085,9.085,0,0,1,18.544,30.3Z" style="fill:#d57828"/><path d="M13.4,31.922a2.694,2.694,0,0,1-.861-1.629,2.306,2.306,0,0,1,.525-1.409,4.917,4.917,0,0,1,2.86-1.872c1.1-.247,2.266-.11,3.342-.442a16.437,16.437,0,0,0,2.79-1.512,12.947,12.947,0,0,1,6.324-1.181,40.318,40.318,0,0,0,6.494-.085,13.192,13.192,0,0,0,5.013-1.853l.138-.088.29-2.315a25.064,25.064,0,0,0-2.579,1.257,25.084,25.084,0,0,1-3.255,1.733c-5.09,1.958-10.961-1.3-16.2.222-1.577.459-3,1.33-4.532,1.927a13.685,13.685,0,0,1-3.644.869c-2.1.2-4.212-.078-6.317.006-.44.018-.885.06-1.327.12l.525,4.2c.563-.166,1.136-.309,1.7-.438,1.36-.309,2.921-.58,4.04.253a.9.9,0,0,1,.292.323.956.956,0,0,1,.065.415c-.018,1.067-.524,2.12-.644,3.156a45.242,45.242,0,0,0,9.2,1.333A12.576,12.576,0,0,1,13.4,31.922Z" style="fill:#e38931"/><path d="M57.04,43.13A16.215,16.215,0,0,0,48.6,41H37.4a16.215,16.215,0,0,0-8.44,2.13A3.981,3.981,0,0,0,27,46.53a4.457,4.457,0,0,0,.05.63l.48,2.83a7.464,7.464,0,0,0,1.715-.267l-.2-1.211A4.12,4.12,0,0,1,29,47.948a3.577,3.577,0,0,1,1.715-3.042A13.946,13.946,0,0,1,38.1,43h9.8a13.946,13.946,0,0,1,7.385,1.906A3.577,3.577,0,0,1,57,47.948a4.12,4.12,0,0,1-.044.564l-.131.8A3.75,3.75,0,0,0,58,49.62l.52.09.43-2.55a4.457,4.457,0,0,0,.05-.63A3.981,3.981,0,0,0,57.04,43.13Z" style="fill:#f0e4ce"/><path d="M11,6c-5.01,0,.64,2.44,1.8,2.92C18.34,8.68,20,8,20,8,18.89,5.6,11,6,11,6Z" style="fill:#d66e0d"/><path d="M16.162,4c-5-1-10.764-.236-13,2-.894.894,1.213,1.988,3.814,2.925C7.508,8.972,8.062,9,8.64,9c1.044,0,1.989-.014,2.858-.037C6.581,7.909,1.248,6.257,8.162,5c8.41-1.529,11.552,1.029,12.569,2.32a2.145,2.145,0,0,0,.142-.368C20.361,5.846,19.114,4.59,16.162,4Z" style="fill:#f7bd51"/><path d="M3.162,6c2.236-2.236,8-3,13-2,2.952.59,4.2,1.846,4.711,2.952A3.341,3.341,0,0,0,21,6c0-1.8-2.29-3-9.81-3C4.18,3,1,4.5,1,6l.05.31c.344,1.2,2.647,2.324,5.926,2.615C4.375,7.988,2.268,6.894,3.162,6Z" style="fill:#ffe87f"/><path d="M8.162,5C1.248,6.257,6.581,7.909,11.5,8.963c.454-.012.893-.026,1.3-.043C11.64,8.44,5.99,6,11,6c0,0,7.89-.4,9,2a1.237,1.237,0,0,0,.731-.68C19.714,6.029,16.572,3.471,8.162,5Z" style="fill:#e39533"/><path d="M31,6s-7.89-.4-9,2c0,0,1.66.68,7.2.92C30.36,8.44,36.01,6,31,6Z" style="fill:#d66e0d"/><path d="M34,5C25.3,3.418,22.237,6.211,21.335,7.449A1.155,1.155,0,0,0,22,8c1.11-2.4,9-2,9-2,5.01,0-.64,2.44-1.8,2.92.452.019.94.034,1.447.047C35.568,7.913,40.923,6.259,34,5Z" style="fill:#e39533"/><path d="M39,6c-2.236-2.236-8-3-13-2-3.152.63-4.354,2.018-4.8,3.173a1.92,1.92,0,0,0,.133.276C22.237,6.211,25.3,3.418,34,5c6.923,1.259,1.568,2.913-3.353,3.967.83.02,1.726.033,2.713.033a18.607,18.607,0,0,0,1.889-.1C37.821,7.971,39.887,6.887,39,6Z" style="fill:#f7bd51"/><path d="M30.81,3C23.29,3,21,4.2,21,6a3.045,3.045,0,0,0,.2,1.173C21.646,6.018,22.848,4.63,26,4c5-1,10.764-.236,13,2,.887.887-1.179,1.971-3.751,2.9,3.159-.323,5.365-1.424,5.7-2.593L41,6C41,4.5,37.82,3,30.81,3Z" style="fill:#ffe87f"/><path d="M33,34c-5.01,0,.64,2.44,1.8,2.92C40.34,36.68,42,36,42,36,40.89,33.6,33,34,33,34Z" style="fill:#d66e0d"/><path d="M38.162,32c-5-1-10.764-.236-13,2-.894.894,1.213,1.988,3.814,2.925.532.047,1.086.075,1.664.075,1.044,0,1.989-.014,2.858-.037-4.917-1.054-10.25-2.706-3.336-3.963,8.41-1.529,11.552,1.029,12.569,2.32a2.145,2.145,0,0,0,.142-.368C42.361,33.846,41.114,32.59,38.162,32Z" style="fill:#f7bd51"/><path d="M25.162,34c2.236-2.236,8-3,13-2,2.952.59,4.2,1.846,4.711,2.952A3.341,3.341,0,0,0,43,34c0-1.8-2.29-3-9.81-3C26.18,31,23,32.5,23,34l.05.31c.344,1.2,2.647,2.324,5.926,2.615C26.375,35.988,24.268,34.894,25.162,34Z" style="fill:#ffe87f"/><path d="M30.162,33c-6.914,1.257-1.581,2.909,3.336,3.963.454-.012.893-.026,1.3-.043C33.64,36.44,27.99,34,33,34c0,0,7.89-.4,9,2a1.237,1.237,0,0,0,.731-.68C41.714,34.029,38.572,31.471,30.162,33Z" style="fill:#e39533"/><path d="M53,34s-7.89-.4-9,2c0,0,1.66.68,7.2.92C52.36,36.44,58.01,34,53,34Z" style="fill:#d66e0d"/><path d="M56,33c-8.7-1.582-11.763,1.211-12.665,2.449A1.155,1.155,0,0,0,44,36c1.11-2.4,9-2,9-2,5.01,0-.64,2.44-1.8,2.92.452.019.94.034,1.447.047C57.568,35.913,62.923,34.259,56,33Z" style="fill:#e39533"/><path d="M61,34c-2.236-2.236-8-3-13-2-3.152.63-4.354,2.018-4.8,3.173a1.92,1.92,0,0,0,.133.276C44.237,34.211,47.3,31.418,56,33c6.923,1.259,1.568,2.913-3.353,3.967.83.02,1.726.033,2.713.033a18.607,18.607,0,0,0,1.889-.1C59.821,35.971,61.887,34.887,61,34Z" style="fill:#f7bd51"/><path d="M52.81,31C45.29,31,43,32.2,43,34a3.045,3.045,0,0,0,.2,1.173C43.646,34.018,44.848,32.63,48,32c5-1,10.764-.236,13,2,.887.887-1.179,1.971-3.751,2.9,3.159-.323,5.365-1.424,5.7-2.593L63,34C63,32.5,59.82,31,52.81,31Z" style="fill:#ffe87f"/><path d="M31,14c5.11,0-1.05-4.23-2.08-4.91-5.28.26-6.81.91-6.81.91C23.22,14,31,14,31,14Z" style="fill:#d66e0d"/><path d="M11,14s7.78,0,8.89-4c0,0-1.53-.65-6.81-.91C12.05,9.77,5.89,14,11,14Z" style="fill:#d66e0d"/><path d="M8.162,14.88c8.26,2.223,11.445-1.4,12.519-3.337A3.6,3.6,0,0,0,19.89,10C18.78,14,11,14,11,14c-5.11,0,1.05-4.23,2.08-4.91-.512-.02-1.069-.038-1.653-.053C6.531,10.6,1.281,13.029,8.162,14.88Z" style="fill:#e39533"/><path d="M3.162,13.4c2.236,3.31,8,4.441,13,2.96a6.5,6.5,0,0,0,4.666-4.243c-.043-.213-.094-.4-.147-.574-1.074,1.941-4.259,5.56-12.519,3.337C1.281,13.029,6.531,10.6,11.427,9.037,10.575,9.015,9.655,9,8.64,9a11.145,11.145,0,0,0-1.827.157C4.287,10.524,2.286,12.1,3.162,13.4Z" style="fill:#f7bd51"/><path d="M16.162,16.36c-5,1.481-10.764.35-13-2.96-.876-1.3,1.125-2.876,3.651-4.243a8,8,0,0,0-4.873,2.5A3.642,3.642,0,0,0,1,14l.08.7a.06.06,0,0,1,.01.04C1.67,16.97,4.88,19,11.19,19,18.71,19,21,17,21,14a9.577,9.577,0,0,0-.172-1.883A6.5,6.5,0,0,1,16.162,16.36Z" style="fill:#ffe87f"/><path d="M34,14.88c6.887-1.853,1.622-4.286-3.278-5.847-.641.016-1.246.035-1.8.057C29.95,9.77,36.11,14,31,14c0,0-7.78,0-8.89-4a3.362,3.362,0,0,0-.733,1.348C22.34,13.226,25.452,17.181,34,14.88Z" style="fill:#e39533"/><path d="M26,16.36c5,1.481,10.764.35,13-2.96.869-1.286-1.095-2.852-3.593-4.211A11.171,11.171,0,0,0,33.36,9c-.955,0-1.828.013-2.638.033,4.9,1.561,10.165,3.994,3.278,5.847-8.548,2.3-11.66-1.654-12.623-3.532-.048.143-.089.31-.131.48A6.474,6.474,0,0,0,26,16.36Z" style="fill:#f7bd51"/><path d="M40.06,11.66a7.894,7.894,0,0,0-4.653-2.471c2.5,1.359,4.462,2.925,3.593,4.211-2.236,3.31-8,4.441-13,2.96a6.474,6.474,0,0,1-4.754-4.532A8.886,8.886,0,0,0,21,14c0,3,2.29,5,9.81,5,6.31,0,9.52-2.03,10.1-4.26a.06.06,0,0,1,.01-.04L41,14A3.642,3.642,0,0,0,40.06,11.66Z" style="fill:#ffe87f"/><path d="M58.8,41.578A17.272,17.272,0,0,0,49.3,39H36.7a17.272,17.272,0,0,0-9.5,2.578A4.9,4.9,0,0,0,25,45.694a5.934,5.934,0,0,0,.056.763l.54,3.426,1.2,7.7C26.8,60.015,34.056,62,43,62s16.2-1.985,16.2-4.418l1.26-8.038.484-3.087A5.934,5.934,0,0,0,61,45.694,4.9,4.9,0,0,0,58.8,41.578Zm1.152,5.23-.457,2.819L58.3,56.966C58.3,59.187,51.447,61,43,61s-15.3-1.813-15.3-4.034l-1.137-7.03-.51-3.128a5.1,5.1,0,0,1-.053-.7,4.436,4.436,0,0,1,2.083-3.758A16.721,16.721,0,0,1,37.05,40h11.9a16.721,16.721,0,0,1,8.967,2.354A4.436,4.436,0,0,1,60,46.112,5.1,5.1,0,0,1,59.947,46.808Z" style="fill:#e38931"/><path d="M57.917,42.354A16.721,16.721,0,0,0,48.95,40H37.05a16.721,16.721,0,0,0-8.967,2.354A4.436,4.436,0,0,0,26,46.112a5.1,5.1,0,0,0,.053.7l.51,3.128,1.137,7.03C27.7,59.187,34.553,61,43,61s15.3-1.813,15.3-4.034l1.19-7.339.457-2.819a5.1,5.1,0,0,0,.053-.7A4.436,4.436,0,0,0,57.917,42.354ZM58.95,47.16l-.43,2.55L57.4,56.35C57.4,58.36,50.95,60,43,60s-14.4-1.64-14.4-3.65l-1.07-6.36-.48-2.83a4.457,4.457,0,0,1-.05-.63,3.981,3.981,0,0,1,1.96-3.4A16.215,16.215,0,0,1,37.4,41H48.6a16.215,16.215,0,0,1,8.44,2.13A3.981,3.981,0,0,1,59,46.53,4.457,4.457,0,0,1,58.95,47.16Z" style="fill:#d97925"/><path d="M31.941,50.8a8.558,8.558,0,0,1,1.052.54,5.935,5.935,0,0,0,4.266.071c1.157-.331,2.8-1.311,3.954-.576a3.631,3.631,0,0,1,1.181,1.444A11.961,11.961,0,0,0,43.3,53.93a3.814,3.814,0,0,0,2.079,1.405,7.108,7.108,0,0,0,1.357.18,6.863,6.863,0,0,0,1.719-.045,2.5,2.5,0,0,0,1.483-.81,4.5,4.5,0,0,0,.689-2.192,2.623,2.623,0,0,1,1.064-1.978,3.268,3.268,0,0,1,2.212-.086c.865.215,1.69.563,2.559.758a7.465,7.465,0,0,0,1.783.158l.272-1.61L58,49.62a8.5,8.5,0,0,1-2.91-1.16A7.275,7.275,0,0,0,52,48a2.006,2.006,0,0,0-2,2v2a3,3,0,0,1-6,0V49a2.015,2.015,0,0,0-2-2c-2,0-3,3-5,3-1.47,0-2-2-4-2-1.75,0-1.98,1.82-5.47,1.99l.342,2.034c.381-.17.753-.378,1.113-.578A3.793,3.793,0,0,1,31.941,50.8Z" style="fill:#ebb070"/><path d="M54.31,52.919c-.4.478-.657,1.074-1.1,1.513-.357.352-.866.668-.869,1.169,0,.474.471.813.927.941a2.707,2.707,0,0,0,3.347-1.9,1.678,1.678,0,0,0,.038-.811C56.428,52.873,55.037,52.054,54.31,52.919Z" style="fill:#f4b774"/><path d="M50.3,56.352c-.2.036-.413.193-.4.4.014.176.186.3.347.366a2.192,2.192,0,0,0,1.06.18.593.593,0,0,0,.246-.062.425.425,0,0,0,.134-.558.74.74,0,0,0-.644-.286A3.366,3.366,0,0,0,50.3,56.352Z" style="fill:#f4b774"/><path d="M30.184,54.184a1.689,1.689,0,0,0-.153.826,2.376,2.376,0,0,0,.14,1.042,2.273,2.273,0,0,0,1.594,1.021,2.035,2.035,0,0,0,1.806-.123.688.688,0,0,0,.267-.44c.044-.395-.354-.675-.585-1a7.467,7.467,0,0,1-.4-.777C32.42,53.943,30.81,53.1,30.184,54.184Z" style="fill:#f4b774"/><path d="M34.993,56.47a.614.614,0,0,0-.012.563,1.239,1.239,0,0,0,.374.444,2.557,2.557,0,0,0,1.047.5.827.827,0,0,0,.585-.042.99.99,0,0,0,.353-.47.9.9,0,0,0,.126-.514C37.343,56.182,35.388,55.82,34.993,56.47Z" style="fill:#f4b774"/><path d="M35.806,53.286a1.06,1.06,0,0,0-.771-.259.593.593,0,0,0-.235.053.664.664,0,0,0-.3.573.554.554,0,0,0,.016.2.525.525,0,0,0,.116.186.967.967,0,0,0,1.251.274C36.229,54.05,36.082,53.537,35.806,53.286Z" style="fill:#f4b774"/><path d="M36.831,55.141c-.048.109.049.227.146.3a1.372,1.372,0,0,0,.821.254.217.217,0,0,0,.137-.037.162.162,0,0,0,.025-.192.509.509,0,0,0-.273-.2c-.088-.042-.158-.1-.242-.148C37.309,55.047,36.919,54.943,36.831,55.141Z" style="fill:#f4b774"/><path d="M48.12,57.94a.869.869,0,0,0-.39.094.359.359,0,0,0-.193.33.426.426,0,0,0,.252.3,1.848,1.848,0,0,0,.915.123.313.313,0,0,0,.146-.029.3.3,0,0,0,.113-.161.7.7,0,0,0,.05-.4C48.923,57.828,48.385,57.923,48.12,57.94Z" style="fill:#f4b774"/><path d="M50.29,57.954a.5.5,0,0,1,.281.065.392.392,0,0,1,.045.567.562.562,0,0,1-.8-.014C49.609,58.243,50,57.959,50.29,57.954Z" style="fill:#f4b774"/><path d="M48.632,56.614a.524.524,0,0,0-.32.049.26.26,0,0,0-.136.275.3.3,0,0,0,.08.13.66.66,0,0,0,.385.181.561.561,0,0,0,.369-.067C49.464,56.893,48.915,56.645,48.632,56.614Z" style="fill:#f4b774"/><path d="M44.392,57.621c-.34.075-.472.318-.683.582a.57.57,0,0,0-.151.3.443.443,0,0,0,.129.3,1.508,1.508,0,0,0,1.24.407,1.049,1.049,0,0,0,.834-.365.739.739,0,0,0,0-.768A1.215,1.215,0,0,0,44.392,57.621Z" style="fill:#f4b774"/><path d="M46.081,56.806a.452.452,0,0,0-.339.162.209.209,0,0,0-.045.123c0,.1.1.174.2.221a.825.825,0,0,0,.363.107.334.334,0,0,0,.311-.181C46.728,56.861,46.373,56.79,46.081,56.806Z" style="fill:#f4b774"/><path d="M38.854,57.668a1.168,1.168,0,0,0-.825.346c-.263.324.154.657.444.747a2.274,2.274,0,0,0,.485.094.6.6,0,0,0,.274-.027.7.7,0,0,0,.18-.122.743.743,0,0,0,.318-.453.474.474,0,0,0-.151-.37A.963.963,0,0,0,38.854,57.668Z" style="fill:#f4b774"/><path d="M36.856,58.562a.141.141,0,0,0-.018.178.339.339,0,0,0,.151.12.372.372,0,0,0,.408,0,.257.257,0,0,0,.071-.13.312.312,0,0,0-.594-.187" style="fill:#f4b774"/><path d="M40.075,57.045a.255.255,0,0,0,.085.088,1.118,1.118,0,0,0,.922.168c.339-.09.09-.615-.177-.653C40.716,56.621,39.93,56.745,40.075,57.045Z" style="fill:#f4b774"/><path d="M39.857,54.205a.31.31,0,0,0-.067.172c.005.109.119.177.221.214a1.64,1.64,0,0,0,.509.1.187.187,0,0,0,.134-.031.163.163,0,0,0,.044-.066.5.5,0,0,0-.033-.44C40.419,53.742,40.075,53.87,39.857,54.205Z" style="fill:#f4b774"/><path d="M41.307,58.113a.315.315,0,0,0-.161.3.339.339,0,0,0,.212.2c.294.134,1.547.331,1.344-.359C42.564,57.79,41.591,57.913,41.307,58.113Z" style="fill:#f4b774"/><path d="M41.307,55.113a.315.315,0,0,0-.161.3.339.339,0,0,0,.212.2c.294.134,1.547.331,1.344-.359C42.564,54.79,41.591,54.913,41.307,55.113Z" style="fill:#f4b774"/><path d="M43.127,57.154c.269-.305-.626-.343-.309-.031a.281.281,0,0,0,.217.067A.139.139,0,0,0,43.127,57.154Z" style="fill:#f4b774"/><path d="M4,30a.852.852,0,0,0-.008-.124L2.508,18.016c.153.1.3.2.469.294A17.148,17.148,0,0,0,11.185,20c3.507,0,7.882-.358,9.815-2.849C22.933,19.642,27.308,20,30.815,20a17.148,17.148,0,0,0,8.208-1.69c.166-.094.317-.194.469-.294l-.858,6.86,1.984.248L41.9,14.92c.007-.035.013-.07.018-.106l.006-.054a4.106,4.106,0,0,0,.066-.578l.008-.068h0c0-.038.009-.075.009-.113a4.535,4.535,0,0,0-.882-2.624l.81-4.863a2.02,2.02,0,0,0,.05-.3l.008-.048h0C41.988,6.109,42,6.056,42,6c0-.89-.545-2.134-3.147-3.01A26.562,26.562,0,0,0,30.815,2c-3.969,0-8,.265-9.815,1.84C19.183,2.265,15.154,2,11.185,2a26.562,26.562,0,0,0-8.038.99C.545,3.866,0,5.11,0,6c0,.056.012.109.017.164h0l.008.048a2.02,2.02,0,0,0,.05.3l.81,4.863A4.535,4.535,0,0,0,0,14c0,.038.008.075.009.113h0l.008.068a4.106,4.106,0,0,0,.066.578l.006.054c.005.036.011.071.018.106L2,30.07c.11,3.882,9.374,5.791,17.984,5.922l.03-2C9.5,33.833,4,31.308,4,30Zm7.185-12c-3.862,0-6.063-.78-7.229-1.435a3.557,3.557,0,0,1-1.9-2.122L2,13.967C2.034,12.084,4.749,10,8.639,10c.528,0,1.025.005,1.507.011C8.751,11.2,7.74,12.5,8.064,13.6,8.475,15,10.375,15,11,15c.295,0,6.193-.05,8.8-2.891A8.035,8.035,0,0,1,20,14C20,15.2,20,18,11.185,18ZM2.63,9.7l-.139-.835a9.723,9.723,0,0,0,.934.364A8.806,8.806,0,0,0,2.63,9.7ZM11.047,7h0a22.618,22.618,0,0,1,6.414.515c-1.035.148-2.494.3-4.494.392C12.275,7.614,11.6,7.292,11.047,7Zm17.983.906c-1.991-.093-3.448-.243-4.488-.392A22.947,22.947,0,0,1,30.954,7C30.406,7.292,29.726,7.613,29.03,7.905Zm2.859,5.024A4.471,4.471,0,0,1,31,13c-1.7,0-5.9-.454-7.435-2.342a37.385,37.385,0,0,1,5.08-.544A14.046,14.046,0,0,1,31.889,12.929ZM21.7,8.955c.044.016.111.038.188.062-.082.029-.142.052-.169.064a.989.989,0,0,0-.276.176A3.05,3.05,0,0,0,21,9.815a3.05,3.05,0,0,0-.442-.558.989.989,0,0,0-.276-.176c-.027-.012-.087-.035-.169-.064.077-.024.144-.046.188-.062a1.967,1.967,0,0,0,.7-.389A1.967,1.967,0,0,0,21.7,8.955Zm-8.344,1.159a37.439,37.439,0,0,1,5.08.543C16.9,12.546,12.7,13,11,13a4.471,4.471,0,0,1-.889-.071A14.046,14.046,0,0,1,13.355,10.114Zm24.689,6.451C36.878,17.22,34.677,18,30.815,18,22,18,22,15.2,22,14a8.083,8.083,0,0,1,.2-1.891C24.806,14.95,30.705,15,31,15c.625,0,2.525,0,2.936-1.4.324-1.1-.687-2.4-2.082-3.593.482-.006.979-.011,1.507-.011,3.89,0,6.605,2.084,6.636,3.967l-.054.476A3.557,3.557,0,0,1,38.044,16.565Zm.531-7.338a9.723,9.723,0,0,0,.934-.364L39.37,9.7A8.806,8.806,0,0,0,38.575,9.227ZM30.815,4a23.774,23.774,0,0,1,7.4.885c1.372.462,1.735.94,1.777,1.085l-.013.077C39.866,6.594,37.607,8,33.361,8L33.12,8c1.058-.824.96-1.372.9-1.7C33.769,5,31.966,4.989,31.051,5c-1.7-.087-6.721-.175-9.01,1.5A2.81,2.81,0,0,1,22,6C22,5.4,22.859,4,30.815,4ZM3.786,4.885A23.774,23.774,0,0,1,11.185,4C19.141,4,20,5.4,20,6a3.044,3.044,0,0,1-.039.5C17.674,4.826,12.658,4.914,11,5c-.968,0-2.769,0-3.017,1.3-.063.329-.161.877.9,1.7L8.639,8c-4.246,0-6.5-1.406-6.617-1.953L2.009,5.97C2.051,5.825,2.414,5.347,3.786,4.885Z"/><rect x="38.242" y="27" width="2.016" height="2" transform="translate(6.598 63.474) rotate(-82.875)"/><path d="M63.944,34.463c.016-.071.022-.145.031-.217l.015-.1h0c0-.047.014-.093.014-.141,0-.89-.545-2.134-3.147-3.01A26.562,26.562,0,0,0,52.815,30c-3.969,0-8,.265-9.815,1.84C41.183,30.265,37.154,30,33.185,30a26.562,26.562,0,0,0-8.038.99C22.545,31.866,22,33.11,22,34c0,.048.011.094.014.141h0l.015.1c.009.072.015.146.031.217l.943,6.6a6.654,6.654,0,0,0-.922,4.516L24,58.086C24.14,61.969,33.627,64,43,64s18.86-2.031,19-5.914l1.924-12.509A6.651,6.651,0,0,0,63,41.062ZM24.906,39.081c-.054.036-.1.079-.154.116l-.338-2.372a11.9,11.9,0,0,0,3,.9A17.66,17.66,0,0,0,24.906,39.081ZM33.047,35h0a22.68,22.68,0,0,1,6.413.515c-1.034.148-2.493.3-4.493.392C34.275,35.614,33.6,35.292,33.047,35Zm17.983.906c-1.991-.093-3.448-.243-4.487-.392A22.943,22.943,0,0,1,52.954,35C52.406,35.292,51.726,35.613,51.03,35.905Zm10.064,3.176a17.66,17.66,0,0,0-2.512-1.352,11.9,11.9,0,0,0,3-.9L61.248,39.2C61.2,39.16,61.148,39.117,61.094,39.081ZM52.815,32a23.774,23.774,0,0,1,7.4.885c1.4.469,1.747.956,1.779,1.092l-.007.054C61.91,34.568,59.643,36,55.361,36l-.241,0c1.058-.824.96-1.372.9-1.7C55.769,33,53.957,33,53.051,33c-1.7-.086-6.722-.175-9.01,1.494A2.789,2.789,0,0,1,44,34C44,33.4,44.859,32,52.815,32Zm-27.029.885a23.774,23.774,0,0,1,7.4-.885C41.141,32,42,33.4,42,34a3.044,3.044,0,0,1-.039.5c-2.287-1.67-7.3-1.581-8.961-1.5-.968,0-2.769,0-3.017,1.3-.063.329-.161.877.9,1.7l-.241,0c-4.282,0-6.549-1.432-6.625-1.969l-.007-.054C24.039,33.841,24.391,33.354,25.786,32.885Zm36.16,12.389L60.012,57.848A.964.964,0,0,0,60,58c0,1.357-6,4-17,4s-17-2.643-17-4a.964.964,0,0,0-.012-.152L24.054,45.274a4.62,4.62,0,0,1-.054-.7,4.536,4.536,0,0,1,2-3.817A17.924,17.924,0,0,1,36,38H50A17.924,17.924,0,0,1,60,40.752,4.536,4.536,0,0,1,62,44.569,4.62,4.62,0,0,1,61.946,45.274Z"/><path d="M57.551,42.274A17.179,17.179,0,0,0,48.6,40H37.4a17.172,17.172,0,0,0-8.95,2.274A4.95,4.95,0,0,0,26,46.531a4.783,4.783,0,0,0,.066.792l1.537,9.12c.063,1.336,1.445,2.419,4.109,3.219l.575-1.916c-2.433-.731-2.685-1.4-2.687-1.4a1.033,1.033,0,0,0-.014-.166l-.895-5.313a6.98,6.98,0,0,0,3.118-1.333A2,2,0,0,1,33,49a2.416,2.416,0,0,1,1.667.863A3.464,3.464,0,0,0,37,51a4.629,4.629,0,0,0,3.207-1.793C40.828,48.586,41.414,48,42,48a1,1,0,0,1,1,1v3a4,4,0,0,0,8,0V50a1,1,0,0,1,1-1,6.54,6.54,0,0,1,2.664.365c.215.1.428.215.642.327a8.153,8.153,0,0,0,2.06.833l-.22,1.309,1.972.332.816-4.844A4.762,4.762,0,0,0,60,46.531,4.951,4.951,0,0,0,57.551,42.274Zm-1.315,5.647c-.237-.124-.474-.248-.712-.362A8.058,8.058,0,0,0,52,47a3,3,0,0,0-3,3v2a2,2,0,0,1-4,0V49a3,3,0,0,0-3-3,4.629,4.629,0,0,0-3.207,1.793C38.172,48.414,37.586,49,37,49c-.281,0-.551-.228-1-.631A4.317,4.317,0,0,0,33,47a3.858,3.858,0,0,0-2.333.892A5.058,5.058,0,0,1,28.36,48.9l-.321-1.907A2.732,2.732,0,0,1,28,46.531a2.965,2.965,0,0,1,1.48-2.543A15.183,15.183,0,0,1,37.4,42H48.6a15.183,15.183,0,0,1,7.92,1.988A2.965,2.965,0,0,1,58,46.531a2.712,2.712,0,0,1-.039.46L57.7,48.555A6.971,6.971,0,0,1,56.236,47.921Z"/><path d="M33.8,60.178c.645.132,1.333.249,2.059.352l.28-1.981c-.684-.1-1.333-.207-1.94-.331Z"/><path d="M56.414,56.18a.836.836,0,0,0-.014.158C56.2,57.242,51.293,59,43,59c-1.688,0-3.339-.075-4.906-.222l-.188,1.991C39.536,60.922,41.25,61,43,61c5.669,0,15.229-.963,15.4-4.557l.384-2.277-1.972-.332Z"/><path d="M13.555,23.9l.89-1.792a10.473,10.473,0,0,0-1.471-.487,13.35,13.35,0,0,1-1.449-.468l-1.059,1.7a8.836,8.836,0,0,0,1.953.693C12.813,23.653,13.409,23.824,13.555,23.9Z"/><path d="M22.813,21.583l-1.626-1.166a10.259,10.259,0,0,1-.863.846,9.125,9.125,0,0,0-1.137,1.154l1.626,1.166a10.259,10.259,0,0,1,.863-.846A9.125,9.125,0,0,0,22.813,21.583Z"/><path d="M17.17,26.985l-.34-1.97a14.041,14.041,0,0,0-3.276,1.09l.892,1.79A12.134,12.134,0,0,1,17.17,26.985Z"/><path d="M26.273,24.687l1.454-1.374-.174-.186a18.117,18.117,0,0,0-1.98-1.946l-1.146,1.638A20.509,20.509,0,0,1,26.093,24.5Z"/><path d="M29.147,27.478l1.706,1.044a7.047,7.047,0,0,1,1.727-1.708l-1.16-1.628A8.913,8.913,0,0,0,29.147,27.478Z"/><path d="M36.232,23.027C35.734,22.909,35,22.347,35,22H33c0,1.577,1.651,2.706,2.768,2.973Z"/><path d="M18,32h2a3.341,3.341,0,0,0-1.293-2.207A3.853,3.853,0,0,1,18,28.958.19.19,0,0,1,18,29H16a3.341,3.341,0,0,0,1.293,2.207A5,5,0,0,1,18,32Z"/><path d="M9,26a2.747,2.747,0,0,0,1.464,2.845l1.072-1.69C11,26.816,11,26.816,11,26Z"/><path d="M7.373,21.058a7.96,7.96,0,0,0-.689-.788L5.316,21.73a6.155,6.155,0,0,1,.5.582,4.5,4.5,0,0,0,1.9,1.646l.589-1.91A5.211,5.211,0,0,1,7.373,21.058Z"/><path d="M23.6,29.8A4.651,4.651,0,0,1,26,29V27a6.634,6.634,0,0,0-3.6,1.2Z"/><path d="M37,26H35a4.155,4.155,0,0,1-1.568,2.177l1.136,1.646C35.416,29.237,37,27.515,37,26Z"/><path d="M6.632,26.674l-1.89.652a4.4,4.4,0,0,0,2.966,2.631l.584-1.914A2.489,2.489,0,0,1,6.632,26.674Z"/></g></svg>