<svg xmlns="http://www.w3.org/2000/svg" viewBox="0 0 64 64"><g id="_10-Croissant" data-name="10-Croissant"><path d="M40,52.01V53s0,6-3,6a13.42,13.42,0,0,1-2.65-.26,2.968,2.968,0,0,1-2.34-2.72Z" style="fill:#ad5f2a"/><path d="M40,11v.99L32.01,7.98a2.968,2.968,0,0,1,2.34-2.72A13.42,13.42,0,0,1,37,5C40,5,40,11,40,11Z" style="fill:#ad5f2a"/><path d="M43,13.6a4.278,4.278,0,0,0-.74-.48L40,11.99V11s0-6-3-6a13.42,13.42,0,0,0-2.65.26,2.968,2.968,0,0,0-2.34,2.72L28,5.96a4.463,4.463,0,0,1,3.98-4.4L36,1h1.79A4,4,0,0,1,41.7,4.13l.44,2.01A36.864,36.864,0,0,1,43,13.6Z" style="fill:#f7b64e"/><path d="M42.26,50.88A4.278,4.278,0,0,0,43,50.4a36.864,36.864,0,0,1-.86,7.46l-.44,2.01A4,4,0,0,1,37.79,63H36l-4.02-.56A4.463,4.463,0,0,1,28,58.04l4.01-2.02a2.968,2.968,0,0,0,2.34,2.72A13.42,13.42,0,0,0,37,59c3,0,3-6,3-6v-.99Z" style="fill:#f7b64e"/><path d="M32.01,56.02,28,58.04l-.36.18a2,2,0,0,1-2.57-.77l-1.5-2.5A4.018,4.018,0,0,1,23,52.89V50l-.03-.15L26,49.23l2-.41,16.84-3.45c.03-.01.06-.01.09-.02l-.55,2.74A4.014,4.014,0,0,1,43,50.4a4.278,4.278,0,0,1-.74.48L40,52.01Z" style="fill:#eea439"/><path d="M28,5.96l4.01,2.02L40,11.99l2.26,1.13a4.278,4.278,0,0,1,.74.48,4.014,4.014,0,0,1,1.38,2.31l.55,2.74c-.03-.01-.06-.01-.09-.02L40,17.64l-2-.41L22.97,14.15,23,14V11.11a4.018,4.018,0,0,1,.57-2.06l1.5-2.5a2,2,0,0,1,2.57-.77Z" style="fill:#eea439"/><path d="M44.93,45.35c-.03.01-.06.01-.09.02L28,48.82l-2,.41-3.03.62-.55.11A1.978,1.978,0,0,1,20,48.09V46.58a3.664,3.664,0,0,1,.42-1.71l1.34-2.55L48,39.24v2.4A3.853,3.853,0,0,1,44.93,45.35Z" style="fill:#f7b64e"/><path d="M44.93,18.65A3.853,3.853,0,0,1,48,22.36v2.4L21.76,21.68l-1.34-2.55A3.664,3.664,0,0,1,20,17.42V15.91a1.978,1.978,0,0,1,2.42-1.87l.55.11L38,17.23l2,.41,4.84.99C44.87,18.64,44.9,18.64,44.93,18.65Z" style="fill:#f7b64e"/><path d="M47.65,27.5l2.35.29.2.03A2,2,0,0,1,52,29.81v4.38a2,2,0,0,1-1.8,1.99l-.2.03-5,.63-2,.25L18.75,40.15a5.874,5.874,0,0,1-2.48-.21A5.982,5.982,0,0,1,12,34.2V29.8a5.982,5.982,0,0,1,4.27-5.74,5.874,5.874,0,0,1,2.48-.21l4.25.54,2,.25,2,.25Z" style="fill:#e58d1f"/><path d="M50,36.21v1.01a2,2,0,0,1-1.77,1.99l-.23.03L21.76,42.32l-1.29.15a4,4,0,0,1-4.2-2.53,5.874,5.874,0,0,0,2.48.21L43,37.09l2-.25Z" style="fill:#e58d1f"/><path d="M50,26.78v1.01l-2.35-.29L27,24.89l-2-.25-2-.25-4.25-.54a5.874,5.874,0,0,0-2.48.21,4,4,0,0,1,4.2-2.53l1.29.15L48,24.76l.23.03A2,2,0,0,1,50,26.78Z" style="fill:#e58d1f"/><path d="M37,57a13.42,13.42,0,0,1-2.65-.26,2.9,2.9,0,0,1-1.687-1.048l-.653.328a2.968,2.968,0,0,0,2.34,2.72A13.42,13.42,0,0,0,37,59c3,0,3-6,3-6v-.99l-.057.029C39.789,53.754,39.208,57,37,57Z" style="fill:#854920"/><path d="M40,11s0-6-3-6a13.42,13.42,0,0,0-2.65.26,2.968,2.968,0,0,0-2.34,2.72l.653.328A2.9,2.9,0,0,1,34.35,7.26,13.42,13.42,0,0,1,37,7c2.208,0,2.789,3.246,2.943,4.961L40,11.99Z" style="fill:#854920"/><path d="M44.84,45.37,41,46.157,28,48.82l-2,.41-3.03.62L23,50v2.89a3.923,3.923,0,0,0,.072.711l13.552-3.566a1,1,0,0,1,1.112,1.481l-1.4,2.333L40,52.01l2.26-1.13A4.278,4.278,0,0,0,43,50.4a4.014,4.014,0,0,0,1.38-2.31l.55-2.74C44.9,45.36,44.87,45.36,44.84,45.37Z" style="fill:#bf5d1b"/><path d="M44.38,15.91A4.014,4.014,0,0,0,43,13.6a4.278,4.278,0,0,0-.74-.48L40,11.99,36,9.984,36,10l1.736,2.893a1,1,0,0,1-1.112,1.482l-13.6-3.58C23.013,10.9,23,11,23,11.11V14l-.03.15L38,17.23l2,.41.972.2,3.868.791c.03.01.06.01.09.02Z" style="fill:#bf5d1b"/><path d="M42.981,39.829,21.76,42.32l-1.34,2.55a3.465,3.465,0,0,0-.158.419l17.35-2.263A3,3,0,0,1,41,46v.157l3.84-.787c.03-.01.06-.01.09-.02A3.853,3.853,0,0,0,48,41.64v-2.4Z" style="fill:#c96b1c"/><path d="M44.93,18.65c-.03-.01-.06-.01-.09-.02l-3.868-.791a2.989,2.989,0,0,1-3.36,2.719L20.1,18.274a3.591,3.591,0,0,0,.318.856l1.34,2.55,21.181,2.486L48,24.76v-2.4A3.853,3.853,0,0,0,44.93,18.65Z" style="fill:#c96b1c"/><path d="M41,46.157l-.087.017-.533,2.787a4.111,4.111,0,0,1-2.12,2.926l-1.089.571-.834,1.391L40,52.01l2.26-1.13A4.278,4.278,0,0,0,43,50.4a4.014,4.014,0,0,0,1.38-2.31l.55-2.74c-.03.01-.06.01-.09.02Z" style="fill:#ad5419"/><path d="M39,12.792a4.249,4.249,0,0,1,1.38,2.422l.5,2.606.093.019,3.868.791c.03.01.06.01.09.02l-.55-2.74A4.014,4.014,0,0,0,43,13.6a4.278,4.278,0,0,0-.74-.48L40,11.99,36,9.984,36,10l.966,1.61,1.294.678A4.262,4.262,0,0,1,39,12.792Z" style="fill:#ad5419"/><path d="M44,42.2a4,4,0,0,1-3,3.868v.092l3.84-.787c.03-.01.06-.01.09-.02A3.853,3.853,0,0,0,48,41.64v-2.4l-4,.47Z" style="fill:#bf5d1b"/><path d="M44.93,18.65c-.03-.01-.06-.01-.09-.02l-3.868-.791c-.007.081-.031.156-.045.235l0,.013A4,4,0,0,1,44,21.978v2.313l4,.469v-2.4A3.853,3.853,0,0,0,44.93,18.65Z" style="fill:#bf5d1b"/><path d="M50.2,27.82l-.2-.03-2.35-.29L27,24.89l-2-.25-2-.25-4.25-.54a5.874,5.874,0,0,0-2.48.21,5.983,5.983,0,0,0-4.009,4.032A3,3,0,0,1,15.3,26.33L39.015,28.7a3.316,3.316,0,0,1,0,6.6L15.3,37.67a3,3,0,0,1-3.038-1.762A5.983,5.983,0,0,0,16.27,39.94a5.874,5.874,0,0,0,2.48.21L43,37.09l2-.25,5-.63.2-.03A2,2,0,0,0,52,34.19V29.81A2,2,0,0,0,50.2,27.82Z" style="fill:#bf5d1b"/><path d="M43,37.09,18.75,40.15a5.874,5.874,0,0,1-2.48-.21,3.96,3.96,0,0,0,.966,1.435L40.717,38.02a1.993,1.993,0,0,1,2.264,1.809L48,39.24l.23-.03A2,2,0,0,0,50,37.22V36.21l-5,.63Z" style="fill:#d67626"/><path d="M18.75,23.85l4.25.54,2,.25,2,.25L47.65,27.5l2.35.29V26.78a2,2,0,0,0-1.77-1.99L48,24.76l-5.059-.594a2,2,0,0,1-2.224,1.508L17.538,22.363a3.962,3.962,0,0,0-1.268,1.7A5.874,5.874,0,0,1,18.75,23.85Z" style="fill:#d67626"/><path d="M42.8,11.72A3.218,3.218,0,0,1,40.8,9.071l-.473-4.463A2,2,0,0,0,38.36,3H33a2,2,0,0,0-2,2L28.769,3.512A4.436,4.436,0,0,0,28,5.96l4.01,2.02a2.968,2.968,0,0,1,2.34-2.72A13.42,13.42,0,0,1,37,5c3,0,3,6,3,6v.99l2.26,1.13a4.278,4.278,0,0,1,.74.48q-.01-.914-.069-1.828Z" style="fill:#e4812c"/><path d="M33,61h5.36a2,2,0,0,0,1.962-1.608l.473-4.463A3.218,3.218,0,0,1,42.8,52.28l.13-.052q.057-.914.069-1.828a4.278,4.278,0,0,1-.74.48L40,52.01V53s0,6-3,6a13.42,13.42,0,0,1-2.65-.26,2.968,2.968,0,0,1-2.34-2.72L28,58.04a4.436,4.436,0,0,0,.769,2.448L31,59A2,2,0,0,0,33,61Z" style="fill:#e4812c"/><path d="M50.2,27.82l-.2-.03-2.35-.29-.379-.048A2.667,2.667,0,0,1,48,29.329v5.342a2.665,2.665,0,0,1-.735,1.884L50,36.21l.2-.03A2,2,0,0,0,52,34.19V29.81A2,2,0,0,0,50.2,27.82Z" style="fill:#ad5419"/><path d="M15.009,27.974a2.228,2.228,0,0,0-.9.387.87.87,0,0,0-.326.874,1.149,1.149,0,0,0,.687.638,8.685,8.685,0,0,0,3.92.5q3.317-.107,6.621-.419c.289-.028.654-.127.683-.416.027-.268-.266-.443-.516-.542A17.549,17.549,0,0,0,15.009,27.974Z" style="fill:#f7b64e"/><path d="M31.106,32.378a14.069,14.069,0,0,0-3.216.666c-.436.189-.876.514-.881.946a.965.965,0,0,0,.671.813,3.4,3.4,0,0,0,1.175.171q2.168.053,4.338,0a14.386,14.386,0,0,0,1.937-.141,5.571,5.571,0,0,0,2.718-1.158,3.037,3.037,0,0,0,1.157-2.428,1.488,1.488,0,0,0-.121-.532,1.656,1.656,0,0,0-.351-.47c-.65-.643-2.248-1.534-3.267-1.154-1.113.416-1.123,1.937-2.1,2.572A5.479,5.479,0,0,1,31.106,32.378Z" style="fill:#f7b64e"/><path d="M13.008,33.681a2.788,2.788,0,0,0,.534,1.79,2.244,2.244,0,0,0,2.085.473,1.861,1.861,0,0,0,1.043-.467,1.066,1.066,0,0,0,.314-.538,3.8,3.8,0,0,0-.869-2.222,2.516,2.516,0,0,0-2.178-.7C13.031,32.134,12.971,32.887,13.008,33.681Z" style="fill:#f7b64e"/><path d="M24.061,14.938q-.823-.1-1.652-.167a1.414,1.414,0,0,0-.486.021.955.955,0,0,0-.6.659,2.807,2.807,0,0,0-.069.92.432.432,0,0,0,.065.261.4.4,0,0,0,.145.1,4.848,4.848,0,0,0,1.592.373q1.275.141,2.557.189a.765.765,0,0,0,.4-.057.644.644,0,0,0,.215-.725A2.4,2.4,0,0,0,24.061,14.938Z" style="fill:#ffcb78"/><path d="M25.357,7.961A2.5,2.5,0,0,0,24.7,9.232a.516.516,0,0,0,.033.33.428.428,0,0,0,.152.147,1.5,1.5,0,0,0,.684.177c.844.073,1.694.063,2.541.052a4.72,4.72,0,0,0,.913-.071,1.012,1.012,0,0,0,.455-.2.827.827,0,0,0,.225-.8,1.732,1.732,0,0,0-.427-.75,3.34,3.34,0,0,0-1.941-1.1,1.533,1.533,0,0,0-.989.086A4.588,4.588,0,0,0,25.357,7.961Z" style="fill:#f7b64e"/><path d="M30.747,9.25a1.432,1.432,0,0,0-.58,1.128.6.6,0,0,0,.047.262.719.719,0,0,0,.392.3A7.125,7.125,0,0,0,32,11.384a1.463,1.463,0,0,0,1.338-.208A1.063,1.063,0,0,0,33.3,9.8,2.077,2.077,0,0,0,30.747,9.25Z" style="fill:#f7b64e"/><path d="M24.061,48.34q-.823.1-1.652.167a1.39,1.39,0,0,1-.486-.021.955.955,0,0,1-.6-.658,2.815,2.815,0,0,1-.069-.921.434.434,0,0,1,.065-.261.4.4,0,0,1,.145-.1,4.848,4.848,0,0,1,1.592-.373q1.275-.141,2.557-.189a.765.765,0,0,1,.4.057.644.644,0,0,1,.215.725A2.4,2.4,0,0,1,24.061,48.34Z" style="fill:#ffcb78"/><path d="M25.357,55.317a2.5,2.5,0,0,1-.656-1.27.519.519,0,0,1,.033-.331.428.428,0,0,1,.152-.147,1.5,1.5,0,0,1,.684-.177c.844-.073,1.694-.063,2.541-.052a4.72,4.72,0,0,1,.913.071,1.012,1.012,0,0,1,.455.2.827.827,0,0,1,.225.8,1.732,1.732,0,0,1-.427.75,3.34,3.34,0,0,1-1.941,1.1,1.533,1.533,0,0,1-.989-.086A4.588,4.588,0,0,1,25.357,55.317Z" style="fill:#f7b64e"/><path d="M30.747,54.028a1.432,1.432,0,0,1-.58-1.127.6.6,0,0,1,.047-.263.719.719,0,0,1,.392-.3A7.125,7.125,0,0,1,32,51.894a1.463,1.463,0,0,1,1.338.208,1.063,1.063,0,0,1-.032,1.38A2.077,2.077,0,0,1,30.747,54.028Z" style="fill:#f7b64e"/><path d="M51,26.986V26.78a3,3,0,0,0-2-2.824v-1.6a4.786,4.786,0,0,0-3.2-4.485l-.432-2.158a4.964,4.964,0,0,0-1.385-2.569,37.072,37.072,0,0,0-.859-7.223l-.446-2.01A4.973,4.973,0,0,0,37.791,0H36a1.066,1.066,0,0,0-.138.009l-4,.555A5.448,5.448,0,0,0,27.2,4.622,2.978,2.978,0,0,0,24.21,6.04l-1.5,2.5A5,5,0,0,0,22,11.108v1.9a3.028,3.028,0,0,0-1.938.682A2.868,2.868,0,0,0,19,15.91v1.51a4.683,4.683,0,0,0,.534,2.175l.485.923a4.968,4.968,0,0,0-4.468,2.74A6.953,6.953,0,0,0,11,29.805V34.2a6.994,6.994,0,0,0,4.551,6.557A4.978,4.978,0,0,0,20,43.5h.017l-.476.905A4.681,4.681,0,0,0,19,46.58v1.51a2.868,2.868,0,0,0,1.062,2.223A3.034,3.034,0,0,0,22,51h0v1.891a5,5,0,0,0,.713,2.573l1.5,2.495a2.809,2.809,0,0,0,2.984,1.409,5.436,5.436,0,0,0,4.644,4.064l4.024.558A1.066,1.066,0,0,0,36,64h1.791a4.973,4.973,0,0,0,4.882-3.916l.446-2.009a37.134,37.134,0,0,0,.858-7.222,4.969,4.969,0,0,0,1.386-2.57l.432-2.158A4.786,4.786,0,0,0,49,41.64v-1.6a3,3,0,0,0,2-2.822v-.211a2.983,2.983,0,0,0,2-2.819V29.81A2.987,2.987,0,0,0,51,26.986ZM32.113,2.549,36.069,2h1.722A2.983,2.983,0,0,1,40.72,4.349l.446,2.01a35.036,35.036,0,0,1,.764,5.481L41,11.372V11c0-.716-.112-7-4-7a14.433,14.433,0,0,0-2.848.283,3.927,3.927,0,0,0-2.786,2.248l-2.307-1.16A3.476,3.476,0,0,1,32.113,2.549Zm6.864,7.807-5.829-2.93a1.931,1.931,0,0,1,1.4-1.182A12.411,12.411,0,0,1,37,6C38.326,6,38.866,8.618,38.977,10.356ZM21,15.91a.87.87,0,0,1,.329-.676,1.07,1.07,0,0,1,.891-.214L37.8,18.209l.4-1.959L24,13.343V11.108a2.992,2.992,0,0,1,.428-1.544l1.5-2.495a.993.993,0,0,1,1.264-.4l14.619,7.348A2.98,2.98,0,0,1,43.4,16.109l.252,1.258L40.2,16.66l-.4,1.959,4.841.99.046.011.026.006A2.871,2.871,0,0,1,47,22.36v1.279L22.4,20.75l-1.1-2.088A2.659,2.659,0,0,1,21,17.42ZM41.166,57.641,40.72,59.65A2.983,2.983,0,0,1,37.791,62H36.069l-3.983-.552a3.464,3.464,0,0,1-3.027-2.818l2.308-1.16a3.923,3.923,0,0,0,2.784,2.247A14.45,14.45,0,0,0,37,60c3.888,0,4-6.284,4-7v-.372l.931-.469A34.875,34.875,0,0,1,41.166,57.641Zm-8.017-1.067,5.828-2.93C38.866,55.383,38.326,58,37,58a12.428,12.428,0,0,1-2.453-.244A1.929,1.929,0,0,1,33.149,56.574Zm11.563-12.2-.023,0-.053.012L27.8,47.838l.4,1.959,15.454-3.164L43.4,47.891a2.98,2.98,0,0,1-1.594,2.092l-14.6,7.337a1,1,0,0,1-1.286-.389l-1.5-2.495A2.992,2.992,0,0,1,24,52.892V50.657l2.2-.45-.4-1.959-3.576.731a1.072,1.072,0,0,1-.895-.213A.87.87,0,0,1,21,48.09V46.58a2.657,2.657,0,0,1,.306-1.245L22.4,43.25,47,40.365V41.64A2.871,2.871,0,0,1,44.712,44.374ZM51,34.19a1,1,0,0,1-.926,1l-5.2.656.25,1.984,3.853-.486a1,1,0,0,1-.876.876L20.354,41.477a2.994,2.994,0,0,1-1.732-.321c.085-.007.169,0,.254-.016l24.249-3.059-.25-1.985-24.249,3.06A5,5,0,0,1,13,34.2v-4.39a5,5,0,0,1,5.626-4.961l4.248.536.25-1.984-4.248-.536c-.082-.011-.164-.01-.247-.018a2.994,2.994,0,0,1,1.725-.319L47.87,25.751l.242.032a1,1,0,0,1,.865.875L29.125,24.153l-.25,1.984L50.1,28.815a1,1,0,0,1,.9.995Z"/><rect x="25" y="23.758" width="2" height="2.017" transform="translate(-1.826 47.462) rotate(-82.81)"/></g></svg>