<svg xmlns="http://www.w3.org/2000/svg" viewBox="0 0 64 64"><g id="_13-Ciabatta" data-name="13-Ciabatta"><path d="M43,2C26,3,16,17,16,17V9a8,8,0,0,1,8-8H40a5.906,5.906,0,0,1,3.089.86Z" style="fill:#e58d1f"/><path d="M49,46v9a8,8,0,0,1-8,8H23C32,63,49,52,49,46Z" style="fill:#d17824"/><path d="M17,55C38,52,49,40,49,40v6C49,52,32,63,23,63a6,6,0,0,1-6-6V55.07l-.03-.03Z" style="fill:#bf5d1b"/><path d="M43.087,1.86A6,6,0,0,1,46,7C30.249,9.95,16.442,21.63,16.012,21.99L16,22V17S26,3,43,2Z" style="fill:#bf5d1b"/><path d="M17,38C30,31,47,25,47,25l.04-.04c.15.13.3.25.43.38A10.964,10.964,0,0,1,49,39.7V40S38,52,17,55l-.03.04c-.15-.13-.3-.25-.44-.38a10.974,10.974,0,0,1,0-16.13l.48-.45c-.02-.01-.03-.03-.05-.04Zm17.517,5.85c7.6-4.49,12.637-9.86,11.248-11.98s-8.679-.21-16.287,4.28S16.842,46.01,18.232,48.13,26.91,48.34,34.519,43.85Z" style="fill:#e58d1f"/><path d="M47,25S30,31,17,38l-.04.04c-.15-.13-.3-.25-.43-.38a10.959,10.959,0,0,1-.38-15.73l-.14.06C16.442,21.63,30.249,9.95,46,7v.17a11.667,11.667,0,0,1,1.469,1.17,10.974,10.974,0,0,1,0,16.13l-.48.45c.02.01.03.03.05.04ZM34.109,26.5C41.747,23.16,47,18.88,45.837,16.94s-8.309-.79-15.948,2.56S17,27.12,18.162,29.06,26.47,29.85,34.109,26.5Z" style="fill:#e58d1f"/><path d="M18.162,29.06C17,27.12,22.251,22.84,29.889,19.5s14.778-4.49,15.948-2.56-4.09,6.22-11.728,9.56S19.331,30.99,18.162,29.06Z" style="fill:#ffcd8e"/><path d="M34.519,43.85c-7.609,4.49-14.9,6.41-16.287,4.28s3.649-7.49,11.248-11.98,14.9-6.41,16.287-4.28S42.117,39.36,34.519,43.85Z" style="fill:#ffcd8e"/><path d="M17.226,12.672A11.765,11.765,0,0,1,16,10.159V17a31.4,31.4,0,0,1,2.656-3.088A3.667,3.667,0,0,1,17.226,12.672Z" style="fill:#bf5d1b"/><path d="M22.865,13.53a4.017,4.017,0,0,1-4.209.382A31.4,31.4,0,0,0,16,17v5l.01-.01C16.44,21.63,30.247,9.95,45.994,7a5.954,5.954,0,0,0-.761-2.912C36.2,5.1,26.772,10.582,22.865,13.53Z" style="fill:#854920"/><path d="M46,53.5v3.1A6.4,6.4,0,0,1,39.6,63H41a8,8,0,0,0,8-8V46c0,1.661-1.306,3.7-3.381,5.793A3.986,3.986,0,0,1,46,53.5Z" style="fill:#bf5d1b"/><path d="M17,55l-.03.04.03.03V57a6.028,6.028,0,0,0,.1,1.039c7.883.144,16.98-4.42,22.831-7.975a4,4,0,0,1,5.686,1.729C47.69,49.705,49,47.661,49,46V40S38,52,17,55Z" style="fill:#854920"/><path d="M47.468,8.34A11.6,11.6,0,0,0,46,7.17V7a52.407,52.407,0,0,0-9.962,2.99c2.48.932,5.387,2.7,6.5,6.024.213-.007.428-.014.624-.01,1.366.029,2.315.333,2.68.936.752,1.257-1.2,3.5-4.732,5.825-5.061,5.222-19.121,9.7-26.853,11.861a11.374,11.374,0,0,0,2.281,3.034c.13.13.28.25.43.38L17,38C30,31,47,25,47,25l.04-.04c-.02-.01-.03-.03-.05-.04l.48-.45A10.974,10.974,0,0,0,47.468,8.34Z" style="fill:#bf5d1b"/><path d="M47.468,25.34c-.13-.13-.28-.25-.43-.38L47,25s-3.695,1.3-8.956,3.406a10.33,10.33,0,0,1,5.024,2.607c.221-.008.44-.014.64,0a2.476,2.476,0,0,1,2.062.861c.489.745.169,1.9-.762,3.265C45.714,41.807,28.6,51.1,14.945,52.8a11.566,11.566,0,0,0,1.589,1.858c.14.13.29.25.44.38L17,55C38,52,49,40,49,40v-.3A10.966,10.966,0,0,0,47.468,25.34Z" style="fill:#bf5d1b"/><path d="M37.309,18.919c-.4.478-.657,1.074-1.1,1.513-.356.352-.865.668-.869,1.169,0,.474.471.813.928.941a2.705,2.705,0,0,0,3.346-1.9,1.678,1.678,0,0,0,.039-.811C39.427,18.873,38.036,18.054,37.309,18.919Z" style="fill:#f4b774"/><path d="M33.3,22.352c-.2.036-.413.193-.4.4.014.176.186.3.347.366a2.192,2.192,0,0,0,1.06.18.593.593,0,0,0,.246-.062.425.425,0,0,0,.134-.558.74.74,0,0,0-.644-.286A3.366,3.366,0,0,0,33.3,22.352Z" style="fill:#f4b774"/><path d="M24.183,42.184a1.689,1.689,0,0,0-.153.826,2.39,2.39,0,0,0,.14,1.042,2.277,2.277,0,0,0,1.594,1.021,2.035,2.035,0,0,0,1.806-.123.684.684,0,0,0,.267-.44c.045-.395-.353-.675-.585-1a7.46,7.46,0,0,1-.4-.777C26.419,41.943,24.809,41.1,24.183,42.184Z" style="fill:#f4b774"/><path d="M28.992,40.47a.614.614,0,0,0-.012.563,1.25,1.25,0,0,0,.374.444,2.557,2.557,0,0,0,1.047.5.827.827,0,0,0,.585-.042.99.99,0,0,0,.353-.47.905.905,0,0,0,.127-.514C31.342,40.182,29.387,39.82,28.992,40.47Z" style="fill:#f4b774"/><path d="M36.991,37.47a.617.617,0,0,0-.011.563,1.239,1.239,0,0,0,.374.444,2.551,2.551,0,0,0,1.047.5.828.828,0,0,0,.585-.042,1,1,0,0,0,.353-.47.9.9,0,0,0,.126-.514C39.341,37.182,37.386,36.82,36.991,37.47Z" style="fill:#f4b774"/><path d="M35.805,36.286a1.06,1.06,0,0,0-.771-.259.593.593,0,0,0-.235.053.664.664,0,0,0-.3.573.554.554,0,0,0,.016.2.525.525,0,0,0,.116.186.967.967,0,0,0,1.251.274C36.228,37.05,36.081,36.537,35.805,36.286Z" style="fill:#f4b774"/><path d="M36.83,36.141c-.048.109.048.227.146.3a1.372,1.372,0,0,0,.821.254.212.212,0,0,0,.136-.037.161.161,0,0,0,.026-.192.509.509,0,0,0-.273-.2c-.088-.042-.158-.1-.242-.148C37.308,36.047,36.918,35.943,36.83,36.141Z" style="fill:#f4b774"/><path d="M31.119,23.94a.873.873,0,0,0-.39.094.359.359,0,0,0-.193.33.425.425,0,0,0,.253.3,1.843,1.843,0,0,0,.914.123.313.313,0,0,0,.146-.029.293.293,0,0,0,.113-.161.7.7,0,0,0,.05-.4C31.923,23.828,31.384,23.923,31.119,23.94Z" style="fill:#f4b774"/><path d="M34.119,19.94a.869.869,0,0,0-.39.094.359.359,0,0,0-.193.33.426.426,0,0,0,.252.3,1.848,1.848,0,0,0,.915.123.313.313,0,0,0,.146-.029.3.3,0,0,0,.113-.161.7.7,0,0,0,.05-.4C34.922,19.828,34.384,19.923,34.119,19.94Z" style="fill:#f4b774"/><path d="M27.119,25.94a.873.873,0,0,0-.39.094.356.356,0,0,0-.192.33.424.424,0,0,0,.252.3,1.844,1.844,0,0,0,.914.123.311.311,0,0,0,.146-.029.293.293,0,0,0,.113-.161.7.7,0,0,0,.05-.4C27.923,25.828,27.384,25.923,27.119,25.94Z" style="fill:#f4b774"/><path d="M33.289,23.954a.5.5,0,0,1,.281.065.392.392,0,0,1,.045.567.562.562,0,0,1-.8-.014C32.608,24.243,32.994,23.959,33.289,23.954Z" style="fill:#f4b774"/><path d="M29.289,25.954a.494.494,0,0,1,.281.065.391.391,0,0,1,.045.567.561.561,0,0,1-.8-.014C28.608,26.243,28.994,25.959,29.289,25.954Z" style="fill:#f4b774"/><path d="M31.631,22.614a.524.524,0,0,0-.32.049.262.262,0,0,0-.136.275.3.3,0,0,0,.08.13.663.663,0,0,0,.385.181.561.561,0,0,0,.369-.067C32.463,22.893,31.914,22.645,31.631,22.614Z" style="fill:#f4b774"/><path d="M27.392,23.621c-.341.075-.473.318-.684.582a.569.569,0,0,0-.15.3.442.442,0,0,0,.128.3,1.509,1.509,0,0,0,1.24.407,1.052,1.052,0,0,0,.835-.365.741.741,0,0,0,0-.768A1.213,1.213,0,0,0,27.392,23.621Z" style="fill:#f4b774"/><path d="M29.08,22.806a.448.448,0,0,0-.338.162.21.21,0,0,0-.046.123c0,.1.1.174.2.221a.825.825,0,0,0,.363.107.336.336,0,0,0,.312-.181C29.727,22.861,29.372,22.79,29.08,22.806Z" style="fill:#f4b774"/><path d="M23.854,25.668a1.166,1.166,0,0,0-.825.346c-.264.324.153.657.443.747a2.3,2.3,0,0,0,.485.094.6.6,0,0,0,.274-.027.665.665,0,0,0,.18-.122.745.745,0,0,0,.319-.453.475.475,0,0,0-.152-.37A.961.961,0,0,0,23.854,25.668Z" style="fill:#f4b774"/><path d="M31.855,36.562a.141.141,0,0,0-.018.178.339.339,0,0,0,.151.12.372.372,0,0,0,.408,0,.257.257,0,0,0,.071-.13.312.312,0,0,0-.594-.187" style="fill:#f4b774"/><path d="M34.074,40.045a.255.255,0,0,0,.085.088,1.118,1.118,0,0,0,.922.168c.339-.09.09-.615-.177-.653C34.715,39.621,33.929,39.745,34.074,40.045Z" style="fill:#f4b774"/><path d="M39.856,35.205a.3.3,0,0,0-.067.172c0,.109.119.177.221.214a1.64,1.64,0,0,0,.509.1.189.189,0,0,0,.134-.031.174.174,0,0,0,.044-.066.5.5,0,0,0-.033-.44C40.418,34.742,40.073,34.87,39.856,35.205Z" style="fill:#f4b774"/><path d="M24.307,24.113a.314.314,0,0,0-.162.3.343.343,0,0,0,.212.2c.3.134,1.548.331,1.344-.359C25.564,23.79,24.591,23.913,24.307,24.113Z" style="fill:#f4b774"/><path d="M35.306,38.113a.313.313,0,0,0-.161.3.339.339,0,0,0,.212.2c.294.134,1.547.331,1.343-.359C36.563,37.79,35.59,37.913,35.306,38.113Z" style="fill:#f4b774"/><path d="M29.306,43.113a.315.315,0,0,0-.161.3.341.341,0,0,0,.212.2c.3.134,1.548.331,1.344-.359C30.563,42.79,29.591,42.913,29.306,43.113Z" style="fill:#f4b774"/><path d="M29.306,39.113a.315.315,0,0,0-.161.3.341.341,0,0,0,.212.2c.3.134,1.548.331,1.344-.359C30.563,38.79,29.591,38.913,29.306,39.113Z" style="fill:#f4b774"/><path d="M26.126,23.154c.269-.3-.625-.343-.309-.031a.281.281,0,0,0,.217.067A.135.135,0,0,0,26.126,23.154Z" style="fill:#f4b774"/><path d="M29.083,15.34a2.936,2.936,0,0,0-1.065,1.626.917.917,0,0,0,.029.486.737.737,0,0,0,.438.382,4.027,4.027,0,0,0,2.808-.263l3.4-1.17a5.772,5.772,0,0,0,2.631-1.164,2.333,2.333,0,0,0,.654-1.144,1.85,1.85,0,0,0-.785-1.79,2.765,2.765,0,0,0-2.379-.061,18.022,18.022,0,0,0-2.635.921A11.474,11.474,0,0,0,29.083,15.34Z" style="fill:#f7b64e"/><path d="M16.307,23.641a1.513,1.513,0,0,0-.3.646.621.621,0,0,0,.267.624.818.818,0,0,0,.395.088,3.93,3.93,0,0,0,1.441-.3,14.091,14.091,0,0,0,3.269-1.718,1.539,1.539,0,0,0,.552-.565.973.973,0,0,0-.379-1.152,1.731,1.731,0,0,0-1.3-.223A6.569,6.569,0,0,0,16.307,23.641Z" style="fill:#f7b64e"/><path d="M14.005,28.141A2.266,2.266,0,0,0,14,29.446a.988.988,0,0,0,1.012.682,1.009,1.009,0,0,0,.645-.468,3.014,3.014,0,0,0,.312-.755l.209-.676L16.4,27.5c.119-.386.182-.793-.193-1.05a1.356,1.356,0,0,0-.954-.2C14.522,26.426,14.157,27.5,14.005,28.141Z" style="fill:#f7b64e"/><path d="M16.307,40.641a1.513,1.513,0,0,0-.3.646.621.621,0,0,0,.267.624.818.818,0,0,0,.395.088,3.93,3.93,0,0,0,1.441-.3,14.091,14.091,0,0,0,3.269-1.718,1.539,1.539,0,0,0,.552-.565.973.973,0,0,0-.379-1.152,1.731,1.731,0,0,0-1.3-.223A6.569,6.569,0,0,0,16.307,40.641Z" style="fill:#f7b64e"/><path d="M14.005,45.141a2.266,2.266,0,0,0-.008,1.3.988.988,0,0,0,1.012.682,1.009,1.009,0,0,0,.645-.468,3.014,3.014,0,0,0,.312-.755l.209-.676L16.4,44.5c.119-.386.182-.793-.193-1.05a1.356,1.356,0,0,0-.954-.2C14.522,43.426,14.157,44.5,14.005,45.141Z" style="fill:#f7b64e"/><path d="M38.9,59.428a.846.846,0,0,0-.186.5.943.943,0,0,0,.181.619c.238.289.922.219,1.273.247a5.252,5.252,0,0,0,1.724-.173,2.952,2.952,0,0,0,1.79-1.084c.389-.585.814-2.485.1-2.972a1.824,1.824,0,0,0-.921-.231,1.111,1.111,0,0,0-1.172.464,20.59,20.59,0,0,1-1.461,1.617A9.273,9.273,0,0,0,38.9,59.428Z" style="fill:#e58d1f"/><path d="M18.788,4.542a6.089,6.089,0,0,0-.57.906A1.666,1.666,0,0,0,18,6.224a1.735,1.735,0,0,0,1.089,1.339,4.216,4.216,0,0,0,2.134.429,2.2,2.2,0,0,0,1.376-.5,20.126,20.126,0,0,1,1.515-1.658,4.407,4.407,0,0,1,1.964-.66,2.662,2.662,0,0,0,1.639-.943,1.353,1.353,0,0,0-.031-1.694,2.642,2.642,0,0,0-2-.535C23.242,2.05,20.255,2.573,18.788,4.542Z" style="fill:#f7b64e"/><path d="M52,16.4a12.176,12.176,0,0,0-5.009-9.759A7.009,7.009,0,0,0,40,0H24a9.011,9.011,0,0,0-9,9V21.7A11.948,11.948,0,0,0,15.542,38.1a11.977,11.977,0,0,0,.295,17.289c.054.051.108.1.163.147V57a7.008,7.008,0,0,0,7,7H41a9.01,9.01,0,0,0,9-9V40.007a11.969,11.969,0,0,0-1.542-15.1A12,12,0,0,0,52,16.4ZM24,2H36.553A40.457,40.457,0,0,0,17,14.206V9A7.008,7.008,0,0,1,24,2ZM48,55a7.008,7.008,0,0,1-7,7H31.775C38.267,59.375,44.811,54.613,48,50.462Zm.181-15.874a1,1,0,0,0-.162.448A38.246,38.246,0,0,1,43.755,43.2L44.948,44.8c1.277-.949,2.285-1.79,3.052-2.47V46c0,5.793-17.253,16-25,16a5.006,5.006,0,0,1-5-5V55.848a62.332,62.332,0,0,0,20.6-6.973l-.967-1.75a60.412,60.412,0,0,1-20.4,6.824l-.016-.014a9.985,9.985,0,0,1,0-14.675L17.7,38.8c.017-.017.023-.04.039-.058q1.337-.714,2.714-1.415l-.9-1.785c-.829.42-1.64.847-2.446,1.276a9.953,9.953,0,0,1-.236-14.194,1.068,1.068,0,0,0,.072-.1,79.491,79.491,0,0,1,22.388-12.7l-.653-1.891A79.837,79.837,0,0,0,17,19.912V17.335c1.4-1.82,10.9-13.4,25.975-14.33A4.981,4.981,0,0,1,44.92,6.212c-1.383.288-2.79.632-4.21,1.061l.58,1.915c1.455-.441,2.9-.793,4.307-1.077a10.7,10.7,0,0,1,1.19.955,9.984,9.984,0,0,1,0,14.674l-.466.441c-1.878.675-11.2,4.081-20.738,8.46l.834,1.818c9.218-4.234,18.245-7.553,20.422-8.339A9.987,9.987,0,0,1,48.181,39.126Z"/><path d="M28.975,35.288c-6.524,3.855-11.187,8.264-11.88,11.235a2.69,2.69,0,0,0,.3,2.157c.589.9,1.737,1.3,3.25,1.3,3.6,0,9.273-2.251,14.38-5.267h0c6.524-3.855,11.187-8.265,11.88-11.235a2.689,2.689,0,0,0-.3-2.156C44.612,28.266,36.227,31.006,28.975,35.288Zm15.983-2.266c-.471,2.017-4.383,6.088-10.951,9.967h0c-8.378,4.947-14.264,5.629-14.94,4.6a.864.864,0,0,1-.026-.608c.471-2.017,4.383-6.088,10.95-9.967C36.246,33.317,41.111,32,43.458,32c.8,0,1.3.152,1.475.415A.867.867,0,0,1,44.958,33.022Z"/><path d="M34.512,27.421c6.687-2.927,11.535-6.478,12.352-9.047a2.3,2.3,0,0,0-.17-1.948c-1.763-2.926-10.155-.934-17.206,2.153-6.687,2.927-11.535,6.478-12.352,9.047a2.3,2.3,0,0,0,.17,1.948c.605,1,1.99,1.429,3.836,1.429C24.672,31,29.881,29.448,34.512,27.421ZM19.019,28.542c-.045-.074,0-.241.023-.31.519-1.631,4.637-4.927,11.248-7.821C36.1,17.87,40.6,16.985,43.032,16.985c1.1,0,1.774.182,1.949.473.045.074,0,.241-.023.31C44.439,19.4,40.321,22.7,33.71,25.589,25.277,29.28,19.582,29.477,19.019,28.542Z"/><path d="M39.342,46.142l1.028,1.716q1.163-.7,2.183-1.375l-1.1-1.668Q40.464,45.468,39.342,46.142Z"/><path d="M22.439,36.341q.99-.483,1.989-.956l-.857-1.807q-1.007.477-2.01.966Z"/><path d="M26,23.988,25,24H24a2.916,2.916,0,0,0,3,3V25A.919.919,0,0,1,26,23.988Z"/><path d="M36.707,21.293A4.4,4.4,0,0,0,34,20v2a2.486,2.486,0,0,1,1.3.71Z"/><rect x="29.882" y="23.5" width="2.236" height="2" transform="translate(-7.684 16.45) rotate(-26.565)"/><rect x="39" y="18.382" width="2" height="2.236" transform="translate(4.67 46.556) rotate(-63.435)"/><path d="M25,42.988,24,43H23a2.916,2.916,0,0,0,3,3V44A.919.919,0,0,1,25,42.988Z"/><path d="M35,37a2.486,2.486,0,0,1,1.3.71l1.411-1.417A4.392,4.392,0,0,0,35,35Z"/><path d="M28,43a2.486,2.486,0,0,1,1.3.71l1.411-1.417A4.392,4.392,0,0,0,28,41Z"/><rect x="30.882" y="38.5" width="2.236" height="2" transform="translate(-14.287 18.481) rotate(-26.565)"/><rect x="40" y="33.382" width="2" height="2.236" transform="translate(-8.193 55.743) rotate(-63.435)"/></g></svg>