<svg xmlns="http://www.w3.org/2000/svg" viewBox="0 0 64 64"><g id="_17-plain_bread" data-name="17-plain bread"><path d="M43,9,34,23H30L21,9a7.482,7.482,0,0,1,1.64-3.82A10.307,10.307,0,0,1,31.08,1h1.84a10.307,10.307,0,0,1,8.44,4.18A7.482,7.482,0,0,1,43,9Z" style="fill:#d17824"/><path d="M17.28,21.3a3.453,3.453,0,0,0,.65,3.98L24,32c.97.97,2.63,1,4,1L17.67,20.59Zm28.79,3.98a3.453,3.453,0,0,0,.65-3.98l-.39-.71L36,33c1.37,0,3.03-.03,4-1ZM52,36a10.118,10.118,0,0,1-1.13,3.79C47.57,46.34,42,63,32,63S16.43,46.34,13.13,39.79A10.118,10.118,0,0,1,12,36V33a6.5,6.5,0,0,1,1-2.36V31a21.388,21.388,0,0,0,2,7c1.72,3.45,11.06,7.81,11.06,7.81L16.03,31.61a12.064,12.064,0,0,1-1.27-2.44A11.72,11.72,0,0,1,14,25V23a4.1,4.1,0,0,1,1.53-3.2l1.06-.7.04-.02a2.858,2.858,0,0,1-.07-1.76L18,12l8.98,9.75A4.277,4.277,0,0,0,30,23h4a4.277,4.277,0,0,0,3.02-1.25L46,12l1.44,5.32a2.858,2.858,0,0,1-.07,1.76l.04.02,1.06.7A4.1,4.1,0,0,1,50,23v2a11.72,11.72,0,0,1-.76,4.17,12.064,12.064,0,0,1-1.27,2.44L37.94,45.81S47.28,41.45,49,38a21.388,21.388,0,0,0,2-7v-.36A6.5,6.5,0,0,1,52,33Z" style="fill:#d17824"/><path d="M21,9l9,14a4.277,4.277,0,0,1-3.02-1.25L18,12S18.41,9,21,9Z" style="fill:#f7b64e"/><path d="M17.67,20.59,28,33c-1.37,0-3.03-.03-4-1l-6.07-6.72a3.453,3.453,0,0,1-.65-3.98Z" style="fill:#f7b64e"/><path d="M14.76,29.17a12.064,12.064,0,0,0,1.27,2.44l10.03,14.2S16.72,41.45,15,38a21.388,21.388,0,0,1-2-7v-.36c.11-.17.24-.34.37-.51Z" style="fill:#f7b64e"/><path d="M51,31a21.388,21.388,0,0,1-2,7c-1.72,3.45-11.06,7.81-11.06,7.81l10.03-14.2a12.064,12.064,0,0,0,1.27-2.44l1.39.96c.13.17.26.34.37.51Z" style="fill:#f7b64e"/><path d="M46.72,21.3a3.453,3.453,0,0,1-.65,3.98L40,32c-.97.97-2.63,1-4,1L46.33,20.59Z" style="fill:#f7b64e"/><path d="M46,12l-8.98,9.75A4.277,4.277,0,0,1,34,23L43,9C45.59,9,46,12,46,12Z" style="fill:#f7b64e"/><path d="M30.553,17.106a1.618,1.618,0,0,0,2.894,0l5.5-10.995A9.942,9.942,0,0,0,39.81,3.5,10.581,10.581,0,0,0,32.92,1H31.08a10.581,10.581,0,0,0-6.89,2.5,9.942,9.942,0,0,0,.866,2.616Z" style="fill:#e58d1f"/><path d="M51,31a21.388,21.388,0,0,1-2,7c-1.72,3.45-11.06,7.81-11.06,7.81l7.365-10.427q-.364.38-.737.751A17.093,17.093,0,0,1,32.505,41h-.01a17.093,17.093,0,0,1-12.063-4.866,59.454,59.454,0,0,1-5.324-6.191,12.505,12.505,0,0,0,.922,1.667l10.03,14.2S16.72,41.45,15,38a21.388,21.388,0,0,1-2-7v-.36A6.5,6.5,0,0,0,12,33v3a10.118,10.118,0,0,0,1.13,3.79C16.43,46.34,22,63,32,63S47.57,46.34,50.87,39.79A10.118,10.118,0,0,0,52,36V33a6.5,6.5,0,0,0-1-2.36Z" style="fill:#bf5d1b"/><path d="M32,59C22,59,16.43,42.34,13.13,35.79A11.875,11.875,0,0,1,12.077,32.7c-.026.1-.056.2-.077.3v3a10.118,10.118,0,0,0,1.13,3.79C16.43,46.34,22,63,32,63S47.57,46.34,50.87,39.79A10.118,10.118,0,0,0,52,36V33c-.021-.1-.051-.2-.077-.3A11.875,11.875,0,0,1,50.87,35.79C47.57,42.34,42,59,32,59Z" style="fill:#854920"/><path d="M32.939,3.2a20.212,20.212,0,0,0-3.031.181c-.756.1-2.262.4-2.4,1.364A1.974,1.974,0,0,0,28.232,6.5a3.547,3.547,0,0,0,2.543.552A14.49,14.49,0,0,0,33.9,6.574a3.666,3.666,0,0,0,1.721-.86c.541-.555.732-1.439,0-1.847A5.4,5.4,0,0,0,32.939,3.2Z" style="fill:#f7b64e"/><path d="M32.155,9.9a5.833,5.833,0,0,0-1,1.735.765.765,0,0,0,.1.731.735.735,0,0,0,.388.186,2.587,2.587,0,0,0,2.236-.677,4.15,4.15,0,0,0,1.159-2.092,2.8,2.8,0,0,0,.08-1.165,1.375,1.375,0,0,0-.621-.957C33.281,6.964,32.655,9.188,32.155,9.9Z" style="fill:#f7b64e"/><path d="M31.012,51.045a19.665,19.665,0,0,1-10.062.2C23.861,55.587,27.476,59,32,59c5.844,0,10.173-5.691,13.422-11.727-.511.035-1.022.087-1.527.164C39.482,48.112,35.343,49.966,31.012,51.045Z" style="fill:#a34f17"/><path d="M45.873,18.8c.271-1.028.154-2.824-.8-3.589a.9.9,0,0,0-.648-.208.937.937,0,0,0-.4.158c-.709.465-.768,1.252-1.021,1.923-.3.812-.666,1.593-.9,2.426a1.293,1.293,0,0,0,0,1,1.408,1.408,0,0,0,1.437.463A2.985,2.985,0,0,0,45.873,18.8Z" style="fill:#e58d1f"/><path d="M18.127,18.8c-.271-1.028-.154-2.824.8-3.589a.9.9,0,0,1,.648-.208.937.937,0,0,1,.4.158c.709.465.768,1.252,1.021,1.923.3.812.666,1.593.9,2.426a1.293,1.293,0,0,1,0,1,1.408,1.408,0,0,1-1.437.463A2.985,2.985,0,0,1,18.127,18.8Z" style="fill:#e58d1f"/><path d="M46.181,47.568l1.8.864c.328-.682.642-1.356.944-2.015l-1.819-.834C46.811,46.232,46.5,46.9,46.181,47.568Z"/><path d="M52.979,32.8A7.377,7.377,0,0,0,52,30.349L51.761,30c-.114-.164-.223-.33-.352-.491a1.034,1.034,0,0,0-.21-.2l-.774-.538A12.712,12.712,0,0,0,51,25V23a5.075,5.075,0,0,0-1.98-4.036l-.527-.351a3.783,3.783,0,0,0-.091-1.559L46.976,11.78A4.41,4.41,0,0,0,43.9,8.1a9.774,9.774,0,0,0-1.727-3.5A11.3,11.3,0,0,0,32.924,0H31.076a11.438,11.438,0,0,0-8.852,4.081L23.776,5.34A9.429,9.429,0,0,1,31.076,2h1.848a9.3,9.3,0,0,1,7.619,3.76,7.215,7.215,0,0,1,1.439,2.973l-3.037,4.726,1.682,1.082L43.5,10.074a2.256,2.256,0,0,1,1.412,1.633L36.763,20.55l2.578-4.009-1.682-1.082L33.455,22h-2.91L22.018,8.733a5.811,5.811,0,0,1,.924-2.205l-1.7-1.056a8.224,8.224,0,0,0-1.14,2.63,4.408,4.408,0,0,0-3.081,3.678L15.6,17.041a3.8,3.8,0,0,0-.091,1.57l-.53.353A5.075,5.075,0,0,0,13,23v2a12.721,12.721,0,0,0,.575,3.773l-.774.539a1.034,1.034,0,0,0-.21.2c-.129.161-.238.327-.352.491L12,30.348a7.376,7.376,0,0,0-.98,2.453A.947.947,0,0,0,11,33v3a10.953,10.953,0,0,0,1.236,4.234c.517,1.026,1.084,2.292,1.742,3.759C17.55,51.96,22.947,64,32,64c7.219,0,12.009-7.73,14.983-13.545l-1.781-.91C40.855,58.042,36.66,62,32,62c-7.758,0-12.836-11.329-16.2-18.825-.667-1.488-1.243-2.775-1.78-3.84A9.111,9.111,0,0,1,13,36v-.268a20.033,20.033,0,0,0,1.105,2.715c1.828,3.654,10.548,7.807,11.537,8.269a1,1,0,0,0,1.239-1.484L16.858,31.06A10.759,10.759,0,0,1,15,25V23a3.085,3.085,0,0,1,1.09-2.372l.2-.134.175.211-.081.147a4.421,4.421,0,0,0,.8,5.1l6.108,6.759C24.586,34,26.641,34,28,34a1,1,0,0,0,.769-1.64l-6-7.207-1.537,1.28,4.484,5.388a2.088,2.088,0,0,1-.976-.491l-6.108-6.759a2.457,2.457,0,0,1-.7-2.1l1.807,2.171,1.537-1.28-3.45-4.144a1.868,1.868,0,0,1-.306-1.645l.965-3.566,7.783,8.446A5.238,5.238,0,0,0,30,24H34a5.256,5.256,0,0,0,3.757-1.574l7.755-8.416.968,3.579a1.843,1.843,0,0,1-.284,1.6L35.231,32.36A1,1,0,0,0,36,34c1.359,0,3.414,0,4.742-1.33l6.038-6.685a4.453,4.453,0,0,0,.815-5.171l-.062-.111.175-.209.2.134A3.085,3.085,0,0,1,49,23v2a10.733,10.733,0,0,1-1.843,6.037l-10.038,14.2a1,1,0,0,0,1.239,1.484c.989-.462,9.709-4.615,11.537-8.269A19.991,19.991,0,0,0,51,35.731V36a9.121,9.121,0,0,1-1.023,3.336c-.535,1.063-1.11,2.345-1.776,3.829l-.19.426,1.824.818.191-.426c.657-1.462,1.223-2.725,1.738-3.748A10.963,10.963,0,0,0,53,36V33A.947.947,0,0,0,52.979,32.8ZM22.871,43.025c-2.844-1.6-6.123-3.765-6.976-5.472A20.6,20.6,0,0,1,14,31v-.036c.023-.032.042-.064.066-.1l.275-.191a13.377,13.377,0,0,0,.869,1.514Zm-3.78-31.317A2.251,2.251,0,0,1,20.5,10.077l6.73,10.469Zm26.24,12.9-6.038,6.686a2.175,2.175,0,0,1-1,.519l7.767-9.334A2.492,2.492,0,0,1,45.331,24.607Zm2.774,12.946c-.852,1.705-4.131,3.867-6.975,5.471l7.676-10.855a13.418,13.418,0,0,0,.854-1.491l.274.19c.024.031.042.064.065.1A20.345,20.345,0,0,1,48.105,37.553Z"/></g></svg>