<svg xmlns="http://www.w3.org/2000/svg" viewBox="0 0 64 64"><g id="_19-sausage_bread" data-name="19-sausage bread"><path d="M38,51.89V57a5.641,5.641,0,0,1-.25,1.7,5.992,5.992,0,0,1-11.4.3A5.8,5.8,0,0,1,26,57V50.04C29.98,50.14,34.72,50.51,38,51.89Z" style="fill:#d6774b"/><path d="M36.24,2.76a5.85,5.85,0,0,1,1.71,3.53A69.527,69.527,0,0,0,26.33,5.05a5.992,5.992,0,0,1,9.91-2.29Z" style="fill:#c75e2f"/><path d="M26,50.04V56H22.98a1,1,0,0,1-.72-1.68,7.121,7.121,0,0,0,1.76-4.31Q24.965,50.01,26,50.04Z" style="fill:#c96b1c"/><path d="M16.17,19.75a2.065,2.065,0,0,1,.34-.15,7.246,7.246,0,0,1,2.64-.56c9.19-.23,24.61.32,29.93,6.05A6.9,6.9,0,0,1,50,26.28a14.982,14.982,0,0,1,2,4.91v2.94a9.692,9.692,0,0,1-2.91,5.96L49,40c-2-2-6-7-19-7-11.45,0-16.69-3.88-17.78-4.8A9.334,9.334,0,0,1,12,26.21a7.06,7.06,0,0,1,2.08-5.01A6.934,6.934,0,0,1,16.17,19.75Z" style="fill:#e58d1f"/><path d="M51,17.19v2.94A9.58,9.58,0,0,1,50.28,23H50c-1-6-19-8-25-8a10.955,10.955,0,0,0-8.64,4.48A9.477,9.477,0,0,1,13,12.21,7.279,7.279,0,0,1,14.98,7.2a6.874,6.874,0,0,1,4.81-2.16c1.95-.05,4.18-.06,6.54.01A69.527,69.527,0,0,1,37.95,6.29h.01c5.03,1.05,9.33,2.88,11.14,5.99A15.431,15.431,0,0,1,51,17.19Z" style="fill:#e58d1f"/><path d="M50,23h.28a9.339,9.339,0,0,1-1.2,2.09c-5.32-5.73-20.74-6.28-29.93-6.05a7.246,7.246,0,0,0-2.64.56l-.15-.12A10.955,10.955,0,0,1,25,15C31,15,49,17,50,23Z" style="fill:#fcedaa"/><path d="M50,44.43v3.7a9.157,9.157,0,0,1-3.72,7.58c-.1.07-.2.14-.3.2C43.89,45.01,24.99,46,20,46s-8-5-8-5V38.31a7.985,7.985,0,0,1,2.34-5.65l.15-.15a9.685,9.685,0,0,0,4.2,2.62c4.06,1.23,10.36,1.46,19.31,2.93A39.281,39.281,0,0,1,48,41,4.1,4.1,0,0,1,50,44.43Z" style="fill:#e58d1f"/><path d="M49,40l.09.09A7.51,7.51,0,0,1,48,41a39.281,39.281,0,0,0-10-2.94c-8.95-1.47-15.25-1.7-19.31-2.93a9.685,9.685,0,0,1-4.2-2.62,9.274,9.274,0,0,1-2.27-4.31C13.31,29.12,18.55,33,30,33,43,33,47,38,49,40Z" style="fill:#fcedaa"/><path d="M24.02,50.01C23.3,50,22.62,50,22,50a16.26,16.26,0,0,1-4.16-.59,7.425,7.425,0,0,1-.94-.32,1.108,1.108,0,0,1-.19-.09A7.962,7.962,0,0,1,12,41.7V41s3,5,8,5,23.89-.99,25.98,9.91a15.975,15.975,0,0,1-4.03,1.88c-.19-.85-.97-4.05-1.95-4.79a9.1,9.1,0,0,0-2-1.11c-3.28-1.38-8.02-1.75-12-1.85Q24.965,50.01,24.02,50.01Z" style="fill:#fcedaa"/><path d="M40,53c.98.74,1.76,3.94,1.95,4.79a24.707,24.707,0,0,1-4.2.91A5.641,5.641,0,0,0,38,57V51.89A9.1,9.1,0,0,1,40,53Z" style="fill:#f7b64e"/><path d="M26.35,59H19.93A6.117,6.117,0,0,1,14,53V50.98A1.985,1.985,0,0,1,15.98,49h.73a1.108,1.108,0,0,0,.19.09,7.425,7.425,0,0,0,.94.32A16.26,16.26,0,0,0,22,50c.62,0,1.3,0,2.02.01a7.121,7.121,0,0,1-1.76,4.31A1,1,0,0,0,22.98,56H26v1A5.8,5.8,0,0,0,26.35,59Z" style="fill:#fcedaa"/><path d="M32,3a5.96,5.96,0,0,1,5.279,3.172c.221.042.452.073.671.118a5.85,5.85,0,0,0-1.71-3.53,5.992,5.992,0,0,0-9.91,2.29c.372.012.756.037,1.133.053A5.97,5.97,0,0,1,32,3Z" style="fill:#d6774b"/><path d="M49.1,12.28A10.811,10.811,0,0,0,44,8.16v2.583a3.994,3.994,0,0,1-4.913,3.894C34,13.418,26.084,12.093,21,14a16.569,16.569,0,0,0-6.235,3.733A9.257,9.257,0,0,0,16.36,19.48,10.955,10.955,0,0,1,25,15c6,0,24,2,25,8h.28A9.58,9.58,0,0,0,51,20.13V17.19A15.431,15.431,0,0,0,49.1,12.28Z" style="fill:#c96b1c"/><path d="M50,26.28a6.9,6.9,0,0,0-.92-1.19c-1.792-1.93-4.733-3.271-8.193-4.194A9.5,9.5,0,0,1,46,29.318a2.992,2.992,0,0,1-4.021,2.82A37.115,37.115,0,0,0,26,30c-4.648.387-9.732-1.968-13.936-4.691a7.05,7.05,0,0,0-.064.9,9.334,9.334,0,0,0,.22,1.99C13.31,29.12,18.55,33,30,33c13,0,17,5,19,7l.09.09A9.692,9.692,0,0,0,52,34.13V31.19A14.982,14.982,0,0,0,50,26.28Z" style="fill:#c96b1c"/><path d="M48,41a35.9,35.9,0,0,0-6.3-2.168A6.471,6.471,0,0,1,45,44.475,2,2,0,0,1,42.144,46.3,23.344,23.344,0,0,0,32,44c-7.275,0-16.185.806-20-4.307V41s3,5,8,5,23.89-.99,25.98,9.91c.1-.06.2-.13.3-.2A9.157,9.157,0,0,0,50,48.13v-3.7A4.1,4.1,0,0,0,48,41Z" style="fill:#c96b1c"/><path d="M50,23c-1-6-19-8-25-8a10.955,10.955,0,0,0-8.64,4.48l.15.12a7.246,7.246,0,0,1,2.64-.56l.724-.016A7.454,7.454,0,0,1,25,17c3.967,0,19.73,0,24.868,6.832A8.709,8.709,0,0,0,50.28,23Z" style="fill:#f7b64e"/><path d="M49,40c-2-2-6-7-19-7-11.45,0-16.69-3.88-17.78-4.8a9.264,9.264,0,0,0,1.114,2.742C15.152,32.124,21.622,33.437,25,34c6,1,18.128.951,23.586,6.549.151-.128.317-.275.5-.459Z" style="fill:#f7b64e"/><path d="M20,46c-5,0-8-5-8-5v.7a8.067,8.067,0,0,0,.208,1.73A8.6,8.6,0,0,0,20,48c6,0,20,1,22,4a12.262,12.262,0,0,1,1.914,5.034A14.353,14.353,0,0,0,45.98,55.91C43.89,45.01,24.99,46,20,46Z" style="fill:#f7b64e"/><path d="M41.95,57.79c-.19-.85-.97-4.05-1.95-4.79a9.1,9.1,0,0,0-2-1.11v1.5c.873.383,2,.995,2,1.608,0,.884,0,2.546-2.073,2.921a5.236,5.236,0,0,1-.177.779A24.707,24.707,0,0,0,41.95,57.79Z" style="fill:#e58d1f"/><path d="M26,57V56H22.98a1,1,0,0,1-.72-1.68,7.121,7.121,0,0,0,1.76-4.31C23.3,50,22.62,50,22,50a16.26,16.26,0,0,1-4.16-.59,7.425,7.425,0,0,1-.94-.32,1.108,1.108,0,0,1-.19-.09h-.73A1.978,1.978,0,0,0,14.2,50.125a14.031,14.031,0,0,0,4.218,1.606,1.992,1.992,0,0,1,1.54,2.5,4.609,4.609,0,0,0-.2,1.984.969.969,0,0,0,.976.781,2.258,2.258,0,0,1,2.24,2H26.35A5.8,5.8,0,0,1,26,57Z" style="fill:#f7b64e"/><path d="M48,15c0,2.5-2.2,3.066-3.934,3.13,3.21,1.2,5.588,2.8,5.934,4.87h.28A9.58,9.58,0,0,0,51,20.13V17.19a15.431,15.431,0,0,0-1.9-4.91A10.811,10.811,0,0,0,44,8.16v1.961A4.629,4.629,0,0,1,48,15Z" style="fill:#a65117"/><path d="M50,26.28a6.9,6.9,0,0,0-.92-1.19,11.934,11.934,0,0,0-3.47-2.474A13.147,13.147,0,0,1,49,31c0,3.516-3.433,4.284-6.277,4.318A19.247,19.247,0,0,1,49,40l.09.09A9.692,9.692,0,0,0,52,34.13V31.19A14.982,14.982,0,0,0,50,26.28Z" style="fill:#a65117"/><path d="M48,41a30.827,30.827,0,0,0-3.672-1.41C46.017,41.773,48.54,45.69,47,48c-1.962,2.943-7.771-2.756-12.711-1.087,5.529,1.135,10.659,3.616,11.691,9,.1-.06.2-.13.3-.2A9.157,9.157,0,0,0,50,48.13v-3.7A4.1,4.1,0,0,0,48,41Z" style="fill:#a65117"/><path d="M26,50.04V52.9a36.174,36.174,0,0,1,5.326-.087,5.088,5.088,0,0,1,.058,10.138A5.795,5.795,0,0,0,37.75,58.7,5.641,5.641,0,0,0,38,57V51.89C34.72,50.51,29.98,50.14,26,50.04Z" style="fill:#c75e2f"/><path d="M18.5,53.684c-.265-.259-.528-.522-.8-.778a3.746,3.746,0,0,0-.621-.417c-.473-.3-1.085-.741-1.621-.3a1.308,1.308,0,0,0-.352.783,2.89,2.89,0,0,0-.057,1.256,2.212,2.212,0,0,0,.925,1.19,2.9,2.9,0,0,0,1.336.574,1.59,1.59,0,0,0,1.343-.448,1.256,1.256,0,0,0,.218-1.409A2.007,2.007,0,0,0,18.5,53.684Z" style="fill:#fffced"/><path d="M16.11,8.187a4.576,4.576,0,0,1,2.268-1.926,6.652,6.652,0,0,1,2.049-.25,17.847,17.847,0,0,1,2.988.116,6.005,6.005,0,0,1,2.764,1.086A1.75,1.75,0,0,1,27,8.618c-.05.737-.8,1.188-1.468,1.467a26.068,26.068,0,0,1-5.958,1.593c-1.1.175-3.512.754-4.363-.268C14.535,10.6,15.672,8.867,16.11,8.187Z" style="fill:#f7b64e"/><path d="M33.156,7.693a5.817,5.817,0,0,0-2.583-.668,3.129,3.129,0,0,0-1.488.143A1.721,1.721,0,0,0,28,8.668a1.753,1.753,0,0,0,.608,1.288,3.232,3.232,0,0,0,1.218.627A9.528,9.528,0,0,0,32.682,11a1.211,1.211,0,0,0,.665-.136,1.626,1.626,0,0,0,.539-1.023,2.56,2.56,0,0,0,.11-.8A1.709,1.709,0,0,0,33.156,7.693Z" style="fill:#f7b64e"/><path d="M16.11,22.187a4.576,4.576,0,0,1,2.268-1.926,6.652,6.652,0,0,1,2.049-.25,17.847,17.847,0,0,1,2.988.116,6.005,6.005,0,0,1,2.764,1.086,1.75,1.75,0,0,1,.818,1.4c-.05.737-.8,1.188-1.468,1.467a26.068,26.068,0,0,1-5.958,1.593c-1.1.175-3.512.754-4.363-.268C14.535,24.6,15.672,22.867,16.11,22.187Z" style="fill:#f7b64e"/><path d="M33.156,21.693a5.817,5.817,0,0,0-2.583-.668,3.129,3.129,0,0,0-1.488.143A1.721,1.721,0,0,0,28,22.668a1.753,1.753,0,0,0,.608,1.288,3.232,3.232,0,0,0,1.218.627A9.528,9.528,0,0,0,32.682,25a1.211,1.211,0,0,0,.665-.136,1.626,1.626,0,0,0,.539-1.023,2.56,2.56,0,0,0,.11-.8A1.709,1.709,0,0,0,33.156,21.693Z" style="fill:#f7b64e"/><path d="M14.741,39.824a6.432,6.432,0,0,0,3.349,2.624,8.758,8.758,0,0,0,3.934.508,2.8,2.8,0,0,0,1.284-.385A1.506,1.506,0,0,0,24,41.355,1.976,1.976,0,0,0,22.919,39.8c-.9-.563-1.916-.879-2.791-1.494-.94-.66-1.677-1.633-2.576-2.361-.743-.6-2.6-1.582-3.21-.37A4.751,4.751,0,0,0,14.741,39.824Z" style="fill:#f7b64e"/><path d="M25.513,41.782a3.161,3.161,0,0,0,2.027.981A10.455,10.455,0,0,0,32,42.754a1.273,1.273,0,0,0,.783-.456,1.537,1.537,0,0,0,.174-1.183,2.039,2.039,0,0,0-.567-.988,3.427,3.427,0,0,0-1.864-.834,10.7,10.7,0,0,0-4.442-.1C25.01,39.454,24.579,40.648,25.513,41.782Z" style="fill:#f7b64e"/><path d="M31.019,59.782a1.708,1.708,0,0,0,.032.687.773.773,0,0,0,.53.506.969.969,0,0,0,.963-.358,1.781,1.781,0,0,0,.283-.887l.125-.973a2.16,2.16,0,0,0-.057-1.14c-.269-.633-1.091-.894-1.471-.224A6.1,6.1,0,0,0,31.019,59.782Z" style="fill:#b8572b"/><path d="M29.061,60.617a1.99,1.99,0,0,0,1.294.551.2.2,0,0,0,.1-.015.176.176,0,0,0,.074-.127.653.653,0,0,0-.122-.461c-.089-.136-.206-.252-.3-.382a3.8,3.8,0,0,1-.412-.774,1.445,1.445,0,0,0-.285-.47.515.515,0,0,0-.5-.149C28.066,59.069,28.673,60.243,29.061,60.617Z" style="fill:#b8572b"/><path d="M34.963,60.617a1.988,1.988,0,0,1-1.293.551.192.192,0,0,1-.1-.015.174.174,0,0,1-.075-.127.653.653,0,0,1,.122-.461c.09-.136.206-.252.3-.382a3.753,3.753,0,0,0,.412-.774,1.48,1.48,0,0,1,.285-.47.517.517,0,0,1,.5-.149C35.958,59.069,35.351,60.243,34.963,60.617Z" style="fill:#b8572b"/><path d="M27,56.216a3.494,3.494,0,0,0,.071.85,1.225,1.225,0,0,0,.783.909.821.821,0,0,0,.963-.534,1.921,1.921,0,0,0,.081-.52l.083-1.278a1.943,1.943,0,0,0-.113-1.01,1.179,1.179,0,0,0-.405-.424.837.837,0,0,0-.811-.156C26.909,54.409,27,55.478,27,56.216Z" style="fill:#ffd6b0"/><path d="M16.1,39.787a1.59,1.59,0,0,0,.626.515,3.791,3.791,0,0,0,.912.333.9.9,0,0,0,.663-.042.908.908,0,0,0,.343-.709,2.361,2.361,0,0,0-.438-1.76C17.022,36.7,15.213,38.416,16.1,39.787Z" style="fill:#fffced"/><path d="M21.328,21.344c.264.109.548.306.546.591,0,.306-.326.5-.608.612-.822.34-1.673.606-2.523.871a1.282,1.282,0,0,1-.923.049,1.179,1.179,0,0,1,.139-2.079A4.981,4.981,0,0,1,21.328,21.344Z" style="fill:#fffced"/><path d="M21.328,7.344c.264.109.548.306.546.591,0,.306-.326.5-.608.612-.822.34-1.673.606-2.523.871a1.282,1.282,0,0,1-.923.049,1.179,1.179,0,0,1,.139-2.079A4.981,4.981,0,0,1,21.328,7.344Z" style="fill:#fffced"/><path d="M38.215,23.874a.333.333,0,0,0-.042.261.338.338,0,0,0,.083.125,1.3,1.3,0,0,0,.5.289,3.992,3.992,0,0,0,1.228.241c.863.032,1.065-.878.27-1.189C39.693,23.383,38.57,23.231,38.215,23.874Z" style="fill:#fffced"/><path d="M22.85,37.021q.961.147,2.02.285l.26-1.983c-.692-.091-1.351-.182-1.979-.278Z"/><path d="M53,34.132V31.188a.932.932,0,0,0-.02-.2,16.169,16.169,0,0,0-2.127-5.231,8.12,8.12,0,0,0-.514-.736A10.84,10.84,0,0,0,52,20.13V17.19A.969.969,0,0,0,51.982,17a16.56,16.56,0,0,0-2.018-5.227C48.269,8.865,44.5,6.748,38.8,5.463A6.941,6.941,0,0,0,32,0a6.972,6.972,0,0,0-6.319,4.036C24.477,4.009,23.246,4,21.993,4l.014,2c1.461-.009,2.906.006,4.291.046A67.786,67.786,0,0,1,37.747,7.27l.056.009c5.465,1.147,8.975,3,10.433,5.505A14.626,14.626,0,0,1,50,17.287l.005,2.746c-.02.2-.05.4-.081.588C45.521,15.246,29.323,14,25,14a11.673,11.673,0,0,0-8.723,4.01A8.55,8.55,0,0,1,14,12.21a6.253,6.253,0,0,1,1.7-4.319A5.873,5.873,0,0,1,19.818,6.04l.2,0-.027-2-.222,0a7.872,7.872,0,0,0-5.511,2.473A8.252,8.252,0,0,0,12,12.21a10.571,10.571,0,0,0,2.8,7.138A8.085,8.085,0,0,0,11,26.211a10.276,10.276,0,0,0,.3,2.486l-.01.01.018.017a10.186,10.186,0,0,0,1.838,3.762A8.919,8.919,0,0,0,11,38.31V41.7a8.984,8.984,0,0,0,3.194,6.909A2.967,2.967,0,0,0,13,50.979V53a6.713,6.713,0,0,0,2.011,4.845A6.7,6.7,0,0,0,19.93,60H25.7a6.959,6.959,0,0,0,12.775-.412,25.669,25.669,0,0,0,3.778-.845,16.994,16.994,0,0,0,4.593-2.209A10.091,10.091,0,0,0,51,48.13v-3.7a4.748,4.748,0,0,0-1.428-3.421A10.817,10.817,0,0,0,53,34.132ZM32,2a4.965,4.965,0,0,1,4.575,3.014,70.908,70.908,0,0,0-8.646-.9A4.984,4.984,0,0,1,32,2ZM19.173,20.041c6.148-.151,14.88.044,21.559,1.845l.521-1.932c-6.9-1.858-15.812-2.067-22.089-1.914A9.358,9.358,0,0,1,25,16c7.745,0,23.241,2.528,24.014,7.164l.1-.016c-.07.139-.141.269-.213.395a17.472,17.472,0,0,0-5.568-2.955l-.652,1.891c3.213,1.106,5.388,2.561,6.467,4.325A14.257,14.257,0,0,1,51,31.29l.005,2.743a8.527,8.527,0,0,1-1.947,4.6C46.787,36.31,42.144,32,30,32c-10.359,0-15.463-3.274-16.87-4.359a8.24,8.24,0,0,1-.13-1.43A6.214,6.214,0,0,1,19.173,20.041ZM39,53.542c.132.086.279.166.4.256a8.568,8.568,0,0,1,1.348,3.277c-.576.153-1.167.288-1.779.4.01-.159.034-.313.034-.476ZM40.6,52.2a10.078,10.078,0,0,0-2.214-1.233c-2.752-1.157-6.8-1.788-12.361-1.928C24.547,49,23.168,49,22,49a15.244,15.244,0,0,1-3.89-.553,6.513,6.513,0,0,1-.831-.282c-.1-.04-.184-.1-.279-.14V48h-.05A6.846,6.846,0,0,1,13.5,44.29,9.74,9.74,0,0,0,20,47c.336,0,.735-.005,1.188-.01,5.888-.059,21.251-.234,23.654,8.452a15.065,15.065,0,0,1-2.185,1.037C42.2,54.74,41.52,52.9,40.6,52.2ZM16.466,56.473A4.767,4.767,0,0,1,15,53V50.979A.98.98,0,0,1,15.979,50h.508l.016.008a8.439,8.439,0,0,0,1.079.368A17.233,17.233,0,0,0,22,51c.891,0,1.909,0,3,.019v3.975l-1.989-.011a7.935,7.935,0,0,0,1.049-1.511L22.3,52.528a5.879,5.879,0,0,1-.785,1.132,2.007,2.007,0,0,0-.331,2.176A1.956,1.956,0,0,0,22.983,57H25a6.907,6.907,0,0,0,.086,1H19.93A4.718,4.718,0,0,1,16.466,56.473Zm20.325,1.945a4.992,4.992,0,0,1-9.5.239A4.8,4.8,0,0,1,27,57V51.078a34.323,34.323,0,0,1,10,1.5V57A4.687,4.687,0,0,1,36.791,58.418ZM49,48.13A8.455,8.455,0,0,1,46.543,54.2c-3.345-9.445-19.2-9.264-25.378-9.206C20.721,45,20.33,45,20,45c-3.8,0-6.383-3.4-7-4.3V38.31a6.931,6.931,0,0,1,1.533-4.364A10.569,10.569,0,0,0,18.4,36.083a24.643,24.643,0,0,0,2.41.587l.386-1.963a22.518,22.518,0,0,1-2.214-.538,8.44,8.44,0,0,1-4.56-3.372C17.29,32.279,22.274,34,30,34c10.526,0,14.814,3.269,17.133,5.535a42.883,42.883,0,0,0-8.971-2.466c-3.746-.612-7-1.007-9.869-1.354l-1.171-.142-.243,1.985,1.174.142c2.85.346,6.081.738,9.785,1.344a39.277,39.277,0,0,1,9.633,2.812A3.048,3.048,0,0,1,49,44.43Z"/></g></svg>