<svg xmlns="http://www.w3.org/2000/svg" viewBox="0 0 64 64"><g id="_20-หausage_waffle" data-name="20-หausage waffle"><rect x="9" y="1" width="20" height="56" rx="8" ry="8" style="fill:#f7b64e"/><rect x="17" y="57" width="4" height="6" style="fill:#eea439"/><path d="M19.5,48.5l6.63,6.63A7.938,7.938,0,0,1,21,57H17a7.873,7.873,0,0,1-4.56-1.44Z" style="fill:#f7b64e"/><polygon points="29 39 29 48 24.5 43.5 29 39" style="fill:#f7b64e"/><polygon points="14.5 43.5 9 49 9 39 9.5 38.5 14.5 43.5" style="fill:#f7b64e"/><rect x="15.964" y="39.964" width="7.071" height="7.071" transform="translate(-25.048 26.529) rotate(-45)" style="fill:#f7b64e"/><path d="M29,48v1a7.961,7.961,0,0,1-2.87,6.13L19.5,48.5l5-5Z" style="fill:#e58d1f"/><polygon points="29 38 29 39 24.5 43.5 19.5 38.5 24.5 33.5 29 38" style="fill:#e58d1f"/><polygon points="29 29 29 38 24.5 33.5 29 29" style="fill:#f7b64e"/><polygon points="29 28 29 29 24.5 33.5 19.5 28.5 24.5 23.5 29 28" style="fill:#e58d1f"/><polygon points="29 19 29 28 24.5 23.5 29 19" style="fill:#f7b64e"/><polygon points="29 18 29 19 24.5 23.5 19.5 18.5 24.5 13.5 26.5 15.5 29 18" style="fill:#e58d1f"/><polygon points="29 9 29 18 26.5 15.5 24.5 13.5 29 9" style="fill:#f7b64e"/><path d="M29,9l-4.5,4.5-2-2-3-3,6.06-6.06A7.948,7.948,0,0,1,29,9Z" style="fill:#e58d1f"/><path d="M25.56,2.44,19.5,8.5l-1-1L13.05,2.05A7.872,7.872,0,0,1,17,1h4A7.873,7.873,0,0,1,25.56,2.44Z" style="fill:#f7b64e"/><polygon points="24.5 13.5 19.5 18.5 14.5 13.5 18.5 9.5 19.5 8.5 22.5 11.5 24.5 13.5" style="fill:#f7b64e"/><rect x="15.964" y="19.964" width="7.071" height="7.071" transform="translate(-10.906 20.672) rotate(-45)" style="fill:#f7b64e"/><rect x="15.964" y="29.964" width="7.071" height="7.071" transform="translate(-17.977 23.601) rotate(-45)" style="fill:#f7b64e"/><path d="M19.5,8.5l-1,1-4,4L9.06,8.06a7.967,7.967,0,0,1,3.99-6.01L18.5,7.5Z" style="fill:#e58d1f"/><polygon points="19.5 18.5 14.5 23.5 9.5 18.5 10.5 17.5 14.5 13.5 19.5 18.5" style="fill:#e58d1f"/><rect x="10.964" y="24.964" width="7.071" height="7.071" transform="translate(-15.906 18.601) rotate(-45)" style="fill:#e58d1f"/><rect x="10.964" y="34.964" width="7.071" height="7.071" transform="translate(-22.977 21.529) rotate(-45)" style="fill:#e58d1f"/><path d="M19.5,48.5l-7.06,7.06A7.948,7.948,0,0,1,9,49l5.5-5.5Z" style="fill:#e58d1f"/><path d="M14.5,13.5l-4,4-1,1L9,18V9a7.3,7.3,0,0,1,.06-.94Z" style="fill:#f7b64e"/><polygon points="14.5 23.5 9.5 28.5 9 28 9 19 9.5 18.5 14.5 23.5" style="fill:#f7b64e"/><polygon points="14.5 33.5 9.5 38.5 9 38 9 29 9.5 28.5 14.5 33.5" style="fill:#f7b64e"/><path d="M24.951,55.951a8.038,8.038,0,0,0,1.179-.821L19.5,48.5l-7.06,7.06a7.845,7.845,0,0,0,1.283.717L19.5,50.5Z" style="fill:#d4821d"/><path d="M25.5,44.5l-1-1-5,5,6.63,6.63a8.074,8.074,0,0,0,1-1.005L21.5,48.5Z" style="fill:#bf5d1b"/><path d="M13.5,44.5l4,4-6.143,6.143a7.9,7.9,0,0,0,1.083.917L19.5,48.5l-5-5Z" style="fill:#bf5d1b"/><path d="M19.5,6.5l-1-1L14.438,1.438a7.841,7.841,0,0,0-1.388.612L18.5,7.5l1,1,6.06-6.06a7.845,7.845,0,0,0-1.283-.717Z" style="fill:#d4821d"/><polygon points="19.5 10.5 22.5 13.5 23.5 14.5 24.5 13.5 22.5 11.5 19.5 8.5 18.5 9.5 14.5 13.5 15.5 14.5 18.5 11.5 19.5 10.5" style="fill:#d4821d"/><polygon points="14.5 15.5 17.5 18.5 18.5 19.5 19.5 18.5 17.5 16.5 14.5 13.5 13.5 14.5 9.5 18.5 10.5 19.5 13.5 16.5 14.5 15.5" style="fill:#bf5d1b"/><polygon points="19.5 20.5 22.5 23.5 23.5 24.5 24.5 23.5 22.5 21.5 19.5 18.5 18.5 19.5 14.5 23.5 15.5 24.5 18.5 21.5 19.5 20.5" style="fill:#d4821d"/><polygon points="14.5 25.5 17.5 28.5 18.5 29.5 19.5 28.5 17.5 26.5 14.5 23.5 13.5 24.5 9.5 28.5 10.5 29.5 13.5 26.5 14.5 25.5" style="fill:#bf5d1b"/><polygon points="19.5 30.5 22.5 33.5 23.5 34.5 24.5 33.5 22.5 31.5 19.5 28.5 18.5 29.5 14.5 33.5 15.5 34.5 18.5 31.5 19.5 30.5" style="fill:#d4821d"/><polygon points="19.5 40.5 22.5 43.5 23.5 44.5 24.5 43.5 22.5 41.5 19.5 38.5 18.5 39.5 14.5 43.5 15.5 44.5 18.5 41.5 19.5 40.5" style="fill:#d4821d"/><polygon points="14.5 35.5 17.5 38.5 18.5 39.5 19.5 38.5 17.5 36.5 14.5 33.5 13.5 34.5 9.5 38.5 10.5 39.5 13.5 36.5 14.5 35.5" style="fill:#bf5d1b"/><path d="M21.5,8.5l5.143-5.143A7.9,7.9,0,0,0,25.56,2.44L19.5,8.5l3,3,2,2,1-1-1-1Z" style="fill:#bf5d1b"/><path d="M13.05,2.05a7.967,7.967,0,0,0-1.173.827L16.5,7.5l1,1-1,1-3,3,1,1,4-4,1-1-1-1Z" style="fill:#bf5d1b"/><polygon points="24.5 13.5 25.5 14.5 29 11 29 9 24.5 13.5" style="fill:#d4821d"/><path d="M9.06,8.06A7.3,7.3,0,0,0,9,9v2a7.3,7.3,0,0,1,.06-.94L13.5,14.5l1-1Z" style="fill:#d4821d"/><polygon points="27.5 16.5 24.5 13.5 23.5 14.5 19.5 18.5 20.5 19.5 23.5 16.5 24.5 15.5 27.5 18.5 28.5 19.5 29 19 29 18 27.5 16.5" style="fill:#bf5d1b"/><polygon points="27.5 26.5 24.5 23.5 23.5 24.5 19.5 28.5 20.5 29.5 23.5 26.5 24.5 25.5 27.5 28.5 28.5 29.5 29 29 29 28 27.5 26.5" style="fill:#bf5d1b"/><polygon points="24.5 33.5 23.5 34.5 19.5 38.5 20.5 39.5 23.5 36.5 24.5 35.5 27.5 38.5 28.5 39.5 29 39 29 38 27.5 36.5 24.5 33.5" style="fill:#bf5d1b"/><polygon points="24.5 23.5 25.5 24.5 29 21 29 19 24.5 23.5" style="fill:#d4821d"/><path d="M9.06,18.06A7.3,7.3,0,0,0,9,19v2a7.3,7.3,0,0,1,.06-.94L13.5,24.5l1-1Z" style="fill:#d4821d"/><polygon points="24.5 33.5 25.5 34.5 29 31 29 29 24.5 33.5" style="fill:#d4821d"/><path d="M9.06,28.06A7.3,7.3,0,0,0,9,29v2a7.3,7.3,0,0,1,.06-.94L13.5,34.5l1-1Z" style="fill:#d4821d"/><polygon points="24.5 43.5 25.5 44.5 29 41 29 39 24.5 43.5" style="fill:#d4821d"/><path d="M9.06,38.06A7.3,7.3,0,0,0,9,39v2a7.3,7.3,0,0,1,.06-.94L13.5,44.5l1-1Z" style="fill:#d4821d"/><path d="M17,57h4v6H19V60a1,1,0,0,0-1-1H17Z" style="fill:#854920"/><path d="M21,1H17A8,8,0,0,0,9,9V49a8,8,0,0,0,8,8h4a8,8,0,0,0,8-8V9A8,8,0,0,0,21,1Zm6,47a7,7,0,0,1-7,7H18a7,7,0,0,1-7-7V10a7,7,0,0,1,7-7h2a7,7,0,0,1,7,7Z" style="fill:#bf5d1b"/><rect x="35" y="1" width="20" height="56" rx="8" ry="8" style="fill:#f7b64e"/><rect x="43" y="57" width="4" height="6" style="fill:#eea439"/><path d="M45.5,48.5l6.63,6.63A7.938,7.938,0,0,1,47,57H43a7.873,7.873,0,0,1-4.56-1.44Z" style="fill:#f7b64e"/><polygon points="55 39 55 48 50.5 43.5 55 39" style="fill:#f7b64e"/><polygon points="40.5 43.5 35 49 35 39 35.5 38.5 40.5 43.5" style="fill:#f7b64e"/><rect x="41.964" y="39.964" width="7.071" height="7.071" transform="translate(-17.433 44.914) rotate(-45)" style="fill:#f7b64e"/><path d="M55,48v1a7.961,7.961,0,0,1-2.87,6.13L45.5,48.5l5-5Z" style="fill:#e58d1f"/><polygon points="55 38 55 39 50.5 43.5 45.5 38.5 50.5 33.5 55 38" style="fill:#e58d1f"/><polygon points="55 29 55 38 50.5 33.5 55 29" style="fill:#f7b64e"/><polygon points="55 28 55 29 50.5 33.5 45.5 28.5 50.5 23.5 55 28" style="fill:#e58d1f"/><polygon points="55 19 55 28 50.5 23.5 55 19" style="fill:#f7b64e"/><polygon points="55 18 55 19 50.5 23.5 45.5 18.5 50.5 13.5 52.5 15.5 55 18" style="fill:#e58d1f"/><polygon points="55 9 55 18 52.5 15.5 50.5 13.5 55 9" style="fill:#f7b64e"/><path d="M55,9l-4.5,4.5-2-2-3-3,6.06-6.06A7.948,7.948,0,0,1,55,9Z" style="fill:#e58d1f"/><path d="M51.56,2.44,45.5,8.5l-1-1L39.05,2.05A7.872,7.872,0,0,1,43,1h4A7.873,7.873,0,0,1,51.56,2.44Z" style="fill:#f7b64e"/><polygon points="50.5 13.5 45.5 18.5 40.5 13.5 44.5 9.5 45.5 8.5 48.5 11.5 50.5 13.5" style="fill:#f7b64e"/><rect x="41.964" y="19.964" width="7.071" height="7.071" transform="translate(-3.29 39.056) rotate(-45)" style="fill:#f7b64e"/><rect x="41.964" y="29.964" width="7.071" height="7.071" transform="translate(-10.361 41.985) rotate(-45)" style="fill:#f7b64e"/><path d="M45.5,8.5l-1,1-4,4L35.06,8.06a7.967,7.967,0,0,1,3.99-6.01L44.5,7.5Z" style="fill:#e58d1f"/><polygon points="45.5 18.5 40.5 23.5 35.5 18.5 36.5 17.5 40.5 13.5 45.5 18.5" style="fill:#e58d1f"/><rect x="36.964" y="24.964" width="7.071" height="7.071" transform="translate(-8.29 36.985) rotate(-45)" style="fill:#e58d1f"/><rect x="36.964" y="34.964" width="7.071" height="7.071" transform="translate(-15.361 39.914) rotate(-45)" style="fill:#e58d1f"/><path d="M45.5,48.5l-7.06,7.06A7.948,7.948,0,0,1,35,49l5.5-5.5Z" style="fill:#e58d1f"/><path d="M40.5,13.5l-4,4-1,1L35,18V9a7.3,7.3,0,0,1,.06-.94Z" style="fill:#f7b64e"/><polygon points="40.5 23.5 35.5 28.5 35 28 35 19 35.5 18.5 40.5 23.5" style="fill:#f7b64e"/><polygon points="40.5 33.5 35.5 38.5 35 38 35 29 35.5 28.5 40.5 33.5" style="fill:#f7b64e"/><path d="M50.951,55.951a8.038,8.038,0,0,0,1.179-.821L45.5,48.5l-7.06,7.06a7.845,7.845,0,0,0,1.283.717L45.5,50.5Z" style="fill:#d4821d"/><path d="M51.5,44.5l-1-1-5,5,6.63,6.63a8.074,8.074,0,0,0,.995-1.005L47.5,48.5Z" style="fill:#bf5d1b"/><path d="M39.5,44.5l4,4-6.143,6.143a7.9,7.9,0,0,0,1.083.917L45.5,48.5l-5-5Z" style="fill:#bf5d1b"/><path d="M45.5,6.5l-1-1L40.438,1.438a7.841,7.841,0,0,0-1.388.612L44.5,7.5l1,1,6.06-6.06a7.845,7.845,0,0,0-1.283-.717Z" style="fill:#d4821d"/><polygon points="45.5 10.5 48.5 13.5 49.5 14.5 50.5 13.5 48.5 11.5 45.5 8.5 44.5 9.5 40.5 13.5 41.5 14.5 44.5 11.5 45.5 10.5" style="fill:#d4821d"/><polygon points="40.5 15.5 43.5 18.5 44.5 19.5 45.5 18.5 43.5 16.5 40.5 13.5 39.5 14.5 35.5 18.5 36.5 19.5 39.5 16.5 40.5 15.5" style="fill:#bf5d1b"/><polygon points="45.5 20.5 48.5 23.5 49.5 24.5 50.5 23.5 48.5 21.5 45.5 18.5 44.5 19.5 40.5 23.5 41.5 24.5 44.5 21.5 45.5 20.5" style="fill:#d4821d"/><polygon points="40.5 25.5 43.5 28.5 44.5 29.5 45.5 28.5 43.5 26.5 40.5 23.5 39.5 24.5 35.5 28.5 36.5 29.5 39.5 26.5 40.5 25.5" style="fill:#bf5d1b"/><polygon points="45.5 30.5 48.5 33.5 49.5 34.5 50.5 33.5 48.5 31.5 45.5 28.5 44.5 29.5 40.5 33.5 41.5 34.5 44.5 31.5 45.5 30.5" style="fill:#d4821d"/><polygon points="45.5 40.5 48.5 43.5 49.5 44.5 50.5 43.5 48.5 41.5 45.5 38.5 44.5 39.5 40.5 43.5 41.5 44.5 44.5 41.5 45.5 40.5" style="fill:#d4821d"/><polygon points="40.5 35.5 43.5 38.5 44.5 39.5 45.5 38.5 43.5 36.5 40.5 33.5 39.5 34.5 35.5 38.5 36.5 39.5 39.5 36.5 40.5 35.5" style="fill:#bf5d1b"/><path d="M47.5,8.5l5.143-5.143A7.9,7.9,0,0,0,51.56,2.44L45.5,8.5l3,3,2,2,1-1-1-1Z" style="fill:#bf5d1b"/><path d="M39.05,2.05a7.967,7.967,0,0,0-1.173.827L42.5,7.5l1,1-1,1-3,3,1,1,4-4,1-1-1-1Z" style="fill:#bf5d1b"/><polygon points="50.5 13.5 51.5 14.5 55 11 55 9 50.5 13.5" style="fill:#d4821d"/><path d="M35.06,8.06A7.3,7.3,0,0,0,35,9v2a7.3,7.3,0,0,1,.06-.94L39.5,14.5l1-1Z" style="fill:#d4821d"/><polygon points="53.5 16.5 50.5 13.5 49.5 14.5 45.5 18.5 46.5 19.5 49.5 16.5 50.5 15.5 53.5 18.5 54.5 19.5 55 19 55 18 53.5 16.5" style="fill:#bf5d1b"/><polygon points="53.5 26.5 50.5 23.5 49.5 24.5 45.5 28.5 46.5 29.5 49.5 26.5 50.5 25.5 53.5 28.5 54.5 29.5 55 29 55 28 53.5 26.5" style="fill:#bf5d1b"/><polygon points="50.5 33.5 49.5 34.5 45.5 38.5 46.5 39.5 49.5 36.5 50.5 35.5 53.5 38.5 54.5 39.5 55 39 55 38 53.5 36.5 50.5 33.5" style="fill:#bf5d1b"/><polygon points="50.5 23.5 51.5 24.5 55 21 55 19 50.5 23.5" style="fill:#d4821d"/><path d="M35.06,18.06A7.3,7.3,0,0,0,35,19v2a7.3,7.3,0,0,1,.06-.94L39.5,24.5l1-1Z" style="fill:#d4821d"/><polygon points="50.5 33.5 51.5 34.5 55 31 55 29 50.5 33.5" style="fill:#d4821d"/><path d="M35.06,28.06A7.3,7.3,0,0,0,35,29v2a7.3,7.3,0,0,1,.06-.94L39.5,34.5l1-1Z" style="fill:#d4821d"/><polygon points="50.5 43.5 51.5 44.5 55 41 55 39 50.5 43.5" style="fill:#d4821d"/><path d="M35.06,38.06A7.3,7.3,0,0,0,35,39v2a7.3,7.3,0,0,1,.06-.94L39.5,44.5l1-1Z" style="fill:#d4821d"/><path d="M43,57h4v6H45V60a1,1,0,0,0-1-1H43Z" style="fill:#854920"/><path d="M47,1H43a8,8,0,0,0-8,8V49a8,8,0,0,0,8,8h4a8,8,0,0,0,8-8V9A8,8,0,0,0,47,1Zm6,47a7,7,0,0,1-7,7H44a7,7,0,0,1-7-7V10a7,7,0,0,1,7-7h2a7,7,0,0,1,7,7Z" style="fill:#bf5d1b"/><path d="M47,0H43a9.01,9.01,0,0,0-9,9V49a9.01,9.01,0,0,0,9,9h3v4H44V59H42v4a1,1,0,0,0,1,1h4a1,1,0,0,0,1-1V57.941A9.01,9.01,0,0,0,56,49V9A9.01,9.01,0,0,0,47,0ZM39.086,13.5,36,16.586V10.414ZM54,18.586l-3.5,3.5L46.914,18.5,50.5,14.914l3.5,3.5Zm0,10-3.5,3.5L46.914,28.5,50.5,24.914l3.5,3.5Zm-8.5,1.328L49.086,33.5,45.5,37.086,41.914,33.5Zm-5,2.172L36.914,28.5,40.5,24.914,44.086,28.5Zm5-5L41.914,23.5,45.5,19.914,49.086,23.5Zm0-10L41.914,13.5,45.5,9.914,49.086,13.5ZM44.086,18.5,40.5,22.086,36.914,18.5,40.5,14.914Zm-5,5L36,26.586V20.414Zm0,10L36,36.586V30.414Zm-2.172,5L40.5,34.914,44.086,38.5,40.5,42.086Zm2.172,5L36,46.586V40.414ZM45.5,39.914,49.086,43.5,45.5,47.086,41.914,43.5ZM46.914,38.5,50.5,34.914l3.5,3.5v.172l-3.5,3.5ZM54,41.414v4.172L51.914,43.5ZM51.914,33.5,54,31.414v4.172Zm0-10L54,21.414v4.172Zm0-10L54,11.414v4.172ZM53.98,8.606l-3.48,3.48L46.914,8.5l4.727-4.726A6.977,6.977,0,0,1,53.98,8.606ZM43,2h4a6.94,6.94,0,0,1,2.933.653L45.5,7.086,41.709,3.3,40.3,4.709,44.086,8.5,40.5,12.086,36.124,7.71A7.008,7.008,0,0,1,43,2ZM36.02,49.394l4.48-4.48L44.086,48.5l-5.727,5.726A6.977,6.977,0,0,1,36.02,49.394ZM47,56H43a6.94,6.94,0,0,1-2.933-.653L45.5,49.914l3.793,3.793,1.415-1.414L46.914,48.5,50.5,44.914l3.5,3.5V49A7.008,7.008,0,0,1,47,56Z"/><path d="M21,0H17A9.01,9.01,0,0,0,8,9V49a9.01,9.01,0,0,0,9,9h3v4H18V59H16v4a1,1,0,0,0,1,1h4a1,1,0,0,0,1-1V57.941A9.01,9.01,0,0,0,30,49V9A9.01,9.01,0,0,0,21,0ZM13.086,13.5,10,16.586V10.414ZM28,18.586l-3.5,3.5L20.914,18.5,24.5,14.914l3.5,3.5Zm0,10-3.5,3.5L20.914,28.5,24.5,24.914l3.5,3.5Zm-8.5,1.328L23.086,33.5,19.5,37.086,15.914,33.5Zm-5,2.172L10.914,28.5,14.5,24.914,18.086,28.5Zm5-5L15.914,23.5,19.5,19.914,23.086,23.5Zm0-10L15.914,13.5,19.5,9.914,23.086,13.5ZM18.086,18.5,14.5,22.086,10.914,18.5,14.5,14.914Zm-5,5L10,26.586V20.414Zm0,10L10,36.586V30.414Zm-2.172,5L14.5,34.914,18.086,38.5,14.5,42.086Zm2.172,5L10,46.586V40.414ZM19.5,39.914,23.086,43.5,19.5,47.086,15.914,43.5ZM20.914,38.5,24.5,34.914l3.5,3.5v.172l-3.5,3.5ZM28,41.414v4.172L25.914,43.5ZM25.914,33.5,28,31.414v4.172Zm0-10L28,21.414v4.172Zm0-10L28,11.414v4.172ZM24.5,12.086,20.914,8.5l4.727-4.726A6.977,6.977,0,0,1,27.98,8.606ZM17,2h4a6.94,6.94,0,0,1,2.933.653L19.5,7.086,15.709,3.3,14.3,4.709,18.086,8.5,14.5,12.086,10.124,7.71A7.008,7.008,0,0,1,17,2ZM10.02,49.394l4.48-4.48L18.086,48.5l-5.727,5.726A6.977,6.977,0,0,1,10.02,49.394ZM21,56H17a6.94,6.94,0,0,1-2.933-.653L19.5,49.914l3.793,3.793,1.415-1.414L20.914,48.5,24.5,44.914l3.5,3.5V49A7.008,7.008,0,0,1,21,56Z"/></g></svg>