<svg xmlns="http://www.w3.org/2000/svg" viewBox="0 0 64 64"><g id="_23-pecan_pie" data-name="23-pecan pie"><path d="M47,37v3.01a7.977,7.977,0,0,1-2.87,6.14,7.648,7.648,0,0,1-2.57,1.44h-.01c-.1.04-.19.07-.29.1L30.21,50.94a21.35,21.35,0,0,1-5.26-3.9L25,47a50.03,50.03,0,0,0,7.36-2.48,26.839,26.839,0,0,0,6.26-3.64C40.61,39.25,42,37.29,42,35v-.57a7.734,7.734,0,0,0,2.7-1.81C46.39,33.96,47,37,47,37Z" style="fill:#e58d1f"/><path d="M47,24v3.01a7.985,7.985,0,0,1-2.3,5.61A7.734,7.734,0,0,1,42,34.43a6.492,6.492,0,0,1-.74.26L30.94,37.73h-.01a27.054,27.054,0,0,1-5.7-3.79,49.038,49.038,0,0,0,8.46-3.03,22.714,22.714,0,0,0,5.59-3.6A7.338,7.338,0,0,0,42,22V19.68l.21-.08a6.618,6.618,0,0,0,1.24-.56C46.1,19.5,47,24,47,24Z" style="fill:#e58d1f"/><path d="M34.62,15.68a21.568,21.568,0,0,0,4.44-2.6A4.294,4.294,0,0,0,41,10V6l3.24,1.62A5,5,0,0,1,47,12.09v.86a6.974,6.974,0,0,1-3.55,6.09,6.618,6.618,0,0,1-1.24.56l-.21.08L31.27,23.89a24.741,24.741,0,0,1-7-4.89H25s1.96-.49,4.5-1.33C31.09,17.13,32.91,16.46,34.62,15.68Z" style="fill:#f7b64e"/><path d="M35.98,53a29.856,29.856,0,0,0,5.57-5.41h.01a7.648,7.648,0,0,0,2.57-1.44A6.793,6.793,0,0,1,46,50.83v.37A11.813,11.813,0,0,1,34.2,63a1.34,1.34,0,0,1-.2-.01,9.954,9.954,0,0,1-5.61-1.85L25,57a18.634,18.634,0,0,0,10.97-4Z" style="fill:#e58d1f"/><path d="M42,34.43V35c0,2.29-1.39,4.25-3.38,5.88a52.276,52.276,0,0,1-7.68-3.15l10.32-3.04A6.492,6.492,0,0,0,42,34.43Z" style="fill:#854920"/><path d="M42,19.68V22a7.338,7.338,0,0,1-2.72,5.31L39,27a51.368,51.368,0,0,1-7.73-3.11Z" style="fill:#854920"/><path d="M41.26,47.69c.1-.03.19-.06.29-.1A29.856,29.856,0,0,1,35.98,53h-.01a19.634,19.634,0,0,1-5.76-2.06Z" style="fill:#854920"/><path d="M41,6v4a4.294,4.294,0,0,1-1.94,3.08L39,13c0-3.42-2.81-7.79-4.59-10.2A1.993,1.993,0,0,1,36,2h.88a4.009,4.009,0,0,1,3.88,3.03Z" style="fill:#bf5d1b"/><path d="M39,27l.28.31a22.714,22.714,0,0,1-5.59,3.6L22.74,27.69a5.314,5.314,0,0,1-.56-.2,7.555,7.555,0,0,1-2.23-1.27A8.033,8.033,0,0,1,17,20.01V17s1-5,4-5l1,.67V14a7.448,7.448,0,0,0,2.27,5,24.741,24.741,0,0,0,7,4.89A51.368,51.368,0,0,0,39,27Z" style="fill:#f7b64e"/><path d="M39,13l.06.08a21.568,21.568,0,0,1-4.44,2.6L23.19,6.01A3.089,3.089,0,0,0,22,5.39V5a4,4,0,0,1,4-4h5.06a4.012,4.012,0,0,1,3.22,1.62c.04.06.09.12.13.18C36.19,5.21,39,9.58,39,13Z" style="fill:#f7b64e"/><path d="M25.23,33.94a27.054,27.054,0,0,0,5.7,3.79h.01a52.276,52.276,0,0,0,7.68,3.15,26.839,26.839,0,0,1-6.26,3.64l-9.62-2.83a7.611,7.611,0,0,1-.72-.25,7.839,7.839,0,0,1-2.72-1.82A7.985,7.985,0,0,1,17,34.01V31s.76-3.8,2.95-4.78a7.555,7.555,0,0,0,2.23,1.27L22,28C22,30.23,23.32,32.23,25.23,33.94Z" style="fill:#f7b64e"/><path d="M22,5.39a3.089,3.089,0,0,1,1.19.62l11.43,9.67c-1.71.78-3.53,1.45-5.12,1.99l-7.5-5L21,12l-1.65-1.1A3.042,3.042,0,0,1,18,8.37a3.085,3.085,0,0,1,.64-1.87A3.049,3.049,0,0,1,20.3,5.42l.19-.04A2.969,2.969,0,0,1,22,5.39Z" style="fill:#e58d1f"/><path d="M34,62.99V63H26.78a3.662,3.662,0,0,1-1.49-.32l-3.72-1.65a7.631,7.631,0,0,1-3.33-2.84A7.71,7.71,0,0,1,17,54l1-3,.26-.15C19.86,53.63,22.7,56.32,25,57l3.39,4.14A9.954,9.954,0,0,0,34,62.99Z" style="fill:#bf5d1b"/><path d="M22.74,27.69l10.95,3.22a49.038,49.038,0,0,1-8.46,3.03C23.32,32.23,22,30.23,22,28l.18-.51A5.314,5.314,0,0,0,22.74,27.69Z" style="fill:#854920"/><path d="M22.74,41.69l9.62,2.83A50.03,50.03,0,0,1,25,47l-.05.04a9.458,9.458,0,0,1-2.93-5.6A7.611,7.611,0,0,0,22.74,41.69Z" style="fill:#854920"/><path d="M35.97,53A18.634,18.634,0,0,1,25,57c-2.3-.68-5.14-3.37-6.74-6.15A8.175,8.175,0,0,1,17,47.01V44s.61-3.04,2.3-4.38a7.839,7.839,0,0,0,2.72,1.82,9.458,9.458,0,0,0,2.93,5.6,21.35,21.35,0,0,0,5.26,3.9A19.634,19.634,0,0,0,35.97,53Z" style="fill:#f7b64e"/><path d="M22,12.67l7.5,5C26.96,18.51,25,19,25,19h-.73A7.448,7.448,0,0,1,22,14Z" style="fill:#854920"/><path d="M44.24,7.62,44,7.5V9.933a8.02,8.02,0,0,1-.308,2.188,7.924,7.924,0,0,1-4.313,5.065,113.231,113.231,0,0,1-12.042,4.407,33.419,33.419,0,0,0,3.933,2.3L42,19.68l.21-.08a6.618,6.618,0,0,0,1.24-.56A7.057,7.057,0,0,0,47,12.95v-.86A5,5,0,0,0,44.24,7.62Z" style="fill:#bf5d1b"/><path d="M42,21.642V19.68L31.27,23.89A51.368,51.368,0,0,0,39,27l.28.31a10.775,10.775,0,0,0,1.342-1.492c-.683-.266-1.436-.574-2.227-.924a1,1,0,0,1,.033-1.851Z" style="fill:#56271d"/><path d="M41.95,35.665A5.609,5.609,0,0,0,42,35v-.57a6.492,6.492,0,0,1-.74.26L30.94,37.73a52.276,52.276,0,0,0,7.68,3.15,13.412,13.412,0,0,0,1.107-1.021c-.731-.282-1.546-.614-2.4-.994a1,1,0,0,1,.126-1.874Z" style="fill:#56271d"/><path d="M40.2,49.178c.589-.645,1.046-1.2,1.35-1.588-.1.04-.19.07-.29.1L30.21,50.94A19.634,19.634,0,0,0,35.97,53h.01q.54-.4,1.037-.807c-.1-.037-.206-.076-.31-.116a1,1,0,0,1,.083-1.9Z" style="fill:#56271d"/><path d="M24.315,33.036c.288.308.589.612.915.9a49.038,49.038,0,0,0,8.46-3.03L22.74,27.69a5.314,5.314,0,0,1-.56-.2L22,28a5.607,5.607,0,0,0,.049.663l4.992,1.468a1,1,0,0,1,.087,1.891C26.121,32.42,25.162,32.758,24.315,33.036Z" style="fill:#56271d"/><path d="M22.74,41.69a7.611,7.611,0,0,1-.72-.25,6.431,6.431,0,0,0,.244,1.287l3.29.968A1,1,0,0,1,25.6,45.6c-.52.185-1.015.352-1.475.5.259.319.53.634.826.94L25,47a50.03,50.03,0,0,0,7.36-2.48Z" style="fill:#56271d"/><path d="M24,14a7.248,7.248,0,0,0,2.03,4.721c.816-.226,2.044-.582,3.47-1.054Z" style="fill:#56271d"/><path d="M32.615,13.984c-.19.086-.388.179-.563.249a4,4,0,0,1-3.77-.422l-9.923-6.87A3.076,3.076,0,0,0,18,8.37a3.042,3.042,0,0,0,1.35,2.53L21,12l1,.67,7.5,5c1.59-.54,3.41-1.21,5.12-1.99Z" style="fill:#bf5d1b"/><path d="M39.06,13.08,39,13c0-3.42-2.81-7.79-4.59-10.2-.04-.06-.09-.12-.13-.18A4.012,4.012,0,0,0,31.06,1H29.093C31.1,2.913,35.248,7.239,36,11c.23,1.151-1.365,2.136-3.46,2.92l2.08,1.76A21.568,21.568,0,0,0,39.06,13.08Z" style="fill:#e58d1f"/><path d="M38.725,7.131,36.444,2H36a1.993,1.993,0,0,0-1.59.8C36.19,5.21,39,9.58,39,13l.06.08A4.294,4.294,0,0,0,41,10V8.874A3,3,0,0,1,38.725,7.131Z" style="fill:#854920"/><path d="M43.692,12.121A8.02,8.02,0,0,0,44,9.933V7.5L41,6V9.71A7.252,7.252,0,0,1,43.692,12.121Z" style="fill:#e58d1f"/><path d="M29.969,20.75a21.929,21.929,0,0,1-2.746-2.368C25.885,18.777,25,19,25,19h-.73a24.741,24.741,0,0,0,7,4.89,33.419,33.419,0,0,1-3.933-2.3C28.02,21.381,28.93,21.092,29.969,20.75Z" style="fill:#e58d1f"/><path d="M43.918,11.057a8.242,8.242,0,0,1-.226,1.064,7.924,7.924,0,0,1-4.313,5.065c-.295.136-.6.27-.91.405a4.8,4.8,0,0,0,3.008,2.294L42,19.68l.21-.08a6.618,6.618,0,0,0,1.24-.56,6.913,6.913,0,0,0,1.626-1.281,6.983,6.983,0,0,0,1.879-4.048A3.257,3.257,0,0,0,43.918,11.057Z" style="fill:#e58d1f"/><path d="M28.976,27.96c-2.021-.743-4.3-1.75-6.055-2.563A5.034,5.034,0,0,1,20,20.825V19.5a1.5,1.5,0,0,0-3,0v.51a8.033,8.033,0,0,0,2.95,6.21,7.555,7.555,0,0,0,2.23,1.27,5.314,5.314,0,0,0,.56.2l10.95,3.22a22.714,22.714,0,0,0,5.59-3.6L39,27s-.977-.287-2.458-.833l-.834.667A6.954,6.954,0,0,1,28.976,27.96Z" style="fill:#e58d1f"/><path d="M20,16c.975.975,3.867,7.639,11.43,7.969l-.16-.079a24.741,24.741,0,0,1-7-4.89A7.448,7.448,0,0,1,22,14V12.67L21,12c-2.074,0-3.192,2.389-3.684,3.865C17.918,15.631,19.244,15.244,20,16Z" style="fill:#bf5d1b"/><path d="M20.393,29.293a8.924,8.924,0,0,0,5.506,5.2c-.224-.184-.459-.362-.669-.554C23.32,32.23,22,30.23,22,28l.18-.51a7.555,7.555,0,0,1-2.23-1.27,4.243,4.243,0,0,0-1.8,1.78h.371A2.02,2.02,0,0,1,20.393,29.293Z" style="fill:#bf5d1b"/><path d="M36.356,40.1l-.56.373a9.978,9.978,0,0,1-9.158,1.009c-6.036-2.36-7.427-5.75-7.679-7.771A1.974,1.974,0,0,0,17,32V34.01a7.985,7.985,0,0,0,2.3,5.61,7.839,7.839,0,0,0,2.72,1.82,7.611,7.611,0,0,0,.72.25l9.62,2.83a26.839,26.839,0,0,0,6.26-3.64C38.181,40.742,37.373,40.474,36.356,40.1Z" style="fill:#e58d1f"/><path d="M45.964,21.2A3.855,3.855,0,0,0,43.45,19.04a6.618,6.618,0,0,1-1.24.56l-.21.08V22a7.338,7.338,0,0,1-2.72,5.31,22.714,22.714,0,0,1-5.59,3.6,49.038,49.038,0,0,1-8.46,3.03,19.313,19.313,0,0,0,1.7,1.358C30.878,33.851,39.692,30.539,42,29,44.688,27.208,45.768,22.216,45.964,21.2Z" style="fill:#f7b64e"/><path d="M45.963,34.2A5.213,5.213,0,0,0,44.7,32.62,7.734,7.734,0,0,1,42,34.43V35c0,2.29-1.39,4.25-3.38,5.88a26.839,26.839,0,0,1-6.26,3.64A50.03,50.03,0,0,1,25,47l-.05.04A18.234,18.234,0,0,0,26.5,48.455C30.2,47.107,39.6,43.6,42,42,44.687,40.208,45.767,35.22,45.963,34.2Z" style="fill:#f7b64e"/><path d="M35.97,53a19.634,19.634,0,0,1-5.76-2.06,21.35,21.35,0,0,1-5.26-3.9,9.458,9.458,0,0,1-2.93-5.6,7.839,7.839,0,0,1-2.72-1.82,5.706,5.706,0,0,0-1.478,1.991A14.83,14.83,0,0,0,20,43c1.61.8,2.572,5.5,8.1,8.86a2,2,0,0,1-.59,3.658,15.3,15.3,0,0,1-5.2-.01A8.578,8.578,0,0,0,25,57,18.634,18.634,0,0,0,35.97,53Z" style="fill:#bf5d1b"/><path d="M47,27.01V24a11.105,11.105,0,0,0-1.036-2.8c-.17.883-1,4.733-2.964,6.918V30a3.971,3.971,0,0,0,1.333,2.961c.124-.112.251-.222.367-.341A7.985,7.985,0,0,0,47,27.01Z" style="fill:#bf5d1b"/><path d="M47,40.01V37a11.085,11.085,0,0,0-1.037-2.8c-.169.885-1,4.733-2.963,6.917V43a3.975,3.975,0,0,0,1.333,2.962A7.972,7.972,0,0,0,47,40.01Z" style="fill:#bf5d1b"/><path d="M43.68,46.5a7.51,7.51,0,0,1-2.12,1.1h-.01A29.856,29.856,0,0,1,35.98,53h-.01A18.634,18.634,0,0,1,25,57l2.422,2.958C39.161,59.272,42.722,50.144,43.68,46.5Z" style="fill:#f7b64e"/><path d="M46,50.83a6.793,6.793,0,0,0-1.87-4.68c-.145.122-.3.234-.45.345a20.236,20.236,0,0,1-2.99,6.437,4.907,4.907,0,0,1,4,3.65A11.718,11.718,0,0,0,46,51.2Z" style="fill:#bf5d1b"/><path d="M30.6,59.527a20.866,20.866,0,0,1-3.182.431l.968,1.182A9.954,9.954,0,0,0,34,62.99a1.34,1.34,0,0,0,.2.01,12,12,0,0,0,1.466-.1A6.557,6.557,0,0,1,30.6,59.527Z" style="fill:#bf5d1b"/><path d="M28.39,61.14,25,57c-2.3-.68-5.14-3.37-6.74-6.15L18,51l-.875,2.625,1.694.941a14.227,14.227,0,0,1,6.643,8.17A3.632,3.632,0,0,0,26.78,63H34v-.01A9.954,9.954,0,0,1,28.39,61.14Z" style="fill:#854920"/><path d="M24.255,3.693A1.527,1.527,0,0,0,24,4.521c.032.638.648,1.024,1.186,1.292L28.75,7.588a3.143,3.143,0,0,0,2.667.2c1.11-.449.373-2.725-.071-3.456C29.855,1.878,25.892.9,24.255,3.693Z" style="fill:#ffcb78"/><path d="M37.493,31.9a1.424,1.424,0,0,0-.479.817,1.033,1.033,0,0,0,.39.995,2.371,2.371,0,0,0,1.748.232,9.946,9.946,0,0,0,2.148-.583c.93-.371,1.645-.939,1.7-1.836A1.333,1.333,0,0,0,41.786,30a4.331,4.331,0,0,0-2.018.688A9.688,9.688,0,0,0,37.493,31.9Z" style="fill:#f7b64e"/><path d="M37.493,44.9a1.424,1.424,0,0,0-.479.817,1.033,1.033,0,0,0,.39.995,2.371,2.371,0,0,0,1.748.232,9.946,9.946,0,0,0,2.148-.583c.93-.371,1.645-.939,1.7-1.836A1.333,1.333,0,0,0,41.786,43a4.331,4.331,0,0,0-2.018.688A9.688,9.688,0,0,0,37.493,44.9Z" style="fill:#f7b64e"/><path d="M39.341,56.153a12.536,12.536,0,0,1-1.777,1.9c-.331.286-.675.554-1.01.834a1.3,1.3,0,0,0-.524.9.774.774,0,0,0-.018.338.71.71,0,0,0,.153.273,1.626,1.626,0,0,0,.62.5A1.718,1.718,0,0,0,37.51,61a5.228,5.228,0,0,0,2.8-1.282,4.229,4.229,0,0,0,1.655-2.578,2.148,2.148,0,0,0-.184-1.4,1.47,1.47,0,0,0-1.257-.732C40.02,55.094,39.624,55.778,39.341,56.153Z" style="fill:#f7b64e"/><path d="M25.841,23.1c-.83-.758-1.631-1.585-2.514-2.291-.459-.367-1.347-1.059-1.933-.711-.493.294-.447,1.224-.271,1.7a4.606,4.606,0,0,0,1.288,1.686,14.52,14.52,0,0,0,3.554,2.379.916.916,0,0,0,.585.127.526.526,0,0,0,.326-.333,1.754,1.754,0,0,0-.156-1.59A4.675,4.675,0,0,0,25.841,23.1Z" style="fill:#ffcb78"/><path d="M25.841,37.1c-.83-.758-1.631-1.585-2.514-2.291-.459-.367-1.347-1.059-1.933-.711-.493.294-.447,1.224-.271,1.7a4.606,4.606,0,0,0,1.288,1.686,14.52,14.52,0,0,0,3.554,2.379.916.916,0,0,0,.585.127.526.526,0,0,0,.326-.333,1.754,1.754,0,0,0-.156-1.59A4.675,4.675,0,0,0,25.841,37.1Z" style="fill:#ffcb78"/><path d="M18.013,46.3a6.352,6.352,0,0,0,.112,1.776,5.168,5.168,0,0,0,.616,1.388,6.145,6.145,0,0,0,1.043,1.356A4.86,4.86,0,0,0,23.125,52a.9.9,0,0,0,.579-.141.836.836,0,0,0,.264-.484,2.1,2.1,0,0,0-.651-1.8c-.442-.461-.984-.789-1.411-1.268a6.56,6.56,0,0,1-1.193-2.458,3.331,3.331,0,0,0-.681-1.409c-.318-.314-1.221-.672-1.559-.238A3.936,3.936,0,0,0,18.013,46.3Z" style="fill:#ffcb78"/><path d="M48,12.95v-.86a6.029,6.029,0,0,0-3.313-5.364L41.86,5.312l-.131-.527A5,5,0,0,0,36.88,1H36a2.973,2.973,0,0,0-1.475.41A5.024,5.024,0,0,0,31.061,0H26a4.993,4.993,0,0,0-4.929,4.3,3.777,3.777,0,0,0-.787.1l-.226.049a4.035,4.035,0,0,0-2.211,1.441A4.089,4.089,0,0,0,17,8.37a4.031,4.031,0,0,0,1.8,3.362l.021.014c-2.056,1.522-2.76,4.875-2.8,5.058A1,1,0,0,0,16,17v3.01A8.974,8.974,0,0,0,18.383,26.1a9.806,9.806,0,0,0-2.363,4.7A1,1,0,0,0,16,31v3.01a8.929,8.929,0,0,0,1.934,5.568A10.863,10.863,0,0,0,16.02,43.8,1,1,0,0,0,16,44v3.01a8.413,8.413,0,0,0,1.045,3.7l-.993,2.979A1,1,0,0,0,16,54a8.7,8.7,0,0,0,5.163,7.944L24.882,63.6a4.65,4.65,0,0,0,1.9.4H34v-.008c.067,0,.133.008.2.008A12.814,12.814,0,0,0,47,51.2v-.37a7.74,7.74,0,0,0-1.5-4.588A8.96,8.96,0,0,0,48,40.01V37a1,1,0,0,0-.02-.2,10.857,10.857,0,0,0-1.915-4.226A8.926,8.926,0,0,0,48,27.01V24a1,1,0,0,0-.02-.2c-.083-.419-.746-3.42-2.62-4.933A7.99,7.99,0,0,0,48,12.95ZM42,7.618l1.8.9A4.014,4.014,0,0,1,46,12.09v.86a6,6,0,0,1-3.057,5.228,5.732,5.732,0,0,1-1.089.487L31.328,22.793a27.159,27.159,0,0,1-4.905-3.14c.729-.2,1.747-.5,2.928-.884l.1.066.082-.124.29-.094a55.51,55.51,0,0,0,5.215-2.028C39.722,14.446,42,12.291,42,10ZM24.874,18h-.149a6.6,6.6,0,0,1-1.69-3.441l4.175,2.783C26.044,17.691,25.176,17.922,24.874,18ZM36.88,3a3,3,0,0,1,2.909,2.271L40,6.122V10a1.833,1.833,0,0,1-.279.869,25.276,25.276,0,0,0-3.906-7.824A.925.925,0,0,1,36,3ZM19.425,7.12A2.03,2.03,0,0,1,20.506,6.4l.231-.049a2,2,0,0,1,.993,0,2.1,2.1,0,0,1,.814.42l1.81,1.533,1.292-1.528-1.8-1.528a3.911,3.911,0,0,0-.813-.524A2.993,2.993,0,0,1,26,2h5.061a3.028,3.028,0,0,1,2.416,1.222c2.737,3.674,4.345,7.069,4.494,9.42a20.686,20.686,0,0,1-3.2,1.854l-7.4-6.258L26.081,9.766,32.74,15.4c-.935.384-1.963.769-3.1,1.162L19.9,10.068a2.035,2.035,0,0,1-.9-1.7A2.066,2.066,0,0,1,19.425,7.12ZM18,17.1c.244-1.1,1.175-3.8,2.738-4.076L21,13.2V14a8.372,8.372,0,0,0,2.533,5.677,25.308,25.308,0,0,0,7.285,5.105,52.707,52.707,0,0,0,6.612,2.762,24.237,24.237,0,0,1-3.831,2.3L23.026,26.732a6.912,6.912,0,0,1-2.443-1.287A7,7,0,0,1,18,20.01Zm0,14a7.416,7.416,0,0,1,1.9-3.68,9,9,0,0,0,2.56,1.225l8.3,2.442a50.03,50.03,0,0,1-5.238,1.738A8.616,8.616,0,0,1,23.3,29.66l-1.883.674a10.948,10.948,0,0,0,3.142,4.345,27.585,27.585,0,0,0,5.912,3.938.958.958,0,0,0,.092.042,52.616,52.616,0,0,0,5.913,2.546,29.3,29.3,0,0,1-4.193,2.249l-9.269-2.726c-.218-.062-.427-.141-.616-.214A7.038,7.038,0,0,1,18,34.01Zm7.269,14.8a10.71,10.71,0,0,1-1.618-2.334l-1.8.877c1.334,2.734,4.208,5.424,7.887,7.381a22.5,22.5,0,0,0,3.8,1.591,16.494,16.494,0,0,1-8.388,2.579c-2.638-.864-5.928-4.608-6.877-7.511l1.538,1.1a10.434,10.434,0,0,1,.863-.845,9.056,9.056,0,0,0,1.137-1.155l-1.626-1.164a10.434,10.434,0,0,1-.863.845,9.955,9.955,0,0,0-1.09,1.1A4.7,4.7,0,0,1,18,47.01V44.105a8.988,8.988,0,0,1,1.352-3.092,9.1,9.1,0,0,0,2.3,1.359,8.249,8.249,0,0,0,.8.277l6.815,2.005C27.488,45.29,26,45.706,25.269,45.9ZM26.778,62a2.648,2.648,0,0,1-1.084-.23l-3.718-1.654A6.7,6.7,0,0,1,18,54.157l.416-1.249a14.586,14.586,0,0,0,5.98,4.935l3.218,3.93a.952.952,0,0,0,.194.181c.022.016.047.03.07.046ZM45,51.2A10.813,10.813,0,0,1,34.2,62a8.968,8.968,0,0,1-5.124-1.6L27.01,57.876a20.244,20.244,0,0,0,9.469-4.009.99.99,0,0,0,.1-.063A29.989,29.989,0,0,0,39.7,51.135l-1.4-1.43a28.106,28.106,0,0,1-2.568,2.217,16.827,16.827,0,0,1-2.653-.784l8.468-2.49c.1-.031.2-.062.3-.1l.023-.007a8.438,8.438,0,0,0,2.08-1.015A5.747,5.747,0,0,1,45,50.83Zm1-11.19a6.963,6.963,0,0,1-2.514,5.375,6.648,6.648,0,0,1-2.173,1.233,1.346,1.346,0,0,0-.136.044c-.071.028-.134.05-.2.069l-10.642,3.13a21.038,21.038,0,0,1-3.408-2.345,51.71,51.71,0,0,0,5.832-2.079,27.493,27.493,0,0,0,6.494-3.784,10.4,10.4,0,0,0,3.319-4.3l-1.875-.7a8.06,8.06,0,0,1-2.318,3.1c-.954-.317-2.676-.927-4.649-1.8l7.8-2.3a7.219,7.219,0,0,0,.837-.293,8.589,8.589,0,0,0,2.282-1.345A9,9,0,0,1,46,37.1Zm0-15.9V27.01a6.953,6.953,0,0,1-2.016,4.912,6.736,6.736,0,0,1-2.37,1.585,5.6,5.6,0,0,1-.636.224l-9.929,2.925a29.747,29.747,0,0,1-3.679-2.275,48.566,48.566,0,0,0,6.751-2.569c5.237-2.5,8.19-5.405,8.774-8.634l-1.969-.356a6.444,6.444,0,0,1-1.759,3.183,51.243,51.243,0,0,1-5.376-2.03l8.565-3.361.175-.067a7.855,7.855,0,0,0,1.035-.442C44.948,20.634,45.778,23.1,46,24.105Z"/><path d="M41.418,16.538c.394.114.991.286,1.137.358l.89-1.792a10.365,10.365,0,0,0-1.472-.487,13.169,13.169,0,0,1-1.449-.469l-1.057,1.7A8.8,8.8,0,0,0,41.418,16.538Z"/><path d="M26.582,26.538a8.8,8.8,0,0,0,1.951-.692l-1.057-1.7a13.169,13.169,0,0,1-1.449.469,10.365,10.365,0,0,0-1.472.487l.89,1.792C25.591,26.824,26.187,26.652,26.582,26.538Z"/><path d="M27.582,4.538a8.8,8.8,0,0,0,1.951-.692l-1.057-1.7a13.169,13.169,0,0,1-1.449.469,10.365,10.365,0,0,0-1.472.487l.89,1.792C26.591,4.824,27.187,4.652,27.582,4.538Z"/><path d="M24.813,40.582a10.434,10.434,0,0,1,.863-.845,9.056,9.056,0,0,0,1.137-1.155l-1.626-1.164a10.434,10.434,0,0,1-.863.845,9.056,9.056,0,0,0-1.137,1.155Z"/><path d="M27.171,52.985l-.342-1.97A14.093,14.093,0,0,0,23.554,52.1l.892,1.792A12.062,12.062,0,0,1,27.171,52.985Z"/><path d="M38.573,43.181l-1.146,1.638a20.283,20.283,0,0,1,1.664,1.674l.182.194,1.454-1.374-.176-.187A17.928,17.928,0,0,0,38.573,43.181Z"/><path d="M34.147,58.478l1.706,1.044a7.029,7.029,0,0,1,1.727-1.708l-1.16-1.628A8.9,8.9,0,0,0,34.147,58.478Z"/><path d="M22.767,35.973l.466-1.946C22.735,33.908,22,33.347,22,33H20C20,34.575,21.651,35.705,22.767,35.973Z"/><path d="M22,24h2a3.339,3.339,0,0,0-1.293-2.207A3.887,3.887,0,0,1,22,20.958.2.2,0,0,1,22,21H20a3.339,3.339,0,0,0,1.293,2.207A5.055,5.055,0,0,1,22,24Z"/><path d="M42.373,29.058a8.093,8.093,0,0,0-.689-.788l-1.368,1.46a6.155,6.155,0,0,1,.5.582,4.522,4.522,0,0,0,1.9,1.647l.59-1.911A5.18,5.18,0,0,1,42.373,29.058Z"/><path d="M32.715,7.959l.59-1.911a5.18,5.18,0,0,1-.932-.99,8.093,8.093,0,0,0-.689-.788L30.316,5.73a6.155,6.155,0,0,1,.5.582A4.522,4.522,0,0,0,32.715,7.959Z"/><path d="M39.432,57.177l1.136,1.646C41.416,58.237,43,56.515,43,55H41A4.161,4.161,0,0,1,39.432,57.177Z"/><path d="M42.632,39.674l-1.891.652a4.407,4.407,0,0,0,2.967,2.63l.584-1.912A2.493,2.493,0,0,1,42.632,39.674Z"/></g></svg>