<svg xmlns="http://www.w3.org/2000/svg" viewBox="0 0 64 64"><g id="_24-Pretzel" data-name="24-Pretzel"><path d="M28.22,37.93a33.193,33.193,0,0,0,3.79,3.22A23.562,23.562,0,0,1,24,45a8.086,8.086,0,0,0-2.39,1.03c-3.48,2.22-5.48,6.87-6.54,10.4-.13.43-.25.84-.35,1.23a4.462,4.462,0,0,1-8.78-1.11,4.591,4.591,0,0,1,.12-1.03A41.562,41.562,0,0,1,8.2,48.88c1.75-4.11,4.29-7.85,7.8-9.48a8.684,8.684,0,0,1,1-.4,22.561,22.561,0,0,0,8.48-4.86A14.1,14.1,0,0,0,28.22,37.93Z" style="fill:#d17824"/><path d="M47.92,39.23c.13.06.26.11.39.17,3.45,1.53,5.99,5.06,7.79,9.03.11.23.21.46.31.7a42.063,42.063,0,0,1,2.18,6.76,4.834,4.834,0,0,1,.12,1.05,4.547,4.547,0,0,1-8.95,1.13c-.1-.39-.22-.81-.35-1.25-.05-.16-.1-.32-.15-.49-1.11-3.53-3.13-7.95-6.52-10.11a3.791,3.791,0,0,0-.34-.2,8.495,8.495,0,0,0-2.09-.85,23.975,23.975,0,0,1-8.16-3.92,1.7,1.7,0,0,1-.14-.1,33.193,33.193,0,0,1-3.79-3.22,14.1,14.1,0,0,1-2.74-3.79A14.3,14.3,0,0,1,24,27.8V23.77a28.733,28.733,0,0,1,1.64-9.8,3.835,3.835,0,0,1,.4.63L36.23,30.9a11.187,11.187,0,0,0,1.94,2.58c.06.07.12.13.19.2a22.5,22.5,0,0,0,9.08,5.38C47.6,39.11,47.76,39.17,47.92,39.23Z" style="fill:#e58d1f"/><path d="M42.74,46.22c3.39,2.16,5.41,6.58,6.52,10.11l-.33.1A26.451,26.451,0,0,1,32,63a26.451,26.451,0,0,1-16.93-6.57c1.06-3.53,3.06-8.18,6.54-10.4C24.73,48.98,28.31,51,32,51s7.27-2.02,10.39-4.97l.01-.01A3.791,3.791,0,0,1,42.74,46.22Z" style="fill:#bf5d1b"/><path d="M45,11c-5,0-6,4-6,4h-.39A20.225,20.225,0,0,0,32,5.23C35.21,2.72,39.71,1,46,1,61,1,63,18,63,18V28c0,6.56-2.54,14.06-6.9,20.43-1.8-3.97-4.34-7.5-7.79-9.03-.13-.06-.26-.11-.39-.17C51.05,34.35,53,29.13,53,26,53,18,50,11,45,11Z" style="fill:#bf5d1b"/><path d="M39.16,30.51l-.99,2.97a11.187,11.187,0,0,1-1.94-2.58L26.04,14.6a3.835,3.835,0,0,0-.4-.63,8.088,8.088,0,0,0-6.74-3.45c-5.09,0-8.15,7.14-8.15,15.29,0,3.21,2.02,8.58,5.25,13.58v.01c-3.51,1.63-6.05,5.37-7.8,9.48C3.66,42.41,1,34.71,1,28V18S3,1,18,1c6.29,0,10.79,1.72,14,4.23A20.225,20.225,0,0,1,38.61,15,28.314,28.314,0,0,1,40,24v1.35A16.124,16.124,0,0,1,39.16,30.51Z" style="fill:#e58d1f"/><path d="M28.22,37.93a14.1,14.1,0,0,1-2.74-3.79,19.122,19.122,0,0,1-1.732,1.434,18.567,18.567,0,0,0,2.24,2.962,2,2,0,0,1-.957,3.271C21.89,42.7,17.752,44.5,16,48c-2.761,5.522-2.987,11.037-10.02,7.984a4.32,4.32,0,0,0-.04.566,4.462,4.462,0,0,0,8.78,1.11c.1-.39.22-.8.35-1.23,1.06-3.53,3.06-8.18,6.54-10.4A8.086,8.086,0,0,1,24,45a23.562,23.562,0,0,0,8.01-3.85A33.193,33.193,0,0,1,28.22,37.93Z" style="fill:#854920"/><path d="M45.438,48.727a11.354,11.354,0,0,0-2.7-2.507,3.791,3.791,0,0,0-.34-.2l-.01.01A23.408,23.408,0,0,1,39.3,48.5,13.271,13.271,0,0,1,32,51a13.271,13.271,0,0,1-7.3-2.5,23.408,23.408,0,0,1-3.09-2.47,11.938,11.938,0,0,0-3.325,3.344A25.77,25.77,0,0,0,15.07,56.43,32.08,32.08,0,0,0,17.992,58.6a48.464,48.464,0,0,1,2.064-4.566,2.978,2.978,0,0,1,3.726-1.363A19.493,19.493,0,0,0,31,54h1a19.325,19.325,0,0,0,7.908-1.621,2.975,2.975,0,0,1,3.823,1.248A46.534,46.534,0,0,1,46.008,58.6,32.08,32.08,0,0,0,48.93,56.43l.33-.1A23.781,23.781,0,0,0,45.438,48.727Z" style="fill:#854920"/><path d="M39.035,16.452a9.882,9.882,0,0,1-1.855,4.892,2.006,2.006,0,0,1-3.254-.15l-4.237-6.519a12.247,12.247,0,0,0-7.748-5.434A11.876,11.876,0,0,0,8.724,15.876,17.783,17.783,0,0,0,7,23,42.893,42.893,0,0,0,9.921,36.77a4.074,4.074,0,0,1-.789,4.191,29.591,29.591,0,0,0-3.177,4.346c.686,1.221,1.434,2.417,2.245,3.573a23.323,23.323,0,0,1,4.206-6.8A11.774,11.774,0,0,1,16,39.4v-.01c-3.23-5-5.25-10.37-5.25-13.58,0-8.15,3.06-15.29,8.15-15.29a8.088,8.088,0,0,1,6.74,3.45,3.835,3.835,0,0,1,.4.63L36.23,30.9a11.187,11.187,0,0,0,1.94,2.58l.481-1.444.509-1.526A16.124,16.124,0,0,0,40,25.35V24A28.084,28.084,0,0,0,39.035,16.452Z" style="fill:#bf5d1b"/><path d="M54.807,33.071A31.252,31.252,0,0,0,55.842,20a17.287,17.287,0,0,0-1.627-4.96c-1.491-3.028-3.24-5.122-6.072-5.8a7.713,7.713,0,0,0-3.4.029L41.3,10a1.979,1.979,0,0,1-1.769-1.069,13.748,13.748,0,0,0-4.966-5.364A17.848,17.848,0,0,0,32,5.23,20.225,20.225,0,0,1,38.61,15H39s1-4,6-4,8,7,8,15c0,3.13-1.95,8.35-5.08,13.23.13.06.26.11.39.17a11.126,11.126,0,0,1,2.767,1.812A21.088,21.088,0,0,1,56.1,48.43a42.171,42.171,0,0,0,2.584-4.318,23.8,23.8,0,0,0-2.838-4.294,6.281,6.281,0,0,1-1.43-5.093A16.352,16.352,0,0,1,54.807,33.071Z" style="fill:#854920"/><path d="M58.59,55.89a42.063,42.063,0,0,0-2.18-6.76c-.1-.24-.2-.47-.31-.7-1.8-3.97-4.34-7.5-7.79-9.03-.13-.06-.26-.11-.39-.17-.16-.06-.32-.12-.48-.17a22.5,22.5,0,0,1-9.08-5.38c-.07-.07-.13-.13-.19-.2a11.187,11.187,0,0,1-1.94-2.58L26.04,14.6a3.835,3.835,0,0,0-.4-.63A28.733,28.733,0,0,0,24,23.77v1.641c1.3-1.361,2.987-2.021,5-.411,4.867,3.894,2.154,13.473,15.843,16.746a7.49,7.49,0,0,1,2.842,1.371A17.881,17.881,0,0,1,54,53c.931,3.722-1.17,5.495-3.683,6.328A4.535,4.535,0,0,0,58.71,56.94,4.834,4.834,0,0,0,58.59,55.89Z" style="fill:#d17824"/><path d="M11.84,52.547a9.72,9.72,0,0,0,2.1.211C14.564,51.328,15.167,49.666,16,48a10.479,10.479,0,0,1,4.3-4.244,9.394,9.394,0,0,0-1.337-3.462,5.455,5.455,0,0,0-1.395-1.5c-.192.069-.371.141-.569.207a8.684,8.684,0,0,0-1,.4c-3.51,1.63-6.05,5.37-7.8,9.48-.167.395-.319.8-.472,1.2A7.236,7.236,0,0,0,11.84,52.547Z" style="fill:#e58d1f"/><path d="M38.288,39.035c-4.557-3.064-5.366-7.382-6.9-10.718-.332.076-.666.141-.993.235a8.419,8.419,0,0,0-4.322,2.53,5.324,5.324,0,0,0-1.008,2.085c.133.327.257.656.414.973a14.1,14.1,0,0,0,2.74,3.79,33.193,33.193,0,0,0,3.79,3.22,1.7,1.7,0,0,0,.14.1c.38.273.775.539,1.177.8a8.679,8.679,0,0,0,2.3-.814A9.272,9.272,0,0,0,38.288,39.035Z" style="fill:#eea439"/><path d="M54,53a17.9,17.9,0,0,0-5.777-9.438,8.648,8.648,0,0,0-3.491,2.628,7.48,7.48,0,0,0-.657,1.067c2.595,2.348,4.23,6.036,5.185,9.073.05.17.1.33.15.49.13.44.25.86.35,1.25a4.6,4.6,0,0,0,.827,1.634c-.1-.122-.187-.245-.27-.376C52.83,58.5,54.931,56.722,54,53Z" style="fill:#eea439"/><path d="M40.169,52.292c-.087.029-.176.049-.261.087A19.325,19.325,0,0,1,32,54H31a19.493,19.493,0,0,1-7.218-1.331c-.074-.03-.15-.043-.225-.066a6.994,6.994,0,0,0,.047,8.856,23.643,23.643,0,0,0,16.792,0,6.983,6.983,0,0,0-.227-9.167Z" style="fill:#d17824"/><path d="M9.339,35.15A41.779,41.779,0,0,1,7,23a17.783,17.783,0,0,1,1.724-7.124,11.433,11.433,0,0,1,3.252-4.2A7.461,7.461,0,0,0,8.432,9.515h0A7.418,7.418,0,0,0,3.71,9.81,25.728,25.728,0,0,0,1,18V28a29.668,29.668,0,0,0,.637,5.926A7.453,7.453,0,0,0,9.339,35.15Z" style="fill:#eea439"/><path d="M63,18a25.725,25.725,0,0,0-2.7-8.174,7.418,7.418,0,0,0-.866-.311h0a7.468,7.468,0,0,0-7.4,2.133,15.154,15.154,0,0,1,2.187,3.39A17.287,17.287,0,0,1,55.842,20a31.252,31.252,0,0,1-1.035,13.073,16.352,16.352,0,0,0-.391,1.654c-.018.1-.023.209-.036.313a7.415,7.415,0,0,0,6.292-.018,7.5,7.5,0,0,0,1.693-1.1A29.69,29.69,0,0,0,63,28Z" style="fill:#d17824"/><path d="M20.088,9.02a12.144,12.144,0,0,1,1.853.221,12.247,12.247,0,0,1,7.748,5.434l.8,1.231c3.884-1.452,5.241-3.993,5.637-6.139A18.31,18.31,0,0,0,32,5.23a19.562,19.562,0,0,0-8.29-3.673C21.8,2.376,19.818,4.35,20.088,9.02Zm7.473-5.453h0Z" style="fill:#eea439"/><path d="M24.9,4.009a2.053,2.053,0,0,0-1.7.72,1.612,1.612,0,0,0,.047,1.617A4.63,4.63,0,0,0,24.39,7.574l3.442,2.891a6.771,6.771,0,0,0,2.2,1.406,2.277,2.277,0,0,0,2.414-.532c1.4-1.656-.151-4.026-1.41-5.128A8.826,8.826,0,0,0,24.9,4.009Z" style="fill:#f7b64e"/><path d="M9.521,6.271a2.028,2.028,0,0,0-.487,1.586A1.774,1.774,0,0,0,10.722,9a5.529,5.529,0,0,0,2.156-.483l4.269-1.587c.767-.285,1.636-.676,1.82-1.429.192-.781-.485-1.527-1.229-1.925C14.813,2.009,11.21,3.891,9.521,6.271Z" style="fill:#eea439"/><path d="M52.479,6.271a2.028,2.028,0,0,1,.487,1.586A1.774,1.774,0,0,1,51.278,9a5.529,5.529,0,0,1-2.156-.483L44.853,6.927c-.767-.285-1.636-.676-1.82-1.429-.192-.781.485-1.527,1.229-1.925C47.187,2.009,50.79,3.891,52.479,6.271Z" style="fill:#d17824"/><path d="M8.832,13.892c.427-1.121.06-2.839-1.328-2.89a3.128,3.128,0,0,0-2.315,1.1C4,13.382,2.485,16.057,3.172,17.885a1.545,1.545,0,0,0,2,.989,2.327,2.327,0,0,0,.723-.725l2-2.707A6.623,6.623,0,0,0,8.832,13.892Z" style="fill:#ffcb78"/><path d="M56.147,32.338a2.526,2.526,0,0,0,.165,2.111,1.691,1.691,0,0,0,1.627.518,3.44,3.44,0,0,0,1.559-.839,7.282,7.282,0,0,0,2.389-4.254c.314-1.808.132-5.233-2.623-4.843a2.3,2.3,0,0,0-1.452.928c-.759.993-.631,1.9-.823,3.057C56.8,30.143,56.391,31.222,56.147,32.338Z" style="fill:#eea439"/><path d="M13.652,41.433a10.568,10.568,0,0,0-2.566,4.781,1.581,1.581,0,0,0,.132,1.349,1.745,1.745,0,0,0,2.2.1,6.413,6.413,0,0,0,1.466-1.722A7.935,7.935,0,0,1,17.1,43.925a10.337,10.337,0,0,0,1.184-.759A1.866,1.866,0,0,0,19,41.522a1.694,1.694,0,0,0-.184-.843,1.944,1.944,0,0,0-1.574-.669A4.112,4.112,0,0,0,13.652,41.433Z" style="fill:#eea439"/><path d="M29.644,37.117A3.4,3.4,0,0,0,31.767,38,1.145,1.145,0,0,0,33,36.833a2.975,2.975,0,0,0-.471-1.424,16.458,16.458,0,0,1-1.335-2.627,6.023,6.023,0,0,0-.9-2.179,2.053,2.053,0,0,0-2.231-.462,1.6,1.6,0,0,0-.641.4A2.143,2.143,0,0,0,27,31.99,6.807,6.807,0,0,0,29.644,37.117Z" style="fill:#ffcb78"/><path d="M59.833,14.1l-.254.5h-.392a.183.183,0,0,0-.132.312l.313.307-.114.563a.186.186,0,0,0,.294.182L60,15.631l.452.332a.186.186,0,0,0,.294-.182l-.114-.563.313-.307a.183.183,0,0,0-.132-.312h-.392l-.254-.5A.188.188,0,0,0,59.833,14.1Z" style="fill:#eea439"/><path d="M34.833,14.5l-.254.5h-.392a.183.183,0,0,0-.132.312l.313.307-.114.563a.185.185,0,0,0,.294.181L35,16.031l.452.332a.185.185,0,0,0,.294-.181l-.114-.563.313-.307A.183.183,0,0,0,35.813,15h-.392l-.254-.5A.188.188,0,0,0,34.833,14.5Z" style="fill:#eea439"/><path d="M58.833,37.5l-.254.5h-.392a.183.183,0,0,0-.132.312l.313.307-.114.563a.185.185,0,0,0,.294.181L59,39.031l.452.332a.185.185,0,0,0,.294-.181l-.114-.563.313-.307A.183.183,0,0,0,59.813,38h-.392l-.254-.5A.188.188,0,0,0,58.833,37.5Z" style="fill:#eea439"/><path d="M3.833,20.5l-.254.5H3.187a.183.183,0,0,0-.132.312l.313.307-.114.563a.185.185,0,0,0,.294.181L4,22.031l.452.332a.185.185,0,0,0,.294-.181l-.114-.563.313-.307A.183.183,0,0,0,4.813,21H4.421l-.254-.5A.188.188,0,0,0,3.833,20.5Z" style="fill:#ffcb78"/><path d="M18.083,4.694l-.513.167L17.3,4.593a.176.176,0,0,0-.3.123l0,.423-.462.3a.18.18,0,0,0,.077.325l.535.082.081.534a.179.179,0,0,0,.325.077l.3-.462.423,0a.175.175,0,0,0,.123-.3l-.267-.267.166-.513A.182.182,0,0,0,18.083,4.694Z" style="fill:#f7b64e"/><path d="M26.833,5.5l-.254.5h-.392a.183.183,0,0,0-.132.312l.313.307-.114.563a.185.185,0,0,0,.294.181L27,7.031l.452.332a.185.185,0,0,0,.294-.181l-.114-.563.313-.307A.183.183,0,0,0,27.813,6h-.392l-.254-.5A.188.188,0,0,0,26.833,5.5Z" style="fill:#ffcb78"/><path d="M4.917,31.752,4.79,32H4.6a.091.091,0,0,0-.066.155l.156.153-.057.281a.093.093,0,0,0,.147.091L5,32.514l.225.166a.093.093,0,0,0,.147-.091l-.057-.281.156-.153A.091.091,0,0,0,5.405,32h-.2l-.127-.248A.093.093,0,0,0,4.917,31.752Z" style="fill:#ffcb78"/><path d="M4.917,38.752,4.79,39H4.6a.091.091,0,0,0-.066.155l.156.153-.057.281a.093.093,0,0,0,.147.091L5,39.514l.225.166a.093.093,0,0,0,.147-.091l-.057-.281.156-.153A.091.091,0,0,0,5.405,39h-.2l-.127-.248A.093.093,0,0,0,4.917,38.752Z" style="fill:#eea439"/><path d="M59.917,21.752,59.79,22h-.2a.091.091,0,0,0-.066.155l.156.153-.057.281a.093.093,0,0,0,.147.091L60,22.514l.225.166a.093.093,0,0,0,.147-.091l-.057-.281.156-.153A.091.091,0,0,0,60.405,22h-.2l-.127-.248A.093.093,0,0,0,59.917,21.752Z" style="fill:#eea439"/><path d="M4.917,10.752,4.79,11H4.6a.091.091,0,0,0-.066.155l.156.153-.057.281a.093.093,0,0,0,.147.091L5,11.514l.225.166a.093.093,0,0,0,.147-.091l-.057-.281.156-.153A.091.091,0,0,0,5.405,11h-.2l-.127-.248A.093.093,0,0,0,4.917,10.752Z" style="fill:#ffcb78"/><path d="M21.347,4.459l.083.256-.133.134A.088.088,0,0,0,21.358,5l.212,0,.152.231a.09.09,0,0,0,.163-.039l.04-.267.268-.041a.09.09,0,0,0,.038-.162L22,4.567l0-.211a.088.088,0,0,0-.151-.061l-.134.133-.256-.083A.091.091,0,0,0,21.347,4.459Z" style="fill:#f7b64e"/><path d="M55.347,13.459l.083.256-.133.134a.088.088,0,0,0,.061.151l.212,0,.152.231a.09.09,0,0,0,.163-.039l.04-.267.268-.041a.09.09,0,0,0,.038-.162L56,13.567l0-.211a.088.088,0,0,0-.151-.061l-.134.133-.256-.083A.091.091,0,0,0,55.347,13.459Z" style="fill:#eea439"/><path d="M3.347,25.459l.083.256-.133.134A.088.088,0,0,0,3.358,26l.212,0,.152.231a.09.09,0,0,0,.163-.039l.04-.267.268-.041a.09.09,0,0,0,.038-.162L4,25.567l0-.211a.088.088,0,0,0-.151-.061l-.134.133-.256-.083A.091.091,0,0,0,3.347,25.459Z" style="fill:#ffcb78"/><path d="M56.347,18.459l.083.256-.133.134a.088.088,0,0,0,.061.151l.212,0,.152.231a.09.09,0,0,0,.163-.039l.04-.267.268-.041a.09.09,0,0,0,.038-.162L57,18.567l0-.211a.088.088,0,0,0-.151-.061l-.134.133-.256-.083A.091.091,0,0,0,56.347,18.459Z" style="fill:#eea439"/><path d="M28.347,8.459l.083.256-.133.134A.088.088,0,0,0,28.358,9l.212,0,.152.231a.09.09,0,0,0,.163-.039l.04-.267.268-.041a.09.09,0,0,0,.038-.162L29,8.567l0-.211a.088.088,0,0,0-.151-.061l-.134.133-.256-.083A.091.091,0,0,0,28.347,8.459Z" style="fill:#ffcb78"/><path d="M5.347,28.459l.083.256-.133.134A.088.088,0,0,0,5.358,29l.212,0,.152.231a.09.09,0,0,0,.163-.039l.04-.267.268-.041a.09.09,0,0,0,.038-.162L6,28.567l0-.211a.088.088,0,0,0-.151-.061l-.134.133-.256-.083A.091.091,0,0,0,5.347,28.459Z" style="fill:#ffcb78"/><path d="M30.083,55.694l-.513.167-.268-.268a.176.176,0,0,0-.3.123l0,.423-.462.3a.18.18,0,0,0,.077.325l.535.082.081.534a.179.179,0,0,0,.325.077l.3-.462.423,0a.175.175,0,0,0,.123-.3l-.267-.267.166-.513A.182.182,0,0,0,30.083,55.694Z" style="fill:#eea439"/><path d="M25.083,56.694l-.513.167-.268-.268a.176.176,0,0,0-.3.123l0,.423-.462.3a.18.18,0,0,0,.077.325l.535.082.081.534a.179.179,0,0,0,.325.077l.3-.462.423,0a.175.175,0,0,0,.123-.3l-.267-.267.166-.513A.182.182,0,0,0,25.083,56.694Z" style="fill:#eea439"/><path d="M16.833,41.5l-.254.5h-.392a.183.183,0,0,0-.132.312l.313.307-.114.563a.185.185,0,0,0,.294.181L17,43.031l.452.332a.185.185,0,0,0,.294-.181l-.114-.563.313-.307A.183.183,0,0,0,17.813,42h-.392l-.254-.5A.188.188,0,0,0,16.833,41.5Z" style="fill:#ffcb78"/><path d="M13.347,42.459l.083.256-.133.134a.088.088,0,0,0,.061.151l.212,0,.152.231a.09.09,0,0,0,.163-.039l.04-.267.268-.041a.09.09,0,0,0,.038-.162L14,42.567l0-.211a.088.088,0,0,0-.151-.061l-.134.133-.256-.083A.091.091,0,0,0,13.347,42.459Z" style="fill:#ffcb78"/><path d="M38.917,54.752,38.79,55h-.2a.091.091,0,0,0-.066.155l.156.153-.057.281a.093.093,0,0,0,.147.091L39,55.514l.225.166a.093.093,0,0,0,.147-.091l-.057-.281.156-.153A.091.091,0,0,0,39.405,55h-.2l-.127-.248A.093.093,0,0,0,38.917,54.752Z" style="fill:#eea439"/><path d="M34.833,58.5l-.254.5h-.392a.183.183,0,0,0-.132.312l.313.307-.114.563a.185.185,0,0,0,.294.181L35,60.031l.452.332a.185.185,0,0,0,.294-.181l-.114-.563.313-.307A.183.183,0,0,0,35.813,59h-.392l-.254-.5A.188.188,0,0,0,34.833,58.5Z" style="fill:#eea439"/><path d="M31.347,59.459l.083.256-.133.134a.088.088,0,0,0,.061.151l.212,0,.152.231a.09.09,0,0,0,.163-.039l.04-.267.268-.041a.09.09,0,0,0,.038-.162L32,59.567l0-.211a.088.088,0,0,0-.151-.061l-.134.133-.256-.083A.091.091,0,0,0,31.347,59.459Z" style="fill:#eea439"/><path d="M11.347,49.459l.083.256-.133.134a.088.088,0,0,0,.061.151l.212,0,.152.231a.09.09,0,0,0,.163-.039l.04-.267.268-.041a.09.09,0,0,0,.038-.162L12,49.567l0-.211a.088.088,0,0,0-.151-.061l-.134.133-.256-.083A.091.091,0,0,0,11.347,49.459Z" style="fill:#eea439"/><path d="M40.63,48.807l-1.182-1.614A12.728,12.728,0,0,1,32,50a12.706,12.706,0,0,1-7.409-2.778l-1.178,1.617A14.641,14.641,0,0,0,32,52,14.662,14.662,0,0,0,40.63,48.807Z"/><path d="M48.385,36.512l1.746.976c.383-.684.74-1.37,1.073-2.048l-1.8-.88Q48.933,35.529,48.385,36.512Z"/><path d="M64,18a.892.892,0,0,0-.007-.116,24.524,24.524,0,0,0-.981-4.192l-1.905.612A23.409,23.409,0,0,1,62,18.064V28c0,5.816-2.137,12.554-5.776,18.413-2.055-3.95-4.569-6.619-7.5-7.915a9.926,9.926,0,0,0-.971-.389,21.75,21.75,0,0,1-8.44-4.9l.794-2.381A17.308,17.308,0,0,0,41,25.35V24.043a28.578,28.578,0,0,0-1.168-8.489,1.023,1.023,0,0,0,.139-.312C39.979,15.21,40.829,12,45,12c3.99,0,7,6.019,7,14a19.787,19.787,0,0,1-1.916,7.1l1.832.8A21.4,21.4,0,0,0,54,26c0-9.421-3.7-16-9-16a7.1,7.1,0,0,0-6.088,2.94,21.333,21.333,0,0,0-4.27-6.675c-.325-.339-.677-.643-1.023-.954A21.858,21.858,0,0,1,46,2,14.186,14.186,0,0,1,58.371,8.556l1.656-1.121A16.283,16.283,0,0,0,46,0C40.381,0,35.685,1.359,32,4.008,28.309,1.361,23.627,0,18,0,2.292,0,.028,17.7.007,17.883A.918.918,0,0,0,0,18V28A36.906,36.906,0,0,0,4.358,44.46l1.778-.918A34.872,34.872,0,0,1,2,28V18.064A24.907,24.907,0,0,1,4.777,9.936C7.74,4.67,12.188,2,18,2c6.489,0,11.6,1.9,15.187,5.637C39.339,14.051,39.005,23.859,39,24v1.35a15.344,15.344,0,0,1-.786,4.848l-.428,1.283a8.059,8.059,0,0,1-.656-1.011.9.9,0,0,0-.053-.1L26.91,14.107a5.62,5.62,0,0,0-.453-.718A9.158,9.158,0,0,0,18.9,9.522c-5.388,0-9.152,6.7-9.152,16.287,0,2.9,1.471,7.269,3.935,11.677l1.746-.976c-2.271-4.062-3.681-8.162-3.681-10.7,0-8.145,3.075-14.287,7.152-14.287a7.049,7.049,0,0,1,5.617,2.624A29.34,29.34,0,0,0,23,23.771V27.8a15.364,15.364,0,0,0,1.284,6.08,22.216,22.216,0,0,1-7.6,4.176c-4.012,1.337-6.776,5.019-8.637,8.8-.286-.447-.565-.9-.833-1.356L5.489,46.51c.5.85,1.036,1.684,1.592,2.5a43.453,43.453,0,0,0-2,6.285,5.46,5.46,0,0,0,10.6,2.628c1.04-3.924,3.536-10.693,8.56-11.95a24.206,24.206,0,0,0,7.771-3.6,24.606,24.606,0,0,0,8.055,3.778,7.227,7.227,0,0,1,2.135.92c3.3,2.107,5.219,6.624,6.246,10.046.128.424.246.828.348,1.224a5.547,5.547,0,0,0,10.914-1.392,5.652,5.652,0,0,0-.149-1.277,43.452,43.452,0,0,0-2.234-6.93c-.029-.068-.061-.129-.091-.2C61.543,42.062,64,34.635,64,28ZM23.758,44.03c-6.023,1.5-8.857,9.028-10.01,13.378a3.459,3.459,0,0,1-6.061,1.28,3.437,3.437,0,0,1-.656-2.939c.949-4.036,3.851-13.655,10.285-15.8a24.352,24.352,0,0,0,7.889-4.236,14.932,14.932,0,0,0,2.314,2.928A35.376,35.376,0,0,0,30.3,41.1,21.856,21.856,0,0,1,23.758,44.03ZM57.613,56.113a3.692,3.692,0,0,1,.1.829,3.547,3.547,0,0,1-6.98.884c-.1-.41-.23-.843-.367-1.293-1.124-3.744-3.265-8.718-7.09-11.157A9.2,9.2,0,0,0,40.548,44.2a22.9,22.9,0,0,1-7.814-3.768,32.1,32.1,0,0,1-3.815-3.222,13.043,13.043,0,0,1-2.545-3.521A13.357,13.357,0,0,1,25,27.8V23.728a27.647,27.647,0,0,1,.95-7.385L35.358,31.4a13.2,13.2,0,0,0,2.288,2.981A23.537,23.537,0,0,0,47.115,40a7.973,7.973,0,0,1,.785.314c3.748,1.661,6.2,5.918,7.586,9.2A41.363,41.363,0,0,1,57.613,56.113Z"/><path d="M60.406,12.386l1.85-.762c-.3-.721-.624-1.423-.974-2.089l-1.771.93C59.832,11.076,60.133,11.723,60.406,12.386Z"/><path d="M32,62a24.532,24.532,0,0,1-14.418-4.892L16.42,58.735A26.841,26.841,0,0,0,32,64a26.836,26.836,0,0,0,15.581-5.266l-1.162-1.627A24.529,24.529,0,0,1,32,62Z"/></g></svg>