<svg xmlns="http://www.w3.org/2000/svg" viewBox="0 0 64 64"><g id="_25-Cruller" data-name="25-Cruller"><path d="M59,40v1a8.978,8.978,0,0,1-3,4.48c-1.88,1.71-4.92,3.55-9.81,4.84A59.783,59.783,0,0,1,31,52c-.29,0-.59,0-.87-.01A62.455,62.455,0,0,1,18,50.83c-5.32-1.09-8.77-2.82-11-4.52C3.48,43.63,3,41,3,41V36l.17-.21A5.851,5.851,0,0,0,7,37h.1a5.9,5.9,0,0,0,1.47,2.95C10.19,41.7,12.9,44,16,44h7.86A15.043,15.043,0,0,0,32,46h2s3-1,4-2c7,3.04,16-3,16-3a10.177,10.177,0,0,0,5-1.3Z" style="fill:#dba670"/><path d="M33,21h.07c2.73.02,4.93.9,4.93,2v1.86A1.93,1.93,0,0,0,36.38,24H34l-1.99,2.01L32,26l-1.35-1.01A5,5,0,0,0,26,24.26V23c0-1.1,2.2-1.98,4.93-2H33Z" style="fill:#854920"/><path d="M7,47.81a6.635,6.635,0,0,0,.1,1.18L7,49,3.76,47.38A5,5,0,0,1,1,42.91V42a2.006,2.006,0,0,1,2-2v1s.48,2.63,4,5.31Z" style="fill:#854920"/><path d="M20.52,55.44l2.17,1.24c.1.06.2.11.31.17V57l-9.57-1.59a7.741,7.741,0,0,1-4.17-2.15A7.614,7.614,0,0,1,7.1,48.99,6.635,6.635,0,0,1,7,47.81v-1.5c2.23,1.7,5.68,3.43,11,4.52v.27A5,5,0,0,0,20.52,55.44Z" style="fill:#c96b1c"/><path d="M23,56.85c-.11-.06-.21-.11-.31-.17l-2.17-1.24A5,5,0,0,1,18,51.1v-.27a62.455,62.455,0,0,0,12.13,1.16,3.942,3.942,0,0,0,2.76,2.8l4.91,1.34L35,58H27.66A9.979,9.979,0,0,1,23,56.85Z" style="fill:#e58d1f"/><path d="M60.58,48.04,56,50l-.05-.01a4.913,4.913,0,0,0,.05-.67V45.48A8.978,8.978,0,0,0,59,41V40a4,4,0,0,1,4,4v.36A4,4,0,0,1,60.58,48.04Z" style="fill:#854920"/><path d="M56,45.48v3.84a4.913,4.913,0,0,1-.05.67,4.421,4.421,0,0,1-.6,1.61,4.3,4.3,0,0,1-5.05,1.83L49,53l-.26-.09a3.97,3.97,0,0,1-2.55-2.59C51.08,49.03,54.12,47.19,56,45.48Z" style="fill:#bf5d1b"/><path d="M37.8,56.13l-4.91-1.34a3.942,3.942,0,0,1-2.76-2.8c.28.01.58.01.87.01a59.783,59.783,0,0,0,15.19-1.68,3.97,3.97,0,0,0,2.55,2.59L49,53a4,4,0,0,1-4,4H42.34a10.16,10.16,0,0,1-2.63-.35Z" style="fill:#e58d1f"/><path d="M41.61,22.39a6.09,6.09,0,0,0-3.29,2.97l-.04.07a1.52,1.52,0,0,0-.28-.57v-2.2a4,4,0,0,1,1.17-2.83l5.58-5.58a7.5,7.5,0,0,1,2.24-1.55,7.573,7.573,0,0,1,3.19-.7,7.7,7.7,0,0,1,3.44.81A7.911,7.911,0,0,1,58,19.82,9.8,9.8,0,0,0,54.03,19H50.05a10.1,10.1,0,0,0-3.94.81L42,22Z" style="fill:#f7b64e"/><path d="M38,22.66V23c0-1.1-2.2-1.98-4.93-2A2.019,2.019,0,0,0,35,19.63L36.57,15l.4-3.53c.01-.13.02-.26.02-.38H37l.92-1.16a5.166,5.166,0,0,1,5.42-1.74,4.979,4.979,0,0,1,2.64,1.73,4.573,4.573,0,0,1,1.01,2.78,7.5,7.5,0,0,0-2.24,1.55l-5.58,5.58A4,4,0,0,0,38,22.66Z" style="fill:#f7b64e"/><path d="M37,10.92a.97.97,0,0,1-.01.17c0,.12-.01.25-.02.38L36.57,15,35,19.63A2.019,2.019,0,0,1,33.07,21H30.93A2.019,2.019,0,0,1,29,19.63L27.43,15l-.4-3.53c-.01-.13-.02-.26-.02-.38A5,5,0,1,1,37,10.92Z" style="fill:#f7b64e"/><path d="M29,19.63A2.019,2.019,0,0,0,30.93,21c-2.73.02-4.93.9-4.93,2v-.34a4,4,0,0,0-1.17-2.83l-5.58-5.58a7.5,7.5,0,0,0-2.24-1.55,4.573,4.573,0,0,1,1.01-2.78,4.979,4.979,0,0,1,2.64-1.73,5.166,5.166,0,0,1,5.42,1.74L27,11.09h.01c0,.12.01.25.02.38l.4,3.53Z" style="fill:#f7b64e"/><path d="M26,23v1l-2.24-1.5a3.08,3.08,0,0,0-.76-.35V22l-5.11-2.19A10.1,10.1,0,0,0,13.95,19H9.97A9.8,9.8,0,0,0,6,19.82a7.911,7.911,0,0,1,4.38-7.01A7.7,7.7,0,0,1,13.82,12a7.573,7.573,0,0,1,3.19.7,7.5,7.5,0,0,1,2.24,1.55l5.58,5.58A4,4,0,0,1,26,22.66Z" style="fill:#f7b64e"/><path d="M58,19.82a7.444,7.444,0,0,1,.85.42C60.79,21.33,63,23.19,63,26v5a7.147,7.147,0,0,1-.3,1.82,4.473,4.473,0,0,0-1.72-2.17l-9.45-6.3A14.024,14.024,0,0,0,43.76,22a6.163,6.163,0,0,0-2.15.39L42,22l4.11-2.19A10.1,10.1,0,0,1,50.05,19h3.98A9.8,9.8,0,0,1,58,19.82Z" style="fill:#e58d1f"/><path d="M17.89,19.81,23,22v.15a2.8,2.8,0,0,0-.91-.15H20.5a11.828,11.828,0,0,0-5.26,1.21C11.98,24.83,7,27.96,7,32v3.89A5.876,5.876,0,0,0,7.1,37H7a5.851,5.851,0,0,1-3.83-1.21A6.722,6.722,0,0,1,1,31V26c0-2.81,2.21-4.67,4.15-5.76A7.444,7.444,0,0,1,6,19.82,9.8,9.8,0,0,1,9.97,19h3.98A10.1,10.1,0,0,1,17.89,19.81Z" style="fill:#e58d1f"/><path d="M23.76,22.5,26,24v.26a4.989,4.989,0,0,0-1.21.63C22.2,26.72,19,29.82,19,34c0,4.34,1.54,7.92,4.86,10H16c-3.1,0-5.81-2.3-7.43-4.05A5.981,5.981,0,0,1,7,35.89V32c0-4.04,4.98-7.17,8.24-8.79A11.828,11.828,0,0,1,20.5,22h1.59a2.8,2.8,0,0,1,.91.15A3.08,3.08,0,0,1,23.76,22.5Z" style="fill:#e58d1f"/><path d="M38,44c-1,1-4,2-4,2H32a15.043,15.043,0,0,1-8.14-2C20.54,41.92,19,38.34,19,34c0-4.18,3.2-7.28,5.79-9.11a4.935,4.935,0,0,1,5.86.1L32,26s-4,4-4,9S38,44,38,44Z" style="fill:#e58d1f"/><path d="M32.01,26.01,34,24h2.38a1.93,1.93,0,0,1,1.62.86,1.52,1.52,0,0,1,.28.57.983.983,0,0,1,.05.16c.38,1.75,1.02,4.56,1.67,6.53C41,35.16,49,41,54,41c0,0-9,6.04-16,3,0,0-10-4-10-9s4-9,4-9Z" style="fill:#e58d1f"/><path d="M62.7,32.82a4.383,4.383,0,0,1,.3,1.61,4.551,4.551,0,0,1-1.26,3.15A11.68,11.68,0,0,1,59,39.7,10.177,10.177,0,0,1,54,41c-5,0-13-5.84-14-8.88-.65-1.97-1.29-4.78-1.67-6.53a.983.983,0,0,0-.05-.16l.04-.07a6.09,6.09,0,0,1,3.29-2.97A6.163,6.163,0,0,1,43.76,22a14.024,14.024,0,0,1,7.77,2.35l9.45,6.3A4.473,4.473,0,0,1,62.7,32.82Z" style="fill:#e58d1f"/><path d="M20.6,20.972c-3,.066-10.1.92-14.116,7.213a1.982,1.982,0,0,1-1.675.9A5.361,5.361,0,0,1,1,27.793V31a6.722,6.722,0,0,0,2.17,4.79A5.851,5.851,0,0,0,7,37h.1A5.876,5.876,0,0,1,7,35.89V32c0-4.04,4.98-7.17,8.24-8.79A11.828,11.828,0,0,1,20.5,22h1.59a2.8,2.8,0,0,1,.91.15V22Z" style="fill:#bf5d1b"/><path d="M16.972,30.943a4.015,4.015,0,0,1-4.046,2.111,7.506,7.506,0,0,1-5.451-3.21A5.314,5.314,0,0,0,7,32v3.89a5.981,5.981,0,0,0,1.57,4.06C10.19,41.7,12.9,44,16,44h7.86C20.54,41.92,19,38.34,19,34c0-4.18,3.2-7.28,5.79-9.11A4.989,4.989,0,0,1,26,24.26V24l-1.256-.841C21.114,24.006,18.349,28.312,16.972,30.943Z" style="fill:#c96b1c"/><path d="M28,35c0-5,4-9,4-9l-.94-.7c-2.787,1.16-4.109,4.634-4.678,6.828a3.937,3.937,0,0,1-4.292,2.942A7.292,7.292,0,0,1,19.009,33.8c0,.066-.009.13-.009.2,0,4.34,1.54,7.92,4.86,10A15.043,15.043,0,0,0,32,46h2s3-1,4-2C38,44,28,40,28,35Z" style="fill:#bf5d1b"/><path d="M41.168,33.984c-4.7,5.031-10.778,2.153-13.153.7,0,.107-.015.211-.015.318,0,5,10,9,10,9,7,3.04,16-3,16-3C49.9,41,43.788,37.074,41.168,33.984Z" style="fill:#c96b1c"/><path d="M62.7,32.82a4.473,4.473,0,0,0-1.72-2.17l-6.923-4.615c-.019,4.2-3.58,6.225-6.462,7.173a4.016,4.016,0,0,1-4.926-2.136l-3.271-7.2A5.957,5.957,0,0,0,38.32,25.36l-.04.07a.983.983,0,0,1,.05.16c.38,1.75,1.02,4.56,1.67,6.53C41,35.16,49,41,54,41a10.177,10.177,0,0,0,5-1.3,11.68,11.68,0,0,0,2.74-2.12A4.551,4.551,0,0,0,63,34.43,4.383,4.383,0,0,0,62.7,32.82Z" style="fill:#bf5d1b"/><path d="M59.8,20.834a4.329,4.329,0,0,1-2.326,4.634,1.972,1.972,0,0,1-2.288-.349c-3.317-3.2-8.171-3.993-11.253-4.146L42,22l-.39.39A6.163,6.163,0,0,1,43.76,22a14.024,14.024,0,0,1,7.77,2.35l9.45,6.3a4.473,4.473,0,0,1,1.72,2.17A7.147,7.147,0,0,0,63,31V26A6.4,6.4,0,0,0,59.8,20.834Z" style="fill:#c96b1c"/><path d="M24.83,19.83l-3.695-3.695C20.353,17.088,18.864,18,16,18a25.618,25.618,0,0,1-9.153-1.638A7.908,7.908,0,0,0,6,19.82,9.8,9.8,0,0,1,9.97,19h3.98a10.1,10.1,0,0,1,3.94.81L23,22v.15a3.08,3.08,0,0,1,.76.35L26,24V22.66A4,4,0,0,0,24.83,19.83Z" style="fill:#eda026"/><path d="M33,16H31a4.214,4.214,0,0,1-3.729-2.4L27.43,15,29,19.63A2.019,2.019,0,0,0,30.93,21h2.14A2.019,2.019,0,0,0,35,19.63L36.57,15l.159-1.4A4.214,4.214,0,0,1,33,16Z" style="fill:#eda026"/><path d="M41.471,15.536a1.972,1.972,0,0,1-1.278.568,3.879,3.879,0,0,1-3.563-1.63L36.57,15,35,19.63A2.019,2.019,0,0,1,33.07,21c2.73.02,4.93.9,4.93,2v-.34a4,4,0,0,1,1.17-2.83l5.58-5.58a7.5,7.5,0,0,1,2.24-1.55,4.524,4.524,0,0,0-.351-1.642C45.324,12.1,43.273,13.792,41.471,15.536Z" style="fill:#e58d1f"/><path d="M29,19.63,27.43,15l-.06-.526a3.879,3.879,0,0,1-3.563,1.63,1.972,1.972,0,0,1-1.278-.568c-1.8-1.744-3.853-3.433-5.168-4.478A4.524,4.524,0,0,0,17.01,12.7a7.5,7.5,0,0,1,2.24,1.55l5.58,5.58A4,4,0,0,1,26,22.66V23c0-1.1,2.2-1.98,4.93-2A2.019,2.019,0,0,1,29,19.63Z" style="fill:#e58d1f"/><path d="M40.354,18.645,39.17,19.83A4,4,0,0,0,38,22.66v2.2a1.52,1.52,0,0,1,.28.57l.04-.07a6.09,6.09,0,0,1,3.29-2.97L42,22l4.11-2.19A10.1,10.1,0,0,1,50.05,19h3.98a9.8,9.8,0,0,1,3.97.82,7.913,7.913,0,0,0-.863-3.487C54.575,17.279,46.774,19.844,40.354,18.645Z" style="fill:#eda026"/><path d="M23,56.85c-.11-.06-.21-.11-.31-.17l-2.17-1.24A5,5,0,0,1,18,51.1v-.27c-5.32-1.09-8.77-2.82-11-4.52v1.5a6.8,6.8,0,0,0,.07.949,43.081,43.081,0,0,0,6.849,2.894,2,2,0,0,1,1.266,1.2,6.676,6.676,0,0,0,3.244,3.389L23,57Z" style="fill:#bf5d1b"/><path d="M32.89,54.79a3.942,3.942,0,0,1-2.76-2.8A62.455,62.455,0,0,1,18,50.83v.27a4.957,4.957,0,0,0,.215,1.425,22.453,22.453,0,0,0,9.379,1.64,2.947,2.947,0,0,1,2.23.815A16.3,16.3,0,0,0,35,58l2.8-1.87Z" style="fill:#c96b1c"/><path d="M45.326,53.439c.434.562,1.352,1.131,3.207,1.4A3.963,3.963,0,0,0,49,53l-.26-.09a3.97,3.97,0,0,1-2.55-2.59A59.783,59.783,0,0,1,31,52c-.29,0-.59,0-.87-.01a3.9,3.9,0,0,0,1.256,1.991c2.657-.056,8.508-.288,11.842-1.241A1.952,1.952,0,0,1,45.326,53.439Z" style="fill:#c96b1c"/><path d="M35,48.909c-3.069.38-6.082,1.29-9.174,1.3-3.122.013-6.164-.888-9.212-1.563a22.655,22.655,0,0,0-6.948-.662A31.059,31.059,0,0,0,18,50.83a62.455,62.455,0,0,0,12.13,1.16c.28.01.58.01.87.01a59.783,59.783,0,0,0,15.19-1.68c4.89-1.29,7.93-3.13,9.81-4.84.22-.2.4-.393.593-.587-1.809.616-3.557,1.667-5.36,2.357C46.129,49.2,40.421,48.238,35,48.909Z" style="fill:#ffd496"/><path d="M6.846,42.059A16.349,16.349,0,0,1,9.02,43.925a9.861,9.861,0,0,0,5.207,2.345c2.54.324,5.114-.354,7.668-.17,2.438.175,4.76,1.128,7.189,1.4,3.277.365,6.554-.523,9.847-.7s6.734.358,9.822-.819a37.848,37.848,0,0,0,3.9-2.038,18.59,18.59,0,0,1,5.976-1.911A5.492,5.492,0,0,0,59,41V39.7A10.177,10.177,0,0,1,54,41s-9,6.04-16,3c-1,1-4,2-4,2H32a15.043,15.043,0,0,1-8.14-2H16c-3.1,0-5.81-2.3-7.43-4.05A5.9,5.9,0,0,1,7.1,37H7a5.851,5.851,0,0,1-3.83-1.21L3,36v5a3.5,3.5,0,0,0,.133.461A5.451,5.451,0,0,1,6.846,42.059Z" style="fill:#cf8840"/><path d="M58.629,42.035a18.59,18.59,0,0,0-5.976,1.911,37.848,37.848,0,0,1-3.9,2.038c-3.088,1.177-6.523.647-9.822.819s-6.57,1.06-9.847.7c-2.429-.27-4.751-1.223-7.189-1.4-2.554-.184-5.128.494-7.668.17A9.861,9.861,0,0,1,9.02,43.925a16.349,16.349,0,0,0-2.174-1.866,5.451,5.451,0,0,0-3.713-.6A10.841,10.841,0,0,0,7,46.31a19.25,19.25,0,0,0,2.664,1.677,22.655,22.655,0,0,1,6.948.662c3.048.675,6.09,1.576,9.212,1.563,3.092-.013,6.1-.923,9.174-1.3,5.423-.671,11.131.293,16.235-1.659,1.8-.69,3.551-1.741,5.36-2.357A10.285,10.285,0,0,0,58.629,42.035Z" style="fill:#dba670"/><path d="M43.4,28.851a2.608,2.608,0,0,0,.915.966,2.654,2.654,0,0,0,1.981-.03,6.986,6.986,0,0,0,3.108-1.681c.476-.494.831-1.315.4-1.854a1.816,1.816,0,0,0-1.278-.472,6.992,6.992,0,0,1-2.349-.685c-1.05-.535-3.128-1.971-4.009-.337C41.54,25.931,42.808,27.921,43.4,28.851Z" style="fill:#f7b64e"/><path d="M30.571,29.443a1.9,1.9,0,0,0-.53,1.594,1.627,1.627,0,0,0,.364.6,9.491,9.491,0,0,0,1.713,1.572,3,3,0,0,0,2.759.662,1.151,1.151,0,0,0,.513-.367,2.8,2.8,0,0,0,.138-1.994,8.7,8.7,0,0,1,.211-3.436c.2-.733.562-1.365-.21-1.834A2.134,2.134,0,0,0,34.484,26C32.72,25.923,31.707,27.991,30.571,29.443Z" style="fill:#f7b64e"/><path d="M14.734,23.871a14.379,14.379,0,0,0-2.8,2.452,3.216,3.216,0,0,0-.9,1.392.874.874,0,0,0,0,.509.784.784,0,0,0,.294.346,2.136,2.136,0,0,0,1.95.322,10.953,10.953,0,0,0,1.542-.873c.917-.492,1.961-.575,2.892-1.032a2.2,2.2,0,0,0,1.108-1.062,3.306,3.306,0,0,0,.157-1.506C18.833,22.065,15.828,23.2,14.734,23.871Z" style="fill:#f7b64e"/><path d="M4.316,22.191c-.291.423-.482,1.033-.111,1.395a1.29,1.29,0,0,0,.594.277,2.6,2.6,0,0,0,1.758-.032,3.9,3.9,0,0,0,.921-.765,5.606,5.606,0,0,1,2.485-1.354,5.478,5.478,0,0,0,1.8-.566A.465.465,0,0,0,12,20.812c.005-.207-.228-.338-.432-.412C9.177,19.537,5.793,20.042,4.316,22.191Z" style="fill:#f7b64e"/><path d="M23.41,27.214A3.9,3.9,0,0,0,22.8,28.5a.894.894,0,0,0,.078.652.779.779,0,0,0,.617.32,1.635,1.635,0,0,0,1.1-.408,6.571,6.571,0,0,0,.816-.875c.538-.633,3.111-2.525,1.25-3.167C25.1,24.484,24.1,26.117,23.41,27.214Z" style="fill:#f7b64e"/><path d="M28.355,8.581A6,6,0,0,0,28,10.691a2.3,2.3,0,0,0,.651,2A2.364,2.364,0,0,0,30.029,13c.55.006,1.1,0,1.65-.018a.974.974,0,0,0,.485-.1c.279-.171.31-.55.382-.868a8.567,8.567,0,0,1,1.1-2.082c.38-.7.6-1.76-.124-2.308A4.057,4.057,0,0,0,31.088,7,2.562,2.562,0,0,0,28.355,8.581Z" style="fill:#ffcb78"/><path d="M38.624,9.594a2.86,2.86,0,0,0-.619,1.494.671.671,0,0,0,.06.393.786.786,0,0,0,.4.3,3.759,3.759,0,0,0,2.339.072,10.72,10.72,0,0,0,2.162-.912,2.457,2.457,0,0,0,.763-.52,1.218,1.218,0,0,0,.038-1.481C42.531,7.15,39.674,8.232,38.624,9.594Z" style="fill:#ffcb78"/><path d="M49.073,13.116a4.162,4.162,0,0,0-2.063.782,2.735,2.735,0,0,0-1,2.24,1.046,1.046,0,0,0,.121.466.838.838,0,0,0,.682.345,13.516,13.516,0,0,0,2.544-.027l2.812-.208a3.026,3.026,0,0,0,1.015-.194,1.36,1.36,0,0,0,.754-.811,1.763,1.763,0,0,0-.448-1.68C52.343,12.858,50.448,12.909,49.073,13.116Z" style="fill:#ffcb78"/><path d="M19.111,10.152a1.036,1.036,0,0,0,.074,1.053c.481.841,1.943,1.167,2.869,1.39q.825.2,1.662.356c.415.078.952.1,1.155-.231a.813.813,0,0,0,.089-.391,2.668,2.668,0,0,0-.077-1.286,4.869,4.869,0,0,0-.6-.949A2.915,2.915,0,0,0,22.3,9.015C21.358,8.919,19.572,9.287,19.111,10.152Z" style="fill:#ffcb78"/><path d="M10.4,14.43a1.411,1.411,0,0,0-.382,1.116,1.129,1.129,0,0,0,.569.708,7.353,7.353,0,0,0,3.551.723,2.992,2.992,0,0,0,.954-.031,1.159,1.159,0,0,0,.777-.638,2.556,2.556,0,0,0-.754-2.562,2.776,2.776,0,0,0-1.578-.711,2.98,2.98,0,0,0-1.872.35A4.035,4.035,0,0,0,10.4,14.43Z" style="fill:#ffcb78"/><path d="M29.762,9.145a2.02,2.02,0,0,0-.349.667.786.786,0,0,0,.742,1.049,1.487,1.487,0,0,0,1.059-.391,3.014,3.014,0,0,0,.677-.931c.341-.674.453-1.878-.684-1.785C30.5,7.812,30.127,8.643,29.762,9.145Z" style="fill:#fffced"/><path d="M12.123,14.226a1.867,1.867,0,0,0-.2,1.179,1.155,1.155,0,0,0,.748.886.6.6,0,0,0,.371.006.756.756,0,0,0,.4-.556A1.689,1.689,0,0,0,13.4,14.6C13.207,14.2,12.407,13.654,12.123,14.226Z" style="fill:#fffced"/><path d="M64,26c0-2.626-1.611-4.919-4.654-6.628-.138-.079-.263-.129-.4-.2a8.77,8.77,0,0,0-11.164-7.82,5.568,5.568,0,0,0-1.017-2.051A6.008,6.008,0,0,0,43.6,7.226,6.229,6.229,0,0,0,37.6,8.808a5.908,5.908,0,0,0-1.1-1.8,6.05,6.05,0,0,0-9,0,5.9,5.9,0,0,0-1.1,1.8,6.219,6.219,0,0,0-6-1.584A6,6,0,0,0,17.238,9.3a5.594,5.594,0,0,0-1.024,2.059A8.764,8.764,0,0,0,5.055,19.173c-.131.067-.262.119-.395.2C1.611,21.081,0,23.374,0,26v5a7.575,7.575,0,0,0,2,5.078v3.106A3,3,0,0,0,0,42v.91a6.028,6.028,0,0,0,3.312,5.364l2.907,1.454A8.7,8.7,0,0,0,13.266,56.4l9.57,1.59A1.009,1.009,0,0,0,23,58c.03,0,.058-.013.087-.015A11.023,11.023,0,0,0,27.66,59H35a1.006,1.006,0,0,0,.555-.168l2.425-1.617,1.472.4A11.182,11.182,0,0,0,42.34,58H45a4.992,4.992,0,0,0,4.8-3.682l.178.059a5.291,5.291,0,0,0,1.7.281A5.333,5.333,0,0,0,56.8,50.744l4.167-1.786a5,5,0,0,0,3.03-4.6V44a5,5,0,0,0-2.885-4.514,13.514,13.514,0,0,0,1.349-1.216A5.541,5.541,0,0,0,64,34.43a5.38,5.38,0,0,0-.264-1.613A7.968,7.968,0,0,0,64,31ZM53.174,13.705a6.85,6.85,0,0,1,3.633,4.661A11.1,11.1,0,0,0,54.03,18H50.05a11.1,11.1,0,0,0-4.41.927l-4.11,2.19a1.046,1.046,0,0,0-.237.175l-.283.283A7.147,7.147,0,0,0,39,22.836V22.66a3.024,3.024,0,0,1,.877-2.123l5.581-5.58a6.477,6.477,0,0,1,1.954-1.35A6.773,6.773,0,0,1,53.174,13.705ZM38.4,43.083v0c-.01,0-.017-.011-.026-.015C35.765,42.029,29,38.546,29,35c0-4.447,3.56-8.143,3.7-8.283l.015.015L34.418,25h1.96a1,1,0,0,1,.976.8c.419,1.945,1.054,4.674,1.7,6.63.987,3.005,7,7.583,12,9.077C48.037,43,42.729,44.968,38.4,43.083ZM31,22h2c2.461,0,3.842.736,4,1.042v.032A2.915,2.915,0,0,0,36.378,23H34a1,1,0,0,0-.712.3l-1.37,1.39-.667-.5a5.988,5.988,0,0,0-4.236-1.164C27.213,22.709,28.583,22,31,22Zm6.518-6.68a.978.978,0,0,0,.046-.208l.4-3.533c0-.034,0-.067.006-.1l.74-.932a4.183,4.183,0,0,1,4.373-1.39A4.009,4.009,0,0,1,45.2,10.543a3.585,3.585,0,0,1,.728,1.574,8.552,8.552,0,0,0-1.883,1.426l-5.58,5.58a4.983,4.983,0,0,0-1.113,1.732,7.36,7.36,0,0,0-1.555-.543,2.938,2.938,0,0,0,.154-.359ZM28.992,8.338a4.05,4.05,0,0,1,6.016,0,3.832,3.832,0,0,1,.967,3.016l-.386,3.427-1.534,4.531a1.026,1.026,0,0,1-.98.688h-2.15a1.026,1.026,0,0,1-.98-.688l-1.534-4.531-.386-3.427A3.832,3.832,0,0,1,28.992,8.338Zm-8.068.817a4.179,4.179,0,0,1,4.372,1.4l.736.927c0,.034,0,.067.006.1l.4,3.533a.978.978,0,0,0,.046.208l1.569,4.633a2.938,2.938,0,0,0,.154.359,7.36,7.36,0,0,0-1.555.543,4.983,4.983,0,0,0-1.113-1.732l-5.579-5.58a8.52,8.52,0,0,0-1.884-1.426,3.608,3.608,0,0,1,.735-1.582A4,4,0,0,1,20.924,9.155ZM10.827,13.7a6.764,6.764,0,0,1,5.776-.091,6.487,6.487,0,0,1,1.94,1.344l5.58,5.58a3.019,3.019,0,0,1,.82,1.553l-.652-.437a4.261,4.261,0,0,0-.524-.28.994.994,0,0,0-.373-.292L18.28,18.889A11.046,11.046,0,0,0,13.95,18H9.97a11.127,11.127,0,0,0-2.785.367A6.866,6.866,0,0,1,10.827,13.7ZM2,26c0-2.35,1.979-3.955,3.646-4.892a6.884,6.884,0,0,1,.76-.374A8.846,8.846,0,0,1,9.97,20h3.98a9.058,9.058,0,0,1,3.546.729l1.025.439A12.641,12.641,0,0,0,14.8,22.314c-.483.24-1,.512-1.537.814l.982,1.742c.5-.284.991-.539,1.445-.765A10.874,10.874,0,0,1,20.5,23h1.59a1.9,1.9,0,0,1,.626.109,1.991,1.991,0,0,1,.488.222l1.058.709c-.017.012-.036.019-.053.031C21.377,26.075,18,29.424,18,34a15.276,15.276,0,0,0,.893,5.354l1.874-.7A13.294,13.294,0,0,1,20,34c0-3.721,2.917-6.564,5.365-8.3a3.969,3.969,0,0,1,4.686.084l.482.361C29.3,27.659,27,31,27,35c0,4.312,5.827,7.683,8.893,9.157A20.6,20.6,0,0,1,33.834,45H32c-4.931,0-8.407-1.525-10.333-4.533l-1.685,1.078A10.526,10.526,0,0,0,21.125,43H16c-2.681,0-5.122-2.028-6.694-3.727A4.983,4.983,0,0,1,8,35.89V32c0-2.539,2.537-4.756,4.666-6.168L11.56,24.166C7.871,26.614,6,29.25,6,32v3.921C2.159,35.343,2,31.471,2,31ZM6.315,37.964A6.945,6.945,0,0,0,7.836,40.63C9.682,42.623,12.6,45,16,45h7.618A16.362,16.362,0,0,0,32,47h2a1,1,0,0,0,.316-.052,17.469,17.469,0,0,0,3.876-1.814,12.158,12.158,0,0,0,4.2.727c5.519,0,10.785-3.15,11.932-3.881a11.15,11.15,0,0,0,3.532-.663C57.071,43.356,52.671,51,31,51,7.374,51,4.238,41.742,4,40.884V37.433A7.349,7.349,0,0,0,6.315,37.964ZM2,42.91V42a.973.973,0,0,1,.113-.439A11.185,11.185,0,0,0,6,46.809v.573l-1.795-.9A4.014,4.014,0,0,1,2,42.91Zm7.967,9.643A6.661,6.661,0,0,1,8.02,48.221a29.767,29.767,0,0,0,9.017,3.427A6.006,6.006,0,0,0,18.7,55.272l-5.1-.847A6.714,6.714,0,0,1,9.967,52.553ZM34.7,57H27.66A9.018,9.018,0,0,1,24,56.209V56h-.428c-.128-.065-.261-.117-.386-.188l-2.17-1.24a4,4,0,0,1-1.893-2.511,66.107,66.107,0,0,0,10.3.918,4.943,4.943,0,0,0,3.2,2.776l2.795.762ZM45,56H42.34a9.2,9.2,0,0,1-2.367-.314l-6.816-1.86a2.941,2.941,0,0,1-1.363-.837,61.58,61.58,0,0,0,13.818-1.495,4.969,4.969,0,0,0,2.31,2.165A3,3,0,0,1,45,56Zm9.5-4.923a3.3,3.3,0,0,1-3.883,1.4l-1.56-.519a2.972,2.972,0,0,1-1.405-1.015A25.586,25.586,0,0,0,55,47.555V49.32A3.332,3.332,0,0,1,54.5,51.077ZM62,44v.362a3,3,0,0,1-1.818,2.758L57,48.484V45.925a9.687,9.687,0,0,0,2.984-4.746A3,3,0,0,1,62,44Zm-.979-7.114A10.677,10.677,0,0,1,58.185,39H58v.083A9.13,9.13,0,0,1,54,40c-4.556,0-12.183-5.553-13.05-8.191-.622-1.894-1.251-4.634-1.6-6.226a5.075,5.075,0,0,1,2.606-2.257A5.153,5.153,0,0,1,43.76,23a12.994,12.994,0,0,1,7.215,2.182l1.472.981L53.556,24.5l-1.473-.982a14.965,14.965,0,0,0-6.344-2.38l.761-.407A9.075,9.075,0,0,1,50.05,20h3.98a8.876,8.876,0,0,1,3.587.744,6.65,6.65,0,0,1,.743.368C60.021,22.045,62,23.65,62,26v4.182a5.48,5.48,0,0,0-.465-.364l-2.476-1.651-1.11,1.664,2.479,1.653a3.482,3.482,0,0,1,1.341,1.7A3.393,3.393,0,0,1,62,34.43,3.547,3.547,0,0,1,61.021,36.886Z"/><rect x="54.999" y="26.128" width="2" height="2.403" transform="matrix(0.555, -0.832, 0.832, 0.555, 2.197, 58.764)"/></g></svg>