<svg xmlns="http://www.w3.org/2000/svg" viewBox="0 0 64 64"><g id="_27-bun" data-name="27-bun"><path d="M62.99,31.12c0,.12.01.24.01.36a17.012,17.012,0,0,1-.27,2.94l-.56,7.04L62,41.45c-2.65.06-4.4,2.63-6.76,3.81-3.27,1.63-7.27.38-10.9.99-2.31.39-4.41,1.52-6.65,2.15a15.847,15.847,0,0,1-7.18.34c-2.51-.45-4.87-1.5-7.39-1.86-3.72-.53-7.57.48-11.24-.3a11.589,11.589,0,0,1-6.02-3.41,25.314,25.314,0,0,0-2.04-2.22,3.773,3.773,0,0,0-2.16-.94l-.42-5.78A16.831,16.831,0,0,1,1,31.48c0-.12.01-.24.01-.36L1,30.95h.02C1.4,18.78,15.12,9,32,9s30.6,9.78,30.98,21.95H63ZM45,19c0-3.31-5.82-6-13-6s-13,2.69-13,6,5.82,6,13,6S45,22.31,45,19Z" style="fill:#d68020"/><path d="M62.17,41.46l-.24,3.09C61.93,50.32,48.53,55,32,55a69.446,69.446,0,0,1-20.22-2.72c-5.36-1.69-8.96-4.04-9.71-6.69l-.41-5.58a3.773,3.773,0,0,1,2.16.94,25.314,25.314,0,0,1,2.04,2.22,11.589,11.589,0,0,0,6.02,3.41c3.67.78,7.52-.23,11.24.3,2.52.36,4.88,1.41,7.39,1.86a15.847,15.847,0,0,0,7.18-.34c2.24-.63,4.34-1.76,6.65-2.15,3.63-.61,7.63.64,10.9-.99,2.36-1.18,4.11-3.75,6.76-3.81Z" style="fill:#fcedaa"/><path d="M61.93,42.55C61.93,48.32,48.53,53,32,53a69.446,69.446,0,0,1-20.22-2.72c-5.36-1.69-8.96-4.04-9.71-6.69l-.261-3.557c-.05-.005-.1-.02-.149-.023l.41,5.58c.75,2.65,4.35,5,9.71,6.69A69.446,69.446,0,0,0,32,55c16.53,0,29.93-4.68,29.93-10.45l.24-3.09-.155-.009Z" style="fill:#8f420e"/><path d="M62,41.45c-2.65.06-4.4,2.63-6.76,3.81-3.27,1.63-7.27.38-10.9.99-2.31.39-4.41,1.52-6.65,2.15a15.847,15.847,0,0,1-7.18.34c-2.51-.45-4.87-1.5-7.39-1.86-3.72-.53-7.57.48-11.24-.3a11.589,11.589,0,0,1-6.02-3.41,25.314,25.314,0,0,0-2.04-2.22,3.773,3.773,0,0,0-2.16-.94l.208,2.833a8.635,8.635,0,0,1,3.057,1.762A32.782,32.782,0,0,0,8.18,47.8a9.026,9.026,0,0,0,5.4,1.192,50.562,50.562,0,0,1,5.619-.231,34.015,34.015,0,0,1,6.59,1.614,21.012,21.012,0,0,0,10.618.607c2.371-.576,4.577-1.744,6.974-2.2,3.65-.691,7.57.305,11.048-1,2.609-.978,4.9-3.2,7.528-3.626l.209-2.7Z" style="fill:#efba5a"/><path d="M45.036,13.853c-.332-.161-.672-.317-1.015-.481a8.744,8.744,0,0,0-1.766-.565q-1.991-.492-3.97-1.03c-4.428-1.2-9.347-.859-13.8.02-2.517.5-4.984,1.168-6.939,2.906a6.646,6.646,0,0,0-2.529,4.134,4.9,4.9,0,0,0,.159,1.514,3.248,3.248,0,0,0,.506,1.442,13.111,13.111,0,0,0,4.643,3.251,11.593,11.593,0,0,0,2.721.751c.988.143,1.961.031,2.945.116,2.049.178,4.044.737,6.088.966a23.765,23.765,0,0,0,7.3-.409,16.95,16.95,0,0,0,3.836-1.111,12.647,12.647,0,0,0,3.079-2.029,10.043,10.043,0,0,0,2.6-3.2,1.65,1.65,0,0,0,.1-.522,5.564,5.564,0,0,0-1.5-4.064A7.69,7.69,0,0,0,45.036,13.853Z" style="fill:#bc641a"/><path d="M60.153,36.738A9.97,9.97,0,0,1,55.4,37.5c-2.5-.121-5.084-.644-7.465.135a30.234,30.234,0,0,0-4.45,2.378,18.2,18.2,0,0,1-11.448,1.405c-2.258-.378-4.527-1.044-6.8-.746-1.952.257-3.752,1.212-5.691,1.548a9.221,9.221,0,0,1-6.033-1.04c-2.726-1.535-4.582-4.414-7.473-5.611-1.251-.518-2.665-.7-3.749-1.518a4.3,4.3,0,0,1-1.252-1.556c.039.6.1,1.193.2,1.786l.42,5.78A3.773,3.773,0,0,1,3.82,41a25.314,25.314,0,0,1,2.04,2.22,11.589,11.589,0,0,0,6.02,3.41c3.67.78,7.52-.23,11.24.3,2.52.36,4.88,1.41,7.39,1.86a15.847,15.847,0,0,0,7.18-.34c2.24-.63,4.34-1.76,6.65-2.15,3.63-.61,7.63.64,10.9-.99,2.36-1.18,4.11-3.75,6.76-3.81l.17.01.56-7.04c.015-.085.021-.172.035-.257A6.688,6.688,0,0,1,60.153,36.738Z" style="fill:#e19b39"/><ellipse cx="32" cy="19" rx="13" ry="6" style="fill:#8f420e"/><path d="M42.486,18.7c0-1.094-2.39-1.72-3.1-2.042a25.616,25.616,0,0,0-4.248-1.3c-1.959-.511-4.826-1.029-6.774-.257-.978.387-1.752,1.16-2.688,1.64-.623.319-1.31.5-1.932.827a2.463,2.463,0,0,0-1.36,1.515,2.159,2.159,0,0,0,.891,2.091,5.3,5.3,0,0,0,2.217.865,42.656,42.656,0,0,0,7.424.636c2.657.073,5.4.131,7.872-.838.94-.368,1.934-1.049,1.985-2.057A2.02,2.02,0,0,0,42.486,18.7Z" style="fill:#7d3300"/><path d="M13.9,22.5c-1.57-2.121-2.987-4.525-6.072-3.04a2.857,2.857,0,0,0-1.379,4.163A23.909,23.909,0,0,0,9.9,27.891a10.49,10.49,0,0,0,4.39,2.563,9.813,9.813,0,0,0,2.87.333,1.829,1.829,0,0,0,1.287-.59,2.024,2.024,0,0,0,.383-.863,3.576,3.576,0,0,0-1.407-3.794A11.893,11.893,0,0,1,13.9,22.5Z" style="fill:#ffa94a"/><path d="M47.892,22.3a9.51,9.51,0,0,1-2.1,1.933,3.381,3.381,0,0,0-1.407,2.042c-.381,1.287,1.02,1.895,2.086,1.989a5.258,5.258,0,0,0,2.968-.676,10.126,10.126,0,0,0,4.239-5.046,8.823,8.823,0,0,0,.733-3.2,2.5,2.5,0,0,0-2.093-2.773,4.016,4.016,0,0,0-1.59.235,2.457,2.457,0,0,0-.983.491c-.688.647-.428,1.577-.576,2.393A6.2,6.2,0,0,1,47.892,22.3Z" style="fill:#ffa94a"/><path d="M38.807,28.194a2.541,2.541,0,0,0-.728,1.071,1.478,1.478,0,0,0,.171,1.321,1.263,1.263,0,0,0,.9.386,5.88,5.88,0,0,0,3.311-.66,3.028,3.028,0,0,0,1.471-1.492,1.235,1.235,0,0,0-.565-1.5A4.554,4.554,0,0,0,41.783,27,4.35,4.35,0,0,0,38.807,28.194Z" style="fill:#ffa94a"/><path d="M8.83,20.425A5.512,5.512,0,0,0,7.3,22.167a1.628,1.628,0,0,0-.269,1.371.7.7,0,0,0,.462.392A2.734,2.734,0,0,0,9.943,23c.515-.445,1.366-1.523.864-2.53C10.4,19.643,9.332,20.092,8.83,20.425Z" style="fill:#fffced"/><path d="M5.028,27.622a4.237,4.237,0,0,0-1,1.927,2.056,2.056,0,0,0,.7,1.955,3.262,3.262,0,0,0,3.533-.054A3.493,3.493,0,0,0,10,28.405a2.507,2.507,0,0,0-1.094-2C7.31,25.358,5.908,26.551,5.028,27.622Z" style="fill:#fffced"/><path d="M12,16.025a3.537,3.537,0,0,0-.82,1.034,1.2,1.2,0,0,0,.106,1.252,1.146,1.146,0,0,0,1.1.306,2.555,2.555,0,0,0,1.042-.568,6.767,6.767,0,0,0,1.436-1.62,1.02,1.02,0,0,0-.315-1.226C13.652,14.351,12.631,15.4,12,16.025Z" style="fill:#ffa94a"/><path d="M55.63,15.636c-.654-.527-1.353-1.038-2.077-1.523l-1.112,1.662c.676.453,1.327.93,1.936,1.419Z"/><path d="M63.989,31.136a2.679,2.679,0,0,0-.014-.393A19.835,19.835,0,0,0,57.5,17.278l-1.39,1.438a17.835,17.835,0,0,1,5.876,12.269c0,.029,0,.055.006.082s0,.048,0,.073l.012.338a16.383,16.383,0,0,1-.269,2.859l-.484,6.183a9.381,9.381,0,0,0-4.2,2.286,13.471,13.471,0,0,1-2.256,1.557,6.94,6.94,0,0,1-1.961.617l.335,1.971a8.911,8.911,0,0,0,2.518-.8,15.2,15.2,0,0,0,2.6-1.78,9.608,9.608,0,0,1,2.791-1.755l-.151,1.927C60.931,50.117,45.684,54,32,54,15.745,54,4.38,49.559,3.058,45.408l-.29-3.976a3.53,3.53,0,0,1,.405.287,10.6,10.6,0,0,1,1.244,1.32c.23.273.461.547.7.81a12.327,12.327,0,0,0,2.388,1.994l1.078-1.686a10.184,10.184,0,0,1-2-1.666c-.221-.24-.432-.49-.643-.74a12.166,12.166,0,0,0-1.488-1.565A5.191,5.191,0,0,0,2.6,39.167l-.237-3.24-1.995.146.7,9.591a1.025,1.025,0,0,0,.036.2C2.772,51.737,15.765,56,32,56c15.2,0,30.931-4.284,30.928-11.376l.784-10.031A17.65,17.65,0,0,0,64,31.478C64,31.39,63.989,31.136,63.989,31.136Z"/><path d="M2,31.478l.009-.389a.874.874,0,0,0,.009-.1C2.383,19.414,15.833,10,32,10a37.981,37.981,0,0,1,18.989,4.866L52,13.142A39.991,39.991,0,0,0,32,8C14.561,8,.565,17.967.026,30.729a4.213,4.213,0,0,0-.019.5c0,.083-.007.166-.007.25a17.323,17.323,0,0,0,.215,2.676l1.975-.308A15.478,15.478,0,0,1,2,31.478Z"/><path d="M21.524,18.148l-1.057,1.7a8.8,8.8,0,0,0,1.951.692c.394.114.991.286,1.137.358l.89-1.792a10.345,10.345,0,0,0-1.473-.487A13.139,13.139,0,0,1,21.524,18.148Z"/><path d="M25.476,15.148a13.139,13.139,0,0,1-1.448.469,10.345,10.345,0,0,0-1.473.487l.89,1.792c.146-.072.742-.244,1.137-.358a8.8,8.8,0,0,0,1.951-.692Z"/><path d="M33.676,22.736a8.994,8.994,0,0,0,1.137-1.154l-1.626-1.164a10.58,10.58,0,0,1-.863.846,8.994,8.994,0,0,0-1.137,1.154l1.626,1.164A10.58,10.58,0,0,1,33.676,22.736Z"/><path d="M36.093,19.5l.18.192,1.454-1.374-.174-.185a18.061,18.061,0,0,0-1.98-1.947l-1.146,1.638A20.509,20.509,0,0,1,36.093,19.5Z"/><path d="M41.58,20.814l-1.16-1.628a8.9,8.9,0,0,0-2.273,2.292l1.706,1.044A7.029,7.029,0,0,1,41.58,20.814Z"/><path d="M41.767,18.973l.466-1.946C41.735,16.908,41,16.347,41,16H39C39,17.575,40.651,18.7,41.767,18.973Z"/><path d="M29,15.958A.2.2,0,0,1,29,16H27a3.339,3.339,0,0,0,1.293,2.207A4.952,4.952,0,0,1,29,19h2a3.339,3.339,0,0,0-1.293-2.207A3.83,3.83,0,0,1,29,15.958Z"/><path d="M33.715,17.959l.589-1.911a5.211,5.211,0,0,1-.931-.99,7.96,7.96,0,0,0-.689-.788l-1.368,1.46a6.155,6.155,0,0,1,.5.582A4.509,4.509,0,0,0,33.715,17.959Z"/><path d="M26.632,19.674l-1.89.652a4.4,4.4,0,0,0,2.966,2.63l.584-1.912A2.493,2.493,0,0,1,26.632,19.674Z"/><path d="M46,19c0-3.925-6.149-7-14-7s-14,3.075-14,7,6.149,7,14,7S46,22.925,46,19ZM20,19c0-2.365,4.928-5,12-5s12,2.635,12,5-4.928,5-12,5S20,21.365,20,19Z"/><path d="M49.031,45.116l-.063,2c.506.017,1.01.031,1.511.031.181,0,.363,0,.543-.006l-.044-2C50.336,45.154,49.685,45.136,49.031,45.116Z"/><path d="M12.088,45.6a10.4,10.4,0,0,1-1.721-.525L9.623,46.93a12.718,12.718,0,0,0,2.049.624,24.4,24.4,0,0,0,6.286.246,26.7,26.7,0,0,1,5.023.069,26.353,26.353,0,0,1,3.826.945,32.534,32.534,0,0,0,3.522.914,16.992,16.992,0,0,0,7.63-.363c.943-.266,1.855-.614,2.737-.95A20.1,20.1,0,0,1,44.5,47.238a14.953,14.953,0,0,1,2.5-.169l.006-2a16.86,16.86,0,0,0-2.833.2,21.91,21.91,0,0,0-4.186,1.28c-.88.335-1.712.652-2.569.9a15.058,15.058,0,0,1-6.728.32,30.68,30.68,0,0,1-3.306-.863,28.211,28.211,0,0,0-4.118-1.009,28.4,28.4,0,0,0-5.4-.086A22.571,22.571,0,0,1,12.088,45.6Z"/></g></svg>