<svg xmlns="http://www.w3.org/2000/svg" viewBox="0 0 64 64"><g id="_28-bread_whipcream" data-name="28-bread whipcream"><path d="M5,19s0-4,5-4l.11-.05a8.416,8.416,0,0,0,3.7,3.94C11.12,19.05,8.19,19.1,5,19Z" style="fill:#b89c88"/><path d="M17,6h5l.07.05a7.245,7.245,0,0,0-.77,1.49l-1.18,3.13L13.34,9.04C13.84,7.86,14.96,6,17,6Z" style="fill:#b89c88"/><path d="M27.85,3h2.76a5.933,5.933,0,0,0-1.36.98,7.521,7.521,0,0,0-1.56,8.51l-7.57-1.82L21.3,7.54a7.245,7.245,0,0,1,.77-1.49A7,7,0,0,1,27.85,3Z" style="fill:#ebf0f3"/><path d="M13.34,9.04l6.78,1.63,7.57,1.82a5.036,5.036,0,0,0,.4.76,7.451,7.451,0,0,0,1.16,1.5,7.77,7.77,0,0,0,1.19.97,58.017,58.017,0,0,1-16.63,3.17,8.416,8.416,0,0,1-3.7-3.94,12.542,12.542,0,0,1-1.1-4.27,1.989,1.989,0,0,1,2.46-2.09Z" style="fill:#ebf0f3"/><path d="M18,36.02c-.33,0-.66-.01-1-.02H11.46A5.975,5.975,0,0,1,6,33.05V33c-.01,0-.01.01-.02.01A7.942,7.942,0,0,1,5,29s0-5,2-5a8.08,8.08,0,0,0,4.99,2.47c6.22.91,22.73,1.82,31.21-8.1a11.234,11.234,0,0,0,1.69-2.63C44.28,19.51,40.26,36.39,18,36.02Z" style="fill:#d9c3b1"/><path d="M54.07,19.07A9.991,9.991,0,0,1,57,26.14v2.61a8.458,8.458,0,0,1-1.11,4.19,8.233,8.233,0,0,1-5.71,4.03c-.04.01-.07.01-.11.02a14.25,14.25,0,0,0,1.87-3.12A23.264,23.264,0,0,0,54,24.14V19Z" style="fill:#d9c3b1"/><path d="M54,19v5.14a23.264,23.264,0,0,1-2.06,9.73,14.25,14.25,0,0,1-1.87,3.12A5.019,5.019,0,0,1,49,38c-2.63,1.75-7,2-7,2,10-9,12-25,12-25Z" style="fill:#b89c88"/><path d="M49.88,11a4.009,4.009,0,0,1,3.88,3.03L54,15S52,31,42,40H32c8.72,0,13.85-10.36,16.27-17.17A29.917,29.917,0,0,0,50,12.78,4.857,4.857,0,0,0,49.66,11Z" style="fill:#d9c3b1"/><path d="M49.66,11A4.857,4.857,0,0,1,50,12.78a29.917,29.917,0,0,1-1.73,10.05C45.85,29.64,40.72,40,32,40H26c-2.2,0-7.97-1.78-8-3.98,22.26.37,26.28-16.51,26.89-20.28l.01-.01a10.94,10.94,0,0,0,.77-7.39,8.271,8.271,0,0,0-.38-1.16l2.32,1.39A4.909,4.909,0,0,1,49.66,11Z" style="fill:#eddfd4"/><path d="M45.29,7.18a8.271,8.271,0,0,1,.38,1.16,10.94,10.94,0,0,1-.77,7.39l-.01.01a11.234,11.234,0,0,1-1.69,2.63c-8.48,9.92-24.99,9.01-31.21,8.1A8.08,8.08,0,0,1,7,24a8.159,8.159,0,0,1-2-5c3.19.1,6.12.05,8.81-.11a58.017,58.017,0,0,0,16.63-3.17,2.586,2.586,0,0,0,.31.19,7.518,7.518,0,0,0,9.27-1.16c1.91-1.91,2.74-6.46,2.93-9.75h.97a6.342,6.342,0,0,1,1.37,2.17Z" style="fill:#eddfd4"/><path d="M58,33c0,6.08-11.64,11-26,11C17.68,44,6.06,39.11,6,33.05A5.975,5.975,0,0,0,11.46,36H17c.34.01.67.02,1,.02.03,2.2,5.8,3.98,8,3.98H42s4.37-.25,7-2a5.019,5.019,0,0,0,1.07-1.01c.04-.01.07-.01.11-.02a8.233,8.233,0,0,0,5.71-4.03L56,33Z" style="fill:#56271d"/><path d="M58,33c2.94,1.2,5,4.69,5,8.06A21.919,21.919,0,0,1,41.06,63H22.94A21.936,21.936,0,0,1,1,41.06a9.449,9.449,0,0,1,1.4-4.84,7.9,7.9,0,0,1,3.58-3.21.052.052,0,0,0,.02.04C6.06,39.11,17.68,44,32,44,46.36,44,58,39.08,58,33Z" style="fill:#d68020"/><path d="M6,41.06a10.829,10.829,0,0,1,1.158-4.8A5.5,5.5,0,0,1,6,33.05a.052.052,0,0,1-.02-.04A7.9,7.9,0,0,0,2.4,36.22,9.449,9.449,0,0,0,1,41.06,21.936,21.936,0,0,0,22.94,63H24.4C14.236,63,6,53.18,6,41.06Z" style="fill:#eea439"/><path d="M58,33a5.482,5.482,0,0,1-1.156,3.253A10.814,10.814,0,0,1,58,41.06a24.228,24.228,0,0,1-5.385,15.52A17.051,17.051,0,0,1,39.6,63H41.06A21.919,21.919,0,0,0,63,41.06C63,37.69,60.94,34.2,58,33Z" style="fill:#eea439"/><path d="M12.677,44.966c3.276,1.15,6.181,3.223,9.623,3.836,5.729,1.02,11.311-2.2,17.126-2.653,2.785-.215,5.582.213,8.376.15s5.768-.724,7.617-2.653c.815-.85,1.369-1.9,2.266-2.682,1.346-1.165,3.357-1.614,4.46-2.979.072-.089.118-.187.18-.279A8.288,8.288,0,0,0,58,33c0,6.08-11.64,11-26,11C17.68,44,6.06,39.11,6,33.05a.052.052,0,0,1-.02-.04A7.9,7.9,0,0,0,2.4,36.22a9.711,9.711,0,0,0-.964,2.149A6.541,6.541,0,0,0,2.67,40.675C4.971,43.39,9.183,43.739,12.677,44.966Z" style="fill:#bf5d1b"/><path d="M30.252,17.739a7.764,7.764,0,0,0,1.192.967,2.585,2.585,0,0,0,.311.189,7.52,7.52,0,0,0,9.268-1.18c1.906-1.914,2.725-6.465,2.908-9.754a16.857,16.857,0,0,0-.04-3l-.911,0h-.05c-.183,3.291-1,7.843-2.908,9.757A7.519,7.519,0,0,1,30.754,15.9a2.575,2.575,0,0,1-.31-.189c-.444.165-.91.324-1.383.481.01.017.016.035.027.052A7.492,7.492,0,0,0,30.252,17.739Z" style="fill:#b89c88"/><path d="M29.25,14.75a7.451,7.451,0,0,1-1.16-1.5,5.036,5.036,0,0,1-.4-.76l-4.2-1.01.175.292a2,2,0,0,1-1.2,2.961c-3.007.784-8.08,1.825-11.832,1.169A8.228,8.228,0,0,0,13.81,18.89a58.017,58.017,0,0,0,16.63-3.17A7.77,7.77,0,0,1,29.25,14.75Z" style="fill:#d9c3b1"/><path d="M30.61,3H27.85a6.966,6.966,0,0,0-1.9.271,12.2,12.2,0,0,0-.821,3.538A1.994,1.994,0,0,1,22.751,8.55l-1.7-.34-.928,2.46,7.57,1.82a7.521,7.521,0,0,1,1.56-8.51A5.933,5.933,0,0,1,30.61,3Z" style="fill:#ded4c8"/><path d="M27.643,21.454A4.989,4.989,0,0,0,31,16.73v-.7c-.082-.045-.169-.075-.25-.124a2.586,2.586,0,0,1-.31-.19,58.017,58.017,0,0,1-16.63,3.17c-2.69.16-5.62.21-8.81.11a8.328,8.328,0,0,0,.907,3.411C16.141,24.438,23.628,22.841,27.643,21.454Z" style="fill:#ebf0f3"/><path d="M30.36,30.582a3.307,3.307,0,0,0,1.88-5.348c-7.737,2.423-16.188,1.83-20.25,1.236A8.08,8.08,0,0,1,7,24c-2,0-2,5-2,5a8.807,8.807,0,0,0,.367,2.538C12.239,33.327,24.885,31.725,30.36,30.582Z" style="fill:#ebf0f3"/><path d="M49.66,11a4.909,4.909,0,0,0-2.05-2.43L45.29,7.18a8.271,8.271,0,0,1,.38,1.16,10.94,10.94,0,0,1-.77,7.39l-.01.01c-.448,2.766-2.741,12.583-12.718,17.472.5,1.9,2.168,4.275,7.408,3.824,4.268-3.577,7.08-9.675,8.69-14.206A29.917,29.917,0,0,0,50,12.78,4.857,4.857,0,0,0,49.66,11Z" style="fill:#ebf0f3"/><path d="M30.44,15.717a7.823,7.823,0,0,1-1.19-.969,7.451,7.451,0,0,1-1.16-1.5l9.191-7.967a1.02,1.02,0,0,1,1.44,1.439L32.69,13.678h-.01l-1.53,1.769-.4.46A2.586,2.586,0,0,1,30.44,15.717Z" style="fill:#e02d3c"/><path d="M42.711,1.292c.25.25.36,1.759.24,3.709-.19,3.289-1.02,7.837-2.93,9.747a7.52,7.52,0,0,1-9.271,1.159l.4-.46,1.53-1.769h.01L38.721,6.72a1.02,1.02,0,0,0-1.44-1.439L28.09,13.248a5.036,5.036,0,0,1-.4-.76,7.517,7.517,0,0,1,1.56-8.507A5.933,5.933,0,0,1,30.61,3C34.5.882,42.111.7,42.711,1.292Z" style="fill:#bd111f"/><path d="M37.879,10.247a5.378,5.378,0,0,0-.417,1.051,5.832,5.832,0,0,1-1.6,2.4c-.19.17-.409.364-.407.619a.637.637,0,0,0,.54.54,2.041,2.041,0,0,0,1.653-.588,5.112,5.112,0,0,0,1.968-3.343,1.44,1.44,0,0,0-.148-.907C39.04,9.337,38.213,9.707,37.879,10.247Z" style="fill:#ff4d5b"/><path d="M43.833,27.5l-.254.5h-.392a.183.183,0,0,0-.132.312l.313.307-.114.563a.185.185,0,0,0,.294.181L44,29.031l.452.332a.185.185,0,0,0,.294-.181l-.114-.563.313-.307A.183.183,0,0,0,44.813,28h-.392l-.254-.5A.188.188,0,0,0,43.833,27.5Z" style="fill:#bd111f"/><path d="M13.833,10.5l-.254.5h-.392a.183.183,0,0,0-.132.312l.313.307-.114.563a.185.185,0,0,0,.294.181L14,12.031l.452.332a.185.185,0,0,0,.294-.181l-.114-.563.313-.307A.183.183,0,0,0,14.813,11h-.392l-.254-.5A.188.188,0,0,0,13.833,10.5Z" style="fill:#bd111f"/><path d="M41.083,30.694l-.513.167-.268-.268a.176.176,0,0,0-.3.123l0,.423-.462.3a.18.18,0,0,0,.077.325l.535.082.081.534a.179.179,0,0,0,.325.077l.3-.462.423,0a.175.175,0,0,0,.123-.3l-.267-.267.166-.513A.182.182,0,0,0,41.083,30.694Z" style="fill:#bd111f"/><path d="M20.083,29.694l-.513.167-.268-.268a.176.176,0,0,0-.3.123l0,.423-.462.3a.18.18,0,0,0,.077.325l.535.082.081.534a.179.179,0,0,0,.325.077l.3-.462.423,0a.175.175,0,0,0,.123-.3l-.267-.267.166-.513A.182.182,0,0,0,20.083,29.694Z" style="fill:#bd111f"/><path d="M28.833,27.5l-.254.5h-.392a.183.183,0,0,0-.132.312l.313.307-.114.563a.185.185,0,0,0,.294.181L29,29.031l.452.332a.185.185,0,0,0,.294-.181l-.114-.563.313-.307A.183.183,0,0,0,29.813,28h-.392l-.254-.5A.188.188,0,0,0,28.833,27.5Z" style="fill:#bd111f"/><path d="M27.917,22.752,27.79,23h-.2a.091.091,0,0,0-.066.155l.156.153-.057.281a.093.093,0,0,0,.147.091L28,23.514l.225.166a.093.093,0,0,0,.147-.091l-.057-.281.156-.153A.091.091,0,0,0,28.405,23h-.2l-.127-.248A.093.093,0,0,0,27.917,22.752Z" style="fill:#bd111f"/><path d="M14.577,21.691l.084.257-.134.133a.088.088,0,0,0,.061.151l.212,0,.152.231a.09.09,0,0,0,.163-.038l.041-.267.267-.041a.09.09,0,0,0,.038-.163L15.23,21.8l0-.212a.088.088,0,0,0-.151-.061l-.133.134-.257-.084A.091.091,0,0,0,14.577,21.691Z" style="fill:#bd111f"/><path d="M17.347,14.459l.083.256-.133.134a.088.088,0,0,0,.061.151l.212,0,.152.231a.09.09,0,0,0,.163-.039l.04-.267.268-.041a.09.09,0,0,0,.038-.162L18,14.567l0-.211a.088.088,0,0,0-.151-.061l-.134.133-.256-.083A.091.091,0,0,0,17.347,14.459Z" style="fill:#bd111f"/><path d="M24.347,19.459l.083.256-.133.134a.088.088,0,0,0,.061.151l.212,0,.152.231a.09.09,0,0,0,.163-.039l.04-.267.268-.041a.09.09,0,0,0,.038-.162L25,19.567l0-.211a.088.088,0,0,0-.151-.061l-.134.133-.256-.083A.091.091,0,0,0,24.347,19.459Z" style="fill:#bd111f"/><path d="M47.917,12.752,47.79,13h-.2a.091.091,0,0,0-.066.155l.156.153-.057.281a.093.093,0,0,0,.147.091L48,13.514l.225.166a.093.093,0,0,0,.147-.091l-.057-.281.156-.153A.091.091,0,0,0,48.405,13h-.2l-.127-.248A.093.093,0,0,0,47.917,12.752Z" style="fill:#bd111f"/><path d="M18.347,20.459l.083.256-.133.134a.088.088,0,0,0,.061.151l.212,0,.152.231a.09.09,0,0,0,.163-.039l.04-.267.268-.041a.09.09,0,0,0,.038-.162L19,20.567l0-.211a.088.088,0,0,0-.151-.061l-.134.133-.256-.083A.091.091,0,0,0,18.347,20.459Z" style="fill:#bd111f"/><path d="M50.981,24.251c-.194-1.472-1.577-1.642-2.4-.526a9.162,9.162,0,0,0-1.208,2.508c-.27.794-.7,1.625.023,2.323a1.6,1.6,0,0,0,1.353.411c.464-.133.8-.83,1.039-1.2a9.517,9.517,0,0,0,.928-1.879A3.521,3.521,0,0,0,50.981,24.251Z" style="fill:#ebf0f3"/><path d="M56.311,23.318c-.455-.536-1.1-.388-1.239.394a5.327,5.327,0,0,0,.074,1.447c.048.538.082,1.079.094,1.62a17.278,17.278,0,0,1-.187,3.077,2.328,2.328,0,0,0-.045.633.593.593,0,0,0,.3.489.42.42,0,0,0,.444-.136,1.58,1.58,0,0,0,.278-.466,9.29,9.29,0,0,0,.724-6.122A2.484,2.484,0,0,0,56.311,23.318Z" style="fill:#ebf0f3"/><path d="M58.38,32.075a.976.976,0,0,0-.38-.069V32h-.572A9.452,9.452,0,0,0,58,28.751V26.143a10.916,10.916,0,0,0-3-7.534V15a1.017,1.017,0,0,0-.029-.24l-.242-.975a4.991,4.991,0,0,0-4.432-3.75,5.92,5.92,0,0,0-2.173-2.322L46.081,6.489A7.2,7.2,0,0,0,44.633,4.3,1,1,0,0,0,44,4.015c.032-1.443-.075-2.923-.581-3.429-1.031-1.03-6.1-.406-6.675-.331A20.942,20.942,0,0,0,30.383,2H27.85a8.032,8.032,0,0,0-6.231,3H17a4.8,4.8,0,0,0-4.208,2.879l-1.086-.261a3.011,3.011,0,0,0-2.671.644A2.931,2.931,0,0,0,8.014,10.77a14.686,14.686,0,0,0,.68,3.33A5.073,5.073,0,0,0,4,19a9.3,9.3,0,0,0,1.474,4.652C4.094,25.035,4,28.221,4,29a9.447,9.447,0,0,0,.66,3.562A10.107,10.107,0,0,0,0,41.062,22.964,22.964,0,0,0,22.937,64H41.062A22.964,22.964,0,0,0,64,41.062,9.886,9.886,0,0,0,58.38,32.075Zm-41.138,4.93C18.441,39.59,24.013,41,26,41h6l10.057,0c.19-.011,4.673-.287,7.5-2.169a5.779,5.779,0,0,0,1.028-.927A9.2,9.2,0,0,0,56.405,34h.464C55.568,38.972,44.71,43,32,43c-10.481,0-19.7-2.74-23.341-6.489a8.016,8.016,0,0,0,2.8.489H17Zm32.051-.644a3.968,3.968,0,0,1-.847.806,11.192,11.192,0,0,1-3.621,1.4A41.926,41.926,0,0,0,53,23.584v.556a22.414,22.414,0,0,1-1.966,9.308A13.07,13.07,0,0,1,49.293,36.361ZM56,26.143v2.608a7.351,7.351,0,0,1-3.532,6.31c.126-.249.253-.5.381-.773A24.422,24.422,0,0,0,55,24.14V22.022A8.957,8.957,0,0,1,56,26.143ZM40.533,1.986a8.979,8.979,0,0,1,1.4.085c.323,1.856-.225,9.573-2.619,11.968a6.534,6.534,0,0,1-6.955,1.544l1-1.158a.953.953,0,0,0,.089-.091l6.036-6.967a2.021,2.021,0,0,0-2.857-2.843l-8.208,7.119A6.532,6.532,0,0,1,29.961,4.69C31.95,2.7,37.609,1.986,40.533,1.986ZM32.014,12.934a.878.878,0,0,0-.091.092l-1.345,1.555a7.1,7.1,0,0,1-.617-.542,6.908,6.908,0,0,1-.54-.615l8.543-7.359ZM17,7h3.452c-.026.064-.063.122-.088.188l-.868,2.3L14.835,8.37A2.686,2.686,0,0,1,17,7ZM10.34,9.777a.986.986,0,0,1,.895-.215l13.532,3.253.466-1.945-3.778-.908.781-2.072A6.018,6.018,0,0,1,27.85,4H27.9A8.607,8.607,0,0,0,40.724,15.453c1.957-1.958,2.733-5.973,3.021-8.192.014-.109.048-.379.087-.751a5.718,5.718,0,0,1,.5.956,1.035,1.035,0,0,0,.036.1,7.069,7.069,0,0,1,.333,1.02,9.959,9.959,0,0,1-.667,6.635c-.006.01-.011.022-.017.033l-.01.018c-.01.018-.02.036-.028.054a10.276,10.276,0,0,1-1.539,2.393c-6.954,8.133-19.514,8.607-26.376,8.164l-.128,2c1.091.07,2.319.118,3.645.118,6.917,0,16.462-1.307,22.907-7.443A21.912,21.912,0,0,1,32.159,32.111l.918,1.778c9.867-5.092,12.255-14.77,12.774-17.842A12.065,12.065,0,0,0,46.87,9.292l.226.136a3.943,3.943,0,0,1,1.633,1.937A3.854,3.854,0,0,1,49,12.78c0,.711-.026,1.433-.078,2.148l1.994.144c.056-.761.084-1.533.084-2.292a5.621,5.621,0,0,0-.055-.578,3,3,0,0,1,1.844,2.069l.194.782C52.733,16.761,50.429,30.81,41.6,39H38.577c5.48-3.517,8.884-10.908,10.635-15.834a30.922,30.922,0,0,0,1.482-6.026l-1.98-.28A28.84,28.84,0,0,1,47.327,22.5C45.137,28.659,40.232,39,32,39H26a12.941,12.941,0,0,1-6.152-2.007,34.615,34.615,0,0,0,7.734-1.024l-.5-1.936A34.09,34.09,0,0,1,18,35.02c-.312,0-.623-.009-1-.02H11.46a4.955,4.955,0,0,1-4.524-2.332,1,1,0,0,0-.159-.29A7.254,7.254,0,0,1,6,29a7.915,7.915,0,0,1,.788-3.849,9.269,9.269,0,0,0,5.057,2.307c.6.088,1.286.175,2.052.254l.206-1.99c-.736-.076-1.4-.159-1.967-.243a7.158,7.158,0,0,1-4.4-2.153,6.971,6.971,0,0,1-1.61-3.3c2.552.054,5.048,0,7.447-.13l.032.017.008-.019c.083,0,.17,0,.252-.009a71.314,71.314,0,0,0,9.321-1.143l-.382-1.963a68.879,68.879,0,0,1-8.743,1.086c-2.945-1.7-3.843-4.872-4.059-7.277A.953.953,0,0,1,10.34,9.777Zm-.8,6.245a9.574,9.574,0,0,0,1.445,1.968q-2.34.068-4.763.022C6.55,17.2,7.4,16.157,9.536,16.022ZM41.062,62H22.937A20.962,20.962,0,0,1,2,41.062a8.27,8.27,0,0,1,3.221-6.487C6.907,40.534,18.063,45,32,45s25.1-4.466,26.779-10.425A8.267,8.267,0,0,1,62,41.062,20.962,20.962,0,0,1,41.062,62Z"/><path d="M27.268,17.788l-.536-1.928q-.943.264-1.96.5l.456,1.948Q26.284,18.063,27.268,17.788Z"/><path d="M31.391,34.681l-.782-1.842c-.618.263-1.265.506-1.922.722l.626,1.9C30.022,35.227,30.722,34.964,31.391,34.681Z"/><rect x="57" y="42" width="2" height="2"/><rect x="46" y="50" width="2" height="2"/><rect x="29" y="57" width="2" height="2"/><rect x="22" y="55" width="2" height="2"/><rect x="42" y="57" width="2" height="2"/><rect x="42" y="51" width="2" height="2"/><rect x="45" y="46" width="2" height="2"/><rect x="6" y="44" width="2" height="2"/><rect x="14" y="51" width="2" height="2"/><rect x="17" y="46" width="2" height="2"/><rect x="28" y="49" width="2" height="2"/><rect x="53" y="48" width="2" height="2"/></g></svg>