<svg xmlns="http://www.w3.org/2000/svg" viewBox="0 0 64 64"><g id="_29-bread_basket" data-name="29-bread basket"><ellipse cx="32" cy="37" rx="25" ry="7" style="fill:#854920"/><path d="M18,28.61a53.323,53.323,0,0,1,7.98-1.33,4.377,4.377,0,0,0,.27,1.44l-.63.44a3.118,3.118,0,0,0-.58,1.13L25,30.28c-1.54.12-3.02.29-4.42.5a.01.01,0,0,1-.01-.01,6.745,6.745,0,0,0-2.6-2.1Z" style="fill:#d68020"/><path d="M49,59.43a18.62,18.62,0,0,1-4,2.23V58.22a39.361,39.361,0,0,0,4-.95Z" style="fill:#e19b39"/><path d="M34,59.3V63H30V59.3c.66.02,1.33.03,2,.03S33.34,59.32,34,59.3Z" style="fill:#e19b39"/><path d="M15,57.27a39.361,39.361,0,0,0,4,.95v3.44a18.62,18.62,0,0,1-4-2.23Z" style="fill:#e19b39"/><path d="M19,53.89v.09l-.37-.06c-1.3-.24-2.52-.51-3.63-.82V48.55a41.357,41.357,0,0,0,4,1.09Z" style="fill:#e19b39"/><path d="M34,51v4c-.66.02-1.33.03-2,.03s-1.34-.01-2-.03V50.97c.66.03,1.33.04,2,.04s1.34-.01,2-.04Z" style="fill:#e19b39"/><path d="M49,52.94v.16c-1.11.31-2.33.58-3.63.82l-.37.06V49.64c.88-.19,1.73-.41,2.55-.65.49-.14.98-.29,1.45-.44Z" style="fill:#e19b39"/><path d="M19,57.89v.33a39.361,39.361,0,0,1-4-.95V53.1c1.11.31,2.33.58,3.63.82l.37.06Z" style="fill:#efba5a"/><path d="M34,58.97v.33c-.66.02-1.33.03-2,.03s-1.34-.01-2-.03V55c.66.02,1.33.03,2,.03s1.34-.01,2-.03Z" style="fill:#efba5a"/><path d="M49,56.94v.33a39.361,39.361,0,0,1-4,.95V53.98l.37-.06c1.3-.24,2.52-.51,3.63-.82Z" style="fill:#efba5a"/><path d="M15,56.94v.33A23.63,23.63,0,0,1,11.56,56h-.12a17.7,17.7,0,0,1-3.08-5.96,15.26,15.26,0,0,0,6.16,2.93c.16.05.32.09.48.13Z" style="fill:#d68020"/><path d="M30,58.97v.33a69.216,69.216,0,0,1-11-1.08V53.98A73.17,73.17,0,0,0,29.94,55H30Z" style="fill:#d68020"/><path d="M45,57.89v.33A69.216,69.216,0,0,1,34,59.3V55h.06A73.17,73.17,0,0,0,45,53.98Z" style="fill:#d68020"/><path d="M49.48,52.97a15.26,15.26,0,0,0,6.16-2.93A17.7,17.7,0,0,1,52.56,56h-.12A23.63,23.63,0,0,1,49,57.27V53.1C49.16,53.06,49.32,53.02,49.48,52.97Z" style="fill:#d68020"/><path d="M52.56,56A17.808,17.808,0,0,1,49,59.43V57.27A23.63,23.63,0,0,0,52.44,56Z" style="fill:#bc641a"/><path d="M45,58.22v3.44A18.484,18.484,0,0,1,38.06,63H34V59.3A69.216,69.216,0,0,0,45,58.22Z" style="fill:#bc641a"/><path d="M30,59.3V63H25.94A18.484,18.484,0,0,1,19,61.66V58.22A69.216,69.216,0,0,0,30,59.3Z" style="fill:#bc641a"/><path d="M15,57.27v2.16A17.808,17.808,0,0,1,11.44,56h.12A23.63,23.63,0,0,0,15,57.27Z" style="fill:#bc641a"/><path d="M7,44.42a10.924,10.924,0,0,0,.91.7,22.936,22.936,0,0,0,4.9,2.63c.7.28,1.43.55,2.19.8V53.1c-.16-.04-.32-.08-.48-.13a15.26,15.26,0,0,1-6.16-2.93c-.07-.22-.13-.44-.19-.67L7,46Z" style="fill:#bc641a"/><path d="M30,51v4h-.06A73.17,73.17,0,0,1,19,53.98V49.64l.82.18a56.99,56.99,0,0,0,7.77,1.04h.02c.78.06,1.58.1,2.39.11Z" style="fill:#bc641a"/><path d="M45,53.89v.09A73.17,73.17,0,0,1,34.06,55H34V50.97c.39-.01.78-.02,1.17-.04a60.572,60.572,0,0,0,6.87-.72c1.02-.16,2.01-.35,2.96-.57Z" style="fill:#bc641a"/><path d="M52.91,46.99A18.754,18.754,0,0,0,57,44.42V46l-1.17,3.37c-.06.23-.12.45-.19.67a15.26,15.26,0,0,1-6.16,2.93c-.16.05-.32.09-.48.13V48.55A31.672,31.672,0,0,0,52.88,47h.01C52.9,47,52.9,46.99,52.91,46.99Z" style="fill:#bc641a"/><path d="M54.26,12.02a9.035,9.035,0,0,0-5.02,1.77,22.684,22.684,0,0,0-3.92-3.53l.09-.12a7.612,7.612,0,0,1,3.97-3.09A27.994,27.994,0,0,1,54.26,12.02Z" style="fill:#d68020"/><path d="M42.69,3.12a12.046,12.046,0,0,0-2.54,4.37A22.419,22.419,0,0,0,34.06,6.1c.14-1.32.61-3.73,2.25-4.77A27.791,27.791,0,0,1,42.69,3.12Z" style="fill:#d68020"/><path d="M27.77,1.32c-.61,1.17-.74,4.1-.76,5.23a21.636,21.636,0,0,0-6.03,2.3c-.13-.7-.57-3.69.3-5.72A27.6,27.6,0,0,1,27.77,1.32Z" style="fill:#d68020"/><path d="M15,13.47v.21a23.78,23.78,0,0,0-2.87,4.01c-2.2-1.02-2.86-3.42-3.05-4.76a27.993,27.993,0,0,1,6.84-6.85,4.006,4.006,0,0,0-1.08,2.33A13.692,13.692,0,0,0,15,13.47Z" style="fill:#d68020"/><path d="M9.92,22.97a23.157,23.157,0,0,0-.9,5.96,7.542,7.542,0,0,1-4.88-2.74A27.763,27.763,0,0,1,6.1,18.35C6.42,19.34,7.52,22.12,9.92,22.97Z" style="fill:#d68020"/><path d="M54.26,12.02A25.672,25.672,0,0,1,56.24,15a9.855,9.855,0,0,0-4.48,1.21c-.16.08-.32.17-.48.26a22.021,22.021,0,0,0-2.04-2.68A9.035,9.035,0,0,1,54.26,12.02Z" style="fill:#e19b39"/><path d="M49.38,7.05a7.612,7.612,0,0,0-3.97,3.09l-.09.12a22.553,22.553,0,0,0-5.17-2.77,12.046,12.046,0,0,1,2.54-4.37A28.008,28.008,0,0,1,49.38,7.05Z" style="fill:#e19b39"/><path d="M36.31,1.33C34.67,2.37,34.2,4.78,34.06,6.1a22.221,22.221,0,0,0-4.16-.01,21.221,21.221,0,0,0-2.89.46c.02-1.13.15-4.06.76-5.23A28.078,28.078,0,0,1,32,1,27.758,27.758,0,0,1,36.31,1.33Z" style="fill:#e19b39"/><path d="M21.28,3.13c-.87,2.03-.43,5.02-.3,5.72A22.723,22.723,0,0,0,15,13.68v-.21a13.692,13.692,0,0,1-.16-5.06,4.006,4.006,0,0,1,1.08-2.33.01.01,0,0,0,.01-.01A28.324,28.324,0,0,1,21.28,3.13Z" style="fill:#e19b39"/><path d="M12.13,17.69a23.4,23.4,0,0,0-2.21,5.28c-2.4-.85-3.5-3.63-3.82-4.62a27.444,27.444,0,0,1,2.98-5.42C9.27,14.27,9.93,16.67,12.13,17.69Z" style="fill:#e19b39"/><path d="M9,31l.24.03c-.08.12-.16.24-.24.37a5.2,5.2,0,0,0-.52,1.09l-.01.01C5.65,34.38,4,36.61,4,39V29c0-.95.05-1.89.14-2.81a7.542,7.542,0,0,0,4.88,2.74,5.815,5.815,0,0,0-.02.59Z" style="fill:#e19b39"/><path d="M60,29v1a11.683,11.683,0,0,0-2.08-1.1l.81-.81A10.86,10.86,0,0,0,59.9,26.7C59.97,27.46,60,28.22,60,29Z" style="fill:#e58d1f"/><path d="M60,30v8h-.09c-.44-2.21-2.27-4.26-5.13-5.96l3.14-3.14A11.683,11.683,0,0,1,60,30Z" style="fill:#d68020"/><path d="M8.02,38.98a10.476,10.476,0,0,0,3.19,1.91h.01c.13.09.26.16.39.24C10.61,41.45,8,42.57,8,45l-.09.12a10.924,10.924,0,0,1-.91-.7,8.332,8.332,0,0,1-2.75-3.81V40.6C5.42,39,8,39,8,39Z" style="fill:#e19b39"/><path d="M19.82,49.81v.01L19,49.64a41.357,41.357,0,0,1-4-1.09c-.76-.25-1.49-.52-2.19-.8v-.01a8.127,8.127,0,0,1,2.1-5.64c1.25.34,2.62.63,4.09.89V43S17.08,46.83,19.82,49.81Z" style="fill:#e19b39"/><path d="M26.14,43.81c1.25.08,2.54.14,3.86.16V44c0,3.54,2.24,6.46,5.17,6.92v.01c-.39.02-.78.03-1.17.04-.66.03-1.33.04-2,.04s-1.34-.01-2-.04c-.81-.01-1.61-.05-2.39-.11C25.62,50.02,24.5,47.16,25,44v-.28c.29.03.58.05.88.07C25.97,43.8,26.05,43.8,26.14,43.81Z" style="fill:#e19b39"/><path d="M45,49.64c-.95.22-1.94.41-2.96.57L42,50c-2.76,0-5-2.68-5-6h.06c0-.04.01-.09.01-.14,1.72-.1,3.38-.25,4.95-.45a5.985,5.985,0,0,0,5.53,5.57v.01C46.73,49.23,45.88,49.45,45,49.64Z" style="fill:#e19b39"/><path d="M57,44v.42a18.754,18.754,0,0,1-4.09,2.57h-.03c-3.03-.04-5.49-1.95-5.84-4.4a36.263,36.263,0,0,0,4.05-1.07C51.58,42.93,54.03,44,57,44Z" style="fill:#e19b39"/><path d="M59.91,38v.01A5.442,5.442,0,0,1,60,39v.01a5.252,5.252,0,0,1-.39,1.98c-2.07-.06-3.79-.63-4.39-1.39A3.411,3.411,0,0,0,57,37c0-1.32-1.3-2.56-3.57-3.61l.39-.39.96-.96C57.64,33.74,59.47,35.79,59.91,38Z" style="fill:#e19b39"/><path d="M59.61,40.99V41A8.683,8.683,0,0,1,57,44.42V44c-2.97,0-5.42-1.07-5.91-2.48a16.329,16.329,0,0,0,4.13-1.92C55.82,40.36,57.54,40.93,59.61,40.99Z" style="fill:#d68020"/><path d="M42.02,43.41l.98-.12.62-.09c1.2-.18,2.35-.38,3.42-.61.35,2.45,2.81,4.36,5.84,4.4h.03c-.01,0-.01.01-.02.01h-.01A31.672,31.672,0,0,1,49,48.55c-.47.15-.96.3-1.45.44v-.01A5.985,5.985,0,0,1,42.02,43.41Z" style="fill:#d68020"/><path d="M30,44v-.03c.66.02,1.33.03,2,.03,1.06,0,2.1-.02,3.13-.06.65-.02,1.3-.05,1.94-.08,0,.05-.01.1-.01.14H37c0,3.32,2.24,6,5,6l.04.21a60.572,60.572,0,0,1-6.87.72v-.01C32.24,50.46,30,47.54,30,44Z" style="fill:#d68020"/><path d="M25,43.72V44c-.5,3.16.62,6.02,2.61,6.86h-.02a56.99,56.99,0,0,1-7.77-1.04v-.01C17.08,46.83,19,43,19,43v-.01C20.86,43.3,22.87,43.55,25,43.72Z" style="fill:#d68020"/><path d="M14.91,42.1a8.127,8.127,0,0,0-2.1,5.64v.01a22.936,22.936,0,0,1-4.9-2.63L8,45c0-2.43,2.61-3.55,3.61-3.87a.689.689,0,0,1,.1-.04c.46.18.96.36,1.48.52C13.73,41.79,14.31,41.95,14.91,42.1Z" style="fill:#d68020"/><path d="M8,35.04a2.426,2.426,0,0,0,.02,3.94L8,39s-2.58,0-3.75,1.6A5.081,5.081,0,0,1,4,39.01V39c0-2.39,1.65-4.62,4.47-6.5A6.7,6.7,0,0,0,8,35Z" style="fill:#d68020"/><path d="M20.58,30.78a6.816,6.816,0,0,1,1.19,2.45A6.871,6.871,0,0,0,20,33a7,7,0,0,0-7,7,6.572,6.572,0,0,0,.19,1.61c-.52-.16-1.02-.34-1.48-.52-.17-.06-.33-.13-.49-.2h-.01A6.986,6.986,0,0,1,8,35.04V35a6.7,6.7,0,0,1,.47-2.5l.01-.01A5.2,5.2,0,0,1,9,31.4c.08-.13.16-.25.24-.37A6.981,6.981,0,0,1,15,28a6.834,6.834,0,0,1,2.9.63.251.251,0,0,1,.07.04,6.745,6.745,0,0,1,2.6,2.1A.01.01,0,0,0,20.58,30.78Z" style="fill:#c96b1c"/><path d="M25,43.72c-2.13-.17-4.14-.42-6-.73-1.47-.26-2.84-.55-4.09-.89-.6-.15-1.18-.31-1.72-.49A6.572,6.572,0,0,1,13,40a7,7,0,0,1,7-7,6.871,6.871,0,0,1,1.77.23,7.012,7.012,0,0,1,5.05,8.36,9.852,9.852,0,0,0-.49,1.38,6.534,6.534,0,0,1-.45.82C25.58,43.77,25.29,43.75,25,43.72Z" style="fill:#d68020"/><path d="M36.64,40.36a9.228,9.228,0,0,1,.43,3.5c-.64.03-1.29.06-1.94.08q-.255-.69-.54-1.53a20.221,20.221,0,0,1-.99-7.5A17.448,17.448,0,0,1,36.64,40.36Z" style="fill:#ffcd8e"/><path d="M40.73,37.09a22.346,22.346,0,0,1-1.02-7.52,17.018,17.018,0,0,1,3.06,5.48,9.859,9.859,0,0,1-.32,6.76C42.1,40.73,41.46,39.27,40.73,37.09Z" style="fill:#ffcd8e"/><path d="M48.91,28.91a9.78,9.78,0,0,1-.33,6.76c-.35-1.09-.99-2.54-1.72-4.72a22.274,22.274,0,0,1-1.01-7.52A17.261,17.261,0,0,1,48.91,28.91Z" style="fill:#ffcd8e"/><path d="M54.96,27.69a9.466,9.466,0,0,1-.65,2.26c-.35-1.09-.99-2.54-1.72-4.72a20.3,20.3,0,0,1-1-7.5,16.078,16.078,0,0,1,1.55,2.2.076.076,0,0,1,.02.04,15.938,15.938,0,0,1,1.37,2.92c.03.09.07.19.1.29A9.465,9.465,0,0,1,54.96,27.69Z" style="fill:#ffcd8e"/><path d="M33.6,34.91a20.221,20.221,0,0,0,.99,7.5q.285.84.54,1.53c-1.03.04-2.07.06-3.13.06-.67,0-1.34-.01-2-.03-1.32-.02-2.61-.08-3.86-.16a8.455,8.455,0,0,1,.19-.84,6.662,6.662,0,0,0,.49-1.38,11.472,11.472,0,0,1,1.4-2.44,10.867,10.867,0,0,1,1.05-1.24l1.82-1.82,2.68-2.68A12.853,12.853,0,0,0,33.6,34.91Z" style="fill:#e58d1f"/><path d="M42.45,41.81A5.218,5.218,0,0,1,42.72,43H43v.29l-.98.12c-1.57.2-3.23.35-4.95.45a9.228,9.228,0,0,0-.43-3.5,17.448,17.448,0,0,0-3.04-5.45,12.853,12.853,0,0,1,.17-1.5l6.14-6.14a19.436,19.436,0,0,0-.2,2.3,22.346,22.346,0,0,0,1.02,7.52C41.46,39.27,42.1,40.73,42.45,41.81Z" style="fill:#e58d1f"/><path d="M42.72,43a5.218,5.218,0,0,0-.27-1.19,9.859,9.859,0,0,0,.32-6.76,17.018,17.018,0,0,0-3.06-5.48,19.436,19.436,0,0,1,.2-2.3l2.03-2.03,4.11-4.1a19.388,19.388,0,0,0-.2,2.29,22.274,22.274,0,0,0,1.01,7.52c.73,2.18,1.37,3.63,1.72,4.72v.01c.45,1.36.42,2.14-.49,3.05L43.62,43.2l-.62.09A1.4,1.4,0,0,0,43,43Z" style="fill:#e58d1f"/><path d="M48.91,18.27a11.627,11.627,0,0,1,2.37-1.8c.16-.09.32-.18.48-.26l.01.02s-.06.29-.12.82v.02q-.03.285-.06.66a20.3,20.3,0,0,0,1,7.5c.73,2.18,1.37,3.63,1.72,4.72a3.332,3.332,0,0,1,.21,1.93,2.566,2.566,0,0,1-.7,1.12l-.39.39-5.34,5.34c.91-.91.94-1.69.49-3.05v-.01a9.78,9.78,0,0,0,.33-6.76,17.261,17.261,0,0,0-3.06-5.48,19.388,19.388,0,0,1,.2-2.29Z" style="fill:#e58d1f"/><path d="M57.92,28.9l-3.14,3.14a2.261,2.261,0,0,0-.26-.16,3.332,3.332,0,0,0-.21-1.93,9.8,9.8,0,0,0,.32-6.77c-.03-.1-.07-.2-.1-.29a15.938,15.938,0,0,0-1.37-2.92.076.076,0,0,0-.02-.04,16.078,16.078,0,0,0-1.55-2.2q.03-.375.06-.66c.01-.01.01-.01,0-.02.06-.53.12-.82.12-.82l-.01-.02A9.855,9.855,0,0,1,56.24,15,5.607,5.607,0,0,1,62,20.76a10.7,10.7,0,0,1-2.1,5.94,10.86,10.86,0,0,1-1.17,1.39Z" style="fill:#e58d1f"/><path d="M25,31.81V30.45a.936.936,0,0,1,.04-.16,3.118,3.118,0,0,1,.58-1.13l.63-.44a5.256,5.256,0,0,0,.56,1.11L31,36l.09.09-1.82,1.82a10.867,10.867,0,0,0-1.05,1.24c-1.18-2.07-2.05-4.3-2.71-5.63A4.578,4.578,0,0,1,25,31.81Z" style="fill:#d17824"/><path d="M26.59,24.49,27,24h.32a1.374,1.374,0,0,1,.03-.57l.65-2.4v-.06s.16-1.14,1.08-1.33l-.03-.03a3.387,3.387,0,0,1,.74-1.72A4.612,4.612,0,0,1,33.58,16h.84a4.612,4.612,0,0,1,3.79,1.89,3.387,3.387,0,0,1,.74,1.72l-.03.03c.92.19,1.08,1.33,1.08,1.33v.06l.65,2.4a1.374,1.374,0,0,1,.03.57H41l.41.49a1.369,1.369,0,0,1,.53.75l-2.03,2.03-6.14,6.14-2.68,2.68L31,36l-4.19-6.17a5.256,5.256,0,0,1-.56-1.11,4.377,4.377,0,0,1-.27-1.44c0-.15.01-.29.02-.44v-.9A1.522,1.522,0,0,1,26.59,24.49Z" style="fill:#d17824"/><path d="M28.59,27.49,29,27h.32a1.374,1.374,0,0,1,.03-.57l.65-2.4v-.06s.16-1.14,1.08-1.33l-.03-.03a3.387,3.387,0,0,1,.74-1.72A4.612,4.612,0,0,1,35.58,19h.84a4.679,4.679,0,0,1,3.406,1.425,1.307,1.307,0,0,0-.906-.785l.03-.03a3.387,3.387,0,0,0-.74-1.72A4.612,4.612,0,0,0,34.42,16h-.84a4.612,4.612,0,0,0-3.79,1.89,3.387,3.387,0,0,0-.74,1.72l.03.03c-.92.19-1.08,1.33-1.08,1.33v.06l-.65,2.4a1.374,1.374,0,0,0-.03.57H27l-.41.49A1.522,1.522,0,0,0,26,25.94v.9c-.01.15-.02.29-.02.44a4.377,4.377,0,0,0,.27,1.44c.043.119.1.232.15.346a4.742,4.742,0,0,1,1.6.574v-.7A1.522,1.522,0,0,1,28.59,27.49Z" style="fill:#e58d1f"/><path d="M54.31,29.95c-.35-1.09-.99-2.54-1.72-4.72a20.3,20.3,0,0,1-1-7.5q.03-.375.06-.66v-.02c.06-.53.12-.82.12-.82l-.01-.02c-.16.08-.32.17-.48.26a11.931,11.931,0,0,0-1.958,1.416c.41,3.154,1.244,8.182,2.694,11.388A2.977,2.977,0,0,1,51.4,32.6l-2.649,2.649c-.064.172-.122.316-.166.416v.01c.45,1.36.42,2.14-.49,3.05l5.34-5.34.39-.39a2.566,2.566,0,0,0,.7-1.12A3.332,3.332,0,0,0,54.31,29.95Z" style="fill:#c96b1c"/><path d="M48.58,35.68v-.01c-.35-1.09-.99-2.54-1.72-4.72a22.274,22.274,0,0,1-1.01-7.52,19.388,19.388,0,0,1,.2-2.29l-2.731,2.724a55,55,0,0,0,2.018,9.659A6.028,6.028,0,0,1,43.5,40l-.627.538a10.029,10.029,0,0,1-.426,1.275A5.218,5.218,0,0,1,42.72,43H43a1.4,1.4,0,0,1,0,.29l.62-.09,4.47-4.47C49,37.82,49.03,37.04,48.58,35.68Z" style="fill:#c96b1c"/><path d="M42.72,43a5.218,5.218,0,0,0-.27-1.19c-.35-1.08-.99-2.54-1.72-4.72a22.346,22.346,0,0,1-1.02-7.52,19.436,19.436,0,0,1,.2-2.3l-3.049,3.049A56.386,56.386,0,0,0,39.5,39.211,2,2,0,0,1,37.674,42h-.669a9.454,9.454,0,0,1,.065,1.86c1.72-.1,3.38-.25,4.95-.45l.98-.12V43Z" style="fill:#c96b1c"/><path d="M34.59,42.41a20.221,20.221,0,0,1-.99-7.5,12.853,12.853,0,0,1,.17-1.5L31.8,35.382a13.161,13.161,0,0,0,.3,4.121A2.007,2.007,0,0,1,30.162,42H26.7a6.917,6.917,0,0,1-.369.97,8.455,8.455,0,0,0-.19.84c1.25.08,2.54.14,3.86.16.66.02,1.33.03,2,.03,1.06,0,2.1-.02,3.13-.06Q34.875,43.25,34.59,42.41Z" style="fill:#c96b1c"/><path d="M54.316,16.051a1.546,1.546,0,0,0-1.287.98,1.361,1.361,0,0,0,.4,1.208,7.057,7.057,0,0,0,1.086.868,8.9,8.9,0,0,1,2.065,2.118,1.661,1.661,0,0,0,.756.729,1.254,1.254,0,0,0,1.365-.617,2.4,2.4,0,0,0,.054-2.2,7.249,7.249,0,0,0-1.364-1.91A3.24,3.24,0,0,0,54.316,16.051Z" style="fill:#f7b64e"/><path d="M47.062,22.52a4.418,4.418,0,0,0,1.007,2.38c.22.306.526.932.893,1.079.574.23.9-.313.886-.806a6.825,6.825,0,0,0-1.08-3.441,1.122,1.122,0,0,0-.649-.558.821.821,0,0,0-.819.445A1.792,1.792,0,0,0,47.062,22.52Z" style="fill:#f7b64e"/><path d="M40.76,28.4a2.471,2.471,0,0,0,.661,1.5,1.22,1.22,0,0,0,.838.573.849.849,0,0,0,.729-.489,2.3,2.3,0,0,0,.2-.9c.058-.744.108-2.191-.857-2.432C41.522,26.452,40.775,27.723,40.76,28.4Z" style="fill:#f7b64e"/><path d="M34.76,33.4a2.471,2.471,0,0,0,.661,1.5,1.22,1.22,0,0,0,.838.573.849.849,0,0,0,.729-.489,2.3,2.3,0,0,0,.2-.9c.058-.744.108-2.191-.857-2.432C35.522,31.452,34.775,32.723,34.76,33.4Z" style="fill:#f7b64e"/><path d="M26.81,29.83a5.457,5.457,0,0,1-.41-.764,4.842,4.842,0,0,0-.566-.056l-.214.15a3.118,3.118,0,0,0-.58,1.13.936.936,0,0,0-.04.16v1.36a4.578,4.578,0,0,0,.51,1.71c.66,1.33,1.53,3.56,2.71,5.63a10.867,10.867,0,0,1,1.05-1.24l1.82-1.82L31,36Z" style="fill:#a34f17"/><path d="M41.41,24.49,41,24h-.32a1.374,1.374,0,0,0-.03-.57l-.218-.8-7.644,8.408a2.2,2.2,0,0,1-3.383-.16h0A4.679,4.679,0,0,0,26.4,29.066a5.457,5.457,0,0,0,.41.764L31,36l.09.09,2.68-2.68,6.14-6.14,2.03-2.03A1.369,1.369,0,0,0,41.41,24.49Z" style="fill:#bf5d1b"/><path d="M60.36,16.64A5.646,5.646,0,0,0,56.24,15l-.032,0A17.561,17.561,0,0,1,58.6,17.813a6,6,0,0,1-.4,7.393l-3.673,4.2c-.08.228-.156.425-.212.547a3.332,3.332,0,0,1,.21,1.93,2.566,2.566,0,0,1-.7,1.12l.96-.96,3.14-3.14.81-.81A10.86,10.86,0,0,0,59.9,26.7,10.7,10.7,0,0,0,62,20.76,5.646,5.646,0,0,0,60.36,16.64Z" style="fill:#c96b1c"/><path d="M17.736,35.708a1.348,1.348,0,0,0-.593,1.363,1.525,1.525,0,0,0,.859.774,3.815,3.815,0,0,0,.822.316,4.537,4.537,0,0,0,1.4.023l2.051-.179a1.094,1.094,0,0,0,.767-.275.834.834,0,0,0,.166-.449C23.514,34.52,19.159,34.542,17.736,35.708Z" style="fill:#f7b64e"/><path d="M16.035,38.312a2.138,2.138,0,0,0-.389.641,1,1,0,0,0-.072.582.84.84,0,0,0,.467.536,1.85,1.85,0,0,0,.714.155.93.93,0,0,0,.46-.059.832.832,0,0,0,.388-.611,1.192,1.192,0,0,0-.325-1.18C16.985,38.145,16.309,38,16.035,38.312Z" style="fill:#f7b64e"/><path d="M11.843,31.723a.519.519,0,0,0,.277.212,4.506,4.506,0,0,0,2.74-.192,4.156,4.156,0,0,0,2.082-.839.761.761,0,0,0,.25-.471c.071-1.287-2.529-.72-3.22-.564C13.218,30.038,11.224,30.564,11.843,31.723Z" style="fill:#f7b64e"/><path d="M11.22,40.89h-.01a10.476,10.476,0,0,1-3.19-1.91L8,39a6.082,6.082,0,0,0-.852.081,6.563,6.563,0,0,0,2.265,3.208,7.051,7.051,0,0,1,2.2-1.159C11.48,41.05,11.35,40.98,11.22,40.89Z" style="fill:#ffcb78"/><path d="M19,43v-.01c-1.47-.26-2.84-.55-4.09-.89a8.781,8.781,0,0,0-1.569,2.553,32.327,32.327,0,0,0,5.019,1.726A7.321,7.321,0,0,1,19,43Z" style="fill:#ffcb78"/><path d="M30,43.97c-1.32-.02-2.61-.08-3.86-.16-.09-.01-.17-.01-.26-.02-.3-.02-.59-.04-.88-.07V44a8.717,8.717,0,0,0,.166,3.619c1.888.214,3.866.342,5.907.372A7.787,7.787,0,0,1,30,44Z" style="fill:#ffcb78"/><path d="M37.07,43.86c0,.05-.01.1-.01.14H37a6.764,6.764,0,0,0,1.069,3.7,52.494,52.494,0,0,0,5.391-.815,5.949,5.949,0,0,1-1.44-3.477C40.45,43.61,38.79,43.76,37.07,43.86Z" style="fill:#ffcb78"/><path d="M51.09,41.52a36.263,36.263,0,0,1-4.05,1.07,4.7,4.7,0,0,0,1.642,2.856,22.624,22.624,0,0,0,4.5-2.135A3.478,3.478,0,0,1,51.09,41.52Z" style="fill:#ffcb78"/><path d="M55.22,39.6a2.8,2.8,0,0,0,1.082.745A4.524,4.524,0,0,0,57,38a4.023,4.023,0,0,0-.047-.59A3.834,3.834,0,0,1,55.22,39.6Z" style="fill:#ffcb78"/><path d="M51.09,41.52a3.478,3.478,0,0,0,2.089,1.791A9.531,9.531,0,0,0,56.3,40.345,2.8,2.8,0,0,1,55.22,39.6,16.329,16.329,0,0,1,51.09,41.52Z" style="fill:#f7b64e"/><path d="M47.04,42.59c-1.07.23-2.22.43-3.42.61l-.62.09-.98.12a5.949,5.949,0,0,0,1.44,3.477,38.789,38.789,0,0,0,5.222-1.441A4.7,4.7,0,0,1,47.04,42.59Z" style="fill:#f7b64e"/><path d="M37.06,44c0-.04.01-.09.01-.14-.64.03-1.29.06-1.94.08-1.03.04-2.07.06-3.13.06-.67,0-1.34-.01-2-.03V44a7.787,7.787,0,0,0,1.073,3.991c.308,0,.616.009.927.009,2.094,0,4.126-.1,6.069-.3A6.764,6.764,0,0,1,37,44Z" style="fill:#f7b64e"/><path d="M25,44v-.28c-2.13-.17-4.14-.42-6-.73V43a7.321,7.321,0,0,0-.64,3.379,48.894,48.894,0,0,0,6.806,1.24A8.717,8.717,0,0,1,25,44Z" style="fill:#f7b64e"/><path d="M13.19,41.61c-.52-.16-1.02-.34-1.48-.52a.689.689,0,0,0-.1.04,7.051,7.051,0,0,0-2.2,1.159,16.808,16.808,0,0,0,3.928,2.364A8.781,8.781,0,0,1,14.91,42.1C14.31,41.95,13.73,41.79,13.19,41.61Z" style="fill:#f7b64e"/><path d="M7.148,39.081A6.082,6.082,0,0,1,8,39l.02-.02a2.97,2.97,0,0,1-.97-1.586A4.083,4.083,0,0,0,7,38,4.132,4.132,0,0,0,7.148,39.081Z" style="fill:#d68020"/><path d="M51.35,12.639a10.022,10.022,0,0,1,2.91-.619,27.994,27.994,0,0,0-4.88-4.97,6.694,6.694,0,0,0-2.634,1.539A26.121,26.121,0,0,1,51.35,12.639Z" style="fill:#f7b64e"/><path d="M34.456,4.119a25.866,25.866,0,0,1,6.5,1.466A10.832,10.832,0,0,1,42.69,3.12a27.791,27.791,0,0,0-6.38-1.79A4.867,4.867,0,0,0,34.456,4.119Z" style="fill:#f7b64e"/><path d="M20.758,6.55a25.781,25.781,0,0,1,6.363-2.086A9.805,9.805,0,0,1,27.77,1.32a27.6,27.6,0,0,0-6.49,1.81A8.543,8.543,0,0,0,20.758,6.55Z" style="fill:#f7b64e"/><path d="M14.69,10.605c.015-.768.08-1.526.15-2.2a4.006,4.006,0,0,1,1.08-2.33,27.993,27.993,0,0,0-6.84,6.85,7.616,7.616,0,0,0,1.067,2.991A26.144,26.144,0,0,1,14.69,10.605Z" style="fill:#f7b64e"/><path d="M6.093,27.889A25.867,25.867,0,0,1,7.55,21.141,9.724,9.724,0,0,1,6.1,18.35a27.763,27.763,0,0,0-1.96,7.84A7.78,7.78,0,0,0,6.093,27.889Z" style="fill:#f7b64e"/><path d="M53.561,15.465A8.76,8.76,0,0,1,56.24,15a25.672,25.672,0,0,0-1.98-2.98,10.022,10.022,0,0,0-2.91.619A26.084,26.084,0,0,1,53.561,15.465Z" style="fill:#ffcb78"/><path d="M46.746,8.589A6.694,6.694,0,0,1,49.38,7.05a28.008,28.008,0,0,0-6.69-3.93,10.832,10.832,0,0,0-1.731,2.465A25.941,25.941,0,0,1,46.746,8.589Z" style="fill:#ffcb78"/><path d="M32,4c.829,0,1.647.043,2.456.119A4.867,4.867,0,0,1,36.31,1.33,27.758,27.758,0,0,0,32,1a28.078,28.078,0,0,0-4.23.32,9.805,9.805,0,0,0-.649,3.144A26.061,26.061,0,0,1,32,4Z" style="fill:#ffcb78"/><path d="M14.69,10.605A26.065,26.065,0,0,1,20.758,6.55a8.543,8.543,0,0,1,.522-3.42,28.324,28.324,0,0,0-5.35,2.94.01.01,0,0,1-.01.01,4.006,4.006,0,0,0-1.08,2.33C14.77,9.079,14.705,9.837,14.69,10.605Z" style="fill:#ffcb78"/><path d="M10.147,15.921A7.616,7.616,0,0,1,9.08,12.93,27.444,27.444,0,0,0,6.1,18.35a9.724,9.724,0,0,0,1.45,2.791A25.86,25.86,0,0,1,10.147,15.921Z" style="fill:#ffcb78"/><path d="M6.093,27.889a7.78,7.78,0,0,1-1.953-1.7C4.05,27.11,4,28.05,4,29V39a6.545,6.545,0,0,1,2-4.434V30C6,29.289,6.037,28.586,6.093,27.889Z" style="fill:#ffcb78"/><path d="M59,34.176a13.965,13.965,0,0,0-2.64-2.3L59.438,28.8a12.013,12.013,0,0,0,1.277-1.515A11.655,11.655,0,0,0,63,20.76,6.606,6.606,0,0,0,56.24,14a11.246,11.246,0,0,0-5.46,1.6A12.6,12.6,0,0,0,48.2,17.563L31.221,34.544l-3.576-5.272A3.657,3.657,0,0,1,27,26.839v-.9a.982.982,0,0,0-.018-.188.5.5,0,0,1,.053-.269l4.511,5.178,1.508-1.314-4.691-5.381a.3.3,0,0,1-.044-.27l.647-2.4c.006-.022.007-.057.012-.085l3.215,4.385,1.614-1.184-3.7-5.05a3.727,3.727,0,0,1,.5-.891A3.628,3.628,0,0,1,33.584,17h.832A3.626,3.626,0,0,1,37.4,18.466a3.725,3.725,0,0,1,.5.892l-3.7,5.05,1.614,1.184,3.216-4.386c0,.029,0,.058.011.086l.531,1.972,1.932-.52L41,20.888c0-.019,0-.037-.007-.057a2.666,2.666,0,0,0-1.133-1.862,5.053,5.053,0,0,0-.831-1.66A5.629,5.629,0,0,0,34.416,15h-.832a5.631,5.631,0,0,0-4.611,2.31,5.055,5.055,0,0,0-.83,1.659,2.666,2.666,0,0,0-1.133,1.862c0,.013,0,.031-.005.051l-.613,2.276c-.009.029-.007.06-.015.089a1.034,1.034,0,0,0-.144.11l-.333.4a2.533,2.533,0,0,0-.9,2.264l0,.366c-1.428.155-2.835.346-4.183.594l.362,1.966c1.225-.225,2.506-.4,3.8-.545a1.053,1.053,0,0,0-.146.137,3.983,3.983,0,0,0-.817,1.71.992.992,0,0,0-.021.2v1.36a4.479,4.479,0,0,0,.32,1.459,7.9,7.9,0,0,0-1.754-.841,7.728,7.728,0,0,0-1.2-2.259,7.9,7.9,0,0,0-3.048-2.445A7.79,7.79,0,0,0,15,27a8.02,8.02,0,0,0-6.851,3.875,6.921,6.921,0,0,0-.491.977A14.208,14.208,0,0,0,5,34.177V29c0-.883.045-1.8.135-2.712a26.6,26.6,0,0,1,1.09-5.3,7.1,7.1,0,0,0,2.517,2.532c-.021.084-.046.167-.066.251l1.945.466c.079-.331.166-.661.262-.994A22.442,22.442,0,0,1,13,18.186a22.846,22.846,0,0,1,2.751-3.845,21.664,21.664,0,0,1,5.722-4.62,20.68,20.68,0,0,1,5.765-2.2,20.387,20.387,0,0,1,2.755-.437,21.2,21.2,0,0,1,3.983.01A21.513,21.513,0,0,1,39.8,8.425a21.978,21.978,0,0,1,8.7,6.031c.249.278.489.564.722.855l1.562-1.249c-.256-.32-.519-.632-.786-.932a23.8,23.8,0,0,0-3.267-3.072A6.534,6.534,0,0,1,49.173,8.18c.595.491,1.175,1,1.719,1.534l1.4-1.428A28.964,28.964,0,0,0,27.621.331,28.849,28.849,0,0,0,15.345,5.262c-.021.014-.04.031-.06.046l0,0-.014.016a28.887,28.887,0,0,0-7,7.031A28.388,28.388,0,0,0,5.175,17.97a28.794,28.794,0,0,0-2.03,8.123C3.049,27.074,3,28.052,3,29V39H3v.01a6.111,6.111,0,0,0,.295,1.9A9.029,9.029,0,0,0,6,44.85V46a.992.992,0,0,0,.056.328L7.2,49.616A18.916,18.916,0,0,0,14,59.943V60h.071a19.5,19.5,0,0,0,11.872,4H38.057A19.544,19.544,0,0,0,49.94,60H50v-.049A18.757,18.757,0,0,0,56.773,49.7l1.171-3.37A.992.992,0,0,0,58,46V44.852a9.324,9.324,0,0,0,2.539-3.481A6.34,6.34,0,0,0,61,39.01V39h0V30H59ZM9.33,21.512a7.086,7.086,0,0,1-2.156-3.118,26.469,26.469,0,0,1,1.542-3.043A6.244,6.244,0,0,0,10.8,18.067,24.52,24.52,0,0,0,9.33,21.512ZM15.713,11.5a19.647,19.647,0,0,1,.124-2.981,3.009,3.009,0,0,1,.77-1.7,26.76,26.76,0,0,1,3.218-1.915,14.663,14.663,0,0,0,.065,3.438A23.529,23.529,0,0,0,15.713,11.5ZM26.034,5.77a22.576,22.576,0,0,0-4.24,1.535A9.449,9.449,0,0,1,22.072,3.9a26.951,26.951,0,0,1,4.29-1.306A23.307,23.307,0,0,0,26.034,5.77ZM36.577,2.4A26.973,26.973,0,0,1,41.04,3.562a13.622,13.622,0,0,0-1.483,2.67,23.387,23.387,0,0,0-4.351-1A5.229,5.229,0,0,1,36.577,2.4Zm8.515,6.5a24.043,24.043,0,0,0-3.663-1.963,10.97,10.97,0,0,1,1.525-2.6,26.972,26.972,0,0,1,4.463,2.506A9.088,9.088,0,0,0,45.092,8.9ZM34.253,2.1A8.7,8.7,0,0,0,33.2,5.057a23.134,23.134,0,0,0-3.393.037c-.6.055-1.181.136-1.75.232a15.578,15.578,0,0,1,.425-3.081A27.538,27.538,0,0,1,34.253,2.1ZM13.775,9.118a13.441,13.441,0,0,0,.179,4.253A24.9,24.9,0,0,0,11.8,16.3a5.3,5.3,0,0,1-1.663-3.109A26.752,26.752,0,0,1,13.775,9.118Zm16.2,29.5,2.592-2.592a21.158,21.158,0,0,0,1.075,6.7c.029.087.057.166.086.252-.572.011-1.143.023-1.73.023-1.551,0-3.072-.045-4.557-.122a7.781,7.781,0,0,0,.286-.867A11,11,0,0,1,29.977,38.617ZM48.35,32.172c-.172-.47-.353-.978-.538-1.533a18.749,18.749,0,0,1-.8-3.636,15.586,15.586,0,0,1,.946,2.224A8.079,8.079,0,0,1,48.35,32.172Zm-2.435-.9c.416,1.25.811,2.275,1.127,3.1,1.016,2.639,1.044,2.946.341,3.65h0l-3.873,3.873-.008-.027a10.829,10.829,0,0,0,.218-7.138,18.316,18.316,0,0,0-2.988-5.5c.032-.68.085-1.194.122-1.5l3.987-3.988A22.883,22.883,0,0,0,45.915,31.271ZM50.66,42.727a6.708,6.708,0,0,0,4.131,2.078,20.392,20.392,0,0,1-2.085,1.169,4.975,4.975,0,0,1-4.4-2.638C49.124,43.148,49.913,42.946,50.66,42.727ZM18,52.779c-.715-.143-1.378-.291-2-.449V49.893q.99.289,2,.53Zm-2,1.609c.62.148,1.284.29,2,.428v2.171q-1.04-.224-2-.485Zm4-3.516a58.485,58.485,0,0,0,7.4.977c.11.04.218.083.331.115l.026-.093c.408.026.826.044,1.242.063v2.028a72.12,72.12,0,0,1-9-.839Zm5.926-6.08c1.021.071,2.068.12,3.129.155A8.414,8.414,0,0,0,31.4,50.006c-1.2-.01-2.352-.055-3.486-.13C26.539,49.217,25.732,47.151,25.926,44.792Zm9.614-2.7a18.809,18.809,0,0,1-.82-3.68,15.462,15.462,0,0,1,.969,2.267,7.953,7.953,0,0,1,.392,2.222l-.259.01Q35.684,42.519,35.54,42.092Zm6.675-3.785c-.173-.47-.354-.977-.539-1.534a18.639,18.639,0,0,1-.8-3.64,15.5,15.5,0,0,1,.946,2.228A8.068,8.068,0,0,1,42.215,38.307ZM41.175,44.5a7.031,7.031,0,0,0,2.931,4.3q-1.033.219-2.106.4V49c-1.991,0-3.632-1.832-3.936-4.214C39.112,44.712,40.149,44.613,41.175,44.5ZM48,52.33c-.618.157-1.283.306-2,.449V50.431c.607-.145,1.217-.3,1.825-.48L48,49.9ZM36.056,44.9a7.269,7.269,0,0,0,2.436,4.763c-1.052.108-2.118.2-3.211.253a5.536,5.536,0,0,1-4.2-4.931c.309,0,.613.011.924.011C33.34,45,34.7,44.968,36.056,44.9ZM32,52.01c.326,0,.665-.008,1-.013v2.025c-.654.01-1.313.01-2,0V51.993C31.334,52,31.664,52.01,32,52.01Zm0,4.02c.332,0,.663,0,1-.007v2.292q-1,.015-2,0v-2.3C31.334,56.02,31.665,56.03,32,56.03Zm3-4.093c.073,0,.144,0,.218-.008A59.276,59.276,0,0,0,44,50.861v2.262a71.873,71.873,0,0,1-9,.837Zm11,2.879c.717-.138,1.382-.28,2-.428V56.5q-.959.261-2,.485ZM48.7,47.6c-.388.124-.793.245-1.2.364a5.01,5.01,0,0,1-4.317-3.675.993.993,0,0,0,.232-.063c.991-.139,1.958-.3,2.9-.471a6.328,6.328,0,0,0,3.339,3.5C49.328,47.368,49.022,47.49,48.7,47.6ZM39.779,37.406c.416,1.248.81,2.273,1.127,3.1.309.8.551,1.443.691,1.957-1.124.131-2.3.239-3.522.325a9.928,9.928,0,0,0-.489-2.738A18.327,18.327,0,0,0,34.634,34.6c.025-.307.054-.545.078-.713l4-4A22.85,22.85,0,0,0,39.779,37.406ZM24.9,49.607c-1.543-.175-3.057-.408-4.522-.7a5.077,5.077,0,0,1-.728-4.813q2.039.319,4.273.535A8.676,8.676,0,0,0,24.9,49.607Zm-7.15-1.3c-.824-.214-1.641-.442-2.433-.7-.487-.161-.99-.355-1.489-.544a7.1,7.1,0,0,1,1.455-3.829c.758.187,1.558.359,2.386.519A7.437,7.437,0,0,0,17.745,48.3Zm-5.852-2.046a21.231,21.231,0,0,1-2.867-1.578c.224-1.452,1.918-2.244,2.69-2.532.484.18.991.353,1.526.518A9.223,9.223,0,0,0,11.893,46.256ZM8.03,38.938,8,38.97v-.079C8.009,38.907,8.021,38.922,8.03,38.938ZM7.7,40.017A10.208,10.208,0,0,0,9.356,41.1a5.2,5.2,0,0,0-2.027,2.262,7.553,7.553,0,0,1-1.913-2.536A4.478,4.478,0,0,1,7.7,40.017Zm4.735,8.662c.525.209,1.044.387,1.563.57v2.517a13.559,13.559,0,0,1-4.749-2.273c-.043-.152-.1-.3-.136-.451l-.866-2.494A25.549,25.549,0,0,0,12.437,48.679ZM14,53.857v2.034a20.912,20.912,0,0,1-1.957-.772,16.928,16.928,0,0,1-1.6-2.566A24.645,24.645,0,0,0,14,53.857Zm2,4.713q.966.249,2,.461V60.1a17.258,17.258,0,0,1-2-1.191Zm4-3.424a74.42,74.42,0,0,0,9,.816v2.3a68.676,68.676,0,0,1-9-.889Zm11,5.169c.334.005.665.015,1,.015s.666-.01,1-.015V62H31Zm4-4.351a74.749,74.749,0,0,0,9-.818v2.223a68.744,68.744,0,0,1-9,.889Zm11,3.067q1.037-.213,2-.461v.344A17.236,17.236,0,0,1,46,60.1Zm5.975-3.919c-.6.278-1.269.534-1.975.779V53.857a24.747,24.747,0,0,0,3.566-1.31A16.831,16.831,0,0,1,51.975,55.112Zm2.885-5.988c-.032.125-.076.245-.11.369A13.584,13.584,0,0,1,50,51.765V49.251a32.551,32.551,0,0,0,3.239-1.313c.027-.011.054-.022.079-.035a22.666,22.666,0,0,0,2.425-1.33ZM57,43.055V43a8.087,8.087,0,0,1-4.184-.994,17.439,17.439,0,0,0,2.408-1.112,7.511,7.511,0,0,0,2.8.948A8.377,8.377,0,0,1,57,43.055Zm.04-3.494A5.165,5.165,0,0,0,57.55,39H59v.01a4.209,4.209,0,0,1-.114.934A7.95,7.95,0,0,1,57.04,39.561ZM58.5,37H57a1,1,0,0,0-.891.545c-.767,1.5-4.253,3.071-9.558,4.139l8.371-8.371A9.947,9.947,0,0,1,58.5,37ZM53.687,23.5a8.084,8.084,0,0,1,.39,2.946c-.173-.47-.353-.978-.539-1.534a18.856,18.856,0,0,1-.821-3.678A15.5,15.5,0,0,1,53.687,23.5Zm5.966-6.153A4.643,4.643,0,0,1,61,20.76a9.618,9.618,0,0,1-1.914,5.36,10.049,10.049,0,0,1-1.063,1.263l-2.654,2.654-.006-.024A11.317,11.317,0,0,0,55.9,28.09h.081c0-.122-.009-.244-.018-.373a10.338,10.338,0,0,0-.379-4.85,18.327,18.327,0,0,0-2.952-5.451c.017-.21.036-.391.055-.538A8.681,8.681,0,0,1,56.24,16,4.643,4.643,0,0,1,59.653,17.347Zm-10.036,1.63a9.667,9.667,0,0,1,.964-.837,21.1,21.1,0,0,0,1.061,7.405c.416,1.249.81,2.274,1.127,3.1,1.015,2.64,1.043,2.947.34,3.65l0,0-3.468,3.469-.007-.025a10.813,10.813,0,0,0,.22-7.145,18.318,18.318,0,0,0-2.987-5.5c.032-.679.085-1.192.122-1.494ZM29.781,35.984,28.56,37.205c-.054.054-.1.113-.155.168-.458-.918-.872-1.83-1.225-2.619-.286-.64-.543-1.214-.776-1.682A3.8,3.8,0,0,1,26,31.81V30.563c.009-.034.025-.066.036-.1ZM26,40a5.98,5.98,0,0,1-.177,1.389,12.068,12.068,0,0,0-.42,1.2c-.024.051-.056.1-.082.15a56.417,56.417,0,0,1-11.256-1.893A5.9,5.9,0,0,1,14,40a6.006,6.006,0,0,1,6-6,5.863,5.863,0,0,1,1.519.2A5.99,5.99,0,0,1,26,40ZM9.858,31.913A5.941,5.941,0,0,1,15,29a5.835,5.835,0,0,1,2.487.541,5.914,5.914,0,0,1,2.293,1.842,5.489,5.489,0,0,1,.416.63c-.066,0-.13-.013-.2-.013a8.009,8.009,0,0,0-8,8c0,.053.008.1.009.152-.09-.035-.168-.073-.255-.108A5.958,5.958,0,0,1,9,35a5.733,5.733,0,0,1,.41-2.16A5.035,5.035,0,0,1,9.858,31.913ZM7,34.959c0,.029,0,.056,0,.085a8.021,8.021,0,0,0,.586,2.977,7.22,7.22,0,0,0-2.553.687A6.055,6.055,0,0,1,7,34.959ZM20,60.965V59.4a71.226,71.226,0,0,0,9,.865V62H25.943A17.59,17.59,0,0,1,20,60.965ZM35,62V60.26a71.488,71.488,0,0,0,9-.865v1.571A17.614,17.614,0,0,1,38.057,62Z"/><path d="M53.465,12.626l1.59-1.213c-.411-.54-.85-1.074-1.3-1.59l-1.5,1.323C52.673,11.625,53.081,12.123,53.465,12.626Z"/><path d="M8.059,27.94l2,.12c.038-.639.1-1.282.2-1.913l-1.979-.293C8.173,26.543,8.1,27.244,8.059,27.94Z"/></g></svg>