<svg xmlns="http://www.w3.org/2000/svg" viewBox="0 0 64 64"><g id="_07-kouign-amann" data-name="07-kouign-amann"><path d="M19.985,35.992C11.375,35.861,2.111,33.952,2,30.07L.1,14.92c-.007-.035-.013-.07-.018-.106l-.08-.7,1.988-.228.073.642c.006.03.011.059.015.088l1.91,15.26A.852.852,0,0,1,4,30c0,1.308,5.5,3.833,16.015,3.992Z"/><path d="M40.618,25.124l-1.984-.248,1.284-10.26c0-.029.009-.058.015-.088l.073-.642,1.988.228-.08.7c-.005.036-.011.071-.018.106Z"/><rect x="38.242" y="27" width="2.016" height="2" transform="translate(6.598 63.474) rotate(-82.875)"/><path d="M11.185,20a17.148,17.148,0,0,1-8.208-1.69C1.057,17.232,0,15.7,0,14c0-3.309,3.876-6,8.639-6,8.861,0,11.384.97,11.643,1.081a.989.989,0,0,1,.276.176C20.705,9.39,22,10.651,22,14,22,19.378,15.828,20,11.185,20ZM8.639,10C4.727,10,2,12.108,2,14a3.187,3.187,0,0,0,1.956,2.565C5.122,17.22,7.323,18,11.185,18,20,18,20,15.2,20,14a5.65,5.65,0,0,0-.7-3.143C18.58,10.651,15.747,10,8.639,10Z"/><path d="M11,15c-.625,0-2.525,0-2.936-1.4-.5-1.722,2.232-3.912,4.618-5.445l1.081,1.682a15.069,15.069,0,0,0-3.652,3.088A4.471,4.471,0,0,0,11,13c1.952,0,7.183-.6,7.925-3.268l1.927.536C19.553,14.946,11.349,15,11,15Z"/><path d="M8.639,10C3.714,10,0,8.28,0,6c0-.89.545-2.134,3.147-3.01A26.562,26.562,0,0,1,11.185,2C16.533,2,22,2.475,22,6c0,1.963-1.022,2.764-1.7,2.955C19.766,9.15,16.951,10,8.639,10Zm2.546-6a23.774,23.774,0,0,0-7.4.885C2.317,5.379,2,5.9,2,6c0,.514,2.283,2,6.639,2,8.456,0,10.97-.921,10.994-.93a1.015,1.015,0,0,1,.171-.05A2.216,2.216,0,0,0,20,6C20,5.4,19.141,4,11.185,4Z"/><path d="M12.631,9.929C7.665,7.958,7.88,6.836,7.983,6.3,8.231,5,10.032,5,11,5c1.958-.1,8.613-.216,9.907,2.58l-1.814.84C18.6,7.351,14.53,6.822,11.051,7h0a23.473,23.473,0,0,0,2.322,1.072Z"/><path d="M30.815,20C26.172,20,20,19.378,20,14c0-3.349,1.3-4.61,1.442-4.743a.989.989,0,0,1,.276-.176C21.977,8.97,24.5,8,33.361,8,38.124,8,42,10.691,42,14c0,1.7-1.057,3.232-2.977,4.31A17.148,17.148,0,0,1,30.815,20Zm-8.121-9.14A5.7,5.7,0,0,0,22,14c0,1.2,0,4,8.815,4,3.862,0,6.063-.78,7.229-1.435A3.187,3.187,0,0,0,40,14c0-1.892-2.727-4-6.639-4C26.259,10,23.425,10.65,22.694,10.86Z"/><path d="M31,15c-.349,0-8.553-.054-9.852-4.732l1.927-.536C23.817,12.405,29.048,13,31,13a4.471,4.471,0,0,0,.889-.071,15.069,15.069,0,0,0-3.652-3.088l1.081-1.682c2.386,1.533,5.123,3.723,4.618,5.445C33.525,15,31.625,15,31,15Z"/><path d="M33.361,10C25.049,10,22.234,9.15,21.7,8.955,21.022,8.764,20,7.963,20,6c0-3.525,5.467-4,10.815-4a26.562,26.562,0,0,1,8.038.99C41.455,3.866,42,5.11,42,6,42,8.28,38.286,10,33.361,10ZM30.815,4C22.859,4,22,5.4,22,6c0,.735.21,1,.291,1.046.1.033,2.614.954,11.07.954C37.717,8,40,6.514,40,6c0-.1-.317-.621-1.786-1.115A23.774,23.774,0,0,0,30.815,4Z"/><path d="M29.369,9.929l-.738-1.858A23.613,23.613,0,0,0,30.954,7c-3.526-.168-7.555.359-8.047,1.422l-1.814-.84C22.387,4.784,29.042,4.9,31.051,5c.915-.012,2.718,0,2.966,1.3C34.12,6.836,34.335,7.958,29.369,9.929Z"/><rect x="0.5" y="5.959" width="2" height="6.083" transform="translate(-1.459 0.369) rotate(-9.462)"/><rect x="37.459" y="8" width="6.083" height="2" transform="translate(24.958 47.467) rotate(-80.528)"/><path d="M30.639,38C25.714,38,22,36.28,22,34c0-.89.545-2.134,3.147-3.01A26.562,26.562,0,0,1,33.185,30C38.533,30,44,30.475,44,34c0,1.963-1.022,2.764-1.7,2.955C41.766,37.15,38.951,38,30.639,38Zm2.546-6a23.774,23.774,0,0,0-7.4.885C24.317,33.379,24,33.9,24,34c0,.514,2.283,2,6.639,2,8.456,0,10.97-.921,10.994-.93a1.015,1.015,0,0,1,.171-.05A2.216,2.216,0,0,0,42,34C42,33.4,41.141,32,33.185,32Z"/><path d="M34.631,37.929c-4.966-1.971-4.751-3.093-4.648-3.632C30.231,33,32.032,33,33,33c1.958-.1,8.613-.215,9.907,2.58l-1.814.84c-.5-1.069-4.561-1.6-8.042-1.421h0a23.473,23.473,0,0,0,2.322,1.072Z"/><path d="M55.361,38c-8.312,0-11.127-.85-11.662-1.045C43.022,36.764,42,35.963,42,34c0-3.525,5.467-4,10.815-4a26.562,26.562,0,0,1,8.038.99C63.455,31.866,64,33.11,64,34,64,36.28,60.286,38,55.361,38Zm-2.546-6C44.859,32,44,33.4,44,34c0,.735.21,1,.291,1.046.1.033,2.614.954,11.07.954C59.717,36,62,34.514,62,34c0-.1-.317-.621-1.786-1.115A23.774,23.774,0,0,0,52.815,32Z"/><path d="M51.369,37.929l-.738-1.858A23.613,23.613,0,0,0,52.954,35c-3.525-.168-7.555.359-8.047,1.422l-1.814-.84c1.294-2.8,7.947-2.681,9.958-2.579.906,0,2.718,0,2.966,1.3C56.12,34.836,56.335,35.958,51.369,37.929Z"/><rect x="22.5" y="33.964" width="2" height="7.071" transform="translate(-5.067 3.7) rotate(-8.13)"/><rect x="58.964" y="36.5" width="7.071" height="2" transform="translate(16.526 94.059) rotate(-81.858)"/><path d="M43,64c-9.373,0-18.86-2.031-19-5.914L22.077,45.578A6.7,6.7,0,0,1,22,44.569a6.528,6.528,0,0,1,2.906-5.488A19.912,19.912,0,0,1,36,36H50a19.912,19.912,0,0,1,11.094,3.081A6.528,6.528,0,0,1,64,44.569a6.679,6.679,0,0,1-.077,1.008L62,58.086C61.86,61.969,52.373,64,43,64ZM36,38a17.924,17.924,0,0,0-10,2.752,4.536,4.536,0,0,0-2,3.817,4.62,4.62,0,0,0,.054.7l1.934,12.574A.964.964,0,0,1,26,58c0,1.357,6,4,17,4s17-2.643,17-4a.964.964,0,0,1,.012-.152l1.934-12.574a4.62,4.62,0,0,0,.054-.7A4.536,4.536,0,0,0,60,40.752,17.924,17.924,0,0,0,50,38Z"/><path d="M31.712,59.662c-2.664-.8-4.046-1.883-4.109-3.219l-1.537-9.12A4.783,4.783,0,0,1,26,46.531a4.95,4.95,0,0,1,2.45-4.257A17.172,17.172,0,0,1,37.4,40H48.6a17.179,17.179,0,0,1,8.951,2.274A4.951,4.951,0,0,1,60,46.531a4.762,4.762,0,0,1-.066.791l-.816,4.844-1.972-.332.815-4.843a2.712,2.712,0,0,0,.039-.46,2.965,2.965,0,0,0-1.48-2.543A15.183,15.183,0,0,0,48.6,42H37.4a15.183,15.183,0,0,0-7.92,1.988A2.965,2.965,0,0,0,28,46.531a2.732,2.732,0,0,0,.039.461l1.547,9.188a1.033,1.033,0,0,1,.014.166h0s.254.669,2.687,1.4Z"/><path d="M35.86,60.53c-.726-.1-1.414-.22-2.059-.352l.4-1.96c.607.124,1.256.235,1.94.331Z"/><path d="M43,61c-1.75,0-3.464-.078-5.094-.231l.188-1.991C39.661,58.925,41.312,59,43,59c8.293,0,13.2-1.758,13.4-2.662a.836.836,0,0,1,.014-.158l.395-2.346,1.972.332L58.4,56.443C58.229,60.037,48.669,61,43,61Z"/><path d="M47,56a4,4,0,0,1-4-4V49a1,1,0,0,0-1-1c-.586,0-1.172.586-1.793,1.207A4.629,4.629,0,0,1,37,51a3.464,3.464,0,0,1-2.333-1.137A2.416,2.416,0,0,0,33,49a2,2,0,0,0-1.191.534A7.351,7.351,0,0,1,27,51V49a5.4,5.4,0,0,0,3.667-1.108A3.858,3.858,0,0,1,33,47a4.317,4.317,0,0,1,3,1.369c.452.4.722.631,1,.631.586,0,1.172-.586,1.793-1.207A4.629,4.629,0,0,1,42,46a3,3,0,0,1,3,3v3a2,2,0,0,0,4,0V50a3,3,0,0,1,3-3,8.058,8.058,0,0,1,3.524.559c.238.114.475.238.712.362a5.058,5.058,0,0,0,1.832.7l-.136,1.995a6.689,6.689,0,0,1-2.626-.924c-.214-.112-.427-.225-.642-.327A6.54,6.54,0,0,0,52,49a1,1,0,0,0-1,1v2A4,4,0,0,1,47,56Z"/><path d="M13.555,23.9c-.146-.072-.742-.243-1.136-.357a8.836,8.836,0,0,1-1.953-.693l1.059-1.7a13.35,13.35,0,0,0,1.449.468,10.473,10.473,0,0,1,1.471.487Z"/><path d="M20.813,23.583l-1.626-1.166a9.125,9.125,0,0,1,1.137-1.154,10.259,10.259,0,0,0,.863-.846l1.626,1.166a9.125,9.125,0,0,1-1.137,1.154A10.259,10.259,0,0,0,20.813,23.583Z"/><path d="M14.446,27.9l-.892-1.79a14.041,14.041,0,0,1,3.276-1.09l.34,1.97A12.134,12.134,0,0,0,14.446,27.9Z"/><path d="M26.273,24.687l-.18-.192a20.509,20.509,0,0,0-1.666-1.676l1.146-1.638a18.117,18.117,0,0,1,1.98,1.946l.174.186Z"/><path d="M30.853,28.522l-1.706-1.044a8.913,8.913,0,0,1,2.273-2.292l1.16,1.628A7.047,7.047,0,0,0,30.853,28.522Z"/><path d="M35.768,24.973C34.651,24.706,33,23.577,33,22h2c0,.347.734.909,1.232,1.027Z"/><path d="M20,32H18a5,5,0,0,0-.707-.793A3.341,3.341,0,0,1,16,29h2a.19.19,0,0,0,0-.042,3.853,3.853,0,0,0,.711.835A3.341,3.341,0,0,1,20,32Z"/><path d="M10.464,28.845A2.747,2.747,0,0,1,9,26h2c0,.816,0,.816.536,1.155Z"/><path d="M7.715,23.958a4.5,4.5,0,0,1-1.9-1.646,6.155,6.155,0,0,0-.5-.582l1.368-1.46a7.96,7.96,0,0,1,.689.788,5.211,5.211,0,0,0,.931.99Z"/><path d="M23.6,29.8,22.4,28.2A6.634,6.634,0,0,1,26,27v2A4.651,4.651,0,0,0,23.6,29.8Z"/><path d="M34.568,29.823l-1.136-1.646A4.155,4.155,0,0,0,35,26h2C37,27.515,35.416,29.237,34.568,29.823Z"/><path d="M7.708,29.957a4.4,4.4,0,0,1-2.966-2.631l1.89-.652a2.489,2.489,0,0,0,1.66,1.369Z"/></g></svg>