<svg xmlns="http://www.w3.org/2000/svg" viewBox="0 0 64 64"><g id="_11-Croissant" data-name="11-Croissant"><path d="M2.274,32.933a2.24,2.24,0,0,1-1.092-.287A2.306,2.306,0,0,1,0,30.628V21.372a1,1,0,0,1,.062-.347C.229,20.575,4.333,10,21.444,10a29.514,29.514,0,0,1,15.062,4.147L35.5,15.874A27.521,27.521,0,0,0,21.444,12C6.7,12,2.556,20.278,2,21.567v9.061a.293.293,0,0,0,.152.269.234.234,0,0,0,.253-.006,46.621,46.621,0,0,1,5.213-2.8l.834,1.818a45.033,45.033,0,0,0-4.988,2.678A2.233,2.233,0,0,1,2.274,32.933Z"/><path d="M45.727,34a2.246,2.246,0,0,1-1.325-.434c-3.751-2.727-11.388-7.3-20.4-7.3a34.633,34.633,0,0,0-9.719,1.458L13.719,25.8A36.609,36.609,0,0,1,24,24.262c9.579,0,17.631,4.816,21.578,7.686a.237.237,0,0,0,.262.023A.293.293,0,0,0,46,31.7V25.563a34.486,34.486,0,0,0-8.968-8.73l1.108-1.666a35.386,35.386,0,0,1,9.708,9.563,1.011,1.011,0,0,1,.152.532V31.7a2.3,2.3,0,0,1-1.253,2.057A2.254,2.254,0,0,1,45.727,34Z"/><path d="M10.374,29.08l-.748-1.854c.655-.265,1.338-.523,2.045-.769l.658,1.889C11.653,28.581,11,28.828,10.374,29.08Z"/><path d="M5.054,37.442a1.866,1.866,0,0,1-.891-.228A2.425,2.425,0,0,1,3,35V31H5v4a.668.668,0,0,0,.122.459A38.976,38.976,0,0,1,26.571,29.1c6.941,0,12.379,2.093,16.166,6.222a.3.3,0,0,0,.13.1C42.9,35.409,43,35.282,43,35V32h2v3a2.378,2.378,0,0,1-1.416,2.287,2.093,2.093,0,0,1-2.321-.611c-3.392-3.7-8.335-5.574-14.692-5.574a37.529,37.529,0,0,0-20.36,5.975A2.117,2.117,0,0,1,5.054,37.442Z"/><path d="M36,43a1.012,1.012,0,0,1-.339-.059A19.853,19.853,0,0,0,30.9,41.857l.2-1.99A21.854,21.854,0,0,1,36,40.938c1.644-.628,5-2.432,5-4.938h2c0,4.667-6.411,6.858-6.684,6.949A1,1,0,0,1,36,43Z"/><path d="M10,50a1,1,0,0,1-.7-.29C5.228,45.675,5.008,36.411,5,36.019l2-.038c0,.082.187,7.761,3.073,11.583,2.34-2.079,9.622-7.8,18.863-7.8H29l-.006,2h-.06c-10.2,0-18.148,7.865-18.228,7.945A1,1,0,0,1,10,50Z"/><path d="M37,64a38.624,38.624,0,0,1-15.841-2.908c-9.273-4.16-10.879-11.454-11.106-12.874l1.974-.316c.2,1.242,1.616,7.625,9.952,11.366A36.666,36.666,0,0,0,37,62a34.279,34.279,0,0,0,6.432-.572,21.544,21.544,0,0,0,6.575-2.3.756.756,0,0,1,.09-.045,11.888,11.888,0,0,0,5.776-6.616,3.312,3.312,0,0,0-1.795-3.891L52.9,48a1.021,1.021,0,0,0-1.013.064A11.628,11.628,0,0,1,45,50a15.639,15.639,0,0,1-4.914-.821,18.363,18.363,0,0,1-2.276-.931,5.038,5.038,0,0,1-2.8-4.147A3.309,3.309,0,0,1,35,43.75V42h2v1.75a1.646,1.646,0,0,0,0,.172,3.013,3.013,0,0,0,1.687,2.531,16.253,16.253,0,0,0,2.026.828A13.637,13.637,0,0,0,45,48a9.641,9.641,0,0,0,5.789-1.611,3.048,3.048,0,0,1,2.982-.191l1.19.585a5.308,5.308,0,0,1,2.827,6.263A13.894,13.894,0,0,1,51,60.873c-.027.015-.056.029-.085.042a23.629,23.629,0,0,1-7.1,2.478A36.414,36.414,0,0,1,37,64Z"/><path d="M22.489,60.673l-1.959-.4s.024-.119.082-.343a22.512,22.512,0,0,1,1.676-4.379l1.785.9a20.352,20.352,0,0,0-1.524,3.977C22.51,60.578,22.491,60.66,22.489,60.673Z"/><path d="M24.854,55.051l-1.708-1.044A15.73,15.73,0,0,1,37,46h.68v2H37C31.8,48,27.715,50.373,24.854,55.051Z"/><path d="M16.127,55.729l-1.9-.635c.161-.481,4.127-11.776,21.762-12.064l.033,2C19.872,45.294,16.272,55.3,16.127,55.729Z"/><path d="M42.93,63.134c-5.089-4.856-3.973-12.785-3.51-15.1l1.961.392c-.294,1.468-1.532,9,2.93,13.261Z"/><path d="M50.131,60.925c-7.979-3.267-6.843-11.9-6.831-11.987l1.98.284c-.04.289-.91,7.183,5.609,9.853Z"/><path d="M54.244,57.66c-8.331-1.389-8.428-8.507-8.428-8.578h1l1-.005c0,.224.132,5.506,6.756,6.61Z"/><path d="M46,22.63H44V22a10.886,10.886,0,0,0-4.092-8.587C33.282,8.145,25.84,5,20,5,13.251,5,6.166,16.2,5.867,16.68h0a1.27,1.27,0,0,1-.142.19L5,16.18l-.879-.469a.813.813,0,0,1,.051-.091C4.979,14.328,12.288,3,20,3c6.277,0,14.185,3.307,21.152,8.847A12.88,12.88,0,0,1,46,22Z"/><path d="M40.857,14.1,36.1,4.442C35.451,3.249,32.577,2,31,2H26a9.144,9.144,0,0,0-3.445.832l-3,2-1.11-1.664,3-2A10.734,10.734,0,0,1,26,0h5c1.974,0,5.724,1.4,6.878,3.521l4.774,9.69Z"/><path d="M47.707,24.707l-1.414-1.414A26.185,26.185,0,0,1,59.858,16.01.969.969,0,0,1,60,16h.25v2h-.17A24.73,24.73,0,0,0,47.707,24.707Z"/><path d="M46,22.641l-2-.022A34.347,34.347,0,0,1,49.12,4.5l1.66,1.116A32.76,32.76,0,0,0,46,22.641Z"/><path d="M58.95,28H57.12a5.027,5.027,0,0,1-2.6-.724l-2.606-1.558A6.315,6.315,0,0,0,49,25H46.1V23H49a8.258,8.258,0,0,1,3.941,1l2.612,1.561A3.036,3.036,0,0,0,57.12,26h1.83A3.029,3.029,0,0,0,62,22.95a3,3,0,0,0-.339-1.391,67.717,67.717,0,0,0-4.754-7.839,1.085,1.085,0,0,1-.08-.1,30.959,30.959,0,0,0-7.433-7.732A9.909,9.909,0,0,0,44,4H41.3a7,7,0,0,0-2.214.359l-1.77.59-.632-1.9,1.769-.59A9,9,0,0,1,41.3,2H44a11.85,11.85,0,0,1,6.5,2.227,32.738,32.738,0,0,1,7.877,8.129c.03.033.058.067.085.1a69.724,69.724,0,0,1,4.973,8.182A4.978,4.978,0,0,1,64,22.95,5.029,5.029,0,0,1,58.95,28Z"/><path d="M47,24l-1.988-.217a12.015,12.015,0,0,1,4.774-8.577L51,16.794A10.094,10.094,0,0,0,47,24Z"/><path d="M52.488,15.824l-.976-1.745a18.272,18.272,0,0,1,5.981-2.028.909.909,0,0,1,.147-.011l.006,1.038.14.951A16.206,16.206,0,0,0,52.488,15.824Z"/></g></svg>