<svg xmlns="http://www.w3.org/2000/svg" viewBox="0 0 64 64"><g id="_13-Ciabatta" data-name="13-Ciabatta"><path d="M41,64H23a7.008,7.008,0,0,1-7-7V55.533c-.055-.048-.109-.1-.163-.147A11.977,11.977,0,0,1,15.542,38.1,11.948,11.948,0,0,1,15,21.7V9a9.011,9.011,0,0,1,9-9H40a7.009,7.009,0,0,1,6.991,6.644A11.993,11.993,0,0,1,48.458,24.9,11.969,11.969,0,0,1,50,40.007V55A9.01,9.01,0,0,1,41,64ZM17,21.413a1,1,0,0,1-.134,1.212,9.967,9.967,0,0,0,.347,14.31c.091.085.186.164.282.242l.163.137A1,1,0,0,1,17.7,38.8l-.485.459a9.985,9.985,0,0,0,0,14.675c.09.085.184.161.277.238l.157.131a1,1,0,0,1,.353.762V57a5.006,5.006,0,0,0,5,5H41a7.008,7.008,0,0,0,7-7V39.7a1,1,0,0,1,.181-.573,9.992,9.992,0,0,0-1.394-13.06h0c-.091-.086-.186-.164-.282-.243l-.163-.137A1,1,0,0,1,46.3,24.2l.485-.459a9.984,9.984,0,0,0,0-14.674,11.106,11.106,0,0,0-1.352-1.075A1,1,0,0,1,45,7.167V7a5.006,5.006,0,0,0-5-5H24a7.008,7.008,0,0,0-7,7Z"/><path d="M20.644,49.979c-1.513,0-2.661-.4-3.25-1.3a2.69,2.69,0,0,1-.3-2.157c.693-2.971,5.356-7.38,11.88-11.235,7.252-4.282,15.637-7.022,17.631-3.967a2.689,2.689,0,0,1,.3,2.156c-.693,2.97-5.356,7.38-11.88,11.235h0C29.917,47.728,24.247,49.979,20.644,49.979ZM43.458,32c-2.347,0-7.212,1.317-13.466,5.011-6.567,3.879-10.479,7.95-10.95,9.967a.864.864,0,0,0,.026.608c.676,1.032,6.562.35,14.94-4.6h0c6.568-3.879,10.48-7.95,10.951-9.967a.867.867,0,0,0-.025-.607C44.761,32.152,44.254,32,43.458,32Z"/><path d="M21.142,31c-1.846,0-3.231-.425-3.836-1.429a2.3,2.3,0,0,1-.17-1.948c.817-2.569,5.665-6.12,12.352-9.047,7.051-3.087,15.443-5.079,17.206-2.153a2.3,2.3,0,0,1,.17,1.948c-.817,2.569-5.665,6.12-12.352,9.047C29.881,29.448,24.672,31,21.142,31Zm21.89-14.018c-2.43,0-6.937.885-12.742,3.426-6.611,2.894-10.729,6.19-11.248,7.821-.022.069-.068.236-.023.31.563.935,6.258.738,14.691-2.953,6.611-2.894,10.729-6.19,11.248-7.821.022-.069.068-.236.023-.31C44.806,17.167,44.132,16.985,43.032,16.985Z"/><path d="M17.142,55.99l-.284-1.98a60.469,60.469,0,0,0,20.776-6.885l.967,1.75A62.447,62.447,0,0,1,17.142,55.99Z"/><path d="M40.37,47.858l-1.028-1.716q1.122-.672,2.106-1.327l1.1,1.668Q41.533,47.159,40.37,47.858Z"/><path d="M44.948,44.8,43.755,43.2a35.364,35.364,0,0,0,4.508-3.874l1.474,1.353A36.687,36.687,0,0,1,44.948,44.8Z"/><path d="M41.29,9.188l-.58-1.915a48.881,48.881,0,0,1,5.106-1.256l.368,1.966A46.657,46.657,0,0,0,41.29,9.188Z"/><path d="M16.651,22.759l-1.3-1.518A80.161,80.161,0,0,1,38.673,7.933l.653,1.891A79.52,79.52,0,0,0,16.651,22.759Z"/><path d="M17.474,38.881l-.948-1.762c.987-.531,2-1.057,3.022-1.576l.9,1.785C19.442,37.839,18.447,38.357,17.474,38.881Z"/><path d="M22.439,36.341l-.878-1.8q1-.489,2.01-.966l.857,1.807Q23.431,35.858,22.439,36.341Z"/><path d="M26.417,34.459l-.834-1.818c10.616-4.876,20.98-8.547,21.084-8.584l.666,1.886C47.23,25.979,36.947,29.622,26.417,34.459Z"/><path d="M23,64V62c7.747,0,25-10.207,25-16h2C50,52.041,33.592,64,23,64Z"/><path d="M16.814,17.581l-1.628-1.162c.42-.588,10.477-14.4,27.755-15.417l.118,2C26.725,3.959,16.911,17.445,16.814,17.581Z"/><path d="M27,27a2.916,2.916,0,0,1-3-3h1l1-.012A.919.919,0,0,0,27,25Z"/><path d="M35.3,22.71A2.486,2.486,0,0,0,34,22V20a4.4,4.4,0,0,1,2.707,1.293Z"/><rect x="29.882" y="23.5" width="2.236" height="2" transform="translate(-7.684 16.45) rotate(-26.565)"/><rect x="39" y="18.382" width="2" height="2.236" transform="translate(4.67 46.556) rotate(-63.435)"/><path d="M26,46a2.916,2.916,0,0,1-3-3h1l1-.012A.919.919,0,0,0,26,44Z"/><path d="M36.3,37.71A2.486,2.486,0,0,0,35,37V35a4.392,4.392,0,0,1,2.707,1.293Z"/><path d="M29.3,43.71A2.486,2.486,0,0,0,28,43V41a4.392,4.392,0,0,1,2.707,1.293Z"/><rect x="30.882" y="38.5" width="2.236" height="2" transform="translate(-14.287 18.481) rotate(-26.565)"/><rect x="40" y="33.382" width="2" height="2.236" transform="translate(-8.193 55.743) rotate(-63.435)"/></g></svg>