<svg xmlns="http://www.w3.org/2000/svg" viewBox="0 0 64 64"><g id="_15-plain_bread" data-name="15-plain bread"><path d="M18.044,50.444C14.886,44.149,13,37.255,13,32c0-9.544,8.023-32,19-32,4.625,0,9.318,4.1,13.216,11.532l-1.771.929C41.4,8.554,37.187,2,32,2c-3.951,0-8.265,4.089-11.833,11.22C17.125,19.3,15,27.02,15,32c0,4.958,1.806,11.518,4.832,17.548Z"/><path d="M32,64c-4.084,0-8.775-4.195-12.872-11.511l1.745-.976C24.5,57.981,28.759,62,32,62c6.991,0,17-17.663,17-30a42.792,42.792,0,0,0-2.944-13.649l1.874-.7A44.838,44.838,0,0,1,51,32C51,44.346,40.625,64,32,64Z"/><path d="M45.28,16.384c-.274-.659-.562-1.312-.862-1.954l1.812-.846q.468,1,.9,2.03Z"/><path d="M28.771,54C23.062,54,19.254,44.672,19,36.029l.023-4.035c.088-2.131.476-4.975,1.825-6.627,3.21-3.929,16.9-15.631,17.485-16.128a1,1,0,0,1,1.638.606A106.64,106.64,0,0,1,41,22.983V25c.01,9.212-1.063,21.28-6.231,26.455A8.235,8.235,0,0,1,28.771,54Zm9.466-42.04c-3.643,3.147-13.328,11.6-15.84,14.673-.781.955-1.269,2.877-1.375,5.409L21,36.006C21.223,43.553,24.469,52,28.771,52a6.221,6.221,0,0,0,4.583-1.959C37.008,46.383,39.014,37.489,39,25V23.008A109.047,109.047,0,0,0,38.237,11.96Z"/><path d="M39.9,10.447,38.1,9.554A9.383,9.383,0,0,0,39,6h2A11.347,11.347,0,0,1,39.9,10.447Z"/><path d="M23.832,57.555l-1.664-1.11C24.217,53.371,25.69,52,29,52v2C26.725,54,25.759,54.664,23.832,57.555Z"/><path d="M29.048,53.307,29,53.08c-.186-.677-1.872-7.566,2.173-13.635C35.523,32.9,38.019,27.61,39.021,22.8l1.958.408c-1.056,5.072-3.645,10.585-8.146,17.35-3.619,5.428-1.959,11.827-1.887,12.1Z"/><path d="M22.072,43.5l-.956-.125-1.036.005v-.01a1.134,1.134,0,0,1,.008-.13C20.513,40,21.76,32.062,24.167,28.446c3.222-4.827,7.095-11.613,8.611-14.306l1.743.98c-1.527,2.714-5.431,9.552-8.689,14.435C24.056,32.223,22.725,38.508,22.072,43.5Z"/><rect x="35" y="18" width="2" height="2"/><rect x="32" y="22" width="2" height="2"/><rect x="26" y="39" width="2" height="2"/><rect x="24" y="43" width="2" height="2"/><rect x="26" y="46" width="2" height="2"/><rect x="25" y="35" width="2" height="2"/><rect x="29" y="33" width="2" height="2"/><rect x="29" y="29" width="2" height="2"/><rect x="33" y="27" width="2" height="2"/></g></svg>