<svg xmlns="http://www.w3.org/2000/svg" viewBox="0 0 64 64"><g id="_17-plain_bread" data-name="17-plain bread"><path d="M45.01,12.142C44.978,11.923,44.643,10,43,10V8c2.733,0,3.806,2.527,3.99,3.863Z"/><rect x="32.089" y="18.5" width="8.322" height="1.999" transform="translate(0.245 39.448) rotate(-57.265)"/><path d="M40.627,14.541l-1.682-1.082,3.037-4.726A7.215,7.215,0,0,0,40.543,5.76,9.3,9.3,0,0,0,32.924,2H32V0h.924a11.3,11.3,0,0,1,9.248,4.6A8.019,8.019,0,0,1,44,9a1,1,0,0,1-.159.541Z"/><path d="M37.936,46.81a1,1,0,0,1-.817-1.578L47.157,31.037A10.733,10.733,0,0,0,49,25V23a3.085,3.085,0,0,0-1.09-2.372l-1.05-.7,1.11-1.664,1.05.7A5.075,5.075,0,0,1,51,23v2a12.9,12.9,0,0,1-2.194,7.169L41.13,43.024c2.844-1.6,6.123-3.766,6.975-5.471A20.318,20.318,0,0,0,50,30.922L50,30h2v1a22.019,22.019,0,0,1-2.1,7.447c-1.828,3.654-10.548,7.807-11.537,8.269A1,1,0,0,1,37.936,46.81Z"/><path d="M36,34a1,1,0,0,1-.769-1.64L46.192,19.189a1.843,1.843,0,0,0,.284-1.6l-.968-3.579-7.755,8.416A5.256,5.256,0,0,1,34,24H32V22h2a3.253,3.253,0,0,0,2.315-.958l8.954-9.72a1,1,0,0,1,1.7.417L48.4,17.054a3.863,3.863,0,0,1-.646,3.382l-.223.267.062.111a4.453,4.453,0,0,1-.815,5.171L40.742,32.67C39.414,34,37.359,34,36,34ZM46.057,22.478,38.29,31.812a2.175,2.175,0,0,0,1-.519l6.038-6.686A2.492,2.492,0,0,0,46.057,22.478Z"/><path d="M32,64V62c4.66,0,8.855-3.958,13.2-12.455l1.781.91C44.009,56.27,39.219,64,32,64Z"/><path d="M47.983,48.432l-1.8-.864c.321-.672.63-1.336.927-1.985l1.819.834C48.625,47.076,48.311,47.75,47.983,48.432Z"/><path d="M49.835,44.409l-1.824-.818.19-.426c.666-1.484,1.241-2.766,1.776-3.829A9.121,9.121,0,0,0,51,36V33.1a5.624,5.624,0,0,0-1.066-2.236l-1.5-1.047,1.142-1.642L51.2,29.312a1.034,1.034,0,0,1,.21.2,7.577,7.577,0,0,1,1.57,3.292A.947.947,0,0,1,53,33v3a10.963,10.963,0,0,1-1.236,4.235c-.515,1.023-1.081,2.286-1.738,3.748Z"/><path d="M29.159,23.541l-9-14A1,1,0,0,1,20,9a6.851,6.851,0,0,1,1.245-3.528l1.7,1.056a5.811,5.811,0,0,0-.924,2.205l8.823,13.726Z"/><path d="M23.776,5.34,22.224,4.081A11.438,11.438,0,0,1,31.076,0H32V2h-.924A9.429,9.429,0,0,0,23.776,5.34Z"/><path d="M18.99,12.137l-1.98-.274C17.194,10.527,18.267,8,21,8v2C19.306,10,19,12.05,18.99,12.137Z"/><path d="M26.064,46.81a1,1,0,0,1-.422-.094c-.989-.462-9.709-4.615-11.537-8.269A22.144,22.144,0,0,1,12,31.078L12,30h2v1h0A20.6,20.6,0,0,0,15.9,37.553c.853,1.707,4.132,3.869,6.976,5.472L15.21,32.191A12.912,12.912,0,0,1,13,25V23a5.075,5.075,0,0,1,1.98-4.036l1.05-.7,1.11,1.664-1.05.7A3.085,3.085,0,0,0,15,23v2a10.759,10.759,0,0,0,1.858,6.06L26.881,45.232a1,1,0,0,1-.817,1.578Z"/><path d="M28,34c-1.359,0-3.414,0-4.707-1.293l-6.108-6.759a4.421,4.421,0,0,1-.8-5.1l.739-1.337,1.75.97-.72,1.3a2.433,2.433,0,0,0,.479,2.787l6.108,6.759a2.088,2.088,0,0,0,.976.491l-4.484-5.388,1.537-1.28,6,7.207A1,1,0,0,1,28,34Z"/><path d="M19.746,24.645l-3.475-4.177a3.884,3.884,0,0,1-.67-3.427l1.434-5.3a1,1,0,0,1,1.7-.417l8.983,9.749A3.23,3.23,0,0,0,30,22h2v2H30a5.238,5.238,0,0,1-3.729-1.544L18.492,14.01l-.965,3.566a1.868,1.868,0,0,0,.306,1.645l3.45,4.144Z"/><path d="M32,64c-9.053,0-14.45-12.04-18.022-20.007-.658-1.467-1.225-2.733-1.742-3.759A10.953,10.953,0,0,1,11,36V33a.947.947,0,0,1,.021-.2,7.577,7.577,0,0,1,1.57-3.292,1.034,1.034,0,0,1,.21-.2l1.628-1.133,1.142,1.642-1.5,1.047A5.624,5.624,0,0,0,13,33.1V36a9.111,9.111,0,0,0,1.023,3.335c.537,1.065,1.113,2.352,1.78,3.84C19.164,50.671,24.242,62,32,62Z"/></g></svg>