<svg xmlns="http://www.w3.org/2000/svg" viewBox="0 0 64 64"><g id="_18-glazed_twist_donut" data-name="18-glazed twist donut"><path d="M8.561,61.009a7.412,7.412,0,0,1-4.289-1.372L4.084,59.5a7.285,7.285,0,0,1-.8-11.248l12.6-11.939,1.375,1.452-12.6,11.94A5.31,5.31,0,0,0,3,53.55a5.257,5.257,0,0,0,2.245,4.322l.191.138a5.38,5.38,0,0,0,6.7-.368l1.565-1.39,1.328,1.5-1.565,1.39A7.374,7.374,0,0,1,8.561,61.009Z"/><path d="M16.664,56.3l-1.328-1.5,8-7.1A10.881,10.881,0,0,0,27,39.56V38.9a10.818,10.818,0,0,0-3.215-7.712l-.248-.237,1.387-1.442.26.25A12.813,12.813,0,0,1,29,38.9v.66a12.879,12.879,0,0,1-4.337,9.628Z"/><polygon points="17.234 37.787 15.887 36.31 18.336 34.134 19.664 35.628 17.234 37.787"/><path d="M21.782,33.748l-1.328-1.5,2.882-2.56c.07-.061.134-.116.189-.171A10.92,10.92,0,0,0,27,21.56V20.9a10.8,10.8,0,0,0-3.016-7.507l-10.3,9.756L12.312,21.7l11-10.423a1,1,0,0,1,1.387.012l.49.48A12.8,12.8,0,0,1,29,20.9v.66a12.906,12.906,0,0,1-4.087,9.4c-.062.063-.159.148-.256.233Z"/><rect x="9.748" y="23.632" width="1.839" height="2" transform="translate(-14.015 14.08) rotate(-43.437)"/><path d="M6.628,46.929A8.894,8.894,0,0,1,1.01,38.607L1.02,36c-.009-.105-.02-.275-.02-.446a7.337,7.337,0,0,1,2.271-5.294L7.48,26.274l1.375,1.452L4.646,31.708A5.332,5.332,0,0,0,3,35.55c0,.128.009.255.018.383L3.01,38.614a6.9,6.9,0,0,0,4.362,6.457Z"/><path d="M4.2,30.6,2.77,28.689A8.777,8.777,0,0,1,1,23.38V19.55a8.835,8.835,0,0,1,11.646-8.389l8.55,2.85-.633,1.9-8.549-2.85A6.843,6.843,0,0,0,3,19.55v3.83a6.8,6.8,0,0,0,1.37,4.11L5.8,29.4Z"/><path d="M25,12H23V9A7,7,0,0,0,9,9H7A9,9,0,1,1,25,9Z"/><path d="M16,64a8.293,8.293,0,0,1-3.861-.922,9.4,9.4,0,0,1-2.918-2.451A1,1,0,0,1,9,60v-.17h1.211l.568-.457a7.429,7.429,0,0,0,2.289,1.934A6.294,6.294,0,0,0,16,62a7.009,7.009,0,0,0,7-7V52h2v3A9.01,9.01,0,0,1,16,64Z"/><path d="M48,64H42A11.013,11.013,0,0,1,31,53V11A11.013,11.013,0,0,1,42,0h6A11.013,11.013,0,0,1,59,11v3H57V11a9.01,9.01,0,0,0-9-9H42a9.01,9.01,0,0,0-9,9V53a9.01,9.01,0,0,0,9,9h6a9.01,9.01,0,0,0,9-9V20h2V53A11.013,11.013,0,0,1,48,64Z"/><rect x="57" y="16" width="2" height="2"/><path d="M52,64H46V62h6a9.01,9.01,0,0,0,9-9V51h2v2A11.013,11.013,0,0,1,52,64Z"/><path d="M63,49H61V11a9.01,9.01,0,0,0-9-9H46V0h6A11.013,11.013,0,0,1,63,11Z"/><path d="M45.537,60a10.8,10.8,0,0,1-1.9-.218,11.116,11.116,0,0,1-2.578-.677,10.673,10.673,0,0,1-3.029-2.235,9.028,9.028,0,0,0-2.459-1.859,9.311,9.311,0,0,0-.948-.33,7.136,7.136,0,0,1-1.893-.806,3.83,3.83,0,0,1-1.651-3.947l1.955.418a1.866,1.866,0,0,0,.8,1.863,5.511,5.511,0,0,0,1.38.562,11.387,11.387,0,0,1,1.148.406A10.65,10.65,0,0,1,39.4,55.415a9.011,9.011,0,0,0,2.453,1.856,9.5,9.5,0,0,0,2.129.542,6.821,6.821,0,0,0,2,.158,6.478,6.478,0,0,0,2.251-.984c.23-.134.458-.268.688-.4A27.552,27.552,0,0,1,53.23,54.81c.845-.3,1.719-.6,2.54-.945a3.455,3.455,0,0,0,1.019-.579.569.569,0,0,0,.209-.4l1.945-.461a2.432,2.432,0,0,1-.763,2.3,5.152,5.152,0,0,1-1.634.985c-.879.369-1.783.685-2.658.989a25.6,25.6,0,0,0-4,1.644c-.215.119-.427.244-.64.369a8.165,8.165,0,0,1-2.989,1.24A5.218,5.218,0,0,1,45.537,60Z"/><path d="M57.457,10.84a10.639,10.639,0,0,0-2-.849c-.489-.174-.962-.342-1.352-.516A7.255,7.255,0,0,1,51.01,6.058c-.222-.391-.443-.781-.683-1.145a6.808,6.808,0,0,0-4.47-2.923L46.143.01A8.768,8.768,0,0,1,52,3.811c.266.4.51.829.754,1.259a5.638,5.638,0,0,0,2.168,2.578c.348.155.77.3,1.2.457A11.973,11.973,0,0,1,58.543,9.16Z"/><rect x="51" y="16" width="2" height="2"/><rect x="48" y="20" width="2" height="2"/><rect x="42" y="37" width="2" height="2"/><rect x="40" y="41" width="2" height="2"/><rect x="42" y="44" width="2" height="2"/><rect x="41" y="33" width="2" height="2"/><rect x="45" y="31" width="2" height="2"/><rect x="45" y="27" width="2" height="2"/><rect x="49" y="25" width="2" height="2"/></g></svg>