<svg xmlns="http://www.w3.org/2000/svg" viewBox="0 0 64 64"><g id="_19-sausage_bread" data-name="19-sausage bread"><path d="M24.87,37.306q-1.059-.139-2.02-.285l.3-1.976c.628.1,1.287.187,1.979.278Z"/><path d="M48,42a1,1,0,0,1-.44-.1,38.7,38.7,0,0,0-9.722-2.854c-3.7-.606-6.935-1-9.785-1.344l-1.174-.142.243-1.985,1.171.142c2.87.347,6.123.742,9.869,1.354a42,42,0,0,1,9.709,2.773,8.845,8.845,0,0,0,3.134-5.809L51,31.29A14.257,14.257,0,0,0,49.147,26.8c-1.079-1.764-3.254-3.219-6.467-4.325l.652-1.891c3.663,1.262,6.193,3,7.521,5.173a16.169,16.169,0,0,1,2.127,5.231.932.932,0,0,1,.02.2v2.944a10.8,10.8,0,0,1-4.458,7.708A1,1,0,0,1,48,42Z"/><path d="M20.807,36.67a24.643,24.643,0,0,1-2.41-.587A10.3,10.3,0,0,1,11,26.211a8.2,8.2,0,0,1,8.123-8.17c6.279-.155,15.219.051,22.13,1.913l-.521,1.932c-6.679-1.8-15.411-2-21.559-1.845A6.214,6.214,0,0,0,13,26.211a8.314,8.314,0,0,0,5.979,7.958,22.518,22.518,0,0,0,2.214.538Z"/><path d="M49.876,25.7l-1.592-1.211a8.706,8.706,0,0,0,1.721-4.451L50,17.287a14.626,14.626,0,0,0-1.764-4.5C46.778,10.277,43.268,8.426,37.8,7.279l-.056-.009A67.786,67.786,0,0,0,26.3,6.049c-1.385-.04-2.83-.055-4.291-.046l-.014-2c1.486-.01,2.955.006,4.367.047A69.859,69.859,0,0,1,38.1,5.3l.059.011c6.07,1.266,10.041,3.442,11.8,6.465A16.56,16.56,0,0,1,51.982,17,.969.969,0,0,1,52,17.19v2.94A10.759,10.759,0,0,1,49.876,25.7Z"/><path d="M15.887,20.382A10.513,10.513,0,0,1,12,12.21a8.252,8.252,0,0,1,2.253-5.7A7.872,7.872,0,0,1,19.764,4.04l.222,0,.027,2-.2,0A5.873,5.873,0,0,0,15.7,7.891,6.253,6.253,0,0,0,14,12.21a8.493,8.493,0,0,0,3.133,6.607Z"/><path d="M40.975,58.009c-.511-2.276-1.2-3.928-1.578-4.211a8.168,8.168,0,0,0-1.779-.985c-2.523-1.061-6.33-1.64-11.643-1.773C24.513,51,23.152,51,22,51a17.233,17.233,0,0,1-4.418-.624,8.439,8.439,0,0,1-1.079-.368A8.922,8.922,0,0,1,11,41.7V38.31a8.928,8.928,0,0,1,2.633-6.357l.15-.15L15.2,33.217l-.15.15A6.945,6.945,0,0,0,13,38.31V41.7a6.936,6.936,0,0,0,4.279,6.465,6.513,6.513,0,0,0,.831.282A15.244,15.244,0,0,0,22,49c1.168,0,2.547,0,4.027.04,5.565.14,9.609.771,12.361,1.928A10.078,10.078,0,0,1,40.6,52.2c1.115.843,1.879,3.385,2.324,5.37Z"/><path d="M32,64a6.977,6.977,0,0,1-6.594-4.672A6.761,6.761,0,0,1,25,57V50.04h2V57a4.8,4.8,0,0,0,.29,1.657,4.992,4.992,0,0,0,9.5-.239A4.687,4.687,0,0,0,37,57V51.89h2V57a6.668,6.668,0,0,1-.3,2A7.027,7.027,0,0,1,32,64Z"/><path d="M37.96,7.29h-.01a1,1,0,0,1-.994-.892,4.878,4.878,0,0,0-1.419-2.927,4.992,4.992,0,0,0-8.26,1.9l-1.894-.644A6.992,6.992,0,0,1,36.951,2.056a6.875,6.875,0,0,1,1.993,4.126l-.989.107Z"/><path d="M37.88,59.691l-.26-1.982a23.973,23.973,0,0,0,4.031-.873,14.957,14.957,0,0,0,4.055-1.945A8.208,8.208,0,0,0,49,48.13v-3.7a3.071,3.071,0,0,0-1.575-2.612l1.15-1.636A5.113,5.113,0,0,1,51,44.43v3.7a10.091,10.091,0,0,1-4.153,8.4,16.994,16.994,0,0,1-4.593,2.209A25.859,25.859,0,0,1,37.88,59.691Z"/><path d="M26.35,60H19.93a6.7,6.7,0,0,1-4.919-2.155A6.713,6.713,0,0,1,13,53V50.979A2.983,2.983,0,0,1,15.979,48H17v2H15.979a.98.98,0,0,0-.979.979V53a4.767,4.767,0,0,0,1.466,3.473A4.718,4.718,0,0,0,19.93,58h6.42Z"/><path d="M26,57H22.983a1.956,1.956,0,0,1-1.8-1.164,2.007,2.007,0,0,1,.331-2.176,5.879,5.879,0,0,0,.785-1.132l1.764.944a7.935,7.935,0,0,1-1.049,1.511L26,55Z"/><path d="M49.014,23.164C48.241,18.528,32.745,16,25,16a9.975,9.975,0,0,0-8.144,4.517l-1.713-1.032A12,12,0,0,1,25,14c4.864,0,24.776,1.572,25.986,8.836Z"/><path d="M48.293,40.707l-.406-.414C45.75,38.094,41.772,34,30,34c-13.262,0-18.491-5.077-18.707-5.293L12.7,27.289C12.751,27.337,17.654,32,30,32c12.618,0,17.145,4.659,19.321,6.9l.386.395Z"/><path d="M45.016,56.179C43.3,46.742,27.238,46.93,21.188,46.99c-.453,0-.852.01-1.188.01-5.5,0-8.723-5.262-8.857-5.485l1.713-1.032C12.884,40.529,15.641,45,20,45c.33,0,.721-.005,1.165-.01,6.516-.061,23.8-.267,25.819,10.831Z"/></g></svg>