<svg xmlns="http://www.w3.org/2000/svg" viewBox="0 0 64 64"><g id="_20-หausage_waffle" data-name="20-หausage waffle"><path d="M47,58H43a9.01,9.01,0,0,1-9-9V9a9.01,9.01,0,0,1,9-9h4a9.01,9.01,0,0,1,9,9V49A9.01,9.01,0,0,1,47,58ZM43,2a7.008,7.008,0,0,0-7,7V49a7.008,7.008,0,0,0,7,7h4a7.008,7.008,0,0,0,7-7V9a7.008,7.008,0,0,0-7-7Z"/><rect x="47.001" y="1.103" width="2" height="19.796" transform="translate(6.28 37.164) rotate(-45)"/><rect x="44.03" y="3.93" width="2" height="28.2" transform="translate(0.44 37.121) rotate(-44.999)"/><rect x="44" y="13.858" width="2" height="28.284" transform="translate(-6.619 40.021) rotate(-45)"/><rect x="44" y="23.858" width="2" height="28.284" transform="translate(-13.69 42.95) rotate(-45)"/><rect x="41.5" y="34.893" width="2" height="21.214" transform="translate(-19.725 43.38) rotate(-45.001)"/><path d="M47,64H43a1,1,0,0,1-1-1V59h2v3h2V57h2v6A1,1,0,0,1,47,64Z"/><rect x="31.57" y="9.72" width="23.419" height="2" transform="translate(5.096 33.743) rotate(-45)"/><rect x="30.858" y="18" width="28.284" height="2" transform="translate(-0.255 37.385) rotate(-45)"/><rect x="30.858" y="28" width="28.284" height="2" transform="translate(-7.326 40.314) rotate(-45)"/><rect x="30.858" y="38" width="28.284" height="2" transform="translate(-14.397 43.243) rotate(-45)"/><rect x="35.01" y="46.28" width="23.419" height="2" transform="translate(-19.748 46.884) rotate(-45)"/><path d="M21,58H17a9.01,9.01,0,0,1-9-9V9a9.01,9.01,0,0,1,9-9h4a9.01,9.01,0,0,1,9,9V49A9.01,9.01,0,0,1,21,58ZM17,2a7.008,7.008,0,0,0-7,7V49a7.008,7.008,0,0,0,7,7h4a7.008,7.008,0,0,0,7-7V9a7.008,7.008,0,0,0-7-7Z"/><rect x="21.001" y="1.103" width="2" height="19.796" transform="translate(-1.335 18.779) rotate(-45)"/><rect x="18.03" y="3.93" width="2" height="28.2" transform="translate(-7.175 18.737) rotate(-44.999)"/><rect x="18" y="13.858" width="2" height="28.284" transform="translate(-14.234 21.636) rotate(-45)"/><rect x="18" y="23.858" width="2" height="28.284" transform="translate(-21.305 24.565) rotate(-45)"/><rect x="15.5" y="34.893" width="2" height="21.214" transform="translate(-27.341 24.995) rotate(-45.001)"/><path d="M21,64H17a1,1,0,0,1-1-1V59h2v3h2V57h2v6A1,1,0,0,1,21,64Z"/><rect x="5.57" y="9.72" width="23.419" height="2" transform="translate(-2.519 15.359) rotate(-45)"/><rect x="4.858" y="18" width="28.284" height="2" transform="translate(-7.87 19) rotate(-45)"/><rect x="4.858" y="28" width="28.284" height="2" transform="translate(-14.941 21.929) rotate(-45)"/><rect x="4.858" y="38" width="28.284" height="2" transform="translate(-22.012 24.858) rotate(-45)"/><rect x="9.01" y="46.28" width="23.419" height="2" transform="translate(-27.363 28.499) rotate(-45)"/></g></svg>