<svg xmlns="http://www.w3.org/2000/svg" viewBox="0 0 64 64"><g id="_22-Baguette" data-name="22-Baguette"><path d="M10.893,64.019a10.659,10.659,0,0,1-7.778-3.134C-3.133,54.637,1.1,44.577,5.933,39.746l1.36-1.359L8.707,39.8,7.347,41.16C2.918,45.59-.524,54.417,4.529,59.471s13.882,1.61,18.311-2.818L54.293,25.2l1.414,1.414L24.254,58.067C21.156,61.165,15.906,64.019,10.893,64.019Z"/><path d="M10.707,37.8,9.293,36.387,39.746,5.933C44.576,1.1,54.638-3.132,60.885,3.115S62.9,19.423,58.067,24.254l-.361.36L56.294,23.2l.36-.359c4.428-4.429,7.87-13.256,2.817-18.31S45.59,2.919,41.16,7.347Z"/><path d="M49.613,32.707,48.2,31.293c1.594-1.593,1.257-2.686-.424-7.058-.544-1.412-1.219-3.169-1.93-5.3A33.931,33.931,0,0,1,44.4,2.922l1.961.391A32.556,32.556,0,0,0,47.741,18.3c.7,2.092,1.364,3.825,1.9,5.219C51.336,27.923,52.187,30.135,49.613,32.707Z"/><path d="M50.506,27.517l-1.79-.893a16.186,16.186,0,0,0,.651-11.214A29.189,29.189,0,0,0,44.24,6.244l1.524-1.295a30.756,30.756,0,0,1,5.5,9.828A17.944,17.944,0,0,1,50.506,27.517Z"/><path d="M18.618,62.294,17.2,60.88c1.593-1.594,1.257-2.686-.425-7.058-.543-1.412-1.218-3.169-1.929-5.3a33.928,33.928,0,0,1-1.442-16.011l1.961.391a32.553,32.553,0,0,0,1.377,14.987c.7,2.092,1.364,3.826,1.9,5.218C20.341,57.51,21.19,59.721,18.618,62.294Z"/><path d="M19.51,57.1l-1.79-.893A16.184,16.184,0,0,0,18.372,45a28.6,28.6,0,0,0-5.418-9.5l1.46-1.367a30.132,30.132,0,0,1,5.855,10.229A17.941,17.941,0,0,1,19.51,57.1Z"/><path d="M39.751,42.569l-1.414-1.414c1.594-1.593,1.258-2.686-.425-7.058-.543-1.412-1.219-3.169-1.93-5.3a40.052,40.052,0,0,1-1.446-17.387l1.973.328a38.729,38.729,0,0,0,1.37,16.426c.7,2.091,1.364,3.824,1.9,5.218C41.474,37.784,42.324,40,39.751,42.569Z"/><path d="M40.644,37.378l-1.79-.893a16.181,16.181,0,0,0,.651-11.213,28.567,28.567,0,0,0-5.257-9.316l1.506-1.316a30.676,30.676,0,0,1,5.647,10A17.934,17.934,0,0,1,40.644,37.378Z"/><path d="M29.185,53.136l-1.414-1.414c1.593-1.593,1.256-2.686-.424-7.058-.544-1.412-1.22-3.169-1.931-5.3A40.03,40.03,0,0,1,23.97,21.974l1.972.328a38.748,38.748,0,0,0,1.37,16.426c.7,2.091,1.365,3.825,1.9,5.218C30.907,48.352,31.758,50.563,29.185,53.136Z"/><path d="M30.077,47.945l-1.79-.892a16.179,16.179,0,0,0,.651-11.214,29.052,29.052,0,0,0-5.145-9.187l1.521-1.3a30.648,30.648,0,0,1,5.521,9.852A17.935,17.935,0,0,1,30.077,47.945Z"/></g></svg>