<svg xmlns="http://www.w3.org/2000/svg" viewBox="0 0 64 64"><g id="_24-Pretzel" data-name="24-Pretzel"><path d="M32,52a14.641,14.641,0,0,1-8.587-3.161l1.178-1.617A12.706,12.706,0,0,0,32,50a12.728,12.728,0,0,0,7.448-2.807l1.182,1.614A14.662,14.662,0,0,1,32,52Z"/><path d="M51.916,33.905l-1.832-.8A19.787,19.787,0,0,0,52,26c0-7.981-3.01-14-7-14-4.171,0-5.021,3.21-5.03,3.242A1,1,0,0,1,39,16H38V14h.3A6.983,6.983,0,0,1,45,10c5.3,0,9,6.579,9,16A21.4,21.4,0,0,1,51.916,33.905Z"/><path d="M50.131,37.488l-1.746-.976q.548-.981,1.024-1.952l1.8.88C50.871,36.118,50.514,36.8,50.131,37.488Z"/><path d="M64,28H62V18.064a23.409,23.409,0,0,0-.893-3.76l1.905-.612a24.524,24.524,0,0,1,.981,4.192A.892.892,0,0,1,64,18Z"/><path d="M60.406,12.386c-.273-.663-.574-1.31-.895-1.921l1.771-.93c.35.666.677,1.368.974,2.089Z"/><path d="M58.371,8.556A14.186,14.186,0,0,0,46,2c-5.472,0-9.976,1.352-13.384,4.019L31.384,4.442C35.153,1.5,40.07,0,46,0A16.283,16.283,0,0,1,60.027,7.435Z"/><path d="M54.166,62.478A5.584,5.584,0,0,1,48.8,58.334c-.1-.4-.22-.8-.348-1.224-1.027-3.422-2.943-7.939-6.246-10.046a7.227,7.227,0,0,0-2.135-.92,24.892,24.892,0,0,1-8.5-4.085,34.124,34.124,0,0,1-4.048-3.419,15.015,15.015,0,0,1-2.937-4.061A15.371,15.371,0,0,1,23,27.8V23.771a29.34,29.34,0,0,1,1.521-9.625A7.049,7.049,0,0,0,18.9,11.522c-4.077,0-7.152,6.142-7.152,14.287,0,2.539,1.41,6.639,3.681,10.7l-1.746.976c-2.464-4.408-3.935-8.773-3.935-11.677,0-9.589,3.764-16.287,9.152-16.287a9.158,9.158,0,0,1,7.553,3.867,5.62,5.62,0,0,1,.453.718L37.077,30.374a.9.9,0,0,1,.053.1,11.169,11.169,0,0,0,1.941,2.505,21.576,21.576,0,0,0,8.686,5.134,9.926,9.926,0,0,1,.971.389c3.471,1.537,6.371,4.983,8.6,10.237a43.452,43.452,0,0,1,2.234,6.93,5.652,5.652,0,0,1,.149,1.277A5.547,5.547,0,0,1,54.166,62.478ZM25.949,16.343A27.647,27.647,0,0,0,25,23.728V27.8a13.357,13.357,0,0,0,1.374,5.9,13.043,13.043,0,0,0,2.545,3.521,32.1,32.1,0,0,0,3.815,3.222A22.9,22.9,0,0,0,40.548,44.2a9.2,9.2,0,0,1,2.726,1.174c3.825,2.439,5.966,7.413,7.09,11.157.137.45.263.883.367,1.293a3.547,3.547,0,0,0,6.98-.884,3.692,3.692,0,0,0-.1-.829,41.363,41.363,0,0,0-2.127-6.6c-1.391-3.28-3.838-7.537-7.586-9.2A7.973,7.973,0,0,0,47.115,40a23.537,23.537,0,0,1-9.469-5.626A13.2,13.2,0,0,1,35.358,31.4Z"/><path d="M10.4,62a5.459,5.459,0,0,1-5.316-6.708c1.026-4.363,4.21-14.777,11.6-17.24a21.539,21.539,0,0,0,8.253-4.771l1.39,1.438a23.457,23.457,0,0,1-9.011,5.229c-6.434,2.146-9.336,11.765-10.285,15.8A3.46,3.46,0,0,0,10.4,60a3.472,3.472,0,0,0,3.348-2.592c1.153-4.35,3.987-11.873,10.01-13.378a22.706,22.706,0,0,0,7.869-3.837l1.184,1.614a24.716,24.716,0,0,1-8.569,4.163c-5.024,1.257-7.52,8.026-8.56,11.95A5.477,5.477,0,0,1,10.4,62Z"/><path d="M38.948,34.316l-1.9-.632L38.214,30.2A15.344,15.344,0,0,0,39,25.35V24c.005-.141.339-9.949-5.813-16.363C29.6,3.9,24.489,2,18,2,12.188,2,7.74,4.67,4.777,9.936A24.907,24.907,0,0,0,2,18.064V28H0V18a.918.918,0,0,1,.007-.117C.028,17.7,2.292,0,18,0c7.062,0,12.662,2.107,16.642,6.265C41.385,13.308,41.018,23.608,41,24.043V25.35a17.308,17.308,0,0,1-.889,5.48Z"/><path d="M32,64V62a24.529,24.529,0,0,0,14.419-4.893l1.162,1.627A26.836,26.836,0,0,1,32,64Z"/><path d="M56.618,49.454l-1.637-1.148C59.376,42.043,62,34.452,62,28h2C64,34.949,61.31,42.77,56.618,49.454Z"/><path d="M32,64a26.841,26.841,0,0,1-15.58-5.265l1.162-1.627A24.532,24.532,0,0,0,32,62Z"/><path d="M4.358,44.46A36.906,36.906,0,0,1,0,28H2A34.872,34.872,0,0,0,6.136,43.542Z"/><path d="M7.382,49.454c-.667-.949-1.3-1.939-1.893-2.944L7.214,45.5c.562.958,1.169,1.9,1.8,2.808Z"/></g></svg>