<svg xmlns="http://www.w3.org/2000/svg" viewBox="0 0 64 64"><g id="_25-Cruller" data-name="25-Cruller"><path d="M34,47H32c-5.577,0-9.732-1.887-12.018-5.455l1.685-1.078C23.593,43.475,27.069,45,32,45h1.834a20.6,20.6,0,0,0,2.059-.843C32.827,42.683,27,39.312,27,35c0-4,2.3-7.341,3.533-8.851l-.482-.361a3.969,3.969,0,0,0-4.686-.084C22.917,27.436,20,30.279,20,34a13.294,13.294,0,0,0,.767,4.654l-1.874.7A15.276,15.276,0,0,1,18,34c0-4.576,3.377-7.925,6.209-9.929a5.964,5.964,0,0,1,7.042.117L32.6,25.2a1,1,0,0,1,.108,1.506C32.671,26.743,29,30.488,29,35c0,3.546,6.765,7.029,9.372,8.071a1,1,0,0,1,.335,1.636c-1.134,1.134-4.061,2.132-4.391,2.241A1,1,0,0,1,34,47Z"/><path d="M42.394,45.861a11.926,11.926,0,0,1-4.793-.944l.8-1.834c4.33,1.885,9.638-.082,12.652-1.573-5-1.494-11.014-6.072-12-9.077-.642-1.956-1.277-4.685-1.7-6.63a1,1,0,0,0-.976-.8h-1.96l-1.706,1.732-1.424-1.4,2-2.03A1,1,0,0,1,34,23h2.378a3.021,3.021,0,0,1,2.931,2.381c.335,1.555.994,4.456,1.641,6.428C41.817,34.447,49.444,40,54,40a1,1,0,0,1,.558,1.83C54.252,42.035,48.468,45.861,42.394,45.861Z"/><path d="M14.24,24.87l-.982-1.742c.535-.3,1.054-.574,1.537-.814A12.88,12.88,0,0,1,20.5,21h1.59a3.757,3.757,0,0,1,1.238.206,3.915,3.915,0,0,1,.963.447l2.265,1.516-1.112,1.662-2.24-1.5a1.991,1.991,0,0,0-.488-.222A1.9,1.9,0,0,0,22.09,23H20.5a10.874,10.874,0,0,0-4.815,1.105C15.231,24.331,14.744,24.586,14.24,24.87Z"/><path d="M23.86,45H16c-3.4,0-6.318-2.377-8.164-4.37A6.982,6.982,0,0,1,6,35.89V32c0-2.75,1.871-5.386,5.56-7.834l1.106,1.666C10.537,27.244,8,29.461,8,32v3.89a4.983,4.983,0,0,0,1.306,3.383C10.878,40.972,13.319,43,16,43h7.86Z"/><path d="M7,38c-5.537,0-7-4.579-7-7V26c0-2.626,1.611-4.919,4.66-6.632a8.47,8.47,0,0,1,.957-.472A10.825,10.825,0,0,1,9.97,18h3.98a11.046,11.046,0,0,1,4.33.889l5.114,2.192A1,1,0,0,1,24,22v.15H22.936l-.33.769-5.11-2.19A9.058,9.058,0,0,0,13.95,20H9.97a8.846,8.846,0,0,0-3.564.734,6.884,6.884,0,0,0-.76.374C3.979,22.045,2,23.65,2,26v5c0,.509.176,5,5,5Z"/><path d="M63.6,33.318l-1.9-.636a1.459,1.459,0,0,1,.039-.144A6.284,6.284,0,0,0,62,31V26c0-2.35-1.979-3.955-3.64-4.888a6.65,6.65,0,0,0-.743-.368A8.876,8.876,0,0,0,54.03,20H50.05a9.075,9.075,0,0,0-3.55.73l-3.9,2.082-.286.286L40.9,21.682l.39-.39a1.046,1.046,0,0,1,.237-.175l4.11-2.19A11.1,11.1,0,0,1,50.05,18h3.98a10.855,10.855,0,0,1,4.376.906,8.249,8.249,0,0,1,.94.466C62.389,21.081,64,23.374,64,26v5a8.011,8.011,0,0,1-.328,2.061C63.653,33.146,63.626,33.233,63.6,33.318Z"/><path d="M52.447,26.163l-1.472-.981A12.994,12.994,0,0,0,43.76,23a5.153,5.153,0,0,0-1.8.326,5.078,5.078,0,0,0-2.743,2.479c-.01.018-.06.106-.07.125l-1.732-1A7.074,7.074,0,0,1,43.76,21a14.982,14.982,0,0,1,8.323,2.517l1.473.982Z"/><rect x="54.999" y="26.128" width="2" height="2.403" transform="translate(2.197 58.764) rotate(-56.31)"/><path d="M54,42V40a9.7,9.7,0,0,0,7.021-3.114A3.547,3.547,0,0,0,62,34.43a3.393,3.393,0,0,0-.231-1.244,3.482,3.482,0,0,0-1.341-1.7l-2.479-1.653,1.11-1.664,2.476,1.651a5.456,5.456,0,0,1,2.1,2.651A5.378,5.378,0,0,1,64,34.43a5.541,5.541,0,0,1-1.536,3.84A11.652,11.652,0,0,1,54,42Z"/><path d="M27,24.26H25v-1.6a3.024,3.024,0,0,0-.877-2.123l-5.58-5.58a6.487,6.487,0,0,0-1.94-1.344,6.764,6.764,0,0,0-5.776.091A6.887,6.887,0,0,0,7,19.83V20H5v-.11a8.811,8.811,0,0,1,12.431-8.1,8.453,8.453,0,0,1,2.527,1.75l5.579,5.58A5.035,5.035,0,0,1,27,22.66Z"/><path d="M39,24.86H37v-2.2a5.035,5.035,0,0,1,1.463-3.537l5.58-5.58a8.45,8.45,0,0,1,2.54-1.756A8.811,8.811,0,0,1,59,19.811V20H57v-.11a6.908,6.908,0,0,0-3.826-6.185,6.773,6.773,0,0,0-5.762-.1,6.477,6.477,0,0,0-1.954,1.35l-5.581,5.58A3.024,3.024,0,0,0,39,22.66Z"/><path d="M33.075,22h-2.15a3.024,3.024,0,0,1-2.874-2.047L26.482,15.32a.978.978,0,0,1-.046-.208l-.4-3.533A5.884,5.884,0,0,1,27.5,7.005a6.05,6.05,0,0,1,9,0,5.884,5.884,0,0,1,1.463,4.574l-.4,3.533a.978.978,0,0,1-.046.208l-1.569,4.633A3.024,3.024,0,0,1,33.075,22Zm-4.664-7.219,1.534,4.531h0a1.026,1.026,0,0,0,.98.688h2.15a1.026,1.026,0,0,0,.98-.688l1.534-4.531.386-3.427a3.832,3.832,0,0,0-.967-3.016,4.05,4.05,0,0,0-6.016,0,3.832,3.832,0,0,0-.967,3.016Z"/><path d="M45.99,12.72a3.577,3.577,0,0,0-.792-2.177,4.009,4.009,0,0,0-2.117-1.387,4.183,4.183,0,0,0-4.373,1.39l-.924,1.165-1.568-1.242.92-1.16A6.2,6.2,0,0,1,43.6,7.226a6.008,6.008,0,0,1,3.165,2.079,5.55,5.55,0,0,1,1.221,3.376Z"/><path d="M18.01,12.72l-2-.039A5.554,5.554,0,0,1,17.238,9.3,6,6,0,0,1,20.4,7.225a6.2,6.2,0,0,1,6.467,2.088l.916,1.156-1.568,1.242-.92-1.16a4.179,4.179,0,0,0-4.372-1.4,4,4,0,0,0-2.115,1.38A3.581,3.581,0,0,0,18.01,12.72Z"/><path d="M37.009,23.053C36.875,22.753,35.486,22,33,22V20c2.89,0,6,.938,6,3H37A.134.134,0,0,0,37.009,23.053Z"/><path d="M26.991,23.053,25,23c0-2.062,3.11-3,6-3v2C28.514,22,27.125,22.753,26.991,23.053Z"/><path d="M31,53C4.471,53,2.1,41.661,2.016,41.179A.977.977,0,0,1,2,41V36H4v4.884C4.238,41.742,7.374,51,31,51c23.792,0,26.769-9.217,27-10.11V39h2v2a.977.977,0,0,1-.016.179C59.9,41.661,57.529,53,31,53Z"/><path d="M6.553,49.9,3.312,48.274A6.028,6.028,0,0,1,0,42.91V42a3,3,0,0,1,3-3v2a1,1,0,0,0-1,1v.91a4.014,4.014,0,0,0,2.205,3.574l3.242,1.621Z"/><path d="M23,58a1.009,1.009,0,0,1-.164-.014l-9.57-1.59A8.711,8.711,0,0,1,6,47.81v-1.5H8v1.5a6.712,6.712,0,0,0,5.6,6.615L23.083,56H24v1a1,1,0,0,1-1,1Z"/><path d="M35,59H27.66a11.025,11.025,0,0,1-5.467-1.452l-2.169-1.239A6.012,6.012,0,0,1,17,51.1v-.27h2v.27a4.006,4.006,0,0,0,2.016,3.472l2.17,1.24A9.022,9.022,0,0,0,27.66,57H34.7l2.748-1.832,1.11,1.664-3,2A1.006,1.006,0,0,1,35,59Z"/><path d="M45,58H42.34a11.182,11.182,0,0,1-2.888-.384l-6.825-1.861a4.937,4.937,0,0,1-3.466-3.517l1.938-.5a2.928,2.928,0,0,0,2.058,2.084l6.816,1.86A9.2,9.2,0,0,0,42.34,56H45a3,3,0,0,0,3-3h2A5.006,5.006,0,0,1,45,58Z"/><path d="M51.675,54.658a5.291,5.291,0,0,1-1.7-.281l-1.565-.522a4.97,4.97,0,0,1-3.18-3.24l1.912-.59a2.971,2.971,0,0,0,1.908,1.936l1.56.519A3.334,3.334,0,0,0,55,49.32V45.48h2v3.84a5.328,5.328,0,0,1-5.325,5.338Z"/><path d="M56.394,50.919l-.788-1.838,4.576-1.961A3,3,0,0,0,62,44.362V44a3,3,0,0,0-3-3V39a5.006,5.006,0,0,1,5,5v.362a5,5,0,0,1-3.03,4.6Z"/></g></svg>