<svg xmlns="http://www.w3.org/2000/svg" viewBox="0 0 64 64"><g id="_26-bun" data-name="26-bun"><path d="M4.136,25.3,2.225,24.7q.317-1.019.69-2.048l1.878.688Q4.435,24.322,4.136,25.3Z"/><path d="M32,61A38.642,38.642,0,0,1,9.493,53.747C3.638,49.507,0,44.048,0,39.5A53.167,53.167,0,0,1,1.646,26.749l1.937.5A51,51,0,0,0,2,39.5C2,47.171,14.882,59,32,59S62,47.171,62,39.5C62,33.739,60.6,5,33,5H31C18.8,5,10.243,10.516,5.566,21.4l-1.837-.79C8.68,9.088,18.11,3,31,3h2C45.309,3,54.189,8.287,59.4,18.715,63.668,27.273,64,36.788,64,39.5c0,4.548-3.638,10.007-9.493,14.247A38.642,38.642,0,0,1,32,61Z"/><path d="M23.555,14.9c-.146-.072-.743-.244-1.137-.358a8.8,8.8,0,0,1-1.951-.692l1.057-1.7a13.139,13.139,0,0,0,1.448.469,10.345,10.345,0,0,1,1.473.487Z"/><path d="M22.445,10.9,21.555,9.1a10.345,10.345,0,0,1,1.473-.487,13.139,13.139,0,0,0,1.448-.469l1.057,1.7a8.8,8.8,0,0,1-1.951.692C23.187,10.652,22.591,10.824,22.445,10.9Z"/><path d="M32.813,17.582l-1.626-1.164a8.994,8.994,0,0,1,1.137-1.154,10.58,10.58,0,0,0,.863-.846l1.626,1.164a8.994,8.994,0,0,1-1.137,1.154A10.58,10.58,0,0,0,32.813,17.582Z"/><path d="M37.813,10.582,36.187,9.418a8.994,8.994,0,0,1,1.137-1.154,10.58,10.58,0,0,0,.863-.846l1.626,1.164a8.994,8.994,0,0,1-1.137,1.154A10.58,10.58,0,0,0,37.813,10.582Z"/><path d="M35.273,13.687l-.18-.192a20.509,20.509,0,0,0-1.666-1.676l1.146-1.638a18.061,18.061,0,0,1,1.98,1.947l.174.185Z"/><path d="M38.853,16.522l-1.706-1.044a8.9,8.9,0,0,1,2.273-2.292l1.16,1.628A7.029,7.029,0,0,0,38.853,16.522Z"/><path d="M41.767,12.973C40.651,12.705,39,11.575,39,10h2c0,.347.735.908,1.233,1.027Z"/><path d="M31,13H29a4.952,4.952,0,0,0-.707-.793A3.339,3.339,0,0,1,27,10h2a.2.2,0,0,0,0-.042,3.83,3.83,0,0,0,.711.835A3.339,3.339,0,0,1,31,13Z"/><path d="M33.715,9.959a4.509,4.509,0,0,1-1.9-1.647,6.155,6.155,0,0,0-.5-.582l1.368-1.46a7.96,7.96,0,0,1,.689.788,5.211,5.211,0,0,0,.931.99Z"/><path d="M27.708,16.956a4.4,4.4,0,0,1-2.966-2.63l1.89-.652a2.493,2.493,0,0,0,1.66,1.37Z"/><path d="M57.89,38.124l-1.557-1.256C58.376,34.337,60.669,33,62.968,33h.038l-.012,2h-.026C60.855,35,59.042,36.7,57.89,38.124Z"/><path d="M31.985,52A19.361,19.361,0,0,1,23.7,49.784c-.73-.35-1.45-.723-2.168-1.1l.931-1.77c.7.366,1.4.728,2.1,1.068,3.817,1.836,6.971,2.413,9.641,1.759a17.752,17.752,0,0,0,5.1-2.509,27.428,27.428,0,0,1,3.942-2.182A28.173,28.173,0,0,1,46.9,43.89a15.709,15.709,0,0,0,5.033-1.964,14.979,14.979,0,0,0,3.245-3.546L56.8,39.551a16.74,16.74,0,0,1-3.721,4.013,17.408,17.408,0,0,1-5.662,2.258,26.314,26.314,0,0,0-3.393,1.071,25.6,25.6,0,0,0-3.653,2.032,19.565,19.565,0,0,1-5.691,2.759A11.327,11.327,0,0,1,31.985,52Z"/><path d="M20.023,47.887c-.642-.338-1.286-.67-1.939-.985l.869-1.8c.672.324,1.337.666,2,1.013Z"/><path d="M16.608,46.233a19.985,19.985,0,0,0-2.38-.841c-.328-.092-.658-.174-.989-.256a12.524,12.524,0,0,1-3.194-1.115A12.037,12.037,0,0,1,6.82,41.039c-.167-.2-.333-.394-.5-.589A29.522,29.522,0,0,0,.462,34.843l1.076-1.686a31.01,31.01,0,0,1,6.293,5.985c.174.2.346.4.518.608a10.413,10.413,0,0,0,2.675,2.527,10.9,10.9,0,0,0,2.7.918c.349.087.7.174,1.044.271a21.933,21.933,0,0,1,2.616.924Z"/></g></svg>