<svg xmlns="http://www.w3.org/2000/svg" viewBox="0 0 64 64"><g id="_27-bun" data-name="27-bun"><path d="M54.377,17.194c-.609-.489-1.26-.966-1.936-1.419l1.112-1.662c.724.485,1.423,1,2.077,1.523Z"/><path d="M32,56C15.765,56,2.772,51.737,1.107,45.863a1.025,1.025,0,0,1-.036-.2l-.7-9.591,2-.146.692,9.481C4.38,49.559,15.745,54,32,54c13.684,0,28.931-3.883,28.931-9.454l.8-10.209A16.383,16.383,0,0,0,62,31.478l-.012-.338c0-.025,0-.048,0-.073s-.005-.053-.006-.082a17.835,17.835,0,0,0-5.876-12.269l1.39-1.438a19.835,19.835,0,0,1,6.479,13.465.966.966,0,0,1,.022.289l-.008.1,0,.081c0,.086.008.173.008.261a17.65,17.65,0,0,1-.288,3.115l-.784,10.031C62.931,51.716,47.205,56,32,56Z"/><path d="M.215,34.154A17.323,17.323,0,0,1,0,31.478c0-.084,0-.167.007-.25L.012,31.1,0,31.026a.985.985,0,0,1,.024-.3C.565,17.967,14.561,8,32,8a39.991,39.991,0,0,1,20,5.142l-1.013,1.724A37.981,37.981,0,0,0,32,10C15.833,10,2.383,19.414,2.018,30.985a.874.874,0,0,1-.009.1L2,31.478a15.478,15.478,0,0,0,.19,2.368Z"/><path d="M23.555,20.9c-.146-.072-.743-.244-1.137-.358a8.8,8.8,0,0,1-1.951-.692l1.057-1.7a13.139,13.139,0,0,0,1.448.469,10.345,10.345,0,0,1,1.473.487Z"/><path d="M23.445,17.9l-.89-1.792a10.345,10.345,0,0,1,1.473-.487,13.139,13.139,0,0,0,1.448-.469l1.057,1.7a8.8,8.8,0,0,1-1.951.692C24.187,17.652,23.591,17.824,23.445,17.9Z"/><path d="M32.813,23.582l-1.626-1.164a8.994,8.994,0,0,1,1.137-1.154,10.58,10.58,0,0,0,.863-.846l1.626,1.164a8.994,8.994,0,0,1-1.137,1.154A10.58,10.58,0,0,0,32.813,23.582Z"/><path d="M36.273,19.687l-.18-.192a20.509,20.509,0,0,0-1.666-1.676l1.146-1.638a18.061,18.061,0,0,1,1.98,1.947l.174.185Z"/><path d="M39.853,22.522l-1.706-1.044a8.9,8.9,0,0,1,2.273-2.292l1.16,1.628A7.029,7.029,0,0,0,39.853,22.522Z"/><path d="M41.767,18.973C40.651,18.7,39,17.575,39,16h2c0,.347.735.908,1.233,1.027Z"/><path d="M31,19H29a4.952,4.952,0,0,0-.707-.793A3.339,3.339,0,0,1,27,16h2a.2.2,0,0,0,0-.042,3.83,3.83,0,0,0,.711.835A3.339,3.339,0,0,1,31,19Z"/><path d="M33.715,17.959a4.509,4.509,0,0,1-1.9-1.647,6.155,6.155,0,0,0-.5-.582l1.368-1.46a7.96,7.96,0,0,1,.689.788,5.211,5.211,0,0,0,.931.99Z"/><path d="M27.708,22.956a4.4,4.4,0,0,1-2.966-2.63l1.89-.652a2.493,2.493,0,0,0,1.66,1.37Z"/><path d="M32,26c-7.851,0-14-3.075-14-7s6.149-7,14-7,14,3.075,14,7S39.851,26,32,26Zm0-12c-7.072,0-12,2.635-12,5s4.928,5,12,5,12-2.635,12-5S39.072,14,32,14Z"/><path d="M53.168,46.951l-.335-1.971a6.94,6.94,0,0,0,1.961-.617,13.471,13.471,0,0,0,2.256-1.557c1.434-1.136,2.917-2.31,4.928-2.354l.044,2c-1.34.029-2.5.948-3.731,1.922a15.2,15.2,0,0,1-2.6,1.78A8.911,8.911,0,0,1,53.168,46.951Z"/><path d="M50.479,47.145c-.5,0-1.005-.014-1.511-.031l.063-2c.654.02,1.3.038,1.947.023l.044,2C50.842,47.143,50.66,47.145,50.479,47.145Z"/><path d="M33.353,50a16.929,16.929,0,0,1-3.024-.272,32.534,32.534,0,0,1-3.522-.914,26.353,26.353,0,0,0-3.826-.945,26.7,26.7,0,0,0-5.023-.069,24.4,24.4,0,0,1-6.286-.246,12.718,12.718,0,0,1-2.049-.624l.744-1.858a10.4,10.4,0,0,0,1.721.525,22.571,22.571,0,0,0,5.774.206,28.4,28.4,0,0,1,5.4.086A28.211,28.211,0,0,1,27.381,46.9a30.68,30.68,0,0,0,3.306.863,15.058,15.058,0,0,0,6.728-.32c.857-.243,1.689-.56,2.569-.9a21.91,21.91,0,0,1,4.186-1.28,16.86,16.86,0,0,1,2.833-.2l-.006,2a14.953,14.953,0,0,0-2.5.169,20.1,20.1,0,0,0-3.8,1.177c-.882.336-1.794.684-2.737.95A16.975,16.975,0,0,1,33.353,50Z"/><path d="M7.509,45.843a12.327,12.327,0,0,1-2.388-1.994c-.243-.263-.474-.537-.7-.81a10.6,10.6,0,0,0-1.244-1.32,2.5,2.5,0,0,0-1.973-.69L.8,39.07a4.4,4.4,0,0,1,3.658,1.116,12.166,12.166,0,0,1,1.488,1.565c.211.25.422.5.643.74a10.184,10.184,0,0,0,2,1.666Z"/></g></svg>