<svg xmlns="http://www.w3.org/2000/svg" viewBox="0 0 64 64"><g id="_28-bread_whipcream" data-name="28-bread whipcream"><path d="M41.062,64H22.937A22.964,22.964,0,0,1,0,41.062a9.89,9.89,0,0,1,5.62-8.987A1,1,0,0,1,7,33c0,5.421,11.448,10,25,10s25-4.579,25-10a1,1,0,0,1,1.38-.925A9.886,9.886,0,0,1,64,41.062,22.964,22.964,0,0,1,41.062,64ZM5.221,34.575A8.27,8.27,0,0,0,2,41.062,20.962,20.962,0,0,0,22.937,62H41.062A20.962,20.962,0,0,0,62,41.062a8.267,8.267,0,0,0-3.221-6.487C57.1,40.534,45.937,45,32,45S6.907,40.534,5.221,34.575Z"/><rect x="56" y="32" width="2" height="2"/><path d="M34.636,18.013A8.649,8.649,0,0,1,28.547,3.276C30.505,1.319,34.52.543,36.739.255c.574-.075,5.644-.7,6.675.331s.406,6.1.331,6.675c-.288,2.219-1.064,6.234-3.021,8.192h0A8.583,8.583,0,0,1,34.636,18.013Zm5.9-16.027c-2.924,0-8.583.716-10.572,2.7a6.543,6.543,0,0,0,0,9.349,6.543,6.543,0,0,0,9.349,0C41.7,11.644,42.252,3.927,41.929,2.071A8.979,8.979,0,0,0,40.533,1.986Zm1.329-.179Z"/><path d="M31.5,16.566,30,15.254l1.927-2.228a.878.878,0,0,1,.091-.092l5.95-6.869-9.219,7.941-1.31-1.512,9.19-7.97a2.021,2.021,0,0,1,2.857,2.843l-6.036,6.967a.953.953,0,0,1-.089.091Z"/><path d="M19.581,28c-1.326,0-2.554-.048-3.645-.118l.128-2c6.862.443,19.422-.031,26.376-8.164a10.276,10.276,0,0,0,1.539-2.393,1.048,1.048,0,0,1,.055-.1A9.959,9.959,0,0,0,44.7,8.588a7.069,7.069,0,0,0-.333-1.02,1.035,1.035,0,0,1-.036-.1A5.476,5.476,0,0,0,43.477,6H43V4h.92a1,1,0,0,1,.713.3,7.291,7.291,0,0,1,1.59,2.51c.007.019.014.04.02.059a9.382,9.382,0,0,1,.4,1.224,11.968,11.968,0,0,1-.835,8.066.726.726,0,0,1-.044.083,12.292,12.292,0,0,1-1.8,2.777C37.576,26.488,27.045,28,19.581,28Z"/><path d="M13.9,27.713c-.766-.079-1.456-.166-2.052-.254a9.1,9.1,0,0,1-5.583-2.785A9.148,9.148,0,0,1,4,19a1,1,0,0,1,.3-.718A1.009,1.009,0,0,1,5.031,18c3,.1,5.933.058,8.719-.108a69.392,69.392,0,0,0,9.058-1.11l.382,1.963a71.314,71.314,0,0,1-9.321,1.143c-2.486.148-5.085.2-7.739.141a6.971,6.971,0,0,0,1.61,3.3,7.158,7.158,0,0,0,4.4,2.153c.571.084,1.231.167,1.967.243Z"/><path d="M25.228,18.309l-.456-1.948q1.016-.237,1.96-.5l.536,1.928Q26.284,18.061,25.228,18.309Z"/><path d="M33.077,33.889l-.918-1.778c9.184-4.739,11.311-13.85,11.743-16.53A1,1,0,0,1,44.217,15l.684.742.976.157C45.406,18.813,43.092,28.721,33.077,33.889Z"/><path d="M29.313,35.461l-.626-1.9c.657-.216,1.3-.459,1.922-.722l.782,1.842C30.722,34.964,30.022,35.227,29.313,35.461Z"/><path d="M18.712,37.025q-.361,0-.729,0h-.006c-.312,0-.64-.01-.977-.02H11.46C7,37,4,33.785,4,29c0-1,.145-6,3-6v2c-.435,0-1,1.94-1,4,0,2.9,1.435,6,5.46,6H17c.377.011.688.02,1,.02a34.09,34.09,0,0,0,9.08-.987l.5,1.936A35.364,35.364,0,0,1,18.712,37.025Z"/><path d="M13.609,19.916a2.184,2.184,0,0,1-.253-.133c-3.935-2.09-5.076-6.054-5.342-9.013A2.931,2.931,0,0,1,9.035,8.262a3.011,3.011,0,0,1,2.671-.644L25.233,10.87l-.466,1.945L11.235,9.562a.986.986,0,0,0-.895.215.953.953,0,0,0-.334.814c.222,2.467,1.143,5.756,4.272,7.415l.1.056Z"/><polygon points="32.69 14.68 32.68 14.68 32.68 12.68 32.69 14.68"/><path d="M6,19H4c0-1.729,1.254-5,6-5v2C6.046,16,6,18.878,6,19Z"/><path d="M50.916,15.072l-1.994-.144c.052-.715.078-1.437.078-2.148a3.854,3.854,0,0,0-.271-1.415A3.943,3.943,0,0,0,47.1,9.428l-2.32-1.391a1,1,0,0,1-.486-.857l1,0,.511-.853,2.32,1.391a5.952,5.952,0,0,1,2.468,2.923A5.865,5.865,0,0,1,51,12.78C51,13.539,50.972,14.311,50.916,15.072Z"/><path d="M32,41H26c-2.224,0-8.956-1.762-9-4.967L19,36v.02c.014.991,4.271,2.98,7,2.98h6c8.232,0,13.137-10.341,15.327-16.5a28.84,28.84,0,0,0,1.387-5.635l1.98.28a30.922,30.922,0,0,1-1.482,6.026C46.845,29.826,41.461,41,32,41Z"/><path d="M32,41H31V39H42c-.017,0,4.078-.257,6.446-1.833a3.968,3.968,0,0,0,.847-.806,13.07,13.07,0,0,0,1.741-2.913A22.414,22.414,0,0,0,53,24.14V15.122l-.211-.851A3,3,0,0,0,49.88,12h-.22V10h.22a5,5,0,0,1,4.849,3.785l.242.975A1.017,1.017,0,0,1,55,15v9.14a24.422,24.422,0,0,1-2.151,10.148,14.989,14.989,0,0,1-2.015,3.348,5.973,5.973,0,0,1-1.274,1.193c-2.83,1.882-7.313,2.158-7.5,2.169Z"/><path d="M42.669,40.743l-1.338-1.486c9.6-8.639,11.657-24.225,11.677-24.381l1.984.248C54.909,15.792,52.829,31.6,42.669,40.743Z"/><path d="M50.353,37.954l-.515-1.941.341.957-.174-.985A7.3,7.3,0,0,0,56,28.751V26.143a8.947,8.947,0,0,0-2.636-6.365l-.071-.071,1.414-1.414.071.071A10.93,10.93,0,0,1,58,26.143v2.608A9.293,9.293,0,0,1,50.353,37.954Z"/><path d="M14.261,9.431l-1.842-.782C13.417,6.3,15.044,5,17,5h5V7H17C15.513,7,14.646,8.522,14.261,9.431Z"/><path d="M21.056,11.022l-1.871-.7,1.179-3.129A8.025,8.025,0,0,1,27.85,2h2.76V4H27.85a6.018,6.018,0,0,0-5.614,3.89Z"/><rect x="57" y="42" width="2" height="2"/><rect x="46" y="50" width="2" height="2"/><rect x="29" y="57" width="2" height="2"/><rect x="22" y="55" width="2" height="2"/><rect x="42" y="57" width="2" height="2"/><rect x="42" y="51" width="2" height="2"/><rect x="45" y="46" width="2" height="2"/><rect x="6" y="44" width="2" height="2"/><rect x="14" y="51" width="2" height="2"/><rect x="17" y="46" width="2" height="2"/><rect x="28" y="49" width="2" height="2"/><rect x="53" y="48" width="2" height="2"/></g></svg>