<svg xmlns="http://www.w3.org/2000/svg" viewBox="0 0 64 64"><g id="_09-Durum_Sourdough" data-name="09-Durum Sourdough"><path d="M63,40v1h-.03c-.54,6.59-11.94,11.97-26.65,12.86-.7.04-1.41.08-2.13.1h-.02c-.71.03-1.44.04-2.17.04-1,0-1.99-.02-2.97-.07C13.31,53.29,1,47.53,1,40.5c0-.17.02-.33.03-.5H1A29.791,29.791,0,0,1,3.14,28.88a.991.991,0,0,1,1.49-.43c.25.18.52.35.8.53a55.452,55.452,0,0,0,8.19,3.94.994.994,0,0,0,1.27-1.36L9.44,22.39l-.79-1.33a1.008,1.008,0,0,1,.11-1.18,28.656,28.656,0,0,1,3.44-3.26,1.011,1.011,0,0,1,1.59.45c.09.26.19.52.29.77a17.636,17.636,0,0,0,4.14,6.08l6.02,5.79a1.031,1.031,0,0,0,1.75-.82l-1.03-7.97a17.139,17.139,0,0,0-2.83-7.43,15.514,15.514,0,0,0-1.09-1.47l-.21-.25A30.593,30.593,0,0,1,28,10v3l2.72,13.58a1.764,1.764,0,0,0,3.48-.12L36,13V10a30.593,30.593,0,0,1,7.17,1.77l-.21.25a15.514,15.514,0,0,0-1.09,1.47,17.139,17.139,0,0,0-2.83,7.43l-1.03,7.97a1.031,1.031,0,0,0,1.75.82l6.02-5.79a17.636,17.636,0,0,0,4.14-6.08c.1-.25.2-.51.29-.77a1.011,1.011,0,0,1,1.59-.45,28.656,28.656,0,0,1,3.44,3.26,1.008,1.008,0,0,1,.11,1.18l-.79,1.33-5.45,9.17a.994.994,0,0,0,1.27,1.36,55.452,55.452,0,0,0,8.19-3.94c.28-.18.55-.35.8-.53a.991.991,0,0,1,1.49.43A29.791,29.791,0,0,1,63,40Z" style="fill:#e5942b"/><path d="M54.56,22.39a28.331,28.331,0,0,1,4.01,6.59,55.452,55.452,0,0,1-8.19,3.94.994.994,0,0,1-1.27-1.36Z" style="fill:#fbda8d"/><path d="M49.92,17.84a17.636,17.636,0,0,1-4.14,6.08l-6.02,5.79a1.031,1.031,0,0,1-1.75-.82l1.03-7.97a17.139,17.139,0,0,1,2.83-7.43A27.515,27.515,0,0,1,49.92,17.84Z" style="fill:#fbda8d"/><path d="M36,12.17V13L34.2,26.46a1.764,1.764,0,0,1-3.48.12L28,13v-.83A28.1,28.1,0,0,1,31.06,12h1.88A28.1,28.1,0,0,1,36,12.17Z" style="fill:#fbda8d"/><path d="M25.99,28.89a1.031,1.031,0,0,1-1.75.82l-6.02-5.79a17.636,17.636,0,0,1-4.14-6.08,27.515,27.515,0,0,1,8.05-4.35,17.139,17.139,0,0,1,2.83,7.43Z" style="fill:#fbda8d"/><path d="M14.89,31.56a.994.994,0,0,1-1.27,1.36,55.452,55.452,0,0,1-8.19-3.94,28.331,28.331,0,0,1,4.01-6.59Z" style="fill:#fbda8d"/><path d="M56.817,28.489a2.607,2.607,0,0,1-1.524.6c-.771.04-1.6-.252-2.282.12a2.59,2.59,0,0,0-.6.507l-.71.739a.811.811,0,0,1-.3.229.5.5,0,0,1-.559-.245A.835.835,0,0,1,50.8,29.8c.229-.8,1.133-1.174,1.673-1.808.485-.571.674-1.359,1.2-1.89a7.111,7.111,0,0,0,.9-.824,3.543,3.543,0,0,0,.4-1.362,2.212,2.212,0,0,1,.243-.663c-.217-.287-.425-.579-.652-.858l-5.45,9.17a.994.994,0,0,0,1.27,1.36,55.452,55.452,0,0,0,8.19-3.94c-.233-.534-.486-1.057-.749-1.572A11.828,11.828,0,0,1,56.817,28.489Z" style="fill:#f4cf77"/><path d="M47.765,16.336a10.211,10.211,0,0,1-.818,2.622,6.039,6.039,0,0,1-1.8,2.745c-.549.39-1.223.591-1.73,1.034a7.162,7.162,0,0,0-1.326,2.2,2.3,2.3,0,0,1-1.965,1.451.637.637,0,0,1-.39-.141.7.7,0,0,1-.173-.521,5.954,5.954,0,0,1,.408-1.753,2.592,2.592,0,0,0,.052-1.769,3.66,3.66,0,0,1-.25-.559A1.428,1.428,0,0,1,40,20.64c.725-1.277,2.029-2.278,2.273-3.726.068-.4.046-.819.112-1.223a2.917,2.917,0,0,1,.895-1.653c-.468-.189-.933-.386-1.414-.548a17.139,17.139,0,0,0-2.83,7.43l-1.03,7.97a1.031,1.031,0,0,0,1.75.82l6.02-5.79a17.636,17.636,0,0,0,4.14-6.08C49.228,17.3,48.5,16.807,47.765,16.336Z" style="fill:#f4cf77"/><path d="M34,17.226c-.138.389-.316.763-.437,1.158-.654,2.144.428,4.642-.612,6.627-.122.231-.314.474-.575.472-.329,0-.514-.374-.606-.69a10.144,10.144,0,0,1-.4-2.835,3.841,3.841,0,0,0-.445-2.458,6.69,6.69,0,0,1-.551-.631,2.209,2.209,0,0,1-.066-1.573,5.358,5.358,0,0,0-.2-3.8c-.2-.332-.463-.62-.662-.951a1.966,1.966,0,0,1-.209-.482c-.417.027-.834.058-1.244.1V13l2.72,13.58a1.764,1.764,0,0,0,3.48-.12L36,13v-.83c-.585-.064-1.181-.106-1.78-.134A11.222,11.222,0,0,1,34,17.226Z" style="fill:#f4cf77"/><path d="M22.13,13.49c-.694.235-1.374.5-2.043.791a5.747,5.747,0,0,0,.52.673c.486.537,1.07.981,1.53,1.54a4.668,4.668,0,0,1,1.016,2.348c.112.863-.02,1.743.079,2.608a13.9,13.9,0,0,0,.954,3.07,5.263,5.263,0,0,1,.347,3.152.483.483,0,0,1-.146.267.452.452,0,0,1-.436,0,2.1,2.1,0,0,1-1.029-1.08c-.22-.459-.343-.957-.524-1.432a6.335,6.335,0,0,0-2.009-2.723c-1.231-.962-2.881-1.535-3.586-2.929-.269-.532-.369-1.138-.647-1.665a5.287,5.287,0,0,0-.876-1.132c-.4.281-.812.556-1.2.857a17.636,17.636,0,0,0,4.14,6.08l6.02,5.79a1.031,1.031,0,0,0,1.75-.82l-1.03-7.97A17.139,17.139,0,0,0,22.13,13.49Z" style="fill:#f4cf77"/><path d="M9.44,22.39q-.6.732-1.141,1.5c.939,1.082,1.2,2.776,2.184,3.887a14.721,14.721,0,0,0,1.23,1.095,6.488,6.488,0,0,1,1.066,1.237,1.139,1.139,0,0,1,.227.546.782.782,0,0,1-.446.7,1.448,1.448,0,0,1-.856.108C10.36,31.286,9.4,30.136,8.3,29.343a7.154,7.154,0,0,0-1.9-.975,4.121,4.121,0,0,1-.564-.226c-.133.28-.275.553-.4.838a55.452,55.452,0,0,0,8.19,3.94.994.994,0,0,0,1.27-1.36Z" style="fill:#f4cf77"/><path d="M14.511,18.758c-.145-.3-.3-.605-.431-.918-.1-.25-.2-.51-.29-.77a1.011,1.011,0,0,0-1.59-.45,28.656,28.656,0,0,0-3.44,3.26,1.008,1.008,0,0,0-.11,1.18l.79,1.33.544.915A27.648,27.648,0,0,1,14.511,18.758Z" style="fill:#f09b2d"/><path d="M54.183,23.024l.377-.634.79-1.33a1.008,1.008,0,0,0-.11-1.18,28.656,28.656,0,0,0-3.44-3.26,1.011,1.011,0,0,0-1.59.45c-.09.26-.19.52-.29.77s-.225.474-.334.712A26.87,26.87,0,0,1,54.183,23.024Z" style="fill:#f09b2d"/><path d="M6.2,29.442c-.264-.154-.526-.307-.77-.462-.28-.18-.55-.35-.8-.53a.991.991,0,0,0-1.49.43A29.791,29.791,0,0,0,1,40h.03c-.01.17-.03.33-.03.5a7.483,7.483,0,0,0,2.285,5.093A11.479,11.479,0,0,1,3,43,32.812,32.812,0,0,1,6.2,29.442Z" style="fill:#f09b2d"/><path d="M28,13V10a30.593,30.593,0,0,0-7.17,1.77l.21.25a15.514,15.514,0,0,1,1.09,1.47c.2.3.394.6.576.908a28.564,28.564,0,0,1,5.341-1.161Z" style="fill:#f09b2d"/><path d="M60.86,28.88a.991.991,0,0,0-1.49-.43c-.25.18-.52.35-.8.53-.16.1-.335.2-.5.3A30.993,30.993,0,0,1,61,42a10.724,10.724,0,0,1-.722,4.029A8.031,8.031,0,0,0,62.97,41H63V40A29.791,29.791,0,0,0,60.86,28.88Z" style="fill:#f09b2d"/><path d="M41.87,13.49a15.514,15.514,0,0,1,1.09-1.47l.21-.25A30.593,30.593,0,0,0,36,10v3l-.03.227a29.817,29.817,0,0,1,5.358,1.11Q41.586,13.907,41.87,13.49Z" style="fill:#f09b2d"/><path d="M56.364,43.9c-2.116.971-4.542.89-6.833,1.3-5.425.975-10.5,4.77-15.915,3.766-2.752-.51-5.133-2.217-7.814-3.019-5.389-1.609-11.487.557-16.688-1.581-2.041-.839-3.768-2.281-5.675-3.392A12.374,12.374,0,0,0,1,39.875c0,.042,0,.083,0,.125h.03c-.01.17-.03.33-.03.5,0,7.03,12.31,12.79,28.03,13.43.98.05,1.97.07,2.97.07.73,0,1.46-.01,2.17-.04h.02c.72-.02,1.43-.06,2.13-.1C51.03,52.97,62.43,47.59,62.97,41H63V40c0-.28-.013-.556-.02-.834C60.686,40.339,58.8,42.78,56.364,43.9Z" style="fill:#ffd085"/><path d="M46.27,41.2a26.57,26.57,0,0,0-4.413,1.4A18.7,18.7,0,0,1,32.8,43.724c-1.849-.291-3.613-.966-5.426-1.431a44.989,44.989,0,0,0-12.343-.911,15.516,15.516,0,0,1-4.827-.368,27.246,27.246,0,0,1-3.674-1.672,17,17,0,0,0-5.447-1.49c-.048.669-.081,1.343-.084,2.023a12.374,12.374,0,0,1,2.436,1.1c1.907,1.111,3.634,2.553,5.675,3.392,5.2,2.138,11.3-.028,16.688,1.581,2.681.8,5.062,2.509,7.814,3.019,5.419,1,10.49-2.791,15.915-3.766,2.291-.412,4.717-.331,6.833-1.3,2.44-1.12,4.322-3.561,6.616-4.734-.016-.561-.052-1.117-.1-1.67-1.723.7-3.208,2.347-4.967,3.178C54.368,42.352,50.141,40.552,46.27,41.2Z" style="fill:#f7a943"/><path d="M54.764,25.481A4.893,4.893,0,0,1,53.7,26.867c-.1.087-.2.19-.2.319a.352.352,0,0,0,.2.255,1.954,1.954,0,0,0,.914.188,1.207,1.207,0,0,0,.365-.025.91.91,0,0,0,.28-.149,2.059,2.059,0,0,0,.718-.944,1.135,1.135,0,0,0-.264-1.343A.685.685,0,0,0,54.764,25.481Z" style="fill:#ffeba6"/><path d="M56.05,27.341c-.064.035-.144.067-.159.138s.043.131.1.171a.834.834,0,0,0,.784.089c.358-.149.762-.8.3-1.066-.174-.1-.465-.144-.593,0C56.3,26.886,56.335,27.187,56.05,27.341Z" style="fill:#ffeba6"/><path d="M56.238,25.864a.35.35,0,0,0-.136.18.161.161,0,0,0-.021.116c.015.044.062.065.1.082l.188.076c.1.039.212.074.291.01C57,26.059,56.516,25.717,56.238,25.864Z" style="fill:#ffeba6"/><path d="M54.672,28.281a.115.115,0,0,0,.022.085.351.351,0,0,0,.217.113,1.314,1.314,0,0,0,1.107-.169c.2-.156.049-.436-.14-.538a.6.6,0,0,0-.566.062C55.2,27.9,54.7,28.091,54.672,28.281Z" style="fill:#ffeba6"/><path d="M53.886,27.942a.485.485,0,0,0-.357-.066.753.753,0,0,0-.479.217.207.207,0,0,0-.058.2.232.232,0,0,0,.093.1,1.458,1.458,0,0,0,.5.211.509.509,0,0,0,.467-.087c.083-.085.162-.237.1-.339-.011-.02-.1-.036-.124-.057C53.972,28.07,53.947,27.99,53.886,27.942Z" style="fill:#ffeba6"/><path d="M51.21,30.183a.234.234,0,0,1-.121-.2.442.442,0,0,1,.073-.235c.192-.318.869-.6,1.039-.094C52.34,30.06,51.482,30.315,51.21,30.183Z" style="fill:#ffeba6"/><path d="M52.113,28.807a.151.151,0,0,0-.048.126.139.139,0,0,0,.051.062.486.486,0,0,0,.4.094.361.361,0,0,0,.273-.284.266.266,0,0,0-.241-.312C52.372,28.494,52.21,28.689,52.113,28.807Z" style="fill:#ffeba6"/><path d="M9.609,26.481a4.893,4.893,0,0,0,1.069,1.386c.1.087.2.19.2.319a.352.352,0,0,1-.2.255,1.95,1.95,0,0,1-.913.188A1.211,1.211,0,0,1,9.4,28.6a.91.91,0,0,1-.28-.149,2.059,2.059,0,0,1-.718-.944,1.135,1.135,0,0,1,.264-1.343A.685.685,0,0,1,9.609,26.481Z" style="fill:#ffeba6"/><path d="M7.323,28.341c.064.035.144.067.159.138s-.043.131-.1.171a.832.832,0,0,1-.783.089c-.359-.149-.763-.8-.306-1.066.174-.1.465-.144.593,0C7.07,27.886,7.038,28.187,7.323,28.341Z" style="fill:#ffeba6"/><path d="M8.135,25.864a.35.35,0,0,1,.136.18.161.161,0,0,1,.021.116c-.015.044-.062.065-.1.082L8,26.318c-.095.039-.212.074-.291.01C7.373,26.059,7.857,25.717,8.135,25.864Z" style="fill:#ffeba6"/><path d="M9.7,29.281a.115.115,0,0,1-.022.085.351.351,0,0,1-.217.113,1.314,1.314,0,0,1-1.107-.169c-.2-.156-.049-.436.14-.538a.6.6,0,0,1,.566.062C9.174,28.9,9.671,29.091,9.7,29.281Z" style="fill:#ffeba6"/><path d="M8.488,24.942a.481.481,0,0,1,.356-.066.753.753,0,0,1,.479.217.207.207,0,0,1,.058.2.232.232,0,0,1-.093.1,1.458,1.458,0,0,1-.5.211.509.509,0,0,1-.467-.087c-.083-.085-.162-.237-.1-.339.011-.02.1-.036.124-.057C8.4,25.07,8.426,24.99,8.488,24.942Z" style="fill:#ffeba6"/><path d="M11.163,30.183a.234.234,0,0,0,.121-.2.434.434,0,0,0-.073-.235c-.192-.318-.869-.6-1.039-.094C10.033,30.06,10.891,30.315,11.163,30.183Z" style="fill:#ffeba6"/><path d="M12.26,29.807a.151.151,0,0,1,.048.126.139.139,0,0,1-.051.062.486.486,0,0,1-.395.094.361.361,0,0,1-.273-.284.267.267,0,0,1,.241-.312C12,29.494,12.163,29.689,12.26,29.807Z" style="fill:#ffeba6"/><path d="M19.609,18.481a4.893,4.893,0,0,0,1.069,1.386c.1.087.2.19.2.319a.352.352,0,0,1-.2.255,1.95,1.95,0,0,1-.913.188A1.211,1.211,0,0,1,19.4,20.6a.91.91,0,0,1-.28-.149,2.059,2.059,0,0,1-.718-.944,1.135,1.135,0,0,1,.264-1.343A.685.685,0,0,1,19.609,18.481Z" style="fill:#ffeba6"/><path d="M23.066,23.257a3.138,3.138,0,0,0,.683.886c.061.056.131.121.126.2a.226.226,0,0,1-.127.163,1.245,1.245,0,0,1-.584.12.766.766,0,0,1-.234-.016.593.593,0,0,1-.179-.1,1.333,1.333,0,0,1-.459-.6.725.725,0,0,1,.169-.858A.438.438,0,0,1,23.066,23.257Z" style="fill:#ffeba6"/><path d="M21.323,17.341c.064.035.144.067.159.138s-.043.131-.1.171a.832.832,0,0,1-.783.089c-.359-.149-.763-.8-.306-1.066.174-.1.465-.144.593,0C21.07,16.886,21.038,17.187,21.323,17.341Z" style="fill:#ffeba6"/><path d="M18.135,17.864a.35.35,0,0,1,.136.18.161.161,0,0,1,.021.116c-.015.044-.062.065-.1.082L18,18.318c-.095.039-.212.074-.291.01C17.373,18.059,17.857,17.717,18.135,17.864Z" style="fill:#ffeba6"/><path d="M19.7,21.281a.115.115,0,0,1-.022.085.351.351,0,0,1-.217.113,1.314,1.314,0,0,1-1.107-.169c-.2-.156-.049-.436.14-.538a.6.6,0,0,1,.566.062C19.174,20.9,19.671,21.091,19.7,21.281Z" style="fill:#ffeba6"/><path d="M18.488,16.942a.481.481,0,0,1,.356-.066.753.753,0,0,1,.479.217.207.207,0,0,1,.058.2.232.232,0,0,1-.093.1,1.458,1.458,0,0,1-.5.211.509.509,0,0,1-.467-.087c-.083-.085-.162-.237-.1-.339.011-.02.1-.036.124-.057C18.4,17.07,18.426,16.99,18.488,16.942Z" style="fill:#ffeba6"/><path d="M21.163,22.183a.234.234,0,0,0,.121-.2.434.434,0,0,0-.073-.235c-.192-.318-.869-.6-1.039-.094C20.033,22.06,20.891,22.315,21.163,22.183Z" style="fill:#ffeba6"/><path d="M22.163,19.183a.234.234,0,0,0,.121-.2.434.434,0,0,0-.073-.235c-.192-.318-.869-.6-1.039-.094C21.033,19.06,21.891,19.315,22.163,19.183Z" style="fill:#ffeba6"/><path d="M20.163,16.183a.234.234,0,0,0,.121-.2.434.434,0,0,0-.073-.235c-.192-.318-.869-.6-1.039-.094C19.033,16.06,19.891,16.315,20.163,16.183Z" style="fill:#ffeba6"/><path d="M22.26,21.807a.151.151,0,0,1,.048.126.139.139,0,0,1-.051.062.486.486,0,0,1-.4.094.361.361,0,0,1-.273-.284.267.267,0,0,1,.241-.312C22,21.494,22.163,21.689,22.26,21.807Z" style="fill:#ffeba6"/><path d="M22.26,19.807a.151.151,0,0,1,.048.126.139.139,0,0,1-.051.062.486.486,0,0,1-.4.094.361.361,0,0,1-.273-.284.267.267,0,0,1,.241-.312C22,19.494,22.163,19.689,22.26,19.807Z" style="fill:#ffeba6"/><path d="M17.26,17.807a.151.151,0,0,1,.048.126.139.139,0,0,1-.051.062.486.486,0,0,1-.4.094.361.361,0,0,1-.273-.284.267.267,0,0,1,.241-.312C17,17.494,17.163,17.689,17.26,17.807Z" style="fill:#ffeba6"/><path d="M43.853,18.481a4.915,4.915,0,0,1-1.07,1.386c-.1.087-.2.19-.2.319a.349.349,0,0,0,.2.255,1.957,1.957,0,0,0,.914.188,1.213,1.213,0,0,0,.366-.025.922.922,0,0,0,.28-.149,2.064,2.064,0,0,0,.717-.944,1.135,1.135,0,0,0-.264-1.343A.684.684,0,0,0,43.853,18.481Z" style="fill:#ffeba6"/><path d="M40.4,23.257a3.123,3.123,0,0,1-.684.886c-.061.056-.13.121-.125.2a.223.223,0,0,0,.126.163,1.248,1.248,0,0,0,.584.12.762.762,0,0,0,.234-.016.593.593,0,0,0,.179-.1,1.326,1.326,0,0,0,.459-.6A.725.725,0,0,0,41,23.057.437.437,0,0,0,40.4,23.257Z" style="fill:#ffeba6"/><path d="M42.138,17.341c-.063.035-.143.067-.158.138s.042.131.1.171a.834.834,0,0,0,.784.089c.358-.149.762-.8.3-1.066-.173-.1-.465-.144-.593,0C42.391,16.886,42.423,17.187,42.138,17.341Z" style="fill:#ffeba6"/><path d="M45.327,17.864a.351.351,0,0,0-.137.18.161.161,0,0,0-.021.116c.015.044.062.065.1.082l.188.076c.095.039.212.074.292.01C46.088,18.059,45.605,17.717,45.327,17.864Z" style="fill:#ffeba6"/><path d="M43.76,21.281a.115.115,0,0,0,.022.085.353.353,0,0,0,.217.113,1.313,1.313,0,0,0,1.107-.169c.2-.156.049-.436-.14-.538a.6.6,0,0,0-.566.062C44.287,20.9,43.79,21.091,43.76,21.281Z" style="fill:#ffeba6"/><path d="M44.974,16.942a.484.484,0,0,0-.357-.066.748.748,0,0,0-.478.217.2.2,0,0,0-.058.2.226.226,0,0,0,.093.1,1.445,1.445,0,0,0,.5.211.508.508,0,0,0,.467-.087c.084-.085.163-.237.1-.339-.012-.02-.1-.036-.125-.057C45.06,17.07,45.036,16.99,44.974,16.942Z" style="fill:#ffeba6"/><path d="M42.3,22.183a.231.231,0,0,1-.12-.2.433.433,0,0,1,.072-.235c.192-.318.87-.6,1.04-.094C43.428,22.06,42.57,22.315,42.3,22.183Z" style="fill:#ffeba6"/><path d="M41.3,19.183a.231.231,0,0,1-.12-.2.433.433,0,0,1,.072-.235c.192-.318.87-.6,1.04-.094C42.428,19.06,41.57,19.315,41.3,19.183Z" style="fill:#ffeba6"/><path d="M43.3,16.183a.231.231,0,0,1-.12-.2.433.433,0,0,1,.072-.235c.192-.318.87-.6,1.04-.094C44.428,16.06,43.57,16.315,43.3,16.183Z" style="fill:#ffeba6"/><path d="M41.2,21.807c-.03.036-.062.081-.048.126a.127.127,0,0,0,.051.062.483.483,0,0,0,.394.094.36.36,0,0,0,.273-.284.266.266,0,0,0-.241-.312C41.46,21.494,41.3,21.689,41.2,21.807Z" style="fill:#ffeba6"/><path d="M41.2,19.807c-.03.036-.062.081-.048.126a.127.127,0,0,0,.051.062.483.483,0,0,0,.394.094.36.36,0,0,0,.273-.284.266.266,0,0,0-.241-.312C41.46,19.494,41.3,19.689,41.2,19.807Z" style="fill:#ffeba6"/><path d="M46.2,17.807c-.03.036-.062.081-.048.126a.127.127,0,0,0,.051.062.483.483,0,0,0,.394.094.36.36,0,0,0,.273-.284.266.266,0,0,0-.241-.312C46.46,17.494,46.3,17.689,46.2,17.807Z" style="fill:#ffeba6"/><path d="M31.336,13.138a3.868,3.868,0,0,0,.182,1.368.347.347,0,0,1,.009.295.276.276,0,0,1-.236.1,1.523,1.523,0,0,1-.7-.232.9.9,0,0,1-.239-.161.7.7,0,0,1-.133-.212,1.624,1.624,0,0,1-.117-.928c.058-.345.3-.8.71-.812A.541.541,0,0,1,31.336,13.138Z" style="fill:#ffeba6"/><path d="M32.4,21.257a3.123,3.123,0,0,1-.684.886c-.061.056-.13.121-.125.2a.223.223,0,0,0,.126.163,1.248,1.248,0,0,0,.584.12.762.762,0,0,0,.234-.016.593.593,0,0,0,.179-.1,1.326,1.326,0,0,0,.459-.6A.725.725,0,0,0,33,21.057.437.437,0,0,0,32.4,21.257Z" style="fill:#ffeba6"/><path d="M33.138,15.341c-.063.035-.143.067-.158.138s.042.131.1.171a.834.834,0,0,0,.784.089c.358-.149.762-.8.3-1.066-.173-.1-.465-.144-.593,0C33.391,14.886,33.423,15.187,33.138,15.341Z" style="fill:#ffeba6"/><path d="M31.327,15.864a.351.351,0,0,0-.137.18.161.161,0,0,0-.021.116c.015.044.062.065.1.082l.188.076c.1.039.212.074.292.01C32.088,16.059,31.605,15.717,31.327,15.864Z" style="fill:#ffeba6"/><path d="M32.014,19.63a.113.113,0,0,0,.058-.066.347.347,0,0,0-.03-.243,1.312,1.312,0,0,0-.765-.818c-.239-.074-.387.207-.364.42a.6.6,0,0,0,.371.432C31.4,19.412,31.841,19.713,32.014,19.63Z" style="fill:#ffeba6"/><path d="M32.974,13.942a.484.484,0,0,0-.357-.066.748.748,0,0,0-.478.217.2.2,0,0,0-.058.2.226.226,0,0,0,.093.1,1.445,1.445,0,0,0,.5.211.508.508,0,0,0,.467-.087c.084-.085.163-.237.1-.339-.012-.02-.1-.036-.125-.057C33.06,14.07,33.036,13.99,32.974,13.942Z" style="fill:#ffeba6"/><path d="M32.3,20.183a.231.231,0,0,1-.12-.2.433.433,0,0,1,.072-.235c.192-.318.87-.6,1.04-.094C33.428,20.06,32.57,20.315,32.3,20.183Z" style="fill:#ffeba6"/><path d="M32.3,17.183a.231.231,0,0,1-.12-.2.433.433,0,0,1,.072-.235c.192-.318.87-.6,1.04-.094C33.428,17.06,32.57,17.315,32.3,17.183Z" style="fill:#ffeba6"/><path d="M32.3,13.183a.231.231,0,0,1-.12-.2.433.433,0,0,1,.072-.235c.192-.318.87-.6,1.04-.094C33.428,13.06,32.57,13.315,32.3,13.183Z" style="fill:#ffeba6"/><path d="M32.2,18.807c-.03.036-.062.081-.048.126a.127.127,0,0,0,.051.062.483.483,0,0,0,.394.094.36.36,0,0,0,.273-.284.266.266,0,0,0-.241-.312C32.46,18.494,32.3,18.689,32.2,18.807Z" style="fill:#ffeba6"/><path d="M32.2,17.807c-.03.036-.062.081-.048.126a.127.127,0,0,0,.051.062.483.483,0,0,0,.394.094.36.36,0,0,0,.273-.284.266.266,0,0,0-.241-.312C32.46,17.494,32.3,17.689,32.2,17.807Z" style="fill:#ffeba6"/><path d="M30.2,17.807c-.03.036-.062.081-.048.126a.127.127,0,0,0,.051.062.483.483,0,0,0,.394.094.36.36,0,0,0,.273-.284.266.266,0,0,0-.241-.312C30.46,17.494,30.3,17.689,30.2,17.807Z" style="fill:#ffeba6"/><path d="M50.553,22.47a1.026,1.026,0,0,0,.925.757,1.9,1.9,0,0,0,1.087-.417q.506-.339.982-.716a2.027,2.027,0,0,0,.777-.963,1.871,1.871,0,0,0-.072-1.014,2.4,2.4,0,0,0-1.413-1.686c-.444-.174-1.151-.243-1.475.2-.372.5.062,1.308-.172,1.915S50.377,21.762,50.553,22.47Z" style="fill:#ffa733"/><path d="M12.487,37.055a1.6,1.6,0,0,0-.717,1.809,2.051,2.051,0,0,0,1.58.917,30.92,30.92,0,0,0,4.557.583A3.141,3.141,0,0,0,19,40.286a1.7,1.7,0,0,0,1.135-1.854c-.244-1.4-1.918-1.738-3.068-1.885C15.563,36.354,13.8,36.106,12.487,37.055Z" style="fill:#f7a943"/><path d="M22.124,37.773a1.066,1.066,0,0,0-.317,2.039,3.516,3.516,0,0,0,1.464.4l.418.052a2.331,2.331,0,0,0,1.387-.112A1.185,1.185,0,0,0,25.682,39C25.531,37.726,23.069,37.564,22.124,37.773Z" style="fill:#f7a943"/><path d="M3.642,30.911a1.947,1.947,0,0,0-.517.7,2.78,2.78,0,0,0-.12,2.081,2.4,2.4,0,0,0,1.461,1.461.667.667,0,0,0,.639-.044.556.556,0,0,0,.136-.192c.255-.566-.1-1.294.22-1.824a2.011,2.011,0,0,1,.545-.5C7.77,31.247,4.781,29.985,3.642,30.911Z" style="fill:#ffa733"/><path d="M11.652,51.753q.992.366,2.053.7l.592-1.91q-1.008-.313-1.954-.662Z"/><path d="M36.263,52.861c-.69.04-1.39.079-2.136.1-.7.03-1.411.039-2.127.039-1.057,0-2.012-.022-2.93-.069A60.316,60.316,0,0,1,16.251,51.1l-.508,1.935a62.359,62.359,0,0,0,13.236,1.9c.941.048,1.93.071,3.021.071.744,0,1.489-.01,2.218-.041s1.449-.06,2.159-.1h0c8.49-.514,15.994-2.473,21.13-5.517L56.49,47.62C51.693,50.463,44.319,52.374,36.263,52.861Z"/><path d="M61.784,28.5a1.96,1.96,0,0,0-1.276-1.155,1.98,1.98,0,0,0-1.524.178,29.367,29.367,0,0,0-3.222-5.206l.446-.75a1.994,1.994,0,0,0-.226-2.359,30.071,30.071,0,0,0-3.553-3.366,2.007,2.007,0,0,0-2.943.459,28.4,28.4,0,0,0-6.046-3.278c.095-.121.183-.239.286-.363l.21-.25a1,1,0,0,0-.426-1.583A31.12,31.12,0,0,0,36.1,9.005a1.019,1.019,0,0,0-.773.252A1,1,0,0,0,35,10v1.084c-.692-.05-1.382-.084-2.06-.084H31.06c-.678,0-1.368.034-2.06.084V10a1,1,0,0,0-.331-.743,1.01,1.01,0,0,0-.773-.252A31.12,31.12,0,0,0,20.49,10.83a1,1,0,0,0-.426,1.583l.207.246c.1.125.193.245.288.367A28.417,28.417,0,0,0,14.514,16.3a2.007,2.007,0,0,0-2.943-.459A30.058,30.058,0,0,0,8.019,19.21a1.993,1.993,0,0,0-.227,2.359l.447.751a29.278,29.278,0,0,0-3.223,5.206,1.981,1.981,0,0,0-1.524-.178A1.96,1.96,0,0,0,2.216,28.5,30.67,30.67,0,0,0,0,40a.918.918,0,0,0,.015.167c-.009.11-.015.22-.015.333,0,4.012,3.407,7.714,9.594,10.427l.8-1.832C5.061,46.756,2,43.623,2,40.5c0-.084.007-.165.014-.246l.014-.2A.907.907,0,0,0,2,39.778,28.768,28.768,0,0,1,4.057,29.267c.262.186.544.373.838.558a56.293,56.293,0,0,0,8.344,4.02,1.993,1.993,0,0,0,2.511-2.8l-6.243-10.5a26.4,26.4,0,0,1,3.338-3.138c.1.271.2.541.308.807a18.535,18.535,0,0,0,4.374,6.426l6.027,5.8a2.042,2.042,0,0,0,2.354.333,1.956,1.956,0,0,0,1.074-2.009L25.951,20.79a18.227,18.227,0,0,0-2.981-7.843c-.149-.23-.307-.459-.477-.692A28.724,28.724,0,0,1,27,11.139V13a.925.925,0,0,0,.02.2l2.715,13.578A2.77,2.77,0,0,0,35.2,26.6l1.8-13.465A.976.976,0,0,0,37,13V11.139a28.724,28.724,0,0,1,4.507,1.116q-.25.343-.463.672a18.26,18.26,0,0,0-3,7.865l-1.03,7.971a1.955,1.955,0,0,0,1.074,2.008,2.045,2.045,0,0,0,2.361-.34l6.02-5.79a18.53,18.53,0,0,0,4.373-6.424c.109-.268.212-.538.33-.813a27.133,27.133,0,0,1,3.31,3.147L48.215,31.113a1.994,1.994,0,0,0,2.537,2.735,56.285,56.285,0,0,0,8.35-4.021,8.082,8.082,0,0,0,.827-.578A28.684,28.684,0,0,1,62,40v.757a.965.965,0,0,0-.026.161c-.153,1.861-1.392,3.737-3.584,5.424l1.22,1.585c2.557-1.968,4.049-4.24,4.331-6.587A1.008,1.008,0,0,0,64,41V40A30.67,30.67,0,0,0,61.784,28.5ZM6.723,28.59a27.31,27.31,0,0,1,2.618-4.416l4.651,7.818A60.411,60.411,0,0,1,6.723,28.59Zm17.245-7.542.966,7.941L18.913,23.2a16.575,16.575,0,0,1-3.575-5.029,26.445,26.445,0,0,1,6.367-3.445A16.231,16.231,0,0,1,23.968,21.048Zm9.245,5.284a.769.769,0,0,1-1.517.049L29.037,13.087C29.717,13.036,30.4,13,31.06,13h1.88c.671,0,1.354.036,2.039.089ZM45.086,23.2,39,29.019l1.03-7.969A16.265,16.265,0,0,1,42.3,14.725a26.473,26.473,0,0,1,6.366,3.445A16.561,16.561,0,0,1,45.086,23.2Zm4.884,8.872,4.69-7.9a27.339,27.339,0,0,1,2.617,4.415A71.45,71.45,0,0,1,49.97,32.071Z"/><path d="M18.419,32.539c.394.114.99.285,1.136.357l.89-1.792a10.473,10.473,0,0,0-1.471-.487,13.35,13.35,0,0,1-1.449-.468l-1.059,1.7A8.836,8.836,0,0,0,18.419,32.539Z"/><path d="M16.026,25.617a10.473,10.473,0,0,0-1.471.487l.89,1.792c.146-.072.742-.243,1.136-.357a8.836,8.836,0,0,0,1.953-.693l-1.059-1.7A13.35,13.35,0,0,1,16.026,25.617Z"/><path d="M29.676,31.737a9.125,9.125,0,0,0,1.137-1.154l-1.626-1.166a10.259,10.259,0,0,1-.863.846,9.125,9.125,0,0,0-1.137,1.154l1.626,1.166A10.259,10.259,0,0,1,29.676,31.737Z"/><path d="M34.324,30.263a9.125,9.125,0,0,0-1.137,1.154l1.626,1.166a10.259,10.259,0,0,1,.863-.846,9.125,9.125,0,0,0,1.137-1.154l-1.626-1.166A10.259,10.259,0,0,1,34.324,30.263Z"/><path d="M24.83,33.015a14.041,14.041,0,0,0-3.276,1.09l.892,1.79a12.134,12.134,0,0,1,2.724-.91Z"/><path d="M45.427,34.819a20.509,20.509,0,0,1,1.666,1.676l.18.192,1.454-1.374-.174-.186a18.117,18.117,0,0,0-1.98-1.946Z"/><path d="M55.58,34.814l-1.16-1.628a8.913,8.913,0,0,0-2.273,2.292l1.706,1.044A7.047,7.047,0,0,1,55.58,34.814Z"/><path d="M46,29H44c0,1.577,1.651,2.706,2.768,2.973l.464-1.946C46.734,29.909,46,29.347,46,29Z"/><path d="M4.293,39.207A5,5,0,0,1,5,40H7a3.341,3.341,0,0,0-1.293-2.207A3.853,3.853,0,0,1,5,36.958.19.19,0,0,1,5,37H3A3.341,3.341,0,0,0,4.293,39.207Z"/><path d="M8.684,33.27,7.316,34.73a6.155,6.155,0,0,1,.5.582,4.5,4.5,0,0,0,1.9,1.646l.589-1.91a5.211,5.211,0,0,1-.931-.99A7.96,7.96,0,0,0,8.684,33.27Z"/><path d="M61,34H59a4.155,4.155,0,0,1-1.568,2.177l1.136,1.646C59.416,37.237,61,35.515,61,34Z"/><path d="M38.708,37.957l.584-1.914a2.489,2.489,0,0,1-1.66-1.369l-1.89.652A4.4,4.4,0,0,0,38.708,37.957Z"/></g></svg>