<svg xmlns="http://www.w3.org/2000/svg" viewBox="0 0 64 64"><g id="_12-Brioche" data-name="12-Brioche"><path d="M50,4c5.53,0,9,3.03,9,8-1.22,3.61-3.84,6.58-7.72,7.36l-9.23,1.87L42,21l1.74-6.76C44.61,10.08,46.86,7,50,4Z" style="fill:#ffc74d"/><path d="M35.38,48.99l-.39,1.83a3.632,3.632,0,0,1-1.07,1.9l-.64.61c-.72.26-5.17,1.64-10.8-1.27a7.233,7.233,0,0,0-.84-3.87l-.52-.96A31.5,31.5,0,0,0,31.3,49.31,15.832,15.832,0,0,0,35.38,48.99Z" style="fill:#bf5d1b"/><path d="M5.19,55.19a12.428,12.428,0,0,0,7.14,3.02l2.23.18c.23.02.45.03.68.03a7.593,7.593,0,0,0,5.25-2.06,5.774,5.774,0,0,0,.42-.44,6.361,6.361,0,0,0,1.57-3.86c5.63,2.91,10.08,1.53,10.8,1.27l-7.36,7.05C24.31,61.91,23.21,62.84,21,63H19.06a13.291,13.291,0,0,1-6.08-1.39,20.7,20.7,0,0,1-4.82-3.54L5.17,55.21Z" style="fill:#e58d1f"/><path d="M16.31,46.77a6.129,6.129,0,0,1-.91,7.93,6.76,6.76,0,0,1-4.53,1.87A8.025,8.025,0,0,1,4,54l-.02.01a12.352,12.352,0,0,1-1.52-2.03,10.425,10.425,0,0,1-1.34-3.29A6.476,6.476,0,0,1,1,47.3V44A15.063,15.063,0,0,1,5.99,33.38,6.5,6.5,0,0,1,9.37,31.7l2.61-.39A27.631,27.631,0,0,0,16.31,46.77Z" style="fill:#ffa536"/><path d="M31.7,34H32L21.66,36.69a5.891,5.891,0,0,0-2.63,1.34L19,38a19.7,19.7,0,0,1-5.03-7,11.342,11.342,0,0,1-.78-4.84,9.746,9.746,0,0,1,.91-3.54,10.009,10.009,0,0,1,2.17-3.01l.11-.11A10.61,10.61,0,0,1,27,17h.16L29,26.98l-.33.31a3.769,3.769,0,0,0-1.03,3.7A4.188,4.188,0,0,0,31.7,34Z" style="fill:#ffa536"/><path d="M50,4c-3.14,3-5.39,6.08-6.26,10.24L42,21l.05.23-6.11,1.24a9.932,9.932,0,0,0-4.87,2.52L29,26.98,27.16,17l-.1-.55a10.555,10.555,0,0,1-.23-2.23,11.132,11.132,0,0,1,3.48-8.04,12.181,12.181,0,0,1,5.66-3.02l8.38-2A5.3,5.3,0,0,1,45.67,1a5.624,5.624,0,0,1,3.98,1.65L50,3Z" style="fill:#e58d1f"/><path d="M35.38,48.99a15.832,15.832,0,0,1-4.08.32,31.5,31.5,0,0,1-10.18-2.08c-.23-.1-.45-.18-.65-.27a5.257,5.257,0,0,1-1.64-8.75l.04-.04a1.07,1.07,0,0,1,.16-.14,5.891,5.891,0,0,1,2.63-1.34L32,34H50.58v.17l-.23,1.09a7.053,7.053,0,0,1-2.52,4.17l-6.88,6.58A11.288,11.288,0,0,1,35.38,48.99Z" style="fill:#ed9220"/><path d="M29,26.98l2.07-1.99a9.932,9.932,0,0,1,4.87-2.52l6.11-1.24,9.23-1.87c3.88-.78,6.5-3.75,7.72-7.36a15.694,15.694,0,0,1,3.59,4.77A5.644,5.644,0,0,1,63,18.96V22a6.36,6.36,0,0,1-1.71,4.38c-.53.53-1.1,1.03-1.58,1.49L55.8,31.61A7.026,7.026,0,0,1,51,34H31.7a4.188,4.188,0,0,1-4.06-3.01,3.769,3.769,0,0,1,1.03-3.7Z" style="fill:#e58d1f"/><path d="M22.48,52.06a6.361,6.361,0,0,1-1.57,3.86,5.774,5.774,0,0,1-.42.44,7.593,7.593,0,0,1-5.25,2.06c-.23,0-.45-.01-.68-.03l-2.23-.18a12.428,12.428,0,0,1-7.14-3.02,3.858,3.858,0,0,1-.44-.38c-.27-.26-.53-.52-.77-.8L4,54a8.025,8.025,0,0,0,6.87,2.57A6.76,6.76,0,0,0,15.4,54.7a6.129,6.129,0,0,0,.91-7.93,27.631,27.631,0,0,1-4.33-15.46L13.97,31A19.7,19.7,0,0,0,19,38l.03.03a1.07,1.07,0,0,0-.16.14l-.04.04a5.257,5.257,0,0,0,1.64,8.75c.2.09.42.17.65.27l.52.96A7.233,7.233,0,0,1,22.48,52.06Z" style="fill:#bf5d1b"/><path d="M48,14a12.23,12.23,0,0,1-1.954-5.354A16.389,16.389,0,0,0,43.74,14.24L42,21l.05.23,9.23-1.87a9.379,9.379,0,0,0,4.613-2.406C53.839,16.816,49.505,16.257,48,14Z" style="fill:#eea439"/><path d="M53.618,16.382a3,3,0,0,1-1.471.808L47.159,18.3a2,2,0,0,1-2.374-2.437l1.043-4.174a3,3,0,0,1,.633-1.225L51.888,4.13A13.577,13.577,0,0,0,50,4c-3.14,3-5.39,6.08-6.26,10.24L42,21l.05.23,9.23-1.87c3.88-.78,6.5-3.75,7.72-7.36,0-.327-.017-.644-.047-.953Z" style="fill:#d17824"/><path d="M36.976,20.008a5.491,5.491,0,0,0,3.649-4.134l.641-3.2a12.339,12.339,0,0,1,.837-2.621L42,10c-7.131.549-10.647-1.31-12.372-3.1a11.437,11.437,0,0,0-1.162,1.587l1.373,7.322A5.494,5.494,0,0,0,36.976,20.008Z" style="fill:#e58d1f"/><path d="M42,10l.1.051a12.368,12.368,0,0,1,2.545-3.7l4.288-4.288A5.609,5.609,0,0,0,45.67,1a5.3,5.3,0,0,0-1.32.16l-8.38,2a12.181,12.181,0,0,0-5.66,3.02c-.241.23-.464.473-.682.72C31.353,8.69,34.869,10.549,42,10Z" style="fill:#f7b64e"/><path d="M49.65,2.65a5.687,5.687,0,0,0-.714-.586L44.648,6.352a12.387,12.387,0,0,0-3.382,6.32l-.641,3.2a5.493,5.493,0,0,1-10.786-.065L28.466,8.487A11.013,11.013,0,0,0,26.83,14.22a10.555,10.555,0,0,0,.23,2.23l.1.55L29,26.98l2.07-1.99a9.932,9.932,0,0,1,4.87-2.52l6.11-1.24L42,21l1.74-6.76a16.365,16.365,0,0,1,.9-2.92A21.631,21.631,0,0,1,50,4V3Z" style="fill:#b05619"/><path d="M54.877,17.789a9.31,9.31,0,0,1-3.6,1.571l-9.23,1.87-6.11,1.24a9.943,9.943,0,0,0-2.581.905A3.4,3.4,0,0,0,34,27c1.883,1.883,11.746,5.536,21.241,5.122.188-.165.374-.335.559-.512l3.91-3.74c.48-.46,1.049-.959,1.579-1.489A9.869,9.869,0,0,1,54.877,17.789Z" style="fill:#e58d1f"/><path d="M34,27a3.4,3.4,0,0,1-.641-3.625A9.86,9.86,0,0,0,31.07,24.99L29,26.98l-.33.31a3.769,3.769,0,0,0-1.03,3.7A4.188,4.188,0,0,0,31.7,34H51a6.456,6.456,0,0,0,4.241-1.878C45.746,32.536,35.883,28.883,34,27Z" style="fill:#bf5d1b"/><path d="M63,22V18.96a5.644,5.644,0,0,0-.41-2.19A15.694,15.694,0,0,0,59,12a11.567,11.567,0,0,1-4.123,5.789,9.869,9.869,0,0,0,6.412,8.592h0A6.36,6.36,0,0,0,63,22Z" style="fill:#f7b64e"/><path d="M31.77,34H31.7a4.188,4.188,0,0,1-4.06-3.01,3.769,3.769,0,0,1,1.03-3.7l.33-.31L27.16,17H27a10.535,10.535,0,0,0-3.965-.463,43.828,43.828,0,0,0,.814,7.345,17.835,17.835,0,0,1,.28,5.566,3.92,3.92,0,0,0-.018.393,3.536,3.536,0,0,1-2.159,3.378h0a3.426,3.426,0,0,1-3.681-.727,22.2,22.2,0,0,1-4.96-7.343,9.963,9.963,0,0,0-.121,1.011A11.342,11.342,0,0,0,13.97,31,19.7,19.7,0,0,0,19,38l.03.03a5.891,5.891,0,0,1,2.63-1.34L32,34Z" style="fill:#e58d1f"/><path d="M10.87,56.57A6.76,6.76,0,0,0,15.4,54.7a6.194,6.194,0,0,0,1.94-4.97C14.036,50.989,6.485,52.878,1,46.765V47.3a6.476,6.476,0,0,0,.12,1.39,10.425,10.425,0,0,0,1.34,3.29,12.352,12.352,0,0,0,1.52,2.03L4,54A8.025,8.025,0,0,0,10.87,56.57Z" style="fill:#e58d1f"/><path d="M31.3,49.31a31.771,31.771,0,0,1-4.968-.583,31.018,31.018,0,0,1-5.212-1.5l.52.96a7.233,7.233,0,0,1,.84,3.87,16.564,16.564,0,0,0,3.8,1.42,12.792,12.792,0,0,0,7-.15l.64-.61a3.632,3.632,0,0,0,1.07-1.9l.39-1.83A15.832,15.832,0,0,1,31.3,49.31Z" style="fill:#9e4d16"/><path d="M26.278,53.48a16.564,16.564,0,0,1-3.8-1.42,6.361,6.361,0,0,1-1.57,3.86,5.774,5.774,0,0,1-.42.44,7.593,7.593,0,0,1-5.25,2.06c-.23,0-.45-.01-.68-.03l-2.23-.18a12.428,12.428,0,0,1-7.14-3.02l-.02.02,2.99,2.86a20.7,20.7,0,0,0,4.82,3.54,12.443,12.443,0,0,0,3.484,1.142C23.335,61.357,25.648,57.183,26.278,53.48Z" style="fill:#d17824"/><path d="M21.975,36.608l-.315.082a5.891,5.891,0,0,0-2.63,1.34,1.07,1.07,0,0,0-.16.14l-.04.04a5.257,5.257,0,0,0,1.64,8.75c.2.09.42.17.65.27A31.5,31.5,0,0,0,31.3,49.31a15.832,15.832,0,0,0,4.08-.32,11.288,11.288,0,0,0,5.57-2.98l.109-.1C35.19,45.6,27.74,44.49,24.42,42A5.559,5.559,0,0,1,21.975,36.608Z" style="fill:#d17824"/><path d="M32,34l-4.1,1.067,15.527.706a5.223,5.223,0,0,1,4.655,3.406,6.85,6.85,0,0,0,2.27-3.919l.23-1.09V34Z" style="fill:#c47122"/><path d="M34.373,5.625a2.9,2.9,0,0,0-1.393.952,1.008,1.008,0,0,0-.183.631,1.124,1.124,0,0,0,.615.815,1.826,1.826,0,0,0,.862.248,3.207,3.207,0,0,0,.867-.141,29.925,29.925,0,0,0,5.44-1.781c.464-.22.969-.535,1.044-1.043.159-1.075-1.332-1.415-2.122-1.363a12.729,12.729,0,0,0-3.089.9Q35.382,5.2,34.373,5.625Z" style="fill:#ffda9e"/><path d="M41.947,4.146a.686.686,0,0,0,.021.526.609.609,0,0,0,.372.222,2.351,2.351,0,0,0,2.23-.607,1.1,1.1,0,0,0-.661-1.975C42.78,2.273,42.174,3.172,41.947,4.146Z" style="fill:#ffda9e"/><path d="M54.375,10.726c.776.123,2.332.545,2.588-.641a2.507,2.507,0,0,0-.109-1.221,3.862,3.862,0,0,0-1.8-2.508A3.006,3.006,0,0,0,53.673,6a4.191,4.191,0,0,0-2.41,1.1,8.2,8.2,0,0,0-1.651,1.675,3.339,3.339,0,0,0-.556,1.167,1.885,1.885,0,0,0,.132,1.292,1.507,1.507,0,0,0,.719.65,1.158,1.158,0,0,0,.65.106,2.218,2.218,0,0,0,1-.635,2.989,2.989,0,0,1,1.2-.717A4.088,4.088,0,0,1,54.375,10.726Z" style="fill:#ffda9e"/><path d="M15.568,21.8A2.921,2.921,0,0,0,15,23.368a1.6,1.6,0,0,0,.815,1.423,2.625,2.625,0,0,0,1.766.111,13.17,13.17,0,0,1,1.76-.389,8.037,8.037,0,0,0,2.439-.14,1.9,1.9,0,0,0,.989-1.008A3.339,3.339,0,0,0,23,22.017a3.26,3.26,0,0,0-.545-1.98C20.624,17.584,16.751,20.023,15.568,21.8Z" style="fill:#ffcb78"/><path d="M16.736,26.22a1.7,1.7,0,0,0-.152.86,3.132,3.132,0,0,0,.541,1.856,1.586,1.586,0,0,0,1.733.6.694.694,0,0,0,.229-.13.977.977,0,0,0,.194-.825c-.045-.538-.118-1.074-.216-1.6a1.207,1.207,0,0,0-.241-.609,1.082,1.082,0,0,0-.452-.26C17.844,25.93,17.08,25.591,16.736,26.22Z" style="fill:#ffcb78"/><path d="M4.568,36.8A2.921,2.921,0,0,0,4,38.368a1.6,1.6,0,0,0,.815,1.423,2.625,2.625,0,0,0,1.766.111,13.17,13.17,0,0,1,1.76-.389,8.037,8.037,0,0,0,2.439-.14,1.9,1.9,0,0,0,.989-1.008A3.339,3.339,0,0,0,12,37.017a3.26,3.26,0,0,0-.545-1.98C9.624,32.584,5.751,35.023,4.568,36.8Z" style="fill:#ffcb78"/><path d="M3.736,42.22a1.7,1.7,0,0,0-.152.86,3.132,3.132,0,0,0,.541,1.856,1.586,1.586,0,0,0,1.733.6.694.694,0,0,0,.229-.13.977.977,0,0,0,.194-.825c-.045-.538-.118-1.074-.216-1.6a1.207,1.207,0,0,0-.241-.609,1.082,1.082,0,0,0-.452-.26C4.844,41.93,4.08,41.591,3.736,42.22Z" style="fill:#ffcb78"/><path d="M43.815,22.806a30.481,30.481,0,0,0-3.232.557,3.148,3.148,0,0,0-1.043.453A2.605,2.605,0,0,0,38.408,25.2c-.179.569.848,1.393,1.348,1.555a7.388,7.388,0,0,0,1.813.271,16.133,16.133,0,0,0,4.136-.4,8.015,8.015,0,0,0,2.054-.637,1.879,1.879,0,0,0,1.032-1.721,1.523,1.523,0,0,0-.682-1.306,3.716,3.716,0,0,0-1.593-.337,11.369,11.369,0,0,0-1.975.11C44.3,22.752,44.056,22.777,43.815,22.806Z" style="fill:#f7b64e"/><path d="M24.762,37.476a1.478,1.478,0,0,0-.748,1.182,1.02,1.02,0,0,0,.7.81,2.3,2.3,0,0,0,1.117.049,13.008,13.008,0,0,0,1.414-.32l3.125-.831a1.217,1.217,0,0,0,.547-.248.812.812,0,0,0-.052-1.093,1.887,1.887,0,0,0-1.087-.489A6.19,6.19,0,0,0,24.762,37.476Z" style="fill:#f7b64e"/><path d="M28.889,40.22a1.69,1.69,0,0,0-1.113.093,1.342,1.342,0,0,0-.556.911,1.28,1.28,0,0,0-.013.574,1.547,1.547,0,0,0,.912.881,10.163,10.163,0,0,0,5.587.995,1.3,1.3,0,0,0,.814-.3.994.994,0,0,0-.235-1.382,7.865,7.865,0,0,0-1.173-.575,4.47,4.47,0,0,0-1.014-.487A23.965,23.965,0,0,0,28.889,40.22Z" style="fill:#f7b64e"/><path d="M63.507,16.373h0a15.86,15.86,0,0,0-3.525-4.8C59.791,6.655,56.346,3.4,51,3.037V3a1,1,0,0,0-.293-.708l-.35-.348A6.656,6.656,0,0,0,44.119.182L35.746,2.188a13.062,13.062,0,0,0-6.124,3.273,12.017,12.017,0,0,0-3.674,10.257,11.532,11.532,0,0,0-10.26,3.064l-.111.107A10.889,10.889,0,0,0,12.2,26.1a12.15,12.15,0,0,0,.473,4.093L9.2,30.713a7.459,7.459,0,0,0-3.9,1.946A16.084,16.084,0,0,0,0,44v3.3A7.682,7.682,0,0,0,.14,48.9a13.249,13.249,0,0,0,3.919,6.638c.141.135.293.257.44.386l-.018.019,2.983,2.851A21.628,21.628,0,0,0,12.526,62.5,14.378,14.378,0,0,0,19.058,64l2.014,0c2.523-.183,3.83-1.266,5.537-2.9l1.441-1.377-1.383-1.446-1.44,1.378C23.624,61.187,22.733,61.873,21,62H19.058a12.382,12.382,0,0,1-5.621-1.276,17.209,17.209,0,0,1-2.675-1.735,13.341,13.341,0,0,0,1.481.216l2.236.184q.375.031.747.031a8.6,8.6,0,0,0,5.953-2.337q.255-.244.486-.507a7.326,7.326,0,0,0,1.593-3.056,16.112,16.112,0,0,0,6.38,1.371c.206,0,.4-.01.59-.018l-1.919,1.835,1.382,1.445,4.925-4.708a4.667,4.667,0,0,0,1.352-2.419l.25-1.2a12.246,12.246,0,0,0,5.424-3.1l1.051-1.006-1.382-1.446-1.052,1.006c-2.338,2.234-5.111,3.161-8.925,3.03a29.994,29.994,0,0,1-10.477-2.274,4.263,4.263,0,0,1-1.293-7.146,4.88,4.88,0,0,1,2.345-1.231L32.128,35h17.25l-.01.044a6.04,6.04,0,0,1-2.229,3.662l-3.83,3.662,1.382,1.445,3.83-3.662a7.977,7.977,0,0,0,2.8-4.683l.109-.5a8.285,8.285,0,0,0,5.054-2.629L60.4,28.6c.183-.175.377-.355.577-.539.335-.311.682-.634,1.017-.968A7.3,7.3,0,0,0,64,22V18.962A6.528,6.528,0,0,0,63.507,16.373Zm-32.5-9.466a11.046,11.046,0,0,1,5.2-2.771l8.383-2.009a4.652,4.652,0,0,1,4.359,1.231L49,3.415v.161c-3.562,3.478-5.435,6.624-6.227,10.415L42.32,15.75l1.938.5.463-1.8c.714-3.413,2.43-6.255,5.68-9.432,4.7.137,7.516,2.657,7.592,6.817-1.242,3.525-3.749,5.914-6.913,6.554L43.3,19.958l.44-1.709-1.937-.5-.683,2.65L35.74,21.489a10.845,10.845,0,0,0-5.358,2.78l-.738.705-1.6-8.726A10.031,10.031,0,0,1,31.005,6.907Zm1.071,43.42a18.329,18.329,0,0,0,2.02-.12l-.085.409A2.673,2.673,0,0,1,33.233,52l-.487.466a12.946,12.946,0,0,1-9.265-1.043,8.142,8.142,0,0,0-.436-2.481,32.318,32.318,0,0,0,8.217,1.37C31.538,50.322,31.81,50.327,32.076,50.327ZM20.082,47.882c.1.043.22.087.326.13l.347.649a5.841,5.841,0,0,1-.591,6.593c-.116.132-.237.259-.367.382a6.651,6.651,0,0,1-5.154,1.76l-1.727-.142a7.792,7.792,0,0,0,3.172-1.829,7.161,7.161,0,0,0,1.054-9.219,23.124,23.124,0,0,1-2.715-5.526l-1.895.644a25.279,25.279,0,0,0,2.951,6,5.1,5.1,0,0,1-.772,6.65,5.762,5.762,0,0,1-3.86,1.595l-.106,0a6.993,6.993,0,0,1-6.057-2.3l-.012.013A10.755,10.755,0,0,1,2.1,48.48,5.786,5.786,0,0,1,2,47.3V44a14.087,14.087,0,0,1,4.684-9.9,5.444,5.444,0,0,1,2.837-1.416l1.459-.221c.014.7.058,1.589.176,2.645l1.989-.224a26.37,26.37,0,0,1-.17-2.722l.391-.059a20.9,20.9,0,0,0,4.272,5.929,6.242,6.242,0,0,0,2.444,9.846Zm1.36-12.164a6.818,6.818,0,0,0-2.308.992c-3.57-3.59-5.162-6.941-4.943-10.49a8.9,8.9,0,0,1,2.771-5.887l.111-.107a9.548,9.548,0,0,1,9.23-2.37l1.613,8.779a4.754,4.754,0,0,0-1.236,4.618,5.014,5.014,0,0,0,1.774,2.638ZM62,22a5.331,5.331,0,0,1-1.42,3.674c-.317.317-.647.623-.965.917-.207.192-.409.379-.6.561L55.1,30.892A6.163,6.163,0,0,1,51,33H31.751a3.192,3.192,0,0,1-3.142-2.272,2.763,2.763,0,0,1,.756-2.72l2.4-2.294a8.848,8.848,0,0,1,4.372-2.265l15.34-3.105a11.132,11.132,0,0,0,7.883-6.55,12.408,12.408,0,0,1,2.309,3.37,4.525,4.525,0,0,1,.331,1.8Z"/><path d="M11.462,37.179c.126.692.278,1.389.453,2.07l1.938-.5c-.164-.636-.306-1.286-.424-1.931Z"/></g></svg>