<svg xmlns="http://www.w3.org/2000/svg" viewBox="0 0 64 64"><g id="_16-Baguette" data-name="16-Baguette"><path d="M26.37,41.95c-.39-.2-.76-.41-1.12-.62C17.81,36.98,5.64,23.4,8.42,16.82c6.96-2.99,22.82,1.22,29.53,5.15,8.65,5.05,17.04,17,17.06,24C48.94,48.42,34.67,46.26,26.37,41.95Z" style="fill:#ffcd8e"/><path d="M54.35,32.43c3.1,4.82,4.65,9.5,2.97,11.88a5.121,5.121,0,0,1-2.31,1.66c-.02-7-8.41-18.95-17.06-24-6.71-3.93-22.57-8.14-29.53-5.15a3.808,3.808,0,0,1,.46-.84c4.33-6.17,24.3-1.55,32.07,2.99C45.83,21.82,51,27.21,54.35,32.43Z" style="fill:#854920"/><path d="M63.01,31c0,9.4-1.13,15.06-3,17-3.2,5-12.52,8-28,8a84.657,84.657,0,0,1-12.75-.86l.01-.05a7.015,7.015,0,0,1-1.51-1.15A7.181,7.181,0,0,1,23.43,41.7l2.94.25c8.3,4.31,22.57,6.47,28.64,4.02a5.121,5.121,0,0,0,2.31-1.66c1.68-2.38.13-7.06-2.97-11.88A7.534,7.534,0,0,0,60.01,35c2.61,0,2.95-4.55,2.99-5.72C63.01,29.84,63.01,30.41,63.01,31Z" style="fill:#c96b1c"/><path d="M17.76,53.94a7.015,7.015,0,0,0,1.51,1.15l-.01.05C11.29,53.92,6.21,51.43,4.01,48c-1.88-1.94-3-7.6-3-17s1.12-15.06,3-17c3.2-5,12.52-8,28-8s24.8,3,28,8c1.75,1.82,2.85,6.9,2.99,15.26v.02c-.04,1.17-.38,5.72-2.99,5.72a7.534,7.534,0,0,1-5.66-2.57C51,27.21,45.83,21.82,40.95,18.97c-7.77-4.54-27.74-9.16-32.07-2.99a3.808,3.808,0,0,0-.46.84C5.64,23.4,17.81,36.98,25.25,41.33c.36.21.73.42,1.12.62l-2.94-.25a7.181,7.181,0,0,0-5.67,12.24Z" style="fill:#e58d1f"/><path d="M19.733,47.966a5.883,5.883,0,0,1,2.345-2.873,14.5,14.5,0,0,1,6.636-2.059c-.817-.346-1.61-.7-2.344-1.084l-2.94-.25a7.181,7.181,0,0,0-5.67,12.24,7.015,7.015,0,0,0,1.51,1.15l-.01.05q.739.114,1.513.212a11.668,11.668,0,0,1-1.323-5.347A6.38,6.38,0,0,1,19.733,47.966Z" style="fill:#bf5d1b"/><path d="M63,29.28c-.04,1.17-.38,5.72-2.99,5.72a7.534,7.534,0,0,1-5.66-2.57,30.84,30.84,0,0,1,2.541,4.752,5.651,5.651,0,0,0,2.057.43,6.574,6.574,0,0,0,3.922-1.334c.091-1.607.14-3.36.14-5.278C63.01,30.41,63.01,29.84,63,29.28Z" style="fill:#bf5d1b"/><path d="M46.31,34.919c-.4.478-.657,1.074-1.1,1.513-.357.352-.866.668-.869,1.169,0,.474.471.813.927.941a2.707,2.707,0,0,0,3.347-1.9,1.678,1.678,0,0,0,.038-.811C48.428,34.873,47.037,34.054,46.31,34.919Z" style="fill:#f4b774"/><path d="M33.31,23.919c-.4.478-.657,1.074-1.1,1.513-.357.352-.866.668-.869,1.169,0,.474.471.813.927.941a2.707,2.707,0,0,0,3.347-1.9,1.678,1.678,0,0,0,.038-.811C35.428,23.873,34.037,23.054,33.31,23.919Z" style="fill:#f4b774"/><path d="M42.785,29.12a.434.434,0,0,0-.561,0,.509.509,0,0,0-.013.505,2.18,2.18,0,0,0,.622.876.6.6,0,0,0,.218.131.425.425,0,0,0,.489-.3.737.737,0,0,0-.253-.657A3.292,3.292,0,0,0,42.785,29.12Z" style="fill:#f4b774"/><path d="M24.588,24.315a1.687,1.687,0,0,0-.693.476,2.39,2.39,0,0,0-.637.835,2.275,2.275,0,0,0,.405,1.849c.314.544.739,1.127,1.364,1.191a.689.689,0,0,0,.5-.123c.311-.248.227-.727.292-1.119a7.57,7.57,0,0,1,.269-.83C26.34,25.725,25.8,23.988,24.588,24.315Z" style="fill:#f4b774"/><path d="M30.184,35.184a1.689,1.689,0,0,0-.153.826,2.376,2.376,0,0,0,.14,1.042,2.273,2.273,0,0,0,1.594,1.021,2.035,2.035,0,0,0,1.806-.123.688.688,0,0,0,.267-.44c.044-.395-.354-.675-.585-1a7.467,7.467,0,0,1-.4-.777C32.42,34.943,30.81,34.1,30.184,35.184Z" style="fill:#f4b774"/><path d="M39.184,32.184a1.689,1.689,0,0,0-.153.826,2.376,2.376,0,0,0,.14,1.042,2.273,2.273,0,0,0,1.594,1.021,2.035,2.035,0,0,0,1.806-.123.688.688,0,0,0,.267-.44c.044-.395-.354-.675-.585-1a7.467,7.467,0,0,1-.4-.777C41.42,31.943,39.81,31.1,39.184,32.184Z" style="fill:#f4b774"/><path d="M14.922,24.5a.617.617,0,0,0,.389.407,1.246,1.246,0,0,0,.579.049,2.551,2.551,0,0,0,1.09-.39.832.832,0,0,0,.384-.444.982.982,0,0,0-.082-.581.907.907,0,0,0-.275-.454C16.38,22.631,14.741,23.757,14.922,24.5Z" style="fill:#f4b774"/><path d="M23.6,36.272a.62.62,0,0,0,.563.012,1.231,1.231,0,0,0,.443-.375,2.542,2.542,0,0,0,.5-1.046.836.836,0,0,0-.042-.586.994.994,0,0,0-.47-.352.9.9,0,0,0-.514-.127C23.309,33.922,22.947,35.877,23.6,36.272Z" style="fill:#f4b774"/><path d="M16.6,29.272a.62.62,0,0,0,.563.012,1.231,1.231,0,0,0,.443-.375,2.542,2.542,0,0,0,.5-1.046.836.836,0,0,0-.042-.586.994.994,0,0,0-.47-.352.9.9,0,0,0-.514-.127C16.309,26.922,15.947,28.877,16.6,29.272Z" style="fill:#f4b774"/><path d="M39.806,36.286a1.06,1.06,0,0,0-.771-.259.593.593,0,0,0-.235.053.664.664,0,0,0-.3.573.554.554,0,0,0,.016.2.525.525,0,0,0,.116.186.967.967,0,0,0,1.251.274C40.229,37.05,40.082,36.537,39.806,36.286Z" style="fill:#f4b774"/><path d="M45.152,29.8c-.111.043-.126.2-.107.313a1.379,1.379,0,0,0,.4.761.217.217,0,0,0,.123.07.16.16,0,0,0,.153-.118.5.5,0,0,0-.054-.331c-.032-.092-.039-.184-.067-.276C45.556,30.075,45.354,29.726,45.152,29.8Z" style="fill:#f4b774"/><path d="M38.12,28.94a.869.869,0,0,0-.39.094.359.359,0,0,0-.193.33.426.426,0,0,0,.252.3,1.848,1.848,0,0,0,.915.123.313.313,0,0,0,.146-.029.3.3,0,0,0,.113-.161.7.7,0,0,0,.05-.4C38.923,28.828,38.385,28.923,38.12,28.94Z" style="fill:#f4b774"/><path d="M33.092,31.011a1.3,1.3,0,0,0-.307.5.527.527,0,0,0,.143.542.622.622,0,0,0,.575.052,2.7,2.7,0,0,0,1.074-.82.459.459,0,0,0,.121-.181.43.43,0,0,0-.05-.283,1.013,1.013,0,0,0-.364-.467C33.808,30.064,33.349,30.719,33.092,31.011Z" style="fill:#f4b774"/><path d="M44.29,40.954a.5.5,0,0,1,.281.065.392.392,0,0,1,.045.567.562.562,0,0,1-.8-.014C43.609,41.243,44,40.959,44.29,40.954Z" style="fill:#f4b774"/><path d="M50.448,40.954a.63.63,0,0,1,.364.085.5.5,0,0,1,.058.734.726.726,0,0,1-1.033-.018C49.565,41.328,50.064,40.961,50.448,40.954Z" style="fill:#f4b774"/><path d="M42.632,39.614a.524.524,0,0,0-.32.049.26.26,0,0,0-.136.275.3.3,0,0,0,.08.13.66.66,0,0,0,.385.181.561.561,0,0,0,.369-.067C43.464,39.893,42.915,39.645,42.632,39.614Z" style="fill:#f4b774"/><path d="M46.392,41.621c-.34.075-.472.318-.683.582a.57.57,0,0,0-.151.3.443.443,0,0,0,.129.3,1.508,1.508,0,0,0,1.24.407,1.049,1.049,0,0,0,.834-.365.739.739,0,0,0,0-.768A1.215,1.215,0,0,0,46.392,41.621Z" style="fill:#f4b774"/><path d="M42.392,43.621c-.34.075-.472.318-.683.582a.57.57,0,0,0-.151.3.443.443,0,0,0,.129.3,1.508,1.508,0,0,0,1.24.407,1.049,1.049,0,0,0,.834-.365.739.739,0,0,0,0-.768A1.215,1.215,0,0,0,42.392,43.621Z" style="fill:#f4b774"/><path d="M24.392,20.621c-.34.075-.472.318-.683.582a.57.57,0,0,0-.151.3.443.443,0,0,0,.129.3,1.508,1.508,0,0,0,1.24.407,1.049,1.049,0,0,0,.834-.365.739.739,0,0,0,0-.768A1.215,1.215,0,0,0,24.392,20.621Z" style="fill:#f4b774"/><path d="M31.392,39.621c-.34.075-.472.318-.683.582a.57.57,0,0,0-.151.3.443.443,0,0,0,.129.3,1.508,1.508,0,0,0,1.24.407,1.049,1.049,0,0,0,.834-.365.739.739,0,0,0,0-.768A1.215,1.215,0,0,0,31.392,39.621Z" style="fill:#f4b774"/><path d="M40.081,39.806a.452.452,0,0,0-.339.162.209.209,0,0,0-.045.123c0,.1.1.174.2.221a.825.825,0,0,0,.363.107.334.334,0,0,0,.311-.181C40.728,39.861,40.373,39.79,40.081,39.806Z" style="fill:#f4b774"/><path d="M28.356,29.9a1.346,1.346,0,0,0-.822.125.669.669,0,0,0-.348.706.752.752,0,0,0,.206.335,1.687,1.687,0,0,0,.988.464,1.428,1.428,0,0,0,.946-.172C30.492,30.616,29.082,29.978,28.356,29.9Z" style="fill:#f4b774"/><path d="M27.081,37.806a.452.452,0,0,0-.339.162.209.209,0,0,0-.045.123c0,.1.105.174.2.221a.825.825,0,0,0,.363.107.334.334,0,0,0,.311-.181C27.728,37.861,27.373,37.79,27.081,37.806Z" style="fill:#f4b774"/><path d="M15.858,17.662a1.166,1.166,0,0,0-.338.828c.042.415.573.356.841.214a2.214,2.214,0,0,0,.41-.276.6.6,0,0,0,.175-.213A.671.671,0,0,0,16.987,18a.746.746,0,0,0-.095-.546.478.478,0,0,0-.369-.155A.97.97,0,0,0,15.858,17.662Z" style="fill:#f4b774"/><path d="M13.244,22.247a1.172,1.172,0,0,0,.346.825c.324.263.657-.154.747-.444a2.214,2.214,0,0,0,.094-.485.6.6,0,0,0-.026-.274.706.706,0,0,0-.122-.18.748.748,0,0,0-.454-.318.474.474,0,0,0-.37.151A.971.971,0,0,0,13.244,22.247Z" style="fill:#f4b774"/><path d="M30.244,24.247a1.172,1.172,0,0,0,.346.825c.324.263.657-.154.747-.444a2.214,2.214,0,0,0,.094-.485.6.6,0,0,0-.026-.274.706.706,0,0,0-.122-.18.748.748,0,0,0-.454-.318.474.474,0,0,0-.37.151A.971.971,0,0,0,30.244,24.247Z" style="fill:#f4b774"/><path d="M12.856,18.562a.141.141,0,0,0-.018.178.339.339,0,0,0,.151.12.372.372,0,0,0,.408,0,.257.257,0,0,0,.071-.13.312.312,0,0,0-.594-.187" style="fill:#f4b774"/><path d="M25.706,37.567a.247.247,0,0,0,.088-.085,1.115,1.115,0,0,0,.168-.922c-.09-.338-.615-.09-.653.177C25.283,36.926,25.407,37.712,25.706,37.567Z" style="fill:#f4b774"/><path d="M24.706,31.567a.247.247,0,0,0,.088-.085,1.115,1.115,0,0,0,.168-.922c-.09-.338-.615-.09-.653.177C24.283,30.926,24.407,31.712,24.706,31.567Z" style="fill:#f4b774"/><path d="M21.075,32.045a.255.255,0,0,0,.085.088,1.118,1.118,0,0,0,.922.168c.339-.09.09-.615-.177-.653C21.716,31.621,20.93,31.745,21.075,32.045Z" style="fill:#f4b774"/><path d="M19.972,19.7a.683.683,0,0,0-.148.381c.011.24.262.39.488.472a3.636,3.636,0,0,0,1.124.215.429.429,0,0,0,.3-.068.363.363,0,0,0,.095-.147,1.1,1.1,0,0,0-.072-.971C21.212,18.682,20.452,18.965,19.972,19.7Z" style="fill:#f4b774"/><path d="M20.307,24.113a.315.315,0,0,0-.161.3.339.339,0,0,0,.212.2c.294.134,1.547.331,1.344-.359C21.564,23.79,20.591,23.913,20.307,24.113Z" style="fill:#f4b774"/><path d="M36.307,42.113a.315.315,0,0,0-.161.3.339.339,0,0,0,.212.2c.294.134,1.547.331,1.344-.359C37.564,41.79,36.591,41.913,36.307,42.113Z" style="fill:#f4b774"/><path d="M37.587,40.56c.518-.587-1.205-.66-.6-.06a.536.536,0,0,0,.418.13A.256.256,0,0,0,37.587,40.56Z" style="fill:#f4b774"/><path d="M29.587,20.56c.518-.587-1.2-.66-.595-.06a.536.536,0,0,0,.418.13A.256.256,0,0,0,29.587,20.56Z" style="fill:#f4b774"/><path d="M57.318,17.482a13.185,13.185,0,0,0-5.161-6.4,17.934,17.934,0,0,0-6.293-1.989A77.647,77.647,0,0,0,29.785,8.062a3.034,3.034,0,0,0-2.542.958,1.973,1.973,0,0,0,.223,2.2,5.02,5.02,0,0,0,1.9,1.368c4.088,1.961,8.665,2.622,13.083,3.671a22.294,22.294,0,0,1,11.387,6.6A17.3,17.3,0,0,0,56.366,25.5a1.842,1.842,0,0,0,1.682.425,1.676,1.676,0,0,0,.894-1.331c.248-1.364-.368-2.414-.621-3.7A17.957,17.957,0,0,0,57.318,17.482Z" style="fill:#f7b64e"/><path d="M28.87,52.626c2.618.136,5.243.244,7.865.143,1.338-.052,2.676-.156,4-.34a16.1,16.1,0,0,0,3.289-.484.967.967,0,0,0,.654-.824,1.1,1.1,0,0,0-.229-.619,4.067,4.067,0,0,0-2.135-1.366,43.938,43.938,0,0,0-6.018-1.25c-2.343-.435-4.693-.836-7.063-1.1-1.55-.173-3.108-.288-4.669-.314a2.88,2.88,0,0,0-2.917,1.345,2.7,2.7,0,0,0-.635,1.574A2.351,2.351,0,0,0,22,51.2a5.207,5.207,0,0,0,1.947.84A26.088,26.088,0,0,0,28.87,52.626Z" style="fill:#d17824"/><path d="M46.408,50.978a.562.562,0,0,0-.024.316.575.575,0,0,0,.383.325,4.147,4.147,0,0,0,1.388.22,11.387,11.387,0,0,0,2.891-.3,3.247,3.247,0,0,0,2.35-1.529c.774-1.7-2.264-1.472-3.2-1.3C48.741,48.964,46.9,49.349,46.408,50.978Z" style="fill:#d17824"/><path d="M14.557,36.3a13.948,13.948,0,0,1,1.837,1.849,2.292,2.292,0,0,1,.418,2.405,3.415,3.415,0,0,1-1.056,1.075L13.4,43.407A6.15,6.15,0,0,1,9.963,45c-2.168.029-3.646-2.093-4.488-4.034A30.055,30.055,0,0,1,3.163,25.922c.088-.842.337-2.23,1.164-2.708,1.7-.98,2,1.668,2.333,2.632a21.721,21.721,0,0,0,3.87,6.834A32.97,32.97,0,0,0,14.557,36.3Z" style="fill:#f7b64e"/><path d="M57.025,30.035a5.783,5.783,0,0,0,.089,1.765,1.533,1.533,0,0,0,1.009,1.183,1.385,1.385,0,0,0,.98-.263,4.63,4.63,0,0,0,1.872-4.282,1.693,1.693,0,0,0-.187-.684,1.352,1.352,0,0,0-.823-.546C57.836,26.543,57.158,27.467,57.025,30.035Z" style="fill:#f7b64e"/><path d="M17.3,36.269l1.4-1.428c-.5-.494-1-1-1.495-1.526l-1.457,1.372Q16.512,35.5,17.3,36.269Z"/><path d="M16.555,27.9l.89-1.792a10.473,10.473,0,0,0-1.471-.487,13.454,13.454,0,0,1-1.45-.468l-1.058,1.7a8.789,8.789,0,0,0,1.954.693C15.813,27.653,16.409,27.824,16.555,27.9Z"/><path d="M16.534,19.846l-1.058-1.7a13.454,13.454,0,0,1-1.45.468,10.473,10.473,0,0,0-1.471.487l.89,1.792c.146-.072.742-.243,1.135-.357A8.789,8.789,0,0,0,16.534,19.846Z"/><path d="M25.813,32.582a10.434,10.434,0,0,1,.863-.845,9.056,9.056,0,0,0,1.137-1.155l-1.626-1.164a10.434,10.434,0,0,1-.863.845,9.056,9.056,0,0,0-1.137,1.155Z"/><path d="M31.676,26.737a9.056,9.056,0,0,0,1.137-1.155l-1.626-1.164a10.434,10.434,0,0,1-.863.845,9.056,9.056,0,0,0-1.137,1.155l1.626,1.164A10.434,10.434,0,0,1,31.676,26.737Z"/><path d="M27.446,37.9a12.062,12.062,0,0,1,2.725-.911l-.342-1.97A14.093,14.093,0,0,0,26.554,36.1Z"/><path d="M34.573,30.18l-1.146,1.64a20.006,20.006,0,0,1,1.664,1.673l.182.194,1.454-1.374-.176-.187A18.166,18.166,0,0,0,34.573,30.18Z"/><path d="M41.147,41.478l1.706,1.044a7.029,7.029,0,0,1,1.727-1.708l-1.16-1.628A8.9,8.9,0,0,0,41.147,41.478Z"/><path d="M43,29H41c0,1.577,1.651,2.706,2.768,2.973l.464-1.946C43.734,29.909,43,29.347,43,29Z"/><path d="M21.293,25.207A5.1,5.1,0,0,1,22,26h2a3.341,3.341,0,0,0-1.293-2.207A3.911,3.911,0,0,1,22,22.958.19.19,0,0,1,22,23H20A3.341,3.341,0,0,0,21.293,25.207Z"/><path d="M26.715,22.958l.59-1.91a5.18,5.18,0,0,1-.932-.99,8.093,8.093,0,0,0-.689-.788l-1.368,1.46a6.285,6.285,0,0,1,.5.582A4.505,4.505,0,0,0,26.715,22.958Z"/><path d="M50,38H48a4.161,4.161,0,0,1-1.568,2.177l1.136,1.646C48.416,41.237,50,39.515,50,38Z"/><path d="M33.741,39.326a4.407,4.407,0,0,0,2.967,2.63l.584-1.912a2.493,2.493,0,0,1-1.66-1.37Z"/><path d="M64,29h-.019c-.147-8.226-1.217-13.478-3.191-15.62C58.941,10.554,55.4,8.4,50.265,6.989l-.532,1.928c4.694,1.293,7.865,3.185,9.424,5.622a.974.974,0,0,0,.123.155c.782.811,2.553,3.874,2.7,14.794C61.9,31.22,61.367,34,60,34a6.473,6.473,0,0,1-4.882-2.2c-3.453-5.349-8.707-10.793-13.673-13.7-7.215-4.219-28.354-9.873-33.4-2.7a5.6,5.6,0,0,0-.387.648c-.034.017-.072.031-.106.047l.042.085c-2.573,5.29,3.708,13.455,6.647,16.839l1.51-1.311C10.687,25.881,8.3,20.649,9.2,17.6c6.578-2.442,21.441,1.257,28.236,5.232,7.93,4.637,15.982,15.7,16.513,22.468-6.123,1.9-20.314-.219-28.2-4.833A34.977,34.977,0,0,1,20.2,36.26l-1.342,1.482a43.623,43.623,0,0,0,3.548,2.9,8.178,8.178,0,0,0-7.022,12.727c-5.258-1.277-8.859-3.276-10.541-5.905a1.022,1.022,0,0,0-.123-.155C3.9,46.458,2,43.173,2,31S3.9,15.542,4.72,14.694a.915.915,0,0,0,.122-.155C7.954,9.677,17.6,7,32,7A74.647,74.647,0,0,1,47.785,8.435l.432-1.953A76.625,76.625,0,0,0,32,5C16.749,5,6.8,7.9,3.21,13.38,1.08,15.691,0,21.617,0,31S1.08,46.309,3.21,48.619c2.727,4.173,9.012,6.823,18.681,7.879l.216-1.988q-1.624-.178-3.116-.42a5.974,5.974,0,0,1-1.177-.91A6.182,6.182,0,0,1,22.7,42.646l3.407.284a54.553,54.553,0,0,0,22.016,5.091c4.638,0,8.456-.915,10.013-3.132a6.41,6.41,0,0,0,.622-5.172,19.351,19.351,0,0,0-1.507-4.173A8.426,8.426,0,0,0,60,36a2.933,2.933,0,0,0,1.907-.67c-.388,8.653-1.916,11.239-2.627,11.976a.957.957,0,0,0-.122.155C56.046,52.322,46.4,55,32,55c-2.814,0-5.479-.1-7.918-.3l-.164,1.994C26.412,56.9,29.131,57,32,57c15.251,0,25.2-2.9,28.79-8.381C62.92,46.309,64,40.382,64,31c0-.522-.005-1.028-.011-1.529C64,29.251,64,29.084,64,29ZM56.5,43.74a2.975,2.975,0,0,1-.63.634c-1.095-7.456-9.181-18.452-17.42-23.269-5.424-3.173-18.326-7.125-26.687-6.139,6.364-2.826,22.085,1.01,28.678,4.866,4.55,2.661,9.477,7.734,12.768,12.7l-.036.024c.019.028.134.194.335.432a23.358,23.358,0,0,1,3.3,7.156A4.825,4.825,0,0,1,56.5,43.74Z"/></g></svg>