<svg xmlns="http://www.w3.org/2000/svg" viewBox="0 0 64 64"><g id="_26-bun" data-name="26-bun"><path d="M62.67,34.01A48.441,48.441,0,0,1,63,39.5C63,48,49.12,60,32,60S1,48,1,39.5a48.53,48.53,0,0,1,.31-5.29A31.824,31.824,0,0,1,7.08,39.8a14.07,14.07,0,0,0,3.45,3.35,17.717,17.717,0,0,0,3.97,1.28c3.43.96,6.44,2.92,9.63,4.45s6.85,2.68,10.32,1.83c3.38-.83,5.99-3.4,9.19-4.74,2.91-1.22,6.3-1.43,8.87-3.22,1.93-1.36,3.14-3.44,4.6-5.25C58.51,35.76,60.42,34.14,62.67,34.01Z" style="fill:#fcedaa"/><path d="M33,4C56,4,61.46,23.29,62.67,34.01c-2.25.13-4.16,1.75-5.56,3.49-1.46,1.81-2.67,3.89-4.6,5.25-2.57,1.79-5.96,2-8.87,3.22-3.2,1.34-5.81,3.91-9.19,4.74-3.47.85-7.12-.29-10.32-1.83s-6.2-3.49-9.63-4.45a17.717,17.717,0,0,1-3.97-1.28A14.07,14.07,0,0,1,7.08,39.8a31.824,31.824,0,0,0-5.77-5.59C2.48,23.53,7.86,4,31,4Z" style="fill:#c96b1c"/><path d="M58.748,19.67c.071,1.281.086,2.565.034,3.847a4.486,4.486,0,0,1-.729,2.687,4.638,4.638,0,0,1-1.978,1.223,10.754,10.754,0,0,0-4.287,2.516c-1.319,1.507-1.634,3.612-2.09,5.562s-1.268,4.05-3.067,4.933c-1.4.687-3.05.461-4.61.423a17.8,17.8,0,0,0-6.869,1.2c-1.614.629-3.137,1.493-4.792,2a6.572,6.572,0,0,1-5.054-.205A15.949,15.949,0,0,1,22.25,41.03a15.4,15.4,0,0,0-7.044-3.519c-2.575-.648-5.225-.961-7.8-1.616a5.468,5.468,0,0,1-2-.836,5.5,5.5,0,0,1-1.474-2.052,20.255,20.255,0,0,1-1.655-4.582A52.151,52.151,0,0,0,1.31,34.21,31.824,31.824,0,0,1,7.08,39.8a14.07,14.07,0,0,0,3.45,3.35,17.717,17.717,0,0,0,3.97,1.28c3.43.96,6.44,2.92,9.63,4.45s6.85,2.68,10.32,1.83c3.38-.83,5.99-3.4,9.19-4.74,2.91-1.22,6.3-1.43,8.87-3.22,1.93-1.36,3.14-3.44,4.6-5.25,1.4-1.74,3.31-3.36,5.56-3.49A45.575,45.575,0,0,0,58.748,19.67Z" style="fill:#bf5d1b"/><path d="M26.548,6.967a13.518,13.518,0,0,0-6.134,2.817,3.6,3.6,0,0,0-1.4,2.923,3.066,3.066,0,0,0,.593,1.4c1.383,1.935,3.928,2.538,6.258,2.915q3.267.528,6.566.83a14.39,14.39,0,0,0,6.885-.577c2.15-.9,3.941-3.1,3.65-5.435a5.58,5.58,0,0,0-2.553-3.762C36.113,5.171,31.364,5.827,26.548,6.967Z" style="fill:#a84e11"/><path d="M42.969,11.84a5.58,5.58,0,0,0-2.553-3.762c-4.3-2.907-9.052-2.251-13.868-1.111a13.518,13.518,0,0,0-6.134,2.817,3.6,3.6,0,0,0-1.4,2.923,3.066,3.066,0,0,0,.593,1.4c1.383,1.935,3.928,2.538,6.258,2.915q3.267.528,6.566.83a14.39,14.39,0,0,0,6.885-.577C41.469,16.375,43.26,14.176,42.969,11.84Zm-5.036,2.677A14.864,14.864,0,0,1,32.2,14.9q-2.746-.2-5.472-.553c-1.942-.251-4.062-.653-5.215-1.943a1.866,1.866,0,0,1-.494-.933,2.256,2.256,0,0,1,1.164-1.949A12.716,12.716,0,0,1,27.29,7.645c4.014-.76,7.971-1.2,11.557.741a3.809,3.809,0,0,1,2.127,2.507C41.217,12.451,39.724,13.917,37.933,14.517Z" style="fill:#8f420e"/><path d="M4.572,41.706c.87.792,1.8,1.528,2.608,2.383a18.054,18.054,0,0,1,1.6,2.371,9.877,9.877,0,0,0,4.79,3.822,11.009,11.009,0,0,0,3.18.244,36.614,36.614,0,0,1,5.078.187c3.025.372,5.918,1.38,8.912,1.93s6.268.6,8.91-.828c2.227-1.2,3.761-3.32,6-4.5,3.54-1.861,8.321-1.119,11.481-3.5a14.133,14.133,0,0,0,2.731-3.153c.857-1.179,2.116-1.752,3.054-2.862.014-.017.025-.036.04-.054-.043-1.053-.129-2.318-.293-3.734-2.25.13-4.16,1.75-5.56,3.49-1.46,1.81-2.67,3.89-4.6,5.25-2.57,1.79-5.96,2-8.87,3.22-3.2,1.34-5.81,3.91-9.19,4.74-3.47.85-7.12-.29-10.32-1.83s-6.2-3.49-9.63-4.45a17.717,17.717,0,0,1-3.97-1.28A14.07,14.07,0,0,1,7.08,39.8a31.824,31.824,0,0,0-5.77-5.59c-.151,1.35-.232,2.554-.273,3.564A27.091,27.091,0,0,0,4.572,41.706Z" style="fill:#efba5a"/><path d="M63,39.5c0-.654-.018-1.511-.075-2.516.015.263.028.519.038.76-.015.018-.026.037-.04.054-.938,1.11-2.2,1.683-3.054,2.862a14.133,14.133,0,0,1-2.731,3.153c-1.96,1.479-4.544,1.755-7.069,2.2-.27.634-.539,1.268-.842,1.888A25.223,25.223,0,0,1,42.5,56.674a23.266,23.266,0,0,1-4.786,2.874C52.1,57.3,63,47.031,63,39.5Z" style="fill:#fae27d"/><path d="M18.9,15.5c-1.57-2.121-2.987-4.525-6.072-3.04a2.857,2.857,0,0,0-1.379,4.163A23.909,23.909,0,0,0,14.9,20.891a10.49,10.49,0,0,0,4.39,2.563,21.826,21.826,0,0,0,2.739.381,21.271,21.271,0,0,0,2.92.161,3.859,3.859,0,0,0,1.333-.428,1.06,1.06,0,0,0,.7-1.065,1.453,1.453,0,0,0-.367-.661C24.462,19.276,20.9,18.2,18.9,15.5Z" style="fill:#e58d1f"/><path d="M43.892,15.3a9.51,9.51,0,0,1-2.1,1.933,3.381,3.381,0,0,0-1.407,2.042c-.381,1.287,1.02,1.895,2.086,1.989a5.258,5.258,0,0,0,2.968-.676,10.126,10.126,0,0,0,4.239-5.046,8.823,8.823,0,0,0,.733-3.2,2.5,2.5,0,0,0-2.093-2.773,4.016,4.016,0,0,0-1.59.235,2.457,2.457,0,0,0-.983.491c-.688.647-.428,1.577-.576,2.393A6.2,6.2,0,0,1,43.892,15.3Z" style="fill:#e58d1f"/><path d="M5.314,31.946a3.526,3.526,0,0,0,1.621,1.433,6.55,6.55,0,0,0,2.309.606,1.8,1.8,0,0,0,1.243-.238,1.309,1.309,0,0,0,.461-1.376c-.179-.543-.7-.7-1.1-.98a6.8,6.8,0,0,1-1.473-2.112c-.453-.755-1.146-1.453-1.868-1.24C5.229,28.414,4.566,30.609,5.314,31.946Z" style="fill:#e58d1f"/><path d="M13.83,12.425A5.512,5.512,0,0,0,12.3,14.167a1.628,1.628,0,0,0-.269,1.371.7.7,0,0,0,.462.392A2.734,2.734,0,0,0,14.943,15c.515-.445,1.366-1.523.864-2.53C15.4,11.643,14.332,12.092,13.83,12.425Z" style="fill:#fffced"/><path d="M8.028,19.622a4.237,4.237,0,0,0-1,1.927,2.056,2.056,0,0,0,.7,1.955,3.262,3.262,0,0,0,3.533-.054A3.493,3.493,0,0,0,13,20.405a2.507,2.507,0,0,0-1.094-2C10.31,17.358,8.908,18.551,8.028,19.622Z" style="fill:#fffced"/><path d="M54.347,15.431a4,4,0,0,0-1.8-1.359c-.66-.178-1.227-.045-1.465.612a2.414,2.414,0,0,0,.771,2.283,3.45,3.45,0,0,0,2.123,1.025.9.9,0,0,0,.324-.014.744.744,0,0,0,.356-.255,1.5,1.5,0,0,0,.248-1.478A2.821,2.821,0,0,0,54.347,15.431Z" style="fill:#fffced"/><path d="M4.793,23.344l-1.878-.688q-.375,1.029-.69,2.048l1.911.592Q4.436,24.324,4.793,23.344Z"/><path d="M59.4,18.715C54.189,8.287,45.309,3,33,3H31C18.11,3,8.68,9.088,3.729,20.605l1.837.79C10.243,10.516,18.8,5,31,5h2C54.718,5,60.211,22.788,61.566,33.18a9.9,9.9,0,0,0-5.233,3.688l1.557,1.256a8.524,8.524,0,0,1,3.9-2.935c.173,1.881.21,3.391.21,4.311C62,47.171,49.118,59,32,59S2,47.171,2,39.5c0-.719.025-1.9.138-3.4A40.585,40.585,0,0,1,6.319,40.45c.168.2.334.392.5.589a12.037,12.037,0,0,0,3.225,2.982,12.524,12.524,0,0,0,3.194,1.115c.331.082.661.164.989.256a19.985,19.985,0,0,1,2.38.841l.775-1.843a21.933,21.933,0,0,0-2.616-.924c-.346-.1-.7-.184-1.044-.271a10.9,10.9,0,0,1-2.7-.918A10.413,10.413,0,0,1,8.349,39.75c-.172-.2-.344-.408-.518-.608a35.071,35.071,0,0,0-5.461-5.41,49.782,49.782,0,0,1,1.213-6.481l-1.937-.5A53.167,53.167,0,0,0,0,39.5c0,4.548,3.638,10.007,9.493,14.247a38.548,38.548,0,0,0,45.014,0C60.362,49.507,64,44.048,64,39.5,64,36.788,63.668,27.273,59.4,18.715Z"/><path d="M20.467,13.846a8.8,8.8,0,0,0,1.951.692c.394.114.991.286,1.137.358l.89-1.792a10.345,10.345,0,0,0-1.473-.487,13.139,13.139,0,0,1-1.448-.469Z"/><path d="M23.028,8.617a10.345,10.345,0,0,0-1.473.487l.89,1.792c.146-.072.742-.244,1.137-.358a8.8,8.8,0,0,0,1.951-.692l-1.057-1.7A13.139,13.139,0,0,1,23.028,8.617Z"/><path d="M32.813,17.582a10.58,10.58,0,0,1,.863-.846,8.994,8.994,0,0,0,1.137-1.154l-1.626-1.164a10.58,10.58,0,0,1-.863.846,8.994,8.994,0,0,0-1.137,1.154Z"/><path d="M37.324,8.264a8.994,8.994,0,0,0-1.137,1.154l1.626,1.164a10.58,10.58,0,0,1,.863-.846,8.994,8.994,0,0,0,1.137-1.154L38.187,7.418A10.58,10.58,0,0,1,37.324,8.264Z"/><path d="M34.573,10.181l-1.146,1.638A20.509,20.509,0,0,1,35.093,13.5l.18.192,1.454-1.374-.174-.185A18.061,18.061,0,0,0,34.573,10.181Z"/><path d="M37.147,15.478l1.706,1.044a7.029,7.029,0,0,1,1.727-1.708l-1.16-1.628A8.9,8.9,0,0,0,37.147,15.478Z"/><path d="M42.233,11.027C41.735,10.908,41,10.347,41,10H39c0,1.575,1.651,2.705,2.767,2.973Z"/><path d="M28.293,12.207A4.952,4.952,0,0,1,29,13h2a3.339,3.339,0,0,0-1.293-2.207A3.83,3.83,0,0,1,29,9.958.2.2,0,0,1,29,10H27A3.339,3.339,0,0,0,28.293,12.207Z"/><path d="M33.373,7.058a7.96,7.96,0,0,0-.689-.788L31.316,7.73a6.155,6.155,0,0,1,.5.582,4.509,4.509,0,0,0,1.9,1.647L34.3,8.048A5.211,5.211,0,0,1,33.373,7.058Z"/><path d="M24.742,14.326a4.4,4.4,0,0,0,2.966,2.63l.584-1.912a2.493,2.493,0,0,1-1.66-1.37Z"/><path d="M22.464,46.913l-.931,1.77c.718.378,1.438.751,2.168,1.1A19.361,19.361,0,0,0,31.985,52a11.327,11.327,0,0,0,2.7-.316,19.565,19.565,0,0,0,5.691-2.759,25.6,25.6,0,0,1,3.653-2.032,26.314,26.314,0,0,1,3.393-1.071,17.408,17.408,0,0,0,5.662-2.258A16.74,16.74,0,0,0,56.8,39.551L55.182,38.38a14.979,14.979,0,0,1-3.245,3.546A15.709,15.709,0,0,1,46.9,43.89a28.173,28.173,0,0,0-3.651,1.159,27.428,27.428,0,0,0-3.942,2.182,17.752,17.752,0,0,1-5.1,2.509c-2.67.654-5.824.077-9.641-1.759C23.86,47.641,23.161,47.279,22.464,46.913Z"/><path d="M18.084,46.9c.653.315,1.3.647,1.939.985l.93-1.772c-.663-.347-1.328-.689-2-1.013Z"/></g></svg>