<svg xmlns="http://www.w3.org/2000/svg" viewBox="0 0 64 64"><g id="_30-White_Bread" data-name="30-White Bread"><path d="M29,55v5C18,60,5,54.74,5,47V44.99a5.993,5.993,0,0,1,1.31-3.63l.8-1,.09-.11a5.977,5.977,0,0,1,4.37-2.23A4.982,4.982,0,0,0,7,43a6.722,6.722,0,0,0,1.96,4.44C12.92,51.87,22.13,55,29,55Z" style="fill:#eea439"/><polygon points="42 49 42 54 29 60 29 55 42 49" style="fill:#d17824"/><path d="M7.88,29H8a5,5,0,0,0-5,5c0,2.34,1.62,4.53,4.11,6.36l-.8,1A5.993,5.993,0,0,0,5,44.99C2.54,43.03,1,40.66,1,38V36.1a5.976,5.976,0,0,1,1.31-3.74l.89-1.11A6,6,0,0,1,7.88,29Z" style="fill:#e69625"/><polygon points="38 40 38 45 37.11 45.41 32.92 42.34 38 40" style="fill:#bf5d1b"/><path d="M42,49,29,55c-6.87,0-16.08-3.13-20.04-7.56A6.722,6.722,0,0,1,7,43a4.982,4.982,0,0,1,4.57-4.98,1.615,1.615,0,0,1,.31-.02H27l5.92,4.34,4.19,3.07Z" style="fill:#ffcd8e"/><path d="M38,40l-5.08,2.34L27,38H11.88a1.615,1.615,0,0,0-.31.02A5.977,5.977,0,0,0,7.2,40.25l-.09.11C4.62,38.53,3,36.34,3,34a5,5,0,0,1,5-5H23Z" style="fill:#ffc070"/><path d="M49,17a4.011,4.011,0,0,1-2.48,3.7,4.882,4.882,0,0,1-.65.2L45,40H38L23,29H20.5l-.37-8.1a4.075,4.075,0,0,1-2.24-1.38A4.028,4.028,0,0,1,17,17.1a5.026,5.026,0,0,1,.06-.78,1.355,1.355,0,0,1,.02-.2c.02-.1.04-.2.07-.3a4.436,4.436,0,0,1,2.06-2.77C21.91,11.48,26.8,10,33,10s11.09,1.48,13.79,3.05A4.538,4.538,0,0,1,49,17Z" style="fill:#ffcd8e"/><path d="M63,11a4,4,0,0,1-3,4L46.55,20.77l-.03-.07A4.011,4.011,0,0,0,49,17a4.538,4.538,0,0,0-2.21-3.95C44.09,11.48,39.2,10,33,10s-11.09,1.48-13.79,3.05a4.436,4.436,0,0,0-2.06,2.77,5.97,5.97,0,0,1,3.66-4.31l12.51-4.9a37.763,37.763,0,0,1,5.37-1.64.224.224,0,0,1,.1-.03c1.02-.23,2.05-.42,3.08-.57.29-.04.58-.08.88-.11.58-.07,1.17-.13,1.76-.17.27-.02.55-.03.82-.05.62-.03,1.23-.04,1.84-.04,6.12.03,10.94,1.49,13.62,3.05A4.538,4.538,0,0,1,63,11Z" style="fill:#eea439"/><path d="M46.55,20.77,60,15,59,34,45,40l.87-19.1a4.882,4.882,0,0,0,.65-.2Z" style="fill:#d17824"/><path d="M48.608,30.271l.159-2.543a6,6,0,0,1,3.681-5.165l7.314-3.047L60,15,46.55,20.77l-.03-.07a4.882,4.882,0,0,1-.65.2L45,40l8.2-3.516A6,6,0,0,1,48.608,30.271Z" style="fill:#bf5d1b"/><path d="M60.79,7.05C58.11,5.49,53.29,4.03,47.17,4c-.61,0-1.22.01-1.84.04-.27.02-.55.03-.82.05-.136.009-.27.028-.407.039,6.351.558,10.365,2.067,12.764,3.418a2,2,0,0,1-.379,3.624l-8.559,2.853A4.647,4.647,0,0,1,49,17a4.011,4.011,0,0,1-2.48,3.7l.03.07L60,15a4,4,0,0,0,3-4A4.538,4.538,0,0,0,60.79,7.05Z" style="fill:#d17824"/><path d="M38.222,6.16a.911.911,0,0,0-.109.115c-.362.462.227.889.62,1.164,1.3.911,3.35.842,4.912,1.082a25.209,25.209,0,0,0,5.4.454,1.3,1.3,0,0,0,.638-.159.766.766,0,0,0,.306-.551,1.713,1.713,0,0,0-.646-1.441A4.769,4.769,0,0,0,47.809,6c-2.833-1.042-6.38-1.541-9.175-.1A1.876,1.876,0,0,0,38.222,6.16Z" style="fill:#ffcb78"/><path d="M51.477,8.17c-.643.267-.636.8.022,1.19a4.929,4.929,0,0,0,1.442.561,2.3,2.3,0,0,0,1.246-.014c.384-.138.934-.653.789-1.063-.31-.877-2.505-.957-3.286-.746A1.711,1.711,0,0,0,51.477,8.17Z" style="fill:#ffcb78"/><path d="M42.188,23.176a4.969,4.969,0,0,0-.9,2.148,11.761,11.761,0,0,0-.24,2.832,22.413,22.413,0,0,1,.134,4.064A3.382,3.382,0,0,1,38.793,35.2a4.576,4.576,0,0,1-2.08-.26c-2.707-.781-5.485-1.677-7.592-3.548-1.222-1.086-2.173-2.464-3.47-3.459a8.426,8.426,0,0,0-5.276-1.657L20.5,29H23L38,40h7l.864-18.967A5.939,5.939,0,0,0,42.188,23.176Z" style="fill:#f5b96e"/><path d="M32.846,55.231,42,51.417V49L29,55v5l2-.923V58A3,3,0,0,1,32.846,55.231Z" style="fill:#bf5d1b"/><path d="M29,55a33.342,33.342,0,0,1-17.667-5.48,3.9,3.9,0,0,0-2.2,4.57C13.851,57.774,21.847,60,29,60Z" style="fill:#ffb64d"/><rect x="58.788" y="18" width="2.003" height="2.001" transform="translate(37.722 77.726) rotate(-87.034)"/><path d="M61.293,6.186c-3-1.747-7.5-2.877-12.293-3.129V3H47.17c-.627,0-1.252.01-1.875.041-.306.011-.6.021-.853.051-.307.021-.614.047-.913.077h-.006c-.29.029-.573.06-.841.093-.326.023-.64.065-.915.112-.07.01-.14.023-.21.033a29,29,0,0,0-2.942.547l-.01,0a39.14,39.14,0,0,0-5.646,1.724l-12.51,4.9a6.94,6.94,0,0,0-4.255,4.955l0,0a3.312,3.312,0,0,0-.092.4c-.015.093-.074.556-.079.7s-.021.477-.021.486a5.024,5.024,0,0,0,1.118,3.034,5.1,5.1,0,0,0,2.045,1.49l.2,4.4,2-.092-.233-5.1a1,1,0,0,0-.779-.929A3.068,3.068,0,0,1,18.674,18.9,3.022,3.022,0,0,1,18,17.1v-.01a5.21,5.21,0,0,1,.048-.64c0-.024.063-.354.072-.386a3.428,3.428,0,0,1,1.593-2.15C20.889,13.23,25.323,11,33,11s12.111,2.23,13.289,2.915A3.543,3.543,0,0,1,48,17a2.984,2.984,0,0,1-2.349,2.925,1,1,0,0,0-.78.929L44.045,39H41v2h4a1,1,0,0,0,.393-.083v0l14-6A1,1,0,0,0,60,34.053l.632-12-2-.106-.6,11.379L46.072,38.453l.761-16.722,13.48-5.778A4.982,4.982,0,0,0,64,11,5.546,5.546,0,0,0,61.293,6.186Zm-1.512,7.838a1.021,1.021,0,0,0-.175.057l-9.78,4.192A5.058,5.058,0,0,0,50,17a5.546,5.546,0,0,0-2.707-4.814C43.86,10.19,38.518,9,33,9c-1.169,0-2.325.065-3.462.168l4.149-1.624a36.875,36.875,0,0,1,8.2-2.165c.048-.006.095-.016.143-.022A37.07,37.07,0,0,1,47.167,5c7.594.038,11.962,2.24,13.122,2.915A3.543,3.543,0,0,1,62,11,2.99,2.99,0,0,1,59.781,14.024Z"/><path d="M42.589,48.2l0,0-3.717-2.726A.991.991,0,0,0,39,45V40a1,1,0,0,0-.412-.8l0-.006-15-11A1,1,0,0,0,23,28H12v2H22.673l13.366,9.8-3,1.384-5.444-3.993A1,1,0,0,0,27,37H24v2h2.673l13.368,9.8L28.792,53.994C21.754,53.932,13.233,50.72,9.7,46.772A5.729,5.729,0,0,1,8,43a3.985,3.985,0,0,1,4-4H22V37H11.88a6.956,6.956,0,0,0-4.889,2C5.5,37.759,4,36.018,4,34a4,4,0,0,1,4-4h2V28H7.88a6.971,6.971,0,0,0-5.46,2.624l-.891,1.11A7.006,7.006,0,0,0,0,36.1V38c0,2.673,1.391,5.236,4,7.446V47c0,8.25,13.176,14,25,14a.993.993,0,0,0,.419-.092l13-6A1,1,0,0,0,43,54V49A1,1,0,0,0,42.589,48.2ZM2,38V36.1a5.022,5.022,0,0,1,.111-1A9.509,9.509,0,0,0,5.7,40.519l-.172.214a6.9,6.9,0,0,0-1.2,2.307A7.388,7.388,0,0,1,2,38Zm4,9V45.013a5.052,5.052,0,0,1,.108-.9,8.219,8.219,0,0,0,2.107,4C12.359,52.743,21.441,55.694,28,55.972v3.013C17.411,58.684,6,53.658,6,47Zm31-5.438v2.532l-2.121-1.556Zm4,11.8L30,58.438v-2.8l11-5.078Z"/></g></svg>