<svg id="_01-pancake" data-name="01-pancake" xmlns="http://www.w3.org/2000/svg" viewBox="0 0 64 64"><path d="M9,43.636q.953-.272,2-.521" style="fill:none;stroke:#000;stroke-linejoin:round;stroke-width:2px"/><path d="M57.005,44.271C60.774,45.6,63,47.231,63,49c0,4.418-13.879,8-31,8S1,53.418,1,49c0-1.77,2.228-3.406,6-4.731" style="fill:none;stroke:#000;stroke-linejoin:round;stroke-width:2px"/><path d="M57,53v1l-2,2c0,3.866-9.193,7-23,7S9,59.866,9,56L7,54V53" style="fill:none;stroke:#000;stroke-linejoin:round;stroke-width:2px"/><path d="M29,24.943C19.932,24.592,13,22.611,13,19V15" style="fill:none;stroke:#000;stroke-linejoin:round;stroke-width:2px"/><path d="M51,15v4c0,2.437-3.158,4.132-8,5.084" style="fill:none;stroke:#000;stroke-linejoin:round;stroke-width:2px"/><path d="M23,19c-5.823-.05-10-.594-10-4,0-1.439,1.1-2.65,3-3.606" style="fill:none;stroke:#000;stroke-linejoin:round;stroke-width:2px"/><path d="M50,12.749A3.246,3.246,0,0,1,51,15c0,2.831-2.728,3.739-7,3.993" style="fill:none;stroke:#000;stroke-linejoin:round;stroke-width:2px"/><path d="M51,25v4c0,4-8.507,6-19,6s-19-2-19-6V25" style="fill:none;stroke:#000;stroke-linejoin:round;stroke-width:2px"/><path d="M32,29h0c-10.493,0-19,1-19-4a3.661,3.661,0,0,1,2.026-3" style="fill:none;stroke:#000;stroke-linejoin:round;stroke-width:2px"/><path d="M48.974,22A3.664,3.664,0,0,1,51,25c0,3.047-3.159,3.866-8,4.041" style="fill:none;stroke:#000;stroke-linejoin:round;stroke-width:2px"/><path d="M42,44.266A61.56,61.56,0,0,1,32,45c-10.493,0-19-2-19-6V35" style="fill:none;stroke:#000;stroke-linejoin:round;stroke-width:2px"/><path d="M51,35v4c0,2.265-2.728,3.889-7,4.871" style="fill:none;stroke:#000;stroke-linejoin:round;stroke-width:2px"/><path d="M24,39.081C17.5,39.1,13,38.638,13,35a3.661,3.661,0,0,1,2.026-3" style="fill:none;stroke:#000;stroke-linejoin:round;stroke-width:2px"/><path d="M28,39.036c-.682.009-1.35.02-2,.028" style="fill:none;stroke:#000;stroke-linejoin:round;stroke-width:2px"/><path d="M48.974,32A3.664,3.664,0,0,1,51,35c0,5-8.507,4-19,4q-1.014,0-2,.011" style="fill:none;stroke:#000;stroke-linejoin:round;stroke-width:2px"/><path d="M42,54.266A61.56,61.56,0,0,1,32,55a52.27,52.27,0,0,1-13-1.378" style="fill:none;stroke:#000;stroke-linejoin:round;stroke-width:2px"/><path d="M48,48.393C44.621,49.41,38.718,49,32,49c-10.493,0-19,1-19-4a3.661,3.661,0,0,1,2.026-3" style="fill:none;stroke:#000;stroke-linejoin:round;stroke-width:2px"/><path d="M48.974,42a4.4,4.4,0,0,1,1.837,2" style="fill:none;stroke:#000;stroke-linejoin:round;stroke-width:2px"/><circle cx="20" cy="12" r="4" style="fill:none;stroke:#000;stroke-linejoin:round;stroke-width:2px"/><path d="M27,10.646A3.991,3.991,0,0,1,24,12" style="fill:none;stroke:#000;stroke-linejoin:round;stroke-width:2px"/><path d="M20,8a4,4,0,0,1,8,0" style="fill:none;stroke:#000;stroke-linejoin:round;stroke-width:2px"/><circle cx="52" cy="48" r="4" style="fill:none;stroke:#000;stroke-linejoin:round;stroke-width:2px"/><path d="M43,56.645A4,4,0,1,1,49.465,56" style="fill:none;stroke:#000;stroke-linejoin:round;stroke-width:2px"/><path d="M11.536,55a4,4,0,1,1,6.11,1" style="fill:none;stroke:#000;stroke-linejoin:round;stroke-width:2px"/><path d="M11,53.874A4,4,0,1,1,13.873,49" style="fill:none;stroke:#000;stroke-linejoin:round;stroke-width:2px"/><path d="M41.994,12.873a4,4,0,1,1,4.878-4.879" style="fill:none;stroke:#000;stroke-linejoin:round;stroke-width:2px"/><circle cx="46" cy="12" r="4" style="fill:none;stroke:#000;stroke-linejoin:round;stroke-width:2px"/><path d="M43,5s0-4,4-4C47,1,47,5,43,5Z" style="fill:none;stroke:#000;stroke-linejoin:round;stroke-width:2px"/><path d="M43,5s0-4-4-4C39,1,39,5,43,5Z" style="fill:none;stroke:#000;stroke-linejoin:round;stroke-width:2px"/><path d="M19,8s0-4-4-4C15,4,15,8,19,8Z" style="fill:none;stroke:#000;stroke-linejoin:round;stroke-width:2px"/><polygon points="36 9 27 9 31 6 39 6 36 9" style="fill:none;stroke:#000;stroke-linejoin:round;stroke-width:2px"/><polyline points="36 9 36 14 27 14 27 9" style="fill:none;stroke:#000;stroke-linejoin:round;stroke-width:2px"/><polyline points="39 6 39 11 36 14" style="fill:none;stroke:#000;stroke-linejoin:round;stroke-width:2px"/><path d="M27,12.035A3.5,3.5,0,0,0,27.5,19H31v6a2,2,0,0,0,4,0v2a3,3,0,0,0,6,0V17.944A3.5,3.5,0,0,0,38.5,12H38" style="fill:none;stroke:#000;stroke-linejoin:round;stroke-width:2px"/><line x1="45" y1="10" x2="47" y2="11" style="fill:none;stroke:#000;stroke-linejoin:round;stroke-width:2px"/><line x1="45" y1="52" x2="47" y2="53" style="fill:none;stroke:#000;stroke-linejoin:round;stroke-width:2px"/><line x1="18" y1="11" x2="20" y2="10" style="fill:none;stroke:#000;stroke-linejoin:round;stroke-width:2px"/><line x1="9" y1="49" x2="11" y2="48" style="fill:none;stroke:#000;stroke-linejoin:round;stroke-width:2px"/><line x1="51" y1="47" x2="53" y2="47" style="fill:none;stroke:#000;stroke-linejoin:round;stroke-width:2px"/><line x1="14" y1="52" x2="16" y2="52" style="fill:none;stroke:#000;stroke-linejoin:round;stroke-width:2px"/></svg>