<svg xmlns="http://www.w3.org/2000/svg" viewBox="0 0 64 64"><g id="_02-cookie" data-name="02-cookie"><circle cx="40" cy="43" r="3" style="fill:none;stroke:#000;stroke-linejoin:round;stroke-width:2px"/><circle cx="53" cy="48" r="3" style="fill:none;stroke:#000;stroke-linejoin:round;stroke-width:2px"/><circle cx="54" cy="34" r="3" style="fill:none;stroke:#000;stroke-linejoin:round;stroke-width:2px"/><circle cx="38" cy="31" r="3" style="fill:none;stroke:#000;stroke-linejoin:round;stroke-width:2px"/><circle cx="30" cy="49" r="3" style="fill:none;stroke:#000;stroke-linejoin:round;stroke-width:2px"/><path d="M3.6,11.15a19.972,19.972,0,0,0,6.52,26.62" style="fill:none;stroke:#000;stroke-linejoin:round;stroke-width:2px"/><path d="M7.53,6.22A19.889,19.889,0,0,1,27.71,2.18a4.6,4.6,0,0,0-2.22,2.31,2.457,2.457,0,0,0-.02,1.29,3.579,3.579,0,0,0,.83,1.28,12.043,12.043,0,0,1,2.36,3.21c.66,1.61.5,3.46,1.18,5.06a7.787,7.787,0,0,0,1.64,2.31,7.411,7.411,0,0,0,3.51,2.22c1.97.46,3.83-.27,5.92-.65.05.59.09,1.19.09,1.79a20.987,20.987,0,0,1-.11,2.11" style="fill:none;stroke:#000;stroke-linejoin:round;stroke-width:2px"/><path d="M15.86,40.33a19.679,19.679,0,0,0,4.14.646" style="fill:none;stroke:#000;stroke-linejoin:round;stroke-width:2px"/><circle cx="6" cy="23" r="3" style="fill:none;stroke:#000;stroke-linejoin:round;stroke-width:2px"/><circle cx="16" cy="27" r="3" style="fill:none;stroke:#000;stroke-linejoin:round;stroke-width:2px"/><circle cx="23" cy="18" r="3" style="fill:none;stroke:#000;stroke-linejoin:round;stroke-width:2px"/><circle cx="19" cy="7" r="3" style="fill:none;stroke:#000;stroke-linejoin:round;stroke-width:2px"/><ellipse cx="6" cy="9" rx="3.226" ry="2.754" transform="translate(-4.606 6.874) rotate(-44.974)" style="fill:none;stroke:#000;stroke-linejoin:round;stroke-width:2px"/><ellipse cx="54" cy="58" rx="3.226" ry="2.754" transform="translate(-25.195 55.136) rotate(-44.974)" style="fill:none;stroke:#000;stroke-linejoin:round;stroke-width:2px"/><ellipse cx="13" cy="39" rx="2.754" ry="3.226" transform="translate(-23.761 20.599) rotate(-44.974)" style="fill:none;stroke:#000;stroke-linejoin:round;stroke-width:2px"/><ellipse cx="31" cy="59" rx="2.754" ry="3.226" transform="translate(-32.631 39.173) rotate(-44.974)" style="fill:none;stroke:#000;stroke-linejoin:round;stroke-width:2px"/><path d="M34.4,12.509a.845.845,0,0,0-.3.22.628.628,0,0,0-.1.392,3.463,3.463,0,0,0,1.607,2.314,1.725,1.725,0,0,0,1.342.547,1.475,1.475,0,0,0,.67-.4,5.561,5.561,0,0,0,1.117-1.425,1.63,1.63,0,0,0,.257-.951,1.811,1.811,0,0,0-.3-.71c-.382-.616-.817-1.676-1.587-1.47A16.369,16.369,0,0,0,34.4,12.509Z" style="fill:none;stroke:#000;stroke-linejoin:round;stroke-width:2px"/><path d="M37.733,6.3a1.52,1.52,0,0,1,1.609-.128,1.8,1.8,0,0,1,.605,1.92,1.168,1.168,0,0,1-.485.811,1.332,1.332,0,0,1-1.252-.2C37.081,8.076,36.4,7.21,37.733,6.3Z" style="fill:none;stroke:#000;stroke-linejoin:round;stroke-width:2px"/><path d="M30.673,2.459a1.14,1.14,0,0,0-.527.386,1.272,1.272,0,0,0-.141.766,4.6,4.6,0,0,0,.639,1.955,3.3,3.3,0,0,0,.938,1.112,2.221,2.221,0,0,0,2.835-.49A2.009,2.009,0,0,0,35,4.974a2.944,2.944,0,0,0-.39-1.409,2.953,2.953,0,0,0-.558-.89A2.8,2.8,0,0,0,30.673,2.459Z" style="fill:none;stroke:#000;stroke-linejoin:round;stroke-width:2px"/><path d="M62.9,41q.1.987.1,2a19.927,19.927,0,0,1-6.01,14.29" style="fill:none;stroke:#000;stroke-linejoin:round;stroke-width:2px"/><path d="M62.085,37a19.884,19.884,0,0,1,.515,2" style="fill:none;stroke:#000;stroke-linejoin:round;stroke-width:2px"/><path d="M28.59,56.86A19.917,19.917,0,0,1,23,43a20.987,20.987,0,0,1,.11-2.11A19.987,19.987,0,0,1,40.89,23.11,20.987,20.987,0,0,1,43,23,20,20,0,0,1,61.336,35" style="fill:none;stroke:#000;stroke-linejoin:round;stroke-width:2px"/><path d="M52.3,60.7h-.01a19.932,19.932,0,0,1-18.59,0" style="fill:none;stroke:#000;stroke-linejoin:round;stroke-width:2px"/><line x1="37" y1="52" x2="39" y2="54" style="fill:none;stroke:#000;stroke-linejoin:round;stroke-width:2px"/><line x1="51" y1="40" x2="49" y2="42" style="fill:none;stroke:#000;stroke-linejoin:round;stroke-width:2px"/><line x1="27" y1="39" x2="29" y2="41" style="fill:none;stroke:#000;stroke-linejoin:round;stroke-width:2px"/><line x1="34" y1="37" x2="32" y2="39" style="fill:none;stroke:#000;stroke-linejoin:round;stroke-width:2px"/><line x1="43" y1="59" x2="45" y2="57" style="fill:none;stroke:#000;stroke-linejoin:round;stroke-width:2px"/><line x1="44" y1="32" x2="46" y2="34" style="fill:none;stroke:#000;stroke-linejoin:round;stroke-width:2px"/><line x1="47" y1="27" x2="45" y2="28" style="fill:none;stroke:#000;stroke-linejoin:round;stroke-width:2px"/><line x1="58" y1="40" x2="59" y2="42" style="fill:none;stroke:#000;stroke-linejoin:round;stroke-width:2px"/><line x1="46" y1="50" x2="44" y2="51" style="fill:none;stroke:#000;stroke-linejoin:round;stroke-width:2px"/><line x1="13" y1="17" x2="15" y2="19" style="fill:none;stroke:#000;stroke-linejoin:round;stroke-width:2px"/><line x1="23" y1="24" x2="24" y2="26" style="fill:none;stroke:#000;stroke-linejoin:round;stroke-width:2px"/><line x1="19" y1="35" x2="21" y2="33" style="fill:none;stroke:#000;stroke-linejoin:round;stroke-width:2px"/><line x1="8" y1="30" x2="10" y2="31" style="fill:none;stroke:#000;stroke-linejoin:round;stroke-width:2px"/><line x1="6" y1="15" x2="7" y2="17" style="fill:none;stroke:#000;stroke-linejoin:round;stroke-width:2px"/><line x1="30" y1="21" x2="29" y2="23" style="fill:none;stroke:#000;stroke-linejoin:round;stroke-width:2px"/><line x1="13" y1="9" x2="14" y2="11" style="fill:none;stroke:#000;stroke-linejoin:round;stroke-width:2px"/></g></svg>