<svg xmlns="http://www.w3.org/2000/svg" viewBox="0 0 64 64"><g id="_03-blueberry_cheesecake" data-name="03-blueberry cheesecake"><path d="M34.85,31.61a7,7,0,1,1-5.7,0" style="fill:none;stroke:#000;stroke-linejoin:round;stroke-width:2px"/><ellipse cx="32" cy="31" rx="3" ry="2" style="fill:none;stroke:#000;stroke-linejoin:round;stroke-width:2px"/><path d="M41.15,31.61A6.945,6.945,0,0,0,38,34.4" style="fill:none;stroke:#000;stroke-linejoin:round;stroke-width:2px"/><path d="M46.85,31.61a3.947,3.947,0,0,1,.46.23A6.963,6.963,0,0,1,51,38a6.748,6.748,0,0,1-.18,1.57A7,7,0,0,1,38,41.6" style="fill:none;stroke:#000;stroke-linejoin:round;stroke-width:2px"/><ellipse cx="44" cy="31" rx="3" ry="2" style="fill:none;stroke:#000;stroke-linejoin:round;stroke-width:2px"/><path d="M47.31,31.84a1.519,1.519,0,0,1,.06-.2,6.04,6.04,0,0,1,5.21-4.09" style="fill:none;stroke:#000;stroke-linejoin:round;stroke-width:2px"/><path d="M57.17,29.28a6.363,6.363,0,0,1,1.46,6.61,5.933,5.933,0,0,1-7.69,3.73c-.04-.02-.08-.03-.12-.05" style="fill:none;stroke:#000;stroke-linejoin:round;stroke-width:2px"/><ellipse cx="55.056" cy="27.906" rx="1.773" ry="2.582" transform="translate(8.647 68.602) rotate(-68.126)" style="fill:none;stroke:#000;stroke-linejoin:round;stroke-width:2px"/><path d="M11.42,27.55a6.04,6.04,0,0,1,5.21,4.09,1.519,1.519,0,0,1,.06.2" style="fill:none;stroke:#000;stroke-linejoin:round;stroke-width:2px"/><path d="M6.83,29.28a6.363,6.363,0,0,0-1.46,6.61,5.933,5.933,0,0,0,7.69,3.73c.04-.02.08-.03.12-.05" style="fill:none;stroke:#000;stroke-linejoin:round;stroke-width:2px"/><ellipse cx="8.944" cy="27.906" rx="2.582" ry="1.773" transform="translate(-9.753 5.341) rotate(-21.874)" style="fill:none;stroke:#000;stroke-linejoin:round;stroke-width:2px"/><path d="M26,41.6a7,7,0,0,1-12.82-2.03A6.748,6.748,0,0,1,13,38a6.963,6.963,0,0,1,3.69-6.16,3.947,3.947,0,0,1,.46-.23" style="fill:none;stroke:#000;stroke-linejoin:round;stroke-width:2px"/><path d="M26,34.4a6.945,6.945,0,0,0-3.15-2.79" style="fill:none;stroke:#000;stroke-linejoin:round;stroke-width:2px"/><ellipse cx="20" cy="31" rx="3" ry="2" style="fill:none;stroke:#000;stroke-linejoin:round;stroke-width:2px"/><circle cx="33" cy="18" r="5" style="fill:none;stroke:#000;stroke-linejoin:round;stroke-width:2px"/><path d="M33,16s1-5,4-5" style="fill:none;stroke:#000;stroke-linejoin:round;stroke-width:2px"/><path d="M17,16v3.71a10.239,10.239,0,0,0,3.5,7.79c1.52,1.3,3.03,2.98,3.41,4.7" style="fill:none;stroke:#000;stroke-linejoin:round;stroke-width:2px"/><path d="M11.17,27.66v-.01A7.812,7.812,0,0,1,11,26a9.355,9.355,0,0,1,.16-1.78C12.33,17.36,20,14,20,14a2.008,2.008,0,0,0,.01.25,10.071,10.071,0,0,0,.21,1.22v.01a9.715,9.715,0,0,0,4.81,6.6A9.337,9.337,0,0,0,28,23c.42.06.81.13,1.19.21h.01a13.789,13.789,0,0,1,5.7,2.48A5.439,5.439,0,0,1,37,30a7.842,7.842,0,0,1-.46,2.67" style="fill:none;stroke:#000;stroke-linejoin:round;stroke-width:2px"/><path d="M34,25s2.75-5,8.44-5c5.59,0,5.28-5,5.28-5a17.057,17.057,0,0,1,2.27,2.19v.01A10.794,10.794,0,0,1,53,24a7.451,7.451,0,0,1-.07,1.06v.01a10.862,10.862,0,0,1-1.15,3.6" style="fill:none;stroke:#000;stroke-linejoin:round;stroke-width:2px"/><path d="M41.14,30.41V30.4C39.88,28.29,40.3,25,44,25c5.43,0,5.95-6.56,5.99-7.8v-.01C50,17.07,50,17,50,17" style="fill:none;stroke:#000;stroke-linejoin:round;stroke-width:2px"/><path d="M53,25s-.02.02-.07.06v.01A11.835,11.835,0,0,1,48,27.629" style="fill:none;stroke:#000;stroke-linejoin:round;stroke-width:2px"/><path d="M25,22s.01.03.03.08A12.577,12.577,0,0,0,28,27a5.315,5.315,0,0,1,1.37,3.04v.01" style="fill:none;stroke:#000;stroke-linejoin:round;stroke-width:2px"/><path d="M11,24s.05.08.16.22A11.888,11.888,0,0,0,15,27.578" style="fill:none;stroke:#000;stroke-linejoin:round;stroke-width:2px"/><path d="M28.153,12c-.56-2.448.407-6.087,3.1-8.778a6.708,6.708,0,0,1,9.238-.711C41.811,3.833,42.668,7.633,40,11" style="fill:none;stroke:#000;stroke-linejoin:round;stroke-width:2px"/><line x1="40.489" y1="2.511" x2="29.119" y2="13.881" style="fill:none;stroke:#000;stroke-linejoin:round;stroke-width:2px"/><path d="M28,19.855a7.158,7.158,0,0,1-6.413-2.177,4.793,4.793,0,0,1-.508-6.6,4.793,4.793,0,0,1,6.6.508A8.12,8.12,0,0,1,29.721,15" style="fill:none;stroke:#000;stroke-linejoin:round;stroke-width:2px"/><line x1="21.079" y1="11.079" x2="28.002" y2="18.002" style="fill:none;stroke:#000;stroke-linejoin:round;stroke-width:2px"/><path d="M37.8,19.2c1.4,1.4,5.091,1,7.614-1.523a4.793,4.793,0,0,0,.508-6.6,4.793,4.793,0,0,0-6.6.508A8.108,8.108,0,0,0,37.279,15" style="fill:none;stroke:#000;stroke-linejoin:round;stroke-width:2px"/><line x1="45.921" y1="11.079" x2="38" y2="19" style="fill:none;stroke:#000;stroke-linejoin:round;stroke-width:2px"/><path d="M7.077,39A2.763,2.763,0,0,0,6,41a1.969,1.969,0,0,0,.061.456L8,56c0,3.866,10.745,7,24,7s24-3.134,24-7l1.939-14.544A1.969,1.969,0,0,0,58,41" style="fill:none;stroke:#000;stroke-linejoin:round;stroke-width:2px"/><path d="M50,46.051A75.07,75.07,0,0,1,32,48C17.641,48,6,44.866,6,41a2.763,2.763,0,0,1,1.077-2" style="fill:none;stroke:#000;stroke-linejoin:round;stroke-width:2px"/><path d="M57,39.069A2.7,2.7,0,0,1,58,41c0,1.7-2.253,3.26-6,4.473" style="fill:none;stroke:#000;stroke-linejoin:round;stroke-width:2px"/><line x1="57.63" y1="43.82" x2="57.63" y2="43.81" style="fill:none;stroke:#000;stroke-linejoin:round;stroke-width:2px"/><line x1="6.37" y1="43.82" x2="6.37" y2="43.81" style="fill:none;stroke:#000;stroke-linejoin:round;stroke-width:2px"/><path d="M13,49.777c-2.984-.861-5.17-1.925-6.24-3.107" style="fill:none;stroke:#000;stroke-linejoin:round;stroke-width:2px"/><path d="M17,50.718q-1.041-.2-2-.423" style="fill:none;stroke:#000;stroke-linejoin:round;stroke-width:2px"/><path d="M57.25,46.66l-.01.01C54.47,49.73,44.22,52,32,52a85.681,85.681,0,0,1-13-.937" style="fill:none;stroke:#000;stroke-linejoin:round;stroke-width:2px"/><line x1="51" y1="53" x2="51" y2="55" style="fill:none;stroke:#000;stroke-linejoin:round;stroke-width:2px"/><line x1="44" y1="55" x2="43" y2="57" style="fill:none;stroke:#000;stroke-linejoin:round;stroke-width:2px"/><line x1="12" y1="53" x2="12" y2="55" style="fill:none;stroke:#000;stroke-linejoin:round;stroke-width:2px"/><line x1="16" y1="55" x2="17" y2="57" style="fill:none;stroke:#000;stroke-linejoin:round;stroke-width:2px"/><line x1="35" y1="55" x2="34" y2="57" style="fill:none;stroke:#000;stroke-linejoin:round;stroke-width:2px"/><line x1="22" y1="55" x2="23" y2="57" style="fill:none;stroke:#000;stroke-linejoin:round;stroke-width:2px"/><line x1="48" y1="55" x2="49" y2="57" style="fill:none;stroke:#000;stroke-linejoin:round;stroke-width:2px"/></g></svg>