<svg xmlns="http://www.w3.org/2000/svg" viewBox="0 0 64 64"><g id="_04-cupcake" data-name="04-cupcake"><path d="M23,10s-4,0-4-4C19,6,23,6,23,10Z" style="fill:none;stroke:#000;stroke-linejoin:round;stroke-width:2px"/><path d="M23,10s-4,0-4,4C19,14,23,14,23,10Z" style="fill:none;stroke:#000;stroke-linejoin:round;stroke-width:2px"/><path d="M24.52,15H24a2.87,2.87,0,0,1-.46,1.38A5.692,5.692,0,0,1,22,18a6.586,6.586,0,0,1-.99-.79,2.664,2.664,0,0,1-.78-3.15c.05-.11.1-.21.15-.31" style="fill:none;stroke:#000;stroke-linejoin:round;stroke-width:2px"/><path d="M20.27,6.21C19.13,3.91,22,2,22,2c1.56,1.04,2.04,2.08,2,3h.52" style="fill:none;stroke:#000;stroke-linejoin:round;stroke-width:2px"/><path d="M35,57.93V58c0,2.76-4.92,5-11,5-4.74,0-8.77-1.36-10.32-3.27A4.758,4.758,0,0,0,10,58c-5.8,0-9-2.46-9-5.5,0-2.27,2.63-4.23,6.38-5.06h.01" style="fill:none;stroke:#000;stroke-linejoin:round;stroke-width:2px"/><path d="M13.365,16C9.408,17.591,7,19.7,7,22c0,4.97,11.19,9,25,9s25-4.03,25-9c0-2.944-3.927-5.558-10-7.2" style="fill:none;stroke:#000;stroke-linejoin:round;stroke-width:2px"/><path d="M17,14.8q-1.044.282-2,.6" style="fill:none;stroke:#000;stroke-linejoin:round;stroke-width:2px"/><line x1="36.38" y1="13.14" x2="36.37" y2="13.14" style="fill:none;stroke:#000;stroke-linejoin:round;stroke-width:2px"/><path d="M8.96,45.5a5.97,5.97,0,0,0-1.57,1.94H7.38" style="fill:none;stroke:#000;stroke-linejoin:round;stroke-width:2px"/><path d="M55.5,37.07A2,2,0,0,1,57,39v3a4.743,4.743,0,0,1-1.96,3.5A21.17,21.17,0,0,1,47,49.193" style="fill:none;stroke:#000;stroke-linejoin:round;stroke-width:2px"/><path d="M21.31,50.13A63.3,63.3,0,0,0,32,51q2.044,0,4-.118" style="fill:none;stroke:#000;stroke-linejoin:round;stroke-width:2px"/><path d="M15,48.6a21.437,21.437,0,0,1-5-2.32" style="fill:none;stroke:#000;stroke-linejoin:round;stroke-width:2px"/><line x1="7" y1="36" x2="7" y2="34" style="fill:none;stroke:#000;stroke-linejoin:round;stroke-width:2px"/><path d="M8.96,45.5A4.743,4.743,0,0,1,7,42V38" style="fill:none;stroke:#000;stroke-linejoin:round;stroke-width:2px"/><path d="M34,42.972q1.012-.029,2-.086" style="fill:none;stroke:#000;stroke-linejoin:round;stroke-width:2px"/><path d="M24.02,42.53A65.375,65.375,0,0,0,32,43" style="fill:none;stroke:#000;stroke-linejoin:round;stroke-width:2px"/><path d="M57,22V34a4.347,4.347,0,0,1-1.5,3.07,9.564,9.564,0,0,1-1.11.93A23,23,0,0,1,47,41.2" style="fill:none;stroke:#000;stroke-linejoin:round;stroke-width:2px"/><line x1="7" y1="22" x2="7" y2="32" style="fill:none;stroke:#000;stroke-linejoin:round;stroke-width:2px"/><path d="M57,49c3.31,0,6,1.79,6,4s-2.69,4-6,4c-2.45,0-4.56-.98-5.49-2.38" style="fill:none;stroke:#000;stroke-linejoin:round;stroke-width:2px"/><path d="M55.04,45.5A4.743,4.743,0,0,1,57,49c0,2.13-2.06,4.09-5.49,5.62-3.99,1.8-9.85,3.03-16.51,3.31-.99.05-1.99.07-3,.07a63.525,63.525,0,0,1-11-.92V54a23.706,23.706,0,0,1,.31-3.87,22.172,22.172,0,0,1,2.71-7.6,23.146,23.146,0,0,1,5.31-6.3A5.274,5.274,0,0,1,38,40.28V49.5A3.514,3.514,0,0,0,41.5,53a3.46,3.46,0,0,0,2.47-1.03,3.424,3.424,0,0,0,1.02-2.29A1.087,1.087,0,0,0,45,49.5v-16A1.5,1.5,0,0,1,46.5,32h2A1.5,1.5,0,0,1,50,33.5a3.5,3.5,0,0,0,7,0V28" style="fill:none;stroke:#000;stroke-linejoin:round;stroke-width:2px"/><path d="M10,53.28V45.5a2.5,2.5,0,0,1,5,0V55.59A20.859,20.859,0,0,1,10,53.28Z" style="fill:none;stroke:#000;stroke-linejoin:round;stroke-width:2px"/><path d="M21.01,17.21c-1.87.83-3.01,1.95-3.01,3.17C18,22.93,22.92,25,29,25c5.16,0,9.5-1.49,10.68-3.51a3.546,3.546,0,0,1,1.6-1.51c1.65-.71,2.72-1.99,2.72-3.29a2.863,2.863,0,0,0-1.21-2.21,5.789,5.789,0,0,0,.48-.51A6.041,6.041,0,0,0,45,10c0-4.97-8.03-9-13-9a8.827,8.827,0,0,0-3.56.74A8.989,8.989,0,0,0,24.52,15a10.329,10.329,0,0,0,.81,1.04A8.925,8.925,0,0,0,31,18.94V8.22A7.967,7.967,0,0,0,29.86,4.1L28.44,1.74" style="fill:none;stroke:#000;stroke-linejoin:round;stroke-width:2px"/><line x1="36.38" y1="13.14" x2="36.37" y2="13.14" style="fill:none;stroke:#000;stroke-linejoin:round;stroke-width:2px"/><path d="M25.33,16.04c-.63.09-1.22.2-1.79.34" style="fill:none;stroke:#000;stroke-linejoin:round;stroke-width:2px"/><path d="M35,18.6V12a2.006,2.006,0,0,1,2-2,2.015,2.015,0,0,1,2,2v5.12A18.281,18.281,0,0,1,35,18.6Z" style="fill:none;stroke:#000;stroke-linejoin:round;stroke-width:2px"/></g></svg>