<svg xmlns="http://www.w3.org/2000/svg" viewBox="0 0 64 64"><g id="_06-lemon_cupcake" data-name="06-lemon cupcake"><path d="M52,36,46,59c-1,3-6.268,4-14,4s-13-1-14-4L12,36" style="fill:none;stroke:#000;stroke-linejoin:round;stroke-width:2px"/><polyline points="12 34 12 36 14 38 18 38 20 40 25 39 28 41 32 40 36 41 39 39 44 40 46 38 50 38 52 36 52 34" style="fill:none;stroke:#000;stroke-linejoin:round;stroke-width:2px"/><line x1="28" y1="60" x2="28" y2="63" style="fill:none;stroke:#000;stroke-linejoin:round;stroke-width:2px"/><line x1="28" y1="56" x2="28" y2="58" style="fill:none;stroke:#000;stroke-linejoin:round;stroke-width:2px"/><line x1="28" y1="41" x2="28" y2="54" style="fill:none;stroke:#000;stroke-linejoin:round;stroke-width:2px"/><line x1="36" y1="47" x2="36" y2="63" style="fill:none;stroke:#000;stroke-linejoin:round;stroke-width:2px"/><line x1="36" y1="41" x2="36" y2="45" style="fill:none;stroke:#000;stroke-linejoin:round;stroke-width:2px"/><line x1="44" y1="40" x2="41" y2="62" style="fill:none;stroke:#000;stroke-linejoin:round;stroke-width:2px"/><line x1="20" y1="40" x2="23" y2="62" style="fill:none;stroke:#000;stroke-linejoin:round;stroke-width:2px"/><path d="M21,14h0c-3.866,0-7,7.134-7,11v2a9.021,9.021,0,0,0,3.189,6.945A15.787,15.787,0,0,0,28,38h5" style="fill:none;stroke:#000;stroke-linejoin:round;stroke-width:2px"/><path d="M32.41,20.64c-.01,0-.01,0-.02-.01" style="fill:none;stroke:#000;stroke-linejoin:round;stroke-width:2px"/><path d="M40,31.721A36.9,36.9,0,0,1,31.57,27.85c-2.34-1.35-3.93-2.94-4.41-5.28" style="fill:none;stroke:#000;stroke-linejoin:round;stroke-width:2px"/><path d="M39.99,24.1c.01.01.01,0,.01,0l1.85.85A17.4,17.4,0,0,1,48,29.65a15.924,15.924,0,0,1,1.06,1.39c.01.01,0,.01,0,.01l.77,1.12a.988.988,0,0,1-.28,1.38L47,35s.09-3-5-3" style="fill:none;stroke:#000;stroke-linejoin:round;stroke-width:2px"/><path d="M24.5,20.22c-2.58,1.24-2.71,3.35-2.06,4.89a7.462,7.462,0,0,0,2.13,2.82C30.02,32.49,40.05,36,42.92,36H43c3-.02,4-1,4-1" style="fill:none;stroke:#000;stroke-linejoin:round;stroke-width:2px"/><path d="M18.124,24C19.561,35.312,33,38,33,38h8a2.006,2.006,0,0,0,2-2" style="fill:none;stroke:#000;stroke-linejoin:round;stroke-width:2px"/><path d="M22.38,17H22c-4,0-4,5-4,5" style="fill:none;stroke:#000;stroke-linejoin:round;stroke-width:2px"/><path d="M48,30V27.74A5.991,5.991,0,0,0,43.73,22" style="fill:none;stroke:#000;stroke-linejoin:round;stroke-width:2px"/><path d="M25.118,20.882a14.057,14.057,0,0,0,19.882,0L25.118,1A14.057,14.057,0,0,0,25.118,20.882Z" style="fill:none;stroke:#000;stroke-linejoin:round;stroke-width:2px"/><path d="M35,10.941V20.983a10.01,10.01,0,0,0,7.1-2.941" style="fill:none;stroke:#000;stroke-linejoin:round;stroke-width:2px"/><path d="M35,10.941l-7.1,7.1A10.01,10.01,0,0,0,35,20.983" style="fill:none;stroke:#000;stroke-linejoin:round;stroke-width:2px"/><path d="M27.958,3.9A10.01,10.01,0,0,0,25.017,11H35.059" style="fill:none;stroke:#000;stroke-linejoin:round;stroke-width:2px"/><path d="M25.017,11a10.01,10.01,0,0,0,2.941,7.1" style="fill:none;stroke:#000;stroke-linejoin:round;stroke-width:2px"/><path d="M49,31.184A8.878,8.878,0,0,0,50,27V25c0-3.866-5.134-11-9-11H38" style="fill:none;stroke:#000;stroke-linejoin:round;stroke-width:2px"/><line x1="21.34" y1="14" x2="21" y2="14" style="fill:none;stroke:#000;stroke-linejoin:round;stroke-width:2px"/></g></svg>