<svg xmlns="http://www.w3.org/2000/svg" viewBox="0 0 64 64"><g id="_07-kouign-amann" data-name="07-kouign-amann"><path d="M1,14l.08.7a.06.06,0,0,1,.01.04L3,30c0,2.667,7.525,4.848,17,4.992" style="fill:none;stroke:#000;stroke-linejoin:round;stroke-width:2px"/><path d="M39.626,25,40.91,14.74a.06.06,0,0,1,.01-.04L41,14" style="fill:none;stroke:#000;stroke-linejoin:round;stroke-width:2px"/><line x1="39.125" y1="29" x2="39.376" y2="27" style="fill:none;stroke:#000;stroke-linejoin:round;stroke-width:2px"/><path d="M21,14c0-3-1.111-4-1.111-4S17.551,9,8.639,9C4.183,9,1,11.5,1,14s3.182,5,10.185,5C18.707,19,21,17,21,14Z" style="fill:none;stroke:#000;stroke-linejoin:round;stroke-width:2px"/><path d="M13.222,9S5.444,14,11,14c0,0,7.778,0,8.889-4" style="fill:none;stroke:#000;stroke-linejoin:round;stroke-width:2px"/><path d="M21,6c0,1.8-1,2-1,2S17.551,9,8.639,9C4.183,9,1,7.5,1,6S4.182,3,11.185,3C18.707,3,21,4.2,21,6Z" style="fill:none;stroke:#000;stroke-linejoin:round;stroke-width:2px"/><path d="M13,9S5.444,6,11,6c0,0,7.889-.4,9,2" style="fill:none;stroke:#000;stroke-linejoin:round;stroke-width:2px"/><path d="M21,14c0-3,1.111-4,1.111-4s2.338-1,11.25-1C37.817,9,41,11.5,41,14s-3.182,5-10.185,5C23.293,19,21,17,21,14Z" style="fill:none;stroke:#000;stroke-linejoin:round;stroke-width:2px"/><path d="M28.778,9S36.556,14,31,14c0,0-7.778,0-8.889-4" style="fill:none;stroke:#000;stroke-linejoin:round;stroke-width:2px"/><path d="M21,6c0,1.8,1,2,1,2s2.449,1,11.361,1C37.817,9,41,7.5,41,6S37.818,3,30.815,3C23.293,3,21,4.2,21,6Z" style="fill:none;stroke:#000;stroke-linejoin:round;stroke-width:2px"/><path d="M29,9s7.556-3,2-3c0,0-7.889-.4-9,2" style="fill:none;stroke:#000;stroke-linejoin:round;stroke-width:2px"/><line x1="1" y1="6" x2="2" y2="12" style="fill:none;stroke:#000;stroke-linejoin:round;stroke-width:2px"/><line x1="41" y1="6" x2="40" y2="12" style="fill:none;stroke:#000;stroke-linejoin:round;stroke-width:2px"/><path d="M43,34c0,1.8-1,2-1,2s-2.449,1-11.361,1C26.183,37,23,35.5,23,34s3.182-3,10.185-3C40.707,31,43,32.2,43,34Z" style="fill:none;stroke:#000;stroke-linejoin:round;stroke-width:2px"/><path d="M35,37s-7.556-3-2-3c0,0,7.889-.4,9,2" style="fill:none;stroke:#000;stroke-linejoin:round;stroke-width:2px"/><path d="M43,34c0,1.8,1,2,1,2s2.449,1,11.361,1C59.817,37,63,35.5,63,34s-3.182-3-10.185-3C45.293,31,43,32.2,43,34Z" style="fill:none;stroke:#000;stroke-linejoin:round;stroke-width:2px"/><path d="M51,37s7.556-3,2-3c0,0-7.889-.4-9,2" style="fill:none;stroke:#000;stroke-linejoin:round;stroke-width:2px"/><line x1="23" y1="34" x2="24" y2="41" style="fill:none;stroke:#000;stroke-linejoin:round;stroke-width:2px"/><line x1="63" y1="34" x2="62" y2="41" style="fill:none;stroke:#000;stroke-linejoin:round;stroke-width:2px"/><path d="M25,58,23.065,45.426A5.72,5.72,0,0,1,23,44.569h0a5.55,5.55,0,0,1,2.456-4.652A18.871,18.871,0,0,1,36,37H50a18.871,18.871,0,0,1,10.544,2.917A5.55,5.55,0,0,1,63,44.569h0a5.72,5.72,0,0,1-.065.857L61,58c0,2.76-8.06,5-18,5S25,60.76,25,58Z" style="fill:none;stroke:#000;stroke-linejoin:round;stroke-width:2px"/><path d="M32,58.7c-2.12-.637-3.4-1.46-3.4-2.358l-1.548-9.189A3.86,3.86,0,0,1,27,46.531h0a3.972,3.972,0,0,1,1.965-3.4A16.159,16.159,0,0,1,37.4,41H48.6a16.159,16.159,0,0,1,8.435,2.131A3.972,3.972,0,0,1,59,46.531h0a3.86,3.86,0,0,1-.052.626L58.132,52" style="fill:none;stroke:#000;stroke-linejoin:round;stroke-width:2px"/><path d="M36,59.54c-.7-.1-1.374-.214-2-.342" style="fill:none;stroke:#000;stroke-linejoin:round;stroke-width:2px"/><path d="M57.8,54l-.4,2.346C57.4,58.363,50.952,60,43,60c-1.758,0-3.442-.08-5-.226" style="fill:none;stroke:#000;stroke-linejoin:round;stroke-width:2px"/><path d="M27,50c4,0,4.174-2,6-2,2,0,2.535,2,4,2,2,0,3-3,5-3h0a2,2,0,0,1,2,2v3a3,3,0,0,0,3,3h0a3,3,0,0,0,3-3V50a2,2,0,0,1,2-2h0a7.24,7.24,0,0,1,3.094.462A8.541,8.541,0,0,0,58,49.618" style="fill:none;stroke:#000;stroke-linejoin:round;stroke-width:2px"/><path d="M11,22c.468.3,2.505.754,3,1" style="fill:none;stroke:#000;stroke-linejoin:round;stroke-width:2px"/><path d="M22,21c-.343.479-1.657,1.521-2,2" style="fill:none;stroke:#000;stroke-linejoin:round;stroke-width:2px"/><path d="M14,27a13.142,13.142,0,0,1,3-1" style="fill:none;stroke:#000;stroke-linejoin:round;stroke-width:2px"/><path d="M25,22a25.674,25.674,0,0,1,2,2" style="fill:none;stroke:#000;stroke-linejoin:round;stroke-width:2px"/><path d="M30,28a7.9,7.9,0,0,1,2-2" style="fill:none;stroke:#000;stroke-linejoin:round;stroke-width:2px"/><path d="M34,22c0,1,1.254,1.822,2,2" style="fill:none;stroke:#000;stroke-linejoin:round;stroke-width:2px"/><path d="M17,29c0,1,2,2,2,3" style="fill:none;stroke:#000;stroke-linejoin:round;stroke-width:2px"/><path d="M10,26c0,1,.028,1.384,1,2" style="fill:none;stroke:#000;stroke-linejoin:round;stroke-width:2px"/><path d="M6,21c.519.486,1.319,1.8,2,2" style="fill:none;stroke:#000;stroke-linejoin:round;stroke-width:2px"/><path d="M23,29a5.622,5.622,0,0,1,3-1" style="fill:none;stroke:#000;stroke-linejoin:round;stroke-width:2px"/><path d="M36,26c0,1-1.2,2.45-2,3" style="fill:none;stroke:#000;stroke-linejoin:round;stroke-width:2px"/><path d="M5.687,27A3.454,3.454,0,0,0,8,29" style="fill:none;stroke:#000;stroke-linejoin:round;stroke-width:2px"/></g></svg>