<svg xmlns="http://www.w3.org/2000/svg" viewBox="0 0 64 64"><g id="_08-Praline_choua" data-name="08-Praline choua"><line x1="13" y1="58" x2="11" y2="58" style="fill:none;stroke:#000;stroke-linejoin:round;stroke-width:2px"/><line x1="53" y1="58" x2="15" y2="58" style="fill:none;stroke:#000;stroke-linejoin:round;stroke-width:2px"/><path d="M9,58H7a5,5,0,0,1-5-5H2a5,5,0,0,1,5-5H57a5,5,0,0,1,5,5h0a5,5,0,0,1-5,5H55" style="fill:none;stroke:#000;stroke-linejoin:round;stroke-width:2px"/><path d="M33.56,8.01h.01c2.42.04,4.75.15,6.97.34" style="fill:none;stroke:#000;stroke-linejoin:round;stroke-width:2px"/><path d="M17.33,9.1c-7.37,1.19-12.66,3.26-14,5.68A4.995,4.995,0,0,0,5,23.9,4.712,4.712,0,0,0,6,24H58a5,5,0,0,0,2.67-9.22,6.8,6.8,0,0,0-2.8-2.4" style="fill:none;stroke:#000;stroke-linejoin:round;stroke-width:2px"/><path d="M53.9,10.75a52.945,52.945,0,0,0-7.92-1.76" style="fill:none;stroke:#000;stroke-linejoin:round;stroke-width:2px"/><path d="M28.08,8.08c-2.15.07-4.23.22-6.2.42" style="fill:none;stroke:#000;stroke-linejoin:round;stroke-width:2px"/><line x1="37.53" y1="43" x2="35.823" y2="44" style="fill:none;stroke:#000;stroke-linejoin:round;stroke-width:2px"/><path d="M48.97,30c3.145-2.252,5.492-4.386,6.03-6h3v2.416a8,8,0,0,1-3.954,6.9L39.235,42" style="fill:none;stroke:#000;stroke-linejoin:round;stroke-width:2px"/><path d="M34.118,45,29,48H25a2.828,2.828,0,0,1,0-4l.633-.633a2.8,2.8,0,0,1,.829-.575A182.476,182.476,0,0,0,47.535,31" style="fill:none;stroke:#000;stroke-linejoin:round;stroke-width:2px"/><path d="M57.84,28H58a3,3,0,0,1,3,3v.79a10.951,10.951,0,0,1-2.77,7.29,10.578,10.578,0,0,1-1.62,1.51C52.67,43.57,46.8,47.4,42,48" style="fill:none;stroke:#000;stroke-linejoin:round;stroke-width:2px"/><path d="M57,30.29v1.36a8.668,8.668,0,0,1-3.62,7.06C48.43,42.25,37.54,48,32,48" style="fill:none;stroke:#000;stroke-linejoin:round;stroke-width:2px"/><path d="M24,24s10,6,10,14c0,0-6-6-13-6H11a5,5,0,0,1-5-5V24" style="fill:none;stroke:#000;stroke-linejoin:round;stroke-width:2px"/><path d="M13,24c6.11,0,12.97,7.61,14.62,9.55a1.09,1.09,0,0,1,.11.13" style="fill:none;stroke:#000;stroke-linejoin:round;stroke-width:2px"/><path d="M35,33.694C41.19,30.2,47.062,26.588,50,24" style="fill:none;stroke:#000;stroke-linejoin:round;stroke-width:2px"/><path d="M29,36.986c-5.178,2.786-9.986,5.214-12.87,6.6a2,2,0,0,0-.33,3.4l.18.13a4.337,4.337,0,0,0,5.34-.08L26,43" style="fill:none;stroke:#000;stroke-linejoin:round;stroke-width:2px"/><path d="M7,30l-.57,1.15A4.033,4.033,0,0,0,10.05,37h4.88" style="fill:none;stroke:#000;stroke-linejoin:round;stroke-width:2px"/><path d="M13,48H10a3.929,3.929,0,0,1-.92-.11H9.07a4.114,4.114,0,0,1-1.9-1.06A4.025,4.025,0,0,1,6,44a5.368,5.368,0,0,1,.71-2.66,3.679,3.679,0,0,1,2.14-1.79A32.745,32.745,0,0,0,14.93,37a77.617,77.617,0,0,0,7.89-4.86" style="fill:none;stroke:#000;stroke-linejoin:round;stroke-width:2px"/><line x1="34" y1="24" x2="28.59" y2="27.6" style="fill:none;stroke:#000;stroke-linejoin:round;stroke-width:2px"/><path d="M9.07,47.89A17.82,17.82,0,0,0,15,45" style="fill:none;stroke:#000;stroke-linejoin:round;stroke-width:2px"/><path d="M7.38,36H7l-.12.12A3.015,3.015,0,0,0,6,38.24v.82a4,4,0,0,0,5.31,3.78A57.006,57.006,0,0,0,25,35.437" style="fill:none;stroke:#000;stroke-linejoin:round;stroke-width:2px"/><path d="M39,24s-2.211,2.126-5.631,5" style="fill:none;stroke:#000;stroke-linejoin:round;stroke-width:2px"/><path d="M57,48l2.36-1.77A4.1,4.1,0,0,0,61,42.95a4.032,4.032,0,0,0-.32-1.59,4.093,4.093,0,0,0-2.45-2.28" style="fill:none;stroke:#000;stroke-linejoin:round;stroke-width:2px"/><path d="M48,48c6.04,0,11.34-5.22,12.68-6.64" style="fill:none;stroke:#000;stroke-linejoin:round;stroke-width:2px"/><path d="M44.885,15.115a2.318,2.318,0,0,1,0-3.642c1.341-1.341,4.249-1.821,4.856-1.214s.127,3.515-1.214,4.856A2.318,2.318,0,0,1,44.885,15.115Z" style="fill:none;stroke:#000;stroke-linejoin:round;stroke-width:2px"/><path d="M29,14a2.7,2.7,0,0,1-3,3c-2.21,0-5-2-5-3s2.79-3,5-3A2.7,2.7,0,0,1,29,14Z" style="fill:none;stroke:#000;stroke-linejoin:round;stroke-width:2px"/><path d="M45.115,6.885a2.318,2.318,0,0,1,0,3.642c-1.341,1.341-4.249,1.821-4.856,1.214s-.127-3.514,1.214-4.856A2.318,2.318,0,0,1,45.115,6.885Z" style="fill:none;stroke:#000;stroke-linejoin:round;stroke-width:2px"/><path d="M52.885,15.115a2.318,2.318,0,0,1,0-3.642c1.341-1.341,4.249-1.821,4.856-1.214s.127,3.515-1.214,4.856A2.318,2.318,0,0,1,52.885,15.115Z" style="fill:none;stroke:#000;stroke-linejoin:round;stroke-width:2px"/><path d="M33.115,11.115a2.318,2.318,0,0,1-3.642,0c-1.341-1.341-1.821-4.249-1.214-4.856s3.514-.127,4.856,1.214A2.318,2.318,0,0,1,33.115,11.115Z" style="fill:none;stroke:#000;stroke-linejoin:round;stroke-width:2px"/><path d="M34.885,13.885a2.318,2.318,0,0,0,0,3.642c1.341,1.341,4.249,1.821,4.856,1.214s.127-3.514-1.214-4.856A2.318,2.318,0,0,0,34.885,13.885Z" style="fill:none;stroke:#000;stroke-linejoin:round;stroke-width:2px"/><path d="M16.885,13.115a2.318,2.318,0,0,0,3.642,0c1.341-1.341,1.821-4.249,1.214-4.856s-3.514-.127-4.856,1.214A2.318,2.318,0,0,0,16.885,13.115Z" style="fill:none;stroke:#000;stroke-linejoin:round;stroke-width:2px"/><path d="M14.115,17.115a2.318,2.318,0,0,0,0-3.642c-1.341-1.341-4.249-1.821-4.856-1.214s-.127,3.515,1.214,4.856A2.318,2.318,0,0,0,14.115,17.115Z" style="fill:none;stroke:#000;stroke-linejoin:round;stroke-width:2px"/><path d="M61,17s-3,7-13,7" style="fill:none;stroke:#000;stroke-linejoin:round;stroke-width:2px"/><path d="M52,17s-3,7-13,7" style="fill:none;stroke:#000;stroke-linejoin:round;stroke-width:2px"/><path d="M43,17s-3,7-13,7" style="fill:none;stroke:#000;stroke-linejoin:round;stroke-width:2px"/><path d="M34,17s-3,7-13,7" style="fill:none;stroke:#000;stroke-linejoin:round;stroke-width:2px"/><path d="M25,17s-3,7-13,7" style="fill:none;stroke:#000;stroke-linejoin:round;stroke-width:2px"/><path d="M16,17s-2.594,6.053-11,6.9" style="fill:none;stroke:#000;stroke-linejoin:round;stroke-width:2px"/><path d="M7,17a11.738,11.738,0,0,1-5,5.444" style="fill:none;stroke:#000;stroke-linejoin:round;stroke-width:2px"/><path d="M17,32A14.908,14.908,0,0,0,6,27" style="fill:none;stroke:#000;stroke-linejoin:round;stroke-width:2px"/><path d="M23,51c.468.3,2.5.754,3,1" style="fill:none;stroke:#000;stroke-linejoin:round;stroke-width:2px"/><path d="M36,50c-.343.479-1.657,1.521-2,2" style="fill:none;stroke:#000;stroke-linejoin:round;stroke-width:2px"/><path d="M28,55a13.142,13.142,0,0,1,3-1" style="fill:none;stroke:#000;stroke-linejoin:round;stroke-width:2px"/><path d="M39,51a25.674,25.674,0,0,1,2,2" style="fill:none;stroke:#000;stroke-linejoin:round;stroke-width:2px"/><path d="M44,56a7.9,7.9,0,0,1,2-2" style="fill:none;stroke:#000;stroke-linejoin:round;stroke-width:2px"/><path d="M48,50c0,1,1.254,1.822,2,2" style="fill:none;stroke:#000;stroke-linejoin:round;stroke-width:2px"/><path d="M7,52c0,1,2,2,2,3" style="fill:none;stroke:#000;stroke-linejoin:round;stroke-width:2px"/><path d="M14,50c.519.486,1.319,1.8,2,2" style="fill:none;stroke:#000;stroke-linejoin:round;stroke-width:2px"/><path d="M57,52c0,1-1.2,2.45-2,3" style="fill:none;stroke:#000;stroke-linejoin:round;stroke-width:2px"/><path d="M17.687,53A3.454,3.454,0,0,0,20,55" style="fill:none;stroke:#000;stroke-linejoin:round;stroke-width:2px"/></g></svg>