<svg xmlns="http://www.w3.org/2000/svg" viewBox="0 0 64 64"><g id="_09-Durum_Sourdough" data-name="09-Durum Sourdough"><path d="M9.44,22.39a28.331,28.331,0,0,0-4.01,6.59" style="fill:none;stroke:#000;stroke-linejoin:round;stroke-width:2px"/><path d="M22.13,13.49a27.515,27.515,0,0,0-8.05,4.35" style="fill:none;stroke:#000;stroke-linejoin:round;stroke-width:2px"/><path d="M29.03,53.93c.98.05,1.97.07,2.97.07.73,0,1.46-.01,2.17-.04h.02c.72-.02,1.43-.06,2.13-.1" style="fill:none;stroke:#000;stroke-linejoin:round;stroke-width:2px"/><path d="M28,12.17A28.1,28.1,0,0,1,31.06,12h1.88a28.1,28.1,0,0,1,3.06.17" style="fill:none;stroke:#000;stroke-linejoin:round;stroke-width:2px"/><path d="M58.57,28.98a28.331,28.331,0,0,0-4.01-6.59" style="fill:none;stroke:#000;stroke-linejoin:round;stroke-width:2px"/><path d="M49.92,17.84a27.515,27.515,0,0,0-8.05-4.35" style="fill:none;stroke:#000;stroke-linejoin:round;stroke-width:2px"/><path d="M14,51.493q-1.033-.321-2-.678" style="fill:none;stroke:#000;stroke-linejoin:round;stroke-width:2px"/><path d="M57,48.481c-4.834,2.864-12.208,4.866-20.68,5.379-.7.04-1.41.08-2.13.1h-.02c-.71.03-1.44.04-2.17.04-1,0-1.99-.02-2.97-.07A61.742,61.742,0,0,1,16,52.064" style="fill:none;stroke:#000;stroke-linejoin:round;stroke-width:2px"/><path d="M10,50.011c-5.56-2.437-9-5.8-9-9.511,0-.17.02-.33.03-.5H1A29.75,29.75,0,0,1,3.144,28.876a.99.99,0,0,1,1.491-.425c.248.176.514.352.8.529a55.452,55.452,0,0,0,8.19,3.94.994.994,0,0,0,1.27-1.36L9.44,22.39l-.787-1.33a1.006,1.006,0,0,1,.109-1.181A29.208,29.208,0,0,1,12.2,16.624a1.008,1.008,0,0,1,1.59.448q.138.387.293.768a17.636,17.636,0,0,0,4.14,6.08l6.02,5.79a1.031,1.031,0,0,0,1.75-.82l-1.03-7.97a17.139,17.139,0,0,0-2.83-7.43,15.514,15.514,0,0,0-1.09-1.47l-.21-.25A30.593,30.593,0,0,1,28,10v3l2.715,13.577A1.77,1.77,0,0,0,32.451,28h0a1.77,1.77,0,0,0,1.754-1.536L36,13V10a30.593,30.593,0,0,1,7.17,1.77l-.21.25a15.514,15.514,0,0,0-1.09,1.47,17.139,17.139,0,0,0-2.83,7.43l-1.03,7.97a1.031,1.031,0,0,0,1.75.82l6.02-5.79a17.636,17.636,0,0,0,4.14-6.08q.154-.381.293-.768a1.008,1.008,0,0,1,1.59-.448,29.208,29.208,0,0,1,3.435,3.255,1.006,1.006,0,0,1,.109,1.181l-.787,1.33-5.45,9.17a.994.994,0,0,0,1.27,1.36,55.452,55.452,0,0,0,8.19-3.94c.281-.177.547-.353.8-.529a.99.99,0,0,1,1.491.425A29.75,29.75,0,0,1,63,40v1h-.03c-.182,2.225-1.6,4.312-3.97,6.135" style="fill:none;stroke:#000;stroke-linejoin:round;stroke-width:2px"/><path d="M17,31c.468.3,2.5.754,3,1" style="fill:none;stroke:#000;stroke-linejoin:round;stroke-width:2px"/><path d="M18,26c-.468.3-2.505.754-3,1" style="fill:none;stroke:#000;stroke-linejoin:round;stroke-width:2px"/><path d="M30,30c-.343.479-1.657,1.521-2,2" style="fill:none;stroke:#000;stroke-linejoin:round;stroke-width:2px"/><path d="M36,30c-.343.479-1.657,1.521-2,2" style="fill:none;stroke:#000;stroke-linejoin:round;stroke-width:2px"/><path d="M22,35a13.142,13.142,0,0,1,3-1" style="fill:none;stroke:#000;stroke-linejoin:round;stroke-width:2px"/><path d="M46,34a25.674,25.674,0,0,1,2,2" style="fill:none;stroke:#000;stroke-linejoin:round;stroke-width:2px"/><path d="M53,36a7.9,7.9,0,0,1,2-2" style="fill:none;stroke:#000;stroke-linejoin:round;stroke-width:2px"/><path d="M45,29c0,1,1.254,1.822,2,2" style="fill:none;stroke:#000;stroke-linejoin:round;stroke-width:2px"/><path d="M4,37c0,1,2,2,2,3" style="fill:none;stroke:#000;stroke-linejoin:round;stroke-width:2px"/><path d="M8,34c.519.486,1.319,1.8,2,2" style="fill:none;stroke:#000;stroke-linejoin:round;stroke-width:2px"/><path d="M60,34c0,1-1.2,2.45-2,3" style="fill:none;stroke:#000;stroke-linejoin:round;stroke-width:2px"/><path d="M36.687,35A3.454,3.454,0,0,0,39,37" style="fill:none;stroke:#000;stroke-linejoin:round;stroke-width:2px"/></g></svg>