<svg xmlns="http://www.w3.org/2000/svg" viewBox="0 0 64 64"><g id="_10-Croissant" data-name="10-Croissant"><path d="M29,25.145,50.2,27.82A2,2,0,0,1,52,29.81v4.38a2,2,0,0,1-1.8,1.99l-5.2.656" style="fill:none;stroke:#000;stroke-linejoin:round;stroke-width:2px"/><line x1="25" y1="24.64" x2="27.001" y2="24.893" style="fill:none;stroke:#000;stroke-linejoin:round;stroke-width:2px"/><path d="M43,37.089,18.751,40.148A6,6,0,0,1,12,34.2v-4.39a6,6,0,0,1,6.751-5.953L23,24.388" style="fill:none;stroke:#000;stroke-linejoin:round;stroke-width:2px"/><path d="M16.27,24.06a4,4,0,0,1,4.2-2.53l1.29.15L48,24.76l.23.03A2,2,0,0,1,50,26.78v1.01" style="fill:none;stroke:#000;stroke-linejoin:round;stroke-width:2px"/><path d="M50,36.21v1.01a2,2,0,0,1-1.77,1.99l-.23.03L21.76,42.32l-1.29.15a4,4,0,0,1-4.2-2.53" style="fill:none;stroke:#000;stroke-linejoin:round;stroke-width:2px"/><path d="M40,17.639l4.841.991c.03.01.06.01.09.02A3.853,3.853,0,0,1,48,22.36v2.4" style="fill:none;stroke:#000;stroke-linejoin:round;stroke-width:2px"/><path d="M21.76,21.68l-1.34-2.55A3.664,3.664,0,0,1,20,17.42V15.91a1.978,1.978,0,0,1,2.42-1.87L38,17.23" style="fill:none;stroke:#000;stroke-linejoin:round;stroke-width:2px"/><path d="M23,14V11.108a4,4,0,0,1,.57-2.058l1.5-2.5a2,2,0,0,1,2.571-.779l14.619,7.348a4,4,0,0,1,2.126,2.789L45,19" style="fill:none;stroke:#000;stroke-linejoin:round;stroke-width:2px"/><path d="M28,6h0a4.47,4.47,0,0,1,3.976-4.442L36,1h1.791A4,4,0,0,1,41.7,4.132l.447,2.01A35.989,35.989,0,0,1,43,13.952V14" style="fill:none;stroke:#000;stroke-linejoin:round;stroke-width:2px"/><path d="M32.006,8A2.968,2.968,0,0,1,34.35,5.263,13.441,13.441,0,0,1,37,5c3,0,3,6,3,6v1" style="fill:none;stroke:#000;stroke-linejoin:round;stroke-width:2px"/><path d="M28,48.818,44.84,45.37c.03-.01.06-.01.09-.02A3.853,3.853,0,0,0,48,41.64v-2.4" style="fill:none;stroke:#000;stroke-linejoin:round;stroke-width:2px"/><path d="M21.76,42.32l-1.34,2.55A3.664,3.664,0,0,0,20,46.58v1.51a1.978,1.978,0,0,0,2.42,1.87L26,49.227" style="fill:none;stroke:#000;stroke-linejoin:round;stroke-width:2px"/><path d="M23,50v2.892a4,4,0,0,0,.57,2.058l1.5,2.495a2,2,0,0,0,2.571.779l14.619-7.348a4,4,0,0,0,2.126-2.789L45,45" style="fill:none;stroke:#000;stroke-linejoin:round;stroke-width:2px"/><path d="M28,58h0a4.47,4.47,0,0,0,3.976,4.442L36,63h1.791A4,4,0,0,0,41.7,59.868l.447-2.01A35.989,35.989,0,0,0,43,50.048V50" style="fill:none;stroke:#000;stroke-linejoin:round;stroke-width:2px"/><path d="M32.006,56a2.968,2.968,0,0,0,2.344,2.737A13.441,13.441,0,0,0,37,59c3,0,3-6,3-6V52" style="fill:none;stroke:#000;stroke-linejoin:round;stroke-width:2px"/></g></svg>