<svg xmlns="http://www.w3.org/2000/svg" viewBox="0 0 64 64"><g id="_11-Croissant" data-name="11-Croissant"><path d="M36,15.011A28.556,28.556,0,0,0,21.444,11C4.833,11,1,21.372,1,21.372v9.256a1.272,1.272,0,0,0,1.934,1.111A45.85,45.85,0,0,1,8.035,29" style="fill:none;stroke:#000;stroke-linejoin:round;stroke-width:2px"/><path d="M14,26.76a35.671,35.671,0,0,1,10-1.5c9.431,0,17.415,4.895,20.991,7.495A1.271,1.271,0,0,0,47,31.7V25.262A34.636,34.636,0,0,0,37.586,16" style="fill:none;stroke:#000;stroke-linejoin:round;stroke-width:2px"/><path d="M10,28.153q.962-.389,2-.752" style="fill:none;stroke:#000;stroke-linejoin:round;stroke-width:2px"/><path d="M4,31v4c0,1.14.82,1.792,1.663,1.24A38.708,38.708,0,0,1,26.571,30.1C35.074,30.1,39.612,33.4,42,36c.808.881,2,.3,2-1V32" style="fill:none;stroke:#000;stroke-linejoin:round;stroke-width:2px"/><path d="M31,40.862A20.766,20.766,0,0,1,36,42s6-2,6-6" style="fill:none;stroke:#000;stroke-linejoin:round;stroke-width:2px"/><path d="M6,36s.172,9.2,4,13c0,0,8.207-8.273,19-8.24" style="fill:none;stroke:#000;stroke-linejoin:round;stroke-width:2px"/><path d="M11.04,48.06c.22,1.37,1.77,8.19,10.53,12.12C25.27,61.85,30.27,63,37,63a35.112,35.112,0,0,0,6.62-.59A22.462,22.462,0,0,0,50.5,60h.01a12.794,12.794,0,0,0,6.32-7.24,4.334,4.334,0,0,0-2.31-5.08l-1.18-.58a2.033,2.033,0,0,0-2.01.13A10.618,10.618,0,0,1,45,49a14.657,14.657,0,0,1-4.6-.77,17.342,17.342,0,0,1-2.15-.88,4,4,0,0,1-2.24-3.32,2.62,2.62,0,0,1-.01-.28V42" style="fill:none;stroke:#000;stroke-linejoin:round;stroke-width:2px"/><path d="M23.181,56a21.345,21.345,0,0,0-1.6,4.18c-.05.19-.07.29-.07.29" style="fill:none;stroke:#000;stroke-linejoin:round;stroke-width:2px"/><path d="M37.68,47H37a14.715,14.715,0,0,0-13,7.529" style="fill:none;stroke:#000;stroke-linejoin:round;stroke-width:2px"/><path d="M15.18,55.41s3.7-11.1,20.83-11.38" style="fill:none;stroke:#000;stroke-linejoin:round;stroke-width:2px"/><path d="M43.62,62.41c-4.79-4.57-3.59-12.33-3.22-14.18" style="fill:none;stroke:#000;stroke-linejoin:round;stroke-width:2px"/><path d="M50.51,60c-7.35-3.01-6.22-10.92-6.22-10.92" style="fill:none;stroke:#000;stroke-linejoin:round;stroke-width:2px"/><path d="M46.816,49.082s0,6.326,7.592,7.591" style="fill:none;stroke:#000;stroke-linejoin:round;stroke-width:2px"/><path d="M5,16.18a.124.124,0,0,0,.02-.03C5.47,15.43,12.74,4,20,4c5.91,0,13.55,3.08,20.53,8.63A11.863,11.863,0,0,1,45,22v.63" style="fill:none;stroke:#000;stroke-linejoin:round;stroke-width:2px"/><path d="M19,4l3-2a9.913,9.913,0,0,1,4-1h5c1.852,0,5.113,1.374,6,3l4.755,9.653" style="fill:none;stroke:#000;stroke-linejoin:round;stroke-width:2px"/><path d="M47,24a25.364,25.364,0,0,1,13-7h.25" style="fill:none;stroke:#000;stroke-linejoin:round;stroke-width:2px"/><path d="M45,22.63A33.475,33.475,0,0,1,49.95,5.06" style="fill:none;stroke:#000;stroke-linejoin:round;stroke-width:2px"/><path d="M46.1,24H49a7.3,7.3,0,0,1,3.43.86l2.61,1.56a4.03,4.03,0,0,0,2.08.58h1.83A4.029,4.029,0,0,0,63,22.95a4.01,4.01,0,0,0-.45-1.85,68.449,68.449,0,0,0-4.9-8.06h-.01a32.488,32.488,0,0,0-7.69-7.98A10.882,10.882,0,0,0,44,3H41.3a8.028,8.028,0,0,0-2.53.41L37,4" style="fill:none;stroke:#000;stroke-linejoin:round;stroke-width:2px"/><path d="M50.4,16a11.058,11.058,0,0,0-4.387,7.89" style="fill:none;stroke:#000;stroke-linejoin:round;stroke-width:2px"/><path d="M57.65,13.04h-.01A17.193,17.193,0,0,0,52,14.951" style="fill:none;stroke:#000;stroke-linejoin:round;stroke-width:2px"/></g></svg>