<svg xmlns="http://www.w3.org/2000/svg" viewBox="0 0 64 64"><g id="_12-Brioche" data-name="12-Brioche"><path d="M62.588,16.768A15.544,15.544,0,0,0,59,12c-1.221,3.609-3.84,6.578-7.722,7.364l-15.34,3.105a9.866,9.866,0,0,0-4.865,2.523l-2.4,2.293a3.761,3.761,0,0,0-1.029,3.7h0A4.187,4.187,0,0,0,31.767,34H51a7.018,7.018,0,0,0,4.8-2.386l3.912-3.739c.486-.465,1.05-.965,1.579-1.493A6.357,6.357,0,0,0,63,22V18.963A5.541,5.541,0,0,0,62.588,16.768Z" style="fill:none;stroke:#000;stroke-linejoin:round;stroke-width:2px"/><path d="M44,43.09l3.83-3.662a7.02,7.02,0,0,0,2.516-4.172l.236-1.09" style="fill:none;stroke:#000;stroke-linejoin:round;stroke-width:2px"/><path d="M32,34,21.657,36.694a5.848,5.848,0,0,0-2.783,1.475l-.04.039a5.307,5.307,0,0,0-1.53,5.144h0A5.369,5.369,0,0,0,20.47,46.96,31.025,31.025,0,0,0,31.3,49.313c3.826.137,6.922-.7,9.652-3.307L42,45" style="fill:none;stroke:#000;stroke-linejoin:round;stroke-width:2px"/><path d="M43.289,16l.453-1.76C44.613,10.077,46.86,7,50,4V3l-.349-.349A5.637,5.637,0,0,0,45.666,1h0a5.632,5.632,0,0,0-1.313.155L35.968,3.163a12.049,12.049,0,0,0-5.654,3.021h0a11.046,11.046,0,0,0-3.252,10.269L29,27" style="fill:none;stroke:#000;stroke-linejoin:round;stroke-width:2px"/><line x1="42" y1="21" x2="42.773" y2="17.999" style="fill:none;stroke:#000;stroke-linejoin:round;stroke-width:2px"/><path d="M19,38c-3.464-3.311-6.094-7.167-5.807-11.842h0a9.9,9.9,0,0,1,3.075-6.546l.114-.109A10.6,10.6,0,0,1,27,17h1" style="fill:none;stroke:#000;stroke-linejoin:round;stroke-width:2px"/><path d="M21,47l.637,1.189a6.848,6.848,0,0,1-.723,7.727c-.135.153-.276.3-.426.443h0a7.647,7.647,0,0,1-5.928,2.033l-2.235-.184a12.474,12.474,0,0,1-7.575-3.4h0a12.25,12.25,0,0,1-3.632-6.122A6.7,6.7,0,0,1,1,47.3V44A15.065,15.065,0,0,1,5.994,33.381h0A6.47,6.47,0,0,1,9.371,31.7L14,31" style="fill:none;stroke:#000;stroke-linejoin:round;stroke-width:2px"/><path d="M29,57.431l4.925-4.708a3.679,3.679,0,0,0,1.064-1.9l.457-2.184" style="fill:none;stroke:#000;stroke-linejoin:round;stroke-width:2px"/><path d="M5.173,55.215l2.982,2.851a20.639,20.639,0,0,0,4.828,3.548A13.3,13.3,0,0,0,19.058,63H21c2.207-.159,3.314-1.09,4.918-2.623L27.358,59" style="fill:none;stroke:#000;stroke-linejoin:round;stroke-width:2px"/><path d="M13.479,41a24.186,24.186,0,0,0,2.834,5.764A6.13,6.13,0,0,1,15.4,54.7h0a6.79,6.79,0,0,1-4.528,1.87A8.026,8.026,0,0,1,4,54" style="fill:none;stroke:#000;stroke-linejoin:round;stroke-width:2px"/><path d="M12.445,37c.117.638.261,1.308.439,2" style="fill:none;stroke:#000;stroke-linejoin:round;stroke-width:2px"/><path d="M12,31a23.644,23.644,0,0,0,.151,4" style="fill:none;stroke:#000;stroke-linejoin:round;stroke-width:2px"/><path d="M33.382,53.3S28.566,55.265,22.373,52" style="fill:none;stroke:#000;stroke-linejoin:round;stroke-width:2px"/><path d="M59,12c0-4.975-3.473-8-9-8" style="fill:none;stroke:#000;stroke-linejoin:round;stroke-width:2px"/></g></svg>