<svg xmlns="http://www.w3.org/2000/svg" viewBox="0 0 64 64"><g id="_13-Ciabatta" data-name="13-Ciabatta"><path d="M47.475,25.34c-.156-.148-.323-.277-.485-.415l.485-.459a10.984,10.984,0,0,0,0-16.126A11.876,11.876,0,0,0,46,7.167V7a6,6,0,0,0-6-6H24a8,8,0,0,0-8,8V22l.146-.068a10.965,10.965,0,0,0,.379,15.728c.156.148.323.277.485.415l-.485.459a10.984,10.984,0,0,0,0,16.126c.153.145.316.271.475.407V57a6,6,0,0,0,6,6H41a8,8,0,0,0,8-8V39.7A10.961,10.961,0,0,0,47.475,25.34Z" style="fill:none;stroke:#000;stroke-linejoin:round;stroke-width:2px"/><ellipse cx="32" cy="40" rx="15.993" ry="4.594" transform="translate(-15.82 21.637) rotate(-30.333)" style="fill:none;stroke:#000;stroke-linejoin:round;stroke-width:2px"/><ellipse cx="32" cy="23" rx="15.116" ry="4.055" transform="translate(-6.453 14.374) rotate(-23.064)" style="fill:none;stroke:#000;stroke-linejoin:round;stroke-width:2px"/><path d="M38.117,48A61.555,61.555,0,0,1,17,55" style="fill:none;stroke:#000;stroke-linejoin:round;stroke-width:2px"/><path d="M42,45.649Q41,46.314,39.856,47" style="fill:none;stroke:#000;stroke-linejoin:round;stroke-width:2px"/><path d="M49,40a35.8,35.8,0,0,1-4.648,4" style="fill:none;stroke:#000;stroke-linejoin:round;stroke-width:2px"/><path d="M41,8.23A47.806,47.806,0,0,1,46,7" style="fill:none;stroke:#000;stroke-linejoin:round;stroke-width:2px"/><path d="M16,22A80.017,80.017,0,0,1,39,8.878" style="fill:none;stroke:#000;stroke-linejoin:round;stroke-width:2px"/><path d="M20,36.436c-1.017.514-2.02,1.036-3,1.564" style="fill:none;stroke:#000;stroke-linejoin:round;stroke-width:2px"/><path d="M24,34.482q-1,.474-2,.96" style="fill:none;stroke:#000;stroke-linejoin:round;stroke-width:2px"/><path d="M47,25s-10.3,3.636-21,8.55" style="fill:none;stroke:#000;stroke-linejoin:round;stroke-width:2px"/><path d="M49,46c0,6-17,17-26,17" style="fill:none;stroke:#000;stroke-linejoin:round;stroke-width:2px"/><path d="M16,17S26,3,43,2" style="fill:none;stroke:#000;stroke-linejoin:round;stroke-width:2px"/><path d="M25,24a1.959,1.959,0,0,0,2,2" style="fill:none;stroke:#000;stroke-linejoin:round;stroke-width:2px"/><path d="M36,22a3.491,3.491,0,0,0-2-1" style="fill:none;stroke:#000;stroke-linejoin:round;stroke-width:2px"/><line x1="32" y1="24" x2="30" y2="25" style="fill:none;stroke:#000;stroke-linejoin:round;stroke-width:2px"/><line x1="41" y1="20" x2="39" y2="19" style="fill:none;stroke:#000;stroke-linejoin:round;stroke-width:2px"/><path d="M24,43a1.959,1.959,0,0,0,2,2" style="fill:none;stroke:#000;stroke-linejoin:round;stroke-width:2px"/><path d="M37,37a3.491,3.491,0,0,0-2-1" style="fill:none;stroke:#000;stroke-linejoin:round;stroke-width:2px"/><path d="M30,43a3.491,3.491,0,0,0-2-1" style="fill:none;stroke:#000;stroke-linejoin:round;stroke-width:2px"/><line x1="33" y1="39" x2="31" y2="40" style="fill:none;stroke:#000;stroke-linejoin:round;stroke-width:2px"/><line x1="42" y1="35" x2="40" y2="34" style="fill:none;stroke:#000;stroke-linejoin:round;stroke-width:2px"/></g></svg>