<svg xmlns="http://www.w3.org/2000/svg" viewBox="0 0 64 64"><g id="_14-Croissant_pie" data-name="14-Croissant pie"><path d="M11.124,15,8.708,17.393a2.381,2.381,0,0,0,0,3.388L11.246,23.3a2.427,2.427,0,0,0,3.4.022c2.943-2.864,10.2-9.3,16.343-10.426a9.546,9.546,0,0,1,8.377,2.688L42,18l.573-.281a4.731,4.731,0,0,0,.866-5.613,9.555,9.555,0,0,0-2.247-3.182h0a16.623,16.623,0,0,0-18-3.7A21.2,21.2,0,0,0,16.4,9.771L13,13.141" style="fill:none;stroke:#000;stroke-linejoin:round;stroke-width:2px"/><path d="M38,52.478,21.389,49.584A8.412,8.412,0,0,1,15,42l1-20" style="fill:none;stroke:#000;stroke-linejoin:round;stroke-width:2px"/><path d="M8,18.953a13.093,13.093,0,0,0-1-5L5,12.246l10.538-6.94A8.319,8.319,0,0,1,20.976,4L28,3.953" style="fill:none;stroke:#000;stroke-linejoin:round;stroke-width:2px"/><path d="M6,12H4A3,3,0,0,1,1,9V7.544A3,3,0,0,1,2.256,5.1L6.435,2.118A6,6,0,0,1,9.923,1h3.415a6,6,0,0,1,3.087.855L20,4" style="fill:none;stroke:#000;stroke-linejoin:round;stroke-width:2px"/><path d="M48,55a18.308,18.308,0,0,1,2,1l2,3,6.694-11.038A8.319,8.319,0,0,0,60,42.524V39c-.985,2.335-3.143,6.675-5.369,8.9l-6.472,6.788a4,4,0,0,1-6.018-.262L41,53l4-3c4.683-5.7,11.97-17.03-3-32" style="fill:none;stroke:#000;stroke-linejoin:round;stroke-width:2px"/><path d="M52,59v1a3,3,0,0,0,3,3h1.456A3,3,0,0,0,58.9,61.744l2.985-4.179A6,6,0,0,0,63,54.077V50.662a6,6,0,0,0-.855-3.087L60,44" style="fill:none;stroke:#000;stroke-linejoin:round;stroke-width:2px"/><line x1="21" y1="24" x2="21" y2="22" style="fill:none;stroke:#000;stroke-linejoin:round;stroke-width:2px"/><path d="M45,50,24.476,43.112A5,5,0,0,1,21,38.35V26" style="fill:none;stroke:#000;stroke-linejoin:round;stroke-width:2px"/><path d="M59.868,30q-.132-2.022-.393-4.034h0a17.431,17.431,0,0,0-2.249-6.712,21.213,21.213,0,0,0-15.2-10.108L41,9" style="fill:none;stroke:#000;stroke-linejoin:round;stroke-width:2px"/><path d="M60,34q0-1-.034-2" style="fill:none;stroke:#000;stroke-linejoin:round;stroke-width:2px"/><line x1="60" y1="39" x2="60" y2="36" style="fill:none;stroke:#000;stroke-linejoin:round;stroke-width:2px"/><path d="M43,12s6,3,8,8,1,16-2,24" style="fill:none;stroke:#000;stroke-linejoin:round;stroke-width:2px"/><path d="M34,13s-9,8-2,20c4.963,8.507,19,3,19,3" style="fill:none;stroke:#000;stroke-linejoin:round;stroke-width:2px"/><path d="M30,29s1-5,7-5,8,4,8,4V21" style="fill:none;stroke:#000;stroke-linejoin:round;stroke-width:2px"/><path d="M45,28s1,7-3,10" style="fill:none;stroke:#000;stroke-linejoin:round;stroke-width:2px"/></g></svg>