<svg xmlns="http://www.w3.org/2000/svg" viewBox="0 0 64 64"><g id="_15-plain_bread" data-name="15-plain bread"><path d="M18.938,50C16.005,44.15,14,37.373,14,32c0-9.941,8.059-31,18-31,4.772,0,9.109,4.852,12.331,11" style="fill:none;stroke:#000;stroke-linejoin:round;stroke-width:2px"/><path d="M46.993,18A43.709,43.709,0,0,1,50,32c0,12-10,31-18,31-4,0-8.5-4.749-12-11" style="fill:none;stroke:#000;stroke-linejoin:round;stroke-width:2px"/><path d="M45.324,14.007c.306.655.6,1.321.879,1.992" style="fill:none;stroke:#000;stroke-linejoin:round;stroke-width:2px"/><path d="M40,23a104.433,104.433,0,0,0-1.017-13S24.812,22.1,21.623,26c-.981,1.2-1.491,3.38-1.6,6L20,36c.241,8.187,3.76,17,8.771,17C37.995,53,40.013,37.406,40,25Z" style="fill:none;stroke:#000;stroke-linejoin:round;stroke-width:2px"/><path d="M39,10a10.343,10.343,0,0,0,1-4" style="fill:none;stroke:#000;stroke-linejoin:round;stroke-width:2px"/><path d="M23,57c2-3,3.236-4,6-4" style="fill:none;stroke:#000;stroke-linejoin:round;stroke-width:2px"/><path d="M40,23c-1.17,5.62-4.26,11.38-8,17s-2.24,12.09-2.02,12.91A.659.659,0,0,0,30,53" style="fill:none;stroke:#000;stroke-linejoin:round;stroke-width:2px"/><path d="M21.08,43.38v-.01C21.39,41,22.63,32.56,25,29c3.37-5.05,7.44-12.22,8.65-14.37" style="fill:none;stroke:#000;stroke-linejoin:round;stroke-width:2px"/><line x1="36" y1="18" x2="36" y2="20" style="fill:none;stroke:#000;stroke-linejoin:round;stroke-width:2px"/><line x1="33" y1="22" x2="33" y2="24" style="fill:none;stroke:#000;stroke-linejoin:round;stroke-width:2px"/><line x1="27" y1="39" x2="27" y2="41" style="fill:none;stroke:#000;stroke-linejoin:round;stroke-width:2px"/><line x1="25" y1="43" x2="25" y2="45" style="fill:none;stroke:#000;stroke-linejoin:round;stroke-width:2px"/><line x1="27" y1="46" x2="27" y2="48" style="fill:none;stroke:#000;stroke-linejoin:round;stroke-width:2px"/><line x1="26" y1="35" x2="26" y2="37" style="fill:none;stroke:#000;stroke-linejoin:round;stroke-width:2px"/><line x1="30" y1="33" x2="30" y2="35" style="fill:none;stroke:#000;stroke-linejoin:round;stroke-width:2px"/><line x1="30" y1="29" x2="30" y2="31" style="fill:none;stroke:#000;stroke-linejoin:round;stroke-width:2px"/><line x1="34" y1="27" x2="34" y2="29" style="fill:none;stroke:#000;stroke-linejoin:round;stroke-width:2px"/></g></svg>