<svg xmlns="http://www.w3.org/2000/svg" viewBox="0 0 64 64"><g id="_16-Baguette" data-name="16-Baguette"><path d="M24,55.7q3.681.3,8,.3c15.477,0,24.8-3,28-8,1.875-1.943,3-7.6,3-17s-1.125-15.057-3-17c-1.668-2.606-5-4.669-10-6.047" style="fill:none;stroke:#000;stroke-linejoin:round;stroke-width:2px"/><path d="M48,7.458A75.407,75.407,0,0,0,32,6C16.523,6,7.2,9,4,14c-1.875,1.943-3,7.6-3,17S2.125,46.057,4,48c2.439,3.811,8.434,6.46,18,7.5" style="fill:none;stroke:#000;stroke-linejoin:round;stroke-width:2px"/><path d="M15,32.372C9.946,26.553,6.243,19.721,8.867,15.984c4.336-6.175,24.306-1.558,32.074,2.984C50.318,24.452,60.8,39.345,57.314,44.315s-22.7,2.5-32.074-2.985A36.007,36.007,0,0,1,19.53,37" style="fill:none;stroke:#000;stroke-linejoin:round;stroke-width:2px"/><path d="M18,35.555Q17.228,34.8,16.474,34" style="fill:none;stroke:#000;stroke-linejoin:round;stroke-width:2px"/><path d="M8,17c6.731-3.342,23.086.96,29.941,4.968C46.6,27.03,55,39,55,46" style="fill:none;stroke:#000;stroke-linejoin:round;stroke-width:2px"/><path d="M14,26c.468.3,2.5.754,3,1" style="fill:none;stroke:#000;stroke-linejoin:round;stroke-width:2px"/><path d="M16,19c-.468.3-2.505.754-3,1" style="fill:none;stroke:#000;stroke-linejoin:round;stroke-width:2px"/><path d="M27,30c-.343.479-1.657,1.521-2,2" style="fill:none;stroke:#000;stroke-linejoin:round;stroke-width:2px"/><path d="M32,25c-.343.479-1.657,1.521-2,2" style="fill:none;stroke:#000;stroke-linejoin:round;stroke-width:2px"/><path d="M27,37a13.142,13.142,0,0,1,3-1" style="fill:none;stroke:#000;stroke-linejoin:round;stroke-width:2px"/><path d="M34,31a25.674,25.674,0,0,1,2,2" style="fill:none;stroke:#000;stroke-linejoin:round;stroke-width:2px"/><path d="M42,42a7.9,7.9,0,0,1,2-2" style="fill:none;stroke:#000;stroke-linejoin:round;stroke-width:2px"/><path d="M42,29c0,1,1.254,1.822,2,2" style="fill:none;stroke:#000;stroke-linejoin:round;stroke-width:2px"/><path d="M21,23c0,1,2,2,2,3" style="fill:none;stroke:#000;stroke-linejoin:round;stroke-width:2px"/><path d="M25,20c.519.486,1.319,1.8,2,2" style="fill:none;stroke:#000;stroke-linejoin:round;stroke-width:2px"/><path d="M49,38c0,1-1.2,2.45-2,3" style="fill:none;stroke:#000;stroke-linejoin:round;stroke-width:2px"/><path d="M34.687,39A3.454,3.454,0,0,0,37,41" style="fill:none;stroke:#000;stroke-linejoin:round;stroke-width:2px"/><path d="M54,32a7.5,7.5,0,0,0,6,3c3,0,3-6,3-6" style="fill:none;stroke:#000;stroke-linejoin:round;stroke-width:2px"/><path d="M26.36,41.95h-.01l-3.57-.3a7.181,7.181,0,0,0-5.67,12.24,7.015,7.015,0,0,0,1.51,1.15" style="fill:none;stroke:#000;stroke-linejoin:round;stroke-width:2px"/></g></svg>