<svg xmlns="http://www.w3.org/2000/svg" viewBox="0 0 64 64"><g id="_17-plain_bread" data-name="17-plain bread"><path d="M46,12s-.415-3-3-3" style="fill:none;stroke:#000;stroke-linejoin:round;stroke-width:2px"/><line x1="38.5" y1="16" x2="34" y2="23" style="fill:none;stroke:#000;stroke-linejoin:round;stroke-width:2px"/><path d="M32,1h.924a10.305,10.305,0,0,1,8.433,4.18A7.469,7.469,0,0,1,43,9l-3.214,5" style="fill:none;stroke:#000;stroke-linejoin:round;stroke-width:2px"/><path d="M47.415,19.1l1.05.7A4.076,4.076,0,0,1,50,23v2a11.815,11.815,0,0,1-2.026,6.614L37.936,45.809S47.277,41.447,49,38a21.282,21.282,0,0,0,2-7V30" style="fill:none;stroke:#000;stroke-linejoin:round;stroke-width:2px"/><path d="M32,23h2a4.27,4.27,0,0,0,3.022-1.252L46,12l1.437,5.315a2.846,2.846,0,0,1-.476,2.513L36,33c1.371,0,3.03-.03,4-1l6.074-6.722a3.446,3.446,0,0,0,.645-3.979L46,20" style="fill:none;stroke:#000;stroke-linejoin:round;stroke-width:2px"/><path d="M46.092,50C42.775,56.485,38.253,63,32,63" style="fill:none;stroke:#000;stroke-linejoin:round;stroke-width:2px"/><path d="M48.018,46c-.3.654-.612,1.323-.936,2" style="fill:none;stroke:#000;stroke-linejoin:round;stroke-width:2px"/><path d="M49,29l1.628,1.133A6.65,6.65,0,0,1,52,33v3a10.055,10.055,0,0,1-1.13,3.785c-.576,1.144-1.221,2.6-1.947,4.215" style="fill:none;stroke:#000;stroke-linejoin:round;stroke-width:2px"/><path d="M22.094,6A6.122,6.122,0,0,0,21,9l9,14" style="fill:none;stroke:#000;stroke-linejoin:round;stroke-width:2px"/><path d="M32,1h-.924A10.375,10.375,0,0,0,23,4.71" style="fill:none;stroke:#000;stroke-linejoin:round;stroke-width:2px"/><path d="M18,12s.415-3,3-3" style="fill:none;stroke:#000;stroke-linejoin:round;stroke-width:2px"/><path d="M16.585,19.1l-1.05.7A4.076,4.076,0,0,0,14,23v2a11.815,11.815,0,0,0,2.026,6.614L26.064,45.809S16.723,41.447,15,38a21.282,21.282,0,0,1-2-7V30" style="fill:none;stroke:#000;stroke-linejoin:round;stroke-width:2px"/><path d="M22,25.793,28,33c-1.371,0-3.03-.03-4-1l-6.074-6.722a3.446,3.446,0,0,1-.645-3.979L18,20" style="fill:none;stroke:#000;stroke-linejoin:round;stroke-width:2px"/><path d="M32,23H30a4.27,4.27,0,0,1-3.022-1.252L18,12l-1.437,5.315a2.846,2.846,0,0,0,.476,2.513l3.476,4.177" style="fill:none;stroke:#000;stroke-linejoin:round;stroke-width:2px"/><path d="M15,29l-1.628,1.133A6.65,6.65,0,0,0,12,33v3a10.055,10.055,0,0,0,1.13,3.785C16.427,46.338,22,63,32,63" style="fill:none;stroke:#000;stroke-linejoin:round;stroke-width:2px"/></g></svg>