<svg xmlns="http://www.w3.org/2000/svg" viewBox="0 0 64 64"><g id="_18-glazed_twist_donut" data-name="18-glazed twist donut"><path d="M14.365,57,12.8,58.39a6.41,6.41,0,0,1-7.95.43l-.18-.13a6.284,6.284,0,0,1-.7-9.71l12.6-11.94" style="fill:none;stroke:#000;stroke-linejoin:round;stroke-width:2px"/><path d="M24.23,30.23l.26.25A11.885,11.885,0,0,1,28,38.9v.66a11.859,11.859,0,0,1-4,8.88l-.57.51L16,55.548" style="fill:none;stroke:#000;stroke-linejoin:round;stroke-width:2px"/><polyline points="19 34.881 16.57 37.04 16.56 37.05" style="fill:none;stroke:#000;stroke-linejoin:round;stroke-width:2px"/><path d="M13,22.423l7.88-7.463L24,12l.49.48A11.885,11.885,0,0,1,28,20.9v.66a11.843,11.843,0,0,1-3.77,8.67c-.07.07-.15.14-.23.21L21.118,33" style="fill:none;stroke:#000;stroke-linejoin:round;stroke-width:2px"/><line x1="10" y1="25.264" x2="11.335" y2="24" style="fill:none;stroke:#000;stroke-linejoin:round;stroke-width:2px"/><path d="M7,46a7.931,7.931,0,0,1-4.99-7.39L2.02,36c-.01-.15-.02-.3-.02-.45a6.308,6.308,0,0,1,1.96-4.57L5,30l3.168-3" style="fill:none;stroke:#000;stroke-linejoin:round;stroke-width:2px"/><path d="M20.88,14.96l-8.55-2.85a7.875,7.875,0,0,0-2.49-.41A7.593,7.593,0,0,0,8,11.92a7.868,7.868,0,0,0-6,7.63v3.83a7.843,7.843,0,0,0,1.57,4.71L5,30" style="fill:none;stroke:#000;stroke-linejoin:round;stroke-width:2px"/><path d="M8,9A8,8,0,1,1,24,9v3" style="fill:none;stroke:#000;stroke-linejoin:round;stroke-width:2px"/><path d="M24,52v3a8,8,0,0,1-8,8,7.294,7.294,0,0,1-3.4-.81A8.356,8.356,0,0,1,10,60v-.17" style="fill:none;stroke:#000;stroke-linejoin:round;stroke-width:2px"/><path d="M58,20V53A10,10,0,0,1,48,63H42A10,10,0,0,1,32,53V11A10,10,0,0,1,42,1h6A10,10,0,0,1,58,11v3" style="fill:none;stroke:#000;stroke-linejoin:round;stroke-width:2px"/><line x1="58" y1="16" x2="58" y2="18" style="fill:none;stroke:#000;stroke-linejoin:round;stroke-width:2px"/><path d="M62,51v2A10,10,0,0,1,52,63H46" style="fill:none;stroke:#000;stroke-linejoin:round;stroke-width:2px"/><path d="M46,1h6A10,10,0,0,1,62,11V49" style="fill:none;stroke:#000;stroke-linejoin:round;stroke-width:2px"/><path d="M32.056,50.137a2.851,2.851,0,0,0,1.227,2.905,16.582,16.582,0,0,0,2.685,1.052c2.132.925,3.357,3.167,5.489,4.095a10.411,10.411,0,0,0,2.353.609,7.422,7.422,0,0,0,2.312.163,9.916,9.916,0,0,0,3.283-1.494c2.109-1.164,4.52-1.74,6.752-2.68a4.212,4.212,0,0,0,1.327-.782,1.475,1.475,0,0,0,.487-1.347" style="fill:none;stroke:#000;stroke-linejoin:round;stroke-width:2px"/><path d="M58,10a28.28,28.28,0,0,0-3.491-1.439c-1.659-.74-2.343-2.679-3.348-4.2A7.814,7.814,0,0,0,46,1" style="fill:none;stroke:#000;stroke-linejoin:round;stroke-width:2px"/><line x1="52" y1="16" x2="52" y2="18" style="fill:none;stroke:#000;stroke-linejoin:round;stroke-width:2px"/><line x1="49" y1="20" x2="49" y2="22" style="fill:none;stroke:#000;stroke-linejoin:round;stroke-width:2px"/><line x1="43" y1="37" x2="43" y2="39" style="fill:none;stroke:#000;stroke-linejoin:round;stroke-width:2px"/><line x1="41" y1="41" x2="41" y2="43" style="fill:none;stroke:#000;stroke-linejoin:round;stroke-width:2px"/><line x1="43" y1="44" x2="43" y2="46" style="fill:none;stroke:#000;stroke-linejoin:round;stroke-width:2px"/><line x1="42" y1="33" x2="42" y2="35" style="fill:none;stroke:#000;stroke-linejoin:round;stroke-width:2px"/><line x1="46" y1="31" x2="46" y2="33" style="fill:none;stroke:#000;stroke-linejoin:round;stroke-width:2px"/><line x1="46" y1="27" x2="46" y2="29" style="fill:none;stroke:#000;stroke-linejoin:round;stroke-width:2px"/><line x1="50" y1="25" x2="50" y2="27" style="fill:none;stroke:#000;stroke-linejoin:round;stroke-width:2px"/></g></svg>