<svg xmlns="http://www.w3.org/2000/svg" viewBox="0 0 64 64"><g id="_19-sausage_bread" data-name="19-sausage bread"><path d="M25,36.314q-1.049-.137-2-.281" style="fill:none;stroke:#000;stroke-linejoin:round;stroke-width:2px"/><path d="M43.006,21.534C46.168,22.622,48.7,24.151,50,26.282a15.04,15.04,0,0,1,2,4.906v2.944A9.776,9.776,0,0,1,48,41a39.275,39.275,0,0,0-10-2.944c-4.249-.694-7.9-1.112-11-1.49" style="fill:none;stroke:#000;stroke-linejoin:round;stroke-width:2px"/><path d="M21,35.689c-.839-.166-1.609-.349-2.312-.563A9.35,9.35,0,0,1,12,26.211h0a7.245,7.245,0,0,1,7.148-7.17c6.127-.151,15.018.039,21.845,1.879" style="fill:none;stroke:#000;stroke-linejoin:round;stroke-width:2px"/><path d="M22,5c1.364-.01,2.82,0,4.33.047A69.527,69.527,0,0,1,37.95,6.29h.01c5.03,1.05,9.33,2.88,11.14,5.99A15.431,15.431,0,0,1,51,17.19v2.94a9.691,9.691,0,0,1-1.92,4.96" style="fill:none;stroke:#000;stroke-linejoin:round;stroke-width:2px"/><path d="M16.51,19.6A9.447,9.447,0,0,1,13,12.21,7.279,7.279,0,0,1,14.98,7.2a6.874,6.874,0,0,1,4.81-2.16l.209,0" style="fill:none;stroke:#000;stroke-linejoin:round;stroke-width:2px"/><path d="M41.95,57.79c-.19-.85-.97-4.05-1.95-4.79a9.1,9.1,0,0,0-2-1.11c-3.28-1.38-8.02-1.75-12-1.85C24.53,50,23.16,50,22,50a16.26,16.26,0,0,1-4.16-.59,7.425,7.425,0,0,1-.94-.32A7.97,7.97,0,0,1,12,41.7V38.31a7.985,7.985,0,0,1,2.34-5.65l.15-.15" style="fill:none;stroke:#000;stroke-linejoin:round;stroke-width:2px"/><path d="M26,50.04V57a5.8,5.8,0,0,0,.35,2,5.992,5.992,0,0,0,11.4-.3A5.641,5.641,0,0,0,38,57V51.89" style="fill:none;stroke:#000;stroke-linejoin:round;stroke-width:2px"/><path d="M37.96,6.29h-.01a5.85,5.85,0,0,0-1.71-3.53,5.992,5.992,0,0,0-9.91,2.29" style="fill:none;stroke:#000;stroke-linejoin:round;stroke-width:2px"/><path d="M48,41a4.1,4.1,0,0,1,2,3.43v3.7a9.157,9.157,0,0,1-3.72,7.58,15.891,15.891,0,0,1-4.33,2.08,24.707,24.707,0,0,1-4.2.91" style="fill:none;stroke:#000;stroke-linejoin:round;stroke-width:2px"/><path d="M17,49H15.979A1.979,1.979,0,0,0,14,50.979V53a6.117,6.117,0,0,0,5.93,6h6.42" style="fill:none;stroke:#000;stroke-linejoin:round;stroke-width:2px"/><path d="M23.178,53a6.9,6.9,0,0,1-.917,1.321A1,1,0,0,0,22.983,56H26" style="fill:none;stroke:#000;stroke-linejoin:round;stroke-width:2px"/><path d="M16,20a11.078,11.078,0,0,1,9-5c6,0,24,2,25,8" style="fill:none;stroke:#000;stroke-linejoin:round;stroke-width:2px"/><path d="M12,28s5,5,18,5,17,5,19,7" style="fill:none;stroke:#000;stroke-linejoin:round;stroke-width:2px"/><path d="M12,41s3,5,8,5,24-1,26,10" style="fill:none;stroke:#000;stroke-linejoin:round;stroke-width:2px"/></g></svg>