<svg xmlns="http://www.w3.org/2000/svg" viewBox="0 0 64 64"><g id="_20-หausage_waffle" data-name="20-หausage waffle"><rect x="35" y="1" width="20" height="56" rx="8" ry="8" style="fill:none;stroke:#000;stroke-linejoin:round;stroke-width:2px"/><polyline points="41.002 4.002 44.5 7.5 45.5 8.5 48.5 11.5 50.5 13.5 52.5 15.5 55 18" style="fill:none;stroke:#000;stroke-linejoin:round;stroke-width:2px"/><polyline points="55 28 50.5 23.5 45.5 18.5 40.5 13.5 35.06 8.06" style="fill:none;stroke:#000;stroke-linejoin:round;stroke-width:2px"/><line x1="35" y1="18" x2="55" y2="38" style="fill:none;stroke:#000;stroke-linejoin:round;stroke-width:2px"/><line x1="35" y1="28" x2="55" y2="48" style="fill:none;stroke:#000;stroke-linejoin:round;stroke-width:2px"/><polyline points="50 53 45.5 48.5 40.5 43.5 35.5 38.5 35 38" style="fill:none;stroke:#000;stroke-linejoin:round;stroke-width:2px"/><polyline points="43 59 43 63 47 63 47 57" style="fill:none;stroke:#000;stroke-linejoin:round;stroke-width:2px"/><polyline points="51.56 2.44 45.5 8.5 44.5 9.5 40.5 13.5 36.5 17.5 35.5 18.5 35 19" style="fill:none;stroke:#000;stroke-linejoin:round;stroke-width:2px"/><polyline points="35 29 35.5 28.5 40.5 23.5 45.5 18.5 50.5 13.5 55 9" style="fill:none;stroke:#000;stroke-linejoin:round;stroke-width:2px"/><polyline points="55 19 50.5 23.5 45.5 28.5 40.5 33.5 35.5 38.5 35 39" style="fill:none;stroke:#000;stroke-linejoin:round;stroke-width:2px"/><polyline points="55 29 50.5 33.5 45.5 38.5 40.5 43.5 35 49" style="fill:none;stroke:#000;stroke-linejoin:round;stroke-width:2px"/><polyline points="55 39 50.5 43.5 45.5 48.5 38.44 55.56" style="fill:none;stroke:#000;stroke-linejoin:round;stroke-width:2px"/><rect x="9" y="1" width="20" height="56" rx="8" ry="8" style="fill:none;stroke:#000;stroke-linejoin:round;stroke-width:2px"/><polyline points="15.002 4.002 18.5 7.5 19.5 8.5 22.5 11.5 24.5 13.5 26.5 15.5 29 18" style="fill:none;stroke:#000;stroke-linejoin:round;stroke-width:2px"/><polyline points="29 28 24.5 23.5 19.5 18.5 14.5 13.5 9.06 8.06" style="fill:none;stroke:#000;stroke-linejoin:round;stroke-width:2px"/><line x1="9" y1="18" x2="29" y2="38" style="fill:none;stroke:#000;stroke-linejoin:round;stroke-width:2px"/><line x1="9" y1="28" x2="29" y2="48" style="fill:none;stroke:#000;stroke-linejoin:round;stroke-width:2px"/><polyline points="24 53 19.5 48.5 14.5 43.5 9.5 38.5 9 38" style="fill:none;stroke:#000;stroke-linejoin:round;stroke-width:2px"/><polyline points="17 59 17 63 21 63 21 57" style="fill:none;stroke:#000;stroke-linejoin:round;stroke-width:2px"/><polyline points="25.56 2.44 19.5 8.5 18.5 9.5 14.5 13.5 10.5 17.5 9.5 18.5 9 19" style="fill:none;stroke:#000;stroke-linejoin:round;stroke-width:2px"/><polyline points="9 29 9.5 28.5 14.5 23.5 19.5 18.5 24.5 13.5 29 9" style="fill:none;stroke:#000;stroke-linejoin:round;stroke-width:2px"/><polyline points="29 19 24.5 23.5 19.5 28.5 14.5 33.5 9.5 38.5 9 39" style="fill:none;stroke:#000;stroke-linejoin:round;stroke-width:2px"/><polyline points="29 29 24.5 33.5 19.5 38.5 14.5 43.5 9 49" style="fill:none;stroke:#000;stroke-linejoin:round;stroke-width:2px"/><polyline points="29 39 24.5 43.5 19.5 48.5 12.44 55.56" style="fill:none;stroke:#000;stroke-linejoin:round;stroke-width:2px"/></g></svg>