<svg xmlns="http://www.w3.org/2000/svg" viewBox="0 0 64 64"><g id="_21-Baguette" data-name="21-Baguette"><path d="M6,52v2a9,9,0,0,0,9,9h6a9,9,0,0,0,9-9V48.631a12,12,0,0,0-2.013-6.653L26,39l-5.994,2C14.267,43.155,13.165,48.922,13,52l.015,3" style="fill:none;stroke:#000;stroke-linejoin:round;stroke-width:2px"/><polyline points="6 48 6 49.03 6 49 6 50" style="fill:none;stroke:#000;stroke-linejoin:round;stroke-width:2px"/><path d="M23,49.483a45.225,45.225,0,0,1-6.727,4.228C13.493,55.171,10.041,54.14,10,51V49c0-6.592,10.93-8.7,15.139-9.715a4.494,4.494,0,0,0,2.6-1.687l.512-.7A3.829,3.829,0,0,0,29,34.633v-1.12a2.149,2.149,0,0,0-2.722-1.94C20.378,32.946,6.87,36.852,6,44v2" style="fill:none;stroke:#000;stroke-linejoin:round;stroke-width:2px"/><path d="M28,42c0,2.141-1.379,4.189-3.276,6" style="fill:none;stroke:#000;stroke-linejoin:round;stroke-width:2px"/><path d="M25.118,32l.353-.563A10,10,0,0,0,27,26.123V23.344a1,1,0,0,0-1.311-.951C21.867,23.654,11,28.11,11,38" style="fill:none;stroke:#000;stroke-linejoin:round;stroke-width:2px"/><path d="M17.662,18c2.51-1.714,5.12-3,7.338-3l.767,2.239A5.3,5.3,0,0,1,26,18.8h0a5.323,5.323,0,0,1-1.559,3.763L24,23" style="fill:none;stroke:#000;stroke-linejoin:round;stroke-width:2px"/><path d="M8,40V33.088A15.389,15.389,0,0,1,13.229,21.47c.951-.827,1.977-1.674,3.039-2.47" style="fill:none;stroke:#000;stroke-linejoin:round;stroke-width:2px"/><path d="M13.818,21l-.383-.211A2.9,2.9,0,0,1,12,18.235h0a2.977,2.977,0,0,1,.848-2.112C14.523,14.457,17.421,11,20.182,11,22,11,22,15,22,15v1" style="fill:none;stroke:#000;stroke-linejoin:round;stroke-width:2px"/><path d="M23,23s1,3,0,5c-.556,1.112-2.968,3.153-5,4.744" style="fill:none;stroke:#000;stroke-linejoin:round;stroke-width:2px"/><path d="M24.533,6.993,24.16,5.7A6.4,6.4,0,0,0,18.065,1h0A6.409,6.409,0,0,0,11.91,5.921l-2.4,9.469a16.565,16.565,0,0,0,.284,9.132L10,26" style="fill:none;stroke:#000;stroke-linejoin:round;stroke-width:2px"/><path d="M23.764,15l.218-.453A10.321,10.321,0,0,0,24.944,9" style="fill:none;stroke:#000;stroke-linejoin:round;stroke-width:2px"/><path d="M18,29c-.343.479-1.657,1.521-2,2" style="fill:none;stroke:#000;stroke-linejoin:round;stroke-width:2px"/><path d="M16,49a25.674,25.674,0,0,1,2,2" style="fill:none;stroke:#000;stroke-linejoin:round;stroke-width:2px"/><path d="M17,47a7.9,7.9,0,0,1,2-2" style="fill:none;stroke:#000;stroke-linejoin:round;stroke-width:2px"/><path d="M19,27c.519.486,1.319,1.8,2,2" style="fill:none;stroke:#000;stroke-linejoin:round;stroke-width:2px"/><path d="M24,43c0,1-1.2,2.45-2,3" style="fill:none;stroke:#000;stroke-linejoin:round;stroke-width:2px"/><path d="M34,52v2a9,9,0,0,0,9,9h6a9,9,0,0,0,9-9V48.631a12,12,0,0,0-2.013-6.653L54,39l-5.994,2C42.267,43.155,41.165,48.922,41,52l.015,3" style="fill:none;stroke:#000;stroke-linejoin:round;stroke-width:2px"/><polyline points="34 48 34 49.03 34 49 34 50" style="fill:none;stroke:#000;stroke-linejoin:round;stroke-width:2px"/><path d="M51,49.483a45.225,45.225,0,0,1-6.727,4.228C41.493,55.171,38.041,54.14,38,51V49c0-6.592,10.93-8.7,15.139-9.715a4.494,4.494,0,0,0,2.6-1.687l.512-.7A3.829,3.829,0,0,0,57,34.633v-1.12a2.149,2.149,0,0,0-2.722-1.94C48.378,32.946,34.87,36.852,34,44v2" style="fill:none;stroke:#000;stroke-linejoin:round;stroke-width:2px"/><path d="M56,42c0,2.141-1.379,4.189-3.276,6" style="fill:none;stroke:#000;stroke-linejoin:round;stroke-width:2px"/><path d="M53.118,32l.353-.563A10,10,0,0,0,55,26.123V23.344a1,1,0,0,0-1.311-.951C49.867,23.654,39,28.11,39,38" style="fill:none;stroke:#000;stroke-linejoin:round;stroke-width:2px"/><path d="M45.662,18c2.51-1.714,5.12-3,7.338-3l.767,2.239A5.3,5.3,0,0,1,54,18.8h0a5.323,5.323,0,0,1-1.559,3.763L52,23" style="fill:none;stroke:#000;stroke-linejoin:round;stroke-width:2px"/><path d="M36,40V33.088A15.389,15.389,0,0,1,41.229,21.47c.951-.827,1.977-1.674,3.039-2.47" style="fill:none;stroke:#000;stroke-linejoin:round;stroke-width:2px"/><path d="M41.818,21l-.383-.211A2.9,2.9,0,0,1,40,18.235h0a2.977,2.977,0,0,1,.848-2.112C42.523,14.457,45.421,11,48.182,11,50,11,50,15,50,15v1" style="fill:none;stroke:#000;stroke-linejoin:round;stroke-width:2px"/><path d="M51,23s1,3,0,5c-.556,1.112-2.968,3.153-5,4.744" style="fill:none;stroke:#000;stroke-linejoin:round;stroke-width:2px"/><path d="M52.533,6.993,52.16,5.7A6.4,6.4,0,0,0,46.065,1h0A6.409,6.409,0,0,0,39.91,5.921l-2.4,9.469a16.565,16.565,0,0,0,.284,9.132L38,26" style="fill:none;stroke:#000;stroke-linejoin:round;stroke-width:2px"/><path d="M51.764,15l.218-.453A10.321,10.321,0,0,0,52.944,9" style="fill:none;stroke:#000;stroke-linejoin:round;stroke-width:2px"/><path d="M46,29c-.343.479-1.657,1.521-2,2" style="fill:none;stroke:#000;stroke-linejoin:round;stroke-width:2px"/><path d="M44,49a25.674,25.674,0,0,1,2,2" style="fill:none;stroke:#000;stroke-linejoin:round;stroke-width:2px"/><path d="M45,47a7.9,7.9,0,0,1,2-2" style="fill:none;stroke:#000;stroke-linejoin:round;stroke-width:2px"/><path d="M47,27c.519.486,1.319,1.8,2,2" style="fill:none;stroke:#000;stroke-linejoin:round;stroke-width:2px"/><path d="M52,43c0,1-1.2,2.45-2,3" style="fill:none;stroke:#000;stroke-linejoin:round;stroke-width:2px"/></g></svg>