<svg xmlns="http://www.w3.org/2000/svg" viewBox="0 0 64 64"><g id="_22-Baguette" data-name="22-Baguette"><path d="M55,25.907,23.547,57.36c-4.669,4.669-14.089,8.453-19.725,2.818h0C-1.813,54.542,1.971,45.122,6.64,40.453L8,39.093" style="fill:none;stroke:#000;stroke-linejoin:round;stroke-width:2px"/><path d="M10,37.093,40.453,6.64c4.669-4.669,14.089-8.453,19.725-2.818h0c5.635,5.636,1.851,15.056-2.818,19.725l-.36.36" style="fill:none;stroke:#000;stroke-linejoin:round;stroke-width:2px"/><path d="M45.384,3.118a33.2,33.2,0,0,0,1.409,15.5C49.611,27.069,51.724,29.182,48.907,32" style="fill:none;stroke:#000;stroke-linejoin:round;stroke-width:2px"/><path d="M45,5.6a29.915,29.915,0,0,1,5.314,9.5,17.046,17.046,0,0,1-.705,11.976" style="fill:none;stroke:#000;stroke-linejoin:round;stroke-width:2px"/><path d="M14.389,32.7A33.182,33.182,0,0,0,15.8,48.2c2.818,8.454,4.931,10.567,2.113,13.385" style="fill:none;stroke:#000;stroke-linejoin:round;stroke-width:2px"/><path d="M13.684,34.818A29.326,29.326,0,0,1,19.32,44.68a17.049,17.049,0,0,1-.7,11.976" style="fill:none;stroke:#000;stroke-linejoin:round;stroke-width:2px"/><path d="M35.522,11.571a39.408,39.408,0,0,0,1.409,16.907c2.818,8.453,4.931,10.566,2.113,13.384" style="fill:none;stroke:#000;stroke-linejoin:round;stroke-width:2px"/><path d="M35,15.3a29.762,29.762,0,0,1,5.452,9.658,17.039,17.039,0,0,1-.7,11.975" style="fill:none;stroke:#000;stroke-linejoin:round;stroke-width:2px"/><path d="M24.956,22.138a39.412,39.412,0,0,0,1.408,16.906C29.182,47.5,31.3,49.611,28.478,52.429" style="fill:none;stroke:#000;stroke-linejoin:round;stroke-width:2px"/><path d="M24.554,26a29.892,29.892,0,0,1,5.333,9.519A17.046,17.046,0,0,1,29.182,47.5" style="fill:none;stroke:#000;stroke-linejoin:round;stroke-width:2px"/></g></svg>