<svg xmlns="http://www.w3.org/2000/svg" viewBox="0 0 64 64"><g id="_23-pecan_pie" data-name="23-pecan pie"><path d="M31.27,23.89,42,19.68l.21-.08a6.618,6.618,0,0,0,1.24-.56A6.974,6.974,0,0,0,47,12.95v-.86a5,5,0,0,0-2.76-4.47L41,6v4c0,2.16-2.99,4.13-6.38,5.68-1.71.78-3.53,1.45-5.12,1.99C26.96,18.51,25,19,25,19h-.73" style="fill:none;stroke:#000;stroke-linejoin:round;stroke-width:2px"/><path d="M21,12c-3,0-4,5-4,5v3.01a8.033,8.033,0,0,0,2.95,6.21,7.942,7.942,0,0,0,2.79,1.47l10.95,3.22" style="fill:none;stroke:#000;stroke-linejoin:round;stroke-width:2px"/><path d="M39,27a51.368,51.368,0,0,1-7.73-3.11,24.741,24.741,0,0,1-7-4.89A7.448,7.448,0,0,1,22,14V12.67" style="fill:none;stroke:#000;stroke-linejoin:round;stroke-width:2px"/><path d="M19.95,26.22C17.76,27.2,17,31,17,31v3.01a7.985,7.985,0,0,0,2.3,5.61,7.839,7.839,0,0,0,2.72,1.82,7.611,7.611,0,0,0,.72.25l9.62,2.83" style="fill:none;stroke:#000;stroke-linejoin:round;stroke-width:2px"/><path d="M38.62,40.88a52.276,52.276,0,0,1-7.68-3.15h-.01a27.054,27.054,0,0,1-5.7-3.79A10.013,10.013,0,0,1,22.356,30" style="fill:none;stroke:#000;stroke-linejoin:round;stroke-width:2px"/><path d="M19.3,39.62C17.61,40.96,17,44,17,44v3.01C17,50.56,21.6,56,25,57" style="fill:none;stroke:#000;stroke-linejoin:round;stroke-width:2px"/><path d="M36,53h-.02a19.689,19.689,0,0,1-5.77-2.06c-3.2-1.7-6.129-4.214-7.457-6.936" style="fill:none;stroke:#000;stroke-linejoin:round;stroke-width:2px"/><path d="M30.93,37.73h.01l10.32-3.04a6.492,6.492,0,0,0,.74-.26,7.734,7.734,0,0,0,2.7-1.81A7.985,7.985,0,0,0,47,27.01V24s-.9-4.5-3.55-4.96" style="fill:none;stroke:#000;stroke-linejoin:round;stroke-width:2px"/><path d="M25,34l.23-.06a49.038,49.038,0,0,0,8.46-3.03c3.828-1.827,7.6-4.464,8.22-7.91" style="fill:none;stroke:#000;stroke-linejoin:round;stroke-width:2px"/><path d="M30.21,50.94l11.05-3.25c.1-.03.19-.06.29-.1h.01a7.648,7.648,0,0,0,2.57-1.44A7.977,7.977,0,0,0,47,40.01V37s-.61-3.04-2.3-4.38" style="fill:none;stroke:#000;stroke-linejoin:round;stroke-width:2px"/><path d="M25,47a50.03,50.03,0,0,0,7.36-2.48,26.839,26.839,0,0,0,6.26-3.64A9.467,9.467,0,0,0,41.636,37" style="fill:none;stroke:#000;stroke-linejoin:round;stroke-width:2px"/><path d="M39,50.42A28.809,28.809,0,0,1,35.98,53h-.01A18.634,18.634,0,0,1,25,57l3.39,4.14A10.019,10.019,0,0,0,34.2,63,11.813,11.813,0,0,0,46,51.2v-.37a6.793,6.793,0,0,0-1.87-4.68" style="fill:none;stroke:#000;stroke-linejoin:round;stroke-width:2px"/><path d="M18,51l-1,3h0a7.7,7.7,0,0,0,4.569,7.031l3.719,1.653A3.682,3.682,0,0,0,26.779,63H34" style="fill:none;stroke:#000;stroke-linejoin:round;stroke-width:2px"/><path d="M25,7.542,23.19,6.01A3.089,3.089,0,0,0,22,5.39a2.969,2.969,0,0,0-1.51-.01l-.19.04A3.049,3.049,0,0,0,18.64,6.5,3.085,3.085,0,0,0,18,8.37a3.042,3.042,0,0,0,1.35,2.53L21,12l1,.67,7.5,5L30,18" style="fill:none;stroke:#000;stroke-linejoin:round;stroke-width:2px"/><polyline points="35 16 34.62 15.68 26.726 9.002" style="fill:none;stroke:#000;stroke-linejoin:round;stroke-width:2px"/><path d="M39,13c0-3.511-2.959-8.009-4.721-10.376A4.01,4.01,0,0,0,31.061,1H26a4,4,0,0,0-4,4h0V6" style="fill:none;stroke:#000;stroke-linejoin:round;stroke-width:2px"/><path d="M34.41,2.8A1.993,1.993,0,0,1,36,2h.88a4.009,4.009,0,0,1,3.88,3.03L41,6" style="fill:none;stroke:#000;stroke-linejoin:round;stroke-width:2px"/><path d="M40,15c.468.295,2.505.754,3,1" style="fill:none;stroke:#000;stroke-linejoin:round;stroke-width:2px"/><path d="M28,25c-.468.3-2.5.754-3,1" style="fill:none;stroke:#000;stroke-linejoin:round;stroke-width:2px"/><path d="M29,3c-.468.295-2.5.754-3,1" style="fill:none;stroke:#000;stroke-linejoin:round;stroke-width:2px"/><path d="M21,47c-.343.479-1.657,1.521-2,2" style="fill:none;stroke:#000;stroke-linejoin:round;stroke-width:2px"/><path d="M26,38c-.343.479-1.657,1.521-2,2" style="fill:none;stroke:#000;stroke-linejoin:round;stroke-width:2px"/><path d="M24,53a13.142,13.142,0,0,1,3-1" style="fill:none;stroke:#000;stroke-linejoin:round;stroke-width:2px"/><path d="M38,44a25.674,25.674,0,0,1,2,2" style="fill:none;stroke:#000;stroke-linejoin:round;stroke-width:2px"/><path d="M35,59a7.9,7.9,0,0,1,2-2" style="fill:none;stroke:#000;stroke-linejoin:round;stroke-width:2px"/><path d="M21,33c0,1,1.254,1.822,2,2" style="fill:none;stroke:#000;stroke-linejoin:round;stroke-width:2px"/><path d="M21,21c0,1,2,2,2,3" style="fill:none;stroke:#000;stroke-linejoin:round;stroke-width:2px"/><path d="M41,29c.519.486,1.319,1.8,2,2" style="fill:none;stroke:#000;stroke-linejoin:round;stroke-width:2px"/><path d="M31,5c.519.486,1.319,1.8,2,2" style="fill:none;stroke:#000;stroke-linejoin:round;stroke-width:2px"/><path d="M42,55c0,1-1.2,2.45-2,3" style="fill:none;stroke:#000;stroke-linejoin:round;stroke-width:2px"/><path d="M41.687,40A3.454,3.454,0,0,0,44,42" style="fill:none;stroke:#000;stroke-linejoin:round;stroke-width:2px"/></g></svg>