<svg xmlns="http://www.w3.org/2000/svg" viewBox="0 0 64 64"><g id="_24-Pretzel" data-name="24-Pretzel"><path d="M24,48.03A13.757,13.757,0,0,0,32,51a13.79,13.79,0,0,0,8.039-3" style="fill:none;stroke:#000;stroke-linejoin:round;stroke-width:2px"/><path d="M51,33.5A20.516,20.516,0,0,0,53,26c0-8-3-15-8-15s-6,4-6,4H38" style="fill:none;stroke:#000;stroke-linejoin:round;stroke-width:2px"/><path d="M49.257,37c.375-.669.725-1.338,1.049-2" style="fill:none;stroke:#000;stroke-linejoin:round;stroke-width:2px"/><path d="M62.06,14A23.61,23.61,0,0,1,63,18V28" style="fill:none;stroke:#000;stroke-linejoin:round;stroke-width:2px"/><path d="M60.4,10c.357.679.666,1.353.935,2.005" style="fill:none;stroke:#000;stroke-linejoin:round;stroke-width:2px"/><path d="M32,5.23C35.21,2.72,39.71,1,46,1A15.2,15.2,0,0,1,59.2,8" style="fill:none;stroke:#000;stroke-linejoin:round;stroke-width:2px"/><path d="M25.641,13.967A28.64,28.64,0,0,0,24,23.771V27.8a14.3,14.3,0,0,0,1.478,6.339,14.074,14.074,0,0,0,2.741,3.791,33.109,33.109,0,0,0,3.934,3.322,23.956,23.956,0,0,0,8.153,3.924,8.237,8.237,0,0,1,2.435,1.05c3.547,2.262,5.585,7,6.665,10.6.133.439.255.856.357,1.254a4.547,4.547,0,0,0,8.948-1.131,4.711,4.711,0,0,0-.122-1.05,42.476,42.476,0,0,0-2.181-6.767c-1.8-4.25-4.444-8.1-8.1-9.722a8.952,8.952,0,0,0-.867-.347,22.5,22.5,0,0,1-9.08-5.381,11.744,11.744,0,0,1-2.13-2.772L26.038,14.6a4.5,4.5,0,0,0-.4-.632A8.1,8.1,0,0,0,18.9,10.522c-5.1,0-8.152,7.134-8.152,15.287,0,2.7,1.429,6.933,3.807,11.189" style="fill:none;stroke:#000;stroke-linejoin:round;stroke-width:2px"/><path d="M32.219,41A23.8,23.8,0,0,1,24,45c-5.488,1.372-8.153,8.392-9.285,12.665A4.465,4.465,0,0,1,10.4,61h0a4.458,4.458,0,0,1-4.343-5.48C7.59,49,11,41,17,39a22.441,22.441,0,0,0,8.632-5" style="fill:none;stroke:#000;stroke-linejoin:round;stroke-width:2px"/><path d="M1,28V18S3,1,18,1C41,1,40,24,40,24v1.349a16.344,16.344,0,0,1-.838,5.166L38,34" style="fill:none;stroke:#000;stroke-linejoin:round;stroke-width:2px"/><path d="M47,57.921A25.732,25.732,0,0,1,32,63" style="fill:none;stroke:#000;stroke-linejoin:round;stroke-width:2px"/><path d="M63,28c0,6.71-2.66,14.41-7.2,20.88" style="fill:none;stroke:#000;stroke-linejoin:round;stroke-width:2px"/><path d="M32,63a25.726,25.726,0,0,1-15-5.078" style="fill:none;stroke:#000;stroke-linejoin:round;stroke-width:2px"/><path d="M5.247,44A35.8,35.8,0,0,1,1,28" style="fill:none;stroke:#000;stroke-linejoin:round;stroke-width:2px"/><path d="M8.2,48.88Q7.216,47.478,6.352,46" style="fill:none;stroke:#000;stroke-linejoin:round;stroke-width:2px"/></g></svg>