<svg xmlns="http://www.w3.org/2000/svg" viewBox="0 0 64 64"><g id="_25-Cruller" data-name="25-Cruller"><path d="M20.824,41.006C22.807,44.1,26.454,46,32,46h2s3-1,4-2c0,0-10-4-10-9s4-9,4-9l-1.349-1.011a4.98,4.98,0,0,0-5.864-.1C22.2,26.716,19,29.824,19,34a14.312,14.312,0,0,0,.829,5" style="fill:none;stroke:#000;stroke-linejoin:round;stroke-width:2px"/><path d="M32,26.03,34,24h2.379a2,2,0,0,1,1.952,1.592c.377,1.746,1.023,4.56,1.669,6.528C41,35.165,49,41,54,41c0,0-9,6.045-16,3" style="fill:none;stroke:#000;stroke-linejoin:round;stroke-width:2px"/><path d="M13.749,24c.519-.293,1.023-.556,1.491-.789A11.828,11.828,0,0,1,20.5,22h1.59a2.8,2.8,0,0,1,.91.15,3.08,3.08,0,0,1,.76.35L26,24" style="fill:none;stroke:#000;stroke-linejoin:round;stroke-width:2px"/><path d="M23.86,44H16c-3.1,0-5.81-2.3-7.43-4.05A5.989,5.989,0,0,1,7,35.89V32c0-2.861,2.5-5.266,5.113-7" style="fill:none;stroke:#000;stroke-linejoin:round;stroke-width:2px"/><path d="M23,22.15V22l-5.11-2.19A10.1,10.1,0,0,0,13.95,19H9.97A9.8,9.8,0,0,0,6,19.82a7.444,7.444,0,0,0-.85.42C3.21,21.33,1,23.19,1,26v5s0,6,6,6" style="fill:none;stroke:#000;stroke-linejoin:round;stroke-width:2px"/><path d="M41.61,22.39,42,22l4.11-2.19A10.1,10.1,0,0,1,50.05,19h3.98a9.8,9.8,0,0,1,3.97.82,7.444,7.444,0,0,1,.85.42C60.79,21.33,63,23.19,63,26v5a7.147,7.147,0,0,1-.3,1.82,1.209,1.209,0,0,1-.05.18" style="fill:none;stroke:#000;stroke-linejoin:round;stroke-width:2px"/><path d="M53,25.331,51.53,24.35A14.024,14.024,0,0,0,43.76,22a6.163,6.163,0,0,0-2.15.39,6.09,6.09,0,0,0-3.29,2.97l-.04.07" style="fill:none;stroke:#000;stroke-linejoin:round;stroke-width:2px"/><line x1="56.999" y1="27.996" x2="54.999" y2="26.663" style="fill:none;stroke:#000;stroke-linejoin:round;stroke-width:2px"/><path d="M54,41a10.709,10.709,0,0,0,7.74-3.42A4.551,4.551,0,0,0,63,34.43a4.383,4.383,0,0,0-.3-1.61,4.473,4.473,0,0,0-1.72-2.17L58.5,29" style="fill:none;stroke:#000;stroke-linejoin:round;stroke-width:2px"/><path d="M26,24.26v-1.6a4,4,0,0,0-1.17-2.83l-5.58-5.58a7.5,7.5,0,0,0-2.24-1.55,7.573,7.573,0,0,0-3.19-.7,7.7,7.7,0,0,0-3.44.81A7.911,7.911,0,0,0,6,19.82V20" style="fill:none;stroke:#000;stroke-linejoin:round;stroke-width:2px"/><path d="M38,24.86v-2.2a4,4,0,0,1,1.17-2.83l5.58-5.58a7.5,7.5,0,0,1,2.24-1.55,7.573,7.573,0,0,1,3.19-.7,7.7,7.7,0,0,1,3.44.81A7.911,7.911,0,0,1,58,19.82V20" style="fill:none;stroke:#000;stroke-linejoin:round;stroke-width:2px"/><path d="M29,19.632,27.43,15l-.4-3.534A4.951,4.951,0,0,1,32,6h0a4.951,4.951,0,0,1,4.969,5.466L36.57,15,35,19.632A2.03,2.03,0,0,1,33.075,21h-2.15A2.03,2.03,0,0,1,29,19.632Z" style="fill:none;stroke:#000;stroke-linejoin:round;stroke-width:2px"/><path d="M37,11.09l.92-1.16a5.166,5.166,0,0,1,5.42-1.74,4.979,4.979,0,0,1,2.64,1.73,4.573,4.573,0,0,1,1.01,2.78" style="fill:none;stroke:#000;stroke-linejoin:round;stroke-width:2px"/><path d="M17.01,12.7a4.573,4.573,0,0,1,1.01-2.78,4.979,4.979,0,0,1,2.64-1.73,5.166,5.166,0,0,1,5.42,1.74L27,11.09" style="fill:none;stroke:#000;stroke-linejoin:round;stroke-width:2px"/><path d="M38,23c0-1.105-2.236-2-5-2" style="fill:none;stroke:#000;stroke-linejoin:round;stroke-width:2px"/><path d="M26,23c0-1.105,2.236-2,5-2" style="fill:none;stroke:#000;stroke-linejoin:round;stroke-width:2px"/><path d="M59,39v2S57,52,31,52,3,41,3,41V36" style="fill:none;stroke:#000;stroke-linejoin:round;stroke-width:2px"/><path d="M3,40a2.006,2.006,0,0,0-2,2v.91a5,5,0,0,0,2.76,4.47L7,49" style="fill:none;stroke:#000;stroke-linejoin:round;stroke-width:2px"/><path d="M7,46.31v1.5a7.711,7.711,0,0,0,6.43,7.6L23,57V56" style="fill:none;stroke:#000;stroke-linejoin:round;stroke-width:2px"/><path d="M18,50.83v.27a5,5,0,0,0,2.52,4.34l2.17,1.24A9.991,9.991,0,0,0,27.66,58H35l3-2" style="fill:none;stroke:#000;stroke-linejoin:round;stroke-width:2px"/><path d="M49,53a4,4,0,0,1-4,4H42.34a10.16,10.16,0,0,1-2.63-.35l-1.91-.52-4.91-1.34a3.942,3.942,0,0,1-2.76-2.8" style="fill:none;stroke:#000;stroke-linejoin:round;stroke-width:2px"/><path d="M46.19,50.32a3.97,3.97,0,0,0,2.55,2.59L49,53l1.3.43A4.334,4.334,0,0,0,56,49.32V45.48" style="fill:none;stroke:#000;stroke-linejoin:round;stroke-width:2px"/><path d="M56,50l4.576-1.961A4,4,0,0,0,63,44.362V44a4,4,0,0,0-4-4h0" style="fill:none;stroke:#000;stroke-linejoin:round;stroke-width:2px"/></g></svg>