<svg xmlns="http://www.w3.org/2000/svg" viewBox="0 0 64 64"><g id="_26-bun" data-name="26-bun"><path d="M3.854,23q-.366,1-.673,2" style="fill:none;stroke:#000;stroke-linejoin:round;stroke-width:2px"/><path d="M2.614,27A51.926,51.926,0,0,0,1,39.5C1,48,14.879,60,32,60S63,48,63,39.5C63,32.6,61,4,33,4H31C15.936,4,8.4,12.277,4.647,21" style="fill:none;stroke:#000;stroke-linejoin:round;stroke-width:2px"/><path d="M21,13c.468.295,2.5.754,3,1" style="fill:none;stroke:#000;stroke-linejoin:round;stroke-width:2px"/><path d="M25,9c-.468.295-2.5.754-3,1" style="fill:none;stroke:#000;stroke-linejoin:round;stroke-width:2px"/><path d="M34,15c-.343.479-1.657,1.521-2,2" style="fill:none;stroke:#000;stroke-linejoin:round;stroke-width:2px"/><path d="M39,8c-.343.479-1.657,1.521-2,2" style="fill:none;stroke:#000;stroke-linejoin:round;stroke-width:2px"/><path d="M34,11a25.674,25.674,0,0,1,2,2" style="fill:none;stroke:#000;stroke-linejoin:round;stroke-width:2px"/><path d="M38,16a7.9,7.9,0,0,1,2-2" style="fill:none;stroke:#000;stroke-linejoin:round;stroke-width:2px"/><path d="M40,10c0,1,1.254,1.822,2,2" style="fill:none;stroke:#000;stroke-linejoin:round;stroke-width:2px"/><path d="M28,10c0,1,2,2,2,3" style="fill:none;stroke:#000;stroke-linejoin:round;stroke-width:2px"/><path d="M32,7c.519.486,1.319,1.8,2,2" style="fill:none;stroke:#000;stroke-linejoin:round;stroke-width:2px"/><path d="M25.687,14A3.454,3.454,0,0,0,28,16" style="fill:none;stroke:#000;stroke-linejoin:round;stroke-width:2px"/><path d="M57.112,37.5C58.577,35.68,60.606,33.985,63,34" style="fill:none;stroke:#000;stroke-linejoin:round;stroke-width:2px"/><path d="M22,47.8c.707.372,1.417.739,2.135,1.085,3.194,1.536,6.85,2.675,10.313,1.829,3.384-.828,5.994-3.4,9.194-4.742,2.909-1.221,6.3-1.429,8.869-3.225A15.891,15.891,0,0,0,56,38.956" style="fill:none;stroke:#000;stroke-linejoin:round;stroke-width:2px"/><path d="M18.519,46c.662.319,1.317.656,1.969,1" style="fill:none;stroke:#000;stroke-linejoin:round;stroke-width:2px"/><path d="M1,34a30.208,30.208,0,0,1,6.075,5.8,14,14,0,0,0,3.46,3.353,17.615,17.615,0,0,0,3.962,1.28,21.159,21.159,0,0,1,2.5.883" style="fill:none;stroke:#000;stroke-linejoin:round;stroke-width:2px"/></g></svg>