<svg xmlns="http://www.w3.org/2000/svg" viewBox="0 0 64 64"><g id="_27-bun" data-name="27-bun"><path d="M55,16.415q-.956-.768-2.006-1.47" style="fill:none;stroke:#000;stroke-linejoin:round;stroke-width:2px"/><path d="M1.369,36l.7,9.591h0C3.568,50.875,16.477,55,32,55c16.53,0,29.931-4.681,29.931-10.455l.8-10.13A16.569,16.569,0,0,0,63,31.477c0-.121-.01-.241-.013-.362l.013-.16h-.018A18.89,18.89,0,0,0,56.8,18" style="fill:none;stroke:#000;stroke-linejoin:round;stroke-width:2px"/><path d="M51.5,14A38.692,38.692,0,0,0,32,9C15.121,9,1.4,18.783,1.018,30.955H1l.012.168c0,.119-.012.236-.012.354A16.367,16.367,0,0,0,1.2,34" style="fill:none;stroke:#000;stroke-linejoin:round;stroke-width:2px"/><path d="M21,19c.468.3,2.5.754,3,1" style="fill:none;stroke:#000;stroke-linejoin:round;stroke-width:2px"/><path d="M26,16c-.468.3-2.5.754-3,1" style="fill:none;stroke:#000;stroke-linejoin:round;stroke-width:2px"/><path d="M34,21c-.343.479-1.657,1.521-2,2" style="fill:none;stroke:#000;stroke-linejoin:round;stroke-width:2px"/><path d="M35,17a25.674,25.674,0,0,1,2,2" style="fill:none;stroke:#000;stroke-linejoin:round;stroke-width:2px"/><path d="M39,22a7.9,7.9,0,0,1,2-2" style="fill:none;stroke:#000;stroke-linejoin:round;stroke-width:2px"/><path d="M40,16c0,1,1.254,1.822,2,2" style="fill:none;stroke:#000;stroke-linejoin:round;stroke-width:2px"/><path d="M28,16c0,1,2,2,2,3" style="fill:none;stroke:#000;stroke-linejoin:round;stroke-width:2px"/><path d="M32,15c.519.486,1.319,1.8,2,2" style="fill:none;stroke:#000;stroke-linejoin:round;stroke-width:2px"/><path d="M25.687,20A3.454,3.454,0,0,0,28,22" style="fill:none;stroke:#000;stroke-linejoin:round;stroke-width:2px"/><ellipse cx="32" cy="19" rx="13" ry="6" style="fill:none;stroke:#000;stroke-linejoin:round;stroke-width:2px"/><path d="M53,45.965a7.958,7.958,0,0,0,2.24-.706C57.6,44.085,59.349,41.51,62,41.452" style="fill:none;stroke:#000;stroke-linejoin:round;stroke-width:2px"/><path d="M49,46.116c.671.02,1.34.037,2,.023" style="fill:none;stroke:#000;stroke-linejoin:round;stroke-width:2px"/><path d="M9.995,46a11.531,11.531,0,0,0,1.886.574c3.669.782,7.523-.225,11.241.3,2.519.358,4.883,1.409,7.386,1.865a15.99,15.99,0,0,0,7.178-.341c2.247-.635,4.343-1.764,6.65-2.151A15.918,15.918,0,0,1,47,46.069" style="fill:none;stroke:#000;stroke-linejoin:round;stroke-width:2px"/><path d="M1,40.049a3.464,3.464,0,0,1,2.815.9,23.68,23.68,0,0,1,2.04,2.218A11.247,11.247,0,0,0,8.048,45" style="fill:none;stroke:#000;stroke-linejoin:round;stroke-width:2px"/></g></svg>