<svg xmlns="http://www.w3.org/2000/svg" viewBox="0 0 64 64"><g id="_28-bread_whipcream" data-name="28-bread whipcream"><path d="M6,33c0,6.075,11.641,11,26,11s26-4.925,26-11c2.936,1.2,5,4.692,5,8.062h0A21.938,21.938,0,0,1,41.062,63H22.937A21.938,21.938,0,0,1,1,41.062H1C1,37.694,3.066,34.206,6,33Z" style="fill:none;stroke:#000;stroke-linejoin:round;stroke-width:2px"/><line x1="58" y1="33" x2="56" y2="33" style="fill:none;stroke:#000;stroke-linejoin:round;stroke-width:2px"/><path d="M40.016,14.746c3.04-3.04,3.364-12.78,2.691-13.453S32.294.944,29.254,3.984A7.61,7.61,0,0,0,40.016,14.746Z" style="fill:none;stroke:#000;stroke-linejoin:round;stroke-width:2px"/><path d="M28.09,13.25l9.19-7.97a1.021,1.021,0,0,1,1.44,1.44l-6.03,6.96h-.01l-1.53,1.77-.4.46" style="fill:none;stroke:#000;stroke-linejoin:round;stroke-width:2px"/><path d="M16,26.883c7.631.491,20.173-.292,27.2-8.513a11.234,11.234,0,0,0,1.69-2.63l.01-.01a10.94,10.94,0,0,0,.77-7.39,8.271,8.271,0,0,0-.38-1.16V7.17A6.342,6.342,0,0,0,43.92,5H43" style="fill:none;stroke:#000;stroke-linejoin:round;stroke-width:2px"/><path d="M23,17.763A69.741,69.741,0,0,1,13.81,18.89c-2.69.16-5.62.21-8.81.11a8.159,8.159,0,0,0,2,5,8.08,8.08,0,0,0,4.99,2.47c.584.085,1.259.171,2.01.247" style="fill:none;stroke:#000;stroke-linejoin:round;stroke-width:2px"/><path d="M27,16.824q-.965.268-2,.511" style="fill:none;stroke:#000;stroke-linejoin:round;stroke-width:2px"/><path d="M32.618,33c9.608-4.958,11.831-14.535,12.272-17.26l.01-.01" style="fill:none;stroke:#000;stroke-linejoin:round;stroke-width:2px"/><path d="M29,34.511c.7-.229,1.363-.481,2-.751" style="fill:none;stroke:#000;stroke-linejoin:round;stroke-width:2px"/><path d="M7,24c-2,0-2,5-2,5,0,4,2.31,7,6.46,7H17c.34.01.67.02,1,.02A34.735,34.735,0,0,0,27.331,35" style="fill:none;stroke:#000;stroke-linejoin:round;stroke-width:2px"/><path d="M25,11.843,20.12,10.67,13.34,9.04l-1.87-.45a1.989,1.989,0,0,0-2.46,2.09c.23,2.56,1.2,6.3,4.8,8.21a1.983,1.983,0,0,0,.2.11" style="fill:none;stroke:#000;stroke-linejoin:round;stroke-width:2px"/><line x1="32.69" y1="13.68" x2="32.68" y2="13.68" style="fill:none;stroke:#000;stroke-linejoin:round;stroke-width:2px"/><path d="M5,19s0-4,5-4" style="fill:none;stroke:#000;stroke-linejoin:round;stroke-width:2px"/><path d="M49.919,15Q50,13.895,50,12.78A4.857,4.857,0,0,0,49.66,11a4.909,4.909,0,0,0-2.05-2.43L45.29,7.18V7.17" style="fill:none;stroke:#000;stroke-linejoin:round;stroke-width:2px"/><path d="M18,36v.02c.03,2.2,5.8,3.98,8,3.98h6c8.72,0,13.85-10.36,16.27-17.17A29.808,29.808,0,0,0,49.7,17" style="fill:none;stroke:#000;stroke-linejoin:round;stroke-width:2px"/><path d="M31,40H42s4.37-.25,7-2a5.019,5.019,0,0,0,1.07-1.01,14.25,14.25,0,0,0,1.87-3.12A23.264,23.264,0,0,0,54,24.14V15l-.24-.97A4.009,4.009,0,0,0,49.88,11h-.22" style="fill:none;stroke:#000;stroke-linejoin:round;stroke-width:2px"/><path d="M54,15S52,31,42,40" style="fill:none;stroke:#000;stroke-linejoin:round;stroke-width:2px"/><path d="M54,19l.071.071A10,10,0,0,1,57,26.142v2.609a8.317,8.317,0,0,1-6.821,8.218L50,37" style="fill:none;stroke:#000;stroke-linejoin:round;stroke-width:2px"/><path d="M13.34,9.04C13.84,7.86,14.96,6,17,6h5" style="fill:none;stroke:#000;stroke-linejoin:round;stroke-width:2px"/><path d="M20.12,10.67,21.3,7.54A6.989,6.989,0,0,1,27.85,3h2.76" style="fill:none;stroke:#000;stroke-linejoin:round;stroke-width:2px"/><line x1="58" y1="42" x2="58" y2="44" style="fill:none;stroke:#000;stroke-linejoin:round;stroke-width:2px"/><line x1="47" y1="50" x2="47" y2="52" style="fill:none;stroke:#000;stroke-linejoin:round;stroke-width:2px"/><line x1="30" y1="57" x2="30" y2="59" style="fill:none;stroke:#000;stroke-linejoin:round;stroke-width:2px"/><line x1="23" y1="55" x2="23" y2="57" style="fill:none;stroke:#000;stroke-linejoin:round;stroke-width:2px"/><line x1="43" y1="57" x2="43" y2="59" style="fill:none;stroke:#000;stroke-linejoin:round;stroke-width:2px"/><line x1="43" y1="51" x2="43" y2="53" style="fill:none;stroke:#000;stroke-linejoin:round;stroke-width:2px"/><line x1="46" y1="46" x2="46" y2="48" style="fill:none;stroke:#000;stroke-linejoin:round;stroke-width:2px"/><line x1="7" y1="44" x2="7" y2="46" style="fill:none;stroke:#000;stroke-linejoin:round;stroke-width:2px"/><line x1="15" y1="51" x2="15" y2="53" style="fill:none;stroke:#000;stroke-linejoin:round;stroke-width:2px"/><line x1="18" y1="46" x2="18" y2="48" style="fill:none;stroke:#000;stroke-linejoin:round;stroke-width:2px"/><line x1="29" y1="49" x2="29" y2="51" style="fill:none;stroke:#000;stroke-linejoin:round;stroke-width:2px"/><line x1="54" y1="48" x2="54" y2="50" style="fill:none;stroke:#000;stroke-linejoin:round;stroke-width:2px"/></g></svg>