<svg xmlns="http://www.w3.org/2000/svg" viewBox="0 0 64 64"><g id="_29-bread_basket" data-name="29-bread basket"><path d="M21,27.961c1.6-.292,3.268-.523,5-.685" style="fill:none;stroke:#000;stroke-linejoin:round;stroke-width:2px"/><path d="M8.48,32.49C5.65,34.38,4,36.61,4,39.01a5.143,5.143,0,0,0,.25,1.6A8.332,8.332,0,0,0,7,44.42a21.3,21.3,0,0,0,5.81,3.33c.7.28,1.43.55,2.19.8a41.357,41.357,0,0,0,4,1.09l.82.18a56.99,56.99,0,0,0,7.77,1.04c1.43.1,2.91.15,4.41.15,1.07,0,2.13-.03,3.17-.08A57.19,57.19,0,0,0,45,49.64c.88-.19,1.73-.41,2.55-.65.49-.14.98-.29,1.45-.44A31.672,31.672,0,0,0,52.88,47h.01A18.694,18.694,0,0,0,57,44.42,8.683,8.683,0,0,0,59.61,41,5.3,5.3,0,0,0,60,39.01a5.551,5.551,0,0,0-.09-1c-.47-2.41-2.6-4.63-5.91-6.42" style="fill:none;stroke:#000;stroke-linejoin:round;stroke-width:2px"/><path d="M57,44v2l-1.171,3.37A18.256,18.256,0,0,1,38.057,63H25.943A18.256,18.256,0,0,1,8.171,49.37L7,46V44" style="fill:none;stroke:#000;stroke-linejoin:round;stroke-width:2px"/><polyline points="60 30 60 38 60 39" style="fill:none;stroke:#000;stroke-linejoin:round;stroke-width:2px"/><path d="M51.592,9a28.042,28.042,0,0,0-8.9-5.88A27.824,27.824,0,0,0,32,1a28.078,28.078,0,0,0-4.23.32,27.6,27.6,0,0,0-6.49,1.81,28.02,28.02,0,0,0-12.2,9.8A27.444,27.444,0,0,0,6.1,18.35a27.763,27.763,0,0,0-1.96,7.84C4.05,27.11,4,28.05,4,29V39" style="fill:none;stroke:#000;stroke-linejoin:round;stroke-width:2px"/><path d="M54.26,12.02q-.6-.79-1.259-1.535" style="fill:none;stroke:#000;stroke-linejoin:round;stroke-width:2px"/><path d="M51.65,17.05c.01.01.01.01,0,.02" style="fill:none;stroke:#000;stroke-linejoin:round;stroke-width:2px"/><path d="M9.649,24q.123-.519.271-1.03a23.4,23.4,0,0,1,2.21-5.28A23.78,23.78,0,0,1,15,13.68a22.723,22.723,0,0,1,5.98-4.83,21.636,21.636,0,0,1,6.03-2.3,21.221,21.221,0,0,1,2.89-.46,23.493,23.493,0,0,1,10.25,1.4,22.934,22.934,0,0,1,9.09,6.3q.391.438.757.9" style="fill:none;stroke:#000;stroke-linejoin:round;stroke-width:2px"/><path d="M9.057,28q.06-1.009.206-2" style="fill:none;stroke:#000;stroke-linejoin:round;stroke-width:2px"/><path d="M53.16,19.97a.076.076,0,0,0-.02-.04" style="fill:none;stroke:#000;stroke-linejoin:round;stroke-width:2px"/><path d="M54.98,28.09c0-.14-.01-.27-.02-.4" style="fill:none;stroke:#000;stroke-linejoin:round;stroke-width:2px"/><path d="M37,44h0c0,3.32,2.24,6,5,6h0" style="fill:none;stroke:#000;stroke-linejoin:round;stroke-width:2px"/><path d="M42.02,43.41a5.985,5.985,0,0,0,5.53,5.57" style="fill:none;stroke:#000;stroke-linejoin:round;stroke-width:2px"/><path d="M53,47a.487.487,0,0,1-.12-.01c-3.03-.04-5.49-1.95-5.84-4.4" style="fill:none;stroke:#000;stroke-linejoin:round;stroke-width:2px"/><path d="M51.09,41.52C51.58,42.93,54.03,44,57,44h0" style="fill:none;stroke:#000;stroke-linejoin:round;stroke-width:2px"/><path d="M55.22,39.6c.6.76,2.32,1.33,4.39,1.39" style="fill:none;stroke:#000;stroke-linejoin:round;stroke-width:2px"/><path d="M60,38H57c-1.733,3.392-12.406,6-25,6-11.367,0-20.961-2.124-24-5.032" style="fill:none;stroke:#000;stroke-linejoin:round;stroke-width:2px"/><path d="M30,44c0,3.54,2.24,6.46,5.17,6.92" style="fill:none;stroke:#000;stroke-linejoin:round;stroke-width:2px"/><path d="M25,43v1c-.53,3.36.77,6.38,3,7" style="fill:none;stroke:#000;stroke-linejoin:round;stroke-width:2px"/><path d="M19.82,49.81C17.08,46.83,19,43,19,43" style="fill:none;stroke:#000;stroke-linejoin:round;stroke-width:2px"/><path d="M12.81,47.74a8.127,8.127,0,0,1,2.1-5.64" style="fill:none;stroke:#000;stroke-linejoin:round;stroke-width:2px"/><path d="M8,45H8c0-2.51,2.79-3.62,3.71-3.91" style="fill:none;stroke:#000;stroke-linejoin:round;stroke-width:2px"/><path d="M4.25,40.6C5.42,39,8,39,8,39" style="fill:none;stroke:#000;stroke-linejoin:round;stroke-width:2px"/><polyline points="30 51 30 54.97 30 58.97 30 63" style="fill:none;stroke:#000;stroke-linejoin:round;stroke-width:2px"/><polyline points="34 63 34 58.97 34 54.97 34 51" style="fill:none;stroke:#000;stroke-linejoin:round;stroke-width:2px"/><polyline points="45 62 45 57.89 45 53.89 45 49" style="fill:none;stroke:#000;stroke-linejoin:round;stroke-width:2px"/><polyline points="49 48 49 52.94 49 56.94 49 60" style="fill:none;stroke:#000;stroke-linejoin:round;stroke-width:2px"/><polyline points="15 48 15 52.94 15 56.94 15 60" style="fill:none;stroke:#000;stroke-linejoin:round;stroke-width:2px"/><polyline points="19 62 19 57.89 19 53.89 19 49" style="fill:none;stroke:#000;stroke-linejoin:round;stroke-width:2px"/><path d="M55.65,50.03a15.239,15.239,0,0,1-6.17,2.94c-.16.05-.32.09-.48.13-1.11.31-2.33.58-3.63.82l-.37.06A73.17,73.17,0,0,1,34.06,55H34c-.66.02-1.33.03-2,.03s-1.34-.01-2-.03h-.06A73.17,73.17,0,0,1,19,53.98l-.37-.06c-1.3-.24-2.52-.51-3.63-.82-.16-.04-.32-.08-.48-.13a15.239,15.239,0,0,1-6.17-2.94" style="fill:none;stroke:#000;stroke-linejoin:round;stroke-width:2px"/><path d="M53,56h-.56A23.63,23.63,0,0,1,49,57.27a39.361,39.361,0,0,1-4,.95A69.216,69.216,0,0,1,34,59.3c-.66.02-1.33.03-2,.03s-1.34-.01-2-.03a69.216,69.216,0,0,1-11-1.08,39.361,39.361,0,0,1-4-.95A23.63,23.63,0,0,1,11.56,56H11" style="fill:none;stroke:#000;stroke-linejoin:round;stroke-width:2px"/><path d="M10,23a.689.689,0,0,1-.08-.03c-2.4-.85-3.5-3.63-3.82-4.62" style="fill:none;stroke:#000;stroke-linejoin:round;stroke-width:2px"/><path d="M9.08,12.93c.19,1.34.85,3.74,3.05,4.76" style="fill:none;stroke:#000;stroke-linejoin:round;stroke-width:2px"/><path d="M16,6l-.012.012a4,4,0,0,0-1.145,2.4A13.488,13.488,0,0,0,15,13.47V14" style="fill:none;stroke:#000;stroke-linejoin:round;stroke-width:2px"/><path d="M20.98,8.85c-.13-.7-.57-3.69.3-5.72" style="fill:none;stroke:#000;stroke-linejoin:round;stroke-width:2px"/><path d="M27.01,6.55c.02-1.13.15-4.06.76-5.23" style="fill:none;stroke:#000;stroke-linejoin:round;stroke-width:2px"/><path d="M34.06,6.1c.14-1.32.61-3.73,2.25-4.77" style="fill:none;stroke:#000;stroke-linejoin:round;stroke-width:2px"/><path d="M40.15,7.49a12.046,12.046,0,0,1,2.54-4.37" style="fill:none;stroke:#000;stroke-linejoin:round;stroke-width:2px"/><path d="M45.41,10.14A7.618,7.618,0,0,1,49.54,7" style="fill:none;stroke:#000;stroke-linejoin:round;stroke-width:2px"/><path d="M54.53,22.89c-.13.03-.25.05-.33.07" style="fill:none;stroke:#000;stroke-linejoin:round;stroke-width:2px"/><path d="M43.62,43.2l4.47-4.47,5.34-5.34.39-.39.96-.96,3.14-3.14.81-.81A10.86,10.86,0,0,0,59.9,26.7,10.7,10.7,0,0,0,62,20.76,5.607,5.607,0,0,0,56.24,15a10.242,10.242,0,0,0-4.96,1.47,11.627,11.627,0,0,0-2.37,1.8l-2.86,2.87-6.14,6.13-6.14,6.14-4.5,4.5a11.765,11.765,0,0,0-3.13,5.9,1.286,1.286,0,0,0-.04.19" style="fill:none;stroke:#000;stroke-linejoin:round;stroke-width:2px"/><path d="M51.772,16.23a19.266,19.266,0,0,0,.818,9c1.636,4.909,2.863,6.136,1.227,7.772" style="fill:none;stroke:#000;stroke-linejoin:round;stroke-width:2px"/><path d="M51.363,17.457a17.029,17.029,0,0,1,3.272,5.726,9.9,9.9,0,0,1-.409,6.954" style="fill:none;stroke:#000;stroke-linejoin:round;stroke-width:2px"/><path d="M33.774,33.409a19.27,19.27,0,0,0,.818,9c.194.58.381,1.108.559,1.592" style="fill:none;stroke:#000;stroke-linejoin:round;stroke-width:2px"/><path d="M33.365,34.636a17.021,17.021,0,0,1,3.272,5.727A9.171,9.171,0,0,1,37.063,44" style="fill:none;stroke:#000;stroke-linejoin:round;stroke-width:2px"/><path d="M46.045,21.138a22.886,22.886,0,0,0,.818,9.817c1.636,4.908,2.863,6.135,1.227,7.771" style="fill:none;stroke:#000;stroke-linejoin:round;stroke-width:2px"/><path d="M45.636,23.183a17.04,17.04,0,0,1,3.272,5.727,9.9,9.9,0,0,1-.409,6.953" style="fill:none;stroke:#000;stroke-linejoin:round;stroke-width:2px"/><path d="M43,43a1.709,1.709,0,0,1,0,.32V43" style="fill:none;stroke:#000;stroke-linejoin:round;stroke-width:2px"/><path d="M39.91,27.274a22.881,22.881,0,0,0,.818,9.816c1.029,3.087,1.9,4.717,1.991,5.91" style="fill:none;stroke:#000;stroke-linejoin:round;stroke-width:2px"/><path d="M39.5,29.319a17.029,17.029,0,0,1,3.272,5.726A9.9,9.9,0,0,1,42.364,42" style="fill:none;stroke:#000;stroke-linejoin:round;stroke-width:2px"/><path d="M34,16h.416a4.632,4.632,0,0,1,3.8,1.888,3.377,3.377,0,0,1,.739,1.725L35,25" style="fill:none;stroke:#000;stroke-linejoin:round;stroke-width:2px"/><path d="M40.531,23,40,21.032v-.064s-.187-1.355-1.35-1.355" style="fill:none;stroke:#000;stroke-linejoin:round;stroke-width:2px"/><path d="M34,16h-.416a4.632,4.632,0,0,0-3.8,1.888,3.377,3.377,0,0,0-.739,1.725L33,25" style="fill:none;stroke:#000;stroke-linejoin:round;stroke-width:2px"/><path d="M31,36l-4.188-6.174A4.584,4.584,0,0,1,26,26.839v-.9a1.511,1.511,0,0,1,.591-1.446L27,24h1" style="fill:none;stroke:#000;stroke-linejoin:round;stroke-width:2px"/><path d="M32.3,30l-4.732-5.432a1.289,1.289,0,0,1-.215-1.135l.647-2.4v-.064s.187-1.355,1.35-1.355" style="fill:none;stroke:#000;stroke-linejoin:round;stroke-width:2px"/><path d="M28.38,39.45c-1.25-2.15-2.18-4.54-2.87-5.93A4.578,4.578,0,0,1,25,31.81V30.45a3.034,3.034,0,0,1,.62-1.29l.63-.44.1-.07" style="fill:none;stroke:#000;stroke-linejoin:round;stroke-width:2px"/><path d="M25.88,43.79A6.914,6.914,0,0,0,27,40a6.989,6.989,0,0,0-5.23-6.77A6.871,6.871,0,0,0,20,33a7,7,0,0,0-7,7,6.572,6.572,0,0,0,.19,1.61" style="fill:none;stroke:#000;stroke-linejoin:round;stroke-width:2px"/><path d="M21.77,33.23a6.72,6.72,0,0,0-1.2-2.46A6.982,6.982,0,0,0,15,28a6.977,6.977,0,0,0-6,3.4,5.878,5.878,0,0,0-.53,1.1A6.7,6.7,0,0,0,8,35v.04a6.958,6.958,0,0,0,3.22,5.85c.13.09.26.16.39.24" style="fill:none;stroke:#000;stroke-linejoin:round;stroke-width:2px"/></g></svg>