<svg xmlns="http://www.w3.org/2000/svg" viewBox="0 0 64 64"><g id="_30-White_Bread" data-name="30-White Bread"><path d="M20.363,26l-.233-5.1a4.075,4.075,0,0,1-2.24-1.38A4.028,4.028,0,0,1,17,17.1a2.549,2.549,0,0,1,.02-.39,2.453,2.453,0,0,1,.04-.39,2.193,2.193,0,0,1,.09-.5,4.436,4.436,0,0,1,2.06-2.77C21.91,11.48,26.8,10,33,10s11.09,1.48,13.79,3.05A4.538,4.538,0,0,1,49,17a4,4,0,0,1-3.13,3.9L45,40H41" style="fill:none;stroke:#000;stroke-linejoin:round;stroke-width:2px"/><line x1="59.737" y1="20" x2="59.842" y2="18" style="fill:none;stroke:#000;stroke-linejoin:round;stroke-width:2px"/><polyline points="45 40 59 34 59.632 22" style="fill:none;stroke:#000;stroke-linejoin:round;stroke-width:2px"/><path d="M46,21l14-6a4,4,0,0,0,3-4,4.538,4.538,0,0,0-2.21-3.95C58.11,5.49,53.29,4.03,47.17,4c-.61,0-1.22.01-1.84.04-.28.01-.55.02-.82.05-.59.04-1.18.1-1.76.17a8.46,8.46,0,0,0-.88.11,28.238,28.238,0,0,0-3.08.57.224.224,0,0,0-.1.03" style="fill:none;stroke:#000;stroke-linejoin:round;stroke-width:2px"/><path d="M49,4H47.17A37.99,37.99,0,0,0,33.323,6.613L20.814,11.508A6,6,0,0,0,17,17.1" style="fill:none;stroke:#000;stroke-linejoin:round;stroke-width:2px"/><polyline points="12 29 20.5 29 23 29 38 40" style="fill:none;stroke:#000;stroke-linejoin:round;stroke-width:2px"/><path d="M3,34a5,5,0,0,1,5-5h2" style="fill:none;stroke:#000;stroke-linejoin:round;stroke-width:2px"/><polyline points="37.11 45.41 38 45 38 40 32.92 42.34" style="fill:none;stroke:#000;stroke-linejoin:round;stroke-width:2px"/><path d="M3,34c0,2.34,1.62,4.53,4.11,6.36" style="fill:none;stroke:#000;stroke-linejoin:round;stroke-width:2px"/><path d="M9,29H7.88A6,6,0,0,0,3.2,31.25l-.89,1.11A5.976,5.976,0,0,0,1,36.1V38c0,2.66,1.54,5.03,4,6.99" style="fill:none;stroke:#000;stroke-linejoin:round;stroke-width:2px"/><polyline points="24 38 27 38 32.92 42.34 37.11 45.41 42 49" style="fill:none;stroke:#000;stroke-linejoin:round;stroke-width:2px"/><path d="M7,43a4.986,4.986,0,0,1,5-5H22" style="fill:none;stroke:#000;stroke-linejoin:round;stroke-width:2px"/><polyline points="29 55 42 49 42 54 29 60 29 55" style="fill:none;stroke:#000;stroke-linejoin:round;stroke-width:2px"/><path d="M29,55c-6.87,0-16.08-3.13-20.04-7.56A6.722,6.722,0,0,1,7,43" style="fill:none;stroke:#000;stroke-linejoin:round;stroke-width:2px"/><path d="M13,38H11.88A6,6,0,0,0,7.2,40.25l-.09.11-.8,1A5.993,5.993,0,0,0,5,44.99V47c0,7.74,13,13,24,13" style="fill:none;stroke:#000;stroke-linejoin:round;stroke-width:2px"/></g></svg>