<svg id="_01-pancake" data-name="01-pancake" xmlns="http://www.w3.org/2000/svg" viewBox="0 0 64 64"><path d="M57,53.73V54l-2,2c0,3.87-9.19,7-23,7S9,59.87,9,56L7,54v-.27C12.64,55.71,21.74,57,32,57S51.36,55.71,57,53.73Z" style="fill:#f7aeaa"/><path d="M57,54v-.27C51.36,55.71,42.26,57,32,57S12.64,55.71,7,53.73V54l2,2a2.391,2.391,0,0,0,.056.375C14.726,57.985,22.9,59,32,59s17.274-1.015,22.944-2.625A2.391,2.391,0,0,0,55,56Z" style="fill:#db7b76"/><path d="M57,53.73C51.36,55.71,42.26,57,32,57S12.64,55.71,7,53.73C3.23,52.41,1,50.77,1,49c0-4.42,13.88-8,31-8s31,3.58,31,8C63,50.77,60.77,52.41,57,53.73Z" style="fill:#fec6c9"/><path d="M54.177,54.548C49.174,56.033,41.1,57,32,57s-17.174-.967-22.177-2.452C6.478,53.558,4.5,52.328,4.5,51c0-3.315,12.313-6,27.5-6s27.5,2.685,27.5,6C59.5,52.328,57.522,53.558,54.177,54.548Z" style="fill:#f7aaa5"/><path d="M46.572,58.058A108,108,0,0,1,32,59a108,108,0,0,1-14.572-.942,3.983,3.983,0,0,0-3.158,2.527C18.312,62.063,24.459,63,32,63s13.688-.937,17.73-2.415A3.983,3.983,0,0,0,46.572,58.058Z" style="fill:#f78b85"/><path d="M42.01,54.27a3.931,3.931,0,0,0,.87,2.22c-3.39.33-7.05.51-10.88.51a108.565,108.565,0,0,1-14.36-.91l.01-.09a3.915,3.915,0,0,0,1.3-2.39l.05.01A52.219,52.219,0,0,0,32,55a61.433,61.433,0,0,0,10-.73Z" style="fill:#b0403e"/><path d="M51,45v4c0,4-8.51,6-19,6s-19-2-19-6V45c0,5,8.51,4,19,4S51,50,51,45Z" style="fill:#f3dfc4"/><path d="M51,35v4a3.663,3.663,0,0,1-2.03,3c-3.13,2-9.55,3-16.97,3s-13.84-1-16.97-3A3.663,3.663,0,0,1,13,39V35c0,5,8.51,4,19,4S51,40,51,35Z" style="fill:#f3dfc4"/><path d="M51,25v4a3.663,3.663,0,0,1-2.03,3c-3.13,2-9.55,3-16.97,3s-13.84-1-16.97-3A3.663,3.663,0,0,1,13,29V25c0,5,8.51,4,19,4S51,30,51,25Z" style="fill:#f3dfc4"/><path d="M51,15v4a3.663,3.663,0,0,1-2.03,3c-3.13,2-9.55,3-16.97,3s-13.84-1-16.97-3A3.663,3.663,0,0,1,13,19V15c0,5,8.51,4,19,4S51,20,51,15Z" style="fill:#f3dfc4"/><path d="M48.97,22A3.663,3.663,0,0,1,51,25c0,5-8.51,4-19,4s-19,1-19-4a3.663,3.663,0,0,1,2.03-3c3.13,2,9.55,3,16.97,3S45.84,24,48.97,22Z" style="fill:#dba14f"/><path d="M48.97,32A3.663,3.663,0,0,1,51,35c0,5-8.51,4-19,4s-19,1-19-4a3.663,3.663,0,0,1,2.03-3c3.13,2,9.55,3,16.97,3S45.84,34,48.97,32Z" style="fill:#dba14f"/><path d="M48.97,42A3.663,3.663,0,0,1,51,45c0,5-8.51,4-19,4s-19,1-19-4a3.663,3.663,0,0,1,2.03-3c3.13,2,9.55,3,16.97,3S45.84,44,48.97,42Z" style="fill:#dba14f"/><path d="M32,9c10.49,0,19,2,19,6,0,5-8.51,4-19,4s-19,1-19-4C13,11,21.51,9,32,9Z" style="fill:#dba14f"/><path d="M51,45v4c0,4-8.51,6-19,6s-19-2-19-6V45c0,5,8.51,4,19,4S51,50,51,45Z" style="fill:#f3dfc4"/><path d="M51,35v4a3.663,3.663,0,0,1-2.03,3c-3.13,2-9.55,3-16.97,3s-13.84-1-16.97-3A3.663,3.663,0,0,1,13,39V35c0,5,8.51,4,19,4S51,40,51,35Z" style="fill:#f3dfc4"/><path d="M51,25v4a3.663,3.663,0,0,1-2.03,3c-3.13,2-9.55,3-16.97,3s-13.84-1-16.97-3A3.663,3.663,0,0,1,13,29V25c0,5,8.51,4,19,4S51,30,51,25Z" style="fill:#f3dfc4"/><path d="M51,15v4a3.663,3.663,0,0,1-2.03,3c-3.13,2-9.55,3-16.97,3s-13.84-1-16.97-3A3.663,3.663,0,0,1,13,19V15c0,5,8.51,4,19,4S51,20,51,15Z" style="fill:#f3dfc4"/><path d="M48.97,22A3.663,3.663,0,0,1,51,25c0,5-8.51,4-19,4s-19,1-19-4a3.663,3.663,0,0,1,2.03-3c3.13,2,9.55,3,16.97,3S45.84,24,48.97,22Z" style="fill:#dba14f"/><path d="M48.97,22c-3.13,2-9.55,3-16.97,3s-13.84-1-16.97-3a4.98,4.98,0,0,0-1.578,1.5A4.98,4.98,0,0,0,15.03,25c3.13,2,9.55,3,16.97,3s13.84-1,16.97-3a4.98,4.98,0,0,0,1.578-1.5A4.98,4.98,0,0,0,48.97,22Z" style="fill:#b57629"/><path d="M48.97,32A3.663,3.663,0,0,1,51,35c0,5-8.51,4-19,4s-19,1-19-4a3.663,3.663,0,0,1,2.03-3c3.13,2,9.55,3,16.97,3S45.84,34,48.97,32Z" style="fill:#dba14f"/><path d="M48.97,42A3.663,3.663,0,0,1,51,45c0,5-8.51,4-19,4s-19,1-19-4a3.663,3.663,0,0,1,2.03-3c3.13,2,9.55,3,16.97,3S45.84,44,48.97,42Z" style="fill:#dba14f"/><path d="M50.024,12.849a3.874,3.874,0,0,1-.586.5,5.217,5.217,0,0,1-1.388,1.691,10.054,10.054,0,0,1-3.926,1.723,31.963,31.963,0,0,1-5.087.794,1.269,1.269,0,0,1-.427.346,2.006,2.006,0,0,1-.872.125,31.931,31.931,0,0,1-3.893-.323c-1.971-.036-3.945-.147-5.907-.262l-3.156-.184A17.167,17.167,0,0,1,18.3,16.03a6.317,6.317,0,0,1-3.425-3.9l-.015,0A3.561,3.561,0,0,0,13,15c0,5,8.51,4,19,4s19,1,19-4A3.045,3.045,0,0,0,50.024,12.849Z" style="fill:#edbd73"/><path d="M48.97,32c-3.13,2-9.55,3-16.97,3s-13.84-1-16.97-3a4.98,4.98,0,0,0-1.578,1.5A4.98,4.98,0,0,0,15.03,35c3.13,2,9.55,3,16.97,3s13.84-1,16.97-3a4.98,4.98,0,0,0,1.578-1.5A4.98,4.98,0,0,0,48.97,32Z" style="fill:#b57629"/><path d="M48.97,42c-3.13,2-9.55,3-16.97,3s-13.84-1-16.97-3a4.98,4.98,0,0,0-1.578,1.5A4.98,4.98,0,0,0,15.03,45c3.13,2,9.55,3,16.97,3s13.84-1,16.97-3a4.98,4.98,0,0,0,1.578-1.5A4.98,4.98,0,0,0,48.97,42Z" style="fill:#b57629"/><path d="M45.741,18.832C42.28,19.26,37.409,19,32,19s-10.28.26-13.741-.168a3.426,3.426,0,0,0-.843,4.29C20.9,24.372,26.134,25,32,25s11.1-.628,14.584-1.878a3.426,3.426,0,0,0-.843-4.29Z" style="fill:#f2ce92"/><path d="M19.375,20.353a3.737,3.737,0,0,0-1.258.309.4.4,0,0,0-.239.239c-.054.238.268.367.51.392,2.093.215,4.2.278,6.3.341.39.011.894-.058.983-.438a.587.587,0,0,0-.323-.607,7.8,7.8,0,0,0-2.648-.3A18.119,18.119,0,0,0,19.375,20.353Z" style="fill:#e6ba71"/><path d="M31.611,22.134a5.814,5.814,0,0,0-2.879.47c-.14.067-.293.164-.314.318-.03.223.228.367.444.432a10.133,10.133,0,0,0,2.391.38,6.259,6.259,0,0,0,2.568-.039.62.62,0,0,0,.081-1.067C33.419,22.17,32.238,22.174,31.611,22.134Z" style="fill:#e6ba71"/><path d="M35.522,23.421c-.08.018-.171.045-.2.121-.062.152.163.249.327.257a10.816,10.816,0,0,0,6-1.122c.517-.3.525-.874-.076-1.107-.5-.2-1.161.189-1.61.376A27.7,27.7,0,0,1,35.522,23.421Z" style="fill:#e6ba71"/><path d="M43.545,20.986a.606.606,0,0,0-.377.161.427.427,0,0,0,.133.591,1.244,1.244,0,0,0,.653.164c.46.028,1.957.328,1.769-.5S44.059,20.9,43.545,20.986Z" style="fill:#e6ba71"/><path d="M26.029,21.919a.866.866,0,0,0-.659.187.229.229,0,0,0-.07.172c.011.1.108.161.2.2a3.057,3.057,0,0,0,1.358.188,1.048,1.048,0,0,0,.605-.155C28.353,21.829,26.228,21.918,26.029,21.919Z" style="fill:#e6ba71"/><path d="M30.709,20.518l-1.133-.077c-.18-.012-.4,0-.486.155a.324.324,0,0,0,.079.364.936.936,0,0,0,.344.194,2.006,2.006,0,0,0,.8.186.693.693,0,0,0,.645-.427.361.361,0,0,0-.034-.317.233.233,0,0,0-.29-.083" style="fill:#e6ba71"/><path d="M23.818,22.541a1.176,1.176,0,0,0-.478.086c-.043.019-.09.061-.071.1a.1.1,0,0,0,.049.042,2.659,2.659,0,0,0,1.156.288.3.3,0,0,0,.241-.075.222.222,0,0,0,.042-.13C24.77,22.458,24.086,22.536,23.818,22.541Z" style="fill:#e6ba71"/><path d="M35.114,20.417a.954.954,0,0,0-.441.079.711.711,0,0,0-.317.643.521.521,0,0,0,.051.243.645.645,0,0,0,.562.242,7.709,7.709,0,0,0,2.152-.184.783.783,0,0,0,.492-.258C38.239,20.285,35.442,20.411,35.114,20.417Z" style="fill:#e6ba71"/><path d="M40.248,20c-.122.049-.262.185-.177.285a.2.2,0,0,0,.087.053c.36.139,1.879.539,1.827-.085C41.92,19.475,40.634,19.845,40.248,20Z" style="fill:#e6ba71"/><path d="M21.955,21.9a1.926,1.926,0,0,0-1.52.508c-.078.087-.144.222-.07.311a.27.27,0,0,0,.108.067,7.411,7.411,0,0,0,.737.261.5.5,0,0,0,.471-.027c.1-.09.116-.247.2-.353.177-.216.8-.089.85-.4C22.792,21.92,22.151,21.906,21.955,21.9Z" style="fill:#e6ba71"/><path d="M42.485,22.8c-.049.058-.092.15-.038.2a.156.156,0,0,0,.075.034,8.775,8.775,0,0,0,1,.2c.482.065,1.172-.193.63-.7A1.227,1.227,0,0,0,42.485,22.8Z" style="fill:#e6ba71"/><path d="M45.741,28.832C42.28,29.26,37.409,29,32,29s-10.28.26-13.741-.168a3.426,3.426,0,0,0-.843,4.29C20.9,34.372,26.134,35,32,35s11.1-.628,14.584-1.878a3.426,3.426,0,0,0-.843-4.29Z" style="fill:#f2ce92"/><path d="M19.375,30.353a3.737,3.737,0,0,0-1.258.309.4.4,0,0,0-.239.239c-.054.238.268.367.51.392,2.093.215,4.2.278,6.3.341.39.011.894-.058.983-.438a.587.587,0,0,0-.323-.607,7.8,7.8,0,0,0-2.648-.3A18.119,18.119,0,0,0,19.375,30.353Z" style="fill:#e6ba71"/><path d="M31.611,32.134a5.814,5.814,0,0,0-2.879.47c-.14.067-.293.164-.314.318-.03.223.228.367.444.432a10.133,10.133,0,0,0,2.391.38,6.259,6.259,0,0,0,2.568-.039.62.62,0,0,0,.081-1.067C33.419,32.17,32.238,32.174,31.611,32.134Z" style="fill:#e6ba71"/><path d="M35.522,33.421c-.08.018-.171.045-.2.121-.062.152.163.249.327.257a10.816,10.816,0,0,0,6-1.122c.517-.3.525-.874-.076-1.107-.5-.2-1.161.189-1.61.376A27.7,27.7,0,0,1,35.522,33.421Z" style="fill:#e6ba71"/><path d="M43.545,30.986a.606.606,0,0,0-.377.161.427.427,0,0,0,.133.591,1.244,1.244,0,0,0,.653.164c.46.028,1.957.328,1.769-.5S44.059,30.9,43.545,30.986Z" style="fill:#e6ba71"/><path d="M26.029,31.919a.866.866,0,0,0-.659.187.229.229,0,0,0-.07.172c.011.1.108.161.2.2a3.057,3.057,0,0,0,1.358.188,1.048,1.048,0,0,0,.605-.155C28.353,31.829,26.228,31.918,26.029,31.919Z" style="fill:#e6ba71"/><path d="M30.709,30.518l-1.133-.077c-.18-.012-.4,0-.486.155a.324.324,0,0,0,.079.364.936.936,0,0,0,.344.194,2.006,2.006,0,0,0,.8.186.693.693,0,0,0,.645-.427.361.361,0,0,0-.034-.317.233.233,0,0,0-.29-.083" style="fill:#e6ba71"/><path d="M23.818,32.541a1.176,1.176,0,0,0-.478.086c-.043.019-.09.061-.071.1a.1.1,0,0,0,.049.042,2.659,2.659,0,0,0,1.156.288.3.3,0,0,0,.241-.075.222.222,0,0,0,.042-.13C24.77,32.458,24.086,32.536,23.818,32.541Z" style="fill:#e6ba71"/><path d="M35.114,30.417a.954.954,0,0,0-.441.079.711.711,0,0,0-.317.643.521.521,0,0,0,.051.243.645.645,0,0,0,.562.242,7.709,7.709,0,0,0,2.152-.184.783.783,0,0,0,.492-.258C38.239,30.285,35.442,30.411,35.114,30.417Z" style="fill:#e6ba71"/><path d="M40.248,30c-.122.049-.262.185-.177.285a.2.2,0,0,0,.087.053c.36.139,1.879.539,1.827-.085C41.92,29.475,40.634,29.845,40.248,30Z" style="fill:#e6ba71"/><path d="M21.955,31.9a1.926,1.926,0,0,0-1.52.508c-.078.087-.144.222-.07.311a.27.27,0,0,0,.108.067,7.411,7.411,0,0,0,.737.261.5.5,0,0,0,.471-.027c.1-.09.116-.247.2-.353.177-.216.8-.089.85-.4C22.792,31.92,22.151,31.906,21.955,31.9Z" style="fill:#e6ba71"/><path d="M42.485,32.8c-.049.058-.092.15-.038.2a.156.156,0,0,0,.075.034,8.775,8.775,0,0,0,1,.2c.482.065,1.172-.193.63-.7A1.227,1.227,0,0,0,42.485,32.8Z" style="fill:#e6ba71"/><path d="M45.741,38.832C42.28,39.26,37.409,39,32,39s-10.28.26-13.741-.168a3.426,3.426,0,0,0-.843,4.29C20.9,44.372,26.134,45,32,45s11.1-.628,14.584-1.878a3.426,3.426,0,0,0-.843-4.29Z" style="fill:#f2ce92"/><path d="M19.375,40.353a3.737,3.737,0,0,0-1.258.309.4.4,0,0,0-.239.239c-.054.238.268.367.51.392,2.093.215,4.2.278,6.3.341.39.011.894-.058.983-.438a.587.587,0,0,0-.323-.607,7.8,7.8,0,0,0-2.648-.3A18.119,18.119,0,0,0,19.375,40.353Z" style="fill:#e6ba71"/><path d="M31.611,42.134a5.814,5.814,0,0,0-2.879.47c-.14.067-.293.164-.314.318-.03.223.228.367.444.432a10.133,10.133,0,0,0,2.391.38,6.259,6.259,0,0,0,2.568-.039.62.62,0,0,0,.081-1.067C33.419,42.17,32.238,42.174,31.611,42.134Z" style="fill:#e6ba71"/><path d="M35.522,43.421c-.08.018-.171.045-.2.121-.062.152.163.249.327.257a10.816,10.816,0,0,0,6-1.122c.517-.3.525-.874-.076-1.107-.5-.2-1.161.189-1.61.376A27.7,27.7,0,0,1,35.522,43.421Z" style="fill:#e6ba71"/><path d="M43.545,40.986a.606.606,0,0,0-.377.161.427.427,0,0,0,.133.591,1.244,1.244,0,0,0,.653.164c.46.028,1.957.328,1.769-.5S44.059,40.9,43.545,40.986Z" style="fill:#e6ba71"/><path d="M26.029,41.919a.866.866,0,0,0-.659.187.229.229,0,0,0-.07.172c.011.1.108.161.2.2a3.057,3.057,0,0,0,1.358.188,1.048,1.048,0,0,0,.605-.155C28.353,41.829,26.228,41.918,26.029,41.919Z" style="fill:#e6ba71"/><path d="M30.709,40.518l-1.133-.077c-.18-.012-.4,0-.486.155a.324.324,0,0,0,.079.364.936.936,0,0,0,.344.194,2.006,2.006,0,0,0,.8.186.693.693,0,0,0,.645-.427.361.361,0,0,0-.034-.317.233.233,0,0,0-.29-.083" style="fill:#e6ba71"/><path d="M23.818,42.541a1.176,1.176,0,0,0-.478.086c-.043.019-.09.061-.071.1a.1.1,0,0,0,.049.042,2.659,2.659,0,0,0,1.156.288.3.3,0,0,0,.241-.075.222.222,0,0,0,.042-.13C24.77,42.458,24.086,42.536,23.818,42.541Z" style="fill:#e6ba71"/><path d="M35.114,40.417a.954.954,0,0,0-.441.079.711.711,0,0,0-.317.643.521.521,0,0,0,.051.243.645.645,0,0,0,.562.242,7.709,7.709,0,0,0,2.152-.184.783.783,0,0,0,.492-.258C38.239,40.285,35.442,40.411,35.114,40.417Z" style="fill:#e6ba71"/><path d="M40.248,40c-.122.049-.262.185-.177.285a.2.2,0,0,0,.087.053c.36.139,1.879.539,1.827-.085C41.92,39.475,40.634,39.845,40.248,40Z" style="fill:#e6ba71"/><path d="M21.955,41.9a1.926,1.926,0,0,0-1.52.508c-.078.087-.144.222-.07.311a.27.27,0,0,0,.108.067,7.411,7.411,0,0,0,.737.261.5.5,0,0,0,.471-.027c.1-.09.116-.247.2-.353.177-.216.8-.089.85-.4C22.792,41.92,22.151,41.906,21.955,41.9Z" style="fill:#e6ba71"/><path d="M42.485,42.8c-.049.058-.092.15-.038.2a.156.156,0,0,0,.075.034,8.775,8.775,0,0,0,1,.2c.482.065,1.172-.193.63-.7A1.227,1.227,0,0,0,42.485,42.8Z" style="fill:#e6ba71"/><path d="M45.741,48.832C42.28,49.26,37.409,49,32,49s-10.28.26-13.741-.168a3.426,3.426,0,0,0-.843,4.29C20.9,54.372,26.134,55,32,55s11.1-.628,14.584-1.878a3.426,3.426,0,0,0-.843-4.29Z" style="fill:#f2ce92"/><path d="M19.375,50.353a3.737,3.737,0,0,0-1.258.309.4.4,0,0,0-.239.239c-.054.238.268.367.51.392,2.093.215,4.2.278,6.3.341.39.011.894-.058.983-.438a.587.587,0,0,0-.323-.607,7.8,7.8,0,0,0-2.648-.3A18.119,18.119,0,0,0,19.375,50.353Z" style="fill:#e6ba71"/><path d="M31.611,52.134a5.814,5.814,0,0,0-2.879.47c-.14.067-.293.164-.314.318-.03.223.228.367.444.432a10.133,10.133,0,0,0,2.391.38,6.259,6.259,0,0,0,2.568-.039.62.62,0,0,0,.081-1.067C33.419,52.17,32.238,52.174,31.611,52.134Z" style="fill:#e6ba71"/><path d="M35.522,53.421c-.08.018-.171.045-.2.121-.062.152.163.249.327.257a10.816,10.816,0,0,0,6-1.122c.517-.3.525-.874-.076-1.107-.5-.2-1.161.189-1.61.376A27.7,27.7,0,0,1,35.522,53.421Z" style="fill:#e6ba71"/><path d="M43.545,50.986a.606.606,0,0,0-.377.161.427.427,0,0,0,.133.591,1.244,1.244,0,0,0,.653.164c.46.028,1.957.328,1.769-.5S44.059,50.9,43.545,50.986Z" style="fill:#e6ba71"/><path d="M26.029,51.919a.866.866,0,0,0-.659.187.229.229,0,0,0-.07.172c.011.1.108.161.2.2a3.057,3.057,0,0,0,1.358.188,1.048,1.048,0,0,0,.605-.155C28.353,51.829,26.228,51.918,26.029,51.919Z" style="fill:#e6ba71"/><path d="M30.709,50.518l-1.133-.077c-.18-.012-.4,0-.486.155a.324.324,0,0,0,.079.364.936.936,0,0,0,.344.194,2.006,2.006,0,0,0,.8.186.693.693,0,0,0,.645-.427.361.361,0,0,0-.034-.317.233.233,0,0,0-.29-.083" style="fill:#e6ba71"/><path d="M23.818,52.541a1.176,1.176,0,0,0-.478.086c-.043.019-.09.061-.071.1a.1.1,0,0,0,.049.042,2.659,2.659,0,0,0,1.156.288.3.3,0,0,0,.241-.075.222.222,0,0,0,.042-.13C24.77,52.458,24.086,52.536,23.818,52.541Z" style="fill:#e6ba71"/><path d="M35.114,50.417a.954.954,0,0,0-.441.079.711.711,0,0,0-.317.643.521.521,0,0,0,.051.243.645.645,0,0,0,.562.242,7.709,7.709,0,0,0,2.152-.184.783.783,0,0,0,.492-.258C38.239,50.285,35.442,50.411,35.114,50.417Z" style="fill:#e6ba71"/><path d="M40.248,50c-.122.049-.262.185-.177.285a.2.2,0,0,0,.087.053c.36.139,1.879.539,1.827-.085C41.92,49.475,40.634,49.845,40.248,50Z" style="fill:#e6ba71"/><path d="M21.955,51.9a1.926,1.926,0,0,0-1.52.508c-.078.087-.144.222-.07.311a.27.27,0,0,0,.108.067,7.411,7.411,0,0,0,.737.261.5.5,0,0,0,.471-.027c.1-.09.116-.247.2-.353.177-.216.8-.089.85-.4C22.792,51.92,22.151,51.906,21.955,51.9Z" style="fill:#e6ba71"/><path d="M42.485,52.8c-.049.058-.092.15-.038.2a.156.156,0,0,0,.075.034,8.775,8.775,0,0,0,1,.2c.482.065,1.172-.193.63-.7A1.227,1.227,0,0,0,42.485,52.8Z" style="fill:#e6ba71"/><path d="M40.16,29.08A2.965,2.965,0,0,1,38,30a3,3,0,0,1-3-3V25a2,2,0,0,1-4,0V19H27.5a3.5,3.5,0,0,1-.5-6.96V14h9l2-2h.5A3.5,3.5,0,0,1,42,15.5a3.464,3.464,0,0,1-1,2.44V27A2.984,2.984,0,0,1,40.16,29.08Z" style="fill:#b95404"/><polygon points="39 9 39 11 38 12 36 14 36 9 39 6 39 9" style="fill:#f5d372"/><polygon points="39 6 36 9 27 9 28.12 8.16 31 6 39 6" style="fill:#fefbb8"/><polygon points="36 9 36 14 27 14 27 12.04 27 10.65 27 9 36 9" style="fill:#e1a33e"/><path d="M47,1s0,4-4,4C43,5,43,1,47,1Z" style="fill:#b7d04e"/><path d="M39,1c4,0,4,4,4,4C39,5,39,1,39,1Z" style="fill:#b7d04e"/><path d="M15,4c4,0,4,4,4,4C15,8,15,4,15,4Z" style="fill:#b7d04e"/><path d="M37.319,9.19a1.435,1.435,0,0,0-.37-.669.957.957,0,0,0-.3-.167L36,9v5l1.628-1.628A7.755,7.755,0,0,0,37.319,9.19Z" style="fill:#f5d372"/><path d="M37.92,7.08c.038.008.078.009.116.019a.6.6,0,0,1,.318.16.641.641,0,0,1,.115.354,34.448,34.448,0,0,1,.214,3.7L39,11V6Z" style="fill:#f5d372"/><path d="M32.68,6.744c1.571.816,3.513-.038,5.24.336L39,6H31.8A2.7,2.7,0,0,0,32.68,6.744Z" style="fill:#fefbb8"/><path d="M33.692,8.177a.735.735,0,0,0-.348.068c-.243.138-.251.472-.228.755H36l.646-.646a2.325,2.325,0,0,0-.6-.113A21.028,21.028,0,0,0,33.692,8.177Z" style="fill:#fefbb8"/><path d="M31.484,8.623A.559.559,0,0,0,31.077,9h.963c-.008-.018-.008-.038-.017-.055A.562.562,0,0,0,31.484,8.623Z" style="fill:#fefbb8"/><path d="M33.116,9l0,.037A21.026,21.026,0,0,1,32.99,14H36V9Z" style="fill:#e1a33e"/><path d="M32.15,9.6a1.621,1.621,0,0,0-.11-.6h-.963a1.806,1.806,0,0,0-.124.412A29.777,29.777,0,0,0,30.508,14h.926a1.7,1.7,0,0,1,.059-.2A11.3,11.3,0,0,0,32.15,9.6Z" style="fill:#e1a33e"/><path d="M27.478,15.349a12.018,12.018,0,0,0,2.116.088,5.37,5.37,0,0,1,2.312.652c.505.276.966.634,1.493.868a1.964,1.964,0,0,0,1.669.066,7.237,7.237,0,0,0,.8-.606,4.693,4.693,0,0,1,2.634-.541c.46-.011,1.035-.126,1.142-.574.1-.419-.3-.77-.539-1.126a1.836,1.836,0,0,1,.128-2.1A3.471,3.471,0,0,0,38.5,12H38l-2,2H27V12.04a3.472,3.472,0,0,0-1.683.727A2.953,2.953,0,0,0,27.478,15.349Z" style="fill:#aa4b07"/><path d="M34.8,20.2c-.088-.391-.237-.835-.612-.976a.853.853,0,0,0-.966.414,2.187,2.187,0,0,0-.241,1.1,11.99,11.99,0,0,0,.14,2.166,16.971,16.971,0,0,1,.273,1.871,2.921,2.921,0,0,1-.439,1.806,1.8,1.8,0,0,1-.357.372A2,2,0,0,0,35,25v1A16.114,16.114,0,0,0,34.8,20.2Z" style="fill:#d67e2b"/><path d="M38.243,19a1.279,1.279,0,0,0,.009.2q.171,1.43.341,2.859a15.073,15.073,0,0,1-.022,5.486,6.12,6.12,0,0,1-1.2,2.383A3.011,3.011,0,0,0,38,30a3,3,0,0,0,3-3V18a6.265,6.265,0,0,1-2.414,1Z" style="fill:#d67e2b"/><path d="M36.214,22.724a7,7,0,0,1-.05,2.563c-.043.289-.008.671.362.75a.817.817,0,0,0,.713-.281,2.966,2.966,0,0,0,.712-1.866A4.489,4.489,0,0,0,37.842,22c-.155-.474-.88-1.737-1.824-1.55C35.151,20.621,36.111,22.268,36.214,22.724Z" style="fill:#aa4b07"/><path d="M30.471,16.528a2.47,2.47,0,0,0-.984-.113,10.547,10.547,0,0,1-2.683-.1,3.489,3.489,0,0,0-.932-.163.767.767,0,0,0-.733.5c-.1.395.254.756.607.962a7.849,7.849,0,0,0,4.452.612,1.188,1.188,0,0,0,.474-.095C31.366,17.777,31.088,16.771,30.471,16.528Z" style="fill:#da8b2f"/><path d="M50,12a3.64,3.64,0,0,1-.07.74,4,4,0,0,1-7.84.1A3.861,3.861,0,0,1,42,12a4,4,0,0,1,4-4,3.861,3.861,0,0,1,.84.09A4,4,0,0,1,50,12Z" style="fill:#515f90"/><path d="M46.87,7.99l-.03.1A3.861,3.861,0,0,0,46,8a4,4,0,0,0-4,4,3.861,3.861,0,0,0,.09.84l-.1.03a4,4,0,1,1,4.88-4.88Z" style="fill:#495585"/><path d="M28,8l.12.16L27,9v1.65A3.991,3.991,0,0,1,24,12a4,4,0,0,0-4-4,4,4,0,0,1,8,0Z" style="fill:#495585"/><path d="M20,8a4,4,0,1,1-4,4,3.938,3.938,0,0,1,.05-.6A4,4,0,0,1,20,8Z" style="fill:#515f90"/><path d="M42,7a3.967,3.967,0,0,0-2.929,1.3A3.936,3.936,0,0,0,39,9a3.994,3.994,0,0,0,2.99,3.87l.1-.03A3.861,3.861,0,0,1,42,12a3.985,3.985,0,0,1,2.844-3.81A3.984,3.984,0,0,0,42,7Z" style="fill:#384163"/><path d="M23,6a3.967,3.967,0,0,0-2.929,1.3A3.936,3.936,0,0,0,20,8a4,4,0,0,1,4,4,3.981,3.981,0,0,0,2.928-1.284A3.963,3.963,0,0,0,23,6Z" style="fill:#384163"/><path d="M18,10a3.9,3.9,0,0,1,.372-1.639A3.99,3.99,0,0,0,16.05,11.4,3.938,3.938,0,0,0,16,12a4,4,0,0,0,7.641,1.641A3.987,3.987,0,0,1,18,10Z" style="fill:#3e486e"/><path d="M44,10a3.9,3.9,0,0,1,.372-1.639A3.99,3.99,0,0,0,42.05,11.4,3.938,3.938,0,0,0,42,12a4,4,0,0,0,7.641,1.641A3.987,3.987,0,0,1,44,10Z" style="fill:#3e486e"/><path d="M52,44a4,4,0,1,1-3.98,4.39c-.01-.13-.02-.26-.02-.39a4,4,0,0,1,2.81-3.82A3.944,3.944,0,0,1,52,44Z" style="fill:#515f90"/><path d="M50,54a3.9,3.9,0,0,1-.32,1.57c-2.09.38-4.37.69-6.8.92a3.931,3.931,0,0,1-.87-2.22A2.437,2.437,0,0,1,42,54a4,4,0,1,1,8,0Z" style="fill:#515f90"/><path d="M45,52a3.944,3.944,0,0,0-1.19.18,4.008,4.008,0,0,0-1.738,1.11A3.956,3.956,0,0,0,42,54a2.437,2.437,0,0,0,.01.27,3.931,3.931,0,0,0,.87,2.22c2.16-.2,4.194-.475,6.089-.8A3.987,3.987,0,0,0,45,52Z" style="fill:#3e486e"/><path d="M19,53a4.071,4.071,0,0,1-.05.61A3.915,3.915,0,0,1,17.65,56l-.01.09c-2.2-.3-4.25-.66-6.1-1.09a3.81,3.81,0,0,1-.44-1.15A3.411,3.411,0,0,1,11,53a4.007,4.007,0,0,1,2.91-3.85A3.931,3.931,0,0,1,15,49a4.07,4.07,0,0,1,.5.03A4.007,4.007,0,0,1,19,53Z" style="fill:#515f90"/><path d="M13.87,49l.04.15A4.007,4.007,0,0,0,11,53a3.411,3.411,0,0,0,.1.85l-.1.02A3.657,3.657,0,0,1,10,54a4,4,0,1,1,3.87-5Z" style="fill:#495585"/><path d="M17,55a4.007,4.007,0,0,0-3.5-3.97A4.07,4.07,0,0,0,13,51a3.772,3.772,0,0,0-1.632.354A3.955,3.955,0,0,0,11,53a3.411,3.411,0,0,0,.1.85A3.81,3.81,0,0,0,11.54,55c1.628.378,3.418.7,5.322.977.03-.122.069-.241.088-.367A4.071,4.071,0,0,0,17,55Z" style="fill:#3e486e"/><path d="M10,54a3.657,3.657,0,0,0,1-.13l.1-.02A3.411,3.411,0,0,1,11,53a3.977,3.977,0,0,1,1.431-3.049A4.011,4.011,0,0,0,9.5,48.03,4.07,4.07,0,0,0,9,48a3.931,3.931,0,0,0-1.09.15A4.008,4.008,0,0,0,6.071,49.3,3.957,3.957,0,0,0,10,54Z" style="fill:#384163"/><path d="M50,46a3.9,3.9,0,0,1,.372-1.639A3.99,3.99,0,0,0,48.05,47.4,3.938,3.938,0,0,0,48,48a4,4,0,0,0,7.641,1.641A3.987,3.987,0,0,1,50,46Z" style="fill:#3e486e"/><path d="M9,43.636q.953-.272,2-.521" style="fill:none;stroke:#000;stroke-linejoin:round;stroke-width:2px"/><path d="M57.005,44.271C60.774,45.6,63,47.231,63,49c0,4.418-13.879,8-31,8S1,53.418,1,49c0-1.77,2.228-3.406,6-4.731" style="fill:none;stroke:#000;stroke-linejoin:round;stroke-width:2px"/><path d="M57,53v1l-2,2c0,3.866-9.193,7-23,7S9,59.866,9,56L7,54V53" style="fill:none;stroke:#000;stroke-linejoin:round;stroke-width:2px"/><path d="M29,24.943C19.932,24.592,13,22.611,13,19V15" style="fill:none;stroke:#000;stroke-linejoin:round;stroke-width:2px"/><path d="M51,15v4c0,2.437-3.158,4.132-8,5.084" style="fill:none;stroke:#000;stroke-linejoin:round;stroke-width:2px"/><path d="M23,19c-5.823-.05-10-.594-10-4,0-1.439,1.1-2.65,3-3.606" style="fill:none;stroke:#000;stroke-linejoin:round;stroke-width:2px"/><path d="M50,12.749A3.246,3.246,0,0,1,51,15c0,2.831-2.728,3.739-7,3.993" style="fill:none;stroke:#000;stroke-linejoin:round;stroke-width:2px"/><path d="M51,25v4c0,4-8.507,6-19,6s-19-2-19-6V25" style="fill:none;stroke:#000;stroke-linejoin:round;stroke-width:2px"/><path d="M32,29h0c-10.493,0-19,1-19-4a3.661,3.661,0,0,1,2.026-3" style="fill:none;stroke:#000;stroke-linejoin:round;stroke-width:2px"/><path d="M48.974,22A3.664,3.664,0,0,1,51,25c0,3.047-3.159,3.866-8,4.041" style="fill:none;stroke:#000;stroke-linejoin:round;stroke-width:2px"/><path d="M42,44.266A61.56,61.56,0,0,1,32,45c-10.493,0-19-2-19-6V35" style="fill:none;stroke:#000;stroke-linejoin:round;stroke-width:2px"/><path d="M51,35v4c0,2.265-2.728,3.889-7,4.871" style="fill:none;stroke:#000;stroke-linejoin:round;stroke-width:2px"/><path d="M24,39.081C17.5,39.1,13,38.638,13,35a3.661,3.661,0,0,1,2.026-3" style="fill:none;stroke:#000;stroke-linejoin:round;stroke-width:2px"/><path d="M28,39.036c-.682.009-1.35.02-2,.028" style="fill:none;stroke:#000;stroke-linejoin:round;stroke-width:2px"/><path d="M48.974,32A3.664,3.664,0,0,1,51,35c0,5-8.507,4-19,4q-1.014,0-2,.011" style="fill:none;stroke:#000;stroke-linejoin:round;stroke-width:2px"/><path d="M42,54.266A61.56,61.56,0,0,1,32,55a52.27,52.27,0,0,1-13-1.378" style="fill:none;stroke:#000;stroke-linejoin:round;stroke-width:2px"/><path d="M48,48.393C44.621,49.41,38.718,49,32,49c-10.493,0-19,1-19-4a3.661,3.661,0,0,1,2.026-3" style="fill:none;stroke:#000;stroke-linejoin:round;stroke-width:2px"/><path d="M48.974,42a4.4,4.4,0,0,1,1.837,2" style="fill:none;stroke:#000;stroke-linejoin:round;stroke-width:2px"/><circle cx="20" cy="12" r="4" style="fill:none;stroke:#000;stroke-linejoin:round;stroke-width:2px"/><path d="M27,10.646A3.991,3.991,0,0,1,24,12" style="fill:none;stroke:#000;stroke-linejoin:round;stroke-width:2px"/><path d="M20,8a4,4,0,0,1,8,0" style="fill:none;stroke:#000;stroke-linejoin:round;stroke-width:2px"/><circle cx="52" cy="48" r="4" style="fill:none;stroke:#000;stroke-linejoin:round;stroke-width:2px"/><path d="M43,56.645A4,4,0,1,1,49.465,56" style="fill:none;stroke:#000;stroke-linejoin:round;stroke-width:2px"/><path d="M11.536,55a4,4,0,1,1,6.11,1" style="fill:none;stroke:#000;stroke-linejoin:round;stroke-width:2px"/><path d="M11,53.874A4,4,0,1,1,13.873,49" style="fill:none;stroke:#000;stroke-linejoin:round;stroke-width:2px"/><path d="M41.994,12.873a4,4,0,1,1,4.878-4.879" style="fill:none;stroke:#000;stroke-linejoin:round;stroke-width:2px"/><circle cx="46" cy="12" r="4" style="fill:none;stroke:#000;stroke-linejoin:round;stroke-width:2px"/><path d="M43,5s0-4,4-4C47,1,47,5,43,5Z" style="fill:none;stroke:#000;stroke-linejoin:round;stroke-width:2px"/><path d="M43,5s0-4-4-4C39,1,39,5,43,5Z" style="fill:none;stroke:#000;stroke-linejoin:round;stroke-width:2px"/><path d="M19,8s0-4-4-4C15,4,15,8,19,8Z" style="fill:none;stroke:#000;stroke-linejoin:round;stroke-width:2px"/><polygon points="36 9 27 9 31 6 39 6 36 9" style="fill:none;stroke:#000;stroke-linejoin:round;stroke-width:2px"/><polyline points="36 9 36 14 27 14 27 9" style="fill:none;stroke:#000;stroke-linejoin:round;stroke-width:2px"/><polyline points="39 6 39 11 36 14" style="fill:none;stroke:#000;stroke-linejoin:round;stroke-width:2px"/><path d="M27,12.035A3.5,3.5,0,0,0,27.5,19H31v6a2,2,0,0,0,4,0v2a3,3,0,0,0,6,0V17.944A3.5,3.5,0,0,0,38.5,12H38" style="fill:none;stroke:#000;stroke-linejoin:round;stroke-width:2px"/><line x1="45" y1="10" x2="47" y2="11" style="fill:none;stroke:#000;stroke-linejoin:round;stroke-width:2px"/><line x1="45" y1="52" x2="47" y2="53" style="fill:none;stroke:#000;stroke-linejoin:round;stroke-width:2px"/><line x1="18" y1="11" x2="20" y2="10" style="fill:none;stroke:#000;stroke-linejoin:round;stroke-width:2px"/><line x1="9" y1="49" x2="11" y2="48" style="fill:none;stroke:#000;stroke-linejoin:round;stroke-width:2px"/><line x1="51" y1="47" x2="53" y2="47" style="fill:none;stroke:#000;stroke-linejoin:round;stroke-width:2px"/><line x1="14" y1="52" x2="16" y2="52" style="fill:none;stroke:#000;stroke-linejoin:round;stroke-width:2px"/></svg>