<svg xmlns="http://www.w3.org/2000/svg" viewBox="0 0 64 64"><g id="_03-blueberry_cheesecake" data-name="03-blueberry cheesecake"><path d="M25.03,22.08a9.716,9.716,0,0,1-4.809-6.6v-.01a10.071,10.071,0,0,1-.21-1.22A2.008,2.008,0,0,1,20,14a4.375,4.375,0,0,1,1.08-2.92L28,18a5,5,0,0,0,9.84,1.24,3.775,3.775,0,0,0,3.05.71,7.876,7.876,0,0,0,4.519-2.27,5.262,5.262,0,0,0,1.5-2.68h.81s.31,5-5.28,5a9.259,9.259,0,0,0-1.519.12A10.482,10.482,0,0,0,34,25l-.03.05a14.468,14.468,0,0,0-4.77-1.84h-.01c-.38-.08-.77-.15-1.19-.21A9.337,9.337,0,0,1,25.03,22.08Z" style="fill:#d6b69f"/><path d="M52.269,27.59a2.909,2.909,0,0,1,.31-.04,2.714,2.714,0,0,0,1.89,2.03,2.591,2.591,0,0,0,2.7-.3,6.363,6.363,0,0,1,1.46,6.61,6.088,6.088,0,0,1-2.23,3,5.781,5.781,0,0,1-5.46.73c-.04-.02-.08-.03-.12-.05A6.748,6.748,0,0,0,51,38a6.963,6.963,0,0,0-3.69-6.16,1.519,1.519,0,0,1,.06-.2A6.026,6.026,0,0,1,52.269,27.59Z" style="fill:#495585"/><path d="M58,41a.9.9,0,0,1-.02.23,1.011,1.011,0,0,1-.04.23v.02C57.029,45.13,45.759,48,32,48S6.971,45.13,6.061,41.48v-.02a1.011,1.011,0,0,1-.04-.23A.9.9,0,0,1,6,41a2.772,2.772,0,0,1,1.08-2l.15-.39a5.813,5.813,0,0,0,5.83,1.01c.04-.02.08-.03.12-.05A7,7,0,0,0,26,41.6a6.994,6.994,0,0,0,12,0,7,7,0,0,0,12.819-2.03c.04.02.08.03.12.05a5.781,5.781,0,0,0,5.46-.73l.6.18A2.7,2.7,0,0,1,58,41Z" style="fill:#cd3739"/><path d="M57.939,41.48l-.31,2.33v.01l-.38,2.84-.01.01C54.469,49.73,44.219,52,32,52S9.531,49.73,6.761,46.67l-.39-2.85v-.01l-.31-2.33C6.971,45.13,18.241,48,32,48S57.029,45.13,57.939,41.48Z" style="fill:#ae403f"/><path d="M55.639,26.23c1.34.51,2.16,1.66,1.83,2.59a1.084,1.084,0,0,1-.3.46,2.591,2.591,0,0,1-2.7.3,2.714,2.714,0,0,1-1.89-2.03,1.327,1.327,0,0,1,.06-.56C52.969,26.07,54.309,25.73,55.639,26.23Z" style="fill:#232c4d"/><path d="M57.239,46.67,56,56c0,3.87-10.75,7-24,7S8,59.87,8,56l-1.24-9.33C9.531,49.73,19.781,52,32,52S54.469,49.73,57.239,46.67Z" style="fill:#f8d6a8"/><path d="M51,38a6.748,6.748,0,0,1-.18,1.57A7,7,0,0,1,38,41.6,6.882,6.882,0,0,0,39,38a7,7,0,0,0-1-3.6,6.945,6.945,0,0,1,3.15-2.79A3.1,3.1,0,0,0,44,33a3.1,3.1,0,0,0,2.85-1.39,3.947,3.947,0,0,1,.46.23A6.963,6.963,0,0,1,51,38Z" style="fill:#485896"/><path d="M47,31a1.31,1.31,0,0,1-.15.61A3.1,3.1,0,0,1,44,33a3.1,3.1,0,0,1-2.849-1.39,1.314,1.314,0,0,1-.01-1.2V30.4A3.118,3.118,0,0,1,44,29a3.685,3.685,0,0,1,.58.04C45.959,29.22,47,30.03,47,31Z" style="fill:#232c4d"/><path d="M45.919,11.08a4.782,4.782,0,0,1-.51,6.6,7.876,7.876,0,0,1-4.519,2.27,3.775,3.775,0,0,1-3.05-.71,1.136,1.136,0,0,0,.06-.25L38,19Z" style="fill:#6d8513"/><path d="M45.919,11.08,38,19l-.1-.01A4.619,4.619,0,0,0,38,18a4.958,4.958,0,0,0-.9-2.86l.18-.14a8.121,8.121,0,0,1,2.04-3.41A6.1,6.1,0,0,1,40,11,4.711,4.711,0,0,1,45.919,11.08Z" style="fill:#9eab3f"/><path d="M34.08,13.12A4.832,4.832,0,0,0,33,13a5.006,5.006,0,0,0-3.49,1.41c-.08-.22-.17-.43-.27-.65L40.49,2.51C41.809,3.83,42.669,7.63,40,11a6.1,6.1,0,0,0-.68.59A8.121,8.121,0,0,0,37.28,15l-.18.14A4.979,4.979,0,0,0,34.08,13.12Z" style="fill:#6d8513"/><path d="M40.49,2.51,29.24,13.76a8.844,8.844,0,0,0-1.14-1.72l.05-.04c-.56-2.45.41-6.09,3.1-8.78A6.715,6.715,0,0,1,40.49,2.51Z" style="fill:#9eab3f"/><path d="M39,38a6.882,6.882,0,0,1-1,3.6,6.994,6.994,0,0,1-12,0A6.882,6.882,0,0,1,25,38a7.005,7.005,0,0,1,4.15-6.39A3.1,3.1,0,0,0,32,33a3.1,3.1,0,0,0,2.85-1.39,6.693,6.693,0,0,1,1.69,1.06A7.105,7.105,0,0,1,38,34.4,7,7,0,0,1,39,38Z" style="fill:#586cb8"/><path d="M34.08,13.12A5,5,0,0,1,38,18a4.619,4.619,0,0,1-.1.99,1.136,1.136,0,0,1-.06.25A5,5,0,1,1,33,13,4.832,4.832,0,0,1,34.08,13.12Z" style="fill:#de3c31"/><path d="M29.37,30.04A3.423,3.423,0,0,1,32,29a4.2,4.2,0,0,1,.72.06c1.31.21,2.28,1,2.28,1.94a1.31,1.31,0,0,1-.15.61A3.1,3.1,0,0,1,32,33a3.1,3.1,0,0,1-2.85-1.39A1.31,1.31,0,0,1,29,31,1.516,1.516,0,0,1,29.37,30.04Z" style="fill:#232c4d"/><path d="M29.24,13.76c.1.22.19.43.27.65A5.04,5.04,0,0,0,28,18l-6.919-6.92a4.78,4.78,0,0,1,6.6.51q.225.225.42.45A8.844,8.844,0,0,1,29.24,13.76Z" style="fill:#9eab3f"/><path d="M28.31,19.74l-.31.12a7.168,7.168,0,0,1-6.409-2.18,5.346,5.346,0,0,1-1.37-2.2v-.01a10.071,10.071,0,0,1-.21-1.22A2.008,2.008,0,0,1,20,14a4.375,4.375,0,0,1,1.08-2.92L28,18A5.016,5.016,0,0,0,28.31,19.74Z" style="fill:#6d8513"/><path d="M26,34.4A7,7,0,0,0,25,38a6.882,6.882,0,0,0,1,3.6,7,7,0,0,1-12.819-2.03A6.748,6.748,0,0,1,13,38a6.963,6.963,0,0,1,3.69-6.16,3.947,3.947,0,0,1,.46-.23A3.1,3.1,0,0,0,20,33a3.1,3.1,0,0,0,2.849-1.39,6.1,6.1,0,0,1,1.06.59A6.864,6.864,0,0,1,26,34.4Z" style="fill:#485896"/><path d="M18.091,29.46A1.838,1.838,0,0,0,17,31a1.31,1.31,0,0,0,.15.61,3.947,3.947,0,0,0-.46.23,1.519,1.519,0,0,0-.06-.2,6.04,6.04,0,0,0-5.21-4.09,1.327,1.327,0,0,0-.06-.56,1.112,1.112,0,0,0-.35-.5C11,26.33,11,26.17,11,26a9.355,9.355,0,0,1,.16-1.78A11.045,11.045,0,0,0,16,28,4.649,4.649,0,0,1,18.091,29.46Z" style="fill:#efd1ad"/><path d="M53,24a7.451,7.451,0,0,1-.07,1.06v.01A12.077,12.077,0,0,1,45,28c-.59,0-.66.43-.42,1.04A3.685,3.685,0,0,0,44,29a3.118,3.118,0,0,0-2.859,1.4C39.88,28.29,40.3,25,44,25c5.43,0,5.95-6.56,5.99-7.8A10.794,10.794,0,0,1,53,24Z" style="fill:#e7d9cc"/><path d="M52.929,25.07a10.377,10.377,0,0,1-.66,2.52,6.026,6.026,0,0,0-4.9,4.05,1.519,1.519,0,0,0-.06.2,3.947,3.947,0,0,0-.46-.23A1.31,1.31,0,0,0,47,31c0-.97-1.04-1.78-2.42-1.96-.24-.61-.17-1.04.42-1.04A12.077,12.077,0,0,0,52.929,25.07Z" style="fill:#efd1ad"/><path d="M49.989,17.19v.01c-.04,1.24-.56,7.8-5.99,7.8-3.7,0-4.119,3.29-2.859,5.4v.01a1.314,1.314,0,0,0,.01,1.2A6.945,6.945,0,0,0,38,34.4a7.105,7.105,0,0,0-1.46-1.73A7.842,7.842,0,0,0,37,30a5.439,5.439,0,0,0-2.1-4.31,10.7,10.7,0,0,0-.93-.64L34,25a10.482,10.482,0,0,1,6.92-4.88A9.259,9.259,0,0,1,42.439,20c5.59,0,5.28-5,5.28-5A17.057,17.057,0,0,1,49.989,17.19Z" style="fill:#eddfd4"/><path d="M37,30a7.842,7.842,0,0,1-.46,2.67,6.693,6.693,0,0,0-1.69-1.06A1.31,1.31,0,0,0,35,31c0-.94-.97-1.73-2.28-1.94a15.919,15.919,0,0,0-3.52-5.85,14.468,14.468,0,0,1,4.77,1.84,10.7,10.7,0,0,1,.93.64A5.439,5.439,0,0,1,37,30Z" style="fill:#eddfd4"/><path d="M32.72,29.06A4.2,4.2,0,0,0,32,29a3.423,3.423,0,0,0-2.63,1.04A5.315,5.315,0,0,0,28,27a12.577,12.577,0,0,1-2.97-4.92A9.337,9.337,0,0,0,28,23c.42.06.81.13,1.19.21h.01A15.919,15.919,0,0,1,32.72,29.06Z" style="fill:#f6ede8"/><path d="M29.37,30.04A1.516,1.516,0,0,0,29,31a1.31,1.31,0,0,0,.15.61A6.945,6.945,0,0,0,26,34.4a6.864,6.864,0,0,0-2.09-2.2c-.38-1.72-1.889-3.4-3.409-4.7A10.239,10.239,0,0,1,17,19.71V16l-.11-.14A18.6,18.6,0,0,1,20,14a2.008,2.008,0,0,0,.01.25,4.466,4.466,0,0,0,.21,1.22v.01a9.716,9.716,0,0,0,4.809,6.6A12.577,12.577,0,0,0,28,27,5.315,5.315,0,0,1,29.37,30.04Z" style="fill:#eddfd4"/><path d="M23.91,32.2a6.1,6.1,0,0,0-1.06-.59A1.31,1.31,0,0,0,23,31c0-1.1-1.339-2-3-2a3.938,3.938,0,0,0-1.91.46A4.649,4.649,0,0,0,16,28a11.045,11.045,0,0,1-4.84-3.78c.67-3.92,3.46-6.7,5.73-8.36L17,16v3.71a10.239,10.239,0,0,0,3.5,7.79C22.021,28.8,23.53,30.48,23.91,32.2Z" style="fill:#e7d9cc"/><path d="M23,31a1.31,1.31,0,0,1-.15.61A3.1,3.1,0,0,1,20,33a3.1,3.1,0,0,1-2.85-1.39A1.31,1.31,0,0,1,17,31a1.838,1.838,0,0,1,1.09-1.54A3.938,3.938,0,0,1,20,29C21.661,29,23,29.9,23,31Z" style="fill:#232c4d"/><path d="M16.631,31.64a1.519,1.519,0,0,1,.06.2A6.963,6.963,0,0,0,13,38a6.748,6.748,0,0,0,.18,1.57c-.04.02-.08.03-.12.05a5.813,5.813,0,0,1-5.83-1.01,6.221,6.221,0,0,1-1.86-2.72,6.363,6.363,0,0,1,1.46-6.61,2.591,2.591,0,0,0,2.7.3,2.714,2.714,0,0,0,1.89-2.03A6.04,6.04,0,0,1,16.631,31.64Z" style="fill:#495585"/><path d="M11.011,26.49a1.112,1.112,0,0,1,.35.5,1.327,1.327,0,0,1,.06.56,2.714,2.714,0,0,1-1.89,2.03,2.591,2.591,0,0,1-2.7-.3,1.084,1.084,0,0,1-.3-.46c-.33-.93.49-2.08,1.83-2.59A2.611,2.611,0,0,1,11.011,26.49Z" style="fill:#232c4d"/><path d="M32,50c12.752,0,23.358-2.466,25.569-5.732l.06-.448v-.01l.31-2.33C57.029,45.13,45.759,48,32,48S6.971,45.13,6.061,41.48l.31,2.33v.01l.062.45C8.647,47.536,19.251,50,32,50Z" style="fill:#631312"/><path d="M25.03,22.08a9.716,9.716,0,0,1-4.809-6.6,5.346,5.346,0,0,0,1.37,2.2A7.168,7.168,0,0,0,28,19.86l.31-.12a5,5,0,0,0,9.53-.5,3.775,3.775,0,0,0,3.05.71l.03.17A10.482,10.482,0,0,0,34,25l-.03.05a14.468,14.468,0,0,0-4.77-1.84h-.01c-.38-.08-.77-.15-1.19-.21A9.337,9.337,0,0,1,25.03,22.08Z" style="fill:#b89c88"/><path d="M38,37.6a6.994,6.994,0,0,1-12,0,6.83,6.83,0,0,1-.7-1.593A6.97,6.97,0,0,0,25,38a6.882,6.882,0,0,0,1,3.6,6.994,6.994,0,0,0,12,0A6.882,6.882,0,0,0,39,38a6.97,6.97,0,0,0-.3-1.993A6.83,6.83,0,0,1,38,37.6Z" style="fill:#3e5096"/><path d="M34.08,10.12A4.832,4.832,0,0,0,33,10h0l-3.76,3.76c.1.22.19.43.27.65A5.006,5.006,0,0,1,33,13a4.832,4.832,0,0,1,1.08.12,4.979,4.979,0,0,1,3.02,2.02l.18-.14a7.92,7.92,0,0,1,.535-1.3A4.911,4.911,0,0,0,37.1,12.14,4.979,4.979,0,0,0,34.08,10.12Z" style="fill:#586b0f"/><path d="M33,10a5.006,5.006,0,0,0-3.49,1.41,5.153,5.153,0,0,0-.921,1.283,9.019,9.019,0,0,1,.651,1.067Z" style="fill:#6d8513"/><path d="M34,20a4.985,4.985,0,0,1-5-4.981A4.993,4.993,0,1,0,37.84,19.24a1.136,1.136,0,0,0,.06-.25A4.619,4.619,0,0,0,38,18c0-.009,0-.018,0-.028A4.977,4.977,0,0,1,34,20Z" style="fill:#bd111f"/><path d="M43,38c0-2.018-2.26-4.033-3.741-5.137A6.993,6.993,0,0,0,38,34.4,7,7,0,0,1,39,38a6.882,6.882,0,0,1-1,3.6,6.978,6.978,0,0,0,12.571-1.255C45.946,43.877,43,40.574,43,38Z" style="fill:#313f73"/><path d="M24.739,32.864C23.258,33.969,21,35.982,21,38c0,2.574-2.946,5.877-7.571,2.345A6.978,6.978,0,0,0,26,41.6,6.882,6.882,0,0,1,25,38a7,7,0,0,1,1-3.6A6.774,6.774,0,0,0,24.739,32.864Z" style="fill:#313f73"/><path d="M53,34c0-2.252-2.818-3.941-4.223-4.643a6.265,6.265,0,0,0-1.408,2.283,1.519,1.519,0,0,0-.06.2A6.963,6.963,0,0,1,51,38a6.748,6.748,0,0,1-.18,1.57c.04.02.08.03.12.05a5.781,5.781,0,0,0,5.46-.73,6.088,6.088,0,0,0,2.23-3,6.338,6.338,0,0,0,.357-2.093C56.37,36,53,37.06,53,34Z" style="fill:#293561"/><path d="M15.227,29.355C13.824,30.056,11,31.745,11,34c0,3.06-3.37,2-5.986-.2a6.338,6.338,0,0,0,.357,2.093,6.221,6.221,0,0,0,1.86,2.72,5.813,5.813,0,0,0,5.83,1.01c.04-.02.08-.03.12-.05A6.748,6.748,0,0,1,13,38a6.963,6.963,0,0,1,3.69-6.16,1.519,1.519,0,0,0-.06-.2A6.279,6.279,0,0,0,15.227,29.355Z" style="fill:#293561"/><path d="M24.027,45.911q7.914-.242,15.832.067c2.854.112,5.93.219,8.307-1.364a20.955,20.955,0,0,1,3.047-2.182,14.41,14.41,0,0,1,3.265-.635A9.334,9.334,0,0,0,57.9,40.421,3.14,3.14,0,0,0,57,39.07l-.6-.18a5.781,5.781,0,0,1-5.46.73c-.04-.02-.08-.03-.12-.05A7,7,0,0,1,38,41.6a6.994,6.994,0,0,1-12,0,7,7,0,0,1-12.819-2.03c-.04.02-.08.03-.12.05a5.813,5.813,0,0,1-5.83-1.01l-.15.39c-.1.093-.185.19-.275.285,3.028,2.079,5.67,4.829,9.144,5.979C18.529,46.117,21.313,45.994,24.027,45.911Z" style="fill:#8d0513"/><path d="M53.5,48.927,51.4,56.94A7.927,7.927,0,0,1,48.806,61C53.243,59.727,56,57.959,56,56l1.24-9.33A10.2,10.2,0,0,1,53.5,48.927Z" style="fill:#fbe8c0"/><path d="M12.6,56.94l-2.1-8.013A10.2,10.2,0,0,1,6.761,46.67L8,56c0,1.959,2.756,3.727,7.193,5A7.927,7.927,0,0,1,12.6,56.94Z" style="fill:#fbe8c0"/><path d="M11.353,52.166a12.483,12.483,0,0,0,4.6,2.117c2.52.444,5.091-.483,7.644-.322,2.29.145,4.422,1.15,6.588,1.907s4.585,1.269,6.722.432c1.216-.476,2.238-1.355,3.439-1.868,3.291-1.406,7.254.148,10.592-1.144a9.647,9.647,0,0,0,1.635-.854l.918-3.507h0C48.823,50.78,40.947,52,32,52s-16.823-1.22-21.495-3.073h0Z" style="fill:#f7bf82"/><path d="M52.577,52.434A19.95,19.95,0,0,1,56.8,49.947l.436-3.277a5.365,5.365,0,0,1-.646.592c-.036.029-.082.056-.119.084a8.494,8.494,0,0,1-.733.5l-.07.039A15.29,15.29,0,0,1,53.5,48.927h0Z" style="fill:#f8d6a8"/><path d="M10.505,48.927h0a15.29,15.29,0,0,1-2.176-1.044l-.07-.039a8.494,8.494,0,0,1-.733-.5c-.037-.028-.083-.055-.119-.084a5.365,5.365,0,0,1-.646-.592l.4,2.991a28.22,28.22,0,0,1,4.194,2.5Z" style="fill:#f8d6a8"/><ellipse cx="33" cy="15.5" rx="1" ry="0.5" style="fill:#8d0513"/><path d="M18.091,29.46A1.838,1.838,0,0,0,17,31a1.31,1.31,0,0,0,.15.61,3.947,3.947,0,0,0-.46.23,1.519,1.519,0,0,0-.06-.2,6.04,6.04,0,0,0-5.21-4.09,1.327,1.327,0,0,0-.06-.56,1.112,1.112,0,0,0-.35-.5C11,26.33,11,26.17,11,26a9.355,9.355,0,0,1,.16-1.78A11.045,11.045,0,0,0,16,28,4.649,4.649,0,0,1,18.091,29.46Z" style="fill:#d9c3b1"/><path d="M52.929,25.07a10.377,10.377,0,0,1-.66,2.52,6.026,6.026,0,0,0-4.9,4.05,1.519,1.519,0,0,0-.06.2,3.947,3.947,0,0,0-.46-.23A1.31,1.31,0,0,0,47,31c0-.97-1.04-1.78-2.42-1.96-.24-.61-.17-1.04.42-1.04A12.077,12.077,0,0,0,52.929,25.07Z" style="fill:#d9c3b1"/><path d="M23.91,32.2c-.38-1.72-1.889-3.4-3.409-4.7A10.239,10.239,0,0,1,17,19.71V16l-.11-.14a17.379,17.379,0,0,0-3.121,2.923C13.225,20.756,13.229,23.337,16,25a10.9,10.9,0,0,1,4.057,4c1.633.021,2.943.909,2.943,2a1.31,1.31,0,0,1-.15.61A6.1,6.1,0,0,1,23.91,32.2Z" style="fill:#ebf0f3"/><path d="M16,25c-2.771-1.663-2.775-4.244-2.23-6.217a11.6,11.6,0,0,0-2.609,5.437A11.045,11.045,0,0,0,16,28a4.649,4.649,0,0,1,2.09,1.46A3.938,3.938,0,0,1,20,29c.019,0,.037,0,.056,0A10.9,10.9,0,0,0,16,25Z" style="fill:#e7d9cc"/><path d="M21,22a10.868,10.868,0,0,1-.091-4.464,11.672,11.672,0,0,1-.688-2.056v-.01a4.466,4.466,0,0,1-.21-1.22A2.008,2.008,0,0,1,20,14a18.6,18.6,0,0,0-3.11,1.86L17,16v3.71a10.239,10.239,0,0,0,3.5,7.79c1.52,1.3,3.029,2.98,3.409,4.7A6.864,6.864,0,0,1,26,34.4c.015-.025.035-.046.051-.071C26.722,26.022,21.974,25.894,21,22Z" style="fill:#eddfd4"/><path d="M29.37,30.04A5.315,5.315,0,0,0,28,27a12.577,12.577,0,0,1-2.97-4.92,9.007,9.007,0,0,1-4.121-4.544A10.868,10.868,0,0,0,21,22c.974,3.894,5.722,4.022,5.051,12.329a6.93,6.93,0,0,1,3.1-2.719A1.31,1.31,0,0,1,29,31,1.516,1.516,0,0,1,29.37,30.04Z" style="fill:#ebf0f3"/><path d="M29.167,26.187a8.537,8.537,0,0,1-2.8-1.258A11.7,11.7,0,0,0,28,27a5.315,5.315,0,0,1,1.37,3.04,3.252,3.252,0,0,1,2.2-1,14.808,14.808,0,0,0-.843-1.818A2.053,2.053,0,0,0,29.167,26.187Z" style="fill:#d9c3b1"/><path d="M32.72,29.06a15.919,15.919,0,0,0-3.52-5.85h-.01c-.38-.08-.77-.15-1.19-.21a9.337,9.337,0,0,1-2.97-.92,12.552,12.552,0,0,0,1.341,2.849,8.537,8.537,0,0,0,2.8,1.258,2.053,2.053,0,0,1,1.558,1.035,14.808,14.808,0,0,1,.843,1.818A4.331,4.331,0,0,1,32,29,4.2,4.2,0,0,1,32.72,29.06Z" style="fill:#e7d9cc"/><path d="M31.578,26.44a11.686,11.686,0,0,1,1.142,2.62c1.31.21,2.28,1,2.28,1.94a1.31,1.31,0,0,1-.15.61,6.693,6.693,0,0,1,1.69,1.06A7.842,7.842,0,0,0,37,30a5.473,5.473,0,0,0-.714-2.693A2.635,2.635,0,0,0,35,27,10.328,10.328,0,0,1,31.578,26.44Z" style="fill:#ebc7ae"/><path d="M34.9,25.69a10.7,10.7,0,0,0-.93-.64,14.468,14.468,0,0,0-4.77-1.84,18.69,18.69,0,0,1,2.378,3.23A10.328,10.328,0,0,0,35,27a2.635,2.635,0,0,1,1.286.307A5.371,5.371,0,0,0,34.9,25.69Z" style="fill:#ebf0f3"/><path d="M49.075,16.214C49.018,18.879,48.385,23,45,23c-5,0-5,2-7,3-1.576.788-2.529-1.524-2.863-2.541A9.843,9.843,0,0,0,34,25l-.03.05a10.7,10.7,0,0,1,.93.64A5.439,5.439,0,0,1,37,30a7.842,7.842,0,0,1-.46,2.67A7.105,7.105,0,0,1,38,34.4a6.945,6.945,0,0,1,3.15-2.79,1.314,1.314,0,0,1-.01-1.2V30.4C39.88,28.29,40.3,25,44,25c5.43,0,5.95-6.56,5.99-7.8v-.01C49.67,16.823,49.361,16.5,49.075,16.214Z" style="fill:#d9c3b1"/><path d="M38,26c2-1,2-3,7-3,3.385,0,4.018-4.121,4.075-6.786A15.606,15.606,0,0,0,47.719,15s.31,5-5.28,5a9.259,9.259,0,0,0-1.519.12,9.942,9.942,0,0,0-5.783,3.339C35.471,24.476,36.424,26.788,38,26Z" style="fill:#ebf0f3"/><path d="M46,26c1.536,0,4.834-1.77,6.738-3.949A12.381,12.381,0,0,0,49.989,17.2c-.038,1.176-.516,7.131-5.2,7.739A1.128,1.128,0,0,0,46,26Z" style="fill:#ebf0f3"/><path d="M46,26a1.128,1.128,0,0,1-1.213-1.061A5.982,5.982,0,0,1,44,25c-3.7,0-4.119,3.29-2.859,5.4A3.118,3.118,0,0,1,44,29a3.685,3.685,0,0,1,.58.04c-.24-.61-.17-1.04.42-1.04a12.077,12.077,0,0,0,7.93-2.93v-.01A7.451,7.451,0,0,0,53,24a7.647,7.647,0,0,0-.261-1.949C50.834,24.23,47.536,26,46,26Z" style="fill:#e7d9cc"/><path d="M32.807,34.358c-.423.16-.869.483-.8.889.056.331.423.53.724.728a3.6,3.6,0,0,1,.987.952,4.967,4.967,0,0,0,.529.738,1.024,1.024,0,0,0,.864.324,1.1,1.1,0,0,0,.77-.938A6.485,6.485,0,0,0,36,35.6C35.991,33.75,34.4,33.759,32.807,34.358Z" style="fill:#b0c2ff"/><path d="M18.193,34.358c.423.16.869.483.8.889-.056.331-.423.53-.724.728a3.6,3.6,0,0,0-.987.952,4.967,4.967,0,0,1-.529.738,1.024,1.024,0,0,1-.864.324,1.1,1.1,0,0,1-.77-.938A6.485,6.485,0,0,1,15,35.6C15.009,33.75,16.6,33.759,18.193,34.358Z" style="fill:#b0c2ff"/><path d="M45.807,34.358c-.423.16-.869.483-.8.889.056.331.423.53.724.728a3.6,3.6,0,0,1,.987.952,4.967,4.967,0,0,0,.529.738,1.024,1.024,0,0,0,.864.324,1.1,1.1,0,0,0,.77-.938A6.485,6.485,0,0,0,49,35.6C48.991,33.75,47.4,33.759,45.807,34.358Z" style="fill:#b0c2ff"/><ellipse cx="51.121" cy="51.75" rx="0.574" ry="0.413" transform="translate(-21.62 51.28) rotate(-44.98)" style="fill:#d98c56"/><ellipse cx="54.121" cy="50.75" rx="0.574" ry="0.413" transform="translate(-20.035 53.108) rotate(-44.98)" style="fill:#f7bf82"/><ellipse cx="33.121" cy="60.75" rx="0.574" ry="0.413" transform="translate(-33.249 41.191) rotate(-44.98)" style="fill:#f8cb8d"/><ellipse cx="10.121" cy="52.75" rx="0.574" ry="0.413" transform="translate(-34.325 22.591) rotate(-44.98)" style="fill:#f8d6a8"/><ellipse cx="53.121" cy="53.75" rx="0.413" ry="0.574" style="fill:#f8d6a8"/><ellipse cx="29.121" cy="52.75" rx="0.413" ry="0.574" style="fill:#d98c56"/><ellipse cx="41.121" cy="59.75" rx="0.413" ry="0.574" style="fill:#f8cb8d"/><ellipse cx="34.121" cy="58.75" rx="0.413" ry="0.574" transform="translate(-31.543 41.312) rotate(-44.98)" style="fill:#f8cb8d"/><ellipse cx="42.121" cy="54.75" rx="0.413" ry="0.574" transform="translate(-26.374 45.796) rotate(-44.98)" style="fill:#f8cb8d"/><ellipse cx="55.121" cy="49.75" rx="0.413" ry="0.574" transform="translate(-19.035 53.522) rotate(-44.98)" style="fill:#f7bf82"/><ellipse cx="55.121" cy="55.75" rx="0.413" ry="0.574" style="fill:#f8d6a8"/><ellipse cx="10.121" cy="55.75" rx="0.413" ry="0.574" style="fill:#f8d6a8"/><ellipse cx="8.121" cy="51.75" rx="0.413" ry="0.574" style="fill:#f8d6a8"/><ellipse cx="14.375" cy="57.25" rx="0.825" ry="1.148" transform="translate(-36.282 26.95) rotate(-45.02)" style="fill:#f8cb8d"/><ellipse cx="29.375" cy="59.25" rx="0.825" ry="1.148" style="fill:#f8cb8d"/><ellipse cx="19.375" cy="56.25" rx="0.825" ry="1.148" style="fill:#f8cb8d"/><ellipse cx="39.375" cy="58.25" rx="0.825" ry="1.148" style="fill:#f8cb8d"/><ellipse cx="36.375" cy="61.25" rx="0.825" ry="1.148" style="fill:#f8cb8d"/><ellipse cx="25.375" cy="56.25" rx="0.825" ry="1.148" style="fill:#f8cb8d"/><ellipse cx="36.121" cy="53.75" rx="0.574" ry="0.413" transform="translate(-27.423 41.263) rotate(-44.98)" style="fill:#d98c56"/><ellipse cx="22.121" cy="52.75" rx="0.574" ry="0.413" transform="translate(-30.814 31.074) rotate(-44.98)" style="fill:#d98c56"/><ellipse cx="32.121" cy="53.75" rx="0.574" ry="0.413" transform="translate(-28.594 38.435) rotate(-44.98)" style="fill:#d98c56"/><ellipse cx="22.121" cy="52.75" rx="0.574" ry="0.413" transform="translate(-30.814 31.074) rotate(-44.98)" style="fill:#d98c56"/><ellipse cx="42.121" cy="52.75" rx="0.574" ry="0.413" transform="translate(-24.961 45.211) rotate(-44.98)" style="fill:#d98c56"/><ellipse cx="49.121" cy="52.75" rx="0.574" ry="0.413" transform="translate(-22.912 50.159) rotate(-44.98)" style="fill:#d98c56"/><ellipse cx="50.121" cy="57.75" rx="0.413" ry="0.574" style="fill:#f8cb8d"/><ellipse cx="53.121" cy="55.75" rx="0.413" ry="0.574" style="fill:#f8d6a8"/><ellipse cx="47.121" cy="59.75" rx="0.413" ry="0.574" style="fill:#f8cb8d"/><ellipse cx="23.121" cy="55.75" rx="0.413" ry="0.574" style="fill:#f8cb8d"/><ellipse cx="17.121" cy="58.75" rx="0.413" ry="0.574" style="fill:#f8cb8d"/><ellipse cx="27.121" cy="59.75" rx="0.413" ry="0.574" style="fill:#f8cb8d"/><ellipse cx="24.121" cy="60.75" rx="0.413" ry="0.574" style="fill:#f8cb8d"/><ellipse cx="39.121" cy="52.75" rx="0.413" ry="0.574" style="fill:#d98c56"/><ellipse cx="15.121" cy="54.75" rx="0.413" ry="0.574" transform="translate(-34.276 26.711) rotate(-44.98)" style="fill:#f8cb8d"/><ellipse cx="25.121" cy="52.75" rx="0.413" ry="0.574" style="fill:#d98c56"/><ellipse cx="30.121" cy="54.75" rx="0.413" ry="0.574" style="fill:#d98c56"/><ellipse cx="20.121" cy="51.75" rx="0.574" ry="0.413" transform="translate(-30.692 29.367) rotate(-44.98)" style="fill:#d98c56"/><ellipse cx="18.121" cy="52.75" rx="0.413" ry="0.574" style="fill:#d98c56"/><ellipse cx="12.121" cy="50.75" rx="0.574" ry="0.413" transform="translate(-32.326 23.42) rotate(-44.98)" style="fill:#d98c56"/><ellipse cx="9.121" cy="49.75" rx="0.413" ry="0.574" style="fill:#f7bf82"/><ellipse cx="34.375" cy="55.25" rx="0.825" ry="1.148" transform="translate(-29.005 40.511) rotate(-45.02)" style="fill:#d98c56"/><ellipse cx="14.375" cy="52.25" rx="0.825" ry="1.148" transform="translate(-32.745 25.485) rotate(-45.02)" style="fill:#d98c56"/><ellipse cx="45.375" cy="52.25" rx="0.825" ry="1.148" transform="translate(-23.658 47.412) rotate(-45.02)" style="fill:#d98c56"/><ellipse cx="44.375" cy="58.25" rx="1.719" ry="1.235" transform="translate(-28.188 48.414) rotate(-44.98)" style="fill:#f8cb8d"/><ellipse cx="21.375" cy="58.25" rx="0.825" ry="1.148" style="fill:#f8cb8d"/><ellipse cx="48.375" cy="55.25" rx="0.825" ry="1.148" style="fill:#f8cb8d"/><path d="M34.6,15.358a.949.949,0,0,0-.6.889,1.258,1.258,0,0,0,.543.728,3.244,3.244,0,0,1,.74.952,5.358,5.358,0,0,0,.4.738.678.678,0,0,0,.648.324c.339-.081.51-.533.578-.938A8.6,8.6,0,0,0,37,16.605C36.993,14.75,35.8,14.759,34.6,15.358Z" style="fill:#ff918a"/><path d="M34.85,31.61a7,7,0,1,1-5.7,0" style="fill:none;stroke:#000;stroke-linejoin:round;stroke-width:2px"/><ellipse cx="32" cy="31" rx="3" ry="2" style="fill:none;stroke:#000;stroke-linejoin:round;stroke-width:2px"/><path d="M41.15,31.61A6.945,6.945,0,0,0,38,34.4" style="fill:none;stroke:#000;stroke-linejoin:round;stroke-width:2px"/><path d="M46.85,31.61a3.947,3.947,0,0,1,.46.23A6.963,6.963,0,0,1,51,38a6.748,6.748,0,0,1-.18,1.57A7,7,0,0,1,38,41.6" style="fill:none;stroke:#000;stroke-linejoin:round;stroke-width:2px"/><ellipse cx="44" cy="31" rx="3" ry="2" style="fill:none;stroke:#000;stroke-linejoin:round;stroke-width:2px"/><path d="M47.31,31.84a1.519,1.519,0,0,1,.06-.2,6.04,6.04,0,0,1,5.21-4.09" style="fill:none;stroke:#000;stroke-linejoin:round;stroke-width:2px"/><path d="M57.17,29.28a6.363,6.363,0,0,1,1.46,6.61,5.933,5.933,0,0,1-7.69,3.73c-.04-.02-.08-.03-.12-.05" style="fill:none;stroke:#000;stroke-linejoin:round;stroke-width:2px"/><ellipse cx="55.056" cy="27.906" rx="1.773" ry="2.582" transform="translate(8.647 68.602) rotate(-68.126)" style="fill:none;stroke:#000;stroke-linejoin:round;stroke-width:2px"/><path d="M11.42,27.55a6.04,6.04,0,0,1,5.21,4.09,1.519,1.519,0,0,1,.06.2" style="fill:none;stroke:#000;stroke-linejoin:round;stroke-width:2px"/><path d="M6.83,29.28a6.363,6.363,0,0,0-1.46,6.61,5.933,5.933,0,0,0,7.69,3.73c.04-.02.08-.03.12-.05" style="fill:none;stroke:#000;stroke-linejoin:round;stroke-width:2px"/><ellipse cx="8.944" cy="27.906" rx="2.582" ry="1.773" transform="translate(-9.753 5.341) rotate(-21.874)" style="fill:none;stroke:#000;stroke-linejoin:round;stroke-width:2px"/><path d="M26,41.6a7,7,0,0,1-12.82-2.03A6.748,6.748,0,0,1,13,38a6.963,6.963,0,0,1,3.69-6.16,3.947,3.947,0,0,1,.46-.23" style="fill:none;stroke:#000;stroke-linejoin:round;stroke-width:2px"/><path d="M26,34.4a6.945,6.945,0,0,0-3.15-2.79" style="fill:none;stroke:#000;stroke-linejoin:round;stroke-width:2px"/><ellipse cx="20" cy="31" rx="3" ry="2" style="fill:none;stroke:#000;stroke-linejoin:round;stroke-width:2px"/><circle cx="33" cy="18" r="5" style="fill:none;stroke:#000;stroke-linejoin:round;stroke-width:2px"/><path d="M33,16s1-5,4-5" style="fill:none;stroke:#000;stroke-linejoin:round;stroke-width:2px"/><path d="M17,16v3.71a10.239,10.239,0,0,0,3.5,7.79c1.52,1.3,3.03,2.98,3.41,4.7" style="fill:none;stroke:#000;stroke-linejoin:round;stroke-width:2px"/><path d="M11.17,27.66v-.01A7.812,7.812,0,0,1,11,26a9.355,9.355,0,0,1,.16-1.78C12.33,17.36,20,14,20,14a2.008,2.008,0,0,0,.01.25,10.071,10.071,0,0,0,.21,1.22v.01a9.715,9.715,0,0,0,4.81,6.6A9.337,9.337,0,0,0,28,23c.42.06.81.13,1.19.21h.01a13.789,13.789,0,0,1,5.7,2.48A5.439,5.439,0,0,1,37,30a7.842,7.842,0,0,1-.46,2.67" style="fill:none;stroke:#000;stroke-linejoin:round;stroke-width:2px"/><path d="M34,25s2.75-5,8.44-5c5.59,0,5.28-5,5.28-5a17.057,17.057,0,0,1,2.27,2.19v.01A10.794,10.794,0,0,1,53,24a7.451,7.451,0,0,1-.07,1.06v.01a10.862,10.862,0,0,1-1.15,3.6" style="fill:none;stroke:#000;stroke-linejoin:round;stroke-width:2px"/><path d="M41.14,30.41V30.4C39.88,28.29,40.3,25,44,25c5.43,0,5.95-6.56,5.99-7.8v-.01C50,17.07,50,17,50,17" style="fill:none;stroke:#000;stroke-linejoin:round;stroke-width:2px"/><path d="M53,25s-.02.02-.07.06v.01A11.835,11.835,0,0,1,48,27.629" style="fill:none;stroke:#000;stroke-linejoin:round;stroke-width:2px"/><path d="M25,22s.01.03.03.08A12.577,12.577,0,0,0,28,27a5.315,5.315,0,0,1,1.37,3.04v.01" style="fill:none;stroke:#000;stroke-linejoin:round;stroke-width:2px"/><path d="M11,24s.05.08.16.22A11.888,11.888,0,0,0,15,27.578" style="fill:none;stroke:#000;stroke-linejoin:round;stroke-width:2px"/><path d="M28.153,12c-.56-2.448.407-6.087,3.1-8.778a6.708,6.708,0,0,1,9.238-.711C41.811,3.833,42.668,7.633,40,11" style="fill:none;stroke:#000;stroke-linejoin:round;stroke-width:2px"/><line x1="40.489" y1="2.511" x2="29.119" y2="13.881" style="fill:none;stroke:#000;stroke-linejoin:round;stroke-width:2px"/><path d="M28,19.855a7.158,7.158,0,0,1-6.413-2.177,4.793,4.793,0,0,1-.508-6.6,4.793,4.793,0,0,1,6.6.508A8.12,8.12,0,0,1,29.721,15" style="fill:none;stroke:#000;stroke-linejoin:round;stroke-width:2px"/><line x1="21.079" y1="11.079" x2="28.002" y2="18.002" style="fill:none;stroke:#000;stroke-linejoin:round;stroke-width:2px"/><path d="M37.8,19.2c1.4,1.4,5.091,1,7.614-1.523a4.793,4.793,0,0,0,.508-6.6,4.793,4.793,0,0,0-6.6.508A8.108,8.108,0,0,0,37.279,15" style="fill:none;stroke:#000;stroke-linejoin:round;stroke-width:2px"/><line x1="45.921" y1="11.079" x2="38" y2="19" style="fill:none;stroke:#000;stroke-linejoin:round;stroke-width:2px"/><path d="M7.077,39A2.763,2.763,0,0,0,6,41a1.969,1.969,0,0,0,.061.456L8,56c0,3.866,10.745,7,24,7s24-3.134,24-7l1.939-14.544A1.969,1.969,0,0,0,58,41" style="fill:none;stroke:#000;stroke-linejoin:round;stroke-width:2px"/><path d="M50,46.051A75.07,75.07,0,0,1,32,48C17.641,48,6,44.866,6,41a2.763,2.763,0,0,1,1.077-2" style="fill:none;stroke:#000;stroke-linejoin:round;stroke-width:2px"/><path d="M57,39.069A2.7,2.7,0,0,1,58,41c0,1.7-2.253,3.26-6,4.473" style="fill:none;stroke:#000;stroke-linejoin:round;stroke-width:2px"/><line x1="57.63" y1="43.82" x2="57.63" y2="43.81" style="fill:none;stroke:#000;stroke-linejoin:round;stroke-width:2px"/><line x1="6.37" y1="43.82" x2="6.37" y2="43.81" style="fill:none;stroke:#000;stroke-linejoin:round;stroke-width:2px"/><path d="M13,49.777c-2.984-.861-5.17-1.925-6.24-3.107" style="fill:none;stroke:#000;stroke-linejoin:round;stroke-width:2px"/><path d="M17,50.718q-1.041-.2-2-.423" style="fill:none;stroke:#000;stroke-linejoin:round;stroke-width:2px"/><path d="M57.25,46.66l-.01.01C54.47,49.73,44.22,52,32,52a85.681,85.681,0,0,1-13-.937" style="fill:none;stroke:#000;stroke-linejoin:round;stroke-width:2px"/></g></svg>