<svg xmlns="http://www.w3.org/2000/svg" viewBox="0 0 64 64"><g id="_05-strawberry_cupcake" data-name="05-strawberry cupcake"><path d="M28,41V62.89a29.576,29.576,0,0,1-5.05-.66L23,62,20,40l5-1Z" style="fill:#d07232"/><path d="M44,40,41,62l.05.23a29.576,29.576,0,0,1-5.05.66V41l3-2Z" style="fill:#d07232"/><path d="M20,40l3,22-.05.23C20.27,61.63,18.53,60.6,18,59L12,36l2,2h4Z" style="fill:#ffa359"/><path d="M36,41V62.89c-1.25.08-2.58.11-4,.11s-2.75-.03-4-.11V41l4-1Z" style="fill:#f09954"/><path d="M52,36,46,59c-.53,1.6-2.27,2.63-4.95,3.23L41,62l3-22,2-2h4Z" style="fill:#ffa359"/><path d="M52,34v2l-2,2H46l-2,2-5-1-3,2-4-1-4,1-3-2-5,1-2-2H14l-2-2V34l2-2h1.49a10,10,0,0,0,1.7,1.95A15.819,15.819,0,0,0,28,38H41a2.006,2.006,0,0,0,2-2c3-.02,4-1,4-1l2.55-1.45a.988.988,0,0,0,.28-1.38L49.71,32H50Z" style="fill:#fddf9f"/><path d="M15.49,32A8.74,8.74,0,0,1,14,27V25c0-3.87,3.13-11,7-11l.06-.01a7.929,7.929,0,0,0,.98,2.99L22,17c-4,0-4,5-4,5,0,13,15,16,15,16H28a15.819,15.819,0,0,1-10.81-4.05A10,10,0,0,1,15.49,32Z" style="fill:#f9a3b0"/><path d="M42,32c5.09,0,5,3,5,3s-1,.98-4,1h-.08c-2.87,0-12.9-3.51-18.35-8.07a7.462,7.462,0,0,1-2.13-2.82c-.69-1.63-.5-3.91,2.56-5.11l.02-.04a7.726,7.726,0,0,0,2,.79L27,21c0,3.23,1.74,5.22,4.57,6.85C34.94,29.79,39.14,32,42,32Z" style="fill:#f9a3b0"/><path d="M48,27.74v1.91a17.4,17.4,0,0,0-6.15-4.7l-9.87-4.51a8,8,0,0,0,3.18-2.29,7.363,7.363,0,0,0,2.84.82V19a8.143,8.143,0,0,0,5.12,2.85A6.011,6.011,0,0,1,48,27.74Z" style="fill:#f9a3b0"/><path d="M47,23.04V24l-.2.15a5.959,5.959,0,0,0-3.68-2.3A8.143,8.143,0,0,1,38,19v-.03a7.451,7.451,0,0,0,5.88-2.1L44,17C45.84,18.66,47,20.37,47,23.04Z" style="fill:#ff809f"/><path d="M42.92,36H43a2.006,2.006,0,0,1-2,2H33S18,35,18,22c0,0,0-5,4-5l.04-.02a7.757,7.757,0,0,0,2.98,2.98L25,20c-3.06,1.2-3.25,3.48-2.56,5.11a7.462,7.462,0,0,0,2.13,2.82C30.02,32.49,40.05,36,42.92,36Z" style="fill:#ffdee0"/><path d="M49.71,32l.12.17a.988.988,0,0,1-.28,1.38L47,35s.09-3-5-3c-2.86,0-7.06-2.21-10.43-4.15C28.74,26.22,27,24.23,27,21l.02-.25a7.966,7.966,0,0,0,3.96,0,6.816,6.816,0,0,0,1-.31l9.87,4.51A17.4,17.4,0,0,1,48,29.65a15.924,15.924,0,0,1,1.06,1.39Z" style="fill:#ffd7da"/><path d="M42.67,7.33a1.02,1.02,0,0,1,.05,1.39l-6.27,7.24A8.239,8.239,0,0,0,37,13a6.045,6.045,0,0,0-.29-1.76l4.57-3.96a1.018,1.018,0,0,1,1.39.05Z" style="fill:#e02d3c"/><path d="M46.71,3.29c.67.68.35,10.42-2.69,13.46a.806.806,0,0,1-.14.12A7.451,7.451,0,0,1,38,18.97a7.363,7.363,0,0,1-2.84-.82,7.919,7.919,0,0,0,1.28-2.18l.01-.01,6.27-7.24a1.021,1.021,0,0,0-1.44-1.44l-4.57,3.96a19.2,19.2,0,0,0-3.07-5.6C37.05,2.92,46.06,2.65,46.71,3.29Z" style="fill:#bd111f"/><path d="M31.98,20.44a6.816,6.816,0,0,1-1,.31L30.07,8a1.072,1.072,0,0,0-2.14,0l-.91,12.75a7.849,7.849,0,0,1-4.98-3.77A8.117,8.117,0,0,1,21,13c0-4.52,7-12,8-12,.52,0,2.69,2.05,4.64,4.64a19.2,19.2,0,0,1,3.07,5.6A6.045,6.045,0,0,1,37,13a8.239,8.239,0,0,1-.55,2.96l-.01.01a7.817,7.817,0,0,1-4.46,4.47Z" style="fill:#de3c31"/><path d="M30.07,8l.91,12.75a7.966,7.966,0,0,1-3.96,0L27.93,8a1.072,1.072,0,0,1,2.14,0Z" style="fill:#ffcabf"/><path d="M29,20a6.76,6.76,0,0,1-1.907-.27l-.073,1.02a7.966,7.966,0,0,0,3.96,0l-.073-1.02A6.76,6.76,0,0,1,29,20Z" style="fill:#ff947a"/><path d="M29,7a1.079,1.079,0,0,1,1.07,1l.837,11.73A5.7,5.7,0,0,0,35,13.882C35,9.984,30,4,29,4s-6,5.984-6,9.882a5.7,5.7,0,0,0,4.093,5.848L27.93,8A1.079,1.079,0,0,1,29,7Z" style="fill:#ff947a"/><path d="M46.71,3.29c-.65-.64-9.66-.37-13.07,2.35.33.443.654.9.962,1.367,3.525-1.926,9.5-2.367,10.13-1.739.736.737.012,8.825-2.859,11.7a6.526,6.526,0,0,1-3.921,2c.016,0,.032.005.048.006a7.451,7.451,0,0,0,5.88-2.1.806.806,0,0,0,.14-.12C47.06,13.71,47.38,3.97,46.71,3.29Z" style="fill:#8d0513"/><path d="M50,34.5a4.453,4.453,0,0,0-.186-1.211.965.965,0,0,1-.264.261L47,35s-1,.98-4,1a2.006,2.006,0,0,1-2,2H28a15.819,15.819,0,0,1-10.81-4.05A10,10,0,0,1,15.49,32h-.73a4.465,4.465,0,0,0,.943,6H18l1,1H45l1-1h2.3A4.475,4.475,0,0,0,50,34.5Z" style="fill:#fda36f"/><path d="M25.039,39.026l.912,23.692c.654.07,1.33.131,2.049.172V41Z" style="fill:#b8652c"/><path d="M36,41V62.89c.719-.041,1.4-.1,2.049-.172l.912-23.692Z" style="fill:#b8652c"/><path d="M20,40l-2-2,3.829,23.931c.355.109.724.21,1.121.3L23,62Z" style="fill:#ff8e35"/><path d="M28,41V62.89c1.25.08,2.58.11,4,.11V40Z" style="fill:#ed8431"/><path d="M44,40,41,62l.05.23c.4-.089.766-.19,1.121-.3L46,38Z" style="fill:#ff8e35"/><path d="M18,22s0-5,4-5l.04-.02a7.931,7.931,0,0,1-.751-1.853c-1.24.35-3.81,1.695-5.289,6.873-1.648,5.769,0,9,6,13a28.223,28.223,0,0,0,5.7,2.985c.1,0,.194.015.3.015h5S18,35,18,22Z" style="fill:#f98194"/><path d="M42.92,36c-2.87,0-12.9-3.51-18.35-8.07a7.462,7.462,0,0,1-2.13-2.82c-.69-1.63-.5-3.91,2.56-5.11l.02-.04a7.757,7.757,0,0,1-2.98-2.98L22,17a3.675,3.675,0,0,0-1.638.362l.719.719a1.02,1.02,0,0,1-.03,1.49c-.779.66-1.662,1.985-1.051,4.429.929,3.715,5.307,9.154,12.335,10.712a1,1,0,0,1,.157,1.911A6.963,6.963,0,0,1,30,37h-.237A22.25,22.25,0,0,0,33,38h8a2.006,2.006,0,0,0,2-2Z" style="fill:#ffbac0"/><path d="M42,32c-2.86,0-7.06-2.21-10.43-4.15C28.74,26.22,27,24.23,27,21l.02-.25a7.726,7.726,0,0,1-2-.79L25,20a4.333,4.333,0,0,0-2.66,2.335l1.667.417a2.008,2.008,0,0,1,1.34,1.123c1.073,2.352,4.921,8.662,15.478,9.1a1,1,0,0,1,.858,1.4,2.647,2.647,0,0,1-1.122,1.252A11.079,11.079,0,0,0,42.92,36H43c3-.02,4-1,4-1S47.09,32,42,32Z" style="fill:#f98194"/><path d="M49.83,32.17,49.71,32l-.65-.96A15.924,15.924,0,0,0,48,29.65a17.4,17.4,0,0,0-6.15-4.7l-9.87-4.51a6.816,6.816,0,0,1-1,.31,7.966,7.966,0,0,1-3.96,0L27,21a6.881,6.881,0,0,0,.736,3.217,7.143,7.143,0,0,0,3.424-.423,2.988,2.988,0,0,1,2.54-.081C36.772,25.039,43.274,28.019,47,31c1.3,1.036.7,1.734-.872,2.2A2.558,2.558,0,0,1,47,35l2.55-1.45A.988.988,0,0,0,49.83,32.17Z" style="fill:#ffbac0"/><path d="M48,27c-.018-.027-.048-.054-.068-.082A5.893,5.893,0,0,1,48,27.74Z" style="fill:#f98194"/><path d="M47.932,26.918C46.718,25.2,43.276,23.5,40.57,22.362a1,1,0,0,1-.4-1.534A6.628,6.628,0,0,1,38,19v-.03a7.363,7.363,0,0,1-2.84-.82,8,8,0,0,1-3.18,2.29l9.87,4.51A17.4,17.4,0,0,1,48,29.65V27.74A5.893,5.893,0,0,0,47.932,26.918Z" style="fill:#f98194"/><path d="M44.3,18.977c.406-.205.765-.407,1.051-.575A12.687,12.687,0,0,0,44,17l-.12-.13A7.451,7.451,0,0,1,38,18.97V19a8.143,8.143,0,0,0,5.12,2.85,5.959,5.959,0,0,1,3.68,2.3L47,24v-.96a8.1,8.1,0,0,0-.092-1.175,13.59,13.59,0,0,0-2.459-1.048A1,1,0,0,1,44.3,18.977Z" style="fill:#ea456d"/><path d="M34.545,25.775a2.02,2.02,0,0,0-1.437-.8,1.408,1.408,0,0,0-.659.124c-1.321.691.412,2.1.991,2.533,2.455,1.837,6.109,3.229,9.224,2.766.274-.04.595-.155.647-.427.045-.241-.156-.455-.352-.6-1.414-1.06-3.378-1.029-4.992-1.61a12.652,12.652,0,0,1-2.807-1.448A4.524,4.524,0,0,1,34.545,25.775Z" style="fill:#ffebec"/><path d="M24.936,32.487c-.233-.1-.541-.181-.706.009a.521.521,0,0,0,.025.582A3.051,3.051,0,0,0,25.464,34.1a8.631,8.631,0,0,0,3.706,1.372c.415.023,1.072-.131.923-.684-.119-.44-.749-.455-1.1-.592C27.631,33.663,26.288,33.058,24.936,32.487Z" style="fill:#ffebec"/><path d="M40.653,26.147c-.316.245.166.514.44.649l3.386,1.658a7.669,7.669,0,0,0,1.134.481c.352.107.538-.037.381-.345a2.76,2.76,0,0,0-.613-.617,8.082,8.082,0,0,0-2.949-1.682,3.071,3.071,0,0,0-1.216-.316,1.18,1.18,0,0,0-.44.1A.7.7,0,0,0,40.653,26.147Z" style="fill:#ffd7da"/><path d="M33.682,35.142c-.312.313-.151.862.139,1.2a3.584,3.584,0,0,0,2.227,1,11.46,11.46,0,0,0,2.9.066c.251-.026.542-.089.647-.319.629-1.31-3.226-1.656-3.786-1.758C35.216,35.215,34.206,34.614,33.682,35.142Z" style="fill:#ffdee0"/><path d="M21.12,20.582a1.36,1.36,0,0,0-.475.564,2.793,2.793,0,0,0-.3,1.181.954.954,0,0,0,.238.754.389.389,0,0,0,.243.107.53.53,0,0,0,.369-.206c.37-.395.608-.9,1-1.274A2.3,2.3,0,0,0,22.5,21.4a.463.463,0,0,0,.087-.415C22.409,20.482,21.517,20.341,21.12,20.582Z" style="fill:#ffdee0"/><path d="M16.9,29.337a2.642,2.642,0,0,0,1.958,1.335.47.47,0,0,0,.387-.092.417.417,0,0,0,.1-.228c.109-.672-.435-1.248-.741-1.857-.263-.522-.614-3.479-1.707-2.676C15.968,26.5,16.432,28.527,16.9,29.337Z" style="fill:#f96e84"/><path d="M20.158,31.031a1.22,1.22,0,0,0-.825-.091.612.612,0,0,0-.447.636.951.951,0,0,0,.386.52,5.915,5.915,0,0,0,2.014,1.255c.224.067.528.075.626-.138a.522.522,0,0,0-.106-.475A3.934,3.934,0,0,0,20.158,31.031Z" style="fill:#f96e84"/><path d="M41.879,12.247a5.378,5.378,0,0,0-.417,1.051,5.832,5.832,0,0,1-1.6,2.4c-.19.17-.409.364-.407.619a.637.637,0,0,0,.54.54,2.041,2.041,0,0,0,1.653-.588,5.112,5.112,0,0,0,1.968-3.343,1.44,1.44,0,0,0-.148-.907C43.04,11.337,42.213,11.707,41.879,12.247Z" style="fill:#ff4d5b"/><path d="M25.281,17.21a.959.959,0,0,0,.872-.113.845.845,0,0,0,.142-.92,6.609,6.609,0,0,0-.5-.857,2.635,2.635,0,0,1-.335-1.229c-.008-.36.043-.769-.2-1.035a1.039,1.039,0,0,0-1.536.147,2.021,2.021,0,0,0-.475,1.259A2.865,2.865,0,0,0,25.281,17.21Z" style="fill:#ffe1db"/><path d="M38.833,26.5l-.254.5h-.392a.183.183,0,0,0-.132.312l.313.307-.114.563a.185.185,0,0,0,.294.181L39,28.031l.452.332a.185.185,0,0,0,.294-.181l-.114-.563.313-.307A.183.183,0,0,0,39.813,27h-.392l-.254-.5A.188.188,0,0,0,38.833,26.5Z" style="fill:#ea456d"/><path d="M31.083,22.694l-.513.167-.268-.268a.176.176,0,0,0-.3.123l0,.423-.462.3a.18.18,0,0,0,.077.325l.535.082.081.534a.179.179,0,0,0,.325.077l.3-.462.423,0a.175.175,0,0,0,.123-.3l-.267-.267.166-.513A.182.182,0,0,0,31.083,22.694Z" style="fill:#ea456d"/><path d="M23.833,29.5l-.254.5h-.392a.183.183,0,0,0-.132.312l.313.307-.114.563a.185.185,0,0,0,.294.181L24,31.031l.452.332a.185.185,0,0,0,.294-.181l-.114-.563.313-.307A.183.183,0,0,0,24.813,30h-.392l-.254-.5A.188.188,0,0,0,23.833,29.5Z" style="fill:#ea456d"/><path d="M36.917,23.752,36.79,24h-.2a.091.091,0,0,0-.066.155l.156.153-.057.281a.093.093,0,0,0,.147.091L37,24.514l.225.166a.093.093,0,0,0,.147-.091l-.057-.281.156-.153A.091.091,0,0,0,37.405,24h-.2l-.127-.248A.093.093,0,0,0,36.917,23.752Z" style="fill:#ea456d"/><path d="M20.917,26.752,20.79,27h-.2a.091.091,0,0,0-.066.155l.156.153-.057.281a.093.093,0,0,0,.147.091L21,27.514l.225.166a.093.093,0,0,0,.147-.091l-.057-.281.156-.153A.091.091,0,0,0,21.405,27h-.2l-.127-.248A.093.093,0,0,0,20.917,26.752Z" style="fill:#ea456d"/><path d="M45.347,30.459l.083.256-.133.134a.088.088,0,0,0,.061.151l.212,0,.152.231a.09.09,0,0,0,.163-.039l.04-.267.268-.041a.09.09,0,0,0,.038-.162L46,30.567l0-.211a.088.088,0,0,0-.151-.061l-.134.133-.256-.083A.091.091,0,0,0,45.347,30.459Z" style="fill:#ea456d"/><path d="M18.347,31.459l.083.256-.133.134a.088.088,0,0,0,.061.151l.212,0,.152.231a.09.09,0,0,0,.163-.039l.04-.267.268-.041a.09.09,0,0,0,.038-.162L19,31.567l0-.211a.088.088,0,0,0-.151-.061l-.134.133-.256-.083A.091.091,0,0,0,18.347,31.459Z" style="fill:#ea456d"/><path d="M16.347,24.459l.083.256-.133.134a.088.088,0,0,0,.061.151l.212,0,.152.231a.09.09,0,0,0,.163-.039l.04-.267.268-.041a.09.09,0,0,0,.038-.162L17,24.567l0-.211a.088.088,0,0,0-.151-.061l-.134.133-.256-.083A.091.091,0,0,0,16.347,24.459Z" style="fill:#ea456d"/><path d="M52,36,46,59c-1,3-6.268,4-14,4s-13-1-14-4L12,36" style="fill:none;stroke:#000;stroke-linejoin:round;stroke-width:2px"/><polyline points="12 34 12 36 14 38 18 38 20 40 25 39 28 41 32 40 36 41 39 39 44 40 46 38 50 38 52 36 52 34" style="fill:none;stroke:#000;stroke-linejoin:round;stroke-width:2px"/><line x1="28" y1="60" x2="28" y2="63" style="fill:none;stroke:#000;stroke-linejoin:round;stroke-width:2px"/><line x1="28" y1="56" x2="28" y2="58" style="fill:none;stroke:#000;stroke-linejoin:round;stroke-width:2px"/><line x1="28" y1="41" x2="28" y2="54" style="fill:none;stroke:#000;stroke-linejoin:round;stroke-width:2px"/><line x1="36" y1="47" x2="36" y2="63" style="fill:none;stroke:#000;stroke-linejoin:round;stroke-width:2px"/><line x1="36" y1="41" x2="36" y2="45" style="fill:none;stroke:#000;stroke-linejoin:round;stroke-width:2px"/><line x1="44" y1="40" x2="41" y2="62" style="fill:none;stroke:#000;stroke-linejoin:round;stroke-width:2px"/><line x1="20" y1="40" x2="23" y2="62" style="fill:none;stroke:#000;stroke-linejoin:round;stroke-width:2px"/><path d="M21,13c0-4.519,7-12,8-12s8,7.481,8,12a8,8,0,0,1-16,0Z" style="fill:none;stroke:#000;stroke-linejoin:round;stroke-width:2px"/><path d="M31,21,30.067,8A1.069,1.069,0,0,0,29,7h0a1.069,1.069,0,0,0-1.067,1L27,21" style="fill:none;stroke:#000;stroke-linejoin:round;stroke-width:2px"/><path d="M33.64,5.64c3.41-2.72,12.42-2.99,13.07-2.35.67.68.35,10.42-2.69,13.46a7.537,7.537,0,0,1-8.86,1.4" style="fill:none;stroke:#000;stroke-linejoin:round;stroke-width:2px"/><path d="M36.44,15.97l.01-.01,6.27-7.24a1.021,1.021,0,0,0-1.44-1.44l-4.57,3.96" style="fill:none;stroke:#000;stroke-linejoin:round;stroke-width:2px"/><path d="M21,14h0c-3.866,0-7,7.134-7,11v2a9.021,9.021,0,0,0,3.189,6.945A15.787,15.787,0,0,0,28,38h5" style="fill:none;stroke:#000;stroke-linejoin:round;stroke-width:2px"/><path d="M42,32c5.085,0,5,3,5,3l2.547-1.445a.99.99,0,0,0,.282-1.387l-.764-1.127a17.566,17.566,0,0,0-7.216-6.095L31,20" style="fill:none;stroke:#000;stroke-linejoin:round;stroke-width:2px"/><path d="M27,21c0,3.232,1.738,5.22,4.574,6.854A36.875,36.875,0,0,0,40,31.721" style="fill:none;stroke:#000;stroke-linejoin:round;stroke-width:2px"/><path d="M47,35s-1.02,1-4.079,1c-2.868,0-12.9-3.514-18.349-8.072a7.518,7.518,0,0,1-2.137-2.816C21.75,23.48,21.941,21.2,25,20" style="fill:none;stroke:#000;stroke-linejoin:round;stroke-width:2px"/><path d="M18.124,24A15.9,15.9,0,0,1,18,22s0-5,4-5" style="fill:none;stroke:#000;stroke-linejoin:round;stroke-width:2px"/><path d="M43,36h0a2,2,0,0,1-2,2H33S21.17,35.634,18.522,26" style="fill:none;stroke:#000;stroke-linejoin:round;stroke-width:2px"/><path d="M48,30V27.736a6,6,0,0,0-4.883-5.891A8.116,8.116,0,0,1,38,19" style="fill:none;stroke:#000;stroke-linejoin:round;stroke-width:2px"/><path d="M44,17a7.611,7.611,0,0,1,3,6.042V24" style="fill:none;stroke:#000;stroke-linejoin:round;stroke-width:2px"/></g></svg>