<svg xmlns="http://www.w3.org/2000/svg" viewBox="0 0 64 64"><g id="_08-Praline_choua" data-name="08-Praline choua"><path d="M57,58H7A5,5,0,1,1,7,48H57a5,5,0,1,1,0,10Z" style="fill:#de9961"/><path d="M60.67,14.78a3.457,3.457,0,0,1,.31.22H3.02a3.457,3.457,0,0,1,.31-.22C5.46,10.94,17.48,8,32,8S58.54,10.94,60.67,14.78Z" style="fill:#ffb478"/><path d="M61,15.02c-.01-.02-.01-.02-.02-.02H3.02A4.943,4.943,0,0,0,1,19a4.993,4.993,0,0,0,4,4.9A4.712,4.712,0,0,0,6,24H58a5,5,0,0,0,5-5A4.942,4.942,0,0,0,61,15.02Z" style="fill:#f09954"/><path d="M27.62,33.55a.9.9,0,0,1,.1.12c-.05-.03-.11-.05-.16-.08a16.573,16.573,0,0,0-4.74-1.45A12.186,12.186,0,0,0,21,32H17A14.908,14.908,0,0,0,6,27V24h7C19.11,24,25.97,31.61,27.62,33.55Z" style="fill:#fdc183"/><path d="M33.4,34.59A10.278,10.278,0,0,1,34,38a23.1,23.1,0,0,0-2.74-2.24,23.183,23.183,0,0,0-3.53-2.08l-.01-.01a.9.9,0,0,0-.1-.12C25.97,31.61,19.11,24,13,24H24a29.169,29.169,0,0,1,4.59,3.6,23.047,23.047,0,0,1,2.73,3.09A15.082,15.082,0,0,1,33.4,34.59Z" style="fill:#ffd9a1"/><path d="M17,32H11a5.01,5.01,0,0,1-4-2,4.941,4.941,0,0,1-1-3A14.908,14.908,0,0,1,17,32Z" style="fill:#ffd9a1"/><path d="M15.04,45.01a1.969,1.969,0,0,0,.76,1.98l.18.13A4.329,4.329,0,0,0,18.6,48H10a3.929,3.929,0,0,1-.92-.11A17.932,17.932,0,0,0,15,45Z" style="fill:#8c6b48"/><path d="M25.63,43.37,25,44a2.849,2.849,0,0,0,0,4H18.6a4.339,4.339,0,0,0,2.72-.96l4.48-3.87.02.03A1.537,1.537,0,0,0,25.63,43.37Z" style="fill:#8c6b48"/><path d="M34,24l-5.41,3.6A29.169,29.169,0,0,0,24,24H34Z" style="fill:#8c6b48"/><path d="M7.38,36a4.059,4.059,0,0,0,2.67,1h4.88a32.745,32.745,0,0,1-6.08,2.55,3.679,3.679,0,0,0-2.14,1.79A4,4,0,0,1,6,39.06v-.82a3.015,3.015,0,0,1,.88-2.12L7,36Z" style="fill:#8c6b48"/><path d="M21,32a12.186,12.186,0,0,1,1.82.14A77.617,77.617,0,0,1,14.93,37H10.05a4.059,4.059,0,0,1-2.67-1c-.07-.06-.14-.12-.2-.18a4.044,4.044,0,0,1-.75-4.67L7,30a5.01,5.01,0,0,0,4,2H21Z" style="fill:#cc9762"/><path d="M34,24h5s-3.12,3-7.68,6.69a23.047,23.047,0,0,0-2.73-3.09Z" style="fill:#ebc083"/><path d="M25.8,43.17l-4.48,3.87a4.337,4.337,0,0,1-5.34.08l-.18-.13a2,2,0,0,1,.33-3.4c3.3-1.59,9.12-4.54,15.13-7.83A23.1,23.1,0,0,1,34,38l.29.83c-3.69,1.97-6.71,3.45-7.83,3.96a2.684,2.684,0,0,0-.64.41Z" style="fill:#ebc083"/><path d="M11.31,42.84c5.39-1.8,11.29-5.56,16.25-9.25.05.03.11.05.16.08l.01.01a23.183,23.183,0,0,1,3.53,2.08C25.25,39.05,19.43,42,16.13,43.59a1.951,1.951,0,0,0-1.09,1.42L15,45a17.932,17.932,0,0,1-5.92,2.89H9.07a4.114,4.114,0,0,1-1.9-1.06A4.025,4.025,0,0,1,6,44a5.368,5.368,0,0,1,.71-2.66A4.041,4.041,0,0,0,11.31,42.84Z" style="fill:#dba670"/><path d="M22.82,32.14a16.573,16.573,0,0,1,4.74,1.45c-4.96,3.69-10.86,7.45-16.25,9.25a4.041,4.041,0,0,1-4.6-1.5,3.679,3.679,0,0,1,2.14-1.79A32.745,32.745,0,0,0,14.93,37,77.617,77.617,0,0,0,22.82,32.14Z" style="fill:#ebc083"/><path d="M48,24h2c-3.19,2.81-9.84,6.83-16.6,10.59a15.082,15.082,0,0,0-2.08-3.9C35.88,27,39,24,39,24Z" style="fill:#dba670"/><path d="M55,24c-1.26,3.8-12.59,10.5-20.71,14.83L34,38a10.278,10.278,0,0,0-.6-3.41C40.16,30.83,46.81,26.81,50,24Z" style="fill:#ebc083"/><path d="M58,24v2.42A7.563,7.563,0,0,1,57.84,28,7.786,7.786,0,0,1,57,30.29a8.012,8.012,0,0,1-2.95,3.03L29,48H25a2.849,2.849,0,0,1,0-4l.63-.63a1.537,1.537,0,0,1,.19-.17,2.684,2.684,0,0,1,.64-.41c1.12-.51,4.14-1.99,7.83-3.96C42.41,34.5,53.74,27.8,55,24Z" style="fill:#ebc083"/><path d="M29,48,54.05,33.32A8.012,8.012,0,0,0,57,30.29v1.36a8.668,8.668,0,0,1-3.62,7.06C48.43,42.25,37.54,48,32,48Z" style="fill:#dba670"/><path d="M61,42.95a4.1,4.1,0,0,1-1.64,3.28L57,48H48c6.04,0,11.34-5.22,12.68-6.64A4.032,4.032,0,0,1,61,42.95Z" style="fill:#ffd496"/><path d="M42,48c4.8-.6,10.67-4.43,14.61-7.41a10.578,10.578,0,0,0,1.62-1.51,4.093,4.093,0,0,1,2.45,2.28C59.34,42.78,54.04,48,48,48Z" style="fill:#dba670"/><path d="M56.61,40.59C52.67,43.57,46.8,47.4,42,48H32c5.54,0,16.43-5.75,21.38-9.29A8.668,8.668,0,0,0,57,31.65V30.29A7.786,7.786,0,0,0,57.84,28H58a3,3,0,0,1,3,3v.79a10.951,10.951,0,0,1-2.77,7.29A10.578,10.578,0,0,1,56.61,40.59Z" style="fill:#ffd496"/><path d="M10.63,51.418a18.4,18.4,0,0,0,3.336-1.041,18.085,18.085,0,0,1,8.971-.727,23.658,23.658,0,0,0,3.331.523c1.9.057,3.762-.646,5.668-.673,2.522-.035,4.927,1.113,7.446,1.241,2.845.144,5.6-1.014,8.444-1.169a37.417,37.417,0,0,1,5.768.45,34.005,34.005,0,0,0,7.356-.055A4.977,4.977,0,0,0,57,48H7a5.022,5.022,0,0,0-3.54,1.46,5.087,5.087,0,0,0-.879,1.245C5.161,50.424,7.964,51.8,10.63,51.418Z" style="fill:#ffb478"/><path d="M53.338,54.2a30.519,30.519,0,0,0-4.541,1.77,10.984,10.984,0,0,1-6.575.288,43.758,43.758,0,0,1-4.764-1.906,21.946,21.946,0,0,0-13.095-.974,50.482,50.482,0,0,1-5.5,1.331c-1.6.19-3.218.049-4.818.2-1.871.181-3.776.762-5.591.275a19.374,19.374,0,0,1-2.622-1.137,10.044,10.044,0,0,0-3.809-.819A4.992,4.992,0,0,0,7,58H57a5.022,5.022,0,0,0,3.54-1.46,5.09,5.09,0,0,0,.935-1.348C58.794,54.905,56.015,53.688,53.338,54.2Z" style="fill:#de7e3c"/><path d="M60.95,49.967a34.005,34.005,0,0,1-7.356.055,37.417,37.417,0,0,0-5.768-.45c-2.844.155-5.6,1.313-8.444,1.169-2.519-.128-4.924-1.276-7.446-1.241-1.906.027-3.763.73-5.668.673a23.658,23.658,0,0,1-3.331-.523,18.085,18.085,0,0,0-8.971.727,18.4,18.4,0,0,1-3.336,1.041c-2.666.383-5.469-.994-8.049-.713A4.965,4.965,0,0,0,2,53c0,.08.02.154.023.233a10.044,10.044,0,0,1,3.809.819,19.374,19.374,0,0,0,2.622,1.137c1.815.487,3.72-.094,5.591-.275,1.6-.154,3.221-.013,4.818-.2a50.482,50.482,0,0,0,5.5-1.331,21.946,21.946,0,0,1,13.1.974,43.758,43.758,0,0,0,4.764,1.906,10.984,10.984,0,0,0,6.575-.288,30.519,30.519,0,0,1,4.541-1.77c2.677-.514,5.456.7,8.137.99a4.878,4.878,0,0,0-.525-5.225Z" style="fill:#f09954"/><path d="M61,15.02c-.01-.02-.01-.02-.02-.02H51.811c.405,1.232,1.458,2.559.908,3.723a2.53,2.53,0,0,1-2.262,1.148,23.038,23.038,0,0,1-4.975-.713,18.831,18.831,0,0,0-8.706.56A36.362,36.362,0,0,1,31.307,21.4c-2.977.422-5.936-.62-8.864-1.3a37.47,37.47,0,0,0-8.923-.969c-4.157.049-8.337.777-12.461.515A4.942,4.942,0,0,0,5,23.9,4.712,4.712,0,0,0,6,24H58a5,5,0,0,0,5-5A4.942,4.942,0,0,0,61,15.02Z" style="fill:#de7e3c"/><path d="M7.488,14.346a27.955,27.955,0,0,1,3.959-.419c3.841-.341,7.508-1.713,11.284-2.494,9.188-1.9,18.7-.267,28.081-.612a1.587,1.587,0,0,0,.518-.077.9.9,0,0,0,.515-.579A82.474,82.474,0,0,0,32,8C17.48,8,5.46,10.94,3.33,14.78a3.457,3.457,0,0,0-.31.22h2.8A6.418,6.418,0,0,1,7.488,14.346Z" style="fill:#ffcca3"/><path d="M54.166,11.454c-.4.921-1.737,1.061-2.273,1.912A1.839,1.839,0,0,0,51.811,15H60.98a3.457,3.457,0,0,0-.31-.22c-.816-1.471-3.1-2.806-6.407-3.9A1.276,1.276,0,0,1,54.166,11.454Z" style="fill:#de7e3c"/><path d="M17.5,27.916A11.846,11.846,0,0,0,10.99,26H6v1a14.908,14.908,0,0,1,11,5h4c.209,0,.414.013.62.024A11.881,11.881,0,0,0,17.5,27.916Z" style="fill:#ffd496"/><path d="M13,24H6v2h4.99A11.846,11.846,0,0,1,17.5,27.916a11.881,11.881,0,0,1,4.121,4.108c.4.022.8.056,1.2.116a16.573,16.573,0,0,1,4.74,1.45c.05.03.11.05.16.08a.9.9,0,0,0-.1-.12C25.97,31.61,19.11,24,13,24Z" style="fill:#cc9a68"/><path d="M34,38a10.278,10.278,0,0,0-.6-3.41,15.082,15.082,0,0,0-2.08-3.9,23.047,23.047,0,0,0-2.73-3.09c-.63-.6-1.247-1.136-1.819-1.6H25.314a1,1,0,0,0-.6,1.8c2.282,1.705,5.289,4.472,6.08,7.643.155.106.316.212.462.316A23.1,23.1,0,0,1,34,38Z" style="fill:#ffeacc"/><path d="M24.718,27.8a1,1,0,0,1,.6-1.8h1.457A27.3,27.3,0,0,0,24,24H13c6.11,0,12.97,7.61,14.62,9.55a.9.9,0,0,1,.1.12l.01.01A22.647,22.647,0,0,1,30.8,35.444C30.007,32.273,27,29.506,24.718,27.8Z" style="fill:#e8bd80"/><path d="M7.5,29H6.431A4.924,4.924,0,0,0,7,30a5.01,5.01,0,0,0,4,2h1.25l-.75-1A5,5,0,0,0,7.5,29Z" style="fill:#ffd496"/><path d="M6,27a4.954,4.954,0,0,0,.431,2H7.5a5,5,0,0,1,4,2l.75,1H17A14.908,14.908,0,0,0,6,27Z" style="fill:#cc9a68"/><path d="M32,44.123c7.15-3.88,18.815-11.914,21.454-13.746a1.981,1.981,0,0,0,.752-1.007A3.466,3.466,0,0,1,57.5,27h.474c.014-.192.028-.384.028-.58V24H55c-1.26,3.8-12.59,10.5-20.71,14.83-3.69,1.97-6.71,3.45-7.83,3.96a2.684,2.684,0,0,0-.64.41,1.537,1.537,0,0,0-.19.17L25,44a2.849,2.849,0,0,0,0,4h4l3.428-2.009A1,1,0,0,1,32,44.123Z" style="fill:#dba670"/><path d="M22.82,32.14A12.186,12.186,0,0,0,21,32H11a5.01,5.01,0,0,1-4-2l-.57,1.15a4.028,4.028,0,0,0-.364,1.25c.949.774,2.712,1.605,5.974,1.741a1,1,0,0,1,.45,1.865L10.75,37h4.18A77.617,77.617,0,0,0,22.82,32.14Z" style="fill:#b08559"/><ellipse cx="51.121" cy="11.75" rx="0.574" ry="0.413" transform="translate(6.655 39.574) rotate(-44.98)" style="fill:#f09954"/><ellipse cx="36.121" cy="20.75" rx="0.574" ry="0.413" transform="translate(-4.097 31.605) rotate(-44.98)" style="fill:#d07232"/><ellipse cx="4.121" cy="17.75" rx="0.574" ry="0.413" transform="translate(-11.341 8.108) rotate(-44.98)" style="fill:#de7e3c"/><ellipse cx="53.121" cy="13.75" rx="0.413" ry="0.574" style="fill:#d07232"/><ellipse cx="29.121" cy="12.75" rx="0.413" ry="0.574" style="fill:#f09954"/><ellipse cx="46.121" cy="20.75" rx="0.413" ry="0.574" style="fill:#d07232"/><ellipse cx="45.121" cy="15.75" rx="0.413" ry="0.574" transform="translate(2.071 36.504) rotate(-44.98)" style="fill:#de7e3c"/><ellipse cx="33.121" cy="21.75" rx="0.413" ry="0.574" transform="translate(-5.682 29.777) rotate(-44.98)" style="fill:#d07232"/><ellipse cx="25.121" cy="13.75" rx="0.413" ry="0.574" transform="translate(-2.368 21.781) rotate(-44.98)" style="fill:#f09954"/><ellipse cx="59.121" cy="15.75" rx="0.413" ry="0.574" style="fill:#d07232"/><ellipse cx="59.121" cy="21.75" rx="0.413" ry="0.574" style="fill:#d07232"/><ellipse cx="11.121" cy="12.75" rx="0.413" ry="0.574" style="fill:#ffb478"/><ellipse cx="9.121" cy="15.75" rx="0.413" ry="0.574" style="fill:#de7e3c"/><ellipse cx="36.121" cy="13.75" rx="0.574" ry="0.413" transform="translate(0.851 29.557) rotate(-44.98)" style="fill:#f09954"/><ellipse cx="37.121" cy="9.75" rx="0.574" ry="0.413" transform="translate(3.971 29.093) rotate(-44.98)" style="fill:#ffb478"/><ellipse cx="16.121" cy="20.75" rx="0.574" ry="0.413" transform="translate(-9.95 17.468) rotate(-44.98)" style="fill:#d07232"/><ellipse cx="42.121" cy="12.75" rx="0.574" ry="0.413" transform="translate(3.314 33.505) rotate(-44.98)" style="fill:#f09954"/><ellipse cx="54.121" cy="17.75" rx="0.413" ry="0.574" style="fill:#d07232"/><ellipse cx="52.121" cy="21.75" rx="0.413" ry="0.574" style="fill:#d07232"/><ellipse cx="43.121" cy="19.75" rx="0.413" ry="0.574" style="fill:#d07232"/><ellipse cx="23.121" cy="15.75" rx="0.413" ry="0.574" style="fill:#de7e3c"/><ellipse cx="18.121" cy="20.75" rx="0.413" ry="0.574" style="fill:#d07232"/><ellipse cx="27.121" cy="19.75" rx="0.413" ry="0.574" style="fill:#de7e3c"/><ellipse cx="24.121" cy="21.75" rx="0.413" ry="0.574" style="fill:#d07232"/><ellipse cx="16.121" cy="13.75" rx="0.413" ry="0.574" transform="translate(-5.002 15.419) rotate(-44.98)" style="fill:#f09954"/><ellipse cx="27.121" cy="9.75" rx="0.413" ry="0.574" style="fill:#ffb478"/><ellipse cx="30.121" cy="17.75" rx="0.413" ry="0.574" style="fill:#de7e3c"/><ellipse cx="23.121" cy="9.75" rx="0.574" ry="0.413" transform="translate(-0.126 19.197) rotate(-44.98)" style="fill:#ffb478"/><ellipse cx="12.121" cy="16.75" rx="0.574" ry="0.413" transform="translate(-8.293 13.47) rotate(-44.98)" style="fill:#de7e3c"/><ellipse cx="9.121" cy="12.75" rx="0.413" ry="0.574" style="fill:#ffb478"/><ellipse cx="32.375" cy="10.25" rx="0.825" ry="1.148" transform="translate(2.24 25.905) rotate(-45.02)" style="fill:#ffb478"/><ellipse cx="14.375" cy="12.25" rx="0.825" ry="1.148" transform="translate(-4.451 13.759) rotate(-45.02)" style="fill:#ffb478"/><ellipse cx="45.375" cy="12.25" rx="0.825" ry="1.148" transform="translate(4.636 35.687) rotate(-45.02)" style="fill:#f09954"/><ellipse cx="48.375" cy="17.25" rx="0.825" ry="1.148" style="fill:#de7e3c"/><ellipse cx="49.121" cy="54.75" rx="0.574" ry="0.413" transform="translate(-24.326 50.744) rotate(-44.98)" style="fill:#de7e3c"/><ellipse cx="35.121" cy="55.75" rx="0.574" ry="0.413" transform="translate(-29.13 41.141) rotate(-44.98)" style="fill:#d07232"/><ellipse cx="8.121" cy="52.75" rx="0.574" ry="0.413" transform="translate(-34.911 21.178) rotate(-44.98)" style="fill:#de7e3c"/><ellipse cx="45.121" cy="55.75" rx="0.413" ry="0.574" style="fill:#de7e3c"/><ellipse cx="39.121" cy="51.75" rx="0.413" ry="0.574" transform="translate(-25.132 42.798) rotate(-44.98)" style="fill:#de7e3c"/><ellipse cx="46.121" cy="52.75" rx="0.413" ry="0.574" transform="translate(-23.79 48.039) rotate(-44.98)" style="fill:#de7e3c"/><ellipse cx="32.121" cy="56.75" rx="0.413" ry="0.574" transform="translate(-30.715 39.313) rotate(-44.98)" style="fill:#d07232"/><ellipse cx="24.121" cy="48.75" rx="0.413" ry="0.574" transform="translate(-27.401 31.317) rotate(-44.98)" style="fill:#f09954"/><ellipse cx="60.121" cy="54.75" rx="0.413" ry="0.574" transform="translate(-21.107 58.52) rotate(-44.98)" style="fill:#d07232"/><ellipse cx="58.121" cy="51.75" rx="0.413" ry="0.574" style="fill:#de7e3c"/><ellipse cx="58.121" cy="56.75" rx="0.413" ry="0.574" style="fill:#d07232"/><ellipse cx="11.121" cy="49.75" rx="0.413" ry="0.574" style="fill:#f09954"/><ellipse cx="8.121" cy="50.75" rx="0.413" ry="0.574" style="fill:#f09954"/><ellipse cx="6.375" cy="56.25" rx="0.825" ry="1.148" style="fill:#d07232"/><ellipse cx="33.121" cy="50.75" rx="0.574" ry="0.413" transform="translate(-26.181 38.264) rotate(-44.98)" style="fill:#de7e3c"/><ellipse cx="15.121" cy="55.75" rx="0.574" ry="0.413" transform="translate(-34.983 27.004) rotate(-44.98)" style="fill:#d07232"/><ellipse cx="53.121" cy="52.75" rx="0.413" ry="0.574" style="fill:#de7e3c"/><ellipse cx="51.121" cy="56.75" rx="0.413" ry="0.574" style="fill:#d07232"/><ellipse cx="42.121" cy="54.75" rx="0.413" ry="0.574" style="fill:#de7e3c"/><ellipse cx="22.121" cy="50.75" rx="0.413" ry="0.574" style="fill:#de7e3c"/><ellipse cx="17.121" cy="55.75" rx="0.413" ry="0.574" style="fill:#d07232"/><ellipse cx="26.121" cy="54.75" rx="0.413" ry="0.574" style="fill:#d07232"/><ellipse cx="23.121" cy="56.75" rx="0.413" ry="0.574" style="fill:#d07232"/><ellipse cx="41.121" cy="49.75" rx="0.413" ry="0.574" style="fill:#f09954"/><ellipse cx="14.121" cy="48.75" rx="0.413" ry="0.574" transform="translate(-30.327 24.248) rotate(-44.98)" style="fill:#f09954"/><ellipse cx="30.121" cy="51.75" rx="0.413" ry="0.574" style="fill:#de7e3c"/><ellipse cx="15.121" cy="51.75" rx="0.413" ry="0.574" style="fill:#de7e3c"/><ellipse cx="55.375" cy="54.25" rx="1.719" ry="1.235" transform="translate(-22.142 55.019) rotate(-44.98)" style="fill:#d07232"/><path d="M57.74,10.26c.61.61.13,3.51-1.21,4.85a2.308,2.308,0,0,1-3.64,0,2.308,2.308,0,0,1,0-3.64C54.23,10.13,57.13,9.65,57.74,10.26Z" style="fill:#b08559"/><path d="M49.74,10.26c.61.61.13,3.51-1.21,4.85a2.308,2.308,0,0,1-3.64,0,2.308,2.308,0,0,1,0-3.64C46.23,10.13,49.13,9.65,49.74,10.26Z" style="fill:#b08559"/><path d="M45.11,6.89a2.308,2.308,0,0,1,0,3.64c-1.34,1.34-4.24,1.82-4.85,1.21s-.13-3.51,1.21-4.85A2.308,2.308,0,0,1,45.11,6.89Z" style="fill:#b08559"/><path d="M38.53,13.89c1.34,1.34,1.82,4.24,1.21,4.85s-3.51.13-4.85-1.21a2.308,2.308,0,0,1,0-3.64A2.308,2.308,0,0,1,38.53,13.89Z" style="fill:#b08559"/><path d="M33.11,7.47a2.308,2.308,0,0,1,0,3.64,2.308,2.308,0,0,1-3.64,0c-1.34-1.34-1.82-4.24-1.21-4.85S31.77,6.13,33.11,7.47Z" style="fill:#b08559"/><path d="M26,11a2.7,2.7,0,0,1,3,3,2.7,2.7,0,0,1-3,3c-2.21,0-5-2-5-3S23.79,11,26,11Z" style="fill:#b08559"/><path d="M21.74,8.26c.61.61.13,3.51-1.21,4.85a2.308,2.308,0,0,1-3.64,0,2.308,2.308,0,0,1,0-3.64C18.23,8.13,21.13,7.65,21.74,8.26Z" style="fill:#b08559"/><path d="M14.11,13.47a2.308,2.308,0,0,1,0,3.64,2.308,2.308,0,0,1-3.64,0c-1.34-1.34-1.82-4.24-1.21-4.85S12.77,12.13,14.11,13.47Z" style="fill:#b08559"/><path d="M58.5,29.007a.659.659,0,0,0-.347.108.99.99,0,0,0-.291.477,6.908,6.908,0,0,0-.2,2.234,13.047,13.047,0,0,1-.284,3.1,5.6,5.6,0,0,1-.511,1.4,9.446,9.446,0,0,0-.75,1.2,1.393,1.393,0,0,0-.116.6.916.916,0,0,0,.424.7,1.4,1.4,0,0,0,.7.17c1.3.046,2-2.279,2.306-3.6a27.636,27.636,0,0,0,.533-3.808C60.108,30.094,59.781,28.9,58.5,29.007Z" style="fill:#ffeacc"/><path d="M47.2,43.478a.831.831,0,0,0,.394.766,1.243,1.243,0,0,0,.3.119c1.332.368,2.879-.8,3.963-1.48a7.121,7.121,0,0,0,1.58-1.235c.3-.334,1.112-1.421.424-1.709-.623-.262-1.58.58-2.059.856q-1.253.723-2.539,1.382a8.838,8.838,0,0,1-1.279.59c-.357.115-.673.159-.771.611A.669.669,0,0,0,47.2,43.478Z" style="fill:#ffeacc"/><path d="M39.773,31.512c-.41.31-.868.731-.778,1.238a.947.947,0,0,0,.788.694,2.517,2.517,0,0,0,1.1-.118,16.72,16.72,0,0,0,5.56-2.717c.664-.5,1.77-1.48,1.32-2.442-.343-.735-1.318-.575-1.947-.378C43.594,28.485,41.6,30.13,39.773,31.512Z" style="fill:#ffeacc"/><path d="M35.254,35.092c-.158.289-.1.581.382.816a1.5,1.5,0,0,0,.838.138c.718-.09,1.925-.865,1.963-1.669.051-1.046-.938-.812-1.583-.494A4.242,4.242,0,0,0,35.254,35.092Z" style="fill:#ffeacc"/><path d="M12,39.178a9.72,9.72,0,0,0-2.067.55c-.4.19-.794.552-.736.988.069.518.7.729,1.22.783a9.43,9.43,0,0,0,3.258-.226,3.787,3.787,0,0,0,2.472-1.647,1.326,1.326,0,0,0-.05-1.389c-.479-.461-1.445-.133-1.91.144A7.654,7.654,0,0,1,12,39.178Z" style="fill:#ffeacc"/><path d="M19.769,42.4a3.323,3.323,0,0,0-1.13.673c-.184.188-.321.5-.148.7a.535.535,0,0,0,.183.124,4.15,4.15,0,0,0,3.371-.385c.463-.2,4.345-2.347,3.017-2.785-.639-.211-2.025.477-2.645.682Q21.073,41.846,19.769,42.4Z" style="fill:#ffeacc"/><path d="M25.632,40.02a.507.507,0,0,0-.185.365c.015.209.255.321.463.351.561.08,3.215-.8,2.446-1.686C27.719,38.319,26.053,39.58,25.632,40.02Z" style="fill:#ffeacc"/><path d="M13.955,27.4a.557.557,0,0,0-.353.092.4.4,0,0,0-.031.511,1.3,1.3,0,0,0,.426.355,7.113,7.113,0,0,1,1.262,1.019c.294.3.563.626.885.895a1.968,1.968,0,0,0,1.129.506.88.88,0,0,0,.589-.158.821.821,0,0,0,.267-.757,1.7,1.7,0,0,0-.35-.756A4.68,4.68,0,0,0,13.955,27.4Z" style="fill:#ffeacc"/><path d="M56.209,12.066c-.168.314-.454.549-.651.845a.234.234,0,0,0-.052.2.2.2,0,0,0,.085.09.863.863,0,0,0,.787,0,1.686,1.686,0,0,0,.97-1.135c.082-.336.144-1.44-.417-1.339C56.276,10.848,56.45,11.614,56.209,12.066Z" style="fill:#cca985"/><path d="M46.991,10.893a2.926,2.926,0,0,0-.77.37.99.99,0,0,0-.423.714.452.452,0,0,0,.079.3.483.483,0,0,0,.153.123,1.307,1.307,0,0,0,1.129-.043c.358-.157.677-.393,1.038-.542.186-.077.382-.131.561-.221.435-.217.69-.765.127-.976A2.964,2.964,0,0,0,46.991,10.893Z" style="fill:#cca985"/><path d="M18.991,8.893a2.926,2.926,0,0,0-.77.37.99.99,0,0,0-.423.714.452.452,0,0,0,.079.3.483.483,0,0,0,.153.123,1.307,1.307,0,0,0,1.129-.043c.358-.157.677-.393,1.038-.542.186-.077.382-.131.561-.221.435-.217.69-.765.127-.976A2.964,2.964,0,0,0,18.991,8.893Z" style="fill:#cca985"/><path d="M23.991,11.893a2.926,2.926,0,0,0-.77.37.99.99,0,0,0-.423.714.452.452,0,0,0,.079.3.483.483,0,0,0,.153.123,1.307,1.307,0,0,0,1.129-.043c.358-.157.677-.393,1.038-.542.186-.077.382-.131.561-.221.435-.217.69-.765.127-.976A2.964,2.964,0,0,0,23.991,11.893Z" style="fill:#cca985"/><path d="M35.65,14.246a.6.6,0,0,0,.11.434c.243.378.675.592.964.936.208.247.361.574.665.681a.73.73,0,0,0,.862-.459,1.3,1.3,0,0,0-.112-1.042A1.739,1.739,0,0,0,37,13.848C36.58,13.752,35.762,13.7,35.65,14.246Z" style="fill:#cca985"/><path d="M10.65,13.246a.6.6,0,0,0,.11.434c.243.378.675.592.964.936.208.247.361.574.665.681a.73.73,0,0,0,.862-.459,1.3,1.3,0,0,0-.112-1.042A1.739,1.739,0,0,0,12,12.848C11.58,12.752,10.762,12.7,10.65,13.246Z" style="fill:#cca985"/><path d="M29.65,7.246a.6.6,0,0,0,.11.434c.243.378.675.592.964.936.208.247.361.574.665.681a.73.73,0,0,0,.862-.459A1.3,1.3,0,0,0,32.139,7.8,1.739,1.739,0,0,0,31,6.848C30.58,6.752,29.762,6.7,29.65,7.246Z" style="fill:#cca985"/><path d="M44.156,7.073A1.6,1.6,0,0,0,42.6,6.994c-.383.2-.939.58-.816,1.087a.622.622,0,0,0,.762.408,3.853,3.853,0,0,1,1.255-.21,1.369,1.369,0,0,0,.578-.024C44.973,8.031,44.5,7.277,44.156,7.073Z" style="fill:#cca985"/><line x1="13" y1="58" x2="11" y2="58" style="fill:none;stroke:#000;stroke-linejoin:round;stroke-width:2px"/><line x1="53" y1="58" x2="15" y2="58" style="fill:none;stroke:#000;stroke-linejoin:round;stroke-width:2px"/><path d="M9,58H7a5,5,0,0,1-5-5H2a5,5,0,0,1,5-5H57a5,5,0,0,1,5,5h0a5,5,0,0,1-5,5H55" style="fill:none;stroke:#000;stroke-linejoin:round;stroke-width:2px"/><path d="M33.56,8.01h.01c2.42.04,4.75.15,6.97.34" style="fill:none;stroke:#000;stroke-linejoin:round;stroke-width:2px"/><path d="M17.33,9.1c-7.37,1.19-12.66,3.26-14,5.68A4.995,4.995,0,0,0,5,23.9,4.712,4.712,0,0,0,6,24H58a5,5,0,0,0,2.67-9.22,6.8,6.8,0,0,0-2.8-2.4" style="fill:none;stroke:#000;stroke-linejoin:round;stroke-width:2px"/><path d="M53.9,10.75a52.945,52.945,0,0,0-7.92-1.76" style="fill:none;stroke:#000;stroke-linejoin:round;stroke-width:2px"/><path d="M28.08,8.08c-2.15.07-4.23.22-6.2.42" style="fill:none;stroke:#000;stroke-linejoin:round;stroke-width:2px"/><line x1="37.53" y1="43" x2="35.823" y2="44" style="fill:none;stroke:#000;stroke-linejoin:round;stroke-width:2px"/><path d="M48.97,30c3.145-2.252,5.492-4.386,6.03-6h3v2.416a8,8,0,0,1-3.954,6.9L39.235,42" style="fill:none;stroke:#000;stroke-linejoin:round;stroke-width:2px"/><path d="M34.118,45,29,48H25a2.828,2.828,0,0,1,0-4l.633-.633a2.8,2.8,0,0,1,.829-.575A182.476,182.476,0,0,0,47.535,31" style="fill:none;stroke:#000;stroke-linejoin:round;stroke-width:2px"/><path d="M57.84,28H58a3,3,0,0,1,3,3v.79a10.951,10.951,0,0,1-2.77,7.29,10.578,10.578,0,0,1-1.62,1.51C52.67,43.57,46.8,47.4,42,48" style="fill:none;stroke:#000;stroke-linejoin:round;stroke-width:2px"/><path d="M57,30.29v1.36a8.668,8.668,0,0,1-3.62,7.06C48.43,42.25,37.54,48,32,48" style="fill:none;stroke:#000;stroke-linejoin:round;stroke-width:2px"/><path d="M24,24s10,6,10,14c0,0-6-6-13-6H11a5,5,0,0,1-5-5V24" style="fill:none;stroke:#000;stroke-linejoin:round;stroke-width:2px"/><path d="M13,24c6.11,0,12.97,7.61,14.62,9.55a1.09,1.09,0,0,1,.11.13" style="fill:none;stroke:#000;stroke-linejoin:round;stroke-width:2px"/><path d="M35,33.694C41.19,30.2,47.062,26.588,50,24" style="fill:none;stroke:#000;stroke-linejoin:round;stroke-width:2px"/><path d="M29,36.986c-5.178,2.786-9.986,5.214-12.87,6.6a2,2,0,0,0-.33,3.4l.18.13a4.337,4.337,0,0,0,5.34-.08L26,43" style="fill:none;stroke:#000;stroke-linejoin:round;stroke-width:2px"/><path d="M7,30l-.57,1.15A4.033,4.033,0,0,0,10.05,37h4.88" style="fill:none;stroke:#000;stroke-linejoin:round;stroke-width:2px"/><path d="M13,48H10a3.929,3.929,0,0,1-.92-.11H9.07a4.114,4.114,0,0,1-1.9-1.06A4.025,4.025,0,0,1,6,44a5.368,5.368,0,0,1,.71-2.66,3.679,3.679,0,0,1,2.14-1.79A32.745,32.745,0,0,0,14.93,37a77.617,77.617,0,0,0,7.89-4.86" style="fill:none;stroke:#000;stroke-linejoin:round;stroke-width:2px"/><line x1="34" y1="24" x2="28.59" y2="27.6" style="fill:none;stroke:#000;stroke-linejoin:round;stroke-width:2px"/><path d="M9.07,47.89A17.82,17.82,0,0,0,15,45" style="fill:none;stroke:#000;stroke-linejoin:round;stroke-width:2px"/><path d="M7.38,36H7l-.12.12A3.015,3.015,0,0,0,6,38.24v.82a4,4,0,0,0,5.31,3.78A57.006,57.006,0,0,0,25,35.437" style="fill:none;stroke:#000;stroke-linejoin:round;stroke-width:2px"/><path d="M39,24s-2.211,2.126-5.631,5" style="fill:none;stroke:#000;stroke-linejoin:round;stroke-width:2px"/><path d="M57,48l2.36-1.77A4.1,4.1,0,0,0,61,42.95a4.032,4.032,0,0,0-.32-1.59,4.093,4.093,0,0,0-2.45-2.28" style="fill:none;stroke:#000;stroke-linejoin:round;stroke-width:2px"/><path d="M48,48c6.04,0,11.34-5.22,12.68-6.64" style="fill:none;stroke:#000;stroke-linejoin:round;stroke-width:2px"/><path d="M44.885,15.115a2.318,2.318,0,0,1,0-3.642c1.341-1.341,4.249-1.821,4.856-1.214s.127,3.515-1.214,4.856A2.318,2.318,0,0,1,44.885,15.115Z" style="fill:none;stroke:#000;stroke-linejoin:round;stroke-width:2px"/><path d="M29,14a2.7,2.7,0,0,1-3,3c-2.21,0-5-2-5-3s2.79-3,5-3A2.7,2.7,0,0,1,29,14Z" style="fill:none;stroke:#000;stroke-linejoin:round;stroke-width:2px"/><path d="M45.115,6.885a2.318,2.318,0,0,1,0,3.642c-1.341,1.341-4.249,1.821-4.856,1.214s-.127-3.514,1.214-4.856A2.318,2.318,0,0,1,45.115,6.885Z" style="fill:none;stroke:#000;stroke-linejoin:round;stroke-width:2px"/><path d="M52.885,15.115a2.318,2.318,0,0,1,0-3.642c1.341-1.341,4.249-1.821,4.856-1.214s.127,3.515-1.214,4.856A2.318,2.318,0,0,1,52.885,15.115Z" style="fill:none;stroke:#000;stroke-linejoin:round;stroke-width:2px"/><path d="M33.115,11.115a2.318,2.318,0,0,1-3.642,0c-1.341-1.341-1.821-4.249-1.214-4.856s3.514-.127,4.856,1.214A2.318,2.318,0,0,1,33.115,11.115Z" style="fill:none;stroke:#000;stroke-linejoin:round;stroke-width:2px"/><path d="M34.885,13.885a2.318,2.318,0,0,0,0,3.642c1.341,1.341,4.249,1.821,4.856,1.214s.127-3.514-1.214-4.856A2.318,2.318,0,0,0,34.885,13.885Z" style="fill:none;stroke:#000;stroke-linejoin:round;stroke-width:2px"/><path d="M16.885,13.115a2.318,2.318,0,0,0,3.642,0c1.341-1.341,1.821-4.249,1.214-4.856s-3.514-.127-4.856,1.214A2.318,2.318,0,0,0,16.885,13.115Z" style="fill:none;stroke:#000;stroke-linejoin:round;stroke-width:2px"/><path d="M14.115,17.115a2.318,2.318,0,0,0,0-3.642c-1.341-1.341-4.249-1.821-4.856-1.214s-.127,3.515,1.214,4.856A2.318,2.318,0,0,0,14.115,17.115Z" style="fill:none;stroke:#000;stroke-linejoin:round;stroke-width:2px"/><path d="M61,17s-3,7-13,7" style="fill:none;stroke:#000;stroke-linejoin:round;stroke-width:2px"/><path d="M52,17s-3,7-13,7" style="fill:none;stroke:#000;stroke-linejoin:round;stroke-width:2px"/><path d="M43,17s-3,7-13,7" style="fill:none;stroke:#000;stroke-linejoin:round;stroke-width:2px"/><path d="M34,17s-3,7-13,7" style="fill:none;stroke:#000;stroke-linejoin:round;stroke-width:2px"/><path d="M25,17s-3,7-13,7" style="fill:none;stroke:#000;stroke-linejoin:round;stroke-width:2px"/><path d="M16,17s-2.594,6.053-11,6.9" style="fill:none;stroke:#000;stroke-linejoin:round;stroke-width:2px"/><path d="M7,17a11.738,11.738,0,0,1-5,5.444" style="fill:none;stroke:#000;stroke-linejoin:round;stroke-width:2px"/><path d="M17,32A14.908,14.908,0,0,0,6,27" style="fill:none;stroke:#000;stroke-linejoin:round;stroke-width:2px"/><path d="M23,51c.468.3,2.5.754,3,1" style="fill:none;stroke:#000;stroke-linejoin:round;stroke-width:2px"/><path d="M36,50c-.343.479-1.657,1.521-2,2" style="fill:none;stroke:#000;stroke-linejoin:round;stroke-width:2px"/><path d="M28,55a13.142,13.142,0,0,1,3-1" style="fill:none;stroke:#000;stroke-linejoin:round;stroke-width:2px"/><path d="M39,51a25.674,25.674,0,0,1,2,2" style="fill:none;stroke:#000;stroke-linejoin:round;stroke-width:2px"/><path d="M44,56a7.9,7.9,0,0,1,2-2" style="fill:none;stroke:#000;stroke-linejoin:round;stroke-width:2px"/><path d="M48,50c0,1,1.254,1.822,2,2" style="fill:none;stroke:#000;stroke-linejoin:round;stroke-width:2px"/><path d="M7,52c0,1,2,2,2,3" style="fill:none;stroke:#000;stroke-linejoin:round;stroke-width:2px"/><path d="M14,50c.519.486,1.319,1.8,2,2" style="fill:none;stroke:#000;stroke-linejoin:round;stroke-width:2px"/><path d="M57,52c0,1-1.2,2.45-2,3" style="fill:none;stroke:#000;stroke-linejoin:round;stroke-width:2px"/><path d="M17.687,53A3.454,3.454,0,0,0,20,55" style="fill:none;stroke:#000;stroke-linejoin:round;stroke-width:2px"/></g></svg>