<svg xmlns="http://www.w3.org/2000/svg" viewBox="0 0 64 64"><g id="_10-Croissant" data-name="10-Croissant"><path d="M40,52.01V53s0,6-3,6a13.42,13.42,0,0,1-2.65-.26,2.968,2.968,0,0,1-2.34-2.72Z" style="fill:#ad5f2a"/><path d="M40,11v.99L32.01,7.98a2.968,2.968,0,0,1,2.34-2.72A13.42,13.42,0,0,1,37,5C40,5,40,11,40,11Z" style="fill:#ad5f2a"/><path d="M43,13.6a4.278,4.278,0,0,0-.74-.48L40,11.99V11s0-6-3-6a13.42,13.42,0,0,0-2.65.26,2.968,2.968,0,0,0-2.34,2.72L28,5.96a4.463,4.463,0,0,1,3.98-4.4L36,1h1.79A4,4,0,0,1,41.7,4.13l.44,2.01A36.864,36.864,0,0,1,43,13.6Z" style="fill:#f7b64e"/><path d="M42.26,50.88A4.278,4.278,0,0,0,43,50.4a36.864,36.864,0,0,1-.86,7.46l-.44,2.01A4,4,0,0,1,37.79,63H36l-4.02-.56A4.463,4.463,0,0,1,28,58.04l4.01-2.02a2.968,2.968,0,0,0,2.34,2.72A13.42,13.42,0,0,0,37,59c3,0,3-6,3-6v-.99Z" style="fill:#f7b64e"/><path d="M32.01,56.02,28,58.04l-.36.18a2,2,0,0,1-2.57-.77l-1.5-2.5A4.018,4.018,0,0,1,23,52.89V50l-.03-.15L26,49.23l2-.41,16.84-3.45c.03-.01.06-.01.09-.02l-.55,2.74A4.014,4.014,0,0,1,43,50.4a4.278,4.278,0,0,1-.74.48L40,52.01Z" style="fill:#eea439"/><path d="M28,5.96l4.01,2.02L40,11.99l2.26,1.13a4.278,4.278,0,0,1,.74.48,4.014,4.014,0,0,1,1.38,2.31l.55,2.74c-.03-.01-.06-.01-.09-.02L40,17.64l-2-.41L22.97,14.15,23,14V11.11a4.018,4.018,0,0,1,.57-2.06l1.5-2.5a2,2,0,0,1,2.57-.77Z" style="fill:#eea439"/><path d="M44.93,45.35c-.03.01-.06.01-.09.02L28,48.82l-2,.41-3.03.62-.55.11A1.978,1.978,0,0,1,20,48.09V46.58a3.664,3.664,0,0,1,.42-1.71l1.34-2.55L48,39.24v2.4A3.853,3.853,0,0,1,44.93,45.35Z" style="fill:#f7b64e"/><path d="M44.93,18.65A3.853,3.853,0,0,1,48,22.36v2.4L21.76,21.68l-1.34-2.55A3.664,3.664,0,0,1,20,17.42V15.91a1.978,1.978,0,0,1,2.42-1.87l.55.11L38,17.23l2,.41,4.84.99C44.87,18.64,44.9,18.64,44.93,18.65Z" style="fill:#f7b64e"/><path d="M47.65,27.5l2.35.29.2.03A2,2,0,0,1,52,29.81v4.38a2,2,0,0,1-1.8,1.99l-.2.03-5,.63-2,.25L18.75,40.15a5.874,5.874,0,0,1-2.48-.21A5.982,5.982,0,0,1,12,34.2V29.8a5.982,5.982,0,0,1,4.27-5.74,5.874,5.874,0,0,1,2.48-.21l4.25.54,2,.25,2,.25Z" style="fill:#e58d1f"/><path d="M50,36.21v1.01a2,2,0,0,1-1.77,1.99l-.23.03L21.76,42.32l-1.29.15a4,4,0,0,1-4.2-2.53,5.874,5.874,0,0,0,2.48.21L43,37.09l2-.25Z" style="fill:#e58d1f"/><path d="M50,26.78v1.01l-2.35-.29L27,24.89l-2-.25-2-.25-4.25-.54a5.874,5.874,0,0,0-2.48.21,4,4,0,0,1,4.2-2.53l1.29.15L48,24.76l.23.03A2,2,0,0,1,50,26.78Z" style="fill:#e58d1f"/><path d="M37,57a13.42,13.42,0,0,1-2.65-.26,2.9,2.9,0,0,1-1.687-1.048l-.653.328a2.968,2.968,0,0,0,2.34,2.72A13.42,13.42,0,0,0,37,59c3,0,3-6,3-6v-.99l-.057.029C39.789,53.754,39.208,57,37,57Z" style="fill:#854920"/><path d="M40,11s0-6-3-6a13.42,13.42,0,0,0-2.65.26,2.968,2.968,0,0,0-2.34,2.72l.653.328A2.9,2.9,0,0,1,34.35,7.26,13.42,13.42,0,0,1,37,7c2.208,0,2.789,3.246,2.943,4.961L40,11.99Z" style="fill:#854920"/><path d="M44.84,45.37,41,46.157,28,48.82l-2,.41-3.03.62L23,50v2.89a3.923,3.923,0,0,0,.072.711l13.552-3.566a1,1,0,0,1,1.112,1.481l-1.4,2.333L40,52.01l2.26-1.13A4.278,4.278,0,0,0,43,50.4a4.014,4.014,0,0,0,1.38-2.31l.55-2.74C44.9,45.36,44.87,45.36,44.84,45.37Z" style="fill:#bf5d1b"/><path d="M44.38,15.91A4.014,4.014,0,0,0,43,13.6a4.278,4.278,0,0,0-.74-.48L40,11.99,36,9.984,36,10l1.736,2.893a1,1,0,0,1-1.112,1.482l-13.6-3.58C23.013,10.9,23,11,23,11.11V14l-.03.15L38,17.23l2,.41.972.2,3.868.791c.03.01.06.01.09.02Z" style="fill:#bf5d1b"/><path d="M42.981,39.829,21.76,42.32l-1.34,2.55a3.465,3.465,0,0,0-.158.419l17.35-2.263A3,3,0,0,1,41,46v.157l3.84-.787c.03-.01.06-.01.09-.02A3.853,3.853,0,0,0,48,41.64v-2.4Z" style="fill:#c96b1c"/><path d="M44.93,18.65c-.03-.01-.06-.01-.09-.02l-3.868-.791a2.989,2.989,0,0,1-3.36,2.719L20.1,18.274a3.591,3.591,0,0,0,.318.856l1.34,2.55,21.181,2.486L48,24.76v-2.4A3.853,3.853,0,0,0,44.93,18.65Z" style="fill:#c96b1c"/><path d="M41,46.157l-.087.017-.533,2.787a4.111,4.111,0,0,1-2.12,2.926l-1.089.571-.834,1.391L40,52.01l2.26-1.13A4.278,4.278,0,0,0,43,50.4a4.014,4.014,0,0,0,1.38-2.31l.55-2.74c-.03.01-.06.01-.09.02Z" style="fill:#ad5419"/><path d="M39,12.792a4.249,4.249,0,0,1,1.38,2.422l.5,2.606.093.019,3.868.791c.03.01.06.01.09.02l-.55-2.74A4.014,4.014,0,0,0,43,13.6a4.278,4.278,0,0,0-.74-.48L40,11.99,36,9.984,36,10l.966,1.61,1.294.678A4.262,4.262,0,0,1,39,12.792Z" style="fill:#ad5419"/><path d="M44,42.2a4,4,0,0,1-3,3.868v.092l3.84-.787c.03-.01.06-.01.09-.02A3.853,3.853,0,0,0,48,41.64v-2.4l-4,.47Z" style="fill:#bf5d1b"/><path d="M44.93,18.65c-.03-.01-.06-.01-.09-.02l-3.868-.791c-.007.081-.031.156-.045.235l0,.013A4,4,0,0,1,44,21.978v2.313l4,.469v-2.4A3.853,3.853,0,0,0,44.93,18.65Z" style="fill:#bf5d1b"/><path d="M50.2,27.82l-.2-.03-2.35-.29L27,24.89l-2-.25-2-.25-4.25-.54a5.874,5.874,0,0,0-2.48.21,5.983,5.983,0,0,0-4.009,4.032A3,3,0,0,1,15.3,26.33L39.015,28.7a3.316,3.316,0,0,1,0,6.6L15.3,37.67a3,3,0,0,1-3.038-1.762A5.983,5.983,0,0,0,16.27,39.94a5.874,5.874,0,0,0,2.48.21L43,37.09l2-.25,5-.63.2-.03A2,2,0,0,0,52,34.19V29.81A2,2,0,0,0,50.2,27.82Z" style="fill:#bf5d1b"/><path d="M43,37.09,18.75,40.15a5.874,5.874,0,0,1-2.48-.21,3.96,3.96,0,0,0,.966,1.435L40.717,38.02a1.993,1.993,0,0,1,2.264,1.809L48,39.24l.23-.03A2,2,0,0,0,50,37.22V36.21l-5,.63Z" style="fill:#d67626"/><path d="M18.75,23.85l4.25.54,2,.25,2,.25L47.65,27.5l2.35.29V26.78a2,2,0,0,0-1.77-1.99L48,24.76l-5.059-.594a2,2,0,0,1-2.224,1.508L17.538,22.363a3.962,3.962,0,0,0-1.268,1.7A5.874,5.874,0,0,1,18.75,23.85Z" style="fill:#d67626"/><path d="M42.8,11.72A3.218,3.218,0,0,1,40.8,9.071l-.473-4.463A2,2,0,0,0,38.36,3H33a2,2,0,0,0-2,2L28.769,3.512A4.436,4.436,0,0,0,28,5.96l4.01,2.02a2.968,2.968,0,0,1,2.34-2.72A13.42,13.42,0,0,1,37,5c3,0,3,6,3,6v.99l2.26,1.13a4.278,4.278,0,0,1,.74.48q-.01-.914-.069-1.828Z" style="fill:#e4812c"/><path d="M33,61h5.36a2,2,0,0,0,1.962-1.608l.473-4.463A3.218,3.218,0,0,1,42.8,52.28l.13-.052q.057-.914.069-1.828a4.278,4.278,0,0,1-.74.48L40,52.01V53s0,6-3,6a13.42,13.42,0,0,1-2.65-.26,2.968,2.968,0,0,1-2.34-2.72L28,58.04a4.436,4.436,0,0,0,.769,2.448L31,59A2,2,0,0,0,33,61Z" style="fill:#e4812c"/><path d="M50.2,27.82l-.2-.03-2.35-.29-.379-.048A2.667,2.667,0,0,1,48,29.329v5.342a2.665,2.665,0,0,1-.735,1.884L50,36.21l.2-.03A2,2,0,0,0,52,34.19V29.81A2,2,0,0,0,50.2,27.82Z" style="fill:#ad5419"/><path d="M15.009,27.974a2.228,2.228,0,0,0-.9.387.87.87,0,0,0-.326.874,1.149,1.149,0,0,0,.687.638,8.685,8.685,0,0,0,3.92.5q3.317-.107,6.621-.419c.289-.028.654-.127.683-.416.027-.268-.266-.443-.516-.542A17.549,17.549,0,0,0,15.009,27.974Z" style="fill:#f7b64e"/><path d="M31.106,32.378a14.069,14.069,0,0,0-3.216.666c-.436.189-.876.514-.881.946a.965.965,0,0,0,.671.813,3.4,3.4,0,0,0,1.175.171q2.168.053,4.338,0a14.386,14.386,0,0,0,1.937-.141,5.571,5.571,0,0,0,2.718-1.158,3.037,3.037,0,0,0,1.157-2.428,1.488,1.488,0,0,0-.121-.532,1.656,1.656,0,0,0-.351-.47c-.65-.643-2.248-1.534-3.267-1.154-1.113.416-1.123,1.937-2.1,2.572A5.479,5.479,0,0,1,31.106,32.378Z" style="fill:#f7b64e"/><path d="M13.008,33.681a2.788,2.788,0,0,0,.534,1.79,2.244,2.244,0,0,0,2.085.473,1.861,1.861,0,0,0,1.043-.467,1.066,1.066,0,0,0,.314-.538,3.8,3.8,0,0,0-.869-2.222,2.516,2.516,0,0,0-2.178-.7C13.031,32.134,12.971,32.887,13.008,33.681Z" style="fill:#f7b64e"/><path d="M24.061,14.938q-.823-.1-1.652-.167a1.414,1.414,0,0,0-.486.021.955.955,0,0,0-.6.659,2.807,2.807,0,0,0-.069.92.432.432,0,0,0,.065.261.4.4,0,0,0,.145.1,4.848,4.848,0,0,0,1.592.373q1.275.141,2.557.189a.765.765,0,0,0,.4-.057.644.644,0,0,0,.215-.725A2.4,2.4,0,0,0,24.061,14.938Z" style="fill:#ffcb78"/><path d="M25.357,7.961A2.5,2.5,0,0,0,24.7,9.232a.516.516,0,0,0,.033.33.428.428,0,0,0,.152.147,1.5,1.5,0,0,0,.684.177c.844.073,1.694.063,2.541.052a4.72,4.72,0,0,0,.913-.071,1.012,1.012,0,0,0,.455-.2.827.827,0,0,0,.225-.8,1.732,1.732,0,0,0-.427-.75,3.34,3.34,0,0,0-1.941-1.1,1.533,1.533,0,0,0-.989.086A4.588,4.588,0,0,0,25.357,7.961Z" style="fill:#f7b64e"/><path d="M30.747,9.25a1.432,1.432,0,0,0-.58,1.128.6.6,0,0,0,.047.262.719.719,0,0,0,.392.3A7.125,7.125,0,0,0,32,11.384a1.463,1.463,0,0,0,1.338-.208A1.063,1.063,0,0,0,33.3,9.8,2.077,2.077,0,0,0,30.747,9.25Z" style="fill:#f7b64e"/><path d="M24.061,48.34q-.823.1-1.652.167a1.39,1.39,0,0,1-.486-.021.955.955,0,0,1-.6-.658,2.815,2.815,0,0,1-.069-.921.434.434,0,0,1,.065-.261.4.4,0,0,1,.145-.1,4.848,4.848,0,0,1,1.592-.373q1.275-.141,2.557-.189a.765.765,0,0,1,.4.057.644.644,0,0,1,.215.725A2.4,2.4,0,0,1,24.061,48.34Z" style="fill:#ffcb78"/><path d="M25.357,55.317a2.5,2.5,0,0,1-.656-1.27.519.519,0,0,1,.033-.331.428.428,0,0,1,.152-.147,1.5,1.5,0,0,1,.684-.177c.844-.073,1.694-.063,2.541-.052a4.72,4.72,0,0,1,.913.071,1.012,1.012,0,0,1,.455.2.827.827,0,0,1,.225.8,1.732,1.732,0,0,1-.427.75,3.34,3.34,0,0,1-1.941,1.1,1.533,1.533,0,0,1-.989-.086A4.588,4.588,0,0,1,25.357,55.317Z" style="fill:#f7b64e"/><path d="M30.747,54.028a1.432,1.432,0,0,1-.58-1.127.6.6,0,0,1,.047-.263.719.719,0,0,1,.392-.3A7.125,7.125,0,0,1,32,51.894a1.463,1.463,0,0,1,1.338.208,1.063,1.063,0,0,1-.032,1.38A2.077,2.077,0,0,1,30.747,54.028Z" style="fill:#f7b64e"/><path d="M29,25.145,50.2,27.82A2,2,0,0,1,52,29.81v4.38a2,2,0,0,1-1.8,1.99l-5.2.656" style="fill:none;stroke:#000;stroke-linejoin:round;stroke-width:2px"/><line x1="25" y1="24.64" x2="27.001" y2="24.893" style="fill:none;stroke:#000;stroke-linejoin:round;stroke-width:2px"/><path d="M43,37.089,18.751,40.148A6,6,0,0,1,12,34.2v-4.39a6,6,0,0,1,6.751-5.953L23,24.388" style="fill:none;stroke:#000;stroke-linejoin:round;stroke-width:2px"/><path d="M16.27,24.06a4,4,0,0,1,4.2-2.53l1.29.15L48,24.76l.23.03A2,2,0,0,1,50,26.78v1.01" style="fill:none;stroke:#000;stroke-linejoin:round;stroke-width:2px"/><path d="M50,36.21v1.01a2,2,0,0,1-1.77,1.99l-.23.03L21.76,42.32l-1.29.15a4,4,0,0,1-4.2-2.53" style="fill:none;stroke:#000;stroke-linejoin:round;stroke-width:2px"/><path d="M40,17.639l4.841.991c.03.01.06.01.09.02A3.853,3.853,0,0,1,48,22.36v2.4" style="fill:none;stroke:#000;stroke-linejoin:round;stroke-width:2px"/><path d="M21.76,21.68l-1.34-2.55A3.664,3.664,0,0,1,20,17.42V15.91a1.978,1.978,0,0,1,2.42-1.87L38,17.23" style="fill:none;stroke:#000;stroke-linejoin:round;stroke-width:2px"/><path d="M23,14V11.108a4,4,0,0,1,.57-2.058l1.5-2.5a2,2,0,0,1,2.571-.779l14.619,7.348a4,4,0,0,1,2.126,2.789L45,19" style="fill:none;stroke:#000;stroke-linejoin:round;stroke-width:2px"/><path d="M28,6h0a4.47,4.47,0,0,1,3.976-4.442L36,1h1.791A4,4,0,0,1,41.7,4.132l.447,2.01A35.989,35.989,0,0,1,43,13.952V14" style="fill:none;stroke:#000;stroke-linejoin:round;stroke-width:2px"/><path d="M32.006,8A2.968,2.968,0,0,1,34.35,5.263,13.441,13.441,0,0,1,37,5c3,0,3,6,3,6v1" style="fill:none;stroke:#000;stroke-linejoin:round;stroke-width:2px"/><path d="M28,48.818,44.84,45.37c.03-.01.06-.01.09-.02A3.853,3.853,0,0,0,48,41.64v-2.4" style="fill:none;stroke:#000;stroke-linejoin:round;stroke-width:2px"/><path d="M21.76,42.32l-1.34,2.55A3.664,3.664,0,0,0,20,46.58v1.51a1.978,1.978,0,0,0,2.42,1.87L26,49.227" style="fill:none;stroke:#000;stroke-linejoin:round;stroke-width:2px"/><path d="M23,50v2.892a4,4,0,0,0,.57,2.058l1.5,2.495a2,2,0,0,0,2.571.779l14.619-7.348a4,4,0,0,0,2.126-2.789L45,45" style="fill:none;stroke:#000;stroke-linejoin:round;stroke-width:2px"/><path d="M28,58h0a4.47,4.47,0,0,0,3.976,4.442L36,63h1.791A4,4,0,0,0,41.7,59.868l.447-2.01A35.989,35.989,0,0,0,43,50.048V50" style="fill:none;stroke:#000;stroke-linejoin:round;stroke-width:2px"/><path d="M32.006,56a2.968,2.968,0,0,0,2.344,2.737A13.441,13.441,0,0,0,37,59c3,0,3-6,3-6V52" style="fill:none;stroke:#000;stroke-linejoin:round;stroke-width:2px"/></g></svg>