<svg xmlns="http://www.w3.org/2000/svg" viewBox="0 0 64 64"><g id="_11-Croissant" data-name="11-Croissant"><path d="M15.18,55.41s3.7-11.1,20.83-11.38A3.965,3.965,0,0,0,37.68,47H37C25.45,47,22.08,58.23,21.58,60.18h-.01a20.023,20.023,0,0,1-6.58-4.59Z" style="fill:#f7b64e"/><path d="M40.4,48.23c-.37,1.85-1.57,9.61,3.22,14.18A35.112,35.112,0,0,1,37,63c-6.72,0-11.72-1.15-15.42-2.82C22.08,58.23,25.45,47,37,47h.68a3.356,3.356,0,0,0,.57.35A17.342,17.342,0,0,0,40.4,48.23Z" style="fill:#d17824"/><path d="M36.01,44.03c-17.13.28-20.83,11.38-20.83,11.38l-.19.18a15.1,15.1,0,0,1-3.95-7.53C14.24,45.31,24.42,37.82,36,42v1.75A2.62,2.62,0,0,0,36.01,44.03Z" style="fill:#eea439"/><path d="M57.64,13.04c-1.89.28-10.67,2.02-11.63,10.85-.27-.37-.61-.79-1.01-1.26A33.475,33.475,0,0,1,49.95,5.06,32.488,32.488,0,0,1,57.64,13.04Z" style="fill:#d17824"/><path d="M44.29,49.08S43.16,56.98,50.5,60a22.462,22.462,0,0,1-6.88,2.41c-4.79-4.57-3.59-12.33-3.22-14.18a14.6,14.6,0,0,0,3.9.75Z" style="fill:#eea439"/><path d="M62.55,21.1A4.01,4.01,0,0,1,63,22.95,4.029,4.029,0,0,1,58.95,27H57.12a4.03,4.03,0,0,1-2.08-.58l-2.61-1.56A7.3,7.3,0,0,0,49,24H47a25.364,25.364,0,0,1,13-7h.25C61.3,18.74,62.09,20.22,62.55,21.1Z" style="fill:#d17824"/><path d="M56.83,52.76a10.894,10.894,0,0,1-2.29,4.03l-.13-.12c-7.59-1.26-7.59-7.59-7.59-7.59l-.03-.19a10.017,10.017,0,0,0,4.54-1.66,2.033,2.033,0,0,1,2.01-.13l1.18.58A4.334,4.334,0,0,1,56.83,52.76Z" style="fill:#d17824"/><path d="M46.82,49.08s0,6.33,7.59,7.59l.13.12A15.282,15.282,0,0,1,50.51,60H50.5c-7.34-3.02-6.21-10.92-6.21-10.92l.01-.1c.23.01.46.02.7.02a13.98,13.98,0,0,0,1.79-.11Z" style="fill:#f7b64e"/><path d="M60,17a25.364,25.364,0,0,0-13,7h-.921a.313.313,0,0,0-.09-.11c.963-8.863,9.775-10.609,11.672-10.89h-.024c1,1.384,1.869,2.768,2.626,4Z" style="fill:#f7b64e"/><path d="M49.95,5.06A33.475,33.475,0,0,0,45,22.63V22a11.875,11.875,0,0,0-3.3-8.3l.06-.05L37,4l1.77-.59A8.028,8.028,0,0,1,41.3,3H44A10.882,10.882,0,0,1,49.95,5.06Z" style="fill:#eea439"/><path d="M6,36.02c-.12.08-.23.15-.34.22C4.82,36.79,4,36.14,4,35V31.09c3.95-2.31,11.4-5.83,20-5.83,8.64,0,16.07,4.12,20,6.8V35c0,1.3-1.19,1.88-2,1-2.39-2.6-6.93-5.9-15.43-5.9A38.837,38.837,0,0,0,6,36.02Z" style="fill:#c96b1c"/><path d="M45,22v.63C41.52,18.51,33.5,11,21.44,11c-8.27,0-13.39,2.57-16.42,5.15.43-.69,7.07-11.13,13.99-12.07A5.51,5.51,0,0,1,20,4c5.91,0,13.55,3.08,20.53,8.63A10.842,10.842,0,0,1,41.7,13.7,11.875,11.875,0,0,1,45,22Z" style="fill:#e58d1f"/><path d="M37,4l4.76,9.65-.06.05a10.842,10.842,0,0,0-1.17-1.07C33.55,7.08,25.91,4,20,4a5.51,5.51,0,0,0-.99.08L19,4l3-2a9.966,9.966,0,0,1,4-1h5C32.85,1,36.11,2.37,37,4Z" style="fill:#f7b64e"/><path d="M42,36c0,4-6,6-6,6-11.58-4.18-21.76,3.31-24.96,6.06C10.36,48.63,10,49,10,49,6.28,45.31,6.01,36.52,6,36.02A38.837,38.837,0,0,1,26.57,30.1C35.07,30.1,39.61,33.4,42,36Z" style="fill:#e58d1f"/><path d="M4,31.09c-.39.23-.75.45-1.07.65A1.271,1.271,0,0,1,1,30.63V21.37a14.08,14.08,0,0,1,4-5.19.124.124,0,0,0,.02-.03C8.05,13.57,13.17,11,21.44,11,33.5,11,41.52,18.51,45,22.63c.4.47.74.89,1.01,1.26a.313.313,0,0,1,.09.11c.6.78.9,1.26.9,1.26V31.7a1.274,1.274,0,0,1-2.01,1.06c-.3-.22-.63-.45-.99-.7-3.93-2.68-11.36-6.8-20-6.8C15.4,25.26,7.95,28.78,4,31.09Z" style="fill:#e58d1f"/><path d="M39.657,33.9c-2.686-1.991-6.8-3.8-13.087-3.8A38.837,38.837,0,0,0,6,36.02c0,.133.027.864.128,1.921A38.825,38.825,0,0,1,26.57,32.1a24.17,24.17,0,0,1,9.15,1.615,2.769,2.769,0,0,1,.325,5.042A2.455,2.455,0,0,1,35,39c-2.851,0-13.833-4.5-26.933,7.066A9.868,9.868,0,0,0,10,49s.36-.37,1.04-.94C14.24,45.31,24.42,37.82,36,42c0,0,6-2,6-6A16.679,16.679,0,0,0,39.657,33.9Z" style="fill:#bf5d1b"/><path d="M33,47.5a15.688,15.688,0,0,1,4-.5h.68a3.965,3.965,0,0,1-1.67-2.97,35.383,35.383,0,0,0-4.535.357A10.442,10.442,0,0,0,33,47.5Z" style="fill:#e58d1f"/><path d="M44,52c.124,0,.237-.009.358-.011a11.649,11.649,0,0,1-.068-2.909l.01-.1a14.6,14.6,0,0,1-3.9-.75,22.369,22.369,0,0,0-.388,3.4A20.463,20.463,0,0,0,44,52Z" style="fill:#d4821d"/><path d="M47.426,51.684a9.212,9.212,0,0,0,6.548-4.273L53.34,47.1a2.033,2.033,0,0,0-2.01.13,10.017,10.017,0,0,1-4.54,1.66l.03.19A7.5,7.5,0,0,0,47.426,51.684Z" style="fill:#bf5d1b"/><path d="M44.358,51.989a17.473,17.473,0,0,0,3.068-.3,7.5,7.5,0,0,1-.606-2.6l-.03-.19A13.98,13.98,0,0,1,45,49c-.24,0-.47-.01-.7-.02l-.01.1A11.649,11.649,0,0,0,44.358,51.989Z" style="fill:#e58d1f"/><path d="M33,47.5a10.821,10.821,0,0,0,7.008,4.137,22.369,22.369,0,0,1,.388-3.4,17.342,17.342,0,0,1-2.15-.88,3.356,3.356,0,0,1-.57-.35H37A15.688,15.688,0,0,0,33,47.5Z" style="fill:#bf5d1b"/><path d="M36,43.75V42c-11.58-4.18-21.76,3.31-24.96,6.06a12.717,12.717,0,0,0,.884,2.882,33.085,33.085,0,0,1,12.742-7.881A7.262,7.262,0,0,1,31.5,44.382a35.207,35.207,0,0,1,4.508-.352A2.62,2.62,0,0,1,36,43.75Z" style="fill:#854920"/><path d="M24,25.26c-8.6,0-16.05,3.52-20,5.83v2.559c3.9-2.471,12.95-7.4,22-6.649a30.543,30.543,0,0,1,10.057,2.355,8.386,8.386,0,0,1,4.619,5.362A16.7,16.7,0,0,1,42,36c.81.88,2,.3,2-1V32.06C40.07,29.38,32.64,25.26,24,25.26Z" style="fill:#854920"/><path d="M46.1,24a.313.313,0,0,0-.09-.11c-.27-.37-.61-.79-1.01-1.26A36.423,36.423,0,0,0,42,19.5v3.965a2,2,0,0,1-2.925,1.771C33.3,22.247,19.382,18.335,1,27.5V30.63a1.271,1.271,0,0,0,1.93,1.11c.32-.2.68-.42,1.07-.65,3.95-2.31,11.4-5.83,20-5.83,8.64,0,16.07,4.12,20,6.8.36.25.69.48.99.7A1.274,1.274,0,0,0,47,31.7V25.26S46.7,24.78,46.1,24Z" style="fill:#bf5d1b"/><path d="M41.761,13.77a1.981,1.981,0,0,1-2.886.727A34.782,34.782,0,0,0,26,9c-5.589-1.118-12.426.576-17.371,2.287A44.357,44.357,0,0,0,5.02,16.15C8.05,13.57,13.17,11,21.44,11,33.5,11,41.52,18.51,45,22.63V22A11.875,11.875,0,0,0,41.761,13.77Z" style="fill:#bf5d1b"/><path d="M38.48,7h-.891A3.019,3.019,0,0,1,35.27,5.989c-1.474-1.749-4.082-2.911-6.6-3.67a24.625,24.625,0,0,0-5.015-.953A6.087,6.087,0,0,0,22,2L19,4l.01.08A5.51,5.51,0,0,1,20,4c5.91,0,13.55,3.08,20.53,8.63A10.842,10.842,0,0,1,41.7,13.7l.06-.05Z" style="fill:#d17824"/><path d="M46.136,14.471c-.032-.012-.061-.029-.092-.042A35.7,35.7,0,0,0,45,22.63c.4.47.74.89,1.01,1.26a11.035,11.035,0,0,1,3.44-7.075A8.4,8.4,0,0,0,46.136,14.471Z" style="fill:#bf5d1b"/><path d="M52.958,22.375a1.946,1.946,0,0,1-1.2-1.242c-.078-.251-.16-.492-.246-.726A25.725,25.725,0,0,0,47,24h2a7.3,7.3,0,0,1,3.43.86l2.61,1.56a4.03,4.03,0,0,0,2.08.58h1.83A3.958,3.958,0,0,0,62.8,24.158C59.131,24.451,54.834,23.068,52.958,22.375Z" style="fill:#bf5d1b"/><path d="M49.45,16.815a11.035,11.035,0,0,0-3.44,7.075.313.313,0,0,1,.09.11H47a25.725,25.725,0,0,1,4.513-3.593A11.224,11.224,0,0,0,49.45,16.815Z" style="fill:#d4821d"/><path d="M43.562,11.374,42.167,3H41.3a8.028,8.028,0,0,0-2.53.41L37,4l4.76,9.65-.06.05A11.875,11.875,0,0,1,45,22v.63a35.7,35.7,0,0,1,1.044-8.2A4.036,4.036,0,0,1,43.562,11.374Z" style="fill:#854920"/><path d="M21.507,13.611a20.873,20.873,0,0,0-5.969-.589,13.164,13.164,0,0,0-5.248,1.733,15.871,15.871,0,0,0-3.758,2.719,5.834,5.834,0,0,0-1.35,1.688,1.448,1.448,0,0,0-.153.946c.164.653.956.9,1.619.892,1.988-.027,3.725-1.288,5.594-1.978,2.731-1.008,5.772-.794,8.54-1.694A3.641,3.641,0,0,0,22.623,16.2a1.641,1.641,0,0,0,.04-2.038A2.263,2.263,0,0,0,21.507,13.611Z" style="fill:#f7b64e"/><path d="M24.7,13.805A1.509,1.509,0,0,0,24,15.11a1.46,1.46,0,0,0,.394.86,3.057,3.057,0,0,0,1.939.956,6.591,6.591,0,0,0,2.215-.042,1.8,1.8,0,0,0,.935-.407A1.714,1.714,0,0,0,30,15.254c.013-1.561-1.452-2.036-2.188-2.182A3.959,3.959,0,0,0,24.7,13.805Z" style="fill:#f7b64e"/><path d="M34.476,19.69a1.6,1.6,0,0,0-.925,1.792,1.742,1.742,0,0,0,.885.949,13.161,13.161,0,0,0,3.313,1.389c.885.233,1.944.437,2.472-.728a4.485,4.485,0,0,0,.259-2.116,4.839,4.839,0,0,0-.533-2.128,1.4,1.4,0,0,0-1.582-.79c-.632.232-1.015.992-1.652,1.216C35.985,19.53,35.2,19.385,34.476,19.69Z" style="fill:#f7b64e"/><path d="M11.416,36.078a3.085,3.085,0,0,0-.767.438,2.666,2.666,0,0,0-.616,2.378,2.29,2.29,0,0,0,.886,1.886,2.771,2.771,0,0,0,2.127.01c2.34-.678,4.512-1.809,6.893-2.354.443-.1.891-.183,1.329-.3a1.183,1.183,0,0,0,.513-.237A.75.75,0,0,0,22,37.4a1.69,1.69,0,0,0-.68-1.372,6.116,6.116,0,0,0-3.617-1,15.949,15.949,0,0,0-4.2.319A10.937,10.937,0,0,0,11.416,36.078Z" style="fill:#f7b64e"/><path d="M24.119,35.046a1.932,1.932,0,0,0-.538.127.927.927,0,0,0-.528.631.884.884,0,0,0,.061.75,1.194,1.194,0,0,0,.332.232,4.728,4.728,0,0,0,2.65.045,1.787,1.787,0,0,0,.582-.2.682.682,0,0,0,.07-1.11A3.6,3.6,0,0,0,24.119,35.046Z" style="fill:#f7b64e"/><path d="M38.711,57.99a2.028,2.028,0,0,0-1.146-.568c-1.493-.065-3.047.069-4.538.134a15.944,15.944,0,0,1-3.739-.279,12.882,12.882,0,0,0-1.771-.272,3.1,3.1,0,0,0-1.717.352,1.576,1.576,0,0,0-.8,1.28.766.766,0,0,0,.122.463,1.184,1.184,0,0,0,.372.306,10.317,10.317,0,0,0,3.829,1.126A46.207,46.207,0,0,0,35.647,61a3.985,3.985,0,0,0,2.805-.723,1.955,1.955,0,0,0,.517-1.087A1.412,1.412,0,0,0,38.711,57.99Z" style="fill:#f7b64e"/><path d="M17.936,53.436a2.305,2.305,0,0,0,.941,1.8,3.481,3.481,0,0,0,1.711.981.97.97,0,0,0,.868-.2,1.241,1.241,0,0,0,.24-.475,7.63,7.63,0,0,0,.434-1.822c.085-1.139-.544-2.618-1.885-2.637a1.907,1.907,0,0,0-1.27.751A2.991,2.991,0,0,0,17.936,53.436Z" style="fill:#ffcb78"/><path d="M16.649,5.907a1.484,1.484,0,0,0-.576.412.3.3,0,0,0-.055.29c.065.153.289.231.5.277A4.811,4.811,0,0,0,17.755,7a9.792,9.792,0,0,0,1.161-.144l2.01-.335a1.54,1.54,0,0,0,1-.415c.2-.291-.036-.666-.41-.841C20.116,4.606,17.865,5.32,16.649,5.907Z" style="fill:#f7b64e"/><path d="M43.612,5.466a1.052,1.052,0,0,0,.72.746,4.838,4.838,0,0,0,1.069.18,5.616,5.616,0,0,1,1.546.429c.378.167.83.373,1.173.144a.733.733,0,0,0,.272-.38c.465-1.36-1.3-1.884-2.229-2.162C45.391,4.192,43.393,4.186,43.612,5.466Z" style="fill:#f7b64e"/><path d="M49.705,8.6a3.09,3.09,0,0,0,.7.9,14.1,14.1,0,0,0,2.566,1.969c.321.192.756.363,1.04.12a.7.7,0,0,0,.208-.462,2.247,2.247,0,0,0-.492-1.45,8.143,8.143,0,0,0-2.474-2.229c-.388-.251-.668-.507-1.15-.285A1.042,1.042,0,0,0,49.705,8.6Z" style="fill:#f7b64e"/><path d="M36,15.011A28.556,28.556,0,0,0,21.444,11C4.833,11,1,21.372,1,21.372v9.256a1.272,1.272,0,0,0,1.934,1.111A45.85,45.85,0,0,1,8.035,29" style="fill:none;stroke:#000;stroke-linejoin:round;stroke-width:2px"/><path d="M14,26.76a35.671,35.671,0,0,1,10-1.5c9.431,0,17.415,4.895,20.991,7.495A1.271,1.271,0,0,0,47,31.7V25.262A34.636,34.636,0,0,0,37.586,16" style="fill:none;stroke:#000;stroke-linejoin:round;stroke-width:2px"/><path d="M10,28.153q.962-.389,2-.752" style="fill:none;stroke:#000;stroke-linejoin:round;stroke-width:2px"/><path d="M4,31v4c0,1.14.82,1.792,1.663,1.24A38.708,38.708,0,0,1,26.571,30.1C35.074,30.1,39.612,33.4,42,36c.808.881,2,.3,2-1V32" style="fill:none;stroke:#000;stroke-linejoin:round;stroke-width:2px"/><path d="M31,40.862A20.766,20.766,0,0,1,36,42s6-2,6-6" style="fill:none;stroke:#000;stroke-linejoin:round;stroke-width:2px"/><path d="M6,36s.172,9.2,4,13c0,0,8.207-8.273,19-8.24" style="fill:none;stroke:#000;stroke-linejoin:round;stroke-width:2px"/><path d="M11.04,48.06c.22,1.37,1.77,8.19,10.53,12.12C25.27,61.85,30.27,63,37,63a35.112,35.112,0,0,0,6.62-.59A22.462,22.462,0,0,0,50.5,60h.01a12.794,12.794,0,0,0,6.32-7.24,4.334,4.334,0,0,0-2.31-5.08l-1.18-.58a2.033,2.033,0,0,0-2.01.13A10.618,10.618,0,0,1,45,49a14.657,14.657,0,0,1-4.6-.77,17.342,17.342,0,0,1-2.15-.88,4,4,0,0,1-2.24-3.32,2.62,2.62,0,0,1-.01-.28V42" style="fill:none;stroke:#000;stroke-linejoin:round;stroke-width:2px"/><path d="M23.181,56a21.345,21.345,0,0,0-1.6,4.18c-.05.19-.07.29-.07.29" style="fill:none;stroke:#000;stroke-linejoin:round;stroke-width:2px"/><path d="M37.68,47H37a14.715,14.715,0,0,0-13,7.529" style="fill:none;stroke:#000;stroke-linejoin:round;stroke-width:2px"/><path d="M15.18,55.41s3.7-11.1,20.83-11.38" style="fill:none;stroke:#000;stroke-linejoin:round;stroke-width:2px"/><path d="M43.62,62.41c-4.79-4.57-3.59-12.33-3.22-14.18" style="fill:none;stroke:#000;stroke-linejoin:round;stroke-width:2px"/><path d="M50.51,60c-7.35-3.01-6.22-10.92-6.22-10.92" style="fill:none;stroke:#000;stroke-linejoin:round;stroke-width:2px"/><path d="M46.816,49.082s0,6.326,7.592,7.591" style="fill:none;stroke:#000;stroke-linejoin:round;stroke-width:2px"/><path d="M5,16.18a.124.124,0,0,0,.02-.03C5.47,15.43,12.74,4,20,4c5.91,0,13.55,3.08,20.53,8.63A11.863,11.863,0,0,1,45,22v.63" style="fill:none;stroke:#000;stroke-linejoin:round;stroke-width:2px"/><path d="M19,4l3-2a9.913,9.913,0,0,1,4-1h5c1.852,0,5.113,1.374,6,3l4.755,9.653" style="fill:none;stroke:#000;stroke-linejoin:round;stroke-width:2px"/><path d="M47,24a25.364,25.364,0,0,1,13-7h.25" style="fill:none;stroke:#000;stroke-linejoin:round;stroke-width:2px"/><path d="M45,22.63A33.475,33.475,0,0,1,49.95,5.06" style="fill:none;stroke:#000;stroke-linejoin:round;stroke-width:2px"/><path d="M46.1,24H49a7.3,7.3,0,0,1,3.43.86l2.61,1.56a4.03,4.03,0,0,0,2.08.58h1.83A4.029,4.029,0,0,0,63,22.95a4.01,4.01,0,0,0-.45-1.85,68.449,68.449,0,0,0-4.9-8.06h-.01a32.488,32.488,0,0,0-7.69-7.98A10.882,10.882,0,0,0,44,3H41.3a8.028,8.028,0,0,0-2.53.41L37,4" style="fill:none;stroke:#000;stroke-linejoin:round;stroke-width:2px"/><path d="M50.4,16a11.058,11.058,0,0,0-4.387,7.89" style="fill:none;stroke:#000;stroke-linejoin:round;stroke-width:2px"/><path d="M57.65,13.04h-.01A17.193,17.193,0,0,0,52,14.951" style="fill:none;stroke:#000;stroke-linejoin:round;stroke-width:2px"/></g></svg>