<svg xmlns="http://www.w3.org/2000/svg" viewBox="0 0 64 64"><g id="_14-Croissant_pie" data-name="14-Croissant pie"><path d="M63,50.66v3.42a5.942,5.942,0,0,1-1.12,3.48L58.9,61.74A3.019,3.019,0,0,1,56.46,63H55a3,3,0,0,1-3-3V59l6.69-11.04a8.354,8.354,0,0,0,1.34-3.92l2.11,3.53A6.024,6.024,0,0,1,63,50.66Z" style="fill:#e58d1f"/><path d="M60.03,44.04a8.354,8.354,0,0,1-1.34,3.92L52,59l-2-3a17.975,17.975,0,0,0-2-1l-.08-.09a2.4,2.4,0,0,0,.24-.22l6.47-6.79c2.23-2.23,4.39-6.57,5.37-8.9v3.52A9.647,9.647,0,0,1,60.03,44.04Z" style="fill:#bf5d1b"/><path d="M49.14,43.6a18.46,18.46,0,0,0,1.7-5.94C52.31,30.93,52.51,23.77,51,20c-1.64-4.11-5.99-6.87-7.48-7.72a1.3,1.3,0,0,0-.08-.17,9.456,9.456,0,0,0-2.12-3.06l.7.1a21.216,21.216,0,0,1,15.21,10.1,17.355,17.355,0,0,1,2.24,6.72,62.6,62.6,0,0,1,.53,8.1V39c-.98,2.33-3.14,6.67-5.37,8.9l-6.47,6.79a2.4,2.4,0,0,1-.24.22,3.992,3.992,0,0,1-5.78-.48L41,53l4-3A29.62,29.62,0,0,0,49.14,43.6Z" style="fill:#e58d1f"/><path d="M50.94,36.02c.07-4.28-1.45-9.22-5.94-14.71A44.046,44.046,0,0,0,42,18l.57-.28a4.72,4.72,0,0,0,.95-5.44c1.49.85,5.84,3.61,7.48,7.72,1.51,3.77,1.31,10.93-.16,17.66A12.563,12.563,0,0,0,50.94,36.02Z" style="fill:#854920"/><path d="M45,21.31c4.49,5.49,6.01,10.43,5.94,14.71a29.067,29.067,0,0,1-8.63,1.72C45.95,34.63,45,28,45,28Z" style="fill:#a65117"/><path d="M42.31,37.74C38.45,37.86,34.27,36.9,32,33a20.842,20.842,0,0,1-1.92-4.29A15.442,15.442,0,0,1,34,13v-.14a8.952,8.952,0,0,0-3.01.03c-3.31.6-6.93,2.74-10.04,5.04L21,18V38.35a5,5,0,0,0,3.48,4.76L45,50a29.62,29.62,0,0,0,4.14-6.4,18.46,18.46,0,0,0,1.7-5.94,12.563,12.563,0,0,0,.1-1.64A29.067,29.067,0,0,1,42.31,37.74Z" style="fill:#e58d1f"/><path d="M45,28s.95,6.63-2.69,9.74C38.45,37.86,34.27,36.9,32,33a20.842,20.842,0,0,1-1.92-4.29C30.4,27.65,31.88,24,37,24,43,24,45,28,45,28Z" style="fill:#d17824"/><path d="M45,21.31V28s-2-4-8-4c-5.12,0-6.6,3.65-6.92,4.71A15.442,15.442,0,0,1,34,13v-.14a9.689,9.689,0,0,1,5.36,2.72L42,18A44.046,44.046,0,0,1,45,21.31Z" style="fill:#bf5d1b"/><path d="M45,50l-4,3L21.39,49.58A8.4,8.4,0,0,1,15,42l1-19.97a63.9,63.9,0,0,1,4.95-4.1L21,18V38.35a5,5,0,0,0,3.48,4.76Z" style="fill:#ffcd8e"/><path d="M43.52,12.28a4.72,4.72,0,0,1-.95,5.44L42,18l-2.64-2.42A9.689,9.689,0,0,0,34,12.86a8.952,8.952,0,0,0-3.01.03c-3.31.6-6.93,2.74-10.04,5.04A63.9,63.9,0,0,0,16,22.03c-.52.48-.98.91-1.36,1.29a2.427,2.427,0,0,1-3.39-.02L8.71,20.78a2.354,2.354,0,0,1-.7-1.92,2.416,2.416,0,0,1,.7-1.47L16.4,9.77a21.352,21.352,0,0,1,6.79-4.55,15.811,15.811,0,0,1,4.82-1.17c.44-.03.87-.05,1.31-.05A16.95,16.95,0,0,1,41.19,8.92a1.593,1.593,0,0,1,.13.13,9.456,9.456,0,0,1,2.12,3.06A1.3,1.3,0,0,1,43.52,12.28Z" style="fill:#c96b1c"/><path d="M19.93,3.96A7.375,7.375,0,0,1,20.98,4L28,3.95l.01.1a15.811,15.811,0,0,0-4.82,1.17A21.352,21.352,0,0,0,16.4,9.77L8.71,17.39a2.416,2.416,0,0,0-.7,1.47H8a12.752,12.752,0,0,0-1-4.91l-2-1.7L5.38,12,15.54,5.31A8.161,8.161,0,0,1,19.93,3.96Z" style="fill:#bf5d1b"/><path d="M16.43,1.86l3.5,2.1a8.161,8.161,0,0,0-4.39,1.35L5.38,12H4A3,3,0,0,1,1,9V7.54A3.019,3.019,0,0,1,2.26,5.1L6.44,2.12A5.942,5.942,0,0,1,9.92,1h3.42A6.024,6.024,0,0,1,16.43,1.86Z" style="fill:#e58d1f"/><path d="M34,10c-6.477-1.439-14.508,4.891-18.5,8.552a4,4,0,0,1-5.274.135L8.693,17.411A2.407,2.407,0,0,0,8.01,18.86a2.354,2.354,0,0,0,.7,1.92l2.54,2.52a2.427,2.427,0,0,0,3.39.02c.38-.38.84-.81,1.36-1.29a63.9,63.9,0,0,1,4.95-4.1c3.11-2.3,6.73-4.44,10.04-5.04A8.952,8.952,0,0,1,34,12.86a9.689,9.689,0,0,1,5.36,2.72L42,18l.57-.28A4.757,4.757,0,0,0,43.9,13.428C41.366,14.636,41.4,11.644,34,10Z" style="fill:#e58d1f"/><path d="M17.035,2.223C12.108,3.294,8.659,8,6,8,3.991,8,2.882,6.209,2.367,5.024L2.26,5.1A3.019,3.019,0,0,0,1,7.54V9a3,3,0,0,0,3,3H5.38L15.54,5.31a8.161,8.161,0,0,1,4.39-1.35Z" style="fill:#bf5d1b"/><path d="M11.956,10.094l8.622-5.969c-.216-.012-.432-.031-.648-.025a8.161,8.161,0,0,0-4.39,1.35L5.38,12.14,5,12.39l2,1.7A12.752,12.752,0,0,1,8,19h.01a2.416,2.416,0,0,1,.7-1.47L11.563,14.7l-.021-.021A3,3,0,0,1,11.956,10.094Z" style="fill:#854920"/><path d="M24.113,12.207C27.349,10.439,30.856,9.3,34,10c.29.065.55.134.818.2a4.6,4.6,0,0,0,.929-4.9A16.743,16.743,0,0,0,29.32,4c-.44,0-.87.02-1.31.05a15.811,15.811,0,0,0-4.82,1.17q-.78.329-1.566.738A7.928,7.928,0,0,0,24.113,12.207Z" style="fill:#e58d1f"/><path d="M13.286,22.74C15.208,21,26.52,11,32,11c5.133,0,8.713,3.551,9.71,4.662a3.415,3.415,0,0,0-.878-2.841A18.58,18.58,0,0,0,34,10c-6.477-1.439-14.508,4.891-18.5,8.552A4,4,0,0,1,12.714,19.6,3,3,0,0,0,13.286,22.74Z" style="fill:#ffcd8e"/><path d="M32,11c-5.48,0-16.792,10-18.714,11.74a4.8,4.8,0,0,0,1.008.856,2.367,2.367,0,0,0,.346-.276c.38-.38.84-.81,1.36-1.29a63.9,63.9,0,0,1,4.95-4.1c3.11-2.3,6.73-4.44,10.04-5.04A8.952,8.952,0,0,1,34,12.86a9.689,9.689,0,0,1,5.36,2.72l1.624,1.488a3.273,3.273,0,0,0,.726-1.406C40.713,14.551,37.133,11,32,11Z" style="fill:#f7b64e"/><path d="M47.243,51.447C51.109,48.427,53.573,43.779,55,37c3.222-15.306-3.938-21.526-6.845-23.367a1.987,1.987,0,0,1-.868-2.07l.175-.872A21.143,21.143,0,0,0,42.02,9.15l-.7-.1a9.456,9.456,0,0,1,2.12,3.06,1.3,1.3,0,0,1,.08.17c1.49.85,5.84,3.61,7.48,7.72,1.51,3.77,1.31,10.93-.16,17.66a18.46,18.46,0,0,1-1.7,5.94A29.62,29.62,0,0,1,45,50l-4,3,1.14,1.43A3.985,3.985,0,0,0,47.8,55l-.492-.352A2,2,0,0,1,47.243,51.447Z" style="fill:#d17824"/><path d="M53.548,52.01l2.559-3.291a9.673,9.673,0,0,0,2.029-5.876A23.222,23.222,0,0,1,54.63,47.9l-6.47,6.79a2.4,2.4,0,0,1-.24.22L48,55a17.975,17.975,0,0,1,2,1l2,3,1.37-2.26-.243-.485A4,4,0,0,1,53.548,52.01Z" style="fill:#854920"/><path d="M57.76,56.119a53.875,53.875,0,0,0,4.164-8.91L60.03,44.04a8.354,8.354,0,0,1-1.34,3.92L52,59v1a3,3,0,0,0,3,3h1.46a3.019,3.019,0,0,0,2.44-1.26l.818-1.147-.536-.229A2.993,2.993,0,0,1,57.76,56.119Z" style="fill:#a65117"/><path d="M44.54,34.123C40.53,34.255,36.007,33.512,34,30a8.571,8.571,0,0,1-.989-5.012A6.622,6.622,0,0,0,30.08,28.71,20.842,20.842,0,0,0,32,33c2.27,3.9,6.45,4.86,10.31,4.74A7.572,7.572,0,0,0,44.54,34.123Z" style="fill:#c96b1c"/><path d="M32.982,26.059A9.348,9.348,0,0,1,34,26a9.719,9.719,0,0,1,6.25,2,5.087,5.087,0,0,1,1.858,4.013,16.684,16.684,0,0,1-.137,2.056,23.282,23.282,0,0,0,2.569.054A16,16,0,0,0,45,28s-2-4-8-4a7.7,7.7,0,0,0-3.989.992C32.983,25.35,32.975,25.705,32.982,26.059Z" style="fill:#e58d1f"/><path d="M42,18l-2.64-2.42A9.689,9.689,0,0,0,34,12.86V13a15.442,15.442,0,0,0-3.92,15.71,6.641,6.641,0,0,1,2.767-3.622,17.915,17.915,0,0,1,1.12-5.964,2,2,0,0,1,2.919-.945l4.7,2.94A3,3,0,0,1,43,23.663v2.152A7.054,7.054,0,0,1,45,28V21.31A44.046,44.046,0,0,0,42,18Z" style="fill:#854920"/><path d="M19,40.046a4,4,0,0,0,2.824,3.823l.884.3.432-1.726A5,5,0,0,1,21.052,39H19Z" style="fill:#ffd8a8"/><path d="M21.052,39A5,5,0,0,1,21,38.35V18l-.05-.07c-.681.507-1.326,1.017-1.95,1.522V39Z" style="fill:#f4b774"/><path d="M24.48,43.11a4.992,4.992,0,0,1-1.34-.67l-.432,1.726,20.761,6.983L45,50Z" style="fill:#f4b774"/><path d="M19,40.046V39H17v3a4.373,4.373,0,0,0,3,4c.376.125,1.105.347,2.091.636l.617-2.47-.884-.3A4,4,0,0,1,19,40.046Z" style="fill:#ffe9cf"/><path d="M22.091,46.636c4.145,1.213,12.936,3.639,20.226,5.376l1.152-.863L22.708,44.166Z" style="fill:#ffcd8e"/><path d="M19,39V19.452c-.713.577-1.39,1.146-2,1.682V39Z" style="fill:#ffcd8e"/><path d="M21.357,49.572l.033.008L41,53l1.317-.988c-7.29-1.737-16.081-4.163-20.226-5.376Z" style="fill:#f4b774"/><path d="M20,46a4.373,4.373,0,0,1-3-4V39H15.15L15,42a8.4,8.4,0,0,0,6.357,7.572l.734-2.936C21.105,46.347,20.376,46.125,20,46Z" style="fill:#ffd8a8"/><path d="M17,21.134c-.352.31-.689.611-1,.9L15.15,39H17Z" style="fill:#f4b774"/><path d="M34,13v-.14a8.952,8.952,0,0,0-3.01.03c-3.31.6-6.93,2.74-10.04,5.04L21,18v2.847c2.446-2.173,6.208-4.678,10.607-4.823A14.412,14.412,0,0,1,34,13Z" style="fill:#c96b1c"/><path d="M46.183,37.31c.07,3.121-.479,8.621-4.743,11.495L45,50a29.62,29.62,0,0,0,4.14-6.4,18.46,18.46,0,0,0,1.7-5.94,12.563,12.563,0,0,0,.1-1.64A29.421,29.421,0,0,1,46.183,37.31Z" style="fill:#c96b1c"/><path d="M31.285,40.422a2.544,2.544,0,0,0-1.89.625.856.856,0,0,0-.115.8c.384,1.455,2.282,1.8,3.507,2.209a47.548,47.548,0,0,0,4.987,1.363,5.976,5.976,0,0,0,2.6.147,2.223,2.223,0,0,0,1.774-1.717,2.114,2.114,0,0,0-.73-1.768,4.448,4.448,0,0,0-1.751-.906,17.478,17.478,0,0,0-3.938-.612Q33.512,40.411,31.285,40.422Z" style="fill:#f7b64e"/><path d="M22.3,23.915c-.034,1,.14,1.851,1.214,2.144a2.519,2.519,0,0,0,1.166.069,1.359,1.359,0,0,0,.917-.554,9.013,9.013,0,0,0,.279-1.223,14.777,14.777,0,0,1,1.029-2.6c.241-.47.5-1.069.172-1.484a1.233,1.233,0,0,0-.443-.315,4.053,4.053,0,0,0-2.468-.486C22.1,19.842,22.351,22.308,22.3,23.915Z" style="fill:#f7b64e"/><path d="M22.772,29.637l-.094,2.3a1,1,0,0,0,.047.435A.781.781,0,0,0,23,32.68a2.2,2.2,0,0,0,1.126.4,1.683,1.683,0,0,0,.706-.074,2.179,2.179,0,0,0,1.119-1.788c.23-1.267.234-2.893-1.111-3.547C23.467,27,22.818,28.519,22.772,29.637Z" style="fill:#f7b64e"/><path d="M38.427,25.653a3.688,3.688,0,0,0-1.754.361c-.574.318-1.1,1.056-.722,1.714.255.446.549.355.957.416a5.484,5.484,0,0,1,1.571.654,4.747,4.747,0,0,0,1.971.644,1.727,1.727,0,0,0,1.692-.985C43.054,25.972,40.076,25.634,38.427,25.653Z" style="fill:#f7b64e"/><path d="M29.028,5.009a13.217,13.217,0,0,0-4.409.428c-1.028.346-2.082,1.694-1.405,2.876a1.37,1.37,0,0,0,.849.6c1.056.291,2.132-.25,3.2-.5a11.977,11.977,0,0,1,2.855-.22,3.09,3.09,0,0,0,2.574-.8,1.286,1.286,0,0,0,.288-1.051,1.466,1.466,0,0,0-1.008-.95A8.629,8.629,0,0,0,29.028,5.009Z" style="fill:#f7b64e"/><path d="M7.818,2.455a1.8,1.8,0,0,0-.806,1.008.539.539,0,0,0,.016.342.661.661,0,0,0,.553.3,6.608,6.608,0,0,0,2.167-.213l2.47-.522c1.615-.341.211-1.749-.773-1.878A5.63,5.63,0,0,0,7.818,2.455Z" style="fill:#f7b64e"/><path d="M55.3,39.142a.97.97,0,0,0-.015.681.753.753,0,0,0,.3.29,2.181,2.181,0,0,0,2.332-.152,3.324,3.324,0,0,0,1.26-2.063,7.218,7.218,0,0,0,0-2.462,2.327,2.327,0,0,0-.779-1.682,1.268,1.268,0,0,0-1.291-.033c-.528.289-.561.835-.7,1.369Z" style="fill:#f7b64e"/><path d="M56.619,30.468a5.514,5.514,0,0,0-.111.867,1.376,1.376,0,0,0,.233.828,1.021,1.021,0,0,0,1.186.32,1.324,1.324,0,0,0,.691-.841,3.608,3.608,0,0,0,.113-1.112,6.955,6.955,0,0,0-.313-2.308A.643.643,0,0,0,58.3,28a.534.534,0,0,0-.261-.141,1.071,1.071,0,0,0-1.243.58,4.447,4.447,0,0,0-.044.925A11.137,11.137,0,0,1,56.619,30.468Z" style="fill:#f7b64e"/><path d="M61.973,52.689c-.652-.53-1.221.214-1.529.721-.333.549-.644,1.112-.965,1.668a4.494,4.494,0,0,0-.72,1.809.5.5,0,0,0,.045.3.461.461,0,0,0,.188.161,1.989,1.989,0,0,0,2.144-.476,3.826,3.826,0,0,0,1.344-2.9A1.666,1.666,0,0,0,61.973,52.689Z" style="fill:#f7b64e"/><path d="M11.124,15,8.708,17.393a2.381,2.381,0,0,0,0,3.388L11.246,23.3a2.427,2.427,0,0,0,3.4.022c2.943-2.864,10.2-9.3,16.343-10.426a9.546,9.546,0,0,1,8.377,2.688L42,18l.573-.281a4.731,4.731,0,0,0,.866-5.613,9.555,9.555,0,0,0-2.247-3.182h0a16.623,16.623,0,0,0-18-3.7A21.2,21.2,0,0,0,16.4,9.771L13,13.141" style="fill:none;stroke:#000;stroke-linejoin:round;stroke-width:2px"/><path d="M38,52.478,21.389,49.584A8.412,8.412,0,0,1,15,42l1-20" style="fill:none;stroke:#000;stroke-linejoin:round;stroke-width:2px"/><path d="M8,18.953a13.093,13.093,0,0,0-1-5L5,12.246l10.538-6.94A8.319,8.319,0,0,1,20.976,4L28,3.953" style="fill:none;stroke:#000;stroke-linejoin:round;stroke-width:2px"/><path d="M6,12H4A3,3,0,0,1,1,9V7.544A3,3,0,0,1,2.256,5.1L6.435,2.118A6,6,0,0,1,9.923,1h3.415a6,6,0,0,1,3.087.855L20,4" style="fill:none;stroke:#000;stroke-linejoin:round;stroke-width:2px"/><path d="M48,55a18.308,18.308,0,0,1,2,1l2,3,6.694-11.038A8.319,8.319,0,0,0,60,42.524V39c-.985,2.335-3.143,6.675-5.369,8.9l-6.472,6.788a4,4,0,0,1-6.018-.262L41,53l4-3c4.683-5.7,11.97-17.03-3-32" style="fill:none;stroke:#000;stroke-linejoin:round;stroke-width:2px"/><path d="M52,59v1a3,3,0,0,0,3,3h1.456A3,3,0,0,0,58.9,61.744l2.985-4.179A6,6,0,0,0,63,54.077V50.662a6,6,0,0,0-.855-3.087L60,44" style="fill:none;stroke:#000;stroke-linejoin:round;stroke-width:2px"/><line x1="21" y1="24" x2="21" y2="22" style="fill:none;stroke:#000;stroke-linejoin:round;stroke-width:2px"/><path d="M45,50,24.476,43.112A5,5,0,0,1,21,38.35V26" style="fill:none;stroke:#000;stroke-linejoin:round;stroke-width:2px"/><path d="M59.868,30q-.132-2.022-.393-4.034h0a17.431,17.431,0,0,0-2.249-6.712,21.213,21.213,0,0,0-15.2-10.108L41,9" style="fill:none;stroke:#000;stroke-linejoin:round;stroke-width:2px"/><path d="M60,34q0-1-.034-2" style="fill:none;stroke:#000;stroke-linejoin:round;stroke-width:2px"/><line x1="60" y1="39" x2="60" y2="36" style="fill:none;stroke:#000;stroke-linejoin:round;stroke-width:2px"/><path d="M43,12s6,3,8,8,1,16-2,24" style="fill:none;stroke:#000;stroke-linejoin:round;stroke-width:2px"/><path d="M34,13s-9,8-2,20c4.963,8.507,19,3,19,3" style="fill:none;stroke:#000;stroke-linejoin:round;stroke-width:2px"/><path d="M30,29s1-5,7-5,8,4,8,4V21" style="fill:none;stroke:#000;stroke-linejoin:round;stroke-width:2px"/><path d="M45,28s1,7-3,10" style="fill:none;stroke:#000;stroke-linejoin:round;stroke-width:2px"/></g></svg>