<svg xmlns="http://www.w3.org/2000/svg" viewBox="0 0 64 64"><g id="_15-plain_bread" data-name="15-plain bread"><path d="M40,25c.01,11.85-1.82,26.6-10.02,27.91-.22-.82-1.72-7.3,2.02-12.91s6.83-11.38,8-17Z" style="fill:#ebb070"/><path d="M21.62,26c1.89-2.32,7.66-7.52,12.03-11.37C32.44,16.78,28.37,23.95,25,29c-2.37,3.56-3.61,12-3.92,14.37A32.224,32.224,0,0,1,20,36l.02-4C20.13,29.38,20.64,27.2,21.62,26Z" style="fill:#bf8443"/><path d="M38.98,10A104.355,104.355,0,0,1,40,23c-1.17,5.62-4.26,11.38-8,17s-2.24,12.09-2.02,12.91a7.917,7.917,0,0,1-1.21.09c-3.49,0-6.25-4.26-7.69-9.62v-.01C21.39,41,22.63,32.56,25,29c3.37-5.05,7.44-12.22,8.65-14.37C36.64,11.99,38.98,10,38.98,10Z" style="fill:#ffcd8e"/><path d="M29.98,52.91C38.18,51.6,40.01,36.85,40,25V23a104.355,104.355,0,0,0-1.02-13H39a10.343,10.343,0,0,0,1-4l.25-.21C46.04,12.61,50,25.03,50,32c0,12-10,31-18,31-2.89,0-6.03-2.47-8.87-6.19,1.87-2.77,3.1-3.75,5.64-3.81A7.917,7.917,0,0,0,29.98,52.91Z" style="fill:#c96b1c"/><path d="M40.25,5.79,40,6a10.343,10.343,0,0,1-1,4h-.02s-2.34,1.99-5.33,4.63C29.28,18.48,23.51,23.68,21.62,26c-.98,1.2-1.49,3.38-1.6,6L20,36a32.224,32.224,0,0,0,1.08,7.37v.01c1.44,5.36,4.2,9.62,7.69,9.62-2.54.06-3.77,1.04-5.64,3.81C18.09,50.21,14,39.67,14,32c0-9.94,8.06-31,18-31C34.97,1,37.78,2.88,40.25,5.79Z" style="fill:#e58d1f"/><path d="M37.549,30.222c-.513,5.614-1.331,10.387-1.735,12.547a10.13,10.13,0,0,1-.89,2.682c-.922,1.846-2.785,4.858-5.3,5.44a15.08,15.08,0,0,0,.357,2.019C38.18,51.6,40.01,36.85,40,25V23A34.978,34.978,0,0,1,37.549,30.222Z" style="fill:#db9953"/><path d="M22.091,30.892a7.464,7.464,0,0,1,2.145-4.93l6.8-6.778c1.176-2.017,2.125-3.692,2.61-4.554C29.28,18.48,23.51,23.68,21.62,26c-.98,1.2-1.49,3.38-1.6,6L20,36a32.224,32.224,0,0,0,1.08,7.37c.139-1.06.465-3.336.994-5.845C21.953,35.034,22,32.66,22.091,30.892Z" style="fill:#a67033"/><path d="M29,56c2-2,9-1,12-11,0,0,5.186-21.519.87-37.071-.523-.755-1.06-1.48-1.62-2.139L40,6a10.343,10.343,0,0,1-1,4h-.02A104.355,104.355,0,0,1,40,23v2c.01,11.85-1.82,26.6-10.02,27.91a7.917,7.917,0,0,1-1.21.09c-2.54.06-3.77,1.04-5.64,3.81C25.97,60.53,29.11,63,32,63a5.762,5.762,0,0,0,1.662-.265C30.875,61.085,26.846,58.154,29,56Z" style="fill:#ba5b1a"/><path d="M45.493,24.417a4.633,4.633,0,0,0-2,2.078A109.915,109.915,0,0,1,41,45a19.121,19.121,0,0,1-1.22,3.107,5.443,5.443,0,0,0,.538,1.486,5.02,5.02,0,0,0,3.728,2.319C47.521,45.678,50,37.974,50,32a34.54,34.54,0,0,0-1.134-7.917A7.537,7.537,0,0,0,47.657,24,5.046,5.046,0,0,0,45.493,24.417Z" style="fill:#e58d1f"/><path d="M32,1c-.114,0-.225.017-.338.022a6.545,6.545,0,0,1,2.452,4.665,6.467,6.467,0,0,1-2.742,6.079A40.933,40.933,0,0,0,19,27c-2.872,6.461-.074,16.015,1.733,20.891a4.52,4.52,0,0,1-.624,4.288A40.64,40.64,0,0,0,23.13,56.81c1.87-2.77,3.1-3.75,5.64-3.81-3.49,0-6.25-4.26-7.69-9.62v-.01A32.224,32.224,0,0,1,20,36l.02-4c.11-2.62.62-4.8,1.6-6,1.89-2.32,7.66-7.52,12.03-11.37C36.64,11.99,38.98,10,38.98,10H39a10.343,10.343,0,0,0,1-4l.25-.21C37.78,2.88,34.97,1,32,1Z" style="fill:#d17824"/><path d="M28.354,8.751A5.828,5.828,0,0,0,26.538,6.08a5.329,5.329,0,0,0-2.22-.907C20.071,9.8,16.735,17.5,15.1,24.186a6.97,6.97,0,0,0,3.241.772,8.236,8.236,0,0,0,1.669-.009,42.724,42.724,0,0,1,8.755-11.074A8.587,8.587,0,0,0,28.354,8.751Z" style="fill:#eea439"/><path d="M34.31,18.919c-.4.478-.657,1.074-1.1,1.513-.357.352-.866.668-.869,1.169,0,.474.471.813.927.941a2.707,2.707,0,0,0,3.347-1.9,1.678,1.678,0,0,0,.038-.811C36.428,18.873,35.037,18.054,34.31,18.919Z" style="fill:#f4b774"/><path d="M34.785,16.12a.434.434,0,0,0-.561,0,.509.509,0,0,0-.013.505,2.18,2.18,0,0,0,.622.876.6.6,0,0,0,.218.131.425.425,0,0,0,.489-.3.737.737,0,0,0-.253-.657A3.292,3.292,0,0,0,34.785,16.12Z" style="fill:#f4b774"/><path d="M24.588,39.315a1.687,1.687,0,0,0-.693.476,2.39,2.39,0,0,0-.637.835,2.275,2.275,0,0,0,.405,1.849c.314.544.739,1.127,1.364,1.191a.689.689,0,0,0,.5-.123c.311-.248.227-.727.292-1.119a7.57,7.57,0,0,1,.269-.83C26.34,40.725,25.8,38.988,24.588,39.315Z" style="fill:#f4b774"/><path d="M31.184,30.184a1.689,1.689,0,0,0-.153.826,2.376,2.376,0,0,0,.14,1.042,2.273,2.273,0,0,0,1.594,1.021,2.035,2.035,0,0,0,1.806-.123.688.688,0,0,0,.267-.44c.044-.395-.354-.675-.585-1a7.467,7.467,0,0,1-.4-.777C33.42,29.943,31.81,29.1,31.184,30.184Z" style="fill:#f4b774"/><path d="M25.922,38.5a.617.617,0,0,0,.389.407,1.246,1.246,0,0,0,.579.049,2.551,2.551,0,0,0,1.09-.39.832.832,0,0,0,.384-.444.982.982,0,0,0-.082-.581.907.907,0,0,0-.275-.454C27.38,36.631,25.741,37.757,25.922,38.5Z" style="fill:#f4b774"/><path d="M24.6,47.272a.62.62,0,0,0,.563.012,1.231,1.231,0,0,0,.443-.375,2.542,2.542,0,0,0,.5-1.046.836.836,0,0,0-.042-.586.994.994,0,0,0-.47-.352.9.9,0,0,0-.514-.127C24.309,44.922,23.947,46.877,24.6,47.272Z" style="fill:#f4b774"/><path d="M31.806,23.286a1.06,1.06,0,0,0-.771-.259.593.593,0,0,0-.235.053.664.664,0,0,0-.3.573.554.554,0,0,0,.016.2.525.525,0,0,0,.116.186.967.967,0,0,0,1.251.274C32.229,24.05,32.082,23.537,31.806,23.286Z" style="fill:#f4b774"/><path d="M37.152,16.8c-.111.043-.126.2-.107.313a1.379,1.379,0,0,0,.4.761.217.217,0,0,0,.123.07.16.16,0,0,0,.153-.118.5.5,0,0,0-.054-.331c-.032-.092-.039-.184-.067-.276C37.556,17.075,37.354,16.726,37.152,16.8Z" style="fill:#f4b774"/><path d="M30.12,37.94a.869.869,0,0,0-.39.094.359.359,0,0,0-.193.33.426.426,0,0,0,.252.3,1.848,1.848,0,0,0,.915.123.313.313,0,0,0,.146-.029.3.3,0,0,0,.113-.161.7.7,0,0,0,.05-.4C30.923,37.828,30.385,37.923,30.12,37.94Z" style="fill:#f4b774"/><path d="M27.873,41.175a.9.9,0,0,0-.21.342.359.359,0,0,0,.1.37.423.423,0,0,0,.392.036,1.836,1.836,0,0,0,.734-.56.319.319,0,0,0,.083-.123.29.29,0,0,0-.035-.194.685.685,0,0,0-.248-.319C28.362,40.528,28.048,40.976,27.873,41.175Z" style="fill:#f4b774"/><path d="M36.29,27.954a.5.5,0,0,1,.281.065.392.392,0,0,1,.045.567.562.562,0,0,1-.8-.014C35.609,28.243,35.995,27.959,36.29,27.954Z" style="fill:#f4b774"/><path d="M37.448,13.954a.63.63,0,0,1,.364.085.5.5,0,0,1,.058.734.726.726,0,0,1-1.033-.018C36.565,14.328,37.064,13.961,37.448,13.954Z" style="fill:#f4b774"/><path d="M34.632,26.614a.524.524,0,0,0-.32.049.26.26,0,0,0-.136.275.3.3,0,0,0,.08.13.66.66,0,0,0,.385.181.561.561,0,0,0,.369-.067C35.464,26.893,34.915,26.645,34.632,26.614Z" style="fill:#f4b774"/><path d="M37.392,22.621c-.34.075-.472.318-.683.582a.57.57,0,0,0-.151.3.443.443,0,0,0,.129.3,1.508,1.508,0,0,0,1.24.407,1.049,1.049,0,0,0,.834-.365.739.739,0,0,0,0-.768A1.215,1.215,0,0,0,37.392,22.621Z" style="fill:#f4b774"/><path d="M29.392,24.621c-.34.075-.472.318-.683.582a.57.57,0,0,0-.151.3.443.443,0,0,0,.129.3,1.508,1.508,0,0,0,1.24.407,1.049,1.049,0,0,0,.834-.365.739.739,0,0,0,0-.768A1.215,1.215,0,0,0,29.392,24.621Z" style="fill:#f4b774"/><path d="M32.081,26.806a.452.452,0,0,0-.339.162.209.209,0,0,0-.045.123c0,.1.105.174.2.221a.825.825,0,0,0,.363.107.334.334,0,0,0,.311-.181C32.728,26.861,32.373,26.79,32.081,26.806Z" style="fill:#f4b774"/><path d="M27.632,43.614a.524.524,0,0,0-.32.049.26.26,0,0,0-.136.275.3.3,0,0,0,.08.13.66.66,0,0,0,.385.181.561.561,0,0,0,.369-.067C28.464,43.893,27.915,43.645,27.632,43.614Z" style="fill:#f4b774"/><path d="M28.081,48.806a.452.452,0,0,0-.339.162.209.209,0,0,0-.045.123c0,.1.105.174.2.221a.825.825,0,0,0,.363.107.334.334,0,0,0,.311-.181C28.728,48.861,28.373,48.79,28.081,48.806Z" style="fill:#f4b774"/><path d="M26.858,31.662a1.166,1.166,0,0,0-.338.828c.042.415.573.356.841.214a2.214,2.214,0,0,0,.41-.276.6.6,0,0,0,.175-.213A.671.671,0,0,0,27.987,32a.746.746,0,0,0-.095-.546.478.478,0,0,0-.369-.155A.97.97,0,0,0,26.858,31.662Z" style="fill:#f4b774"/><path d="M24.244,36.247a1.172,1.172,0,0,0,.346.825c.324.263.657-.154.747-.444a2.214,2.214,0,0,0,.094-.485.6.6,0,0,0-.026-.274.706.706,0,0,0-.122-.18.748.748,0,0,0-.454-.318.474.474,0,0,0-.37.151A.971.971,0,0,0,24.244,36.247Z" style="fill:#f4b774"/><path d="M31.244,35.247a1.172,1.172,0,0,0,.346.825c.324.263.657-.154.747-.444a2.214,2.214,0,0,0,.094-.485.6.6,0,0,0-.026-.274.706.706,0,0,0-.122-.18.748.748,0,0,0-.454-.318.474.474,0,0,0-.37.151A.971.971,0,0,0,31.244,35.247Z" style="fill:#f4b774"/><path d="M23.856,32.562a.141.141,0,0,0-.018.178.339.339,0,0,0,.151.12.372.372,0,0,0,.408,0,.257.257,0,0,0,.071-.13.312.312,0,0,0-.594-.187" style="fill:#f4b774"/><path d="M26.706,48.567a.247.247,0,0,0,.088-.085,1.115,1.115,0,0,0,.168-.922c-.09-.338-.615-.09-.653.177C26.283,47.926,26.407,48.712,26.706,48.567Z" style="fill:#f4b774"/><path d="M22.075,43.045a.255.255,0,0,0,.085.088,1.118,1.118,0,0,0,.922.168c.339-.09.09-.615-.177-.653C22.716,42.621,21.93,42.745,22.075,43.045Z" style="fill:#f4b774"/><path d="M26.857,28.205a.31.31,0,0,0-.067.172c.005.109.119.177.221.214a1.64,1.64,0,0,0,.509.1.187.187,0,0,0,.134-.031.163.163,0,0,0,.044-.066.5.5,0,0,0-.033-.44C27.419,27.742,27.075,27.87,26.857,28.205Z" style="fill:#f4b774"/><path d="M28.307,34.113a.315.315,0,0,0-.161.3.339.339,0,0,0,.212.2c.294.134,1.547.331,1.344-.359C29.564,33.79,28.591,33.913,28.307,34.113Z" style="fill:#f4b774"/><path d="M28.307,29.113a.315.315,0,0,0-.161.3.339.339,0,0,0,.212.2c.294.134,1.547.331,1.344-.359C29.564,28.79,28.591,28.913,28.307,29.113Z" style="fill:#f4b774"/><path d="M29.587,27.56c.518-.587-1.2-.66-.595-.06a.536.536,0,0,0,.418.13A.256.256,0,0,0,29.587,27.56Z" style="fill:#f4b774"/><path d="M30.587,31.56c.518-.587-1.2-.66-.595-.06a.536.536,0,0,0,.418.13A.256.256,0,0,0,30.587,31.56Z" style="fill:#f4b774"/><path d="M21.024,11.8a10.364,10.364,0,0,0-.914,2.158,2.138,2.138,0,0,0-.028,1.249,1.18,1.18,0,0,0,1,.793A2.041,2.041,0,0,0,22,15.765l3.518-1.509a4.734,4.734,0,0,0,2.01-1.3,3.193,3.193,0,0,0,.434-2.283c-.144-1.366-1.183-3.095-3-2.58A6.578,6.578,0,0,0,21.024,11.8Z" style="fill:#ffcb78"/><path d="M17.012,22.388a1.783,1.783,0,0,0,.26,1.262,1.166,1.166,0,0,0,1.448.184,3.507,3.507,0,0,0,1.112-1.161,8.437,8.437,0,0,0,.735-1.218,4.786,4.786,0,0,0,.4-1.393,2.332,2.332,0,0,0-.11-1.214,1.4,1.4,0,0,0-1.074-.837C18.007,17.786,17.119,21,17.012,22.388Z" style="fill:#ffcb78"/><path d="M45.322,28.222a4.27,4.27,0,0,0-.743,2.277c-.1.859-.088,1.737-.1,2.609-.022,1.565-.117,3.128-.283,4.673a23.171,23.171,0,0,0-.2,2.473c0,.649.119,1.406.511,1.662a.75.75,0,0,0,.8-.092,5.788,5.788,0,0,0,2.16-3.41A17.4,17.4,0,0,0,48,33.652a13.077,13.077,0,0,0-.561-4.576,1.721,1.721,0,0,0-1.7-1.066A.73.73,0,0,0,45.322,28.222Z" style="fill:#f7b64e"/><path d="M43.648,44.588l-.809.89A2.626,2.626,0,0,0,42,46.889,1.143,1.143,0,0,0,43.17,48a2.208,2.208,0,0,0,1.32-.512,4.692,4.692,0,0,0,1.2-1.143,1.541,1.541,0,0,0,.232-1.4,1.579,1.579,0,0,0-1.02-.9C44.279,43.872,43.98,44.223,43.648,44.588Z" style="fill:#f7b64e"/><path d="M18.938,50C16.005,44.15,14,37.373,14,32c0-9.941,8.059-31,18-31,4.772,0,9.109,4.852,12.331,11" style="fill:none;stroke:#000;stroke-linejoin:round;stroke-width:2px"/><path d="M46.993,18A43.709,43.709,0,0,1,50,32c0,12-10,31-18,31-4,0-8.5-4.749-12-11" style="fill:none;stroke:#000;stroke-linejoin:round;stroke-width:2px"/><path d="M45.324,14.007c.306.655.6,1.321.879,1.992" style="fill:none;stroke:#000;stroke-linejoin:round;stroke-width:2px"/><path d="M40,23a104.433,104.433,0,0,0-1.017-13S24.812,22.1,21.623,26c-.981,1.2-1.491,3.38-1.6,6L20,36c.241,8.187,3.76,17,8.771,17C37.995,53,40.013,37.406,40,25Z" style="fill:none;stroke:#000;stroke-linejoin:round;stroke-width:2px"/><path d="M39,10a10.343,10.343,0,0,0,1-4" style="fill:none;stroke:#000;stroke-linejoin:round;stroke-width:2px"/><path d="M23,57c2-3,3.236-4,6-4" style="fill:none;stroke:#000;stroke-linejoin:round;stroke-width:2px"/><path d="M40,23c-1.17,5.62-4.26,11.38-8,17s-2.24,12.09-2.02,12.91A.659.659,0,0,0,30,53" style="fill:none;stroke:#000;stroke-linejoin:round;stroke-width:2px"/><path d="M21.08,43.38v-.01C21.39,41,22.63,32.56,25,29c3.37-5.05,7.44-12.22,8.65-14.37" style="fill:none;stroke:#000;stroke-linejoin:round;stroke-width:2px"/><line x1="36" y1="18" x2="36" y2="20" style="fill:none;stroke:#000;stroke-linejoin:round;stroke-width:2px"/><line x1="33" y1="22" x2="33" y2="24" style="fill:none;stroke:#000;stroke-linejoin:round;stroke-width:2px"/><line x1="27" y1="39" x2="27" y2="41" style="fill:none;stroke:#000;stroke-linejoin:round;stroke-width:2px"/><line x1="25" y1="43" x2="25" y2="45" style="fill:none;stroke:#000;stroke-linejoin:round;stroke-width:2px"/><line x1="27" y1="46" x2="27" y2="48" style="fill:none;stroke:#000;stroke-linejoin:round;stroke-width:2px"/><line x1="26" y1="35" x2="26" y2="37" style="fill:none;stroke:#000;stroke-linejoin:round;stroke-width:2px"/><line x1="30" y1="33" x2="30" y2="35" style="fill:none;stroke:#000;stroke-linejoin:round;stroke-width:2px"/><line x1="30" y1="29" x2="30" y2="31" style="fill:none;stroke:#000;stroke-linejoin:round;stroke-width:2px"/><line x1="34" y1="27" x2="34" y2="29" style="fill:none;stroke:#000;stroke-linejoin:round;stroke-width:2px"/></g></svg>