<svg xmlns="http://www.w3.org/2000/svg" viewBox="0 0 64 64"><g id="_17-plain_bread" data-name="17-plain bread"><path d="M43,9,34,23H30L21,9a7.482,7.482,0,0,1,1.64-3.82A10.307,10.307,0,0,1,31.08,1h1.84a10.307,10.307,0,0,1,8.44,4.18A7.482,7.482,0,0,1,43,9Z" style="fill:#d17824"/><path d="M17.28,21.3a3.453,3.453,0,0,0,.65,3.98L24,32c.97.97,2.63,1,4,1L17.67,20.59Zm28.79,3.98a3.453,3.453,0,0,0,.65-3.98l-.39-.71L36,33c1.37,0,3.03-.03,4-1ZM52,36a10.118,10.118,0,0,1-1.13,3.79C47.57,46.34,42,63,32,63S16.43,46.34,13.13,39.79A10.118,10.118,0,0,1,12,36V33a6.5,6.5,0,0,1,1-2.36V31a21.388,21.388,0,0,0,2,7c1.72,3.45,11.06,7.81,11.06,7.81L16.03,31.61a12.064,12.064,0,0,1-1.27-2.44A11.72,11.72,0,0,1,14,25V23a4.1,4.1,0,0,1,1.53-3.2l1.06-.7.04-.02a2.858,2.858,0,0,1-.07-1.76L18,12l8.98,9.75A4.277,4.277,0,0,0,30,23h4a4.277,4.277,0,0,0,3.02-1.25L46,12l1.44,5.32a2.858,2.858,0,0,1-.07,1.76l.04.02,1.06.7A4.1,4.1,0,0,1,50,23v2a11.72,11.72,0,0,1-.76,4.17,12.064,12.064,0,0,1-1.27,2.44L37.94,45.81S47.28,41.45,49,38a21.388,21.388,0,0,0,2-7v-.36A6.5,6.5,0,0,1,52,33Z" style="fill:#d17824"/><path d="M21,9l9,14a4.277,4.277,0,0,1-3.02-1.25L18,12S18.41,9,21,9Z" style="fill:#f7b64e"/><path d="M17.67,20.59,28,33c-1.37,0-3.03-.03-4-1l-6.07-6.72a3.453,3.453,0,0,1-.65-3.98Z" style="fill:#f7b64e"/><path d="M14.76,29.17a12.064,12.064,0,0,0,1.27,2.44l10.03,14.2S16.72,41.45,15,38a21.388,21.388,0,0,1-2-7v-.36c.11-.17.24-.34.37-.51Z" style="fill:#f7b64e"/><path d="M51,31a21.388,21.388,0,0,1-2,7c-1.72,3.45-11.06,7.81-11.06,7.81l10.03-14.2a12.064,12.064,0,0,0,1.27-2.44l1.39.96c.13.17.26.34.37.51Z" style="fill:#f7b64e"/><path d="M46.72,21.3a3.453,3.453,0,0,1-.65,3.98L40,32c-.97.97-2.63,1-4,1L46.33,20.59Z" style="fill:#f7b64e"/><path d="M46,12l-8.98,9.75A4.277,4.277,0,0,1,34,23L43,9C45.59,9,46,12,46,12Z" style="fill:#f7b64e"/><path d="M30.553,17.106a1.618,1.618,0,0,0,2.894,0l5.5-10.995A9.942,9.942,0,0,0,39.81,3.5,10.581,10.581,0,0,0,32.92,1H31.08a10.581,10.581,0,0,0-6.89,2.5,9.942,9.942,0,0,0,.866,2.616Z" style="fill:#e58d1f"/><path d="M51,31a21.388,21.388,0,0,1-2,7c-1.72,3.45-11.06,7.81-11.06,7.81l7.365-10.427q-.364.38-.737.751A17.093,17.093,0,0,1,32.505,41h-.01a17.093,17.093,0,0,1-12.063-4.866,59.454,59.454,0,0,1-5.324-6.191,12.505,12.505,0,0,0,.922,1.667l10.03,14.2S16.72,41.45,15,38a21.388,21.388,0,0,1-2-7v-.36A6.5,6.5,0,0,0,12,33v3a10.118,10.118,0,0,0,1.13,3.79C16.43,46.34,22,63,32,63S47.57,46.34,50.87,39.79A10.118,10.118,0,0,0,52,36V33a6.5,6.5,0,0,0-1-2.36Z" style="fill:#bf5d1b"/><path d="M32,59C22,59,16.43,42.34,13.13,35.79A11.875,11.875,0,0,1,12.077,32.7c-.026.1-.056.2-.077.3v3a10.118,10.118,0,0,0,1.13,3.79C16.43,46.34,22,63,32,63S47.57,46.34,50.87,39.79A10.118,10.118,0,0,0,52,36V33c-.021-.1-.051-.2-.077-.3A11.875,11.875,0,0,1,50.87,35.79C47.57,42.34,42,59,32,59Z" style="fill:#854920"/><path d="M32.939,3.2a20.212,20.212,0,0,0-3.031.181c-.756.1-2.262.4-2.4,1.364A1.974,1.974,0,0,0,28.232,6.5a3.547,3.547,0,0,0,2.543.552A14.49,14.49,0,0,0,33.9,6.574a3.666,3.666,0,0,0,1.721-.86c.541-.555.732-1.439,0-1.847A5.4,5.4,0,0,0,32.939,3.2Z" style="fill:#f7b64e"/><path d="M32.155,9.9a5.833,5.833,0,0,0-1,1.735.765.765,0,0,0,.1.731.735.735,0,0,0,.388.186,2.587,2.587,0,0,0,2.236-.677,4.15,4.15,0,0,0,1.159-2.092,2.8,2.8,0,0,0,.08-1.165,1.375,1.375,0,0,0-.621-.957C33.281,6.964,32.655,9.188,32.155,9.9Z" style="fill:#f7b64e"/><path d="M31.012,51.045a19.665,19.665,0,0,1-10.062.2C23.861,55.587,27.476,59,32,59c5.844,0,10.173-5.691,13.422-11.727-.511.035-1.022.087-1.527.164C39.482,48.112,35.343,49.966,31.012,51.045Z" style="fill:#a34f17"/><path d="M45.873,18.8c.271-1.028.154-2.824-.8-3.589a.9.9,0,0,0-.648-.208.937.937,0,0,0-.4.158c-.709.465-.768,1.252-1.021,1.923-.3.812-.666,1.593-.9,2.426a1.293,1.293,0,0,0,0,1,1.408,1.408,0,0,0,1.437.463A2.985,2.985,0,0,0,45.873,18.8Z" style="fill:#e58d1f"/><path d="M18.127,18.8c-.271-1.028-.154-2.824.8-3.589a.9.9,0,0,1,.648-.208.937.937,0,0,1,.4.158c.709.465.768,1.252,1.021,1.923.3.812.666,1.593.9,2.426a1.293,1.293,0,0,1,0,1,1.408,1.408,0,0,1-1.437.463A2.985,2.985,0,0,1,18.127,18.8Z" style="fill:#e58d1f"/><path d="M46,12s-.415-3-3-3" style="fill:none;stroke:#000;stroke-linejoin:round;stroke-width:2px"/><line x1="38.5" y1="16" x2="34" y2="23" style="fill:none;stroke:#000;stroke-linejoin:round;stroke-width:2px"/><path d="M32,1h.924a10.305,10.305,0,0,1,8.433,4.18A7.469,7.469,0,0,1,43,9l-3.214,5" style="fill:none;stroke:#000;stroke-linejoin:round;stroke-width:2px"/><path d="M47.415,19.1l1.05.7A4.076,4.076,0,0,1,50,23v2a11.815,11.815,0,0,1-2.026,6.614L37.936,45.809S47.277,41.447,49,38a21.282,21.282,0,0,0,2-7V30" style="fill:none;stroke:#000;stroke-linejoin:round;stroke-width:2px"/><path d="M32,23h2a4.27,4.27,0,0,0,3.022-1.252L46,12l1.437,5.315a2.846,2.846,0,0,1-.476,2.513L36,33c1.371,0,3.03-.03,4-1l6.074-6.722a3.446,3.446,0,0,0,.645-3.979L46,20" style="fill:none;stroke:#000;stroke-linejoin:round;stroke-width:2px"/><path d="M46.092,50C42.775,56.485,38.253,63,32,63" style="fill:none;stroke:#000;stroke-linejoin:round;stroke-width:2px"/><path d="M48.018,46c-.3.654-.612,1.323-.936,2" style="fill:none;stroke:#000;stroke-linejoin:round;stroke-width:2px"/><path d="M49,29l1.628,1.133A6.65,6.65,0,0,1,52,33v3a10.055,10.055,0,0,1-1.13,3.785c-.576,1.144-1.221,2.6-1.947,4.215" style="fill:none;stroke:#000;stroke-linejoin:round;stroke-width:2px"/><path d="M22.094,6A6.122,6.122,0,0,0,21,9l9,14" style="fill:none;stroke:#000;stroke-linejoin:round;stroke-width:2px"/><path d="M32,1h-.924A10.375,10.375,0,0,0,23,4.71" style="fill:none;stroke:#000;stroke-linejoin:round;stroke-width:2px"/><path d="M18,12s.415-3,3-3" style="fill:none;stroke:#000;stroke-linejoin:round;stroke-width:2px"/><path d="M16.585,19.1l-1.05.7A4.076,4.076,0,0,0,14,23v2a11.815,11.815,0,0,0,2.026,6.614L26.064,45.809S16.723,41.447,15,38a21.282,21.282,0,0,1-2-7V30" style="fill:none;stroke:#000;stroke-linejoin:round;stroke-width:2px"/><path d="M22,25.793,28,33c-1.371,0-3.03-.03-4-1l-6.074-6.722a3.446,3.446,0,0,1-.645-3.979L18,20" style="fill:none;stroke:#000;stroke-linejoin:round;stroke-width:2px"/><path d="M32,23H30a4.27,4.27,0,0,1-3.022-1.252L18,12l-1.437,5.315a2.846,2.846,0,0,0,.476,2.513l3.476,4.177" style="fill:none;stroke:#000;stroke-linejoin:round;stroke-width:2px"/><path d="M15,29l-1.628,1.133A6.65,6.65,0,0,0,12,33v3a10.055,10.055,0,0,0,1.13,3.785C16.427,46.338,22,63,32,63" style="fill:none;stroke:#000;stroke-linejoin:round;stroke-width:2px"/></g></svg>