<svg xmlns="http://www.w3.org/2000/svg" viewBox="0 0 64 64"><g id="_18-glazed_twist_donut" data-name="18-glazed twist donut"><path d="M58,52.91A1.547,1.547,0,0,1,57.48,54a4.179,4.179,0,0,1-1.32.79c-2.23.94-4.65,1.51-6.76,2.68a9.926,9.926,0,0,1-3.28,1.49,7.488,7.488,0,0,1-2.31-.16,10.415,10.415,0,0,1-2.35-.61c-2.13-.93-3.36-3.17-5.49-4.1a16.149,16.149,0,0,1-2.69-1.05A2.894,2.894,0,0,1,32,50.68V11A10,10,0,0,1,42,1h4a7.8,7.8,0,0,1,5.16,3.36c1.01,1.52,1.69,3.46,3.35,4.2a30.28,30.28,0,0,1,3.44,1.41c.03.34.05.68.05,1.03Z" style="fill:#70382c"/><path d="M56.16,54.79A4.179,4.179,0,0,0,57.48,54,1.547,1.547,0,0,0,58,52.91V53A10,10,0,0,1,48,63H42A10,10,0,0,1,32,53V50.68a2.894,2.894,0,0,0,1.28,2.36,16.149,16.149,0,0,0,2.69,1.05c2.13.93,3.36,3.17,5.49,4.1a10.415,10.415,0,0,0,2.35.61,7.488,7.488,0,0,0,2.31.16,9.926,9.926,0,0,0,3.28-1.49C51.51,56.3,53.93,55.73,56.16,54.79Z" style="fill:#d17824"/><path d="M48,1a10.01,10.01,0,0,1,9.95,8.97,30.28,30.28,0,0,0-3.44-1.41c-1.66-.74-2.34-2.68-3.35-4.2A7.8,7.8,0,0,0,46,1Z" style="fill:#d17824"/><path d="M57.95,9.97A10.01,10.01,0,0,0,48,1h4A10,10,0,0,1,62,11V53A10,10,0,0,1,52,63H48A10,10,0,0,0,58,53V11C58,10.65,57.98,10.31,57.95,9.97Z" style="fill:#f7b64e"/><path d="M60,53V11A10,10,0,0,0,50,1H48a10.01,10.01,0,0,1,9.95,8.97c.03.34.05.68.05,1.03V53A10,10,0,0,1,48,63h2A10,10,0,0,0,60,53Z" style="fill:#eea439"/><path d="M24,9v3l-3.12,2.96-8.55-2.85a7.875,7.875,0,0,0-2.49-.41A7.593,7.593,0,0,0,8,11.92V9A8,8,0,1,1,24,9Z" style="fill:#eea439"/><path d="M24,51v4a8,8,0,0,1-8,8,7.294,7.294,0,0,1-3.4-.81A8.356,8.356,0,0,1,10,60v-.17a6.315,6.315,0,0,0,2.8-1.44l10.63-9.44A3.971,3.971,0,0,1,24,51Z" style="fill:#d17824"/><path d="M20.88,14.96,5,30,3.57,28.09A7.843,7.843,0,0,1,2,23.38V19.55a7.868,7.868,0,0,1,6-7.63,7.593,7.593,0,0,1,1.84-.22,7.875,7.875,0,0,1,2.49.41Z" style="fill:#d17824"/><path d="M28,38.9v.66a11.859,11.859,0,0,1-4,8.88l-.57.51L12.8,58.39A6.315,6.315,0,0,1,10,59.83a6.391,6.391,0,0,1-5.15-1.01l-.18-.13a6.284,6.284,0,0,1-.7-9.71l3.08-2.92,9.51-9.01.01-.01L24,30.44c.08-.07.16-.14.23-.21l.26.25A11.885,11.885,0,0,1,28,38.9Z" style="fill:#eea439"/><path d="M24.49,12.48A11.885,11.885,0,0,1,28,20.9v.66a11.843,11.843,0,0,1-3.77,8.67c-.07.07-.15.14-.23.21l-7.43,6.6-.01.01L7.05,46.06,7,46a7.931,7.931,0,0,1-4.99-7.39L2.02,36c-.01-.15-.02-.3-.02-.45a6.308,6.308,0,0,1,1.96-4.57L5,30,20.88,14.96,24,12Z" style="fill:#eea439"/><path d="M58,52.91A1.547,1.547,0,0,1,57.48,54a4.179,4.179,0,0,1-1.32.79c-2.23.94-4.65,1.51-6.76,2.68a9.926,9.926,0,0,1-3.28,1.49,7.488,7.488,0,0,1-2.31-.16,10.415,10.415,0,0,1-2.35-.61c-2.13-.93-3.36-3.17-5.49-4.1a16.149,16.149,0,0,1-2.69-1.05A2.894,2.894,0,0,1,32,50.68v2a2.894,2.894,0,0,0,1.28,2.36,16.149,16.149,0,0,0,2.69,1.05c2.13.93,3.36,3.17,5.49,4.1a10.415,10.415,0,0,0,2.35.61,7.488,7.488,0,0,0,2.31.16,9.926,9.926,0,0,0,3.28-1.49c2.11-1.17,4.53-1.74,6.76-2.68A4.179,4.179,0,0,0,57.48,56c.032-.03.058-.066.089-.1A10,10,0,0,0,58,53Z" style="fill:#bf5d1b"/><path d="M24.49,30.48l-.26-.25c-.07.07-.15.14-.23.21l-3.658,3.25a9.126,9.126,0,0,1-1.368,12.033L7.007,56.494a3,3,0,0,1-4.6-.725,6.474,6.474,0,0,0,.3.671,6.34,6.34,0,0,0,1.97,2.25l.18.13A6.391,6.391,0,0,0,10,59.83a6.315,6.315,0,0,0,2.8-1.44l10.63-9.44.57-.51a11.859,11.859,0,0,0,4-8.88V38.9A11.885,11.885,0,0,0,24.49,30.48Z" style="fill:#d17824"/><path d="M24.49,12.48,24,12l-3.12,2.96-1.053,1,.47.659a9.14,9.14,0,0,1-1.323,12.107L7.007,39.494a3,3,0,0,1-4.993-2.036l0,1.152A7.931,7.931,0,0,0,7,46l.05.06,9.51-9.01.01-.01L24,30.44c.08-.07.16-.14.23-.21A11.843,11.843,0,0,0,28,21.56V20.9A11.885,11.885,0,0,0,24.49,12.48Z" style="fill:#d17824"/><path d="M21.66,3.34A8.014,8.014,0,0,0,16,1c-.111,0-.218.012-.328.017A5.65,5.65,0,0,1,21,6.655,3,3,0,0,1,17.064,9.5c-2.676-.892-6.216-1.817-8.974-1.64A8.023,8.023,0,0,0,8,9v2.92a7.593,7.593,0,0,1,1.84-.22,7.875,7.875,0,0,1,2.49.41l8.55,2.85L24,12V9A8.014,8.014,0,0,0,21.66,3.34Z" style="fill:#d4821d"/><path d="M12.33,12.11a7.875,7.875,0,0,0-2.49-.41A7.593,7.593,0,0,0,8,11.92a7.789,7.789,0,0,0-4.737,3.394,4.984,4.984,0,0,1,5.111-1.493l.562.161a4,4,0,0,1,1.535,6.856l-7.394,6.47a7.775,7.775,0,0,0,.493.782L5,30,20.88,14.96Z" style="fill:#9e4d16"/><path d="M15,60.924a2.075,2.075,0,0,1,.687-1.542L24,51.9V51a3.971,3.971,0,0,0-.57-2.05L12.8,58.39A6.315,6.315,0,0,1,10,59.83V60a8.356,8.356,0,0,0,2.6,2.19A7.294,7.294,0,0,0,16,63c.242,0,.48-.015.717-.036A2.072,2.072,0,0,1,15,60.924Z" style="fill:#9e4d16"/><path d="M28,38.9a11.885,11.885,0,0,0-3.51-8.42l-.26-.25c-.07.07-.15.14-.23.21l-3.658,3.25a9.2,9.2,0,0,1,1.12,2.214l.243-.183a2.414,2.414,0,0,1,3.77,1.218A14.671,14.671,0,0,1,26,41a26.676,26.676,0,0,1-.836,6.231A11.841,11.841,0,0,0,28,39.56Z" style="fill:#bf5d1b"/><path d="M28,20.9a11.885,11.885,0,0,0-3.51-8.42L24,12l-3.12,2.96-1.053,1,.47.659a9.091,9.091,0,0,1,.785,1.343l.6-.3a3,3,0,0,1,4.3,2.155,17.951,17.951,0,0,1-.475,9A11.829,11.829,0,0,0,28,21.56Z" style="fill:#bf5d1b"/><path d="M57.95,9.97a30.28,30.28,0,0,0-3.44-1.41c-1.66-.74-2.34-2.68-3.35-4.2a8,8,0,0,0-2.553-2.4,15.477,15.477,0,0,1,3.2,7.723c.131,1.768-.181,3.575.208,5.305A18.908,18.908,0,0,0,53.752,19a22.83,22.83,0,0,1,1.865,5.528,8.389,8.389,0,0,1-.125,4.673,16.408,16.408,0,0,1-2.366,3.483,13.637,13.637,0,0,0-2.43,5.778c-.586,3.514.223,7.154-.4,10.662a4.251,4.251,0,0,1-.8,2.03,3.759,3.759,0,0,1-1.788,1.082c-2.962.939-6.142-.09-9.123-.969A16.373,16.373,0,0,0,32,50.4v.278a2.894,2.894,0,0,0,1.28,2.36,16.149,16.149,0,0,0,2.69,1.05c2.13.93,3.36,3.17,5.49,4.1a10.415,10.415,0,0,0,2.35.61,7.488,7.488,0,0,0,2.31.16,9.926,9.926,0,0,0,3.28-1.49c2.11-1.17,4.53-1.74,6.76-2.68A4.179,4.179,0,0,0,57.48,54,1.547,1.547,0,0,0,58,52.91V11C58,10.65,57.98,10.31,57.95,9.97Z" style="fill:#56271d"/><path d="M36.62,20.53C37.626,18.786,39,17.22,39.611,15.3c.92-2.869.029-6.167,1.332-8.883A7.9,7.9,0,0,1,45.43,2.654a14.831,14.831,0,0,1,3.1-.735A7.054,7.054,0,0,0,46,1H42A10,10,0,0,0,32,11V48.051c1.71-4.082,1.8-8.715,1.878-13.179C33.962,29.95,34.161,24.794,36.62,20.53Z" style="fill:#824133"/><path d="M60.611,47.845a12.023,12.023,0,0,0,.146-2.545,52.059,52.059,0,0,0-.38-6.417c-.112-.809-.257-1.614-.377-2.422V49.743A9.267,9.267,0,0,0,60.611,47.845Z" style="fill:#56271d"/><path d="M60.942,25.2a18.525,18.525,0,0,0-.176-4.4,37.787,37.787,0,0,1-.753-4.649c-.033-.943.056-1.942-.013-2.882v17.97C60.289,29.226,60.781,27.227,60.942,25.2Z" style="fill:#56271d"/><path d="M60,36.461a18.792,18.792,0,0,1-.211-2.023,17.606,17.606,0,0,1,.211-3.2V13.266a4.119,4.119,0,0,0-.649-2.117,3.879,3.879,0,0,0-1.4-1.165c.029.336.049.671.049,1.016V52.891a13.5,13.5,0,0,0,2-3.148Z" style="fill:#3b1a13"/><path d="M48.139,4.813c-.772-1-1.84-.861-3.051-.695a3.144,3.144,0,0,0-1.714,1.014,9.367,9.367,0,0,0-2.035,3.411c-.354.941-.59,2.105.129,2.841a2.306,2.306,0,0,0,1.439.6c1.7.162,3.273-.789,4.646-1.742a3.722,3.722,0,0,0,.908-.791,2.62,2.62,0,0,0,.415-.968A4.386,4.386,0,0,0,48.139,4.813Z" style="fill:#824133"/><path d="M34.422,47.993a3.819,3.819,0,0,0,3.036,2.234,1.233,1.233,0,0,0,.531-.033,1.127,1.127,0,0,0,.582-.547,3.375,3.375,0,0,0,.218-2.357c-.169-.79-.486-1.54-.68-2.323a7.376,7.376,0,0,0-.36-1.052,1.715,1.715,0,0,0-.218-.343l-.356-.472a2.925,2.925,0,0,0-.277-.331,1.463,1.463,0,0,0-1.433-.339c-.932.3-1.257,1.528-1.384,2.382A5.924,5.924,0,0,0,34.422,47.993Z" style="fill:#824133"/><path d="M35.961,27.029a2.654,2.654,0,0,0,.164,1.224,1.079,1.079,0,0,0,.964.672A1.529,1.529,0,0,0,38,28.431a8.907,8.907,0,0,0,2.334-3.349c.433-1.152.913-5.857-1.68-4.555C36.8,21.458,36.039,25.192,35.961,27.029Z" style="fill:#824133"/><path d="M46.59,27.752a3.6,3.6,0,0,0-.554,2.316,2.38,2.38,0,0,0,1.517,1.762,3.492,3.492,0,0,0,2.272-.046A6.451,6.451,0,0,0,54,25.7c-.016-1.823-1.566-4.775-3.475-3.3a12.071,12.071,0,0,0-1.875,2.429A26.474,26.474,0,0,0,46.59,27.752Z" style="fill:#56271d"/><path d="M43.669,42.236c-.522,1.051-1.372,1.877-1.985,2.871a3.431,3.431,0,0,0-.394,3.351,3.385,3.385,0,0,0,2.465,1.425,3.958,3.958,0,0,0,2.544-.192,3.516,3.516,0,0,0,1.267-1.215,9.921,9.921,0,0,0,1.348-4.743,27.7,27.7,0,0,0-.6-8.308c-.5-2.18-2.663-1.615-3.355.062C44.081,37.613,44.718,40.122,43.669,42.236Z" style="fill:#56271d"/><path d="M34.288,7.768a3.531,3.531,0,0,0-.134.846l-.136,1.827a1.817,1.817,0,0,0,.179,1.178,1.057,1.057,0,0,0,1.246.3,2.669,2.669,0,0,0,1.052-.9,10.627,10.627,0,0,0,1.038-1.588,3.46,3.46,0,0,0,.461-1.343,2,2,0,0,0-.766-1.737C35.977,5.428,34.719,6.479,34.288,7.768Z" style="fill:#ba5d49"/><path d="M33.856,16.963c.02.362.122.788.46.917a.86.86,0,0,0,.7-.118,2.517,2.517,0,0,0,1.122-1.343c.272-.761.1-2.644-1.042-2.649C33.894,13.765,33.812,16.185,33.856,16.963Z" style="fill:#ba5d49"/><path d="M39.833,34.1l-.254.5h-.392a.183.183,0,0,0-.132.312l.313.307-.114.563a.186.186,0,0,0,.294.182L40,35.631l.452.332a.186.186,0,0,0,.294-.182l-.114-.563.313-.307a.183.183,0,0,0-.132-.312h-.392l-.254-.5A.188.188,0,0,0,39.833,34.1Z" style="fill:#eea439"/><path d="M53.833,37.5l-.254.5h-.392a.183.183,0,0,0-.132.312l.313.307-.114.563a.185.185,0,0,0,.294.181L54,39.031l.452.332a.185.185,0,0,0,.294-.181l-.114-.563.313-.307A.183.183,0,0,0,54.813,38h-.392l-.254-.5A.188.188,0,0,0,53.833,37.5Z" style="fill:#eea439"/><path d="M37.833,11.5l-.254.5h-.392a.183.183,0,0,0-.132.312l.313.307-.114.563a.185.185,0,0,0,.294.181L38,13.031l.452.332a.185.185,0,0,0,.294-.181l-.114-.563.313-.307A.183.183,0,0,0,38.813,12h-.392l-.254-.5A.188.188,0,0,0,37.833,11.5Z" style="fill:#eea439"/><path d="M48.083,11.694l-.513.167-.268-.268a.176.176,0,0,0-.3.123l0,.423-.462.305a.18.18,0,0,0,.077.325l.535.082.081.534a.179.179,0,0,0,.325.077l.3-.462.423,0a.175.175,0,0,0,.123-.3l-.267-.267.166-.513A.182.182,0,0,0,48.083,11.694Z" style="fill:#eea439"/><path d="M40.833,18.5l-.254.5h-.392a.183.183,0,0,0-.132.312l.313.307-.114.563a.185.185,0,0,0,.294.181L41,20.031l.452.332a.185.185,0,0,0,.294-.181l-.114-.563.313-.307A.183.183,0,0,0,41.813,19h-.392l-.254-.5A.188.188,0,0,0,40.833,18.5Z" style="fill:#eea439"/><path d="M38.917,31.752,38.79,32h-.2a.091.091,0,0,0-.066.155l.156.153-.057.281a.093.093,0,0,0,.147.091L39,32.514l.225.166a.093.093,0,0,0,.147-.091l-.057-.281.156-.153A.091.091,0,0,0,39.405,32h-.2l-.127-.248A.093.093,0,0,0,38.917,31.752Z" style="fill:#eea439"/><path d="M39.917,41.752,39.79,42h-.2a.091.091,0,0,0-.066.155l.156.153-.057.281a.093.093,0,0,0,.147.091L40,42.514l.225.166a.093.093,0,0,0,.147-.091l-.057-.281.156-.153A.091.091,0,0,0,40.405,42h-.2l-.127-.248A.093.093,0,0,0,39.917,41.752Z" style="fill:#eea439"/><path d="M46.917,50.752,46.79,51h-.2a.091.091,0,0,0-.066.155l.156.153-.057.281a.093.093,0,0,0,.147.091L47,51.514l.225.166a.093.093,0,0,0,.147-.091l-.057-.281.156-.153A.091.091,0,0,0,47.405,51h-.2l-.127-.248A.093.093,0,0,0,46.917,50.752Z" style="fill:#eea439"/><path d="M46.577,21.691l.084.257-.134.133a.088.088,0,0,0,.061.151l.212,0,.152.231a.09.09,0,0,0,.163-.038l.041-.267.267-.041a.09.09,0,0,0,.038-.163L47.23,21.8l0-.212a.088.088,0,0,0-.151-.061l-.133.134-.257-.084A.091.091,0,0,0,46.577,21.691Z" style="fill:#eea439"/><path d="M44.347,27.459l.083.256-.133.134a.088.088,0,0,0,.061.151l.212,0,.152.231a.09.09,0,0,0,.163-.039l.04-.267.268-.041a.09.09,0,0,0,.038-.162L45,27.567l0-.211a.088.088,0,0,0-.151-.061l-.134.133-.256-.083A.091.091,0,0,0,44.347,27.459Z" style="fill:#eea439"/><path d="M34.347,29.459l.083.256-.133.134a.088.088,0,0,0,.061.151l.212,0,.152.231a.09.09,0,0,0,.163-.039l.04-.267.268-.041a.09.09,0,0,0,.038-.162L35,29.567l0-.211a.088.088,0,0,0-.151-.061l-.134.133-.256-.083A.091.091,0,0,0,34.347,29.459Z" style="fill:#eea439"/><path d="M36.347,38.459l.083.256-.133.134a.088.088,0,0,0,.061.151l.212,0,.152.231a.09.09,0,0,0,.163-.039l.04-.267.268-.041a.09.09,0,0,0,.038-.162L37,38.567l0-.211a.088.088,0,0,0-.151-.061l-.134.133-.256-.083A.091.091,0,0,0,36.347,38.459Z" style="fill:#eea439"/><path d="M50.347,20.459l.083.256-.133.134a.088.088,0,0,0,.061.151l.212,0,.152.231a.09.09,0,0,0,.163-.039l.04-.267.268-.041a.09.09,0,0,0,.038-.162L51,20.567l0-.211a.088.088,0,0,0-.151-.061l-.134.133-.256-.083A.091.091,0,0,0,50.347,20.459Z" style="fill:#eea439"/><path d="M14,26.053c.007,1.643,2.766.791,3.721.105a5.392,5.392,0,0,0,2.256-3.145A1.76,1.76,0,0,0,18.244,21a3.342,3.342,0,0,0-1.94,1,8.393,8.393,0,0,0-2.193,3.391A2.286,2.286,0,0,0,14,26.053Z" style="fill:#f7b64e"/><path d="M8,32.053c.007,1.643,2.766.791,3.721.105a5.392,5.392,0,0,0,2.256-3.145A1.76,1.76,0,0,0,12.244,27a3.342,3.342,0,0,0-1.94,1,8.393,8.393,0,0,0-2.193,3.391A2.286,2.286,0,0,0,8,32.053Z" style="fill:#f7b64e"/><path d="M11.307,4.641a1.513,1.513,0,0,0-.3.646.621.621,0,0,0,.267.624A.818.818,0,0,0,11.668,6a3.93,3.93,0,0,0,1.441-.3,14.091,14.091,0,0,0,3.269-1.718,1.539,1.539,0,0,0,.552-.565.973.973,0,0,0-.379-1.152,1.731,1.731,0,0,0-1.3-.223A6.569,6.569,0,0,0,11.307,4.641Z" style="fill:#f7b64e"/><path d="M5.072,14.957a2.345,2.345,0,0,0-1.335,2.076.513.513,0,0,0,.072.276.576.576,0,0,0,.236.169,26.464,26.464,0,0,0,2.693,1.131,2.249,2.249,0,0,0,1.222.183c.681-.15,1.075-.848,1.351-1.489a2.129,2.129,0,0,0,.184-.59C9.744,14.473,6.383,14.285,5.072,14.957Z" style="fill:#e58d1f"/><path d="M9.87,47.015C7.928,47.193,6.8,48.558,5.332,49.7c-.626.488-1.383.919-1.329,1.865a1.539,1.539,0,0,0,.984,1.256,3.138,3.138,0,0,0,1.652.127,7.03,7.03,0,0,0,4.892-3.2,2.051,2.051,0,0,0,.313-2A1.981,1.981,0,0,0,9.87,47.015Z" style="fill:#f7b64e"/><path d="M12.286,45.617a1.72,1.72,0,0,0,1.293,1.028,2.031,2.031,0,0,0,2.231-.894,2.7,2.7,0,0,0,.246-.971C16.318,42.337,11.3,42.694,12.286,45.617Z" style="fill:#f7b64e"/><path d="M14.365,57,12.8,58.39a6.41,6.41,0,0,1-7.95.43l-.18-.13a6.284,6.284,0,0,1-.7-9.71l12.6-11.94" style="fill:none;stroke:#000;stroke-linejoin:round;stroke-width:2px"/><path d="M24.23,30.23l.26.25A11.885,11.885,0,0,1,28,38.9v.66a11.859,11.859,0,0,1-4,8.88l-.57.51L16,55.548" style="fill:none;stroke:#000;stroke-linejoin:round;stroke-width:2px"/><polyline points="19 34.881 16.57 37.04 16.56 37.05" style="fill:none;stroke:#000;stroke-linejoin:round;stroke-width:2px"/><path d="M13,22.423l7.88-7.463L24,12l.49.48A11.885,11.885,0,0,1,28,20.9v.66a11.843,11.843,0,0,1-3.77,8.67c-.07.07-.15.14-.23.21L21.118,33" style="fill:none;stroke:#000;stroke-linejoin:round;stroke-width:2px"/><line x1="10" y1="25.264" x2="11.335" y2="24" style="fill:none;stroke:#000;stroke-linejoin:round;stroke-width:2px"/><path d="M7,46a7.931,7.931,0,0,1-4.99-7.39L2.02,36c-.01-.15-.02-.3-.02-.45a6.308,6.308,0,0,1,1.96-4.57L5,30l3.168-3" style="fill:none;stroke:#000;stroke-linejoin:round;stroke-width:2px"/><path d="M20.88,14.96l-8.55-2.85a7.875,7.875,0,0,0-2.49-.41A7.593,7.593,0,0,0,8,11.92a7.868,7.868,0,0,0-6,7.63v3.83a7.843,7.843,0,0,0,1.57,4.71L5,30" style="fill:none;stroke:#000;stroke-linejoin:round;stroke-width:2px"/><path d="M8,9A8,8,0,1,1,24,9v3" style="fill:none;stroke:#000;stroke-linejoin:round;stroke-width:2px"/><path d="M24,52v3a8,8,0,0,1-8,8,7.294,7.294,0,0,1-3.4-.81A8.356,8.356,0,0,1,10,60v-.17" style="fill:none;stroke:#000;stroke-linejoin:round;stroke-width:2px"/><path d="M58,20V53A10,10,0,0,1,48,63H42A10,10,0,0,1,32,53V11A10,10,0,0,1,42,1h6A10,10,0,0,1,58,11v3" style="fill:none;stroke:#000;stroke-linejoin:round;stroke-width:2px"/><line x1="58" y1="16" x2="58" y2="18" style="fill:none;stroke:#000;stroke-linejoin:round;stroke-width:2px"/><path d="M62,51v2A10,10,0,0,1,52,63H46" style="fill:none;stroke:#000;stroke-linejoin:round;stroke-width:2px"/><path d="M46,1h6A10,10,0,0,1,62,11V49" style="fill:none;stroke:#000;stroke-linejoin:round;stroke-width:2px"/><path d="M32.056,50.137a2.851,2.851,0,0,0,1.227,2.905,16.582,16.582,0,0,0,2.685,1.052c2.132.925,3.357,3.167,5.489,4.095a10.411,10.411,0,0,0,2.353.609,7.422,7.422,0,0,0,2.312.163,9.916,9.916,0,0,0,3.283-1.494c2.109-1.164,4.52-1.74,6.752-2.68a4.212,4.212,0,0,0,1.327-.782,1.475,1.475,0,0,0,.487-1.347" style="fill:none;stroke:#000;stroke-linejoin:round;stroke-width:2px"/><path d="M58,10a28.28,28.28,0,0,0-3.491-1.439c-1.659-.74-2.343-2.679-3.348-4.2A7.814,7.814,0,0,0,46,1" style="fill:none;stroke:#000;stroke-linejoin:round;stroke-width:2px"/></g></svg>