<svg xmlns="http://www.w3.org/2000/svg" viewBox="0 0 64 64"><g id="_21-Baguette" data-name="21-Baguette"><path d="M48.01,41c-5.74,2.15-6.84,7.92-7.01,11l.01,2.31A3.279,3.279,0,0,1,38,51V49c0-6.57,10.88-8.69,15.11-9.7Z" style="fill:#d57e39"/><path d="M40.99,52c.17-3.08,1.27-8.85,7.01-11l5.1-1.7a.037.037,0,0,1,.03-.01,5.365,5.365,0,0,0,.77-.26l.09-.03,1.99,2.98.01.033c-.013,5.045-7.673,9.569-11.73,11.7a5.422,5.422,0,0,1-3.26.6Z" style="fill:#ffcd8e"/><path d="M53.69,22.39a1,1,0,0,1,1.31.95v2.78a10.031,10.031,0,0,1-1.53,5.32l-.24.39A59.663,59.663,0,0,0,43,35.27V35s7-5,8-7c.79-1.57.34-3.76.11-4.63.31-.14.61-.26.89-.37C52.65,22.75,53.22,22.54,53.69,22.39Z" style="fill:#bf5d1b"/><path d="M51,28c-1,2-8,7-8,7v.27a28,28,0,0,0-3.98,2.17c.32-7.79,7.47-12.1,12.09-14.07C51.34,24.24,51.79,26.43,51,28Z" style="fill:#ffcd8e"/><path d="M48.18,11C50,11,50,15,50,15v.63a30.647,30.647,0,0,0-8.2,5.36l-.36-.2A2.9,2.9,0,0,1,40,18.23a3,3,0,0,1,.85-2.11C42.52,14.46,45.42,11,48.18,11Z" style="fill:#ffcd8e"/><path d="M52.59,7.2a10.319,10.319,0,0,1-.61,7.35l-.22.45.02.12a9.807,9.807,0,0,0-1.78.51V15s0-4-1.82-4c-2.76,0-5.66,3.46-7.33,5.12A3,3,0,0,0,40,18.23a2.9,2.9,0,0,0,1.44,2.56l.36.2c-.19.15-.38.32-.57.48a14.893,14.893,0,0,0-3.29,4.09l-.15-1.04a16.483,16.483,0,0,1-.28-9.13l2.4-9.47a6.668,6.668,0,0,1,2.27-3.55A6.178,6.178,0,0,1,46.06,1a6.4,6.4,0,0,1,6.1,4.7Z" style="fill:#e58d1f"/><path d="M50,15.63a9.807,9.807,0,0,1,1.78-.51A6.544,6.544,0,0,1,53,15l.77,2.24A5.454,5.454,0,0,1,54,18.8a5.314,5.314,0,0,1-1.56,3.76L52,23c-.28.11-.58.23-.89.37-4.62,1.97-11.77,6.28-12.09,14.07A14.908,14.908,0,0,0,36,39.96V33.09a15.516,15.516,0,0,1,1.94-7.53,14.893,14.893,0,0,1,3.29-4.09c.19-.16.38-.33.57-.48A30.647,30.647,0,0,1,50,15.63Z" style="fill:#e58d1f"/><path d="M56,42c0,5.05-7.668,9.58-11.727,11.711C41.493,55.171,38.041,54.14,38,51V49c0-6.592,10.93-8.7,15.139-9.715a4.494,4.494,0,0,0,2.6-1.687l.512-.7A3.829,3.829,0,0,0,57,34.633v-1.12a2.149,2.149,0,0,0-2.722-1.94C48.378,32.946,34.87,36.852,34,44V54a9,9,0,0,0,9,9h6a9,9,0,0,0,9-9V48.631a12,12,0,0,0-2.013-6.653" style="fill:#e58d1f"/><path d="M51.369,24.7a10.907,10.907,0,0,0-.259-1.329c-4.62,1.97-11.77,6.28-12.09,14.07.38-.254.795-.484,1.2-.721C41.364,30.387,47.135,26.63,51.369,24.7Z" style="fill:#d57e39"/><path d="M41.85,17.12C43.52,15.46,46.42,12,49.18,12a1.129,1.129,0,0,1,.277.039A1.469,1.469,0,0,0,48.18,11c-2.76,0-5.66,3.46-7.33,5.12A3,3,0,0,0,40,18.23a2.9,2.9,0,0,0,1.414,2.54A3.058,3.058,0,0,1,41,19.23,3,3,0,0,1,41.85,17.12Z" style="fill:#d57e39"/><path d="M52.59,7.2l-.43-1.5A6.432,6.432,0,0,0,47,1.079,3.942,3.942,0,0,1,50,5V6.22A2.693,2.693,0,0,1,47.405,9a5.386,5.386,0,0,0-3.645,1.444L40.43,13.5a5.155,5.155,0,0,0-1.63,3.8v2.043a4.153,4.153,0,0,1-1.093,2.829l-.4.429a16.378,16.378,0,0,0,.484,1.919l.15,1.04a14.893,14.893,0,0,1,3.29-4.09c.19-.16.38-.33.57-.48l-.36-.2A2.9,2.9,0,0,1,40,18.23a3,3,0,0,1,.85-2.11C42.52,14.46,45.42,11,48.18,11,50,11,50,15,50,15v.63a9.807,9.807,0,0,1,1.78-.51L51.76,15l.22-.45A10.319,10.319,0,0,0,52.59,7.2Z" style="fill:#bf5d1b"/><path d="M53.77,17.24,53,15a6.544,6.544,0,0,0-1.22.12,9.807,9.807,0,0,0-1.78.51c-.158.06-.319.137-.479.2A2.163,2.163,0,0,1,50,17.183a6.335,6.335,0,0,1-2.978,5.4c-3.228,1.993-8.035,5.865-8.89,11.616a4.146,4.146,0,0,1-1.755,2.882L36,37.333V39.96a14.908,14.908,0,0,1,3.02-2.52c.32-7.79,7.47-12.1,12.09-14.07.31-.14.61-.26.89-.37l.44-.44A5.314,5.314,0,0,0,54,18.8,5.454,5.454,0,0,0,53.77,17.24Z" style="fill:#bf5d1b"/><path d="M53.69,22.39c-.47.15-1.04.36-1.69.61-.28.11-.58.23-.89.37a9.963,9.963,0,0,1,.331,2.5A1.378,1.378,0,0,1,53,27.236v1.432a1.468,1.468,0,0,1-1.3,1.375,20.417,20.417,0,0,0-4.07,1.382C45.431,33.261,43,35,43,35v.27a59.663,59.663,0,0,1,10.23-3.44l.24-.39A10.031,10.031,0,0,0,55,26.12V23.34A1,1,0,0,0,53.69,22.39Z" style="fill:#a65117"/><path d="M55.987,41.978,56,42a8.094,8.094,0,0,1-2.6,5.312C54.335,50.067,55.582,62,45.02,62H42.858C37.966,62,34,57.681,34,52.354V54a9,9,0,0,0,9,9h6a9,9,0,0,0,9-9V48.631A12,12,0,0,0,55.987,41.978Z" style="fill:#bf5d1b"/><path d="M52,35.274a3.263,3.263,0,0,1-2.568,3.2C45.146,39.4,37,41.841,37,47v4.083A2.917,2.917,0,0,0,39.917,54h.018A3.168,3.168,0,0,1,38,51V49c0-6.592,10.93-8.7,15.139-9.715a4.5,4.5,0,0,0,2.6-1.687l.512-.7A3.829,3.829,0,0,0,57,34.633v-1.12a2.149,2.149,0,0,0-2.722-1.94c-1.046.243-2.333.568-3.744.974A3.268,3.268,0,0,1,52,35.274Z" style="fill:#a65117"/><path d="M52.59,7.2l-.43-1.5A6.432,6.432,0,0,0,47,1.079a3.892,3.892,0,0,1,2.951,3.35l.375.563A4,4,0,0,1,51,7.211V12a3.97,3.97,0,0,1-1.012,2.635C50,14.861,50,15,50,15v.63a9.807,9.807,0,0,1,1.78-.51L51.76,15l.22-.45A10.319,10.319,0,0,0,52.59,7.2Z" style="fill:#a65117"/><path d="M42.755,2.541a6.214,6.214,0,0,0-.931,1.551,9.1,9.1,0,0,0-.737,1.971,2.719,2.719,0,0,0-.019,1.274c.113.4.414.725.718.653s.513-.513.711-.871a3.751,3.751,0,0,1,.857-1.062c.468-.39,1.027-.626,1.365-1.224a2.473,2.473,0,0,0,.223-1.684C44.624,1.726,43.485,1.75,42.755,2.541Z" style="fill:#f7b64e"/><path d="M39.95,10.9a.542.542,0,0,0,.395-.182c.444-.4,1.589-2.184.224-2.04C39.785,8.756,39.14,10.811,39.95,10.9Z" style="fill:#f7b64e"/><path d="M38.035,26.565c.49-.887,1.125-1.627,2.168-1.561a1.089,1.089,0,0,1,.718.3.481.481,0,0,1,.079.315c-.019.619-.49.888-.88,1.265a7.8,7.8,0,0,0-1.2,1.334,15.823,15.823,0,0,0-.85,1.845c-.173.366-.864,1.541-1.026.546A7.278,7.278,0,0,1,38.035,26.565Z" style="fill:#f7b64e"/><path d="M41.694,22.462A1.792,1.792,0,0,0,41,23.571a.369.369,0,0,0,.07.262.659.659,0,0,0,.474.165,4.428,4.428,0,0,0,2.046-.538,16.5,16.5,0,0,0,2.2-1.256c.588-.4,2.029-1.819.59-2.167-.993-.241-2.422.763-3.136,1.224A11.138,11.138,0,0,0,41.694,22.462Z" style="fill:#f7b64e"/><path d="M36.839,40.176A3.9,3.9,0,0,0,36,42.444a.813.813,0,0,0,.036.316c.119.3.479.268.744.174a8.993,8.993,0,0,0,2.59-1.452,1.538,1.538,0,0,0,.593-.77,1.509,1.509,0,0,0-.324-1.249C38.847,38.413,37.489,39.367,36.839,40.176Z" style="fill:#f7b64e"/><path d="M43.838,37.46a2.824,2.824,0,0,0-2.661-.245c-.792.235-1.14.626-1.175,1.148a.386.386,0,0,0,.125.346.941.941,0,0,0,.323.153,4.577,4.577,0,0,0,2.82-.212,1.616,1.616,0,0,0,.557-.315.784.784,0,0,0,.167-.652.229.229,0,0,0-.032-.123A.412.412,0,0,0,43.838,37.46Z" style="fill:#f7b64e"/><rect x="34" y="45" width="3" height="8" rx="1.5" ry="1.5" style="fill:#d17824"/><path d="M37.014,56.727a4.2,4.2,0,0,0,1.758,3.245,6.006,6.006,0,0,0,5.081.785,1.506,1.506,0,0,0,1.063-.789,1.468,1.468,0,0,0-.167-1.292,2.724,2.724,0,0,0-.926-.826c-.515-.313-1.054-.568-1.57-.877-.764-.458-1.476-1.034-2.26-1.444a3.835,3.835,0,0,0-2.257-.5C37.071,55.132,36.954,56.064,37.014,56.727Z" style="fill:#f7b64e"/><path d="M46.367,56.217c-.327.7-.626,1.793-.006,2.356a2.384,2.384,0,0,0,2.6.078,1.576,1.576,0,0,0,.781-.59,2.35,2.35,0,0,0,.24-1.052,2.532,2.532,0,0,0-.071-1.032,1.386,1.386,0,0,0-.832-.8A1.993,1.993,0,0,0,46.367,56.217Z" style="fill:#f7b64e"/><path d="M20.01,41c-5.74,2.15-6.84,7.92-7.01,11l.01,2.31A3.279,3.279,0,0,1,10,51V49c0-6.57,10.88-8.69,15.11-9.7Z" style="fill:#d57e39"/><path d="M12.99,52c.17-3.08,1.27-8.85,7.01-11l5.1-1.7a.037.037,0,0,1,.03-.01,5.365,5.365,0,0,0,.77-.26l.09-.03,1.99,2.98.01.033c-.013,5.045-7.673,9.569-11.73,11.7a5.422,5.422,0,0,1-3.26.6Z" style="fill:#ffcd8e"/><path d="M25.69,22.39a1,1,0,0,1,1.31.95v2.78a10.031,10.031,0,0,1-1.53,5.32l-.24.39A59.663,59.663,0,0,0,15,35.27V35s7-5,8-7c.79-1.57.34-3.76.11-4.63.31-.14.61-.26.89-.37C24.65,22.75,25.22,22.54,25.69,22.39Z" style="fill:#bf5d1b"/><path d="M23,28c-1,2-8,7-8,7v.27a28,28,0,0,0-3.98,2.17c.32-7.79,7.47-12.1,12.09-14.07C23.34,24.24,23.79,26.43,23,28Z" style="fill:#ffcd8e"/><path d="M20.18,11C22,11,22,15,22,15v.63a30.647,30.647,0,0,0-8.2,5.36l-.36-.2A2.9,2.9,0,0,1,12,18.23a3,3,0,0,1,.85-2.11C14.52,14.46,17.42,11,20.18,11Z" style="fill:#ffcd8e"/><path d="M24.59,7.2a10.319,10.319,0,0,1-.61,7.35l-.22.45.02.12a9.807,9.807,0,0,0-1.78.51V15s0-4-1.82-4c-2.76,0-5.66,3.46-7.33,5.12A3,3,0,0,0,12,18.23a2.9,2.9,0,0,0,1.44,2.56l.36.2c-.19.15-.38.32-.57.48a14.893,14.893,0,0,0-3.29,4.09l-.15-1.04a16.483,16.483,0,0,1-.28-9.13l2.4-9.47a6.668,6.668,0,0,1,2.27-3.55A6.178,6.178,0,0,1,18.06,1a6.4,6.4,0,0,1,6.1,4.7Z" style="fill:#e58d1f"/><path d="M22,15.63a9.807,9.807,0,0,1,1.78-.51A6.544,6.544,0,0,1,25,15l.77,2.24A5.454,5.454,0,0,1,26,18.8a5.314,5.314,0,0,1-1.56,3.76L24,23c-.28.11-.58.23-.89.37-4.62,1.97-11.77,6.28-12.09,14.07A14.908,14.908,0,0,0,8,39.96V33.09a15.516,15.516,0,0,1,1.94-7.53,14.893,14.893,0,0,1,3.29-4.09c.19-.16.38-.33.57-.48A30.647,30.647,0,0,1,22,15.63Z" style="fill:#e58d1f"/><path d="M28,42c0,5.05-7.668,9.58-11.727,11.711C13.493,55.171,10.041,54.14,10,51V49c0-6.592,10.93-8.7,15.139-9.715a4.494,4.494,0,0,0,2.6-1.687l.512-.7A3.829,3.829,0,0,0,29,34.633v-1.12a2.149,2.149,0,0,0-2.722-1.94C20.378,32.946,6.87,36.852,6,44V54a9,9,0,0,0,9,9h6a9,9,0,0,0,9-9V48.631a12,12,0,0,0-2.013-6.653" style="fill:#e58d1f"/><path d="M23.369,24.7a10.907,10.907,0,0,0-.259-1.329c-4.62,1.97-11.77,6.28-12.09,14.07.38-.254.8-.484,1.2-.721C13.364,30.387,19.135,26.63,23.369,24.7Z" style="fill:#d57e39"/><path d="M13.85,17.12C15.52,15.46,18.42,12,21.18,12a1.129,1.129,0,0,1,.277.039A1.469,1.469,0,0,0,20.18,11c-2.76,0-5.66,3.46-7.33,5.12A3,3,0,0,0,12,18.23a2.9,2.9,0,0,0,1.414,2.54A3.058,3.058,0,0,1,13,19.23,3,3,0,0,1,13.85,17.12Z" style="fill:#d57e39"/><path d="M24.59,7.2l-.43-1.5A6.432,6.432,0,0,0,19,1.079,3.942,3.942,0,0,1,22,5V6.22A2.693,2.693,0,0,1,19.405,9a5.386,5.386,0,0,0-3.645,1.444L12.43,13.5a5.155,5.155,0,0,0-1.63,3.8v2.043a4.153,4.153,0,0,1-1.093,2.829l-.4.429A16.378,16.378,0,0,0,9.79,24.52l.15,1.04a14.893,14.893,0,0,1,3.29-4.09c.19-.16.38-.33.57-.48l-.36-.2A2.9,2.9,0,0,1,12,18.23a3,3,0,0,1,.85-2.11C14.52,14.46,17.42,11,20.18,11,22,11,22,15,22,15v.63a9.807,9.807,0,0,1,1.78-.51L23.76,15l.22-.45A10.319,10.319,0,0,0,24.59,7.2Z" style="fill:#bf5d1b"/><path d="M25.77,17.24,25,15a6.544,6.544,0,0,0-1.22.12,9.807,9.807,0,0,0-1.78.51c-.158.06-.319.137-.479.2A2.163,2.163,0,0,1,22,17.183a6.335,6.335,0,0,1-2.978,5.4c-3.228,1.993-8.035,5.865-8.89,11.616a4.146,4.146,0,0,1-1.755,2.882L8,37.333V39.96a14.908,14.908,0,0,1,3.02-2.52c.32-7.79,7.47-12.1,12.09-14.07.31-.14.61-.26.89-.37l.44-.44A5.314,5.314,0,0,0,26,18.8,5.454,5.454,0,0,0,25.77,17.24Z" style="fill:#bf5d1b"/><path d="M25.69,22.39c-.47.15-1.04.36-1.69.61-.28.11-.58.23-.89.37a9.963,9.963,0,0,1,.331,2.5A1.378,1.378,0,0,1,25,27.236v1.432a1.468,1.468,0,0,1-1.3,1.375,20.417,20.417,0,0,0-4.07,1.382C17.431,33.261,15,35,15,35v.27a59.663,59.663,0,0,1,10.23-3.44l.24-.39A10.031,10.031,0,0,0,27,26.12V23.34A1,1,0,0,0,25.69,22.39Z" style="fill:#a65117"/><path d="M27.987,41.978,28,42a8.094,8.094,0,0,1-2.6,5.312C26.335,50.067,27.582,62,17.02,62H14.858C9.966,62,6,57.681,6,52.354V54a9,9,0,0,0,9,9h6a9,9,0,0,0,9-9V48.631A12,12,0,0,0,27.987,41.978Z" style="fill:#bf5d1b"/><path d="M24,35.274a3.263,3.263,0,0,1-2.568,3.2C17.146,39.4,9,41.841,9,47v4.083A2.917,2.917,0,0,0,11.917,54h.018A3.168,3.168,0,0,1,10,51V49c0-6.592,10.93-8.7,15.139-9.715a4.5,4.5,0,0,0,2.6-1.687l.512-.7A3.829,3.829,0,0,0,29,34.633v-1.12a2.149,2.149,0,0,0-2.722-1.94c-1.046.243-2.333.568-3.744.974A3.268,3.268,0,0,1,24,35.274Z" style="fill:#a65117"/><path d="M24.59,7.2l-.43-1.5A6.432,6.432,0,0,0,19,1.079a3.892,3.892,0,0,1,2.951,3.35l.375.563A4,4,0,0,1,23,7.211V12a3.97,3.97,0,0,1-1.012,2.635C22,14.861,22,15,22,15v.63a9.807,9.807,0,0,1,1.78-.51L23.76,15l.22-.45A10.319,10.319,0,0,0,24.59,7.2Z" style="fill:#a65117"/><path d="M14.755,2.541a6.214,6.214,0,0,0-.931,1.551,9.1,9.1,0,0,0-.737,1.971,2.719,2.719,0,0,0-.019,1.274c.113.4.414.725.718.653s.513-.513.711-.871a3.751,3.751,0,0,1,.857-1.062c.468-.39,1.027-.626,1.365-1.224a2.473,2.473,0,0,0,.223-1.684C16.624,1.726,15.485,1.75,14.755,2.541Z" style="fill:#f7b64e"/><path d="M11.95,10.9a.542.542,0,0,0,.4-.182c.444-.4,1.589-2.184.224-2.04C11.785,8.756,11.14,10.811,11.95,10.9Z" style="fill:#f7b64e"/><path d="M10.035,26.565c.49-.887,1.125-1.627,2.168-1.561a1.089,1.089,0,0,1,.718.3.481.481,0,0,1,.079.315c-.019.619-.49.888-.88,1.265a7.8,7.8,0,0,0-1.2,1.334,15.823,15.823,0,0,0-.85,1.845c-.173.366-.864,1.541-1.026.546A7.278,7.278,0,0,1,10.035,26.565Z" style="fill:#f7b64e"/><path d="M13.694,22.462A1.792,1.792,0,0,0,13,23.571a.369.369,0,0,0,.07.262.659.659,0,0,0,.474.165,4.428,4.428,0,0,0,2.046-.538,16.5,16.5,0,0,0,2.2-1.256c.588-.4,2.029-1.819.59-2.167-.993-.241-2.422.763-3.136,1.224A11.138,11.138,0,0,0,13.694,22.462Z" style="fill:#f7b64e"/><path d="M8.839,40.176A3.9,3.9,0,0,0,8,42.444a.813.813,0,0,0,.036.316c.119.3.479.268.744.174a8.993,8.993,0,0,0,2.59-1.452,1.538,1.538,0,0,0,.593-.77,1.509,1.509,0,0,0-.324-1.249C10.847,38.413,9.489,39.367,8.839,40.176Z" style="fill:#f7b64e"/><path d="M15.838,37.46a2.824,2.824,0,0,0-2.661-.245c-.792.235-1.14.626-1.175,1.148a.386.386,0,0,0,.125.346.941.941,0,0,0,.323.153,4.577,4.577,0,0,0,2.82-.212,1.616,1.616,0,0,0,.557-.315.784.784,0,0,0,.167-.652.229.229,0,0,0-.032-.123A.412.412,0,0,0,15.838,37.46Z" style="fill:#f7b64e"/><rect x="6" y="45" width="3" height="8" rx="1.5" ry="1.5" style="fill:#d17824"/><path d="M9.014,56.727a4.2,4.2,0,0,0,1.758,3.245,6.006,6.006,0,0,0,5.081.785,1.506,1.506,0,0,0,1.063-.789,1.468,1.468,0,0,0-.167-1.292,2.724,2.724,0,0,0-.926-.826c-.515-.313-1.054-.568-1.57-.877-.764-.458-1.476-1.034-2.26-1.444a3.835,3.835,0,0,0-2.257-.5C9.071,55.132,8.954,56.064,9.014,56.727Z" style="fill:#f7b64e"/><path d="M18.367,56.217c-.327.7-.626,1.793-.006,2.356a2.384,2.384,0,0,0,2.6.078,1.576,1.576,0,0,0,.781-.59,2.35,2.35,0,0,0,.24-1.052,2.532,2.532,0,0,0-.071-1.032,1.386,1.386,0,0,0-.832-.8A1.993,1.993,0,0,0,18.367,56.217Z" style="fill:#f7b64e"/><path d="M6,52v2a9,9,0,0,0,9,9h6a9,9,0,0,0,9-9V48.631a12,12,0,0,0-2.013-6.653L26,39l-5.994,2C14.267,43.155,13.165,48.922,13,52l.015,3" style="fill:none;stroke:#000;stroke-linejoin:round;stroke-width:2px"/><polyline points="6 48 6 49.03 6 49 6 50" style="fill:none;stroke:#000;stroke-linejoin:round;stroke-width:2px"/><path d="M23,49.483a45.225,45.225,0,0,1-6.727,4.228C13.493,55.171,10.041,54.14,10,51V49c0-6.592,10.93-8.7,15.139-9.715a4.494,4.494,0,0,0,2.6-1.687l.512-.7A3.829,3.829,0,0,0,29,34.633v-1.12a2.149,2.149,0,0,0-2.722-1.94C20.378,32.946,6.87,36.852,6,44v2" style="fill:none;stroke:#000;stroke-linejoin:round;stroke-width:2px"/><path d="M28,42c0,2.141-1.379,4.189-3.276,6" style="fill:none;stroke:#000;stroke-linejoin:round;stroke-width:2px"/><path d="M25.118,32l.353-.563A10,10,0,0,0,27,26.123V23.344a1,1,0,0,0-1.311-.951C21.867,23.654,11,28.11,11,38" style="fill:none;stroke:#000;stroke-linejoin:round;stroke-width:2px"/><path d="M17.662,18c2.51-1.714,5.12-3,7.338-3l.767,2.239A5.3,5.3,0,0,1,26,18.8h0a5.323,5.323,0,0,1-1.559,3.763L24,23" style="fill:none;stroke:#000;stroke-linejoin:round;stroke-width:2px"/><path d="M8,40V33.088A15.389,15.389,0,0,1,13.229,21.47c.951-.827,1.977-1.674,3.039-2.47" style="fill:none;stroke:#000;stroke-linejoin:round;stroke-width:2px"/><path d="M13.818,21l-.383-.211A2.9,2.9,0,0,1,12,18.235h0a2.977,2.977,0,0,1,.848-2.112C14.523,14.457,17.421,11,20.182,11,22,11,22,15,22,15v1" style="fill:none;stroke:#000;stroke-linejoin:round;stroke-width:2px"/><path d="M23,23s1,3,0,5c-.556,1.112-2.968,3.153-5,4.744" style="fill:none;stroke:#000;stroke-linejoin:round;stroke-width:2px"/><path d="M24.533,6.993,24.16,5.7A6.4,6.4,0,0,0,18.065,1h0A6.409,6.409,0,0,0,11.91,5.921l-2.4,9.469a16.565,16.565,0,0,0,.284,9.132L10,26" style="fill:none;stroke:#000;stroke-linejoin:round;stroke-width:2px"/><path d="M23.764,15l.218-.453A10.321,10.321,0,0,0,24.944,9" style="fill:none;stroke:#000;stroke-linejoin:round;stroke-width:2px"/><path d="M18,29c-.343.479-1.657,1.521-2,2" style="fill:none;stroke:#000;stroke-linejoin:round;stroke-width:2px"/><path d="M16,49a25.674,25.674,0,0,1,2,2" style="fill:none;stroke:#000;stroke-linejoin:round;stroke-width:2px"/><path d="M17,47a7.9,7.9,0,0,1,2-2" style="fill:none;stroke:#000;stroke-linejoin:round;stroke-width:2px"/><path d="M19,27c.519.486,1.319,1.8,2,2" style="fill:none;stroke:#000;stroke-linejoin:round;stroke-width:2px"/><path d="M24,43c0,1-1.2,2.45-2,3" style="fill:none;stroke:#000;stroke-linejoin:round;stroke-width:2px"/><path d="M34,52v2a9,9,0,0,0,9,9h6a9,9,0,0,0,9-9V48.631a12,12,0,0,0-2.013-6.653L54,39l-5.994,2C42.267,43.155,41.165,48.922,41,52l.015,3" style="fill:none;stroke:#000;stroke-linejoin:round;stroke-width:2px"/><polyline points="34 48 34 49.03 34 49 34 50" style="fill:none;stroke:#000;stroke-linejoin:round;stroke-width:2px"/><path d="M51,49.483a45.225,45.225,0,0,1-6.727,4.228C41.493,55.171,38.041,54.14,38,51V49c0-6.592,10.93-8.7,15.139-9.715a4.494,4.494,0,0,0,2.6-1.687l.512-.7A3.829,3.829,0,0,0,57,34.633v-1.12a2.149,2.149,0,0,0-2.722-1.94C48.378,32.946,34.87,36.852,34,44v2" style="fill:none;stroke:#000;stroke-linejoin:round;stroke-width:2px"/><path d="M56,42c0,2.141-1.379,4.189-3.276,6" style="fill:none;stroke:#000;stroke-linejoin:round;stroke-width:2px"/><path d="M53.118,32l.353-.563A10,10,0,0,0,55,26.123V23.344a1,1,0,0,0-1.311-.951C49.867,23.654,39,28.11,39,38" style="fill:none;stroke:#000;stroke-linejoin:round;stroke-width:2px"/><path d="M45.662,18c2.51-1.714,5.12-3,7.338-3l.767,2.239A5.3,5.3,0,0,1,54,18.8h0a5.323,5.323,0,0,1-1.559,3.763L52,23" style="fill:none;stroke:#000;stroke-linejoin:round;stroke-width:2px"/><path d="M36,40V33.088A15.389,15.389,0,0,1,41.229,21.47c.951-.827,1.977-1.674,3.039-2.47" style="fill:none;stroke:#000;stroke-linejoin:round;stroke-width:2px"/><path d="M41.818,21l-.383-.211A2.9,2.9,0,0,1,40,18.235h0a2.977,2.977,0,0,1,.848-2.112C42.523,14.457,45.421,11,48.182,11,50,11,50,15,50,15v1" style="fill:none;stroke:#000;stroke-linejoin:round;stroke-width:2px"/><path d="M51,23s1,3,0,5c-.556,1.112-2.968,3.153-5,4.744" style="fill:none;stroke:#000;stroke-linejoin:round;stroke-width:2px"/><path d="M52.533,6.993,52.16,5.7A6.4,6.4,0,0,0,46.065,1h0A6.409,6.409,0,0,0,39.91,5.921l-2.4,9.469a16.565,16.565,0,0,0,.284,9.132L38,26" style="fill:none;stroke:#000;stroke-linejoin:round;stroke-width:2px"/><path d="M51.764,15l.218-.453A10.321,10.321,0,0,0,52.944,9" style="fill:none;stroke:#000;stroke-linejoin:round;stroke-width:2px"/><path d="M46,29c-.343.479-1.657,1.521-2,2" style="fill:none;stroke:#000;stroke-linejoin:round;stroke-width:2px"/><path d="M44,49a25.674,25.674,0,0,1,2,2" style="fill:none;stroke:#000;stroke-linejoin:round;stroke-width:2px"/><path d="M45,47a7.9,7.9,0,0,1,2-2" style="fill:none;stroke:#000;stroke-linejoin:round;stroke-width:2px"/><path d="M47,27c.519.486,1.319,1.8,2,2" style="fill:none;stroke:#000;stroke-linejoin:round;stroke-width:2px"/><path d="M52,43c0,1-1.2,2.45-2,3" style="fill:none;stroke:#000;stroke-linejoin:round;stroke-width:2px"/></g></svg>