<svg xmlns="http://www.w3.org/2000/svg" viewBox="0 0 64 64"><g id="_22-Baguette" data-name="22-Baguette"><path d="M19.32,44.682a17.187,17.187,0,0,1-.55,11.66c-.6-1.87-1.72-4.38-2.97-8.14a34.634,34.634,0,0,1-1.7-12.9A29.788,29.788,0,0,1,19.32,44.682Z" style="fill:#ffcd8e"/><path d="M29.89,35.522a17.091,17.091,0,0,1-.56,11.65c-.6-1.87-1.72-4.38-2.97-8.13A37.93,37.93,0,0,1,24.63,26.1,29.88,29.88,0,0,1,29.89,35.522Z" style="fill:#ffcd8e"/><path d="M40.45,24.962a17.085,17.085,0,0,1-.55,11.65c-.6-1.87-1.72-4.37-2.97-8.13a38.107,38.107,0,0,1-1.74-12.96A29.806,29.806,0,0,1,40.45,24.962Z" style="fill:#ffcd8e"/><path d="M50.32,15.092a17.168,17.168,0,0,1-.56,11.66c-.6-1.87-1.72-4.37-2.97-8.13A34.772,34.772,0,0,1,45.09,5.7,30.123,30.123,0,0,1,50.32,15.092Z" style="fill:#ffcd8e"/><path d="M14.1,35.3a34.634,34.634,0,0,0,1.7,12.9c1.25,3.76,2.37,6.27,2.97,8.14.66,2.05.71,3.34-.36,4.69-4.75,2.41-10.61,3.12-14.59-.85-5.63-5.64-1.85-15.06,2.82-19.73l7.74-7.73A25.042,25.042,0,0,0,14.1,35.3Z" style="fill:#e58d1f"/><path d="M29.33,47.172c.76,2.34.72,3.69-.85,5.26l-4.93,4.93a20.382,20.382,0,0,1-5.14,3.67c1.07-1.35,1.02-2.64.36-4.69a17.187,17.187,0,0,0,.55-11.66A29.788,29.788,0,0,0,14.1,35.3a25.042,25.042,0,0,1,.28-2.58.031.031,0,0,0,.01-.02l10.57-10.56a34.4,34.4,0,0,0-.33,3.96,37.93,37.93,0,0,0,1.73,12.94C27.61,42.792,28.73,45.3,29.33,47.172Z" style="fill:#e58d1f"/><path d="M39.9,36.612c.75,2.34.71,3.68-.86,5.25l.01.01L28.48,52.432c1.57-1.57,1.61-2.92.85-5.26a17.091,17.091,0,0,0,.56-11.65,29.88,29.88,0,0,0-5.26-9.42,34.4,34.4,0,0,1,.33-3.96l10.55-10.55a35.365,35.365,0,0,0-.32,3.93,38.107,38.107,0,0,0,1.74,12.96C38.18,32.242,39.3,34.742,39.9,36.612Z" style="fill:#e58d1f"/><path d="M48.91,32l-9.86,9.87-.01-.01c1.57-1.57,1.61-2.91.86-5.25a17.085,17.085,0,0,0,.55-11.65,29.806,29.806,0,0,0-5.26-9.44,35.365,35.365,0,0,1,.32-3.93.031.031,0,0,0,.01-.02l4.93-4.93a20.466,20.466,0,0,1,4.91-3.56l.02.04a21.163,21.163,0,0,0-.29,2.58,34.772,34.772,0,0,0,1.7,12.92c1.25,3.76,2.37,6.26,2.97,8.13C50.51,29.092,50.47,30.432,48.91,32Z" style="fill:#e58d1f"/><path d="M60.18,3.822A9.724,9.724,0,0,1,63,10.912c0,4.67-2.64,9.64-5.64,12.64L48.91,32c1.56-1.57,1.6-2.91.85-5.25a17.168,17.168,0,0,0,.56-11.66A30.123,30.123,0,0,0,45.09,5.7a21.163,21.163,0,0,1,.29-2.58l-.02-.04C50.15.582,56.14-.218,60.18,3.822Z" style="fill:#e58d1f"/><path d="M18.77,56.342c-.6-1.87-1.72-4.38-2.97-8.14a34.634,34.634,0,0,1-1.7-12.9,25.042,25.042,0,0,1,.28-2.58L12,35.1V44a25.445,25.445,0,0,0,2.148,9.115,4.516,4.516,0,0,1-2.273,5.81h0A7.634,7.634,0,0,1,1.028,52.433,9.865,9.865,0,0,0,3.82,60.182c3.98,3.97,9.84,3.26,14.59.85C19.48,59.682,19.43,58.392,18.77,56.342Z" style="fill:#c96b1c"/><path d="M29.33,47.172c-.6-1.87-1.72-4.38-2.97-8.13A37.93,37.93,0,0,1,24.63,26.1a34.4,34.4,0,0,1,.33-3.96L23,24.1V31a44.031,44.031,0,0,0,1.542,12.272,7.021,7.021,0,0,1-1.758,6.944l-3.077,3.077a17.327,17.327,0,0,1-.937,3.049c.66,2.05.71,3.34-.36,4.69a20.382,20.382,0,0,0,5.14-3.67l4.93-4.93C30.05,50.862,30.09,49.512,29.33,47.172Z" style="fill:#c96b1c"/><path d="M39.9,36.612c-.6-1.87-1.72-4.37-2.97-8.13a38.107,38.107,0,0,1-1.74-12.96,35.365,35.365,0,0,1,.32-3.93L33,14.1V21a44.031,44.031,0,0,0,1.542,12.272,7.021,7.021,0,0,1-1.758,6.944L30.55,42.45a17.738,17.738,0,0,1-1.22,4.722c.76,2.34.72,3.69-.85,5.26l10.57-10.56-.01-.01C40.61,40.292,40.65,38.952,39.9,36.612Z" style="fill:#c96b1c"/><path d="M49.76,26.752c-.6-1.87-1.72-4.37-2.97-8.13A34.772,34.772,0,0,1,45.09,5.7a21.163,21.163,0,0,1,.29-2.58l-.02-.04A21.562,21.562,0,0,0,43,4.531V11a44.031,44.031,0,0,0,1.542,12.272,7.021,7.021,0,0,1-1.758,6.944l-1.667,1.667A17.692,17.692,0,0,1,39.9,36.612c.75,2.34.71,3.68-.86,5.25l.01.01L48.91,32C50.47,30.432,50.51,29.092,49.76,26.752Z" style="fill:#c96b1c"/><path d="M60.18,3.822a9.377,9.377,0,0,0-4.8-2.582,8.047,8.047,0,0,1,3.859,5.276A12.3,12.3,0,0,1,55.85,18.15L50.8,23.2a17.5,17.5,0,0,1-1.044,3.556c.75,2.34.71,3.68-.85,5.25l8.45-8.45c3-3,5.64-7.97,5.64-12.64A9.724,9.724,0,0,0,60.18,3.822Z" style="fill:#c96b1c"/><path d="M14.993,43.47a.614.614,0,0,0-.012.563,1.239,1.239,0,0,0,.374.444,2.557,2.557,0,0,0,1.047.5.827.827,0,0,0,.585-.042.99.99,0,0,0,.353-.47.9.9,0,0,0,.126-.514C17.343,43.182,15.388,42.82,14.993,43.47Z" style="fill:#f4b774"/><path d="M15.29,39.954a.5.5,0,0,1,.281.065.392.392,0,0,1,.045.567.562.562,0,0,1-.8-.014C14.609,40.243,15,39.959,15.29,39.954Z" style="fill:#f4b774"/><path d="M17.632,49.614a.524.524,0,0,0-.32.049.26.26,0,0,0-.136.275.3.3,0,0,0,.08.13.66.66,0,0,0,.385.181.561.561,0,0,0,.369-.067C18.464,49.893,17.915,49.645,17.632,49.614Z" style="fill:#f4b774"/><path d="M18.081,50.806a.452.452,0,0,0-.339.162.209.209,0,0,0-.045.123c0,.1.105.174.2.221a.825.825,0,0,0,.363.107.334.334,0,0,0,.311-.181C18.728,50.861,18.373,50.79,18.081,50.806Z" style="fill:#f4b774"/><path d="M16.854,45.668a1.168,1.168,0,0,0-.825.346c-.263.324.154.657.444.747a2.274,2.274,0,0,0,.485.094.6.6,0,0,0,.274-.027.7.7,0,0,0,.18-.122.743.743,0,0,0,.318-.453.474.474,0,0,0-.151-.37A.963.963,0,0,0,16.854,45.668Z" style="fill:#f4b774"/><path d="M17.075,48.045a.255.255,0,0,0,.085.088,1.118,1.118,0,0,0,.922.168c.339-.09.09-.615-.177-.653C17.716,47.621,16.93,47.745,17.075,48.045Z" style="fill:#f4b774"/><path d="M15.307,42.113a.315.315,0,0,0-.161.3.339.339,0,0,0,.212.2c.294.134,1.547.331,1.344-.359C16.564,41.79,15.591,41.913,15.307,42.113Z" style="fill:#f4b774"/><path d="M45.993,14.47a.614.614,0,0,0-.012.563,1.239,1.239,0,0,0,.374.444,2.557,2.557,0,0,0,1.047.495.827.827,0,0,0,.585-.042.99.99,0,0,0,.353-.47.9.9,0,0,0,.126-.514C48.343,14.182,46.388,13.82,45.993,14.47Z" style="fill:#f4b774"/><path d="M46.29,10.954a.5.5,0,0,1,.281.065.392.392,0,0,1,.045.567.562.562,0,0,1-.8-.014C45.609,11.243,46,10.959,46.29,10.954Z" style="fill:#f4b774"/><path d="M48.632,20.614a.524.524,0,0,0-.32.049.26.26,0,0,0-.136.275.3.3,0,0,0,.08.13.66.66,0,0,0,.385.181.561.561,0,0,0,.369-.067C49.464,20.893,48.915,20.645,48.632,20.614Z" style="fill:#f4b774"/><path d="M49.081,21.806a.452.452,0,0,0-.339.162.209.209,0,0,0-.045.123c0,.1.1.174.2.221a.825.825,0,0,0,.363.107.334.334,0,0,0,.311-.181C49.728,21.861,49.373,21.79,49.081,21.806Z" style="fill:#f4b774"/><path d="M47.854,16.668a1.168,1.168,0,0,0-.825.346c-.263.324.154.657.444.747a2.274,2.274,0,0,0,.485.094.6.6,0,0,0,.274-.027.7.7,0,0,0,.18-.122.743.743,0,0,0,.318-.453.474.474,0,0,0-.151-.37A.963.963,0,0,0,47.854,16.668Z" style="fill:#f4b774"/><path d="M48.075,19.045a.255.255,0,0,0,.085.088,1.118,1.118,0,0,0,.922.168c.339-.09.09-.615-.177-.653C48.716,18.621,47.93,18.745,48.075,19.045Z" style="fill:#f4b774"/><path d="M46.307,13.113a.315.315,0,0,0-.161.3.339.339,0,0,0,.212.2c.294.134,1.547.331,1.344-.359C47.564,12.79,46.591,12.913,46.307,13.113Z" style="fill:#f4b774"/><path d="M26.064,33.731a.617.617,0,0,0-.483.29,1.227,1.227,0,0,0-.177.552,2.541,2.541,0,0,0,.136,1.15.827.827,0,0,0,.346.474.983.983,0,0,0,.585.049.9.9,0,0,0,.5-.165C27.556,35.57,26.825,33.721,26.064,33.731Z" style="fill:#f4b774"/><path d="M28.632,42.614a.524.524,0,0,0-.32.049.26.26,0,0,0-.136.275.3.3,0,0,0,.08.13.66.66,0,0,0,.385.181.561.561,0,0,0,.369-.067C29.464,42.893,28.915,42.645,28.632,42.614Z" style="fill:#f4b774"/><path d="M25.632,31.614a.524.524,0,0,0-.32.049.26.26,0,0,0-.136.275.3.3,0,0,0,.08.13.66.66,0,0,0,.385.181.561.561,0,0,0,.369-.067C26.464,31.893,25.915,31.645,25.632,31.614Z" style="fill:#f4b774"/><path d="M28.081,40.806a.452.452,0,0,0-.339.162.209.209,0,0,0-.045.123c0,.1.105.174.2.221a.825.825,0,0,0,.363.107.334.334,0,0,0,.311-.181C28.728,40.861,28.373,40.79,28.081,40.806Z" style="fill:#f4b774"/><path d="M27.854,36.668a1.168,1.168,0,0,0-.825.346c-.263.324.154.657.444.747a2.274,2.274,0,0,0,.485.094.6.6,0,0,0,.274-.027.7.7,0,0,0,.18-.122.743.743,0,0,0,.318-.453.474.474,0,0,0-.151-.37A.963.963,0,0,0,27.854,36.668Z" style="fill:#f4b774"/><path d="M28.075,40.045a.255.255,0,0,0,.085.088,1.118,1.118,0,0,0,.922.168c.339-.09.09-.615-.177-.653C28.716,39.621,27.93,39.745,28.075,40.045Z" style="fill:#f4b774"/><path d="M26.857,39.205a.31.31,0,0,0-.067.172c.005.109.119.177.221.214a1.64,1.64,0,0,0,.509.1.187.187,0,0,0,.134-.031.163.163,0,0,0,.044-.066.5.5,0,0,0-.033-.44C27.419,38.742,27.075,38.87,26.857,39.205Z" style="fill:#f4b774"/><path d="M26.7,32.718a.315.315,0,0,0-.33.07.339.339,0,0,0-.017.294c.09.311.756,1.391,1.147.787C27.762,33.462,27.035,32.8,26.7,32.718Z" style="fill:#f4b774"/><path d="M37.064,21.731a.617.617,0,0,0-.483.29,1.227,1.227,0,0,0-.177.552,2.541,2.541,0,0,0,.136,1.15.827.827,0,0,0,.346.474.983.983,0,0,0,.585.049.9.9,0,0,0,.5-.165C38.556,23.57,37.825,21.721,37.064,21.731Z" style="fill:#f4b774"/><path d="M38.632,31.614a.524.524,0,0,0-.32.049.26.26,0,0,0-.136.275.3.3,0,0,0,.08.13.66.66,0,0,0,.385.181.561.561,0,0,0,.369-.067C39.464,31.893,38.915,31.645,38.632,31.614Z" style="fill:#f4b774"/><path d="M36.632,20.614a.524.524,0,0,0-.32.049.26.26,0,0,0-.136.275.3.3,0,0,0,.08.13.66.66,0,0,0,.385.181.561.561,0,0,0,.369-.067C37.464,20.893,36.915,20.645,36.632,20.614Z" style="fill:#f4b774"/><path d="M39.081,28.806a.452.452,0,0,0-.339.162.209.209,0,0,0-.045.123c0,.1.1.174.2.221a.825.825,0,0,0,.363.107.334.334,0,0,0,.311-.181C39.728,28.861,39.373,28.79,39.081,28.806Z" style="fill:#f4b774"/><path d="M37.854,26.668a1.168,1.168,0,0,0-.825.346c-.263.324.154.657.444.747a2.274,2.274,0,0,0,.485.094.6.6,0,0,0,.274-.027.7.7,0,0,0,.18-.122.743.743,0,0,0,.318-.453.474.474,0,0,0-.151-.37A.963.963,0,0,0,37.854,26.668Z" style="fill:#f4b774"/><path d="M38.075,30.045a.255.255,0,0,0,.085.088,1.118,1.118,0,0,0,.922.168c.339-.09.09-.615-.177-.653C38.716,29.621,37.93,29.745,38.075,30.045Z" style="fill:#f4b774"/><path d="M37.857,28.205a.31.31,0,0,0-.067.172c.005.109.119.177.221.214a1.64,1.64,0,0,0,.509.1.187.187,0,0,0,.134-.031.163.163,0,0,0,.044-.066.5.5,0,0,0-.033-.44C38.419,27.742,38.075,27.87,37.857,28.205Z" style="fill:#f4b774"/><path d="M37.7,24.718a.315.315,0,0,0-.33.07.339.339,0,0,0-.017.294c.09.311.756,1.391,1.147.787C38.762,25.462,38.035,24.8,37.7,24.718Z" style="fill:#f4b774"/><path d="M49.874,2.579A6.55,6.55,0,0,0,47.386,4.15a1.3,1.3,0,0,0-.379.678c-.071.535.427.97.905,1.24a14.019,14.019,0,0,0,2.189.926,15.1,15.1,0,0,0,3.709.98,4.218,4.218,0,0,0,1.729-.151,2.179,2.179,0,0,0,1.3-1.079,2.217,2.217,0,0,0-.051-1.79,6.223,6.223,0,0,0-2.058-2.46,4.4,4.4,0,0,0-2.863-.439A8.425,8.425,0,0,0,49.874,2.579Z" style="fill:#f7b64e"/><path d="M55.11,9.538a5.452,5.452,0,0,0-1.019,2.275,3.458,3.458,0,0,0,.171,2.145,1.68,1.68,0,0,0,1.671,1.026,1.832,1.832,0,0,0,.93-.5,3.8,3.8,0,0,0,1.118-2.441,3.671,3.671,0,0,0-.642-2.7A1.658,1.658,0,0,0,55.11,9.538Z" style="fill:#f7b64e"/><path d="M38.2,10.422a11.777,11.777,0,0,0-1.543,1.591,2.977,2.977,0,0,0-.65,1.414,1.3,1.3,0,0,0,1.795,1.483,4.362,4.362,0,0,0,1.114-.626l1.844-1.291a3.078,3.078,0,0,0,.912-.843A3.2,3.2,0,0,0,42,10.505a1.741,1.741,0,0,0-.272-1.186,1.113,1.113,0,0,0-1.114-.276A6.733,6.733,0,0,0,38.2,10.422Z" style="fill:#f7b64e"/><path d="M28.2,20.422a11.777,11.777,0,0,0-1.543,1.591,2.977,2.977,0,0,0-.65,1.414,1.3,1.3,0,0,0,1.8,1.483,4.362,4.362,0,0,0,1.114-.626l1.844-1.291a3.078,3.078,0,0,0,.912-.843A3.2,3.2,0,0,0,32,20.505a1.741,1.741,0,0,0-.272-1.186,1.113,1.113,0,0,0-1.114-.276A6.733,6.733,0,0,0,28.2,20.422Z" style="fill:#f7b64e"/><path d="M18.2,30.422a11.777,11.777,0,0,0-1.543,1.591,2.977,2.977,0,0,0-.65,1.414,1.3,1.3,0,0,0,1.8,1.483,4.362,4.362,0,0,0,1.114-.626l1.844-1.291a3.078,3.078,0,0,0,.912-.843A3.2,3.2,0,0,0,22,30.505a1.741,1.741,0,0,0-.272-1.186,1.113,1.113,0,0,0-1.114-.276A6.733,6.733,0,0,0,18.2,30.422Z" style="fill:#f7b64e"/><path d="M6.028,42.906A13.183,13.183,0,0,0,3.14,48.128a3.025,3.025,0,0,0-.015,1.755A1.7,1.7,0,0,0,4.561,51a2.016,2.016,0,0,0,1.564-.7,8.012,8.012,0,0,0,.895-1.386c.851-1.419,2.165-2.586,3.153-3.937a3.055,3.055,0,0,0,.772-2.445A2.03,2.03,0,0,0,9.82,41.233C8.127,40.44,6.923,41.842,6.028,42.906Z" style="fill:#f7b64e"/><path d="M8.067,49.456a4.481,4.481,0,0,0,.167,2.278A2,2,0,0,0,10.1,53,1.956,1.956,0,0,0,11.635,51.9,4.194,4.194,0,0,0,12,50.061a4.741,4.741,0,0,0-.162-1.547,2.151,2.151,0,0,0-.952-1.239C9.134,46.29,8.217,48.168,8.067,49.456Z" style="fill:#f7b64e"/><path d="M55,25.907,23.547,57.36c-4.669,4.669-14.089,8.453-19.725,2.818h0C-1.813,54.542,1.971,45.122,6.64,40.453L8,39.093" style="fill:none;stroke:#000;stroke-linejoin:round;stroke-width:2px"/><path d="M10,37.093,40.453,6.64c4.669-4.669,14.089-8.453,19.725-2.818h0c5.635,5.636,1.851,15.056-2.818,19.725l-.36.36" style="fill:none;stroke:#000;stroke-linejoin:round;stroke-width:2px"/><path d="M45.384,3.118a33.2,33.2,0,0,0,1.409,15.5C49.611,27.069,51.724,29.182,48.907,32" style="fill:none;stroke:#000;stroke-linejoin:round;stroke-width:2px"/><path d="M45,5.6a29.915,29.915,0,0,1,5.314,9.5,17.046,17.046,0,0,1-.705,11.976" style="fill:none;stroke:#000;stroke-linejoin:round;stroke-width:2px"/><path d="M14.389,32.7A33.182,33.182,0,0,0,15.8,48.2c2.818,8.454,4.931,10.567,2.113,13.385" style="fill:none;stroke:#000;stroke-linejoin:round;stroke-width:2px"/><path d="M13.684,34.818A29.326,29.326,0,0,1,19.32,44.68a17.049,17.049,0,0,1-.7,11.976" style="fill:none;stroke:#000;stroke-linejoin:round;stroke-width:2px"/><path d="M35.522,11.571a39.408,39.408,0,0,0,1.409,16.907c2.818,8.453,4.931,10.566,2.113,13.384" style="fill:none;stroke:#000;stroke-linejoin:round;stroke-width:2px"/><path d="M35,15.3a29.762,29.762,0,0,1,5.452,9.658,17.039,17.039,0,0,1-.7,11.975" style="fill:none;stroke:#000;stroke-linejoin:round;stroke-width:2px"/><path d="M24.956,22.138a39.412,39.412,0,0,0,1.408,16.906C29.182,47.5,31.3,49.611,28.478,52.429" style="fill:none;stroke:#000;stroke-linejoin:round;stroke-width:2px"/><path d="M24.554,26a29.892,29.892,0,0,1,5.333,9.519A17.046,17.046,0,0,1,29.182,47.5" style="fill:none;stroke:#000;stroke-linejoin:round;stroke-width:2px"/></g></svg>