<svg xmlns="http://www.w3.org/2000/svg" viewBox="0 0 64 64"><g id="_23-pecan_pie" data-name="23-pecan pie"><path d="M47,37v3.01a7.977,7.977,0,0,1-2.87,6.14,7.648,7.648,0,0,1-2.57,1.44h-.01c-.1.04-.19.07-.29.1L30.21,50.94a21.35,21.35,0,0,1-5.26-3.9L25,47a50.03,50.03,0,0,0,7.36-2.48,26.839,26.839,0,0,0,6.26-3.64C40.61,39.25,42,37.29,42,35v-.57a7.734,7.734,0,0,0,2.7-1.81C46.39,33.96,47,37,47,37Z" style="fill:#e58d1f"/><path d="M47,24v3.01a7.985,7.985,0,0,1-2.3,5.61A7.734,7.734,0,0,1,42,34.43a6.492,6.492,0,0,1-.74.26L30.94,37.73h-.01a27.054,27.054,0,0,1-5.7-3.79,49.038,49.038,0,0,0,8.46-3.03,22.714,22.714,0,0,0,5.59-3.6A7.338,7.338,0,0,0,42,22V19.68l.21-.08a6.618,6.618,0,0,0,1.24-.56C46.1,19.5,47,24,47,24Z" style="fill:#e58d1f"/><path d="M34.62,15.68a21.568,21.568,0,0,0,4.44-2.6A4.294,4.294,0,0,0,41,10V6l3.24,1.62A5,5,0,0,1,47,12.09v.86a6.974,6.974,0,0,1-3.55,6.09,6.618,6.618,0,0,1-1.24.56l-.21.08L31.27,23.89a24.741,24.741,0,0,1-7-4.89H25s1.96-.49,4.5-1.33C31.09,17.13,32.91,16.46,34.62,15.68Z" style="fill:#f7b64e"/><path d="M35.98,53a29.856,29.856,0,0,0,5.57-5.41h.01a7.648,7.648,0,0,0,2.57-1.44A6.793,6.793,0,0,1,46,50.83v.37A11.813,11.813,0,0,1,34.2,63a1.34,1.34,0,0,1-.2-.01,9.954,9.954,0,0,1-5.61-1.85L25,57a18.634,18.634,0,0,0,10.97-4Z" style="fill:#e58d1f"/><path d="M42,34.43V35c0,2.29-1.39,4.25-3.38,5.88a52.276,52.276,0,0,1-7.68-3.15l10.32-3.04A6.492,6.492,0,0,0,42,34.43Z" style="fill:#854920"/><path d="M42,19.68V22a7.338,7.338,0,0,1-2.72,5.31L39,27a51.368,51.368,0,0,1-7.73-3.11Z" style="fill:#854920"/><path d="M41.26,47.69c.1-.03.19-.06.29-.1A29.856,29.856,0,0,1,35.98,53h-.01a19.634,19.634,0,0,1-5.76-2.06Z" style="fill:#854920"/><path d="M41,6v4a4.294,4.294,0,0,1-1.94,3.08L39,13c0-3.42-2.81-7.79-4.59-10.2A1.993,1.993,0,0,1,36,2h.88a4.009,4.009,0,0,1,3.88,3.03Z" style="fill:#bf5d1b"/><path d="M39,27l.28.31a22.714,22.714,0,0,1-5.59,3.6L22.74,27.69a5.314,5.314,0,0,1-.56-.2,7.555,7.555,0,0,1-2.23-1.27A8.033,8.033,0,0,1,17,20.01V17s1-5,4-5l1,.67V14a7.448,7.448,0,0,0,2.27,5,24.741,24.741,0,0,0,7,4.89A51.368,51.368,0,0,0,39,27Z" style="fill:#f7b64e"/><path d="M39,13l.06.08a21.568,21.568,0,0,1-4.44,2.6L23.19,6.01A3.089,3.089,0,0,0,22,5.39V5a4,4,0,0,1,4-4h5.06a4.012,4.012,0,0,1,3.22,1.62c.04.06.09.12.13.18C36.19,5.21,39,9.58,39,13Z" style="fill:#f7b64e"/><path d="M25.23,33.94a27.054,27.054,0,0,0,5.7,3.79h.01a52.276,52.276,0,0,0,7.68,3.15,26.839,26.839,0,0,1-6.26,3.64l-9.62-2.83a7.611,7.611,0,0,1-.72-.25,7.839,7.839,0,0,1-2.72-1.82A7.985,7.985,0,0,1,17,34.01V31s.76-3.8,2.95-4.78a7.555,7.555,0,0,0,2.23,1.27L22,28C22,30.23,23.32,32.23,25.23,33.94Z" style="fill:#f7b64e"/><path d="M22,5.39a3.089,3.089,0,0,1,1.19.62l11.43,9.67c-1.71.78-3.53,1.45-5.12,1.99l-7.5-5L21,12l-1.65-1.1A3.042,3.042,0,0,1,18,8.37a3.085,3.085,0,0,1,.64-1.87A3.049,3.049,0,0,1,20.3,5.42l.19-.04A2.969,2.969,0,0,1,22,5.39Z" style="fill:#e58d1f"/><path d="M34,62.99V63H26.78a3.662,3.662,0,0,1-1.49-.32l-3.72-1.65a7.631,7.631,0,0,1-3.33-2.84A7.71,7.71,0,0,1,17,54l1-3,.26-.15C19.86,53.63,22.7,56.32,25,57l3.39,4.14A9.954,9.954,0,0,0,34,62.99Z" style="fill:#bf5d1b"/><path d="M22.74,27.69l10.95,3.22a49.038,49.038,0,0,1-8.46,3.03C23.32,32.23,22,30.23,22,28l.18-.51A5.314,5.314,0,0,0,22.74,27.69Z" style="fill:#854920"/><path d="M22.74,41.69l9.62,2.83A50.03,50.03,0,0,1,25,47l-.05.04a9.458,9.458,0,0,1-2.93-5.6A7.611,7.611,0,0,0,22.74,41.69Z" style="fill:#854920"/><path d="M35.97,53A18.634,18.634,0,0,1,25,57c-2.3-.68-5.14-3.37-6.74-6.15A8.175,8.175,0,0,1,17,47.01V44s.61-3.04,2.3-4.38a7.839,7.839,0,0,0,2.72,1.82,9.458,9.458,0,0,0,2.93,5.6,21.35,21.35,0,0,0,5.26,3.9A19.634,19.634,0,0,0,35.97,53Z" style="fill:#f7b64e"/><path d="M22,12.67l7.5,5C26.96,18.51,25,19,25,19h-.73A7.448,7.448,0,0,1,22,14Z" style="fill:#854920"/><path d="M44.24,7.62,44,7.5V9.933a8.02,8.02,0,0,1-.308,2.188,7.924,7.924,0,0,1-4.313,5.065,113.231,113.231,0,0,1-12.042,4.407,33.419,33.419,0,0,0,3.933,2.3L42,19.68l.21-.08a6.618,6.618,0,0,0,1.24-.56A7.057,7.057,0,0,0,47,12.95v-.86A5,5,0,0,0,44.24,7.62Z" style="fill:#bf5d1b"/><path d="M42,21.642V19.68L31.27,23.89A51.368,51.368,0,0,0,39,27l.28.31a10.775,10.775,0,0,0,1.342-1.492c-.683-.266-1.436-.574-2.227-.924a1,1,0,0,1,.033-1.851Z" style="fill:#56271d"/><path d="M41.95,35.665A5.609,5.609,0,0,0,42,35v-.57a6.492,6.492,0,0,1-.74.26L30.94,37.73a52.276,52.276,0,0,0,7.68,3.15,13.412,13.412,0,0,0,1.107-1.021c-.731-.282-1.546-.614-2.4-.994a1,1,0,0,1,.126-1.874Z" style="fill:#56271d"/><path d="M40.2,49.178c.589-.645,1.046-1.2,1.35-1.588-.1.04-.19.07-.29.1L30.21,50.94A19.634,19.634,0,0,0,35.97,53h.01q.54-.4,1.037-.807c-.1-.037-.206-.076-.31-.116a1,1,0,0,1,.083-1.9Z" style="fill:#56271d"/><path d="M24.315,33.036c.288.308.589.612.915.9a49.038,49.038,0,0,0,8.46-3.03L22.74,27.69a5.314,5.314,0,0,1-.56-.2L22,28a5.607,5.607,0,0,0,.049.663l4.992,1.468a1,1,0,0,1,.087,1.891C26.121,32.42,25.162,32.758,24.315,33.036Z" style="fill:#56271d"/><path d="M22.74,41.69a7.611,7.611,0,0,1-.72-.25,6.431,6.431,0,0,0,.244,1.287l3.29.968A1,1,0,0,1,25.6,45.6c-.52.185-1.015.352-1.475.5.259.319.53.634.826.94L25,47a50.03,50.03,0,0,0,7.36-2.48Z" style="fill:#56271d"/><path d="M24,14a7.248,7.248,0,0,0,2.03,4.721c.816-.226,2.044-.582,3.47-1.054Z" style="fill:#56271d"/><path d="M32.615,13.984c-.19.086-.388.179-.563.249a4,4,0,0,1-3.77-.422l-9.923-6.87A3.076,3.076,0,0,0,18,8.37a3.042,3.042,0,0,0,1.35,2.53L21,12l1,.67,7.5,5c1.59-.54,3.41-1.21,5.12-1.99Z" style="fill:#bf5d1b"/><path d="M39.06,13.08,39,13c0-3.42-2.81-7.79-4.59-10.2-.04-.06-.09-.12-.13-.18A4.012,4.012,0,0,0,31.06,1H29.093C31.1,2.913,35.248,7.239,36,11c.23,1.151-1.365,2.136-3.46,2.92l2.08,1.76A21.568,21.568,0,0,0,39.06,13.08Z" style="fill:#e58d1f"/><path d="M38.725,7.131,36.444,2H36a1.993,1.993,0,0,0-1.59.8C36.19,5.21,39,9.58,39,13l.06.08A4.294,4.294,0,0,0,41,10V8.874A3,3,0,0,1,38.725,7.131Z" style="fill:#854920"/><path d="M43.692,12.121A8.02,8.02,0,0,0,44,9.933V7.5L41,6V9.71A7.252,7.252,0,0,1,43.692,12.121Z" style="fill:#e58d1f"/><path d="M29.969,20.75a21.929,21.929,0,0,1-2.746-2.368C25.885,18.777,25,19,25,19h-.73a24.741,24.741,0,0,0,7,4.89,33.419,33.419,0,0,1-3.933-2.3C28.02,21.381,28.93,21.092,29.969,20.75Z" style="fill:#e58d1f"/><path d="M43.918,11.057a8.242,8.242,0,0,1-.226,1.064,7.924,7.924,0,0,1-4.313,5.065c-.295.136-.6.27-.91.405a4.8,4.8,0,0,0,3.008,2.294L42,19.68l.21-.08a6.618,6.618,0,0,0,1.24-.56,6.913,6.913,0,0,0,1.626-1.281,6.983,6.983,0,0,0,1.879-4.048A3.257,3.257,0,0,0,43.918,11.057Z" style="fill:#e58d1f"/><path d="M28.976,27.96c-2.021-.743-4.3-1.75-6.055-2.563A5.034,5.034,0,0,1,20,20.825V19.5a1.5,1.5,0,0,0-3,0v.51a8.033,8.033,0,0,0,2.95,6.21,7.555,7.555,0,0,0,2.23,1.27,5.314,5.314,0,0,0,.56.2l10.95,3.22a22.714,22.714,0,0,0,5.59-3.6L39,27s-.977-.287-2.458-.833l-.834.667A6.954,6.954,0,0,1,28.976,27.96Z" style="fill:#e58d1f"/><path d="M20,16c.975.975,3.867,7.639,11.43,7.969l-.16-.079a24.741,24.741,0,0,1-7-4.89A7.448,7.448,0,0,1,22,14V12.67L21,12c-2.074,0-3.192,2.389-3.684,3.865C17.918,15.631,19.244,15.244,20,16Z" style="fill:#bf5d1b"/><path d="M20.393,29.293a8.924,8.924,0,0,0,5.506,5.2c-.224-.184-.459-.362-.669-.554C23.32,32.23,22,30.23,22,28l.18-.51a7.555,7.555,0,0,1-2.23-1.27,4.243,4.243,0,0,0-1.8,1.78h.371A2.02,2.02,0,0,1,20.393,29.293Z" style="fill:#bf5d1b"/><path d="M36.356,40.1l-.56.373a9.978,9.978,0,0,1-9.158,1.009c-6.036-2.36-7.427-5.75-7.679-7.771A1.974,1.974,0,0,0,17,32V34.01a7.985,7.985,0,0,0,2.3,5.61,7.839,7.839,0,0,0,2.72,1.82,7.611,7.611,0,0,0,.72.25l9.62,2.83a26.839,26.839,0,0,0,6.26-3.64C38.181,40.742,37.373,40.474,36.356,40.1Z" style="fill:#e58d1f"/><path d="M45.964,21.2A3.855,3.855,0,0,0,43.45,19.04a6.618,6.618,0,0,1-1.24.56l-.21.08V22a7.338,7.338,0,0,1-2.72,5.31,22.714,22.714,0,0,1-5.59,3.6,49.038,49.038,0,0,1-8.46,3.03,19.313,19.313,0,0,0,1.7,1.358C30.878,33.851,39.692,30.539,42,29,44.688,27.208,45.768,22.216,45.964,21.2Z" style="fill:#f7b64e"/><path d="M45.963,34.2A5.213,5.213,0,0,0,44.7,32.62,7.734,7.734,0,0,1,42,34.43V35c0,2.29-1.39,4.25-3.38,5.88a26.839,26.839,0,0,1-6.26,3.64A50.03,50.03,0,0,1,25,47l-.05.04A18.234,18.234,0,0,0,26.5,48.455C30.2,47.107,39.6,43.6,42,42,44.687,40.208,45.767,35.22,45.963,34.2Z" style="fill:#f7b64e"/><path d="M35.97,53a19.634,19.634,0,0,1-5.76-2.06,21.35,21.35,0,0,1-5.26-3.9,9.458,9.458,0,0,1-2.93-5.6,7.839,7.839,0,0,1-2.72-1.82,5.706,5.706,0,0,0-1.478,1.991A14.83,14.83,0,0,0,20,43c1.61.8,2.572,5.5,8.1,8.86a2,2,0,0,1-.59,3.658,15.3,15.3,0,0,1-5.2-.01A8.578,8.578,0,0,0,25,57,18.634,18.634,0,0,0,35.97,53Z" style="fill:#bf5d1b"/><path d="M47,27.01V24a11.105,11.105,0,0,0-1.036-2.8c-.17.883-1,4.733-2.964,6.918V30a3.971,3.971,0,0,0,1.333,2.961c.124-.112.251-.222.367-.341A7.985,7.985,0,0,0,47,27.01Z" style="fill:#bf5d1b"/><path d="M47,40.01V37a11.085,11.085,0,0,0-1.037-2.8c-.169.885-1,4.733-2.963,6.917V43a3.975,3.975,0,0,0,1.333,2.962A7.972,7.972,0,0,0,47,40.01Z" style="fill:#bf5d1b"/><path d="M43.68,46.5a7.51,7.51,0,0,1-2.12,1.1h-.01A29.856,29.856,0,0,1,35.98,53h-.01A18.634,18.634,0,0,1,25,57l2.422,2.958C39.161,59.272,42.722,50.144,43.68,46.5Z" style="fill:#f7b64e"/><path d="M46,50.83a6.793,6.793,0,0,0-1.87-4.68c-.145.122-.3.234-.45.345a20.236,20.236,0,0,1-2.99,6.437,4.907,4.907,0,0,1,4,3.65A11.718,11.718,0,0,0,46,51.2Z" style="fill:#bf5d1b"/><path d="M30.6,59.527a20.866,20.866,0,0,1-3.182.431l.968,1.182A9.954,9.954,0,0,0,34,62.99a1.34,1.34,0,0,0,.2.01,12,12,0,0,0,1.466-.1A6.557,6.557,0,0,1,30.6,59.527Z" style="fill:#bf5d1b"/><path d="M28.39,61.14,25,57c-2.3-.68-5.14-3.37-6.74-6.15L18,51l-.875,2.625,1.694.941a14.227,14.227,0,0,1,6.643,8.17A3.632,3.632,0,0,0,26.78,63H34v-.01A9.954,9.954,0,0,1,28.39,61.14Z" style="fill:#854920"/><path d="M24.255,3.693A1.527,1.527,0,0,0,24,4.521c.032.638.648,1.024,1.186,1.292L28.75,7.588a3.143,3.143,0,0,0,2.667.2c1.11-.449.373-2.725-.071-3.456C29.855,1.878,25.892.9,24.255,3.693Z" style="fill:#ffcb78"/><path d="M37.493,31.9a1.424,1.424,0,0,0-.479.817,1.033,1.033,0,0,0,.39.995,2.371,2.371,0,0,0,1.748.232,9.946,9.946,0,0,0,2.148-.583c.93-.371,1.645-.939,1.7-1.836A1.333,1.333,0,0,0,41.786,30a4.331,4.331,0,0,0-2.018.688A9.688,9.688,0,0,0,37.493,31.9Z" style="fill:#f7b64e"/><path d="M37.493,44.9a1.424,1.424,0,0,0-.479.817,1.033,1.033,0,0,0,.39.995,2.371,2.371,0,0,0,1.748.232,9.946,9.946,0,0,0,2.148-.583c.93-.371,1.645-.939,1.7-1.836A1.333,1.333,0,0,0,41.786,43a4.331,4.331,0,0,0-2.018.688A9.688,9.688,0,0,0,37.493,44.9Z" style="fill:#f7b64e"/><path d="M39.341,56.153a12.536,12.536,0,0,1-1.777,1.9c-.331.286-.675.554-1.01.834a1.3,1.3,0,0,0-.524.9.774.774,0,0,0-.018.338.71.71,0,0,0,.153.273,1.626,1.626,0,0,0,.62.5A1.718,1.718,0,0,0,37.51,61a5.228,5.228,0,0,0,2.8-1.282,4.229,4.229,0,0,0,1.655-2.578,2.148,2.148,0,0,0-.184-1.4,1.47,1.47,0,0,0-1.257-.732C40.02,55.094,39.624,55.778,39.341,56.153Z" style="fill:#f7b64e"/><path d="M25.841,23.1c-.83-.758-1.631-1.585-2.514-2.291-.459-.367-1.347-1.059-1.933-.711-.493.294-.447,1.224-.271,1.7a4.606,4.606,0,0,0,1.288,1.686,14.52,14.52,0,0,0,3.554,2.379.916.916,0,0,0,.585.127.526.526,0,0,0,.326-.333,1.754,1.754,0,0,0-.156-1.59A4.675,4.675,0,0,0,25.841,23.1Z" style="fill:#ffcb78"/><path d="M25.841,37.1c-.83-.758-1.631-1.585-2.514-2.291-.459-.367-1.347-1.059-1.933-.711-.493.294-.447,1.224-.271,1.7a4.606,4.606,0,0,0,1.288,1.686,14.52,14.52,0,0,0,3.554,2.379.916.916,0,0,0,.585.127.526.526,0,0,0,.326-.333,1.754,1.754,0,0,0-.156-1.59A4.675,4.675,0,0,0,25.841,37.1Z" style="fill:#ffcb78"/><path d="M18.013,46.3a6.352,6.352,0,0,0,.112,1.776,5.168,5.168,0,0,0,.616,1.388,6.145,6.145,0,0,0,1.043,1.356A4.86,4.86,0,0,0,23.125,52a.9.9,0,0,0,.579-.141.836.836,0,0,0,.264-.484,2.1,2.1,0,0,0-.651-1.8c-.442-.461-.984-.789-1.411-1.268a6.56,6.56,0,0,1-1.193-2.458,3.331,3.331,0,0,0-.681-1.409c-.318-.314-1.221-.672-1.559-.238A3.936,3.936,0,0,0,18.013,46.3Z" style="fill:#ffcb78"/><path d="M31.27,23.89,42,19.68l.21-.08a6.618,6.618,0,0,0,1.24-.56A6.974,6.974,0,0,0,47,12.95v-.86a5,5,0,0,0-2.76-4.47L41,6v4c0,2.16-2.99,4.13-6.38,5.68-1.71.78-3.53,1.45-5.12,1.99C26.96,18.51,25,19,25,19h-.73" style="fill:none;stroke:#000;stroke-linejoin:round;stroke-width:2px"/><path d="M21,12c-3,0-4,5-4,5v3.01a8.033,8.033,0,0,0,2.95,6.21,7.942,7.942,0,0,0,2.79,1.47l10.95,3.22" style="fill:none;stroke:#000;stroke-linejoin:round;stroke-width:2px"/><path d="M39,27a51.368,51.368,0,0,1-7.73-3.11,24.741,24.741,0,0,1-7-4.89A7.448,7.448,0,0,1,22,14V12.67" style="fill:none;stroke:#000;stroke-linejoin:round;stroke-width:2px"/><path d="M19.95,26.22C17.76,27.2,17,31,17,31v3.01a7.985,7.985,0,0,0,2.3,5.61,7.839,7.839,0,0,0,2.72,1.82,7.611,7.611,0,0,0,.72.25l9.62,2.83" style="fill:none;stroke:#000;stroke-linejoin:round;stroke-width:2px"/><path d="M38.62,40.88a52.276,52.276,0,0,1-7.68-3.15h-.01a27.054,27.054,0,0,1-5.7-3.79A10.013,10.013,0,0,1,22.356,30" style="fill:none;stroke:#000;stroke-linejoin:round;stroke-width:2px"/><path d="M19.3,39.62C17.61,40.96,17,44,17,44v3.01C17,50.56,21.6,56,25,57" style="fill:none;stroke:#000;stroke-linejoin:round;stroke-width:2px"/><path d="M36,53h-.02a19.689,19.689,0,0,1-5.77-2.06c-3.2-1.7-6.129-4.214-7.457-6.936" style="fill:none;stroke:#000;stroke-linejoin:round;stroke-width:2px"/><path d="M30.93,37.73h.01l10.32-3.04a6.492,6.492,0,0,0,.74-.26,7.734,7.734,0,0,0,2.7-1.81A7.985,7.985,0,0,0,47,27.01V24s-.9-4.5-3.55-4.96" style="fill:none;stroke:#000;stroke-linejoin:round;stroke-width:2px"/><path d="M25,34l.23-.06a49.038,49.038,0,0,0,8.46-3.03c3.828-1.827,7.6-4.464,8.22-7.91" style="fill:none;stroke:#000;stroke-linejoin:round;stroke-width:2px"/><path d="M30.21,50.94l11.05-3.25c.1-.03.19-.06.29-.1h.01a7.648,7.648,0,0,0,2.57-1.44A7.977,7.977,0,0,0,47,40.01V37s-.61-3.04-2.3-4.38" style="fill:none;stroke:#000;stroke-linejoin:round;stroke-width:2px"/><path d="M25,47a50.03,50.03,0,0,0,7.36-2.48,26.839,26.839,0,0,0,6.26-3.64A9.467,9.467,0,0,0,41.636,37" style="fill:none;stroke:#000;stroke-linejoin:round;stroke-width:2px"/><path d="M39,50.42A28.809,28.809,0,0,1,35.98,53h-.01A18.634,18.634,0,0,1,25,57l3.39,4.14A10.019,10.019,0,0,0,34.2,63,11.813,11.813,0,0,0,46,51.2v-.37a6.793,6.793,0,0,0-1.87-4.68" style="fill:none;stroke:#000;stroke-linejoin:round;stroke-width:2px"/><path d="M18,51l-1,3h0a7.7,7.7,0,0,0,4.569,7.031l3.719,1.653A3.682,3.682,0,0,0,26.779,63H34" style="fill:none;stroke:#000;stroke-linejoin:round;stroke-width:2px"/><path d="M25,7.542,23.19,6.01A3.089,3.089,0,0,0,22,5.39a2.969,2.969,0,0,0-1.51-.01l-.19.04A3.049,3.049,0,0,0,18.64,6.5,3.085,3.085,0,0,0,18,8.37a3.042,3.042,0,0,0,1.35,2.53L21,12l1,.67,7.5,5L30,18" style="fill:none;stroke:#000;stroke-linejoin:round;stroke-width:2px"/><polyline points="35 16 34.62 15.68 26.726 9.002" style="fill:none;stroke:#000;stroke-linejoin:round;stroke-width:2px"/><path d="M39,13c0-3.511-2.959-8.009-4.721-10.376A4.01,4.01,0,0,0,31.061,1H26a4,4,0,0,0-4,4h0V6" style="fill:none;stroke:#000;stroke-linejoin:round;stroke-width:2px"/><path d="M34.41,2.8A1.993,1.993,0,0,1,36,2h.88a4.009,4.009,0,0,1,3.88,3.03L41,6" style="fill:none;stroke:#000;stroke-linejoin:round;stroke-width:2px"/><path d="M40,15c.468.295,2.505.754,3,1" style="fill:none;stroke:#000;stroke-linejoin:round;stroke-width:2px"/><path d="M28,25c-.468.3-2.5.754-3,1" style="fill:none;stroke:#000;stroke-linejoin:round;stroke-width:2px"/><path d="M29,3c-.468.295-2.5.754-3,1" style="fill:none;stroke:#000;stroke-linejoin:round;stroke-width:2px"/><path d="M21,47c-.343.479-1.657,1.521-2,2" style="fill:none;stroke:#000;stroke-linejoin:round;stroke-width:2px"/><path d="M26,38c-.343.479-1.657,1.521-2,2" style="fill:none;stroke:#000;stroke-linejoin:round;stroke-width:2px"/><path d="M24,53a13.142,13.142,0,0,1,3-1" style="fill:none;stroke:#000;stroke-linejoin:round;stroke-width:2px"/><path d="M38,44a25.674,25.674,0,0,1,2,2" style="fill:none;stroke:#000;stroke-linejoin:round;stroke-width:2px"/><path d="M35,59a7.9,7.9,0,0,1,2-2" style="fill:none;stroke:#000;stroke-linejoin:round;stroke-width:2px"/><path d="M21,33c0,1,1.254,1.822,2,2" style="fill:none;stroke:#000;stroke-linejoin:round;stroke-width:2px"/><path d="M21,21c0,1,2,2,2,3" style="fill:none;stroke:#000;stroke-linejoin:round;stroke-width:2px"/><path d="M41,29c.519.486,1.319,1.8,2,2" style="fill:none;stroke:#000;stroke-linejoin:round;stroke-width:2px"/><path d="M31,5c.519.486,1.319,1.8,2,2" style="fill:none;stroke:#000;stroke-linejoin:round;stroke-width:2px"/><path d="M42,55c0,1-1.2,2.45-2,3" style="fill:none;stroke:#000;stroke-linejoin:round;stroke-width:2px"/><path d="M41.687,40A3.454,3.454,0,0,0,44,42" style="fill:none;stroke:#000;stroke-linejoin:round;stroke-width:2px"/></g></svg>