<svg xmlns="http://www.w3.org/2000/svg" viewBox="0 0 64 64"><g id="_27-bun" data-name="27-bun"><path d="M62.99,31.12c0,.12.01.24.01.36a17.012,17.012,0,0,1-.27,2.94l-.56,7.04L62,41.45c-2.65.06-4.4,2.63-6.76,3.81-3.27,1.63-7.27.38-10.9.99-2.31.39-4.41,1.52-6.65,2.15a15.847,15.847,0,0,1-7.18.34c-2.51-.45-4.87-1.5-7.39-1.86-3.72-.53-7.57.48-11.24-.3a11.589,11.589,0,0,1-6.02-3.41,25.314,25.314,0,0,0-2.04-2.22,3.773,3.773,0,0,0-2.16-.94l-.42-5.78A16.831,16.831,0,0,1,1,31.48c0-.12.01-.24.01-.36L1,30.95h.02C1.4,18.78,15.12,9,32,9s30.6,9.78,30.98,21.95H63ZM45,19c0-3.31-5.82-6-13-6s-13,2.69-13,6,5.82,6,13,6S45,22.31,45,19Z" style="fill:#d68020"/><path d="M62.17,41.46l-.24,3.09C61.93,50.32,48.53,55,32,55a69.446,69.446,0,0,1-20.22-2.72c-5.36-1.69-8.96-4.04-9.71-6.69l-.41-5.58a3.773,3.773,0,0,1,2.16.94,25.314,25.314,0,0,1,2.04,2.22,11.589,11.589,0,0,0,6.02,3.41c3.67.78,7.52-.23,11.24.3,2.52.36,4.88,1.41,7.39,1.86a15.847,15.847,0,0,0,7.18-.34c2.24-.63,4.34-1.76,6.65-2.15,3.63-.61,7.63.64,10.9-.99,2.36-1.18,4.11-3.75,6.76-3.81Z" style="fill:#fcedaa"/><path d="M61.93,42.55C61.93,48.32,48.53,53,32,53a69.446,69.446,0,0,1-20.22-2.72c-5.36-1.69-8.96-4.04-9.71-6.69l-.261-3.557c-.05-.005-.1-.02-.149-.023l.41,5.58c.75,2.65,4.35,5,9.71,6.69A69.446,69.446,0,0,0,32,55c16.53,0,29.93-4.68,29.93-10.45l.24-3.09-.155-.009Z" style="fill:#8f420e"/><path d="M62,41.45c-2.65.06-4.4,2.63-6.76,3.81-3.27,1.63-7.27.38-10.9.99-2.31.39-4.41,1.52-6.65,2.15a15.847,15.847,0,0,1-7.18.34c-2.51-.45-4.87-1.5-7.39-1.86-3.72-.53-7.57.48-11.24-.3a11.589,11.589,0,0,1-6.02-3.41,25.314,25.314,0,0,0-2.04-2.22,3.773,3.773,0,0,0-2.16-.94l.208,2.833a8.635,8.635,0,0,1,3.057,1.762A32.782,32.782,0,0,0,8.18,47.8a9.026,9.026,0,0,0,5.4,1.192,50.562,50.562,0,0,1,5.619-.231,34.015,34.015,0,0,1,6.59,1.614,21.012,21.012,0,0,0,10.618.607c2.371-.576,4.577-1.744,6.974-2.2,3.65-.691,7.57.305,11.048-1,2.609-.978,4.9-3.2,7.528-3.626l.209-2.7Z" style="fill:#efba5a"/><path d="M45.036,13.853c-.332-.161-.672-.317-1.015-.481a8.744,8.744,0,0,0-1.766-.565q-1.991-.492-3.97-1.03c-4.428-1.2-9.347-.859-13.8.02-2.517.5-4.984,1.168-6.939,2.906a6.646,6.646,0,0,0-2.529,4.134,4.9,4.9,0,0,0,.159,1.514,3.248,3.248,0,0,0,.506,1.442,13.111,13.111,0,0,0,4.643,3.251,11.593,11.593,0,0,0,2.721.751c.988.143,1.961.031,2.945.116,2.049.178,4.044.737,6.088.966a23.765,23.765,0,0,0,7.3-.409,16.95,16.95,0,0,0,3.836-1.111,12.647,12.647,0,0,0,3.079-2.029,10.043,10.043,0,0,0,2.6-3.2,1.65,1.65,0,0,0,.1-.522,5.564,5.564,0,0,0-1.5-4.064A7.69,7.69,0,0,0,45.036,13.853Z" style="fill:#bc641a"/><path d="M60.153,36.738A9.97,9.97,0,0,1,55.4,37.5c-2.5-.121-5.084-.644-7.465.135a30.234,30.234,0,0,0-4.45,2.378,18.2,18.2,0,0,1-11.448,1.405c-2.258-.378-4.527-1.044-6.8-.746-1.952.257-3.752,1.212-5.691,1.548a9.221,9.221,0,0,1-6.033-1.04c-2.726-1.535-4.582-4.414-7.473-5.611-1.251-.518-2.665-.7-3.749-1.518a4.3,4.3,0,0,1-1.252-1.556c.039.6.1,1.193.2,1.786l.42,5.78A3.773,3.773,0,0,1,3.82,41a25.314,25.314,0,0,1,2.04,2.22,11.589,11.589,0,0,0,6.02,3.41c3.67.78,7.52-.23,11.24.3,2.52.36,4.88,1.41,7.39,1.86a15.847,15.847,0,0,0,7.18-.34c2.24-.63,4.34-1.76,6.65-2.15,3.63-.61,7.63.64,10.9-.99,2.36-1.18,4.11-3.75,6.76-3.81l.17.01.56-7.04c.015-.085.021-.172.035-.257A6.688,6.688,0,0,1,60.153,36.738Z" style="fill:#e19b39"/><ellipse cx="32" cy="19" rx="13" ry="6" style="fill:#8f420e"/><path d="M42.486,18.7c0-1.094-2.39-1.72-3.1-2.042a25.616,25.616,0,0,0-4.248-1.3c-1.959-.511-4.826-1.029-6.774-.257-.978.387-1.752,1.16-2.688,1.64-.623.319-1.31.5-1.932.827a2.463,2.463,0,0,0-1.36,1.515,2.159,2.159,0,0,0,.891,2.091,5.3,5.3,0,0,0,2.217.865,42.656,42.656,0,0,0,7.424.636c2.657.073,5.4.131,7.872-.838.94-.368,1.934-1.049,1.985-2.057A2.02,2.02,0,0,0,42.486,18.7Z" style="fill:#7d3300"/><path d="M13.9,22.5c-1.57-2.121-2.987-4.525-6.072-3.04a2.857,2.857,0,0,0-1.379,4.163A23.909,23.909,0,0,0,9.9,27.891a10.49,10.49,0,0,0,4.39,2.563,9.813,9.813,0,0,0,2.87.333,1.829,1.829,0,0,0,1.287-.59,2.024,2.024,0,0,0,.383-.863,3.576,3.576,0,0,0-1.407-3.794A11.893,11.893,0,0,1,13.9,22.5Z" style="fill:#ffa94a"/><path d="M47.892,22.3a9.51,9.51,0,0,1-2.1,1.933,3.381,3.381,0,0,0-1.407,2.042c-.381,1.287,1.02,1.895,2.086,1.989a5.258,5.258,0,0,0,2.968-.676,10.126,10.126,0,0,0,4.239-5.046,8.823,8.823,0,0,0,.733-3.2,2.5,2.5,0,0,0-2.093-2.773,4.016,4.016,0,0,0-1.59.235,2.457,2.457,0,0,0-.983.491c-.688.647-.428,1.577-.576,2.393A6.2,6.2,0,0,1,47.892,22.3Z" style="fill:#ffa94a"/><path d="M38.807,28.194a2.541,2.541,0,0,0-.728,1.071,1.478,1.478,0,0,0,.171,1.321,1.263,1.263,0,0,0,.9.386,5.88,5.88,0,0,0,3.311-.66,3.028,3.028,0,0,0,1.471-1.492,1.235,1.235,0,0,0-.565-1.5A4.554,4.554,0,0,0,41.783,27,4.35,4.35,0,0,0,38.807,28.194Z" style="fill:#ffa94a"/><path d="M8.83,20.425A5.512,5.512,0,0,0,7.3,22.167a1.628,1.628,0,0,0-.269,1.371.7.7,0,0,0,.462.392A2.734,2.734,0,0,0,9.943,23c.515-.445,1.366-1.523.864-2.53C10.4,19.643,9.332,20.092,8.83,20.425Z" style="fill:#fffced"/><path d="M5.028,27.622a4.237,4.237,0,0,0-1,1.927,2.056,2.056,0,0,0,.7,1.955,3.262,3.262,0,0,0,3.533-.054A3.493,3.493,0,0,0,10,28.405a2.507,2.507,0,0,0-1.094-2C7.31,25.358,5.908,26.551,5.028,27.622Z" style="fill:#fffced"/><path d="M12,16.025a3.537,3.537,0,0,0-.82,1.034,1.2,1.2,0,0,0,.106,1.252,1.146,1.146,0,0,0,1.1.306,2.555,2.555,0,0,0,1.042-.568,6.767,6.767,0,0,0,1.436-1.62,1.02,1.02,0,0,0-.315-1.226C13.652,14.351,12.631,15.4,12,16.025Z" style="fill:#ffa94a"/><path d="M55,16.415q-.956-.768-2.006-1.47" style="fill:none;stroke:#000;stroke-linejoin:round;stroke-width:2px"/><path d="M1.369,36l.7,9.591h0C3.568,50.875,16.477,55,32,55c16.53,0,29.931-4.681,29.931-10.455l.8-10.13A16.569,16.569,0,0,0,63,31.477c0-.121-.01-.241-.013-.362l.013-.16h-.018A18.89,18.89,0,0,0,56.8,18" style="fill:none;stroke:#000;stroke-linejoin:round;stroke-width:2px"/><path d="M51.5,14A38.692,38.692,0,0,0,32,9C15.121,9,1.4,18.783,1.018,30.955H1l.012.168c0,.119-.012.236-.012.354A16.367,16.367,0,0,0,1.2,34" style="fill:none;stroke:#000;stroke-linejoin:round;stroke-width:2px"/><path d="M21,19c.468.3,2.5.754,3,1" style="fill:none;stroke:#000;stroke-linejoin:round;stroke-width:2px"/><path d="M26,16c-.468.3-2.5.754-3,1" style="fill:none;stroke:#000;stroke-linejoin:round;stroke-width:2px"/><path d="M34,21c-.343.479-1.657,1.521-2,2" style="fill:none;stroke:#000;stroke-linejoin:round;stroke-width:2px"/><path d="M35,17a25.674,25.674,0,0,1,2,2" style="fill:none;stroke:#000;stroke-linejoin:round;stroke-width:2px"/><path d="M39,22a7.9,7.9,0,0,1,2-2" style="fill:none;stroke:#000;stroke-linejoin:round;stroke-width:2px"/><path d="M40,16c0,1,1.254,1.822,2,2" style="fill:none;stroke:#000;stroke-linejoin:round;stroke-width:2px"/><path d="M28,16c0,1,2,2,2,3" style="fill:none;stroke:#000;stroke-linejoin:round;stroke-width:2px"/><path d="M32,15c.519.486,1.319,1.8,2,2" style="fill:none;stroke:#000;stroke-linejoin:round;stroke-width:2px"/><path d="M25.687,20A3.454,3.454,0,0,0,28,22" style="fill:none;stroke:#000;stroke-linejoin:round;stroke-width:2px"/><ellipse cx="32" cy="19" rx="13" ry="6" style="fill:none;stroke:#000;stroke-linejoin:round;stroke-width:2px"/><path d="M53,45.965a7.958,7.958,0,0,0,2.24-.706C57.6,44.085,59.349,41.51,62,41.452" style="fill:none;stroke:#000;stroke-linejoin:round;stroke-width:2px"/><path d="M49,46.116c.671.02,1.34.037,2,.023" style="fill:none;stroke:#000;stroke-linejoin:round;stroke-width:2px"/><path d="M9.995,46a11.531,11.531,0,0,0,1.886.574c3.669.782,7.523-.225,11.241.3,2.519.358,4.883,1.409,7.386,1.865a15.99,15.99,0,0,0,7.178-.341c2.247-.635,4.343-1.764,6.65-2.151A15.918,15.918,0,0,1,47,46.069" style="fill:none;stroke:#000;stroke-linejoin:round;stroke-width:2px"/><path d="M1,40.049a3.464,3.464,0,0,1,2.815.9,23.68,23.68,0,0,1,2.04,2.218A11.247,11.247,0,0,0,8.048,45" style="fill:none;stroke:#000;stroke-linejoin:round;stroke-width:2px"/></g></svg>