<svg xmlns="http://www.w3.org/2000/svg" viewBox="0 0 64 64"><g id="_29-bread_basket" data-name="29-bread basket"><ellipse cx="32" cy="37" rx="25" ry="7" style="fill:#854920"/><path d="M18,28.61a53.323,53.323,0,0,1,7.98-1.33,4.377,4.377,0,0,0,.27,1.44l-.63.44a3.118,3.118,0,0,0-.58,1.13L25,30.28c-1.54.12-3.02.29-4.42.5a.01.01,0,0,1-.01-.01,6.745,6.745,0,0,0-2.6-2.1Z" style="fill:#d68020"/><path d="M49,59.43a18.62,18.62,0,0,1-4,2.23V58.22a39.361,39.361,0,0,0,4-.95Z" style="fill:#e19b39"/><path d="M34,59.3V63H30V59.3c.66.02,1.33.03,2,.03S33.34,59.32,34,59.3Z" style="fill:#e19b39"/><path d="M15,57.27a39.361,39.361,0,0,0,4,.95v3.44a18.62,18.62,0,0,1-4-2.23Z" style="fill:#e19b39"/><path d="M19,53.89v.09l-.37-.06c-1.3-.24-2.52-.51-3.63-.82V48.55a41.357,41.357,0,0,0,4,1.09Z" style="fill:#e19b39"/><path d="M34,51v4c-.66.02-1.33.03-2,.03s-1.34-.01-2-.03V50.97c.66.03,1.33.04,2,.04s1.34-.01,2-.04Z" style="fill:#e19b39"/><path d="M49,52.94v.16c-1.11.31-2.33.58-3.63.82l-.37.06V49.64c.88-.19,1.73-.41,2.55-.65.49-.14.98-.29,1.45-.44Z" style="fill:#e19b39"/><path d="M19,57.89v.33a39.361,39.361,0,0,1-4-.95V53.1c1.11.31,2.33.58,3.63.82l.37.06Z" style="fill:#efba5a"/><path d="M34,58.97v.33c-.66.02-1.33.03-2,.03s-1.34-.01-2-.03V55c.66.02,1.33.03,2,.03s1.34-.01,2-.03Z" style="fill:#efba5a"/><path d="M49,56.94v.33a39.361,39.361,0,0,1-4,.95V53.98l.37-.06c1.3-.24,2.52-.51,3.63-.82Z" style="fill:#efba5a"/><path d="M15,56.94v.33A23.63,23.63,0,0,1,11.56,56h-.12a17.7,17.7,0,0,1-3.08-5.96,15.26,15.26,0,0,0,6.16,2.93c.16.05.32.09.48.13Z" style="fill:#d68020"/><path d="M30,58.97v.33a69.216,69.216,0,0,1-11-1.08V53.98A73.17,73.17,0,0,0,29.94,55H30Z" style="fill:#d68020"/><path d="M45,57.89v.33A69.216,69.216,0,0,1,34,59.3V55h.06A73.17,73.17,0,0,0,45,53.98Z" style="fill:#d68020"/><path d="M49.48,52.97a15.26,15.26,0,0,0,6.16-2.93A17.7,17.7,0,0,1,52.56,56h-.12A23.63,23.63,0,0,1,49,57.27V53.1C49.16,53.06,49.32,53.02,49.48,52.97Z" style="fill:#d68020"/><path d="M52.56,56A17.808,17.808,0,0,1,49,59.43V57.27A23.63,23.63,0,0,0,52.44,56Z" style="fill:#bc641a"/><path d="M45,58.22v3.44A18.484,18.484,0,0,1,38.06,63H34V59.3A69.216,69.216,0,0,0,45,58.22Z" style="fill:#bc641a"/><path d="M30,59.3V63H25.94A18.484,18.484,0,0,1,19,61.66V58.22A69.216,69.216,0,0,0,30,59.3Z" style="fill:#bc641a"/><path d="M15,57.27v2.16A17.808,17.808,0,0,1,11.44,56h.12A23.63,23.63,0,0,0,15,57.27Z" style="fill:#bc641a"/><path d="M7,44.42a10.924,10.924,0,0,0,.91.7,22.936,22.936,0,0,0,4.9,2.63c.7.28,1.43.55,2.19.8V53.1c-.16-.04-.32-.08-.48-.13a15.26,15.26,0,0,1-6.16-2.93c-.07-.22-.13-.44-.19-.67L7,46Z" style="fill:#bc641a"/><path d="M30,51v4h-.06A73.17,73.17,0,0,1,19,53.98V49.64l.82.18a56.99,56.99,0,0,0,7.77,1.04h.02c.78.06,1.58.1,2.39.11Z" style="fill:#bc641a"/><path d="M45,53.89v.09A73.17,73.17,0,0,1,34.06,55H34V50.97c.39-.01.78-.02,1.17-.04a60.572,60.572,0,0,0,6.87-.72c1.02-.16,2.01-.35,2.96-.57Z" style="fill:#bc641a"/><path d="M52.91,46.99A18.754,18.754,0,0,0,57,44.42V46l-1.17,3.37c-.06.23-.12.45-.19.67a15.26,15.26,0,0,1-6.16,2.93c-.16.05-.32.09-.48.13V48.55A31.672,31.672,0,0,0,52.88,47h.01C52.9,47,52.9,46.99,52.91,46.99Z" style="fill:#bc641a"/><path d="M54.26,12.02a9.035,9.035,0,0,0-5.02,1.77,22.684,22.684,0,0,0-3.92-3.53l.09-.12a7.612,7.612,0,0,1,3.97-3.09A27.994,27.994,0,0,1,54.26,12.02Z" style="fill:#d68020"/><path d="M42.69,3.12a12.046,12.046,0,0,0-2.54,4.37A22.419,22.419,0,0,0,34.06,6.1c.14-1.32.61-3.73,2.25-4.77A27.791,27.791,0,0,1,42.69,3.12Z" style="fill:#d68020"/><path d="M27.77,1.32c-.61,1.17-.74,4.1-.76,5.23a21.636,21.636,0,0,0-6.03,2.3c-.13-.7-.57-3.69.3-5.72A27.6,27.6,0,0,1,27.77,1.32Z" style="fill:#d68020"/><path d="M15,13.47v.21a23.78,23.78,0,0,0-2.87,4.01c-2.2-1.02-2.86-3.42-3.05-4.76a27.993,27.993,0,0,1,6.84-6.85,4.006,4.006,0,0,0-1.08,2.33A13.692,13.692,0,0,0,15,13.47Z" style="fill:#d68020"/><path d="M9.92,22.97a23.157,23.157,0,0,0-.9,5.96,7.542,7.542,0,0,1-4.88-2.74A27.763,27.763,0,0,1,6.1,18.35C6.42,19.34,7.52,22.12,9.92,22.97Z" style="fill:#d68020"/><path d="M54.26,12.02A25.672,25.672,0,0,1,56.24,15a9.855,9.855,0,0,0-4.48,1.21c-.16.08-.32.17-.48.26a22.021,22.021,0,0,0-2.04-2.68A9.035,9.035,0,0,1,54.26,12.02Z" style="fill:#e19b39"/><path d="M49.38,7.05a7.612,7.612,0,0,0-3.97,3.09l-.09.12a22.553,22.553,0,0,0-5.17-2.77,12.046,12.046,0,0,1,2.54-4.37A28.008,28.008,0,0,1,49.38,7.05Z" style="fill:#e19b39"/><path d="M36.31,1.33C34.67,2.37,34.2,4.78,34.06,6.1a22.221,22.221,0,0,0-4.16-.01,21.221,21.221,0,0,0-2.89.46c.02-1.13.15-4.06.76-5.23A28.078,28.078,0,0,1,32,1,27.758,27.758,0,0,1,36.31,1.33Z" style="fill:#e19b39"/><path d="M21.28,3.13c-.87,2.03-.43,5.02-.3,5.72A22.723,22.723,0,0,0,15,13.68v-.21a13.692,13.692,0,0,1-.16-5.06,4.006,4.006,0,0,1,1.08-2.33.01.01,0,0,0,.01-.01A28.324,28.324,0,0,1,21.28,3.13Z" style="fill:#e19b39"/><path d="M12.13,17.69a23.4,23.4,0,0,0-2.21,5.28c-2.4-.85-3.5-3.63-3.82-4.62a27.444,27.444,0,0,1,2.98-5.42C9.27,14.27,9.93,16.67,12.13,17.69Z" style="fill:#e19b39"/><path d="M9,31l.24.03c-.08.12-.16.24-.24.37a5.2,5.2,0,0,0-.52,1.09l-.01.01C5.65,34.38,4,36.61,4,39V29c0-.95.05-1.89.14-2.81a7.542,7.542,0,0,0,4.88,2.74,5.815,5.815,0,0,0-.02.59Z" style="fill:#e19b39"/><path d="M60,29v1a11.683,11.683,0,0,0-2.08-1.1l.81-.81A10.86,10.86,0,0,0,59.9,26.7C59.97,27.46,60,28.22,60,29Z" style="fill:#e58d1f"/><path d="M60,30v8h-.09c-.44-2.21-2.27-4.26-5.13-5.96l3.14-3.14A11.683,11.683,0,0,1,60,30Z" style="fill:#d68020"/><path d="M8.02,38.98a10.476,10.476,0,0,0,3.19,1.91h.01c.13.09.26.16.39.24C10.61,41.45,8,42.57,8,45l-.09.12a10.924,10.924,0,0,1-.91-.7,8.332,8.332,0,0,1-2.75-3.81V40.6C5.42,39,8,39,8,39Z" style="fill:#e19b39"/><path d="M19.82,49.81v.01L19,49.64a41.357,41.357,0,0,1-4-1.09c-.76-.25-1.49-.52-2.19-.8v-.01a8.127,8.127,0,0,1,2.1-5.64c1.25.34,2.62.63,4.09.89V43S17.08,46.83,19.82,49.81Z" style="fill:#e19b39"/><path d="M26.14,43.81c1.25.08,2.54.14,3.86.16V44c0,3.54,2.24,6.46,5.17,6.92v.01c-.39.02-.78.03-1.17.04-.66.03-1.33.04-2,.04s-1.34-.01-2-.04c-.81-.01-1.61-.05-2.39-.11C25.62,50.02,24.5,47.16,25,44v-.28c.29.03.58.05.88.07C25.97,43.8,26.05,43.8,26.14,43.81Z" style="fill:#e19b39"/><path d="M45,49.64c-.95.22-1.94.41-2.96.57L42,50c-2.76,0-5-2.68-5-6h.06c0-.04.01-.09.01-.14,1.72-.1,3.38-.25,4.95-.45a5.985,5.985,0,0,0,5.53,5.57v.01C46.73,49.23,45.88,49.45,45,49.64Z" style="fill:#e19b39"/><path d="M57,44v.42a18.754,18.754,0,0,1-4.09,2.57h-.03c-3.03-.04-5.49-1.95-5.84-4.4a36.263,36.263,0,0,0,4.05-1.07C51.58,42.93,54.03,44,57,44Z" style="fill:#e19b39"/><path d="M59.91,38v.01A5.442,5.442,0,0,1,60,39v.01a5.252,5.252,0,0,1-.39,1.98c-2.07-.06-3.79-.63-4.39-1.39A3.411,3.411,0,0,0,57,37c0-1.32-1.3-2.56-3.57-3.61l.39-.39.96-.96C57.64,33.74,59.47,35.79,59.91,38Z" style="fill:#e19b39"/><path d="M59.61,40.99V41A8.683,8.683,0,0,1,57,44.42V44c-2.97,0-5.42-1.07-5.91-2.48a16.329,16.329,0,0,0,4.13-1.92C55.82,40.36,57.54,40.93,59.61,40.99Z" style="fill:#d68020"/><path d="M42.02,43.41l.98-.12.62-.09c1.2-.18,2.35-.38,3.42-.61.35,2.45,2.81,4.36,5.84,4.4h.03c-.01,0-.01.01-.02.01h-.01A31.672,31.672,0,0,1,49,48.55c-.47.15-.96.3-1.45.44v-.01A5.985,5.985,0,0,1,42.02,43.41Z" style="fill:#d68020"/><path d="M30,44v-.03c.66.02,1.33.03,2,.03,1.06,0,2.1-.02,3.13-.06.65-.02,1.3-.05,1.94-.08,0,.05-.01.1-.01.14H37c0,3.32,2.24,6,5,6l.04.21a60.572,60.572,0,0,1-6.87.72v-.01C32.24,50.46,30,47.54,30,44Z" style="fill:#d68020"/><path d="M25,43.72V44c-.5,3.16.62,6.02,2.61,6.86h-.02a56.99,56.99,0,0,1-7.77-1.04v-.01C17.08,46.83,19,43,19,43v-.01C20.86,43.3,22.87,43.55,25,43.72Z" style="fill:#d68020"/><path d="M14.91,42.1a8.127,8.127,0,0,0-2.1,5.64v.01a22.936,22.936,0,0,1-4.9-2.63L8,45c0-2.43,2.61-3.55,3.61-3.87a.689.689,0,0,1,.1-.04c.46.18.96.36,1.48.52C13.73,41.79,14.31,41.95,14.91,42.1Z" style="fill:#d68020"/><path d="M8,35.04a2.426,2.426,0,0,0,.02,3.94L8,39s-2.58,0-3.75,1.6A5.081,5.081,0,0,1,4,39.01V39c0-2.39,1.65-4.62,4.47-6.5A6.7,6.7,0,0,0,8,35Z" style="fill:#d68020"/><path d="M20.58,30.78a6.816,6.816,0,0,1,1.19,2.45A6.871,6.871,0,0,0,20,33a7,7,0,0,0-7,7,6.572,6.572,0,0,0,.19,1.61c-.52-.16-1.02-.34-1.48-.52-.17-.06-.33-.13-.49-.2h-.01A6.986,6.986,0,0,1,8,35.04V35a6.7,6.7,0,0,1,.47-2.5l.01-.01A5.2,5.2,0,0,1,9,31.4c.08-.13.16-.25.24-.37A6.981,6.981,0,0,1,15,28a6.834,6.834,0,0,1,2.9.63.251.251,0,0,1,.07.04,6.745,6.745,0,0,1,2.6,2.1A.01.01,0,0,0,20.58,30.78Z" style="fill:#c96b1c"/><path d="M25,43.72c-2.13-.17-4.14-.42-6-.73-1.47-.26-2.84-.55-4.09-.89-.6-.15-1.18-.31-1.72-.49A6.572,6.572,0,0,1,13,40a7,7,0,0,1,7-7,6.871,6.871,0,0,1,1.77.23,7.012,7.012,0,0,1,5.05,8.36,9.852,9.852,0,0,0-.49,1.38,6.534,6.534,0,0,1-.45.82C25.58,43.77,25.29,43.75,25,43.72Z" style="fill:#d68020"/><path d="M36.64,40.36a9.228,9.228,0,0,1,.43,3.5c-.64.03-1.29.06-1.94.08q-.255-.69-.54-1.53a20.221,20.221,0,0,1-.99-7.5A17.448,17.448,0,0,1,36.64,40.36Z" style="fill:#ffcd8e"/><path d="M40.73,37.09a22.346,22.346,0,0,1-1.02-7.52,17.018,17.018,0,0,1,3.06,5.48,9.859,9.859,0,0,1-.32,6.76C42.1,40.73,41.46,39.27,40.73,37.09Z" style="fill:#ffcd8e"/><path d="M48.91,28.91a9.78,9.78,0,0,1-.33,6.76c-.35-1.09-.99-2.54-1.72-4.72a22.274,22.274,0,0,1-1.01-7.52A17.261,17.261,0,0,1,48.91,28.91Z" style="fill:#ffcd8e"/><path d="M54.96,27.69a9.466,9.466,0,0,1-.65,2.26c-.35-1.09-.99-2.54-1.72-4.72a20.3,20.3,0,0,1-1-7.5,16.078,16.078,0,0,1,1.55,2.2.076.076,0,0,1,.02.04,15.938,15.938,0,0,1,1.37,2.92c.03.09.07.19.1.29A9.465,9.465,0,0,1,54.96,27.69Z" style="fill:#ffcd8e"/><path d="M33.6,34.91a20.221,20.221,0,0,0,.99,7.5q.285.84.54,1.53c-1.03.04-2.07.06-3.13.06-.67,0-1.34-.01-2-.03-1.32-.02-2.61-.08-3.86-.16a8.455,8.455,0,0,1,.19-.84,6.662,6.662,0,0,0,.49-1.38,11.472,11.472,0,0,1,1.4-2.44,10.867,10.867,0,0,1,1.05-1.24l1.82-1.82,2.68-2.68A12.853,12.853,0,0,0,33.6,34.91Z" style="fill:#e58d1f"/><path d="M42.45,41.81A5.218,5.218,0,0,1,42.72,43H43v.29l-.98.12c-1.57.2-3.23.35-4.95.45a9.228,9.228,0,0,0-.43-3.5,17.448,17.448,0,0,0-3.04-5.45,12.853,12.853,0,0,1,.17-1.5l6.14-6.14a19.436,19.436,0,0,0-.2,2.3,22.346,22.346,0,0,0,1.02,7.52C41.46,39.27,42.1,40.73,42.45,41.81Z" style="fill:#e58d1f"/><path d="M42.72,43a5.218,5.218,0,0,0-.27-1.19,9.859,9.859,0,0,0,.32-6.76,17.018,17.018,0,0,0-3.06-5.48,19.436,19.436,0,0,1,.2-2.3l2.03-2.03,4.11-4.1a19.388,19.388,0,0,0-.2,2.29,22.274,22.274,0,0,0,1.01,7.52c.73,2.18,1.37,3.63,1.72,4.72v.01c.45,1.36.42,2.14-.49,3.05L43.62,43.2l-.62.09A1.4,1.4,0,0,0,43,43Z" style="fill:#e58d1f"/><path d="M48.91,18.27a11.627,11.627,0,0,1,2.37-1.8c.16-.09.32-.18.48-.26l.01.02s-.06.29-.12.82v.02q-.03.285-.06.66a20.3,20.3,0,0,0,1,7.5c.73,2.18,1.37,3.63,1.72,4.72a3.332,3.332,0,0,1,.21,1.93,2.566,2.566,0,0,1-.7,1.12l-.39.39-5.34,5.34c.91-.91.94-1.69.49-3.05v-.01a9.78,9.78,0,0,0,.33-6.76,17.261,17.261,0,0,0-3.06-5.48,19.388,19.388,0,0,1,.2-2.29Z" style="fill:#e58d1f"/><path d="M57.92,28.9l-3.14,3.14a2.261,2.261,0,0,0-.26-.16,3.332,3.332,0,0,0-.21-1.93,9.8,9.8,0,0,0,.32-6.77c-.03-.1-.07-.2-.1-.29a15.938,15.938,0,0,0-1.37-2.92.076.076,0,0,0-.02-.04,16.078,16.078,0,0,0-1.55-2.2q.03-.375.06-.66c.01-.01.01-.01,0-.02.06-.53.12-.82.12-.82l-.01-.02A9.855,9.855,0,0,1,56.24,15,5.607,5.607,0,0,1,62,20.76a10.7,10.7,0,0,1-2.1,5.94,10.86,10.86,0,0,1-1.17,1.39Z" style="fill:#e58d1f"/><path d="M25,31.81V30.45a.936.936,0,0,1,.04-.16,3.118,3.118,0,0,1,.58-1.13l.63-.44a5.256,5.256,0,0,0,.56,1.11L31,36l.09.09-1.82,1.82a10.867,10.867,0,0,0-1.05,1.24c-1.18-2.07-2.05-4.3-2.71-5.63A4.578,4.578,0,0,1,25,31.81Z" style="fill:#d17824"/><path d="M26.59,24.49,27,24h.32a1.374,1.374,0,0,1,.03-.57l.65-2.4v-.06s.16-1.14,1.08-1.33l-.03-.03a3.387,3.387,0,0,1,.74-1.72A4.612,4.612,0,0,1,33.58,16h.84a4.612,4.612,0,0,1,3.79,1.89,3.387,3.387,0,0,1,.74,1.72l-.03.03c.92.19,1.08,1.33,1.08,1.33v.06l.65,2.4a1.374,1.374,0,0,1,.03.57H41l.41.49a1.369,1.369,0,0,1,.53.75l-2.03,2.03-6.14,6.14-2.68,2.68L31,36l-4.19-6.17a5.256,5.256,0,0,1-.56-1.11,4.377,4.377,0,0,1-.27-1.44c0-.15.01-.29.02-.44v-.9A1.522,1.522,0,0,1,26.59,24.49Z" style="fill:#d17824"/><path d="M28.59,27.49,29,27h.32a1.374,1.374,0,0,1,.03-.57l.65-2.4v-.06s.16-1.14,1.08-1.33l-.03-.03a3.387,3.387,0,0,1,.74-1.72A4.612,4.612,0,0,1,35.58,19h.84a4.679,4.679,0,0,1,3.406,1.425,1.307,1.307,0,0,0-.906-.785l.03-.03a3.387,3.387,0,0,0-.74-1.72A4.612,4.612,0,0,0,34.42,16h-.84a4.612,4.612,0,0,0-3.79,1.89,3.387,3.387,0,0,0-.74,1.72l.03.03c-.92.19-1.08,1.33-1.08,1.33v.06l-.65,2.4a1.374,1.374,0,0,0-.03.57H27l-.41.49A1.522,1.522,0,0,0,26,25.94v.9c-.01.15-.02.29-.02.44a4.377,4.377,0,0,0,.27,1.44c.043.119.1.232.15.346a4.742,4.742,0,0,1,1.6.574v-.7A1.522,1.522,0,0,1,28.59,27.49Z" style="fill:#e58d1f"/><path d="M54.31,29.95c-.35-1.09-.99-2.54-1.72-4.72a20.3,20.3,0,0,1-1-7.5q.03-.375.06-.66v-.02c.06-.53.12-.82.12-.82l-.01-.02c-.16.08-.32.17-.48.26a11.931,11.931,0,0,0-1.958,1.416c.41,3.154,1.244,8.182,2.694,11.388A2.977,2.977,0,0,1,51.4,32.6l-2.649,2.649c-.064.172-.122.316-.166.416v.01c.45,1.36.42,2.14-.49,3.05l5.34-5.34.39-.39a2.566,2.566,0,0,0,.7-1.12A3.332,3.332,0,0,0,54.31,29.95Z" style="fill:#c96b1c"/><path d="M48.58,35.68v-.01c-.35-1.09-.99-2.54-1.72-4.72a22.274,22.274,0,0,1-1.01-7.52,19.388,19.388,0,0,1,.2-2.29l-2.731,2.724a55,55,0,0,0,2.018,9.659A6.028,6.028,0,0,1,43.5,40l-.627.538a10.029,10.029,0,0,1-.426,1.275A5.218,5.218,0,0,1,42.72,43H43a1.4,1.4,0,0,1,0,.29l.62-.09,4.47-4.47C49,37.82,49.03,37.04,48.58,35.68Z" style="fill:#c96b1c"/><path d="M42.72,43a5.218,5.218,0,0,0-.27-1.19c-.35-1.08-.99-2.54-1.72-4.72a22.346,22.346,0,0,1-1.02-7.52,19.436,19.436,0,0,1,.2-2.3l-3.049,3.049A56.386,56.386,0,0,0,39.5,39.211,2,2,0,0,1,37.674,42h-.669a9.454,9.454,0,0,1,.065,1.86c1.72-.1,3.38-.25,4.95-.45l.98-.12V43Z" style="fill:#c96b1c"/><path d="M34.59,42.41a20.221,20.221,0,0,1-.99-7.5,12.853,12.853,0,0,1,.17-1.5L31.8,35.382a13.161,13.161,0,0,0,.3,4.121A2.007,2.007,0,0,1,30.162,42H26.7a6.917,6.917,0,0,1-.369.97,8.455,8.455,0,0,0-.19.84c1.25.08,2.54.14,3.86.16.66.02,1.33.03,2,.03,1.06,0,2.1-.02,3.13-.06Q34.875,43.25,34.59,42.41Z" style="fill:#c96b1c"/><path d="M54.316,16.051a1.546,1.546,0,0,0-1.287.98,1.361,1.361,0,0,0,.4,1.208,7.057,7.057,0,0,0,1.086.868,8.9,8.9,0,0,1,2.065,2.118,1.661,1.661,0,0,0,.756.729,1.254,1.254,0,0,0,1.365-.617,2.4,2.4,0,0,0,.054-2.2,7.249,7.249,0,0,0-1.364-1.91A3.24,3.24,0,0,0,54.316,16.051Z" style="fill:#f7b64e"/><path d="M47.062,22.52a4.418,4.418,0,0,0,1.007,2.38c.22.306.526.932.893,1.079.574.23.9-.313.886-.806a6.825,6.825,0,0,0-1.08-3.441,1.122,1.122,0,0,0-.649-.558.821.821,0,0,0-.819.445A1.792,1.792,0,0,0,47.062,22.52Z" style="fill:#f7b64e"/><path d="M40.76,28.4a2.471,2.471,0,0,0,.661,1.5,1.22,1.22,0,0,0,.838.573.849.849,0,0,0,.729-.489,2.3,2.3,0,0,0,.2-.9c.058-.744.108-2.191-.857-2.432C41.522,26.452,40.775,27.723,40.76,28.4Z" style="fill:#f7b64e"/><path d="M34.76,33.4a2.471,2.471,0,0,0,.661,1.5,1.22,1.22,0,0,0,.838.573.849.849,0,0,0,.729-.489,2.3,2.3,0,0,0,.2-.9c.058-.744.108-2.191-.857-2.432C35.522,31.452,34.775,32.723,34.76,33.4Z" style="fill:#f7b64e"/><path d="M26.81,29.83a5.457,5.457,0,0,1-.41-.764,4.842,4.842,0,0,0-.566-.056l-.214.15a3.118,3.118,0,0,0-.58,1.13.936.936,0,0,0-.04.16v1.36a4.578,4.578,0,0,0,.51,1.71c.66,1.33,1.53,3.56,2.71,5.63a10.867,10.867,0,0,1,1.05-1.24l1.82-1.82L31,36Z" style="fill:#a34f17"/><path d="M41.41,24.49,41,24h-.32a1.374,1.374,0,0,0-.03-.57l-.218-.8-7.644,8.408a2.2,2.2,0,0,1-3.383-.16h0A4.679,4.679,0,0,0,26.4,29.066a5.457,5.457,0,0,0,.41.764L31,36l.09.09,2.68-2.68,6.14-6.14,2.03-2.03A1.369,1.369,0,0,0,41.41,24.49Z" style="fill:#bf5d1b"/><path d="M60.36,16.64A5.646,5.646,0,0,0,56.24,15l-.032,0A17.561,17.561,0,0,1,58.6,17.813a6,6,0,0,1-.4,7.393l-3.673,4.2c-.08.228-.156.425-.212.547a3.332,3.332,0,0,1,.21,1.93,2.566,2.566,0,0,1-.7,1.12l.96-.96,3.14-3.14.81-.81A10.86,10.86,0,0,0,59.9,26.7,10.7,10.7,0,0,0,62,20.76,5.646,5.646,0,0,0,60.36,16.64Z" style="fill:#c96b1c"/><path d="M17.736,35.708a1.348,1.348,0,0,0-.593,1.363,1.525,1.525,0,0,0,.859.774,3.815,3.815,0,0,0,.822.316,4.537,4.537,0,0,0,1.4.023l2.051-.179a1.094,1.094,0,0,0,.767-.275.834.834,0,0,0,.166-.449C23.514,34.52,19.159,34.542,17.736,35.708Z" style="fill:#f7b64e"/><path d="M16.035,38.312a2.138,2.138,0,0,0-.389.641,1,1,0,0,0-.072.582.84.84,0,0,0,.467.536,1.85,1.85,0,0,0,.714.155.93.93,0,0,0,.46-.059.832.832,0,0,0,.388-.611,1.192,1.192,0,0,0-.325-1.18C16.985,38.145,16.309,38,16.035,38.312Z" style="fill:#f7b64e"/><path d="M11.843,31.723a.519.519,0,0,0,.277.212,4.506,4.506,0,0,0,2.74-.192,4.156,4.156,0,0,0,2.082-.839.761.761,0,0,0,.25-.471c.071-1.287-2.529-.72-3.22-.564C13.218,30.038,11.224,30.564,11.843,31.723Z" style="fill:#f7b64e"/><path d="M11.22,40.89h-.01a10.476,10.476,0,0,1-3.19-1.91L8,39a6.082,6.082,0,0,0-.852.081,6.563,6.563,0,0,0,2.265,3.208,7.051,7.051,0,0,1,2.2-1.159C11.48,41.05,11.35,40.98,11.22,40.89Z" style="fill:#ffcb78"/><path d="M19,43v-.01c-1.47-.26-2.84-.55-4.09-.89a8.781,8.781,0,0,0-1.569,2.553,32.327,32.327,0,0,0,5.019,1.726A7.321,7.321,0,0,1,19,43Z" style="fill:#ffcb78"/><path d="M30,43.97c-1.32-.02-2.61-.08-3.86-.16-.09-.01-.17-.01-.26-.02-.3-.02-.59-.04-.88-.07V44a8.717,8.717,0,0,0,.166,3.619c1.888.214,3.866.342,5.907.372A7.787,7.787,0,0,1,30,44Z" style="fill:#ffcb78"/><path d="M37.07,43.86c0,.05-.01.1-.01.14H37a6.764,6.764,0,0,0,1.069,3.7,52.494,52.494,0,0,0,5.391-.815,5.949,5.949,0,0,1-1.44-3.477C40.45,43.61,38.79,43.76,37.07,43.86Z" style="fill:#ffcb78"/><path d="M51.09,41.52a36.263,36.263,0,0,1-4.05,1.07,4.7,4.7,0,0,0,1.642,2.856,22.624,22.624,0,0,0,4.5-2.135A3.478,3.478,0,0,1,51.09,41.52Z" style="fill:#ffcb78"/><path d="M55.22,39.6a2.8,2.8,0,0,0,1.082.745A4.524,4.524,0,0,0,57,38a4.023,4.023,0,0,0-.047-.59A3.834,3.834,0,0,1,55.22,39.6Z" style="fill:#ffcb78"/><path d="M51.09,41.52a3.478,3.478,0,0,0,2.089,1.791A9.531,9.531,0,0,0,56.3,40.345,2.8,2.8,0,0,1,55.22,39.6,16.329,16.329,0,0,1,51.09,41.52Z" style="fill:#f7b64e"/><path d="M47.04,42.59c-1.07.23-2.22.43-3.42.61l-.62.09-.98.12a5.949,5.949,0,0,0,1.44,3.477,38.789,38.789,0,0,0,5.222-1.441A4.7,4.7,0,0,1,47.04,42.59Z" style="fill:#f7b64e"/><path d="M37.06,44c0-.04.01-.09.01-.14-.64.03-1.29.06-1.94.08-1.03.04-2.07.06-3.13.06-.67,0-1.34-.01-2-.03V44a7.787,7.787,0,0,0,1.073,3.991c.308,0,.616.009.927.009,2.094,0,4.126-.1,6.069-.3A6.764,6.764,0,0,1,37,44Z" style="fill:#f7b64e"/><path d="M25,44v-.28c-2.13-.17-4.14-.42-6-.73V43a7.321,7.321,0,0,0-.64,3.379,48.894,48.894,0,0,0,6.806,1.24A8.717,8.717,0,0,1,25,44Z" style="fill:#f7b64e"/><path d="M13.19,41.61c-.52-.16-1.02-.34-1.48-.52a.689.689,0,0,0-.1.04,7.051,7.051,0,0,0-2.2,1.159,16.808,16.808,0,0,0,3.928,2.364A8.781,8.781,0,0,1,14.91,42.1C14.31,41.95,13.73,41.79,13.19,41.61Z" style="fill:#f7b64e"/><path d="M7.148,39.081A6.082,6.082,0,0,1,8,39l.02-.02a2.97,2.97,0,0,1-.97-1.586A4.083,4.083,0,0,0,7,38,4.132,4.132,0,0,0,7.148,39.081Z" style="fill:#d68020"/><path d="M51.35,12.639a10.022,10.022,0,0,1,2.91-.619,27.994,27.994,0,0,0-4.88-4.97,6.694,6.694,0,0,0-2.634,1.539A26.121,26.121,0,0,1,51.35,12.639Z" style="fill:#f7b64e"/><path d="M34.456,4.119a25.866,25.866,0,0,1,6.5,1.466A10.832,10.832,0,0,1,42.69,3.12a27.791,27.791,0,0,0-6.38-1.79A4.867,4.867,0,0,0,34.456,4.119Z" style="fill:#f7b64e"/><path d="M20.758,6.55a25.781,25.781,0,0,1,6.363-2.086A9.805,9.805,0,0,1,27.77,1.32a27.6,27.6,0,0,0-6.49,1.81A8.543,8.543,0,0,0,20.758,6.55Z" style="fill:#f7b64e"/><path d="M14.69,10.605c.015-.768.08-1.526.15-2.2a4.006,4.006,0,0,1,1.08-2.33,27.993,27.993,0,0,0-6.84,6.85,7.616,7.616,0,0,0,1.067,2.991A26.144,26.144,0,0,1,14.69,10.605Z" style="fill:#f7b64e"/><path d="M6.093,27.889A25.867,25.867,0,0,1,7.55,21.141,9.724,9.724,0,0,1,6.1,18.35a27.763,27.763,0,0,0-1.96,7.84A7.78,7.78,0,0,0,6.093,27.889Z" style="fill:#f7b64e"/><path d="M53.561,15.465A8.76,8.76,0,0,1,56.24,15a25.672,25.672,0,0,0-1.98-2.98,10.022,10.022,0,0,0-2.91.619A26.084,26.084,0,0,1,53.561,15.465Z" style="fill:#ffcb78"/><path d="M46.746,8.589A6.694,6.694,0,0,1,49.38,7.05a28.008,28.008,0,0,0-6.69-3.93,10.832,10.832,0,0,0-1.731,2.465A25.941,25.941,0,0,1,46.746,8.589Z" style="fill:#ffcb78"/><path d="M32,4c.829,0,1.647.043,2.456.119A4.867,4.867,0,0,1,36.31,1.33,27.758,27.758,0,0,0,32,1a28.078,28.078,0,0,0-4.23.32,9.805,9.805,0,0,0-.649,3.144A26.061,26.061,0,0,1,32,4Z" style="fill:#ffcb78"/><path d="M14.69,10.605A26.065,26.065,0,0,1,20.758,6.55a8.543,8.543,0,0,1,.522-3.42,28.324,28.324,0,0,0-5.35,2.94.01.01,0,0,1-.01.01,4.006,4.006,0,0,0-1.08,2.33C14.77,9.079,14.705,9.837,14.69,10.605Z" style="fill:#ffcb78"/><path d="M10.147,15.921A7.616,7.616,0,0,1,9.08,12.93,27.444,27.444,0,0,0,6.1,18.35a9.724,9.724,0,0,0,1.45,2.791A25.86,25.86,0,0,1,10.147,15.921Z" style="fill:#ffcb78"/><path d="M6.093,27.889a7.78,7.78,0,0,1-1.953-1.7C4.05,27.11,4,28.05,4,29V39a6.545,6.545,0,0,1,2-4.434V30C6,29.289,6.037,28.586,6.093,27.889Z" style="fill:#ffcb78"/><path d="M21,27.961c1.6-.292,3.268-.523,5-.685" style="fill:none;stroke:#000;stroke-linejoin:round;stroke-width:2px"/><path d="M8.48,32.49C5.65,34.38,4,36.61,4,39.01a5.143,5.143,0,0,0,.25,1.6A8.332,8.332,0,0,0,7,44.42a21.3,21.3,0,0,0,5.81,3.33c.7.28,1.43.55,2.19.8a41.357,41.357,0,0,0,4,1.09l.82.18a56.99,56.99,0,0,0,7.77,1.04c1.43.1,2.91.15,4.41.15,1.07,0,2.13-.03,3.17-.08A57.19,57.19,0,0,0,45,49.64c.88-.19,1.73-.41,2.55-.65.49-.14.98-.29,1.45-.44A31.672,31.672,0,0,0,52.88,47h.01A18.694,18.694,0,0,0,57,44.42,8.683,8.683,0,0,0,59.61,41,5.3,5.3,0,0,0,60,39.01a5.551,5.551,0,0,0-.09-1c-.47-2.41-2.6-4.63-5.91-6.42" style="fill:none;stroke:#000;stroke-linejoin:round;stroke-width:2px"/><path d="M57,44v2l-1.171,3.37A18.256,18.256,0,0,1,38.057,63H25.943A18.256,18.256,0,0,1,8.171,49.37L7,46V44" style="fill:none;stroke:#000;stroke-linejoin:round;stroke-width:2px"/><polyline points="60 30 60 38 60 39" style="fill:none;stroke:#000;stroke-linejoin:round;stroke-width:2px"/><path d="M51.592,9a28.042,28.042,0,0,0-8.9-5.88A27.824,27.824,0,0,0,32,1a28.078,28.078,0,0,0-4.23.32,27.6,27.6,0,0,0-6.49,1.81,28.02,28.02,0,0,0-12.2,9.8A27.444,27.444,0,0,0,6.1,18.35a27.763,27.763,0,0,0-1.96,7.84C4.05,27.11,4,28.05,4,29V39" style="fill:none;stroke:#000;stroke-linejoin:round;stroke-width:2px"/><path d="M54.26,12.02q-.6-.79-1.259-1.535" style="fill:none;stroke:#000;stroke-linejoin:round;stroke-width:2px"/><path d="M51.65,17.05c.01.01.01.01,0,.02" style="fill:none;stroke:#000;stroke-linejoin:round;stroke-width:2px"/><path d="M9.649,24q.123-.519.271-1.03a23.4,23.4,0,0,1,2.21-5.28A23.78,23.78,0,0,1,15,13.68a22.723,22.723,0,0,1,5.98-4.83,21.636,21.636,0,0,1,6.03-2.3,21.221,21.221,0,0,1,2.89-.46,23.493,23.493,0,0,1,10.25,1.4,22.934,22.934,0,0,1,9.09,6.3q.391.438.757.9" style="fill:none;stroke:#000;stroke-linejoin:round;stroke-width:2px"/><path d="M9.057,28q.06-1.009.206-2" style="fill:none;stroke:#000;stroke-linejoin:round;stroke-width:2px"/><path d="M53.16,19.97a.076.076,0,0,0-.02-.04" style="fill:none;stroke:#000;stroke-linejoin:round;stroke-width:2px"/><path d="M54.98,28.09c0-.14-.01-.27-.02-.4" style="fill:none;stroke:#000;stroke-linejoin:round;stroke-width:2px"/><path d="M37,44h0c0,3.32,2.24,6,5,6h0" style="fill:none;stroke:#000;stroke-linejoin:round;stroke-width:2px"/><path d="M42.02,43.41a5.985,5.985,0,0,0,5.53,5.57" style="fill:none;stroke:#000;stroke-linejoin:round;stroke-width:2px"/><path d="M53,47a.487.487,0,0,1-.12-.01c-3.03-.04-5.49-1.95-5.84-4.4" style="fill:none;stroke:#000;stroke-linejoin:round;stroke-width:2px"/><path d="M51.09,41.52C51.58,42.93,54.03,44,57,44h0" style="fill:none;stroke:#000;stroke-linejoin:round;stroke-width:2px"/><path d="M55.22,39.6c.6.76,2.32,1.33,4.39,1.39" style="fill:none;stroke:#000;stroke-linejoin:round;stroke-width:2px"/><path d="M60,38H57c-1.733,3.392-12.406,6-25,6-11.367,0-20.961-2.124-24-5.032" style="fill:none;stroke:#000;stroke-linejoin:round;stroke-width:2px"/><path d="M30,44c0,3.54,2.24,6.46,5.17,6.92" style="fill:none;stroke:#000;stroke-linejoin:round;stroke-width:2px"/><path d="M25,43v1c-.53,3.36.77,6.38,3,7" style="fill:none;stroke:#000;stroke-linejoin:round;stroke-width:2px"/><path d="M19.82,49.81C17.08,46.83,19,43,19,43" style="fill:none;stroke:#000;stroke-linejoin:round;stroke-width:2px"/><path d="M12.81,47.74a8.127,8.127,0,0,1,2.1-5.64" style="fill:none;stroke:#000;stroke-linejoin:round;stroke-width:2px"/><path d="M8,45H8c0-2.51,2.79-3.62,3.71-3.91" style="fill:none;stroke:#000;stroke-linejoin:round;stroke-width:2px"/><path d="M4.25,40.6C5.42,39,8,39,8,39" style="fill:none;stroke:#000;stroke-linejoin:round;stroke-width:2px"/><polyline points="30 51 30 54.97 30 58.97 30 63" style="fill:none;stroke:#000;stroke-linejoin:round;stroke-width:2px"/><polyline points="34 63 34 58.97 34 54.97 34 51" style="fill:none;stroke:#000;stroke-linejoin:round;stroke-width:2px"/><polyline points="45 62 45 57.89 45 53.89 45 49" style="fill:none;stroke:#000;stroke-linejoin:round;stroke-width:2px"/><polyline points="49 48 49 52.94 49 56.94 49 60" style="fill:none;stroke:#000;stroke-linejoin:round;stroke-width:2px"/><polyline points="15 48 15 52.94 15 56.94 15 60" style="fill:none;stroke:#000;stroke-linejoin:round;stroke-width:2px"/><polyline points="19 62 19 57.89 19 53.89 19 49" style="fill:none;stroke:#000;stroke-linejoin:round;stroke-width:2px"/><path d="M55.65,50.03a15.239,15.239,0,0,1-6.17,2.94c-.16.05-.32.09-.48.13-1.11.31-2.33.58-3.63.82l-.37.06A73.17,73.17,0,0,1,34.06,55H34c-.66.02-1.33.03-2,.03s-1.34-.01-2-.03h-.06A73.17,73.17,0,0,1,19,53.98l-.37-.06c-1.3-.24-2.52-.51-3.63-.82-.16-.04-.32-.08-.48-.13a15.239,15.239,0,0,1-6.17-2.94" style="fill:none;stroke:#000;stroke-linejoin:round;stroke-width:2px"/><path d="M53,56h-.56A23.63,23.63,0,0,1,49,57.27a39.361,39.361,0,0,1-4,.95A69.216,69.216,0,0,1,34,59.3c-.66.02-1.33.03-2,.03s-1.34-.01-2-.03a69.216,69.216,0,0,1-11-1.08,39.361,39.361,0,0,1-4-.95A23.63,23.63,0,0,1,11.56,56H11" style="fill:none;stroke:#000;stroke-linejoin:round;stroke-width:2px"/><path d="M10,23a.689.689,0,0,1-.08-.03c-2.4-.85-3.5-3.63-3.82-4.62" style="fill:none;stroke:#000;stroke-linejoin:round;stroke-width:2px"/><path d="M9.08,12.93c.19,1.34.85,3.74,3.05,4.76" style="fill:none;stroke:#000;stroke-linejoin:round;stroke-width:2px"/><path d="M16,6l-.012.012a4,4,0,0,0-1.145,2.4A13.488,13.488,0,0,0,15,13.47V14" style="fill:none;stroke:#000;stroke-linejoin:round;stroke-width:2px"/><path d="M20.98,8.85c-.13-.7-.57-3.69.3-5.72" style="fill:none;stroke:#000;stroke-linejoin:round;stroke-width:2px"/><path d="M27.01,6.55c.02-1.13.15-4.06.76-5.23" style="fill:none;stroke:#000;stroke-linejoin:round;stroke-width:2px"/><path d="M34.06,6.1c.14-1.32.61-3.73,2.25-4.77" style="fill:none;stroke:#000;stroke-linejoin:round;stroke-width:2px"/><path d="M40.15,7.49a12.046,12.046,0,0,1,2.54-4.37" style="fill:none;stroke:#000;stroke-linejoin:round;stroke-width:2px"/><path d="M45.41,10.14A7.618,7.618,0,0,1,49.54,7" style="fill:none;stroke:#000;stroke-linejoin:round;stroke-width:2px"/><path d="M54.53,22.89c-.13.03-.25.05-.33.07" style="fill:none;stroke:#000;stroke-linejoin:round;stroke-width:2px"/><path d="M43.62,43.2l4.47-4.47,5.34-5.34.39-.39.96-.96,3.14-3.14.81-.81A10.86,10.86,0,0,0,59.9,26.7,10.7,10.7,0,0,0,62,20.76,5.607,5.607,0,0,0,56.24,15a10.242,10.242,0,0,0-4.96,1.47,11.627,11.627,0,0,0-2.37,1.8l-2.86,2.87-6.14,6.13-6.14,6.14-4.5,4.5a11.765,11.765,0,0,0-3.13,5.9,1.286,1.286,0,0,0-.04.19" style="fill:none;stroke:#000;stroke-linejoin:round;stroke-width:2px"/><path d="M51.772,16.23a19.266,19.266,0,0,0,.818,9c1.636,4.909,2.863,6.136,1.227,7.772" style="fill:none;stroke:#000;stroke-linejoin:round;stroke-width:2px"/><path d="M51.363,17.457a17.029,17.029,0,0,1,3.272,5.726,9.9,9.9,0,0,1-.409,6.954" style="fill:none;stroke:#000;stroke-linejoin:round;stroke-width:2px"/><path d="M33.774,33.409a19.27,19.27,0,0,0,.818,9c.194.58.381,1.108.559,1.592" style="fill:none;stroke:#000;stroke-linejoin:round;stroke-width:2px"/><path d="M33.365,34.636a17.021,17.021,0,0,1,3.272,5.727A9.171,9.171,0,0,1,37.063,44" style="fill:none;stroke:#000;stroke-linejoin:round;stroke-width:2px"/><path d="M46.045,21.138a22.886,22.886,0,0,0,.818,9.817c1.636,4.908,2.863,6.135,1.227,7.771" style="fill:none;stroke:#000;stroke-linejoin:round;stroke-width:2px"/><path d="M45.636,23.183a17.04,17.04,0,0,1,3.272,5.727,9.9,9.9,0,0,1-.409,6.953" style="fill:none;stroke:#000;stroke-linejoin:round;stroke-width:2px"/><path d="M43,43a1.709,1.709,0,0,1,0,.32V43" style="fill:none;stroke:#000;stroke-linejoin:round;stroke-width:2px"/><path d="M39.91,27.274a22.881,22.881,0,0,0,.818,9.816c1.029,3.087,1.9,4.717,1.991,5.91" style="fill:none;stroke:#000;stroke-linejoin:round;stroke-width:2px"/><path d="M39.5,29.319a17.029,17.029,0,0,1,3.272,5.726A9.9,9.9,0,0,1,42.364,42" style="fill:none;stroke:#000;stroke-linejoin:round;stroke-width:2px"/><path d="M34,16h.416a4.632,4.632,0,0,1,3.8,1.888,3.377,3.377,0,0,1,.739,1.725L35,25" style="fill:none;stroke:#000;stroke-linejoin:round;stroke-width:2px"/><path d="M40.531,23,40,21.032v-.064s-.187-1.355-1.35-1.355" style="fill:none;stroke:#000;stroke-linejoin:round;stroke-width:2px"/><path d="M34,16h-.416a4.632,4.632,0,0,0-3.8,1.888,3.377,3.377,0,0,0-.739,1.725L33,25" style="fill:none;stroke:#000;stroke-linejoin:round;stroke-width:2px"/><path d="M31,36l-4.188-6.174A4.584,4.584,0,0,1,26,26.839v-.9a1.511,1.511,0,0,1,.591-1.446L27,24h1" style="fill:none;stroke:#000;stroke-linejoin:round;stroke-width:2px"/><path d="M32.3,30l-4.732-5.432a1.289,1.289,0,0,1-.215-1.135l.647-2.4v-.064s.187-1.355,1.35-1.355" style="fill:none;stroke:#000;stroke-linejoin:round;stroke-width:2px"/><path d="M28.38,39.45c-1.25-2.15-2.18-4.54-2.87-5.93A4.578,4.578,0,0,1,25,31.81V30.45a3.034,3.034,0,0,1,.62-1.29l.63-.44.1-.07" style="fill:none;stroke:#000;stroke-linejoin:round;stroke-width:2px"/><path d="M25.88,43.79A6.914,6.914,0,0,0,27,40a6.989,6.989,0,0,0-5.23-6.77A6.871,6.871,0,0,0,20,33a7,7,0,0,0-7,7,6.572,6.572,0,0,0,.19,1.61" style="fill:none;stroke:#000;stroke-linejoin:round;stroke-width:2px"/><path d="M21.77,33.23a6.72,6.72,0,0,0-1.2-2.46A6.982,6.982,0,0,0,15,28a6.977,6.977,0,0,0-6,3.4,5.878,5.878,0,0,0-.53,1.1A6.7,6.7,0,0,0,8,35v.04a6.958,6.958,0,0,0,3.22,5.85c.13.09.26.16.39.24" style="fill:none;stroke:#000;stroke-linejoin:round;stroke-width:2px"/></g></svg>